<?xml version="1.0" encoding="UTF-8"?>
<svg xmlns="http://www.w3.org/2000/svg" viewBox="-4 -14 26 18" width="104" height="72">
  <g transform="translate(-5, -12)">
    <path fill="#000" d="M12.4,2.5 C9.8,2.5,7.6,3.4,5.9,5.2 C4.2,7,3.3,9.2,3.3,11.8 c0,2.8,1,5.2,2.9,7.1 c1.9,1.9,4.3,2.9,7.1,2.9 c2.1,0,4-0.6,5.6-1.9 l-1.3-1.6 c-1.2,0.9-2.7,1.4-4.3,1.4 c-2.2,0-4.1-0.8-5.6-2.3 c-1.5-1.5-2.2-3.4-2.2-5.6 c0-2.2,0.8-4.1,2.3-5.6 c1.5-1.5,3.4-2.3,5.6-2.3 c3.2,0,5.9,2,7,4.8 h2.3 C21.6,6,17.5,2.5,12.4,2.5 z"/>
  </g>
  <circle cx="15" cy="-5" r="1.8" fill="#000"/>
  <circle cx="15" cy="0" r="1.8" fill="#000"/>
</svg>
