<?xml version="1.0" standalone="no"?>
<!DOCTYPE svg PUBLIC "-//W3C//DTD SVG 1.1//EN" "http://www.w3.org/Graphics/SVG/1.1/DTD/svg11.dtd" >
<svg xmlns="http://www.w3.org/2000/svg" xmlns:xlink="http://www.w3.org/1999/xlink" version="1.1" viewBox="-10 0 1048 1024">
   <path fill="currentColor"
d="M495 16q-3 0 -10 2.5t-10 4.5l-24 12q-6 3 -14 9l-11 11l-6 8q-2 3 -6 7.5t-14 19.5l-12 20l-10 21q-8 17 -13 25l-17 30l-8 12q-7 11 -19 35l-12 20q-4 6 -6 11l-15 35l-61 116l-32 54l-12 18l-14 21q-8 10 -21.5 21t-24.5 16l-44 22l-26 11q-2 -9 -3.5 -30t-1.5 -35
q1 -17 -0.5 -19.5t-9.5 1.5l-17 5q-5 2 -9 2q-8 2 -8 9q0 3 1 7q1 3 1 13l11 140q6 95 13.5 164.5t18.5 139.5l4 23q3 9 7.5 10t12.5 -2l19 -6q6 -1 4.5 -10.5t-2.5 -13.5v-6q6 -3 37 -7q14 -2 28 -5t36 -8l38 -8q33 -7 57 -14t46 -16l44 -15l42 -10l19 -4q3 -1 17 -6.5
t41 -19.5q12 -6 20.5 -9.5t25.5 -9.5l34 -13q9 -3 16 -7q24 -12 41 -27t30 -36l12 -12l15 -12q16 -10 29.5 -29t30.5 -57q6 -11 11.5 -27.5t7.5 -24.5l2 -11l4 -16l11 -35q2 -7 3.5 -11t4.5 -7q7 -11 0 -1.5t-16 34t-13 44.5q-2 13 -12.5 38.5t-23.5 50.5q-7 14 -18.5 27.5
t-22.5 21.5q-7 4 -15.5 11.5t-11.5 11.5l-11 15q-9 12 -16.5 18.5t-22.5 16.5q-16 10 -29 16t-43 16q-36 13 -59 26q-14 8 -26 12.5t-26 7.5q-45 8 -95 28q-22 8 -50.5 16t-59.5 14l-133 28l-7 -41q-10 -60 -15 -104t-9 -111l-9 -125l32 -15q33 -15 52 -27t31 -26
q6 -7 15.5 -21.5t13.5 -22.5l29 -48q4 -7 13 -23l32 -63l19 -33l16 -36l7 -14l24 -44l32 -52q5 -10 11 -23l11 -24q4 -7 11 -17l8 -13q3 -5 6.5 -9t6.5 -8t11 -12l10 -9q5 -4 11.5 -7.5t11.5 -4.5l10 -6q7 -3 13 -5q12 -2 24.5 0t16.5 3l60 16q13 3 26 5q10 1 31 2l29 1
l69 4q20 1 36.5 3.5t28.5 6.5l14 4q11 3 25 9t22 10l29 16q20 10 36 25t21 30t-2.5 53.5t-21.5 67.5q-8 15 -23 40.5t-24 37.5l-12 17q-6 9 -12 16.5t-14 16.5l-16 17q-11 12 -25 22.5t-20 11.5q-2 0 1 -3q8 -10 16 -24l18 -33l10 -20l11 -18q18 -31 26 -53t8 -40
q1 -16 -6 -30q-3 -7 -18 -20.5t-34 -27.5l-18 -13q-7 -5 -13 -9l-16 -11q-15 -10 -31.5 -19.5t-38.5 -21.5l-51 -26l-26 -11q-34 -14 -55.5 -20t-41.5 -7q-8 -1 -17.5 -0.5t-11.5 2t2.5 0.5t17 -0.5t21.5 1.5q27 4 61.5 17t72.5 33l33 17q16 9 33.5 19.5t30.5 18.5l16 11
q6 4 13 10l17 13q20 14 34.5 27t17.5 19q20 38 -28 120l-20 38q-20 39 -36 57l-32 34l-13 10q-4 3 -18.5 9.5t-23.5 8.5q-18 3 -74 -10q-17 -4 -27.5 -4.5t-21.5 2t-13.5 2.5t-0.5 -3l1 -15q1 -19 3 -27l3 -21q4 -23 7 -32l4 -15q0 -5 1.5 -8t5.5 -6l6 -3q21 -2 28.5 -4
t9.5 -0.5t3 11.5q1 12 6 22.5t15 20.5t14 13t-3 -5q-12 -13 -17.5 -23.5t-7.5 -22.5l-2 -8l3 -7q1 -6 4 -7.5t20 -4.5q44 -8 68 -25q16 -10 1 -2q-10 6 -28 11.5t-40 9.5l-26 5l1 -5q3 -10 2 -31l-2 -30q-2 -26 -3.5 -39t-2.5 -21v85q2 26 -1 35.5t-15 12.5q-6 2 -10.5 2.5
t-12.5 1.5q-10 0 -12 1.5t-21 -27.5l-8 -11l-20 -25q-10 -15 -22 -26.5t-19.5 -15.5t-2 -0.5t16.5 17t22 28.5l45 61q1 2 0 11l-3 18l-16 90q-1 19 -4 28l-4 15q-2 8 -6 19l-6 13q-3 6 -0.5 4t6.5 -9q6 -10 9.5 -19t5.5 -22q2 -9 3 -11.5t3 -2.5l9 -1q13 -3 24.5 -2t35.5 7
q31 8 49.5 9t32.5 -5l12 -5q4 -2 7 -4q8 -6 12 -4.5t16 3.5l24 3q38 -3 50 -8q4 -2 9 -7l9 -9l14 -18q5 -6 11 -13q18 -19 27.5 -31.5t23 -35t21 -38.5t15.5 -41q7 -20 9 -20q3 -1 12.5 -14.5t21 -32t16.5 -38.5q3 -11 3 -20q0 -8 -2 -15q-3 -13 -7.5 -24.5t-8.5 -16.5
q-7 -9 -1 0.5t11 27t5 31.5q-1 27 -21 58q-10 16 -19 28t-9 9l9 -29q13 -41 16 -58t3 -50q1 -21 0 -27.5t-5 -13.5q-10 -21 -36 -30.5t-76 -11.5q-15 -1 -17.5 -2t-15.5 -3t-21 -2l-11 -1q-10 0 -19 1l-12 1q-3 0 -7 -1q-6 -1 -16 -2l-73 -5l-31 -1q-25 0 -35 -1l-20 -3
l-48 -11l-30 -9l-19 -3h-17zM838 56q10 1 16 1q22 3 46 4l12 1l18 2q42 6 60 28q7 8 9.5 18t1.5 32q0 29 -2 43.5t-8 32.5l-17 55l-9 27q-10 27 -17 43t-17 31l-13 22q-15 26 -42 54l-13 15q-9 13 -15 19t-11 10q-4 1 -14.5 4.5t-17.5 4.5h-23l-31 -4l-4 -2q9 -8 14 -14
l17 -18q4 -5 5.5 -6t3.5 -1q9 -1 24 -12.5t29 -26.5l12 -14q15 -15 21 -25l12 -16q7 -9 12 -17l27 -44q11 -18 18 -36t12 -38q9 -39 10 -55t-5 -26.5t-17.5 -22t-26.5 -19.5q-8 -5 -9 -6t-7 -4q-16 -9 -24.5 -14t-22.5 -11t-27 -9l-19 -6l5 -1h10zM980 106q-5 3 -5.5 4.5
t3.5 -1.5q6 -7 2 -3zM520 113q-16 3 -38.5 12t-22.5 12q1 1 12 -4q21 -10 38 -13.5t33 -1.5q6 1 5 -1t-9 -3.5t-18 -0.5zM945 161q-3 2 -6 4.5t-3 3.5t5 -3q4 -3 6.5 -4.5t1.5 -1.5t-4 1zM853 246q-4 2 -7 4.5t-2.5 3t5 -2.5t6.5 -3.5t2 -1.5t-4 0zM831 484l4.5 4.5t-1 -2.5
t-6.5 -6t-4 0q4 1 7 4zM719 485q5 4 4.5 2.5t-4 -4t-5.5 -1.5q2 0 5 3zM47 562q0 3 1 24l6 93q5 88 9.5 134t13.5 99l11 63q3 13 3 16.5t-2 3.5l-13 3q-11 4 -13 4q-4 3 -6.5 -11.5t-10.5 -74.5l-14 -117l-11 -144q-7 -82 -10 -109l-3 -27q-1 -9 0.5 -11.5t7.5 -2.5t20 -5
l7 -3zM207 651q0 3 12.5 23t25.5 37q24 32 49 51t65 37l19 8q3 1 3 -0.5t-12 -7.5q-46 -21 -67 -36t-43 -40q-18 -21 -34 -46t-18 -26z" />
</svg>
