<?xml version="1.0" standalone="no"?>
<!DOCTYPE svg PUBLIC "-//W3C//DTD SVG 1.1//EN" "http://www.w3.org/Graphics/SVG/1.1/DTD/svg11.dtd" >
<svg xmlns="http://www.w3.org/2000/svg" xmlns:xlink="http://www.w3.org/1999/xlink" version="1.1" viewBox="-10 0 1045 1024">
   <path fill="currentColor"
d="M494 13q-13 3 -24.5 7.5t-25.5 12.5l-38 22q-13 8 -27 13.5t-40 11.5l-20 5l-52 16q-34 8 -63.5 22.5t-31.5 22.5q-1 1 -5 3q-16 6 -34 15t-26 15t-15 8.5t-9 3.5t-11 3q-32 8 -51.5 31t-19.5 56q-1 21 7.5 38t33.5 45l22 26q4 4 6 10q5 10 13 23l23 34l23 30l17 20
q10 11 15.5 15.5t13.5 6.5q5 2 12 6t17 7t15 4q3 0 8 4q9 6 19.5 8t18.5 0q6 0 22 18t24 32q3 7 7.5 21t5.5 17q1 8 11 29.5t18 29.5l11 13q22 26 46.5 47t40.5 29q3 2 9 8q15 18 35 30.5t36 15.5q10 1 28 2t21 0l6 -1l34 -2q5 -1 6.5 -1t2.5 2q6 6 22.5 13t39.5 12l22 6
q14 4 20 5q14 6 24 9l16 4q21 5 36.5 11.5t32.5 14.5l15 6l27 10l33 14q4 1 5 3.5t1 11.5v25l5 11q16 9 28 8t16 -3q2 0 3 -5.5t2 -13.5q2 -21 4 -51l4 -71q7 -103 13.5 -167t16.5 -126l9 -57q1 -6 1 -9t-1 -4q-4 -2 -26.5 -6.5t-27.5 -3.5q-3 2 -5.5 11.5t-4.5 20.5
q-1 7 -2 8t-4 -1l-9 -6l-36 -18l-13 -7l-17 -11q-9 -5 -17 -11l-16 -12q-22 -15 -46.5 -46.5t-40.5 -65.5l-16 -31l-67 -125l-12 -19q-3 -4 -8 -15l-9 -21q-16 -38 -32.5 -66t-30.5 -41q-19 -16 -44 -23q-16 -4 -30 -4q-8 0 -16 1zM531 18q6 2 11 4l8 2q13 5 29 20t26 32
l8 14l10 19q5 12 19.5 40.5t18.5 36.5q14 22 25 46l32 59l35 68q17 34 40 65t42 44l17 14q16 12 33.5 22.5t35.5 17.5q12 5 15.5 7.5t11.5 7.5q7 3 8.5 4.5t0.5 2.5l-10 68q-10 73 -19 188q-2 18 -5 44v102l-30 -10q-20 -6 -45 -18q-37 -18 -84 -30l-13 -3l-16 -6
q-9 -3 -32 -9t-30 -8l-21 -9q-16 -6 -18 -8q0 -1 5 -2q9 -2 9 -5t-19 1q-14 4 -27 5h-29q-81 -16 -104 -38q-8 -8 -10 -11l8 -1l30 -2q8 0 -10 -3l-18 -2q-5 -1 -10 -1q-21 -4 -60 -40.5t-56 -67.5q-7 -15 -10 -22t-5 -14l-3 -12l-4 -9q-7 -19 -27 -43t-47 -47
q-11 -9 -18.5 -21t-10.5 -25q-1 -5 -3 -4.5t1 11.5q2 7 1 8t-6 -2t-8 -6.5t-12 -18t-12 -18.5q0 -2 -2 -2t3 10l3 6h-6q-12 -2 -31 -13t-35 -24q-32 -30 -58 -59.5t-35 -45.5l-4 -7l-3 -6l-3 -14q-1 -9 -1.5 -19t0.5 -6q5 23 9 32t12 17q17 16 34 22.5t25 -0.5t30 -42
q10 -16 15.5 -25.5t11.5 -22.5l4 -9q7 -13 -4.5 -25t-37.5 -19l-12.5 -2.5t-5.5 -1.5q7 -3 24 -1t35 7l20 5q24 7 50.5 20t53.5 33q15 10 23 15.5t18 10.5q18 10 34 24t37 39q14 17 20.5 24t14.5 14l25 22q23 22 53 39q10 6 19 12l31 18l16 11q5 4 12 11.5t11 14.5
q7 11 10 11t-2 -11q-7 -14 -22 -27.5t-35 -23.5l-9 -5l-32 -20q-11 -6 -23 -15.5t-23 -19.5l-25 -21q-7 -6 -14.5 -14t-19.5 -23l-8 -8l12 -9l9 -6q15 -8 22.5 -15t13.5 -17q8 -15 3 -17q-2 -1 -2 2t-3 9q-6 9 -13 15t-21 14t-19 14l-6 5l-6 -7q-25 -26 -47 -38l-22 -13
l-27 -17q-28 -19 -54.5 -33t-45.5 -19q-22 -7 -43.5 -11.5t-30.5 -5.5h-5l6 -2q5 -3 11.5 -7.5t20.5 -12.5t31 -15q8 -3 29.5 -10t35.5 -10q21 -6 53 -11.5t58 -7.5q20 -2 35.5 -5t34.5 -9q32 -10 59.5 -12.5t45.5 2.5q3 1 17.5 8t22.5 13q10 6 16 18l13 24q12 19 14 21
q2 0 0.5 -4t-7.5 -15l-14 -25q-9 -18 -15.5 -22t-21.5 -12t-21 -10q-16 -6 -46.5 -3.5t-63.5 12.5q-18 6 -32 8.5t-37 4.5l-13 2l-44 6q-43 6 -91 22q-12 4 -14 4t4 -4q13 -10 36 -19.5t49 -15.5l53 -16l15 -3q23 -6 39 -11.5t28 -12.5l14 -8q7 -3 31 -18q43 -26 82 -18z
M508 128q0 2 4 2t12 4.5t12 7.5q5 7 4.5 4t-4.5 -7q-6 -6 -16.5 -10t-11.5 -1zM89 203q2 1 7 2l10 3q31 8 39 22q3 5 2.5 8.5t-4.5 10.5l-8 13q-16 29 -31.5 54t-20.5 29q-10 4 -32 -9t-32 -27q-6 -14 -8 -33.5t1 -29.5q7 -15 23 -27.5t32 -16.5l12 -2q6 -2 6.5 0t3.5 3z
M226 319q-17 13 -28.5 30.5t-7.5 24.5q4 3 3.5 -3t9 -19t22.5 -24q8 -7 8.5 -11t-7.5 2zM245 351q-10 8 -16 17t-5.5 13.5t2.5 -2.5q3 -11 23 -27q4 -3 3.5 -5.5t-7.5 4.5zM483 355q-3 1 -20 1q-12 -1 -15.5 0t0 3t17.5 1.5t21 -2.5q4 -2 2.5 -3t-5.5 0zM98 423
q21 22 40.5 34t41.5 16l5 1l7 10q6 9 14 15.5t14 6.5q1 1 3.5 5.5t7.5 10.5l10 10q5 7 -3 8q-30 3 -45 -8q-3 -1 -9 -4l-9 -4q-7 -3 -10 -5.5t-9 -9.5l-29 -32l-8 -10l-31 -47q-18 -26 10 3zM1002 509q2 0 5 1.5t7 5.5q0 2 -5 34l-10 68q-8 61 -15.5 142.5t-11.5 169.5
l-3 74l-8 -1q-8 0 -15.5 -1.5t-11.5 -3.5l-3 -1v-19q-1 -23 4 -134q3 -55 10 -123t18 -141l8 -61q3 -15 12 -14.5t13 2.5zM261 550q2 4 -7.5 3.5t-18.5 -4.5l-5 -3l10 -2q9 -2 10 -2.5t5 2.5t6 6zM783 626l-2 6l-5 13q-12 33 -27 62t-34 57q-8 12 -6 13.5t18.5 -23.5
t27.5 -45t22.5 -48t10.5 -34q-2 -3 -5 -1zM385 654q1 7 29 31.5t52 38.5q17 8 35.5 13t21.5 2q2 -2 -1 -3t-12 -2q-17 -4 -31.5 -10.5t-32 -19t-36.5 -28.5t-21 -20.5t-4 -1.5zM820 671q0 1 -3 7l-3 6q-22 46 -38.5 76t-25.5 40q-7 9 -1 7q12 -10 43 -65.5t33 -71.5
q-2 -4 -5 1z" />
</svg>
