<?xml version="1.0" standalone="no"?>
<!DOCTYPE svg PUBLIC "-//W3C//DTD SVG 1.1//EN" "http://www.w3.org/Graphics/SVG/1.1/DTD/svg11.dtd" >
<svg xmlns="http://www.w3.org/2000/svg" xmlns:xlink="http://www.w3.org/1999/xlink" version="1.1" viewBox="-10 0 669 1024">
   <path fill="currentColor"
d="M192.163 259.12q-16.0156 -1.90723 -25.9932 -0.350586q-9.97656 1.55762 -18.2939 6.51855q-4.15918 2.47949 -10.0752 8.13184q-5.91797 5.65527 -8.64258 8.98926t-5.6582 6.00781l-6.06445 6.57324q-16.0586 18.1699 -41.9766 27.2451l-5.38379 2.28711
l-9.15527 2.31738q-9.05566 1.70312 -13.4248 3.52246q-4.36816 1.81836 -7.91406 4.39453q-0.614258 -0.0976562 -3.48242 4.15723q-2.87207 4.25488 -1.78027 13.2139l1.57715 5.89844q1.25293 3.96484 4.34766 8.2207l7.11621 10.5439l-3.54492 2.5752
q-9.83496 6.60254 -17.8506 17.5752q-8.0127 10.9717 -9.56543 20.7676q-0.678711 4.28711 -0.394531 14.375q0.286133 10.0869 0.831055 14.5674q1.38379 7.12402 3.65234 10.623q2.27344 3.49805 8.52246 7.62695q5.12402 3.32227 5.28418 4.29004
q0.161133 0.966797 -2.86914 4.25293l-6.77148 7.08691q-13.3506 12.9492 -15.582 27.0342q-4.84668 30.6152 7.71387 46.417q3.1875 3.6416 8.63281 8.89844t7.08887 6.77148q0.514648 0.710938 -1.40527 2.91699q-1.91797 2.20703 -3.43359 3.84961
q-3.4502 1.96484 -7.74121 13.2129l-4.80762 10.5361q-4.09863 10.0205 -3.19922 20.207l2.24805 13.5361q1.89941 7.83398 2.73535 10.4775q2.09082 6.6084 10.6123 14.2344q8.52246 7.62793 17.833 12.2422q3.48047 1.80762 3.90039 3.12598
q-5.67383 4.12402 -8.58301 16.5303q-2.90527 12.4092 -0.976562 24.0127q1.09082 8.95996 4.73047 17.6973q3.63672 8.73535 6.8252 12.3779l4.92773 4.54785q6.05762 5.35449 17.0615 11.1768q11.0039 5.82324 19.4814 7.79199q6.02441 1.58398 16.7266 1.39453
l21.4014 -0.375977l13.1514 0.201172q6.21875 0.356445 8.15527 0.0332031l2.54297 -0.223633l2.67578 2.93652q1.4502 2.73828 5.18652 4.90039q3.7373 2.16016 11.4062 5.25879l17.5938 7.80957q10.5371 4.80664 20.0439 8.19434l19.0137 6.7793
q13.6953 4.67871 25.749 7.84277q12.0508 3.16406 22.0449 3.49219q10.6016 0.423828 32.0049 0.0449219q21.4014 -0.375977 37.291 -1.62207l7.63867 -0.674805l13.7627 0.295898l36.583 -1.11035q28.4268 -1.14551 35.3086 -0.996094q6.88184 0.145508 12.1016 2.8584
l11.2471 4.29102q15.0176 4.25977 27.6494 9.71484q12.6328 5.45215 24.6182 13l12.1797 6.32031q0.516602 0.711914 -0.520508 11.2188l-4.1709 26.3311q3.73047 20.0488 10.6895 23.6631q6.95898 3.61133 13.6953 4.67969q5.5127 0.871094 10.0889 -0.286133
q10.9922 -2.02441 15.6045 -11.3369l60.7129 -383.327q3.22559 -4.50781 3.70996 -7.56836q0.291016 -1.83887 -0.738281 -3.25977q-1.35254 -3.35254 -14.1924 -9.46582q-12.8428 -6.11328 -22.125 -6.95605l-4.89648 -0.774414q-3.06152 -0.485352 -5.29004 1.6709
q-2.22363 2.15918 -2.80664 5.83398l-6.53809 61.1074l-15.5342 -4.9707q-5.41504 -1.48633 -8.99023 -2.67969q-3.57617 -1.19531 -8.69922 -4.51758l-8.18555 -3.80762l-7.05762 -2.99902q-5.31641 -2.09863 -9.4082 -4.00098q-4.09375 -1.90332 -8.60254 -5.13086
l-7.47656 -4.32227q-13.7275 -8.45117 -20.1377 -13.5449q-6.41113 -5.09668 -14.3369 -14.5117q-16.1689 -20.7646 -29.2607 -39.1582q-13.0947 -18.3926 -26.4287 -41.2197l-15.3916 -25.6631l-25.0537 -47.9072q-3.41309 -6.18945 -14.1279 -13.8496
q-10.7109 -7.65918 -27.1777 -14.6611l-50.9473 -23.1348l-11.665 -5.61523q-8.18359 -3.80664 -23.9404 -11.3232l-20.5605 -8.90625q-6.54199 -2.29102 -16.8057 -4.85938q-10.2646 -2.56641 -20.0635 -4.11816zM223.037 270.288q3.47852 1.80762 10.6348 4.19531
l102.502 46.3652q17.5938 7.80762 27.9062 16.0283q10.3076 8.22559 15.4922 19.0908q8.18164 15.7314 15.748 31.3682l3.83105 7.51074l15.8125 26.9834q12.3984 20.7959 24.1543 37.7236l24.123 33.9502q25.0957 27.8262 38.3076 35.5693l13.2129 7.74023l6.95703 3.61328
l9.92578 4.71289l7.05664 2.99805l8.18555 3.80762q5.2207 2.71094 8.79688 3.90527q3.57715 1.19531 9.60449 2.77637l10.8281 2.97168q2.35156 0.999023 4.80176 1.38672l-11.542 72.8691l-22.4844 106.286l-16.584 104.711l-28.2588 -15.7754l-6.95996 -3.61426
l-30.8701 -11.165q-6.64062 -1.68066 -9.50781 -3.38867q-3.99707 -2.5166 -14.2441 -3.19727q-10.249 -0.681641 -37.4531 0.658203q-15.8906 1.25 -23.0781 1.05371q-7.18652 -0.198242 -15.3418 -0.233398l-8.05762 -0.647461l-9.47656 0.380859
q-49.6045 4.07031 -74.3887 2.02637q-24.7832 -2.04199 -48.3096 -12.0449l-23.6191 -9.38965l-26.3926 -11.7129q-12.9873 -5.19727 -15.4668 -9.35547l-1.54492 -2.12598l2.12793 -1.54785q2.03027 -0.933594 3.64453 -3.18652q1.61328 -2.25684 1.5 -3.53125
q-0.112305 -1.27246 1.82227 -1.59277q1.93359 -0.323242 10.668 -3.95996q8.73828 -3.63965 13.4131 -5.40918q9.54199 -4.76562 19.0547 -13.3027q6.5752 -5.8623 11.333 -10.1299q4.75586 -4.26953 7.4668 -9.48926q2.70996 -5.2207 5.08301 -14.2578
q2.37305 -9.04102 0.922852 -11.7793q-0.611328 -0.0986328 1.09863 -2.96582q4.32129 -7.47656 6.51758 -19.3691q2.19824 -11.8916 0.0117188 -17.8867q-1.96582 -3.45117 8.28613 -8.73242q4.77246 -2.38281 10.1377 -6.55273q5.37012 -4.17285 6.88574 -5.81348
q1.80664 -3.48242 2.93457 -2.6748l2.80078 6.09375q2.28613 5.38086 5.79688 10.959l4.76465 9.54297q2.57617 3.54785 3.6084 4.96582l4.83105 5.15918q7.60254 7.48145 16.1104 13.2217q8.50488 5.74316 17.3994 9.03418q3.57617 1.19238 4.69043 0.114258
q1.11328 -1.08008 -2.36816 -2.88379q-2.35352 -1.00098 -9.92578 -4.71191l-10.3418 -6.0332q-6.25195 -4.12793 -11.9521 -9.7373q-5.70215 -5.61328 -7.05566 -8.96582l-4.66992 -10.1543q-4.44238 -7.60938 -7.91992 -15.3779t-3.99219 -8.47852
q-0.516602 -0.709961 -0.739258 -3.25391l-5.62793 -27.8838q-3.40625 -18.1152 -4.64844 -20.1934q-1.23828 -2.08105 -2.2041 -7.88281l-2.02441 -10.9902q-1.38281 -7.12598 -1.8623 -15.9883q-0.478516 -8.86523 0.271484 -29.4609
q0.588867 -15.5977 -0.0976562 -31.0859q-0.686523 -15.4863 -2.58301 -23.3193q-0.964844 -5.80176 -3.03906 -10.5234q-2.07812 -4.72461 -8.4873 -15.7822l-7.9541 -13.1865l2.54395 -0.224609q20.4033 1.97656 17.8271 -1.56934q-0.416992 -1.32227 -1.99805 -1.25879
q-1.58008 0.0644531 -8.7666 -0.133789q-7.1875 -0.198242 -10.2021 -0.987305q-3.01172 -0.791016 -4.25195 -2.87109q-1.23926 -2.08008 -2.54297 -5.73926q-1.30371 -3.6582 -1.0127 -5.49512t-0.932617 -2.03125q-1.22656 -0.194336 -1.35645 2.61035
q-0.129883 2.80371 1.22168 6.15723l1.25586 3.96387l-6.73535 -1.06738q-9.89648 -0.9375 -10.4395 -5.41797q-1.16211 -4.57715 -2.67188 -8.89746q-1.51367 -4.31934 -1.34961 -9.31445q0.163086 -4.99609 1.81152 -15.4062q2.23047 -14.084 1.52246 -13.5684
q-2.22559 2.1582 -4.29492 17.207q-2.07031 15.0547 -0.589844 21.5645q1.34863 3.35254 -0.180664 3.11133q-1.53027 -0.243164 -8.18262 -3.80859q-6.6543 -3.56543 -8.4707 -13.8945q-1.81738 -10.333 0.770508 -30.6367q3.46289 -25.8135 1.62402 -26.1055
q-2.22559 2.15918 -4.68457 25.6211q-2.46094 23.4648 -1.40039 28.6514q-0.0966797 0.613281 -2.64551 0.837891l-18.791 7.69434q-19.5029 8.20996 -22.9844 6.40332q-13.9209 -7.22754 -35.0469 -10.5713q-21.126 -3.34668 -39.1426 -0.550781
q-7.125 1.38184 -10.9111 -0.473633q-3.78613 -1.85352 -8.84082 -9.56152q-7.12109 -10.543 -5.66504 -19.7275q1.4541 -9.18652 9.51172 -8.53516q3.5791 1.19336 4.64355 0.421875q1.06152 -0.774414 5.44629 -0.707031q7.63867 -0.674805 19.4375 -3.82715
q11.7959 -3.1543 18.502 -5.8584q2.12793 -1.54492 5.56152 -5.39453q3.43652 -3.84961 4.0332 -5.6377q0.59668 -1.79102 5.65918 -6.00879q8.7041 -7.40918 13.3496 -12.9512l4.4502 -4.31641q2.93457 -2.6748 3.93359 -5.02539q3.93457 -5.02637 11.5273 -11.3564
q7.59375 -6.33008 13.6885 -9.13184q8.02539 -3.12207 21.5303 -3.18066q13.5059 -0.0576172 27.3955 3.39844l7.86328 1.87109q4.89844 0.777344 8.99121 2.68164zM171.824 264.686q-0.387695 2.4502 0.610352 6.06152q0.996094 3.60938 2.62695 3.24023
q1.62695 -0.370117 0.000976562 -5.96191q-1.62598 -5.59375 -3.23828 -3.33984zM161.059 269.26q-0.808594 1.12695 0.948242 3.91504q1.75488 2.78809 2.97656 2.98242q2.96875 1.09766 -0.639648 -3.86621q-2.06152 -2.83789 -3.28516 -3.03125zM358.304 347.577
q-2.5459 0.225586 -1.77246 1.28809q0.772461 1.0625 3.78711 1.85547q3.01172 0.790039 5.68652 3.72461q2.67188 2.93359 3.27148 1.14551q0.595703 -1.78711 -1.30566 -3.65723q-1.89941 -1.87109 -4.20312 -3.17676q-2.30566 -1.30664 -5.46387 -1.17969z
M100.698 317.446q-6.16113 7.18457 -20.6992 11.7891q-14.5381 4.60156 -30.8447 4.52734q-6.83398 -0.454102 11.2803 -3.8623q9.76855 -2.21777 21.0518 -6.0791q11.2812 -3.8623 17.5205 -7.58594q6.23828 -3.71875 1.69141 1.21094zM182.504 375.598
q3.44531 9.95996 16.0439 17.6055q6.34668 3.5166 7.58594 5.5957q1.24121 2.08008 3.85059 3.43457q2.60938 1.35645 9.08789 2.06738q6.47852 0.712891 8.42773 2.27637t4.55664 8.88184l5.28125 10.251q2.99414 4.86914 0.739258 3.25684
q-31.29 -12.4873 -30.6113 -16.7744q1.35742 -8.57227 0.391602 -8.41309q-0.96875 0.162109 -2.24414 6.2373q-1.27539 6.07617 -1.98633 6.58984l-5.50977 -0.873047l-6.02539 -1.58203l-17.0508 -3.32812l1.3584 -8.57324q1.13379 -11.1191 0.476562 -16.873
q-0.65918 -5.75195 -2.68848 -4.81934q-0.0966797 0.612305 0.0302734 3.77148q-0.0683594 4.38281 -0.90918 13.666q-0.842773 9.28027 -1.43945 11.0703q-0.597656 1.78809 -5.59375 1.62402l-5.60645 -0.259766q-0.615234 -0.0966797 -2.36816 -2.88477
q-1.75488 -2.79004 -5.92676 -8.1582q-4.17285 -5.36719 -6.94238 -7.69141l-3.28516 -3.03223q0.708984 -0.513672 3.25391 -0.737305q5.19043 -1.06348 14.8926 -4.86035q9.7041 -3.7998 14.4756 -6.18164l6.99707 -4.54102zM349.055 413.903
q-14.8604 2.66797 -31.4258 2.24121q-16.5654 -0.425781 -24.8486 -3.62207q-2.35254 -0.999023 -2.19238 -0.0322266q0.164062 0.966797 2.51367 1.96582q10.0225 4.09863 30.7139 4.23828q20.6943 0.136719 31.9756 -3.72363q6.80176 -3.31445 -6.73633 -1.06738z
M116.3 381.433q5.41504 1.48535 8.89258 3.29297l6.96191 3.61133q4.09082 1.90234 7.68457 4.98438q3.5918 3.08008 8.23047 9.46484q4.25 8.83203 0.59082 10.1367q-3.65723 1.30273 -5.07617 2.33203q-2.32227 2.77148 1.69043 1.21094q4.01367 -1.56348 10.6855 -2.0752
q6.67188 -0.512695 11.5693 0.263672l9.28418 0.844727q4.89941 0.773438 11.8428 2.50098q6.94531 1.72852 10.7803 3.27637q3.83496 1.5498 5.97559 1.88965q2.14551 0.339844 9.81641 3.43652q20.751 7.68164 25.7471 7.8457q4.99609 0.163086 7.43848 12.4756
q2.44336 12.3135 2.65625 38.7129l-0.259766 5.60547l-18.6289 2.7002q-11.6055 1.92773 -20.208 -3.20215t-7.34375 -13.0889q2.64844 -12.7627 13.999 -21.0068q11.3486 -8.24707 24.3047 -6.82129q5.51074 0.87207 4.1748 -0.595703q-1.33789 -1.46484 -5.76953 -1.22656
q-4.43164 0.239258 -8.2998 0.881836q-16.8906 3.60059 -25.5352 18.5527q-12.9668 22.4248 10.7197 27.4326l5.51172 0.874023l-25.6582 3.4707q-10.8936 1.41113 -15.7275 2.21484q-4.83691 0.802734 -8.85059 2.36523q-4.0127 1.56055 -10.6367 1.76855
q-6.62402 0.205078 -17.8418 -0.317383q-7.3457 -1.16309 -20.2686 -4.77832q-12.9238 -3.61719 -22.334 -7.61719q-12.8887 -5.80859 -36.1885 -13.2656q-11.9551 -3.77734 -15.7891 -5.3252q-3.83691 -1.54688 -6.70508 -3.25684l-14.6582 -10.4834
q-5.83203 -2.80762 -7.97266 -9.1084q-2.14062 -6.30273 -2.61719 -21.1299q-0.476562 -14.8252 3.47559 -23.9277q3.95215 -9.10449 14.7881 -18.0586q3.64453 -3.19043 8.81934 -6.13672q5.17285 -2.94727 6.14062 -3.1084q0.964844 -0.15918 2.38477 -1.18945
q6.09082 -2.80176 27.2529 -1.64746q21.1572 1.1543 34.9512 5.22168zM229.347 420.68q-2.51758 3.99609 -1.29102 4.19043q1.22363 0.192383 2.07812 -1.24219q0.856445 -1.43359 0.888672 -3.625q0.0332031 -2.19141 -1.67578 0.676758zM629.932 511.118
q3.70605 4.35254 -62.0273 371.817l-4.81152 22.4609l-2.64648 0.836914q-8.54297 2.41309 -17.5811 0.0390625q-9.04004 -2.37207 -12.5508 -7.94922l-0.834961 -2.64258l13.3838 -84.5029l11.8564 -59.0098l10.3037 -49.2129l19.7754 -101.066l8.57617 -73.9639
l0.71582 -12.4414l2.2959 -18.4658zM50.5635 419.981q-3.93652 5.02637 -5.65137 19.8203q-1.71484 14.793 1.05566 17.1133q1.22363 0.194336 1.00195 -2.35156q0.0341797 -8.1543 1.44043 -17.0342q1.40723 -8.87695 3.69824 -15.418q0.484375 -3.06348 -1.54492 -2.12988
zM26.1611 427.416q-1.71582 14.792 0.634766 15.792l1.39551 -16.7256q1.25977 -7.96094 0.342773 -8.10449q-0.918945 -0.146484 -1.20996 1.68945zM152.623 449.328q-3.12793 3.89941 -4.16699 14.4072q-1.0332 10.5039 1.7041 15.0195q2.7373 4.51172 0.936523 -3.93555
q-0.868164 -6.41113 2.15137 -17.5449q3.02051 -11.1357 -0.625 -7.94629zM251.289 500.105l-0.387695 2.4502l0.226562 2.54688l-4.25781 3.0918q-4.1582 2.47949 -6.62695 6.16895q-2.46777 3.68945 -5.36914 10.1357q-2.9043 6.44531 -4.34473 17.5156
q-1.44043 11.0674 -0.134766 14.7275q1.30273 3.65918 6.15332 4.74121q4.84863 1.08203 10.1377 -0.591797q5.28418 -1.67383 5.99609 -2.18848q1.51562 -1.64258 -5.09473 0.448242q-5.99609 2.18848 -10.5391 1.15527q-4.54492 -1.0332 -5.33398 -3.9834
q-0.787109 -2.94922 0.863281 -13.3594l2.42285 -15.3076l2.9043 -6.44434l4.83691 -6.76465q0.904297 -1.74219 3.74023 -3.80273q2.83984 -2.06152 3.4502 -1.96484q0.612305 0.0966797 0.480469 8.8623l0.411133 13.2471q0.353516 5.70508 1.23438 14.0059
q0.882812 8.30078 2.04199 12.877q0.640625 3.86719 0.141602 5.04492q-0.500977 1.17676 -5.27246 3.55957l-9.73535 5.98926q-4.1582 2.47949 -9.59082 5.07129t-16.0039 5.93945l-9.96191 3.44336l-9.35059 3.54199q-6.1875 3.41309 -11.0723 4.52246
q-4.88281 1.11035 -14.2607 0.878906q-19.5664 0.667969 -82.9893 -15.0264l-21.7539 -5.32715l-19.498 -3.71777q-9.08691 -2.06641 -18.0771 -10.708q-8.98633 -8.64355 -13.043 -18.7002q-4.69922 -13.9248 -2.69434 -30.5576q1.3291 -12.3428 6.26367 -19.7207
t18.5098 -17.7822l2.83691 -2.0625l2.86816 1.70898q3.47949 1.80859 5.31641 2.09863q1.83691 0.291992 7.76562 2.48535l18.4014 6.68262q9.60254 2.77441 16.0967 5.37207q6.49316 2.59766 15.29 6.50293q17.0791 7.09766 37.9463 10.0889
q20.8691 2.99121 32.668 -0.15918q3.35254 -1.35547 8.44629 -1.80176l16.5986 -1.76562q7.73535 -1.28516 16.4385 -2.73242q8.70312 -1.44629 15.9229 -3.44043q5.19043 -1.06152 11.2998 -1.97559q6.10645 -0.916992 6.62402 -0.207031q0.513672 0.708008 1.05859 5.1875
zM175.271 540.166q-1.35938 8.57031 0.185547 16.6621q1.54199 8.09082 4.29688 8.52734q2.75586 0.436523 0.694336 -2.39941q-1.64258 -1.5166 -2.49316 -6.04688q-0.853516 -4.52734 -0.591797 -10.1367l0.745117 -8.66895q-0.419922 -1.32129 -1.5957 -1.82227
q-1.17578 -0.498047 -1.24121 3.88477zM24.5391 516.92q-1.61426 2.25586 -1.68359 12.6016q-0.0693359 10.3447 1.28418 13.6982q2.25293 1.6123 1.70898 -2.86816q-0.418945 -1.32031 -0.158203 -6.92969l0.198242 -13.1504q0.164062 -4.99316 -1.34961 -3.35156z
M44.7754 523.891q-1.80566 3.48242 -2.24512 12.1973q-0.439453 8.7207 1.10449 10.8477q1.54785 2.12793 1.19531 -3.57617q-0.835938 -2.64355 0.522461 -11.2168q1.32715 -12.3438 -0.577148 -8.25195zM255.512 568.566q0.223633 2.54785 0.99707 3.6123
q0.773438 1.0625 1.41602 4.93164l7.35938 40.7109l-2.6377 0.834961q-14.5439 4.60352 -18.9863 -3.00586q-4.44336 -7.6084 -0.243164 -30.167q1.4248 -12.957 1.16699 -13.3115t4.30469 -3.39941q4.55957 -3.04297 5.48145 -2.89844q0.918945 0.146484 1.1416 2.69238z
M241.13 580.1q-8.5625 50.1143 19.8027 41.4248l3.96387 -1.25391q1.13086 0.805664 0.743164 3.25586q-0.388672 2.44727 -1.29199 4.1875q-2.32227 2.77246 -12.1553 9.37598l-12.5732 8.05078q-2.12988 1.54492 -6.80371 3.31543l-6.19043 3.41211
q-11.5439 9.4707 -16.5723 11.501q-5.0293 2.02637 -16.2432 1.50684q-6.31836 0.254883 -7.33496 0.72168q-1.01465 0.467773 -3.46484 0.0800781q-6.92871 0.157227 -28.6211 2.36914q-21.6924 2.21484 -33.8115 3.43359q-9.66992 1.60645 -14.0527 1.53906
l-18.9531 0.764648q-42.6406 -4.24219 -55.2051 -14.0791q-12.5645 -9.83496 -16.876 -26.2109q-4.31152 -16.375 2.69238 -32.8408l4.09766 -10.0225q2.09863 -5.31738 3.80469 -8.18359q1.71094 -2.87012 4.59668 -5.23633q2.88574 -2.36914 4.14453 -4.36621
q1.25684 -1.99707 4.47949 -0.544922q3.22266 1.45117 10.168 3.17871q6.94434 1.72852 13.6787 2.79492l15.2129 3.03613l28.3916 7.00879q14.4062 4.16504 29.0039 7.10547q14.6006 2.93848 17.501 2.45605q2.90234 -0.481445 6.05957 -0.610352
q11.8281 0.621094 20.1787 -0.567383q8.34668 -1.18848 15.8564 -5.02441l11.2842 -3.85938l14.5391 -4.60352q4.67383 -1.76953 8.02734 -3.12207q6.0918 -2.80078 9.54102 -4.7666l3.44922 -1.96387zM454.292 609.466q-4.5459 4.92969 -15.4482 18.2686l-20.9932 25.5479
l-3.83789 4.41504q-3.64258 3.18848 -2.56543 4.30078q1.08105 1.11328 10.4648 -10.582l29.2812 -34.2793q5.45117 -6.66895 5.38867 -8.25q-0.0654297 -1.5791 -2.29004 0.579102zM503.85 637.401q-4.67871 13.6963 -12.0693 64.3105q-7.3877 50.6152 -6.00488 57.7373
l18.7168 -118.179zM192.061 612.501q-2.41992 3.38281 -1.15234 15.1963q1.26855 11.8135 4.97363 16.1641q2.35059 1.00098 0.484375 -3.06055q-1.86719 -4.06152 -2.21973 -9.76855q-0.351562 -5.70312 0.504883 -13.1006q0.859375 -7.39746 -2.59082 -5.43066z
M37.4785 617.52q-1.80664 3.47949 -1.22949 11.7295q0.575195 8.25195 1.94629 7.52734q1.36914 -0.723633 0.87207 -5.51074q-0.49707 -4.78516 0.27832 -9.68457q0.0380859 -8.15527 -1.86719 -4.06152zM241.226 654.812q0.670898 7.63672 -3.25 20.5127
q-3.92188 12.873 -7.37207 14.8369l-5.50977 -0.873047l-4.83301 -5.1582q-2.1875 -5.99609 -3.00879 -12.7168q-0.817383 -6.71875 -2.04199 -6.91309l0.448242 5.0918q0.479492 8.86426 1.99121 13.1836q1.51367 4.32031 4.02637 6.28711q2.51465 1.96777 5.52832 2.75781
q3.01172 0.791016 4.43066 -0.240234q3.96582 -1.25391 -0.8125 13.0547q-2.38867 7.15332 -5.75977 12.582q-3.37012 5.43066 -9.1416 10.165l-7.38379 6.99023q-10.9316 9.56641 -30.4346 17.7764q-19.5049 8.20996 -44.7422 13.001q-4.48145 0.545898 -8.96191 1.0918
q-12.8291 1.73438 -24.8662 0.454102q-12.0371 -1.27832 -18.9971 -4.89062q-35.9307 -18.8721 -38.3291 -51.2656q-0.383789 -9.47656 2.08691 -19.1279q2.4707 -9.65332 6.50293 -15.2891l1.61035 -2.25684l16.7285 1.39258l29.5537 -0.338867
q13.1523 0.199219 28.0107 -2.46777q8.34863 -1.18848 23.9805 -2.79297q15.6328 -1.60449 24.4971 -2.08496l18.8555 -0.150391q10.7012 -0.1875 16.3428 -2.12012q5.6416 -1.93164 13.54 -8.21289l6.99707 -4.54199l2.83887 -2.05957
q0.610352 0.0966797 2.63965 -0.837891l2.64551 -0.835938l0.932617 2.03027q0.935547 2.03223 1.25684 3.9668zM51.1748 622.199q-0.484375 3.06152 0.526367 8.55664q1.01465 5.49609 2.75488 6.39941q1.73828 0.90332 -0.256836 -6.31738
q-1.05762 -5.18945 -0.977539 -7.6875q0.0791016 -2.49902 -0.789062 -2.9502q-0.869141 -0.452148 -1.25781 1.99902zM195.084 696.463q0.0292969 3.77051 4.78027 11.4287q4.74902 7.65625 6.68359 7.33203q0.708984 -0.512695 -2.38281 -4.76855l-2.99414 -4.86719
l-2.38281 -4.77246q-3.2207 -7.41406 -3.7041 -4.35254zM302.394 732.29q-1.3584 8.57324 13.7305 34.1885q15.0879 25.6133 23.7871 30.1289q3.57617 1.19629 -3.83008 -7.51074q-11.0176 -13.6709 -20.8887 -30.6133q-9.86914 -16.9404 -11.1543 -24.6777
q-0.643555 -3.86816 -1.64453 -1.51562zM229.653 723.908q-1.09668 2.96387 3.52246 13.4238q4.62109 10.4609 10.2891 18.2646q5.66992 7.80273 -0.641602 -3.86914q-5.37891 -9.63867 -8.90625 -17.1016q-3.52344 -7.46484 -3.49121 -9.6543
q0.0361328 -2.19238 -0.772461 -1.06348zM53.4854 706.677q0.129883 3.1582 2.06055 8.80078q1.93164 5.64062 3.94336 8.78418q2.01465 3.1416 3.75488 4.04492q1.74023 0.904297 1.93457 -0.321289q0.191406 -1.22363 -1.0332 -1.41797
q-1.73926 -0.90332 -4.33008 -6.33594q-2.59375 -5.43066 -4.33105 -12.2969q-1.73633 -6.86621 -1.99902 -1.25781zM67.7666 707.683q-0.193359 1.22363 1.51074 4.31934q1.70703 3.0957 2.6748 2.93457q0.964844 -0.15918 -0.99707 -3.61035
q-2.28711 -5.38379 -3.18848 -3.64355zM453.886 786.414q-0.0966797 0.612305 0.692383 3.56152q0.786133 2.94824 0.876953 14.2627q1.06152 5.18848 1.54688 2.12598q0.484375 -3.05957 0.131836 -8.76465q-0.351562 -5.7041 -0.478516 -8.86328
q-1.86621 -4.0625 -2.76953 -2.32227zM160.855 761.972q-4.35547 3.7041 -12.752 5.19824q-8.39648 1.49609 -13.1992 0.107422q-2.35059 -1.00195 13.7334 -3.47461l14.4404 -3.99023z" />
</svg>
