<?xml version="1.0" standalone="no"?>
<!DOCTYPE svg PUBLIC "-//W3C//DTD SVG 1.1//EN" "http://www.w3.org/Graphics/SVG/1.1/DTD/svg11.dtd" >
<svg xmlns="http://www.w3.org/2000/svg" xmlns:xlink="http://www.w3.org/1999/xlink" version="1.1" viewBox="-10 0 642 1024">
   <path fill="currentColor"
d="M404.135 249.439q-3.78027 0.630859 -6.92969 1.89062l-16.3799 8.82031l-28.9795 14.4893q-10.0811 5.6709 -29.6104 12.6006q-19.5303 6.92969 -39.0605 12.5996q-11.3398 2.52051 -17.6396 5.35547q-6.2998 2.83398 -14.4902 7.24414
q-13.2305 6.93066 -22.0498 13.8604q-8.82031 6.92969 -16.3799 17.0107l-9.4502 13.8594q-7.56055 11.9697 -13.2295 22.0508q-9.4502 16.3789 -15.75 28.9795l-14.4902 30.8701q-6.2998 13.2295 -9.4502 20.1592l-10.71 20.791q-6.93066 15.1191 -15.1201 25.8291
q-10.71 15.1211 -19.2148 23.625q-8.50488 8.50488 -33.7051 22.3652l-23.9404 13.2305l-2.51953 -20.791q-1.88965 -18.2695 -5.04004 -22.6797q-8.19043 -2.51953 -18.8994 3.15039q-10.7109 5.66992 -11.9707 6.92969l1.88965 7.56055q0.630859 6.92969 2.52051 22.6797
l23.9395 147.42l10.7109 53.5498q9.44922 44.1006 17.3242 73.0811q7.875 28.9795 17.3252 52.2891l3.78027 3.15039q3.14941 3.15039 5.03906 3.15039q6.93066 -2.52051 15.1211 -9.4502q8.18945 -6.93066 9.44922 -10.71q1.26074 -6.92969 -2.2041 -19.5303
q-3.46582 -12.5996 -4.0957 -13.8604l43.4707 -19.5303q18.8994 -8.18945 40.6338 -13.5439q21.7354 -5.35547 48.8252 -7.875q9.4502 -1.26074 19.2158 -1.5752q9.76465 -0.31543 38.1152 -0.945312l47.25 -3.15039l28.9795 -3.7793l27.0898 -5.04004
q6.93066 -1.25977 12.5996 -3.15039q5.6709 -1.89062 14.4912 -6.2998l13.2295 -6.2998l11.3398 -3.78027q7.55957 -1.88965 16.0645 -7.24512q8.50586 -5.35547 16.3809 -12.915t16.6943 -21.7344q8.82031 -14.1748 15.75 -29.2959q5.66992 -12.5996 9.13477 -28.9795
t1.5752 -24.5703l-0.629883 -4.41016q-1.25977 -1.25977 3.15039 -4.41016q10.0801 -8.81934 18.9004 -19.8447q8.81934 -11.0244 11.9688 -19.2148q9.4502 -24.5703 3.15039 -46.6201t-23.3096 -25.2002q-3.78027 0 0.629883 -3.14941q17.6396 -13.2295 18.9004 -31.5
q1.25977 -15.1201 -3.46484 -28.3506q-4.72559 -13.2295 -12.2852 -19.5293l-1.89062 -1.89062l4.41016 -0.629883q24.5703 -6.2998 35.9102 -31.5q5.66992 -11.3398 5.66992 -18.585q0 -7.24414 -4.41016 -20.4746q-2.51953 -6.92969 -7.24414 -13.5449
q-4.72559 -6.61523 -7.875 -10.3955q-5.6709 -6.2998 -14.8057 -11.9697q-9.13574 -5.66992 -9.76465 -6.92969q3.14941 -3.15039 5.03906 -8.50488q1.89062 -5.35547 1.89062 -11.0254q0.629883 -18.8994 -10.0801 -20.1602l-7.56055 -1.25977
q-7.55957 -1.26074 -13.2295 -1.88965q-3.14941 0 -12.5996 0.628906l-10.0811 0.630859q-22.0498 0 -29.2939 -3.46582q-7.24512 -3.46484 -15.4355 -9.76465q-6.2998 -5.04004 -13.2295 -7.56055l-8.19043 -3.7793l-23.9404 -6.2998q-3.14941 -1.26074 -6.92969 -1.26074z
M416.735 255.11q1.88965 0.629883 7.55957 1.88965l7.55957 2.52051q10.71 3.14941 17.0107 6.61426q6.2998 3.46484 12.5996 8.50488q4.41016 3.78027 7.56055 5.35547q3.14941 1.5752 5.66992 2.20508q2.51953 0.629883 3.7793 3.14941q4.41016 6.30078 15.75 12.6006
t21.4209 7.55957q7.55957 1.26074 15.1191 -2.83496q7.56055 -4.09473 13.2305 -12.2852q4.40918 -5.66895 6.61523 1.5752q2.2041 7.24512 -0.945312 19.2148q-1.88965 6.93066 -4.41016 9.13477q-2.51953 2.20605 -8.19043 0.31543q-13.8594 -2.51953 -34.335 -3.15039
q-20.4746 -0.629883 -41.8945 0.630859l-22.6807 1.88965q-6.2998 1.25977 -14.8047 2.52051q-8.50391 1.25879 -14.4893 1.88965q-5.98535 0.629883 -11.6553 0.629883q-24.5703 0 -47.8799 7.55957q-16.3799 5.04004 -23.9404 7.24609q-7.55957 2.2041 -13.2305 2.83398
q-7.55859 1.89062 -8.18945 3.78027q0.630859 0 6.2998 -0.629883l11.9707 -1.89062q8.81934 -1.88965 24.5693 -6.92969q13.8604 -4.41016 24.2559 -5.98438q10.3945 -1.5752 24.2539 -2.20508q8.19043 -0.630859 16.0654 -1.25977q7.875 -0.630859 17.9551 -2.52051
q31.5 -5.66992 66.4648 -4.72559q34.9648 0.945312 50.7148 8.50586q6.2998 2.51953 14.8057 8.81934q8.50488 6.2998 14.4902 13.8604q5.98438 7.56055 9.76465 19.8457q3.7793 12.2842 0 24.2539q-11.3398 30.8711 -32.1299 36.54q-8.82031 2.52051 -24.2559 3.46484
q-15.4346 0.945312 -22.3643 -0.314453q-3.15039 -0.629883 -10.71 -1.26074l-11.3398 -0.628906q-6.92969 0.628906 -1.89062 2.51953l4.41016 0.629883l24.5703 1.88965h22.0498q8.82031 0.630859 11.9697 3.78125q8.19043 8.81934 12.2852 27.4043t-1.57422 29.9248
q-3.78125 6.2998 -14.1758 15.4355q-10.3945 9.13477 -25.5156 17.9541q-5.66895 2.52051 -8.50391 3.46484q-2.83594 0.945312 -0.945312 2.83594q1.89062 4.41016 23.3096 -10.7109q5.6709 -4.40918 7.24512 -5.03906q1.5752 -0.629883 3.46484 0.629883
q8.82031 1.88965 15.4355 8.81934q6.61523 6.93066 8.50488 19.5312q1.88965 10.709 0 24.5693t-6.2998 21.4199q-15.75 22.0498 -36.54 37.1699q-4.41016 3.14941 -5.04004 4.72461q-0.630859 1.5752 3.15039 0.31543l6.92969 -3.14941q0 -1.26074 1.25977 5.66895
q0 4.41016 -2.83496 16.6953t-6.61523 24.8857q-3.14941 10.0791 -12.5996 26.1445q-9.4502 16.0645 -18.2705 27.4053q-3.15039 3.15039 -9.4502 8.18945l-8.81934 7.56055q-2.52051 1.88965 -7.875 4.09473q-5.35547 2.20508 -10.0801 3.46484
q-4.72559 1.25977 -11.9697 4.41016q-7.24512 3.14941 -12.915 6.2998q-10.71 5.66992 -18.9004 7.56055l-16.3799 3.14941l-25.2002 4.41016q-12.5996 2.51953 -25.8301 3.15039l-30.2393 1.88965h-17.6406q-34.0195 0.629883 -49.4551 1.5752
q-15.4346 0.945312 -34.335 3.46484q-10.71 1.88965 -22.6797 4.72461q-11.9707 2.83496 -20.1602 5.98535l-11.3398 4.41016l-46.6201 22.0498l-15.75 -56.7002q-11.3398 -40.9492 -18.9004 -73.71q-7.55957 -32.7598 -15.75 -78.1201l-8.18945 -46.6191
q-1.88965 -10.0811 -1.26074 -8.82031l28.9805 -18.9004q15.75 -8.18945 27.4053 -17.6396q11.6543 -9.4502 26.1455 -31.5q5.03906 -6.92969 7.875 -12.2852q2.83398 -5.35449 5.03906 -10.71t9.76562 -19.8447l8.82031 -17.6396l5.66895 -13.2305l8.82031 -17.6406
q3.78027 -7.55957 14.8047 -28.6641q11.0254 -21.1055 22.3652 -36.8555q6.93066 -8.82031 14.4902 -15.1201t20.1592 -13.8604q7.56055 -4.41016 14.8057 -7.875t16.6943 -5.98438q19.5312 -4.41016 40.6357 -11.6553q21.1055 -7.24512 33.0752 -14.1748l22.0498 -11.3398
l2.52051 2.51953q4.41016 3.78027 6.92969 8.82031t3.14941 9.4502v4.41016q4.41016 -0.630859 2.20605 -8.82031q-2.20605 -8.19043 -9.13574 -14.4902q-3.14941 -2.52051 -2.20508 -3.78027q0.945312 -1.25977 7.875 -4.40918l8.19043 -3.78027
q3.7793 -2.51953 8.18945 -2.51953q6.30078 -0.630859 8.82031 0.628906zM396.575 262.04q0.629883 0.629883 1.88965 1.25977q2.52051 1.26074 4.41016 4.72559t1.88965 7.24512q0 5.66895 1.88965 3.46484q1.89062 -2.20605 1.26074 -5.98535t-3.15039 -6.92969
q-2.51953 -3.15039 -5.04004 -4.41016q-2.51953 -1.25977 -3.14941 0.629883zM534.545 285.35q3.15039 0.629883 6.30078 1.26074h3.14941q-0.629883 1.25977 -5.04004 5.35449q-4.41016 4.0957 -6.92969 5.98535q-6.92969 5.04004 -14.8047 4.41016
q-7.875 -0.630859 -20.4756 -7.56055q-5.04004 -2.52051 -9.4502 -5.35449q-4.41016 -2.83496 -5.66992 -4.0957l-1.25977 -1.25977h27.7197q3.78027 0 6.2998 -0.629883q5.04004 -0.629883 9.4502 -0.314453q4.41016 0.314453 10.71 2.2041zM412.955 384.26
q-13.2305 1.89062 -23.3096 6.92969q-10.0811 5.04004 -15.1201 11.9707q-5.04004 6.92969 0.628906 1.88965q7.56055 -7.55957 19.2158 -11.9697t24.8848 -4.41016h7.55957q1.89062 -4.41016 -2.83496 -5.04004q-4.72461 -0.629883 -11.0244 0.629883zM450.125 491.99
q-7.56055 1.25977 -15.1201 5.03906q-7.55957 3.78125 -13.5449 8.50586t-6.2998 7.24414q-0.314453 2.52051 2.20508 0q2.51953 -2.51953 10.0801 -6.92969q7.55957 -4.41016 12.5996 -6.2998q10.71 -3.7793 22.0508 -1.88965q8.81934 1.88965 8.18945 -0.945312
q-0.630859 -2.83496 -6.61523 -4.09473t-13.5449 -0.629883zM38.1045 531.68q0.630859 5.66992 1.26074 14.4902l1.88965 16.3799l4.41016 30.2402q5.04004 33.3896 9.76465 59.2197t9.76562 49.1406q5.04004 25.1992 11.9697 50.3994l30.8701 103.95
q3.7793 11.9707 4.09473 14.1748q0.31543 2.20508 -2.20508 2.83496q-4.41016 3.15039 -9.4502 8.50488q-5.03906 5.35547 -10.71 5.35547q-3.7793 -2.52051 -10.0791 -26.7744q-6.30078 -24.2559 -11.9707 -45.6758q-9.4502 -37.1699 -17.0098 -75.5996l-16.3799 -87.5703
l-9.4502 -56.0703q-4.41016 -23.9395 -8.82031 -47.8799l-2.51953 -13.2295q0.629883 -0.630859 4.41016 -2.52051q6.2998 -2.52051 10.0801 -3.7793q3.7793 -1.26074 6.92969 -1.26074h2.51953zM470.915 602.24q-8.19043 1.25977 -17.0107 5.66992
q-8.81934 4.41016 -11.3398 8.81934q-1.25977 3.15039 0 3.78027q1.26074 -5.03906 11.0254 -9.76465q9.76465 -4.72461 20.4746 -5.98535l5.04004 -0.629883q0.630859 -3.15039 -8.18945 -1.88965zM473.436 691.07q-5.04004 1.88965 -11.0254 5.98438
q-5.98535 4.0957 -8.50586 7.24512l12.6006 -7.55957q13.2305 -6.30078 13.8604 -6.92969z" />
</svg>
