<?xml version="1.0" standalone="no"?>
<!DOCTYPE svg PUBLIC "-//W3C//DTD SVG 1.1//EN" "http://www.w3.org/Graphics/SVG/1.1/DTD/svg11.dtd" >
<svg xmlns="http://www.w3.org/2000/svg" xmlns:xlink="http://www.w3.org/1999/xlink" version="1.1" viewBox="-10 0 691 1024">
   <path fill="currentColor"
d="M226.752 383.945q-25.2295 8.05664 -40.8682 39.6943l-9.57227 22.6582q-2.22168 4.86133 -3.73047 7.30566q-1.50977 2.44434 -7.68457 8.24023l-16.8789 18.9277l-21.5449 22.2773q-19.2402 19.8057 -22.3135 23.1025l-4.58301 5.74023
q-6.91602 7.41699 -16.7959 21.3135l-9.90527 13.1035q-5.3252 7.35938 -10.251 14.708q-4.9248 7.34668 -7.90039 13.4297q-2.97754 6.08496 -6.02344 10.1768l-12.8418 20.3799q-4.47168 8.92578 -4.89258 19.7031q-0.419922 10.7783 3.09766 20.2217
q5.19629 11.7783 10.9766 17.5566q5.7832 5.77539 15.4512 8.62695q12.082 3.56445 7.33105 4.52832q-6.28516 2.61133 -16.7578 10.9492q-10.4707 8.33887 -14.6562 14.0654q-4.18457 5.72559 -5.63867 9.76465q-1.45312 4.03516 -2.11133 8.0459l-1.31445 8.0166
q-1.36914 6.42773 1.68262 13.8936q3.0498 7.4668 8.79102 12.0508l6.56543 5.35156q8.24121 7.68457 15.5312 11.0186q7.29199 3.33301 15.3662 6.23926t12.084 3.56348l9.6377 2.05664q2.41602 0.712891 4.03809 1.45312l6.56445 5.35156
q2.41699 0.711914 5.65723 2.19238q6.45312 2.16797 12.0557 2.76953q5.60156 0.600586 9.6377 2.05469q15.1309 -0.527344 29.4072 -2.62207l14.2773 -2.0918q9.52832 -1.12988 19.4385 -2.67383q9.91309 -1.54004 18.6445 -2.64258l38.166 -2.92676
q23.8604 -1.63184 36.6006 -2.07812l10.3506 -0.360352l24 2.35156l22.3789 1.61035q7.96289 -0.27832 13.9219 -0.884766q5.95801 -0.605469 12.3291 -0.828125l17.5166 -0.612305q6.37109 -0.222656 15.8701 -2.14844q9.5 -1.92578 18.1484 -5.41797l37.0625 -11.6592
l21.251 -7.91602q7.82227 -4.25977 15.6172 -9.31641q3.87207 -3.32324 13.6729 -8.05176q9.80078 -4.72656 16.8555 -8.16211q17.3223 -6.18359 27.207 -8.52148q9.88379 -2.33887 28.1426 -4.57129l19.0547 -2.25977q4.77832 -0.166992 5.57422 -0.195312l0.27832 7.96191
q0.472656 13.5371 1.54785 21.4727q1.07324 7.93457 1.8418 7.11133q0.768555 -0.825195 7.16699 -0.25q9.58203 0.461914 16.75 0.210938q7.16602 -0.249023 8.30469 -1.88477q1.1377 -1.63281 -0.46875 -1.97559q-1.60547 -0.342773 -2.45703 -1.9082l-0.194336 -5.57324
q-1.26953 -13.5098 -0.882812 -36.6436q0.389648 -23.1318 1.20215 -45.4854q2.7041 -36.7666 8.10938 -76.0215q5.40625 -39.2539 17.4307 -105.845l1.31445 -8.01953q0.741211 -1.62012 -0.110352 -3.18359q-0.852539 -1.56543 -11.3428 -5.18555t-13.6768 -3.50977
q-1.50879 2.44629 -4.24805 15.2979l-4.25098 15.2959l-8.0166 -1.31641q-10.4355 -2.02637 -17.6299 -2.57129q-7.19434 -0.545898 -16.75 -0.212891q-15.1299 0.52832 -22.3242 -0.0166016q-7.19336 -0.546875 -17.6572 -3.37109l-13.7031 -4.30469l-108.971 -38.4492
l-113.23 -46.2705l-25.1025 -11.084l-7.27637 -2.93457q-8.84277 -2.08203 -9.66797 -2.85059q-0.824219 -0.768555 -7.29199 -3.33398q-6.46582 -2.56445 -11.2998 -3.99023q-8.04688 -2.11035 -15.2266 -2.25879q-7.18164 -0.147461 -15.8574 2.54688zM241.142 385.036
q11.1201 -1.18457 27.2959 5.42578l5.65625 2.19434q12.8818 3.53613 25.8711 10.2578l11.3408 5.18555l15.3535 5.84082l48.5264 19.832l36.3896 14.6748l47.6758 18.2656l81.5088 28.2471q4.86133 2.2207 12.9062 4.33203q8.04688 2.11035 12.8535 2.74121
q4.80371 0.62793 10.4062 1.23047l23.1201 -0.0107422q7.16602 -0.25 16.3652 0.625q9.19922 0.874023 18.041 2.95801q1.59277 -0.0556641 1.62012 0.740234l-5.96973 34.4902l-5.28711 31.2764l-6.12695 52.832q-3.14746 24.0283 -5.00293 50.8008t-2.80762 45.1426
l0.22168 6.37012q-0.768555 0.824219 -1.56445 0.851562l-6.37109 0.222656l-40.498 4.60352q-7.13965 1.0459 -20.1387 5.48633q-12.999 4.44141 -23.1846 9.5791l-13.3135 6.84375l-6.26074 3.4082q-3.89648 2.5293 -11.6914 7.58301l-10.9824 5.16699
q-4.69434 2.55566 -13.3418 6.04785l-11.832 3.60059l-26.0547 7.28809q-7.08398 2.63965 -12.2178 4.01465q-5.13477 1.375 -11.4619 2.79199q-6.33008 1.41699 -10.3125 1.55664l-17.5166 0.611328q-6.37109 0.222656 -11.916 1.21387
q-5.54688 0.989258 -9.55566 0.333008l-11.1475 0.389648l-28.0078 -3.00977q-16.8057 -1.80371 -35.8887 -0.338867l-27.0469 1.74023q-19.9062 0.695312 -35.0078 2.01953l-35.6943 5.2334l-17.4346 3q-15.0732 2.12207 -27.8418 1.76953
q-11.2031 -1.20215 -16.0225 -2.23145q-4.81934 -1.02637 -8.08789 -3.30469l-4.88965 -3.01758q-2.44336 -1.50879 -3.28223 -2.67676q-0.836914 -1.16699 -4.46191 -2.23438q-3.62598 -1.06934 -6.83984 -1.75586q-3.21191 -0.68457 -12.082 -3.5625l-12.083 -3.56543
q-9.69434 -3.64746 -17.4824 -9.75391q-7.78613 -6.10547 -12.374 -11.9248q-4.58887 -5.81934 -6.34766 -10.542q-1.75977 -4.72168 -0.333984 -9.55469l1.34277 -7.22266q1.25879 -9.61035 7.73633 -18.209q6.47461 -8.59668 20.5029 -17.8555
q4.66504 -3.35352 12.5449 -6.01855q7.87988 -2.66699 33.1943 -8.33496l12.6836 -2.03711q2.3623 -0.879883 5.16211 -0.579102q2.80176 0.300781 2.03418 1.12402q-3.12988 1.7041 -3.10156 2.50098q0.0273438 0.795898 2.77148 -0.496094
q2.74609 -1.29102 7.49512 -2.25391q4.75 -0.963867 5.57324 -0.195312l-2.33301 1.6748q-7.79492 5.05762 -7.71191 7.44629q0.0839844 2.38867 6.28711 -2.6123q12.4336 -9.20215 18.832 -8.62988l15.0742 -2.11914l14.1934 -4.48438q5.5459 -0.990234 19.041 -2.65723
t15.8838 -1.75098q4.80762 0.629883 11.8057 -4.39746q6.99902 -5.02734 11.3369 -6.37598q4.33789 -1.34766 9.9541 -0.347656q5.61523 1.00098 13.166 0.337891q7.55176 -0.661133 12.2578 -2.81934q4.70898 -2.1582 -3.19727 -0.287109q-4.75 0.962891 -7.13867 1.04688
l-18.3428 -0.157227q-3.18457 0.112305 -4.00977 -0.657227q-0.824219 -0.769531 -3.37891 -5.46289q-4.26074 -7.82324 -7.79297 -17.665q-3.53125 -9.84277 -5.43066 -18.5469q-0.93457 -3.9541 -1.07422 -7.93555l-0.77832 -22.2959q-0.555664 -15.9248 1.31934 -30.7383
q1.875 -14.8145 0.665039 -15.1699q-1.20703 -0.358398 -1.12402 2.0293l-1.25977 9.6123q-1.99902 11.2314 -2.53223 18.8223q-0.53125 7.59375 -0.00292969 22.7227q1.00098 28.667 5.23145 35.6934q0.0283203 0.796875 -4.77734 0.166992
q-4.80566 -0.628906 -10.4619 -2.82227l-9.66699 -2.85254q-6.4541 -2.16699 -9.69434 -3.64648l-9.83301 -7.62988l-5.00098 -6.20312q-4.14844 -4.63867 -7.55469 -10.8984l-5.13965 -10.1836q-2.63965 -7.08398 -3.94434 -10.2285q-1.30566 -3.14258 -2.01953 -0.725586
q0.194336 5.57422 6.58496 17.3086q6.3877 11.7373 13.0654 20.2734q3.2959 3.07324 1.01855 6.3418l-1.45312 4.03711q-1.37109 6.42676 -5.57129 11.7549q-4.19824 5.32812 -9.71582 7.11719l-5.49023 2.58203q-10.2129 4.34375 -27.25 7.33105
q-17.0352 2.9834 -32.9883 2.74414q-6.34375 1.01855 -7.1123 1.84375q1.62109 0.741211 11.1758 0.407227l11.9727 0.37793l16.6934 -1.37891q13.5088 -1.26953 19.7959 -3.88086l13.3975 -4.45215q3.9541 -0.936523 10.2959 -1.95605q3.98145 -0.138672 8.92676 4.47266
q2.5 3.10059 3.00977 6.27246q0.507812 3.1709 -0.916016 8.00488q-2.9082 8.07324 -1.35742 6.82422q1.55078 -1.25098 2.64844 -4.08008q1.09668 -2.82812 1.39844 -5.62891q0.299805 -2.80078 1.86523 -3.65332q1.56445 -0.851562 7.90625 -1.87109
q10.2979 -1.95312 19.8926 -1.09277q9.59863 0.861328 16.8896 4.19434q7.29199 3.33301 1.5791 -0.456055q-8.1582 -5.29297 -19.7461 -6.08496q-11.5869 -0.791992 -23.4209 2.81152l-4.74902 0.961914l-0.907227 -3.15625q-5.19531 -11.7773 -17.085 -9.76758
l-3.15625 0.907227l7.76855 -5.85156q-0.0556641 -1.59375 1.64746 1.53711q6.64941 7.74023 20.583 7.25293q13.9365 -0.486328 24.8613 -7.24512q4.61133 -4.94629 -1.2373 -1.15332q-5.8457 3.79102 -13.7803 4.86523q-22.9541 4.78906 -29.6865 -5.33984
l-0.879883 -2.3623l8.94336 -17.8506l4.09473 3.0459q6.53613 4.55469 16.1758 6.60938l11.2852 3.5918q5.63086 1.39746 8.84375 2.08301l3.21191 0.685547l0.9375 3.9541q3.57129 11.0352 9.48047 20.3955l0.878906 2.3623l-2.36133 0.879883
q-3.12793 1.7041 -7.79492 5.05566q-7.7959 5.05664 -11.0371 3.57422l-19.0547 2.25977q-3.18457 0.111328 -9.52734 1.12988q-6.3418 1.01855 -9.5 1.92578l-7.87891 2.66797q-5.5459 0.991211 -7.1377 1.04688l-12.7139 1.24023q-3.21289 -0.683594 -9.47266 2.72363
l-2.33203 1.6748l-2.41602 -0.713867q-1.62109 -0.739258 -5.17676 0.181641q-3.55664 0.921875 -5.17676 0.180664q-6.50977 -3.75781 -28.6367 1.79883l-26.083 6.49219q-2.38965 0.0820312 -2.81445 -0.699219q-0.426758 -0.783203 -8.9248 -4.47363
q-8.50195 -3.68945 -13.4326 -7.90137t-8.30859 -9.6748q-5.96484 -10.9541 -7.47852 -20.0684q-1.51367 -9.11719 2.13281 -18.8115q0.713867 -2.41504 2.22363 -4.85938l17.3691 -27.7139l5.2666 -8.9541q0.712891 -2.41602 5.29492 -8.15723l24.3154 -34.335
l6.09082 -8.18359q3.8418 -4.12109 11.5273 -12.3613l41.5801 -42.1123l8.4541 -9.06445l18.3867 -21.3711q20.5264 -28.6201 51.6084 -28.9092q5.57422 -0.194336 12.4268 1.95898t11.7412 5.16992q4.88867 3.01758 3.19922 0.288086q-1.69043 -2.73145 -8.96777 -5.66699
q-7.27832 -2.93555 -11.6865 -3.57812t-9.9668 -0.0507812q-5.55957 0.592773 -11.1064 1.58398q-9.49902 1.92676 -16.9102 6.57031q-7.41211 4.64355 -16.6904 12.9395q-0.767578 0.824219 0 0q11.1387 -23.5098 18.3281 -34.5234t15.7539 -16.8936
q5.46289 -3.37891 13.3418 -6.0459t15.0459 -2.91895zM665.497 482.632q1.59277 -0.0556641 0.962891 4.74902q-4.41699 10.5186 -11.1553 45.832q-12.7939 67.417 -17.0371 128.555q-4.24219 61.1367 1.70312 94.4141l1.10254 8.73145l-26.249 1.71387l0.423828 -33.5
q-0.445312 -12.7402 3.08203 -48.7402l5.38574 -51.21l6.12891 -52.833q3.20215 -22.4355 7.2002 -44.8984l10.082 -53.7666q0.685547 -3.21484 1.4541 -4.03809zM53.249 712.094q0.0283203 0.795898 4.06543 2.25q8.07422 2.9082 14.0928 15.4521
q6.01953 12.5459 10.9189 38.6836q2.88867 14.25 2.60254 17.4492q-0.286133 3.19824 -5.0791 2.9668q-4.79199 -0.231445 -3.56934 0.523438q1.22363 0.753906 4.00977 0.657227q2.78711 -0.0986328 4.35254 -0.949219q1.56445 -0.851562 1.4248 -4.83301
q-0.139648 -3.98047 -3.11133 -20.6211q-3.05762 -19.0254 -7.00293 -29.252q-3.94531 -10.2275 -9.74023 -16.4014q-2.49902 -3.10254 -7.36035 -5.3252q-4.8623 -2.22168 -5.60352 -0.600586zM116.39 739.386q-2.25098 4.06543 -3.04199 15.6533t-0.485352 20.3477
q1.0459 7.13867 3.26074 13.4375q2.21191 6.30176 4.20312 6.23242q1.99023 -0.0693359 -0.508789 -3.1709q-3.40918 -6.25977 -3.86719 -19.3984q-0.458984 -13.1377 2.19824 -28.3789q1.4248 -4.83301 0.203125 -5.58789q-1.22266 -0.754883 -1.96191 0.865234z
M134.296 749.922q-2.22266 4.8623 -0.541992 18.7539q1.68262 13.8936 5.08984 20.1533q2.44434 1.50879 1.59277 -0.0566406q-2.61133 -6.28613 -4.16797 -16.5967q-1.55469 -10.3096 -0.295898 -19.9199q-0.166992 -4.77734 -1.67676 -2.33398zM506.806 709.807
q-6.36035 23.3438 -30.8682 52.1035q-6.86035 9.00879 -6.43457 9.79102q0.426758 0.783203 2.70312 -2.48633l4.58301 -5.74023q10.7871 -10.7412 18.3467 -22.5645q7.55957 -11.8262 11.9756 -22.3418q1.42578 -4.83398 2.83691 -10.0664
q1.41211 -5.23047 0.588867 -5.99902q-0.825195 -0.768555 -1.56543 0.851562zM388.022 778.532q-8.53613 6.67773 -17.0996 12.5576q-8.56348 5.87793 -11.7236 6.78613l0.441406 1.17969q0.439453 1.18164 11.3506 -5.97559q10.9131 -7.1582 21.7539 -16.3066
q2.30469 -2.47168 2.68848 -2.88477q0.385742 -0.412109 -1.17871 0.441406z" />
</svg>
