<?xml version="1.0" standalone="no"?>
<!DOCTYPE svg PUBLIC "-//W3C//DTD SVG 1.1//EN" "http://www.w3.org/Graphics/SVG/1.1/DTD/svg11.dtd" >
<svg xmlns="http://www.w3.org/2000/svg" xmlns:xlink="http://www.w3.org/1999/xlink" version="1.1" viewBox="-10 0 621 1024">
   <path fill="currentColor"
d="M17 560q0 2 3 98q2 70 4 72q1 1 8 0l10 -3q14 -4 19 -4q1 0 1 -3v-18q0 -2 16 0t31 8l26 13q24 10 38 16l37 13l43 13q13 5 25 6q11 1 15 2h8h9q14 -2 29 0l33 5q29 4 40 7l20 6l27 8q6 3 20 8l22 7q8 0 20 -2l6 -1q1 0 8 -5q5 -4 14 -15q8 -10 10 -17t1 -19
q-1 -17 -14 -28q-6 -5 -5 -5l9 -6q8 -5 12 -7q11 -9 18 -30q6 -18 6 -23q1 -12 1 -23l-2 -19q0 -1 -5 -27q-3 -18 -11 -33q-8 -16 -13 -24l-12 -21q-10 -18 -14 -26l-7 -15q-7 -14 -12 -31q-11 -34 -19 -41q-19 -16 -36 -18q-24 -3 -35 1q-17 6 -28 12q-17 9 -29 12
q-14 4 -21 5l-12 2q-13 2 -22 4q-11 1 -19 5q-6 3 -35 9q-24 5 -43 6l-48 5q-60 7 -70 9q-9 2 -22 2l-16 -1l3 -20q-1 -1 -16 -1q-15 -1 -20 2zM52 432q0 7 -1 14q-2 15 -3 30q-1 25 -1 33q1 17 2 36l3 43q2 28 2 47v42l2 21q1 15 2 20l-7 2q-6 0 -11 2l-11 3l-4 -61
q-3 -55 -3 -88q-1 -19 2 -85q3 -57 3 -60zM78 455q9 0 17 -1l19 -3q10 -1 27 -3l73 -8q21 -3 45 -7q19 -4 34 -9q15 -6 17 -6q5 -1 21 -3l20 -4l21 -6l15 -6l32 -14q7 -2 25 -2q17 0 27 4q14 6 20 13q6 8 8 13q9 23 13 39q3 11 7 20l6 12q4 8 14 26l13 22q6 10 13 27
q9 22 12 34q2 6 3 19q2 14 2 23q1 24 -6 42q-3 7 -13 20q-6 7 -16 15q-13 10 -38 17q-21 6 -38 8l-19 2q-15 1 -25 1q-9 0 -25 -4l-13.9541 -2.50684l41.5117 -2.46582l23.9736 -2.77148l24.7969 -4.35156q20.7988 -3.625 28.4141 -5.88379t12.4551 -5.36621
q4.83887 -3.10449 9.71875 -8.60156l6.50391 -7.06348q12.9785 -12.5332 17.5713 -24.415q4.59473 -11.8828 4.92871 -31.0166l-0.644531 -8.7832l-0.588867 -11.9717q-0.631836 -9.58105 -2.11328 -15.9873q-1.4834 -6.40625 -6.04492 -19.2461l-3.77637 -12.0273
q-5.26172 -18.4336 -14.4932 -37.7344l-20.5938 -53.791l-3.86133 -7.24414l-10.7295 -24.9092l-9.30273 -15.3154q-6.18359 -11.2715 -23.2471 -15.9561q-17.0635 -4.68359 -29.8057 -5.7041q-3.18945 -0.0556641 -11.1885 1.40137l-9.58203 0.629883
q-13.5801 1.35645 -21.1748 2.41992q-7.5957 1.06445 -10.8252 3.40039q-3.23047 2.33594 5.56641 0.895508q8.79688 -1.44238 23.958 -1.97559l18.3643 -1.27441q5.58301 0.0986328 13.9385 1.04199q8.35742 0.942383 16.6943 3.08203q8.33496 2.13867 13.8535 5.82422
t10.1758 10.9434l6.23828 8.08398q3.0918 5.63477 6.92578 14.4746l3.00781 10.4199l13.835 29.748l13.752 34.5332q4.5752 12.041 8.38086 22.4746q3.80469 10.4336 9.06445 28.8682q4.54688 13.6357 6.01758 20.8398q1.46875 7.20312 2.0498 19.5732
q0.582031 12.3711 -0.404297 23.1201q-0.985352 10.749 -3.48047 16.6865q-2.49609 5.9375 -6.17969 11.4551q-3.68652 5.51758 -14.2305 15.7012l-4.88184 5.49707q-6.48926 6.26758 -12.5303 9.74902q-6.04297 3.48438 -16.4346 4.89746l-7.20215 1.46875
l-1.60742 0.769531q-1.61035 0.770508 -10.4072 2.21191l-11.2031 2.19629l-23.9863 3.56934l-17.5684 1.28711q-33.5244 1.80859 -47.0498 -0.0224609q-2.3916 -0.0419922 -7.13379 -2.51758l-6.33594 -2.50293q-6.36426 -0.908203 -11.0781 -4.97852
q-4.71387 -4.06836 -10.1279 -13.7334q-3.10352 -4.83984 -5.41309 -9.66406q-2.30762 -4.8252 -4.56152 -12.8398l-4.58789 -11.2441q-5.31641 -15.2451 -4.51855 -15.2324q3.23047 -2.33496 10.5166 -8.58887l18.6289 -16.4209l2.3916 0.0429688
q5.5957 -0.701172 12.3145 2.60645q6.72168 3.30664 12.1914 9.78223l6.20996 9.67871l-1.63574 2.36426q-8.95117 10.21 -9.99902 24.5459q-0.893555 5.56641 1.48438 6.40625q3.93066 3.25879 4.90918 -7.0918q0.907227 -6.36426 4.20117 -12.2871
q3.29395 -5.92383 8.98438 -12.2051q5.67871 -5.48242 8.90332 -7.4209q3.22363 -1.93652 6.42578 -2.67871l2.40625 -0.754883l4.28711 5.65625q4.28809 5.6582 14.4707 16.2031q8.61719 8.92285 11.1182 2.58594q0.826172 -1.5791 -0.733398 -3.60059t-7.86816 -6.11816
q-7.07812 -5.70703 -10.96 -11.7559t-8.45605 -18.0908q-1.49707 -5.6084 -1.4834 -6.40625q0.0146484 -0.796875 4.01465 -1.52344q16.8398 -5.28809 29.7617 -14.6338q12.9238 -9.34277 15.4824 -18.8691q1.71875 -7.14746 -2.36426 -1.63672
q-6.5459 9.45703 -21.8525 18.3604q-15.3076 8.90332 -30.5107 11.8291q-12.7969 2.16895 -26.2803 -2.05469l-7.93164 -2.53027l9.00684 -13.3994q3.28613 -5.52637 6.18066 -11.457q2.89551 -5.93066 4.57227 -10.6855q4.18066 -11.0918 4.29883 -17.8672
q0.119141 -6.77832 -3.08301 -6.03613l-0.881836 4.76953q-1.73242 7.94434 -6.68359 17.4287q-4.9502 9.48242 -10.6846 18.1543l-6.53125 8.6582q-7.37012 11.0361 -28.4316 29.8096q-11.3281 9.37109 -21.4258 16.7705q-10.0986 7.40039 -22.168 13.5693l-28.1816 15.457
q-6.44824 3.87598 -13.6777 6.93945q-12.8545 5.3584 -16.4756 7.28809q-3.62402 1.93066 -2.88184 5.13379q0.742188 3.20215 3.93848 2.85938q3.19629 -0.34375 10.4395 -4.2041l30.5742 -15.415q24.9375 -12.3262 33.7891 -16.9541l7.24609 -3.86133l0.741211 3.20215
q1.40039 11.1895 5.95312 24.4268q4.55469 13.2373 9.1709 22.8887q6.19727 10.4756 12.9033 14.5801q6.70801 4.10352 14.623 7.43262l7.93164 2.53027l-1.62207 1.56738q-6.46094 4.67188 -7.35547 10.2383l-0.125 7.1748q-0.853516 3.17578 0.754883 2.40625
l3.36914 -10.3096q0.838867 -2.37793 3.27344 -4.72754l4.04102 -3.11914q1.6084 -0.769531 9.53906 1.76172l11.917 2.60059q13.4971 3.4248 21.4561 4.36133l4.78223 0.0849609l-1.63477 2.36328q-2.47656 4.74121 -3.76855 10.3018q-1.29395 5.55957 -0.173828 9.96484
q1.11914 4.40527 2.02832 -1.95801q0.0830078 -4.78418 1.36914 -9.94531q1.28711 -5.16016 2.93555 -8.32129l1.63672 -2.36523l19.9307 0.348633q11.1621 0.194336 20.7559 -1.23242l8.79785 -1.44141q9.58008 -0.629883 23.5947 -3.97363
q14.0156 -3.3457 23.6377 -6.36621l16.8252 -4.49219l2.36328 1.6377q3.91699 4.05566 7.80469 9.70508q3.89062 5.65039 5.80664 10.0703q1.91504 4.41895 2.18262 11.999q0.265625 7.58105 -0.614258 12.3516q-2.53125 7.92969 -7.44727 15.4209
q-4.91504 7.49023 -9.75391 10.5947l-8.88086 6.22461l-12.7969 2.16992q-4.78418 -0.0830078 -6.37891 -0.110352l-3.98633 -0.0703125q-8.7832 0.644531 -29.3584 -8.4873l-5.53906 -2.49023l-16.6592 -5.07422l-33.3301 -9.35449q-7.13379 -2.5166 -21.0498 -4.75391
q-13.917 -2.2373 -25.8545 -3.64062q-11.9375 -1.40527 -25.4424 -4.43262q-13.5039 -3.02734 -27.4629 -2.87207q-13.959 0.15625 -28.3232 0.702148q-6.37695 -0.111328 -23.0635 -3.59277l-27.7773 -7.66113q-18.2686 -4.30664 -40.4502 -12.668
q-22.1846 -8.3623 -33.2627 -13.3398l-24.5186 -11.5938q-18.9824 -9.10254 -27.709 -11.6494q-13.4697 -5.01758 -21.8125 -6.75879q-8.34473 -1.74219 -25.8691 -2.84473l-5.59473 0.699219l-2.01562 -21.5664q-1.26074 -19.1611 -1.3623 -59.0371
q-0.170898 -35.8896 -3.27051 -63.8555q-3.10156 -27.9658 -2.83691 -43.1133l1.3125 -29.4854q1.18652 -22.3076 2.02637 -24.6855zM364.566 616.65q0.796875 0.0146484 3.98633 0.0712891l8.72754 2.54297q7.93066 2.53223 13.1045 3.02148
q5.17676 0.487305 11.5684 -0.197266l3.99902 -0.728516q0.797852 0.0146484 0.364258 2.00195q-0.433594 1.98438 1.03613 9.1875l0.699219 5.5957l-1.59375 -0.0283203q-9.58105 0.628906 -17.6934 8.46289q-1.63477 2.36328 -2.4248 1.95117t-2.31641 -4.42578
q-9.27441 -16.9102 -24.3525 -21.1602l-2.39258 -0.0419922l5.69434 -6.28027q0.80957 -0.783203 1.59375 0.0273438z" />
</svg>
