<?xml version="1.0" standalone="no"?>
<!DOCTYPE svg PUBLIC "-//W3C//DTD SVG 1.1//EN" "http://www.w3.org/Graphics/SVG/1.1/DTD/svg11.dtd" >
<svg xmlns="http://www.w3.org/2000/svg" xmlns:xlink="http://www.w3.org/1999/xlink" version="1.1" viewBox="-19 0 339 1024">
   <path fill="currentColor"
d="M-8.27637 572.173q0.522461 -4.69336 0.522461 -13.5586q-0.294922 -3.52441 2.5918 -5.44922q2.88477 -1.92676 8.20703 -2.12793q5.32129 -0.201172 9.64844 0.0332031q4.3252 0.232422 9.95898 1.00195q5.63379 0.767578 6.09668 0.806641
q8.01074 2.12988 18.5781 1.10742q10.5674 -1.02148 14.2754 -9.45215q2.5625 -6.05371 2.81348 -13.9766q0.250977 -7.9248 -0.759766 -18.2822t-1.01074 -14.6738q-0.297852 -36.0488 0.111328 -101.873q0.40918 -65.8262 0.40918 -86.9033q0 -3.05078 -0.772461 -10.9072
q-0.771484 -7.8584 -0.918945 -13.8291q-0.146484 -5.97168 0.652344 -12.5205q0.799805 -6.55078 4.33691 -10.1992q3.53809 -3.64844 9.74023 -3.64844q13.0371 0 39.3721 0.259766q26.335 0.260742 39.3711 0.260742h43.2842q0.992188 0 10.8525 -0.99707
q9.86133 -0.99707 17.2314 -0.612305q7.36914 0.383789 9.46191 3.17383q2.58105 3.52051 2.96973 8.34082q0.387695 4.82129 -0.724609 12.3477q-1.11426 7.52637 -1.20215 9.03613q-1.39746 17.0049 -1.52246 36.0039q-0.125 19.001 0.4375 43.4141
q0.5625 24.4111 0.5625 36.3516v87.0869q0 4.43848 -1.72168 17.4805q-1.72266 13.042 -1.59668 23.4463q0.12793 10.4023 3.84082 16.4365q1.6377 2.91211 5.0625 4.03223q3.42383 1.12012 6.35059 0.907227t7.69629 -0.956055q4.77051 -0.743164 6.44336 -0.854492
q1.65918 -0.0722656 9.06738 -0.786133q7.40723 -0.714844 12.4912 -0.780273q5.08203 -0.0673828 11.4727 0.504883q6.38867 0.573242 10.1113 3.22363q3.72168 2.65137 4.3125 7.22461q1.8252 12.7754 -17.7305 32.3311q-28.6816 28.6826 -42.7617 43.2832
q-8.82129 9.73535 -25.9219 26.8359q-17.1006 17.0996 -21.0107 21.1406q-2.4502 2.44922 -12.7959 14.8389q-10.3457 12.3906 -18.9092 19.6885q-8.56348 7.30078 -16.2715 8.23438q-8.9248 1.09375 -18.0986 -3.70117q-9.1748 -4.79199 -14.6973 -10.4434
q-5.52148 -5.65137 -14.0166 -15.793q-8.49609 -10.1406 -11.5938 -13.3447q-12.6641 -13.4395 -78.2227 -80.3086q-0.260742 -0.262695 -9.4209 -8.23633q-9.16016 -7.97656 -13.1406 -13.5986q-3.98145 -5.62207 -3.5127 -11.0195zM38.1357 582.082
q-0.945312 4.25195 9.38672 12.5146q2.54883 2.31738 5.2832 5.05176q2.73242 2.73242 5.94824 6.06348q3.21484 3.33301 4.93359 5.05176q6.51855 6.77832 20.0771 20.0771q13.5596 13.2959 20.0771 20.0771q3.65137 3.91113 11.2139 11.4736
q7.56152 7.56152 11.2109 11.4697q0.347656 0.349609 8.00488 9.3584q7.65918 9.00879 12.333 11.502q2.77246 0.03125 3.82617 0.680664q1.05176 0.648438 3.37402 -1.24707q2.32129 -1.89648 2.97461 -2.47461q0.65332 -0.579102 2.62305 -3
q1.97266 -2.4209 2.32324 -2.82422q5.73438 -7.2959 19.2969 -20.8594q2.3457 -2.34668 7.03906 -7.30078t7.04004 -7.30078q0.553711 -0.632812 3.72363 -4.62207q3.16797 -3.99023 5.59082 -6.39941q2.42188 -2.4082 4.76562 -3.5791q3.94043 -4.17285 8.49902 -8.73047
t10.1191 -10.0039q5.5625 -5.44531 8.49805 -8.38379q5.21582 -4.69434 14.6025 -14.0801q10.3701 -8.29395 9.9082 -11.9932q-0.65918 -2.63477 -5.7373 -3.65137q-4.04102 -1.95508 -21.6406 -0.195312t-21.6406 1.75977q-1.78418 0.149414 -2.88477 -0.393555
t-1.47852 -1.93945q-0.376953 -1.39551 -0.473633 -2.38281q-0.0957031 -0.987305 0.0234375 -3.06641q0.120117 -2.07812 0.120117 -2.64648v-27.1172v-54.2344q0 -71.9639 -0.523438 -107.947v-48.4961v-6.25879v-34.9404q0 -0.422852 0.0390625 -1.2666
q0.225586 -4.99023 -4.73242 -4.99023h-104.816q-5.36328 0 -4.69336 4.69336q1.26465 10.1201 0 50.584q-0.390625 0.130859 -0.196289 26.335q0.196289 26.2031 0.196289 26.335v108.467v6.25977v45.3682q0 1.33105 0.413086 5.37207q0.415039 4.04102 0.523438 7.39062
q0.108398 3.34863 -0.248047 6.99414q-0.355469 3.64355 -2.10449 5.7627q-1.74902 2.11816 -4.8418 2.11816q-4.17188 0 -13.0361 -0.259766q-8.86523 -0.261719 -13.0381 -0.261719q-0.552734 0 -3.2627 -0.1875q-2.70898 -0.19043 -5.41504 -0.272461
q-2.70605 -0.0839844 -5.67285 0.00488281q-2.96875 0.0888672 -5.04004 0.728516q-2.07227 0.639648 -2.51172 1.81348z" />
</svg>
