<?xml version="1.0" standalone="no"?>
<!DOCTYPE svg PUBLIC "-//W3C//DTD SVG 1.1//EN" "http://www.w3.org/Graphics/SVG/1.1/DTD/svg11.dtd" >
<svg xmlns="http://www.w3.org/2000/svg" xmlns:xlink="http://www.w3.org/1999/xlink" version="1.1" viewBox="-10 0 738 1024">
   <path fill="currentColor"
d="M222.658 291.609q-17.0898 1.70996 -28.627 7.68945q-11.5332 5.98242 -23.4971 18.8027l-11.1104 12.8154q-4.27246 4.27246 -4.27246 5.12695t-1.70703 0.854492l-10.2559 5.12695q-17.0889 8.54395 -25.2061 17.0898q-8.11719 8.54297 -12.3896 23.9248
l-4.27344 12.8174q-0.855469 3.41895 -0.855469 4.69922q0 1.28223 -1.70508 3.84473l-9.40332 8.5459q-34.1797 34.1797 -35.8867 65.7959q0 5.12793 0.425781 10.6797q0.425781 5.55566 1.70898 6.4082q1.2832 0.855469 -2.99121 8.5459
q-14.5244 27.3457 -17.0898 49.9902q-2.56152 22.6416 7.69238 37.1689l1.70801 2.5625l-3.41797 3.41797q-14.5254 16.2354 -21.791 32.9004q-7.2627 16.6602 -4.69922 29.0527q2.56543 12.3877 17.0908 25.2031q7.69043 8.54688 16.2363 11.5381
q8.54492 2.98926 26.4873 5.55371q19.6572 1.71094 56.8242 2.99023q37.1709 1.28125 46.5693 0.426758l19.6543 -2.56152q1.70996 0 2.56348 1.28027q0.855469 1.28125 0.855469 2.56543q0 1.28027 -3.41895 3.84375l-8.54395 5.12793q-23.0732 11.9609 -41.0166 26.4883
l-10.2549 8.54492l-14.5254 12.8184q-20.5068 19.6514 -26.4893 28.1973q-5.98145 8.5459 -11.9619 28.1992q-8.54492 23.0703 -11.9639 42.7227q-3.4209 19.6553 -0.854492 29.0527q4.27344 15.3838 11.9629 26.4902q7.69141 11.1074 14.5293 11.1074
q0.852539 0.854492 5.12402 3.41895q5.98242 4.27246 9.82715 2.56348q3.84375 -1.70996 11.5342 -13.6719q5.12695 -5.98047 9.40039 -13.6689q4.27148 -7.69434 10.2549 -21.3652l3.41699 -9.39844q0.856445 -2.56543 0.856445 -4.27344v-3.41699l4.27148 -3.41895
q4.27148 -4.27148 8.9707 -6.40918q4.7002 -2.13574 11.5352 -7.26172q6.83789 -5.12695 12.8193 -11.1094q7.69043 -7.69043 15.3799 -13.2461q7.69141 -5.55176 25.208 -16.6602t29.9062 -15.8105q12.3906 -4.69922 33.7549 -8.97168q10.251 -2.56152 16.2344 -4.69824
q5.98047 -2.13672 9.39746 -4.7002l21.3643 -14.5254q35.0332 -23.0713 56.3965 -36.3145q21.3604 -13.2461 37.5947 -22.6445l24.7803 -15.3828q13.6729 -9.39941 26.918 -16.6621q13.2441 -7.26367 23.498 -10.6807l8.5459 -3.41895q0.853516 -0.853516 3.41797 -0.853516
h10.2529q11.1084 -0.855469 20.9346 1.70801q9.82617 2.56445 25.208 9.39941q9.40039 4.27246 11.5371 4.27246q2.13574 0 9.82617 3.41895l25.6328 11.9609l22.2168 8.54688v22.2158q0.856445 24.7793 2.56445 37.5977l1.70801 13.6709l13.6729 1.70996
q11.9619 1.70898 15.3818 0.853516q0.854492 -3.41602 2.99023 -31.6162q2.13574 -28.1973 2.13574 -49.5605q1.70801 -35.8877 5.98047 -82.8828l5.98145 -58.1064q5.98145 -61.5254 11.9629 -130.736l5.9834 -76.0498q3.41895 0.856445 -16.6631 -3.84668
q-20.082 -4.69824 -23.498 -5.55371l-7.69238 57.251l-4.27148 -2.56445q-5.98145 -4.27148 -11.9639 -5.98145q-5.98145 -1.70898 -17.0879 -2.56348l-42.7246 -2.5625q-11.1104 -0.854492 -23.0723 -3.41699q-11.9619 -2.56543 -29.9072 -7.69238l-17.9453 -5.98047
q-9.39844 -2.56543 -19.6523 -6.83594q-6.83496 -2.56348 -19.2256 -5.98145q-12.3906 -3.41504 -23.5 -5.12598q-14.5264 -2.56543 -35.8887 -9.39941l-17.0889 -5.12793l-29.0508 -7.69238q-8.5459 -2.56055 -15.8105 -3.84277q-7.26172 -1.28223 -18.3721 -2.56348
q-11.1074 -1.28125 -20.9346 -2.98926q-9.82617 -1.71094 -15.3789 -3.41992q-5.55469 -1.70898 -16.6621 -3.41992q-11.1094 -1.70801 -20.0811 -3.84375q-8.97266 -2.13574 -13.2461 -3.84375q-7.68945 -3.41797 -14.0996 -4.27344q-6.4082 -0.854492 -16.6602 0z
M242.312 295.883q2.5625 0.854492 7.2627 2.56152q4.69824 1.71094 12.8164 4.27441q8.11914 2.5625 14.0996 3.41797l11.9619 1.70898l14.5283 3.41602q12.8154 4.27344 35.0342 6.83984q10.252 0.848633 18.3711 2.55957q8.11621 1.70996 17.5176 4.27441l29.0508 6.83398
l37.5967 11.9668q6.83789 1.70508 13.6748 2.56055q27.3438 5.12793 48.7041 13.6719q6.83594 3.41797 13.6719 5.12598l13.6719 4.27344q21.3633 6.83594 34.1797 9.82715q12.8193 2.98926 26.4912 3.84473l36.7422 2.56348q13.6699 0 19.6523 1.70801
q5.98242 1.70996 12.8164 6.83691q3.41699 1.70898 3.8457 5.55469q0.426758 3.84473 -2.13574 25.207l-4.27051 34.1807q-4.27344 41.8701 -7.69238 94.8477t-4.27148 105.957l-0.856445 26.4863q-0.853516 0 -22.2168 -8.54199q-19.6514 -8.54688 -32.042 -12.3896
q-12.3916 -3.8457 -24.3535 -8.11914q-23.9258 -9.39941 -44.4336 -5.12695h-7.68945q-9.39941 0.855469 -24.3545 8.5459q-14.9521 7.69043 -39.7344 25.6318l-11.9629 7.69238l-43.5762 26.4893l-38.4541 25.6348l-41.8711 29.0527q-8.54297 3.41797 -23.0674 6.83594
q-25.6367 5.12598 -38.4541 10.6807t-43.5801 26.918q-8.54395 5.98145 -13.2441 9.39844q-4.69824 3.41699 -10.6816 8.97363q-5.97949 5.55273 -13.2422 11.1074q-7.2627 5.55371 -11.5361 8.11719q-6.83594 3.41895 -10.6807 8.97168q-3.84668 5.55371 -10.6836 21.791
q-7.69043 18.7998 -15.8086 31.6152q-8.11523 12.8174 -12.3887 13.6709q-0.853516 0 -3.84375 -2.13672q-2.99219 -2.13574 -6.41113 -4.69922l-2.5625 -2.56348l-0.854492 -5.98047q-0.855469 -13.6719 5.55371 -25.207q6.41016 -11.5352 18.3711 -17.5186
l6.83691 -2.5625h13.6719q3.41895 0 3.41895 -0.855469t-4.27344 -0.855469h-10.2549q-11.9629 0.855469 -21.7881 10.2568q-9.82422 9.39746 -13.2461 23.9248v9.39844q0 5.98145 0.429688 7.69238q0.424805 1.70703 -1.70996 0.426758
q-2.13574 -1.28223 -4.27246 -4.27344q-2.13574 -2.98926 -6.4082 -11.5332q-4.27246 -8.54785 -5.98145 -15.3838t-0.428711 -20.9355q1.28223 -14.0967 5.55371 -28.1953q4.27441 -14.1025 8.97363 -27.3447q4.69824 -13.2451 8.11816 -18.7969
q3.41797 -5.55762 13.6699 -14.9561l13.6729 -14.5273q15.3799 -15.3789 34.6074 -28.623q19.2266 -13.2461 39.7344 -22.6445q8.54492 -5.12793 4.27246 -13.6729q-3.41895 -5.12598 -10.6816 -11.9639q-7.26367 -6.83301 -15.8076 -12.8164l-12.8193 -9.39941
l-10.2559 -7.68945q-2.55957 -3.41797 -3.41504 -3.41797q-2.5625 0.853516 5.12695 8.54395l3.41797 2.56348l-1.70996 1.70801q-2.5625 1.70996 -5.97949 1.70996q-3.41797 0 -11.9639 -2.5625l-5.98145 -0.855469q-0.854492 -0.855469 -1.28125 0.426758
q-0.427734 1.28125 11.5352 3.8457l6.83594 2.5625l-3.41602 2.56445q-3.41992 4.27148 -5.98438 5.12695q-2.5625 0.856445 -10.2539 0.856445q-11.9629 0 -7.69043 1.70508q0 0.856445 -3.41699 3.41992l-3.41895 2.5625q-1.70898 0.854492 -0.425781 1.70996
q1.28125 0.854492 8.11719 -4.27246l3.41699 -2.56348l5.12793 0.852539q9.39941 0 14.5283 -3.41406l6.83105 -4.27441q7.69336 -5.98145 8.12207 -7.2627q0.427734 -1.2832 3.84473 2.13477l11.9629 7.69043q7.68945 5.12598 8.54492 5.98145l6.83496 9.40137
l-16.2344 2.56152h-7.69141l-64.0859 -1.70703q-45.2891 -2.56543 -48.7061 -4.27344q-7.69043 -1.70996 -12.3896 -4.7002q-4.70117 -2.99023 -11.5381 -10.6797q-9.39746 -9.39941 -12.8145 -16.2354q-3.41992 -6.83691 -0.855469 -15.3818
q3.41699 -18.7979 15.8066 -35.459q12.3896 -16.665 37.1709 -37.1729q20.5107 -17.9434 21.3613 -28.1963q-0.850586 -4.27344 -3.41602 0.852539q-2.56543 9.40039 -18.7998 22.2168q-10.2529 8.54492 -19.6523 17.0889l-5.12695 4.27441
q-1.70898 -2.5625 -3.8457 -11.1084t-2.99121 -12.8184q-0.854492 -11.1074 3.41797 -26.4873q4.27148 -15.3828 12.8174 -32.4717q5.12793 -10.2549 15.8076 -23.0703q10.6816 -12.8184 22.6436 -23.9258q6.83789 -5.98242 11.1104 -10.6826
q4.27148 -4.69922 4.27148 -6.40918q0.853516 -3.41602 -5.98047 2.56445q-5.12891 5.12793 -10.6807 9.82812q-5.55664 4.69922 -14.5273 13.2432q-8.97363 8.54492 -14.9541 16.2354l-5.98145 7.68945q-0.853516 -0.852539 -1.28027 -6.40918
q-0.428711 -5.55273 -0.428711 -8.9707q2.5625 -16.2354 11.1113 -31.6162q8.54297 -15.3809 25.6348 -32.4707q5.97754 -6.83594 8.11426 -10.6807q2.1377 -3.84375 5.55371 -14.9551q4.27246 -14.5254 9.39941 -22.2168q5.12793 -7.69141 14.5264 -13.6699
q7.69141 -5.12793 15.3818 -8.97461q7.68945 -3.84473 9.82715 -3.41699q2.13477 0.426758 1.70898 -0.854492q-0.428711 -1.28027 -0.855469 -1.28027t-0.426758 -0.427734v-1.28125l13.6719 -12.8184q13.6709 -13.6719 24.3525 -19.2266q10.6816 -5.55371 26.918 -7.26172
q3.41602 -0.854492 10.252 -0.854492q6.83691 0 9.40137 0.854492zM688.354 342.025q17.9424 4.27148 19.6533 5.12598l-5.98242 44.4326l-3.41602 35.0342q-4.27441 35.8877 -7.69141 78.6143q-3.41797 42.7246 -6.83691 79.4648q-9.39941 89.7227 -10.251 135.866
q-0.855469 46.1416 -1.2832 46.9961q-0.427734 0.856445 -4.69922 0.428711q-4.27539 -0.428711 -7.69238 -1.2832l-4.27148 -0.853516v-78.6143q-0.854492 -31.6152 2.56641 -105.956q2.56055 -58.1064 5.55078 -81.1768q2.98926 -23.0703 7.2627 -62.376l5.12695 -53.834
l1.71094 -27.3428q0 -15.3809 -0.427734 -16.6641q-0.428711 -1.28223 1.28223 -0.427734zM152.589 360.823q-1.71094 3.41895 -1.28223 8.54492q0.426758 5.12598 2.1377 9.39844q4.27148 8.54492 1.70703 -1.28125q-2.5625 -9.82715 -0.853516 -14.5254
q1.70605 -4.69922 -1.70898 -2.13672zM129.517 450.546q-0.851562 2.56348 -0.851562 8.9707q0 6.40918 1.70605 8.97266q4.27344 7.69043 1.70898 -3.41797q-0.854492 -3.41895 -0.854492 -9.39941q0 -9.39941 -1.70898 -5.12598zM522.582 523.175
q-5.12695 15.3828 -6.83398 37.6006q-1.70898 22.2139 2.56152 25.6328q2.56348 0.856445 0.856445 -5.12695q-0.856445 -10.2529 0.852539 -31.1895q1.70996 -20.9346 5.12793 -26.917q0.854492 -0.853516 0 -1.70605q-0.855469 -0.854492 -2.56445 1.70605zM121.827 565.9
q-1.70898 4.27246 0 14.5273q1.70898 10.2539 3.84473 11.5352q2.13672 1.28223 -0.427734 -7.26562l-1.70801 -5.12402v-13.6729q-0.854492 -0.854492 -1.70898 0zM143.188 688.948q-1.70801 3.41699 -0.424805 3.41699q1.28027 0 2.13574 -1.70996
q0.853516 -1.70703 0.426758 -2.5625t-2.1377 0.855469zM145.753 811.141q-0.853516 2.5625 5.55371 8.11719q6.40918 5.55371 14.9531 8.96973q5.98145 2.56543 10.6836 2.1377q4.69824 -0.426758 4.69824 -3.84277v-1.71094h-5.12793q-6.83398 0 -14.0986 -2.99023
q-7.26367 -2.99023 -11.9619 -7.69141q-4.7002 -4.7002 -4.7002 -2.98926zM141.48 829.938q0 4.27344 8.97266 8.97266q8.9707 4.69922 17.5176 5.55469q5.97949 0.854492 5.97949 -0.855469q0 -1.70898 -5.97949 -2.56348q-11.9668 -1.70801 -21.3633 -9.39941
q-5.98145 -4.27344 -5.12695 -1.70898z" />
</svg>
