<?xml version="1.0" standalone="no"?>
<!DOCTYPE svg PUBLIC "-//W3C//DTD SVG 1.1//EN" "http://www.w3.org/Graphics/SVG/1.1/DTD/svg11.dtd" >
<svg xmlns="http://www.w3.org/2000/svg" xmlns:xlink="http://www.w3.org/1999/xlink" version="1.1" viewBox="-10 0 668 1024">
   <path fill="currentColor"
d="M126.022 324.316q-1.74902 0.373047 -5.13672 10.2295l-43.5137 113.426q-8.78516 27.4541 -16.9863 59.8105q-8.19922 32.3564 -12.208 77.9863q-2.92676 33.5195 -3.58203 51.9346q-0.655273 18.416 0.383789 31.9023q0.557617 2.62305 1.30176 6.12012
l0.929688 4.37207q1.05957 0.6875 7.7373 2.01074l21.7812 3.59473q9.67285 2.51367 8.37207 -3.60742l3.85547 -29.1484q0.875 -0.186523 10.5469 2.32812q9.67285 2.5127 17.7822 6.27051l10.9189 4.07617q10.0439 4.2627 19.584 10.459q9.54297 6.19727 21.5771 15.5186
l51.8711 41.9756l19.1377 16.9492l17.5205 13.6387q8.85254 7.25781 20.1436 13.082q17.8359 10.8301 32.2314 26.9609q3.7373 4.68848 9.94043 10.2227q6.20215 5.53613 11.6885 9.85156l4.42773 3.62988l5.61621 0.632812l5.80566 1.50879l24.3281 11.2773
q8.79688 2.69922 17.9023 8.98828q9.10449 6.28906 29.6182 21.1191q9.91309 7.94434 25.5273 23.3594q15.6133 15.415 26.4561 27.7314l17.2568 21.0049q2.12109 1.37598 8.38574 26.5469q2.22852 10.4912 3.22363 13.0215q0.994141 2.5293 3.43262 1.09766
l10.5469 2.32812l7.55176 1.13477q1.93359 0.503906 7.17969 -0.610352l5.24707 -1.11621q14.4902 -4.90723 19.124 -13.2041q7.07129 -9.72656 6.37012 -38.8213q-0.667969 -11.7363 -2.9248 -24.5078q-2.25781 -12.7705 -7.48242 -24.4531l-7.02832 -15.8682
q-6.4707 -13.2461 -11.1377 -22.3057q-8.77734 -15.498 -15.6309 -24.0938q-6.85352 -8.59473 -21.5635 -21.917q-9.41016 -9.87793 -13.8369 -13.5078q-4.42773 -3.62695 -11.8477 -8.44629q-7.42188 -4.82031 -11.3184 -8.10449q-3.89551 -3.28418 -9.75488 -9.34863
q-8.16309 -8.31641 -15.1104 -17.3496q-6.94629 -9.03223 -6.34961 -10.5303q0.59375 -1.49609 4.46387 -0.491211l7.04883 3.07031q3.87012 1.00586 9.67285 2.51367l33.3896 6.61035l9.30078 0.763672q30.8955 3.48438 52.1582 0.336914
q21.2637 -3.14941 43.5684 -14.2891l10.623 -5.91211q0.688477 -1.05957 5.19141 -5.67188q4.50195 -4.6123 7.75879 -10.7871q4.07715 -10.9189 3.88965 -11.7939l2.01074 -7.7373q0.501953 -1.93359 -0.426758 -6.30566l-0.426758 -6.30664
q-0.797852 -8.05566 -4.74902 -15.8975q-3.95117 -7.83984 -8.28418 -11.0303q-4.33398 -3.19141 -1.89648 -4.62402q8.50195 -7.28906 12.8955 -21.0166q4.3916 -13.7285 4.22754 -27.4014q-1.2793 -18.917 -12.2529 -27.5498l-3.18066 -2.06738l4 -2.67676
q5.37598 -4.79883 11.4141 -12.9355q6.03906 -8.13672 8.60645 -13.252q3.83496 -16.3496 -4.58691 -38.7754q-8.42188 -22.4268 -24.0615 -40.1201l-2.30664 -2.25195l1.50781 -5.80273q0.818359 -4.74414 1.2666 -11.2363l-0.853516 -12.6123
q-1.67188 -7.86719 -3.38281 -11.6172q-1.71094 -3.74902 -5.44727 -8.43555l-5.35645 -8.00098q-11.2695 -18.6221 -16.625 -26.623q-5.35645 -7.99902 -12.0879 -13.8779q-4.42676 -3.62793 -12.3779 -8.79297q-7.95117 -5.16309 -15.1865 -9.1084l-17.2803 -8.20703
l-30.0771 -8.22754q-9.67188 -2.5127 -16.126 -7.08105q-6.4541 -4.56738 -9.88672 -5.66602q-3.43164 -1.09766 -9.39258 -1.20215t-20.668 1.65137q-14.7041 1.75488 -40.748 8.2041l-31.1045 8.44043q-22.5459 5.70508 -35.29 10.2412l-90.3154 26.5088
q-13.8037 3.84766 -22.7334 4.83203q-8.92871 0.982422 -22.6006 1.14844l-16.4814 -0.151367q-11.9248 -0.208008 -12.9844 -0.896484q0.316406 -2.80957 4.7373 -14.2568q4.41992 -11.4502 5.05273 -17.0674q0.318359 -2.80859 -0.0537109 -4.55664
q-0.37207 -1.74902 -4.05469 -1.87891l-17.4111 -4.52539l-5.30078 -3.44238q-4.24121 -2.75293 -6.67773 -1.32129zM149.532 340.337q1.74805 -0.371094 1.93457 0.501953q0.185547 0.875 -1.69336 4.92969q-2.19727 6.86426 -7.09277 22.5273l-12.6211 43.8037
q-1.87891 4.05371 -16.2969 58.751q-14.4189 54.6943 -26.3936 123.036q-1.08105 12.1094 -2.74023 34.3936l-3.95312 50.1865l-28.7783 -2.10742l-0.556641 -2.62402q-3.02832 -18.5449 1.09961 -61.458q4.12988 -42.9141 10.9912 -77.2695
q6.8623 -34.3574 18.3477 -70.6104q11.4834 -36.252 25.7764 -72.1885l14.293 -35.9355q8.33887 -20.9629 9.5293 -23.9561l5.98926 2.38184zM150.287 373.988q1.06152 0.688477 4.74512 0.819336l11.2344 1.26758q16.666 1.02637 31.0273 -0.199219
q14.3604 -1.22461 29.9131 -5.44434l29.3555 -8.06641l42.0986 -12.6045q10.3057 -3.10449 41.4092 -11.543q31.1055 -8.43848 65.8916 -16.748q25.3555 -5.3877 34.5635 -5.06152t15.7539 5.33301q16.7773 10.1416 44.7354 16.9922q5.80176 1.50781 10.2949 3.29395
q4.49121 1.78711 15.9668 8.4873q15.3447 7.70312 24.8496 18.0195q9.50391 10.3164 23.8203 34.6885q2.67871 4 5.35645 7.99902q12.8311 17.3779 7.6748 40.4053q0.37207 1.74902 -1.32129 6.67773q-1.69531 4.92969 -11.3887 15.2139q-5.37695 4.79883 -17.125 11.8643
q-11.749 7.06641 -21.8682 11.0459q-7.49707 3.4209 -19.459 7.33398t-21.5801 5.95898q-6.11914 1.29883 -9.61621 2.04395l-15.4219 0.535156q-8.24023 -0.0761719 -17.3838 -2.24316q-9.1416 -2.1709 -16.1914 -5.24023l-13.2256 -6.3291
q-5.98828 -2.38086 -6.17285 -3.25488q-0.186523 -0.875 4.55566 -0.0566406q4.74414 0.820312 4.53125 -2.33203q-0.212891 -3.1543 -3.38281 -11.6172q-3.1709 -8.46582 -7.4668 -15.7764q-2.8623 -4.875 -6.41504 -8.68848t-9.03906 -8.13184
q-1.05957 -0.686523 1.43164 2.4375l4.98438 6.25098q14.3945 16.1309 17.7393 31.8691q1.61719 3.31152 -3.99902 2.67773q-13.1699 -1.76953 -18.1914 -3.90039q-5.02344 -2.13086 -9.19824 -6.72754q-4.1748 -4.59473 -6.16406 -9.65527
q-1.98926 -5.05957 -0.482422 -10.8633q2.19629 -6.86328 6.41992 -12.7881q4.22461 -5.92383 4.91309 -6.9834l6.75488 -6.91797q5.00391 -6.54688 10.9385 -8.72168q7.49805 -3.42285 15.208 -3.69043t11.5791 0.737305q8.98438 3.57324 12.165 5.63965l11.1582 9.50684
q4.55859 -0.0546875 -0.770508 -5.77539q-5.32812 -5.7207 4.73828 -14.2578q3.8125 -3.55176 10.4355 -6.78711l8.55762 -2.7334q-1.24707 -1.56348 -5.27344 -1.16309q-4.02637 0.398438 -8.71582 4.13672q-0.874023 0.186523 -1.05957 -0.6875l7.96582 -22.7119
l4.76367 -11.9785l10.2725 -20.46q2.38379 -5.98828 0.632812 -5.61719l-13.7129 25.7607q-6.1416 14.0986 -9.02734 22.0225l-4.02051 15.4756q-0.6875 1.06055 -1.5625 1.24609q-6.25195 4.98438 -9.32227 12.0342q-0.50293 1.93359 -2.71582 0.119141
q-2.21387 -1.81348 -7.3291 -4.38184q-5.11426 -2.56836 -13.3555 -2.64355q-8.24023 -0.0761719 -16.1084 1.5957q-7.87012 1.67285 -13.2471 6.47168q-3.99902 2.67676 -7.375 6.13672q-3.37793 3.45996 -9.75977 12.127q-3.44238 5.30078 -6.5127 12.3496
q-3.07129 7.04883 -0.180664 14.2031q2.8916 7.15234 6.90918 13.1523q4.0166 5.99902 7.54102 7.53613q3.52344 1.53516 1.33789 1.99902q-2.18555 0.464844 -7.4043 3.8584q-5.21777 3.39453 -10.25 7.66211q-5.0332 4.26758 -9.48145 13.4375
q-4.44629 9.16992 -5.14648 16.6299q-0.699219 7.45898 3.15918 14.8623q3.85938 7.4043 10.0615 12.9404q6.20312 5.53418 12.3789 8.79102l7.41895 4.82031l-2.25 2.30566l-5.56348 3.92383q-2.25098 2.30664 -5.19043 5.67285l-4.31641 5.48633
q-5.50879 8.48145 -4.31055 20.5645q1.19824 12.0811 9.3623 20.3984l7.60645 5.69336l26.1318 15.4629q4.24121 2.75391 2.30566 2.25098l-5.43164 0.242188q-0.185547 -0.875 -8.74219 1.85742q-2.4375 1.43066 -3.46973 3.02148t-1.5625 1.24707
q-0.530273 -0.345703 -3.39453 -5.21875q-6.78711 -10.4375 -11.3066 -14.5029t-0.966797 -0.25q5.85742 6.06348 -0.186523 -0.875l-7.28906 -8.50293l-5.85938 -6.06543q-3.36621 -2.93945 -3.80371 -2.84766q-0.436523 0.09375 3.3291 7.06152
q3.76465 6.9668 11.4268 17.2178q4.79785 5.37695 11.7715 16.6885q3.23633 6.62207 4.16504 10.9941l2.78711 13.1143q2.36133 6.81055 5.81055 16.585q3.44824 9.77637 6.49805 15.5244l2.1748 5.93457q1.06055 0.689453 1.43262 2.43652q1.29883 6.12109 6.74902 14.5576
q5.44727 8.4375 13.7998 17.6289q6.04297 6.93945 9.93945 10.2227q3.89648 3.28516 11.7539 8.01074q7.85938 4.72754 12.2852 8.35547q4.42773 3.62793 10.2852 9.69238l9.22461 9.00586q11.5312 11.2559 22.5869 26.7256q11.0557 15.4688 17.7129 29.5898
l5.22363 11.6826q13.6855 29.9893 14.2559 62.7656q0.295898 9.98926 -0.180664 14.2041q-0.474609 4.21094 -1.47949 8.08203q-3.20215 10.7314 -14.792 16.3926q-11.5908 5.66309 -24.9453 3.01855l-7.73926 -2.00977q-0.874023 0.185547 1.37793 -2.12109l4 -2.67773
q2.4375 -1.43262 1.72168 -2.65039q-0.716797 -1.21875 -2.52051 -5.4043l-4.85254 -9.93555q-2.1748 -5.93262 -5.03809 -10.8076q-2.86426 -4.87402 -5.1709 -7.12598l-2.12012 -1.37695q-1.93457 -0.501953 -5.67285 -5.19043l-13.5195 -16.3164
q-11.9033 -13.0059 -27.4238 -27.9834q-15.5195 -14.9775 -25.4326 -22.9219l-10.9727 -8.63379q-9.72754 -7.07031 -18.6465 -12.4854q-8.91797 -5.41504 -13.8477 -7.10938l-26.0771 -10.9053q-4.92969 -1.69336 -9.23535 -2.60645q-4.30664 -0.912109 -13.0674 -7.73047
q-8.75879 -6.82031 -17.2949 -16.8848q-12.0889 -13.8809 -34.3516 -28.3389q-9.35742 -5.32129 -16.0898 -11.2002l-12.0332 -9.32324q-7.79297 -6.56641 -13.4648 -11.7588q-5.6709 -5.19043 -32.0449 -26.084l-39.6533 -31.7803q-14.5244 -12.4482 -41.4775 -23.168
q-10.918 -4.07715 -17.7832 -6.27344q-6.8623 -2.19629 -13.1689 -1.76855l-2.80859 -0.317383l4.25 -40.1982q2.53418 -22.4707 11.2852 -67.2803q8.75195 -44.8096 25.5791 -103.217l17.9648 -65.958zM431.22 337.12q-0.6875 1.05957 0.0546875 4.55762
q1.48633 6.99512 0.591797 19.9785q-0.0761719 8.24121 -1.21289 15.793q-1.13672 7.55078 -3.96582 20.0322l-2.83105 12.4814q-0.316406 2.80957 0.90332 2.09277q1.21777 -0.71582 4.2334 -12.3223l3.65039 -17.2246q2.83008 -12.4805 2.91699 -27.1221
q0.0859375 -14.6387 -2.40527 -17.7637q-1.24707 -1.56445 -1.93555 -0.50293zM565.041 429.3q0.186523 0.874023 1.43262 2.4375l1.24609 1.5625l1.98926 5.05957q0.240234 5.43262 1.80371 4.1875q1.56152 -1.24805 -0.613281 -7.18164
q-2.17578 -5.93457 -4.98438 -6.25098zM469.589 466.038q-1.00488 3.86816 -0.552734 12.4541q0.454102 8.58496 3.13281 12.584q3.92383 5.56348 1.8418 0.0654297q-2.08203 -5.49609 -2.51074 -11.8027l-0.424805 -6.30664q0.130859 -3.68262 0.633789 -5.61719
q0.130859 -3.68359 -2.12012 -1.37695zM595.078 463.124q1.42969 2.43652 4.29395 7.31152q11.5859 15.8145 16.8936 34.333q5.30664 18.5205 2.47656 31.001q-2.19629 6.86328 -8.57812 15.5303q-6.38281 8.66699 -12.8193 12.7773q-7.12598 5.16797 -15.8418 9.30566
t-16.585 5.81055q-7.86816 1.67285 -14.6123 2.19238q-6.74219 0.519531 -19.541 0.49707l-44.8857 -0.510742l-29.2793 -0.171875l-21.4102 -1.84668l-20.0322 -3.96582l-12.2969 -1.95605q-1.93359 -0.501953 3.31055 -1.61816q22.7324 -4.83203 -0.624023 -37.334
l-4.79785 -5.375q-3.73926 -4.69043 -6.91895 -6.75391l-5.48633 -4.31836q-4.05469 -1.87891 -4.49219 -1.78711q-0.4375 0.0927734 2.92871 3.03223l7.60645 5.69531q3.55371 3.81348 5.86035 6.06445l2.49121 3.12598q8.03418 12 11.083 17.748t1.35547 10.6777
q-2.19629 6.86328 -13.749 8.40527q-1.74805 0.37207 -6.8623 -2.19531q-5.11621 -2.56836 -8.48242 -5.50879q-0.874023 0.185547 -6.20215 -5.53516t-7.92969 -17.9609q-1.30176 -6.12109 2.11426 -13.7012q3.41504 -7.58008 10.3271 -15.9014
q6.91211 -8.32324 19.0879 -9.08398q12.1748 -0.759766 17.9775 0.748047l16.4062 8.39258q5.98828 2.38184 16.3496 3.83496q10.3604 1.45312 17.7256 1.71484l9.11621 -0.108398q9.80273 -1.16992 27.9785 -5.94727q18.1748 -4.77832 30.7314 -10.1885
q19.1797 -8.64551 32.7422 -17.9258q13.5645 -9.2793 19.0713 -17.7598q1.87988 -4.05566 3.49902 -0.744141zM461.668 536.258q-0.129883 3.68359 0.204102 9.55371q0.333008 5.86816 1.57812 7.43066q1.24707 1.56348 0.448242 -6.49121l-0.667969 -11.7383
q-0.185547 -0.875977 -1.5625 1.24512zM324.826 571.742q0.875 -0.186523 -2.62207 0.556641l-15.3662 5.09375q-15.3672 5.09473 -24.6777 10.7295q-9.31152 5.63379 -17.4424 14.6738l-5.00488 6.54688q-2.75391 4.23926 -2.91309 5.64453
q-0.15918 1.40332 3.4707 -3.02246q7.75879 -10.7881 19.8506 -18.3838q12.0938 -7.5957 32.7061 -13.8057q11.1797 -3.29004 14.3984 -5.34473q3.21973 -2.05469 1.19141 -2.99414q-2.02832 -0.94043 -3.59082 0.305664zM595.55 516.938
q0.185547 0.874023 0.743164 3.49805q2.67773 4 2.22949 10.4922q-0.260742 7.36621 2.12109 1.37598q0.632812 -5.61621 -1.54297 -11.5518q-2.17383 -5.93359 -3.55078 -3.81445zM257.111 597.102q-19.8691 9.70703 -31.8418 20.0176q-11.9717 10.3125 -21.4248 26.0293
q-9.13672 12.9082 -8.76367 14.6572q0.371094 1.74805 2.68848 -2.39941q2.31641 -4.14844 6.88379 -10.6025q4.56934 -6.45312 8.19629 -10.8799q9.50781 -11.1592 19.415 -18.291q9.90625 -7.13281 27.1514 -16.2803l7.31152 -4.2959q0.875977 -0.185547 0.94043 -2.02637
q0.0654297 -1.8418 -10.5566 4.07129zM418.02 580.261q3.86914 1.00684 5.71094 1.07129q1.8418 0.0654297 12.2031 1.51953q15.9775 2.08594 30.71 2.61035l12.7979 0.0195312q19.29 0.469727 40.8594 0.911133t31.8086 -0.822266q10.2402 -1.26172 20.1094 -4.27246
q9.86914 -3.0127 20.4922 -8.92676l5.74805 -3.04785l2.30664 2.25098q10.4707 10.5684 10.0674 28.0156q-0.405273 17.4502 -11.2344 35.2852q-4.63379 8.29492 -30.6221 19.3027q-14.3057 5.78223 -36.9727 8.77344q-22.667 2.99023 -41.9561 2.52051l-30.3398 -0.861328
l-16.8525 -1.90039q-4.55762 0.0556641 -10.2021 -2.85742q-5.64551 -2.91309 -11.8203 -6.16992l-8.48145 -5.50684q-3.36816 -2.93945 -3.11523 -3.90723q0.25 -0.967773 2.87305 -1.52539q6.99609 -1.48535 8.31836 -8.16406q-0.666992 -11.7383 -8.50391 -29.2627
q-7.83887 -17.5234 -12.0234 -15.7197q-1.56445 1.24512 3.0498 5.74805l3.36621 2.94043l3.79297 9.24414q7.21289 16.7441 7.7334 23.4863q0.518555 6.74414 -3.48145 9.42188q-1.5625 1.24609 -4.18555 1.80371l-3.49707 0.743164q-2.80957 -0.316406 -8.20215 -4.19629
q-5.39355 -3.87988 -7.88574 -7.00488l-2.49219 -3.12598q-2.67871 -4 -4.69531 -11.3389t-0.322266 -12.2686q1.69336 -4.92773 5.91699 -10.8525q4.22266 -5.92383 10.6611 -10.0332l3.81445 -3.55273q2.43652 -1.43066 4.37109 -0.928711zM464.908 615.986
q-2.75391 4.24121 -2.48633 11.9512t3.13281 12.5859q2.86328 4.87305 1.21777 -0.716797q-1.64648 -5.58984 -1.91211 -13.3008q-0.269531 -7.71094 1.20117 -9.39355q1.46973 -1.68359 0.50293 -1.93555q-0.96875 -0.25 -1.65625 0.80957zM594.451 614.952
q0.743164 3.49707 0.425781 6.30566q-1.69336 4.92969 -0.0390625 4.12109q1.65723 -0.80957 2.22559 -4.58496q0.568359 -3.77734 -0.863281 -6.21289l-0.558594 -2.62305q-1.43164 -2.43848 -1.19043 2.99414zM419.008 662.296q1.74805 -0.37207 6.49219 0.447266
l13.541 3.51855q5.61816 0.633789 21.4102 1.8457l27.7168 1.41992q24.0332 1.28711 48.3555 -2.51172q24.3232 -3.79883 40.377 -9.95312q6.99512 -1.4873 12.7441 -4.53516q1.5625 -1.24707 4.99414 -0.148438q3.43262 1.09863 5.73828 3.34961
q13.8916 18.0645 8.3623 39.3447q0.371094 1.74902 -2.07617 9.57812q-2.44824 7.83203 -13.8887 18.4883q-5.56348 3.92383 -18.3066 8.46094q-12.7422 4.53516 -31.6348 8.09375q-18.8906 3.55859 -36.4316 2.71777q-17.541 -0.839844 -31.7705 -3.29883
q-25.8379 -5.47363 -35.6943 -8.8623l-11.9785 -4.76367q-2.80957 -0.316406 -2.99707 -1.19043l-8.88574 -24.6123l-8.94141 -29.1689l1.37793 -2.12109q3.25586 -6.1748 11.4961 -6.09863zM436.845 673.126q1.06055 0.688477 1.96289 2.78125
q0.899414 2.09277 3.23438 6.62207q2.33301 4.53027 2.38867 9.08789q1.8584 8.74316 -1.39746 14.918q-3.20312 10.7334 -12.1318 11.7168q-5.24609 1.11523 -4.18457 1.80371q1.05957 0.688477 3.68262 0.130859q2.62207 -0.557617 5.24512 -1.11621
q7.49805 -3.41992 10.2617 -14.0586q2.76562 -10.6406 -1.58594 -22.5088l-3.42188 -7.49805q-1.43066 -2.43652 -2.30566 -2.25098zM482.694 695.363q-1.87988 4.05566 -1.89062 10.4541q-0.0107422 6.39941 1.79297 10.585q4.79785 5.37695 3.31152 -1.61816
q-1.61719 -3.31152 -2.29492 -8.64941q-0.678711 -5.33984 0.326172 -9.20801q1.00586 -3.86914 -1.24512 -1.56348zM595.646 685.062q0.185547 0.875 -0.130859 3.68262l0.240234 5.43262q0.0546875 4.55664 1.61816 3.3125q1.5625 -1.24805 -0.110352 -9.11523
q-1.11426 -5.24707 -1.61719 -3.3125zM372.761 767.163q-7.62793 7.10449 -25.3389 14.0684q-17.709 6.96191 -28.5742 7.44336q-3.86816 -1.00488 -3.24414 -0.223633q0.62207 0.78125 1.49512 0.595703q10.1768 0.579102 24.7607 -3.8916
q14.5859 -4.47168 25.0225 -11.2598q7.31152 -4.29492 7.81348 -6.22949q0.50293 -1.93359 -1.93457 -0.50293zM495.424 849.836q-4.13086 6.36133 -11.415 12.9346q-7.2832 6.5752 -10.1582 8.09961t0.807617 1.65625q5.06152 -1.98926 14.1592 -10.7773t9.23047 -12.4707
q-0.373047 -1.74902 -2.62402 0.557617zM500.871 952.854q1.61914 3.3125 3.42285 7.49707l1.80371 4.18652l5.54004 8.87305q0.1875 0.875 -2.93945 3.36621q-3.125 2.49316 -4 2.67871q-0.874023 0.186523 -2.7334 -8.55762q-2.60059 -12.2393 -6.02344 -19.7373
q-0.370117 -1.74902 0.318359 -2.80957q0.688477 -1.05957 2.12109 1.37695z" />
</svg>
