<?xml version="1.0" standalone="no"?>
<!DOCTYPE svg PUBLIC "-//W3C//DTD SVG 1.1//EN" "http://www.w3.org/Graphics/SVG/1.1/DTD/svg11.dtd" >
<svg xmlns="http://www.w3.org/2000/svg" xmlns:xlink="http://www.w3.org/1999/xlink" version="1.1" viewBox="-10 0 736 1024">
   <path fill="currentColor"
d="M247.402 94.1914q-8.31738 3.32715 -17.4648 12.0596t-13.7227 18.7119q-4.57422 9.98145 -11.2285 32.4365q-6.65332 22.4541 -8.31445 35.7617q-1.66602 13.3076 1.24707 30.3574q2.91016 17.0488 8.73145 28.6914l3.32812 5.82227q0 1.66309 17.4639 34.0977
l8.31738 14.9717l19.127 39.0898q6.6543 13.3066 9.14941 17.4648l2.49512 4.1582l-4.99023 -0.832031q-6.6543 -1.66309 -17.4648 -1.66309h-17.4658q-50.7324 10.8115 -63.207 15.8008l-19.1299 8.31738q-11.6426 4.1582 -22.4541 9.14941l-20.793 9.14746
q-13.3057 4.99121 -22.0381 12.8916q-8.7334 7.90137 -21.208 27.0303q-3.32617 4.15723 -9.14941 14.9688q-5.82129 10.8125 -7.48438 19.9609q-0.833008 8.31641 -0.833008 14.9697q0 5.82227 0.833008 9.97949q0.832031 7.4873 6.65234 16.6348l5.82129 9.98145
q1.66504 2.49316 0 5.81934q-5.82129 13.3086 -9.14648 37.8418q-3.32715 24.5352 0.415039 33.6836q3.74219 9.14941 7.90039 14.1377q4.1582 4.99121 11.6445 9.98145l6.65332 4.99023l-1.66406 4.1582q-6.65234 14.1377 -6.65234 42.416
q-0.832031 17.4648 4.57324 27.8613q5.40527 10.3945 19.1279 19.5439q13.7217 9.14941 15.3877 9.97949l1.66211 15.8037q2.49609 20.791 5.82324 29.1074q3.3252 8.31641 14.1377 16.6348q22.4551 19.96 47.4062 24.1182q24.9502 4.1582 46.5742 -6.65332
q4.15723 -3.32715 4.98828 -1.66406q4.15918 3.32715 21.625 9.14746q17.4648 5.82324 39.0889 11.6455l14.9707 3.32715q4.15723 0.830078 10.8115 0.830078l19.1279 2.49512q18.2979 2.49512 37.4258 1.66406q19.1279 -0.832031 34.0986 -4.15918l30.7725 -7.48535
q7.48535 -1.66211 12.4756 -2.0791q4.99023 -0.415039 14.5547 0.416992q9.56348 0.830078 14.5537 -2.49609q2.49512 -1.66309 4.98926 -0.831055l4.99219 0.831055q5.82031 1.66406 9.14746 1.66406l8.31738 -1.66406q9.97949 0 10.3965 2.0791
q0.415039 2.0791 11.2275 9.14844q10.8115 7.07031 23.2871 12.8906l34.0967 14.9707q4.16016 1.66406 3.32812 2.49609l-5.82227 37.4248q-2.49512 16.6338 -0.831055 23.2871q2.49512 4.15918 18.2959 5.82129q8.31641 1.66406 13.3076 1.66406
q5.82129 0 7.48535 -1.66406q0.832031 -2.49512 4.15918 -26.1973q3.32617 -23.7031 8.31641 -47.8213q14.1377 -55.7236 45.7412 -167.169q31.6045 -111.445 34.1006 -128.91q-3.32812 -6.65332 -18.2969 -14.9688q-14.9707 -8.31836 -22.4561 -6.6543
q-4.99121 4.1582 -8.31738 16.2188q-3.32617 12.0586 -4.1582 12.8906l-11.6445 -3.32715q-9.97852 -2.49512 -16.6328 -5.82129q-6.65234 -3.32812 -19.1289 -11.6455l-16.6338 -9.97949q-4.15723 -2.49414 -13.3066 -6.65332q-23.2861 -10.8115 -34.9287 -21.623
l-5.82324 -5.82227q-4.99023 -4.15723 -11.6436 -12.4746q-14.1387 -19.1289 -34.9297 -58.2178l-9.14941 -17.4658l-18.2959 -28.2773q-7.4873 -12.4746 -18.2979 -29.5234q-10.8125 -17.0498 -15.8018 -22.8721q-3.32715 -3.3252 -10.8115 -9.98047l-16.6348 -14.1377
q-48.2383 -46.5742 -55.7227 -59.0498q-4.15625 -8.31738 -9.56445 -13.7217q-5.4043 -5.40723 -8.73145 -5.40723q2.49414 -9.14844 -5.82227 -11.6426q-2.49512 0 -2.91113 -3.32617q-0.415039 -3.32715 -1.24609 -4.15918q-0.832031 -0.831055 -4.99121 -7.48535
q-9.97949 -12.4746 -18.7139 -28.6924q-8.73145 -16.2197 -10.8105 -24.1191q-2.0791 -7.90039 -2.0791 -29.5244q0 -18.2979 -0.416992 -23.7031q-0.416016 -5.40723 -2.49414 -7.90137q-2.07812 -2.49512 -2.07812 -3.3252q-0.832031 -3.32715 -10.8125 -5.82227
q-5.82227 -1.66406 -9.98047 -1.66406q-3.32715 0 -5.82227 0.832031zM261.541 98.3496q4.15723 0 7.48438 2.49609q3.32812 2.49414 -0.831055 6.65234q-8.31543 9.14941 -8.73145 17.4648q-0.416016 8.31641 5.4043 19.9609q1.66406 4.15723 4.57617 9.14746
q2.91016 4.99023 4.98828 7.48535q2.08105 2.49609 3.74219 7.90137q1.66504 5.40625 4.1582 9.56543l7.48633 12.4746q4.99121 9.14746 10.3945 17.8809q5.40723 8.73242 8.73438 11.2275q4.1582 3.32715 -2.49512 4.99023l-5.82129 1.66406
q-2.49512 1.66113 -4.15918 2.49512q-1.66211 0.832031 2.91113 1.24707q4.57422 0.415039 8.73242 -1.66406q4.16016 -2.07812 6.2373 0q2.08008 2.0791 -0.416016 4.57422q-0.831055 1.66309 3.32715 1.24805q4.1582 -0.416016 5.82227 3.74121
q2.49512 5.82227 -8.31641 7.48633q-4.99121 0.831055 -4.5752 2.49512q0.416016 1.66309 7.90137 -0.832031q4.15918 -0.832031 6.65234 -0.832031q2.49512 0 4.99023 2.49609q4.15918 3.32617 11.2285 16.2168q7.06836 12.8906 23.2881 29.9414
q16.2168 17.0498 35.3447 32.0195q16.6348 12.4746 24.1191 21.207q7.48438 8.73145 20.793 31.1885l30.7715 49.9004l9.14941 15.8008q19.127 36.5957 34.0967 56.5557q14.9717 19.9609 23.2891 24.5352q8.31445 4.57324 14.5527 9.14746q6.23828 4.5752 12.8926 8.73438
l9.97949 4.98828l23.2881 13.3066q4.99023 2.49609 12.0596 6.65332q7.06836 4.16016 14.5537 7.48633l17.4668 7.48535l5.81934 1.66309l-2.49316 9.14746q-19.1299 67.3662 -37.8428 144.298q-18.7139 76.9297 -28.6934 128.495q0 4.1582 -2.07812 3.74219
q-2.08008 -0.416016 -14.5557 -6.23828l-24.1191 -11.6436q-6.65234 -4.1582 -11.6426 -7.06836q-4.99121 -2.91211 -10.8115 -7.07031q-4.15918 -2.49414 -4.15918 -3.32617q0 -0.833008 2.49414 -2.49512q4.15918 -5.82324 4.5752 -22.4561
q0.416016 -16.6338 -2.07812 -17.4648q-0.832031 0 -0.832031 2.49414v10.8115l-1.66504 21.626q-0.830078 3.3252 -2.91016 3.74219q-2.0791 0.415039 -9.56445 0q-7.48438 -0.416992 -11.6426 0.415039q-17.4668 2.49414 -19.1289 -9.97949q0 -8.31738 -2.49609 -7.48633
q0.832031 7.48633 0 12.8916q-0.831055 5.40625 -5.82129 5.40625h-15.8018q-13.3066 0 -22.4551 0.831055l-29.9395 6.65332q-7.48633 2.49512 -13.3066 3.32715q-15.8027 2.49512 -28.6943 2.08008q-12.8916 -0.416992 -32.0205 -2.91211l-14.9697 -2.49512
q-4.99023 0 -9.97949 -0.831055l-19.96 -4.99121q-19.96 -4.1582 -36.1787 -9.56348q-16.2178 -5.40527 -18.7129 -8.73242q0.831055 -1.66406 19.1289 -7.90137q18.2959 -6.2373 30.7725 -8.73242l12.4756 -3.32715q4.1582 -0.832031 15.3857 -6.65234
q11.2266 -5.82227 19.5449 -11.6436q4.98828 -2.49609 14.9688 -9.56348q9.98145 -7.06934 16.6357 -14.5566q2.49414 -3.32617 4.15625 -6.65332q1.66406 -3.32617 2.49512 -9.97852q0.831055 -6.6543 0 -13.3086v-8.31641l3.32715 -1.66309
q4.1582 -2.49512 4.98926 -4.1582l4.99121 -5.82129q19.127 -22.4551 -9.98047 -63.209l-4.98926 -6.65234l0.831055 -5.82324v-13.3057q-29.1094 -34.9307 -43.2471 -36.5938l-15.8018 -2.49512q-11.6445 -1.66309 -14.1396 -3.32617q-0.832031 0 2.49512 -0.833008
q6.6543 -0.831055 13.7236 -3.32715q7.06836 -2.49414 11.2266 -6.2373q4.15918 -3.74316 6.23828 -11.6416q2.08008 -7.90234 -0.416016 -14.5547l-1.66309 -6.65332q-1.66309 -4.16016 -6.65332 -9.98145q-4.99023 -5.82031 -11.6436 -10.8105
q-4.1582 -3.32715 -11.2275 -7.07031q-7.07031 -3.74219 -8.73242 -3.74219l-0.832031 -2.49609q-0.833008 -2.49414 -1.66309 -4.98828q-2.49512 -4.99121 -2.91211 -10.8135q-0.414062 -5.82031 -0.414062 -20.792l0.831055 -14.9697q0 -4.98926 0.831055 -6.65332
q1.66406 -6.65234 -1.66211 -4.1582q-4.1582 7.48438 -4.57422 28.2764q-0.417969 20.792 2.91016 30.7715q2.49512 4.99219 0.832031 3.32715l-4.16016 -0.831055q-3.32715 -0.831055 -7.48438 -2.49609l-8.31641 -4.98828l-6.6543 -2.49512
q-3.3252 -0.833008 -2.91016 -3.74219q0.416016 -2.91309 0 -11.2285q-0.415039 -8.31738 -2.08008 -19.1289q-1.66211 -12.4746 -1.24707 -32.4346q0.416992 -19.9619 2.0791 -27.4453q1.66406 -3.32812 0 -3.32812q-3.32715 0.832031 -5.40625 24.1201
q-2.07812 23.2861 0.416992 41.583q0.831055 7.48438 1.66211 17.4658q0.833008 9.98047 0.416992 10.8115q-0.416992 0.831055 -2.0791 0.831055l-21.624 -4.98828l-28.2773 -4.16016q4.1582 -9.98047 4.57422 -23.7031q0.416016 -13.7217 -3.74121 -30.3564
q-1.66309 -6.65332 -2.49707 -11.6416q-0.831055 -4.99121 -2.07812 -4.99121q-1.24805 0 -0.831055 5.40625q0.415039 5.40527 2.07812 13.7227l2.49512 13.3066q0.833008 4.15918 1.24707 9.56445q0.416992 5.40625 -0.414062 10.3955q-0.833008 4.99023 -1.24902 6.23828
q-0.414062 1.24707 -7.06836 -4.5752q-4.15918 -4.1582 -9.14844 -7.06934q-4.98926 -2.90918 -17.4648 -8.73242q-18.2979 -8.31641 -29.5254 -11.2275q-11.2285 -2.91113 -17.8809 -0.831055q-6.6543 2.08008 4.1582 2.08008q17.4668 0 55.7236 19.959
q4.98926 2.49512 10.3945 7.48535q5.40625 4.98926 6.6543 7.48438q1.24707 2.49512 1.24707 4.5752q0 2.0791 -1.66406 3.74316q-3.32617 1.66113 -2.07812 2.07812q1.24707 0.415039 5.4043 0.415039q4.16016 0 17.0508 2.08008t30.3564 5.40527
q9.98047 3.32812 22.4551 8.31641l16.6338 6.6543q14.9707 4.98926 26.1973 13.3076q11.2275 8.31641 15.3857 15.8008q5.82227 13.3076 2.49609 22.4561q-3.32715 9.14941 -4.99023 4.98926l-2.49512 -6.65332q-0.832031 -4.1582 -1.66406 -5.82129
q-5.82129 -7.48535 -15.3867 -10.3965q-9.56445 -2.90918 -20.791 -0.414062q-11.2266 2.49414 -17.0488 7.48438q-6.6543 8.31543 -6.23828 16.6338q0.416016 8.31641 7.90137 11.6436l2.49414 1.66211l-22.4541 2.49512h-18.2969l-26.6143 -3.32715
q-14.9707 -1.66309 -25.7822 -4.98926q-10.8115 -3.3252 -22.4561 -8.31738l-22.4551 -9.14746q-3.32715 -0.833008 -8.73242 -1.66406q-5.40527 -0.830078 -12.0596 -1.66309l-14.1377 -2.49414q-19.9609 -0.832031 -27.4453 -9.14941l-6.65332 -9.14941l-2.49609 -4.98926
l-1.66211 -4.1582q-5.82227 -10.8115 -2.49512 -28.2764q2.49512 -10.8115 6.65332 -19.9609q4.1582 -9.14844 14.1377 -23.2861q9.98047 -14.1387 17.8799 -20.793q7.90332 -6.65234 20.377 -11.6445l60.7129 -25.7803q15.8027 -7.48535 36.5947 -11.2285
q20.791 -3.74219 43.2471 -3.74219q28.2773 0.832031 32.4365 6.65332l11.6416 8.31738q3.32812 2.49414 2.49609 0.831055q-0.832031 -1.66406 -3.74316 -5.40625q-2.91016 -3.74219 -5.40625 -5.40625q-2.49414 -1.66211 -10.8115 -13.3076
q-8.31738 -11.6416 -10.3955 -17.0488q-2.08008 -5.40625 -7.90137 -17.0488l-9.14746 -18.2979l-19.9609 -34.9297q-13.3057 -21.624 -18.7139 -43.2461q-5.40527 -21.626 -2.0791 -42.417q1.66504 -13.3066 7.4873 -33.2666q5.82031 -19.96 9.97949 -28.2773
q6.65234 -12.4746 16.6328 -20.792q9.97949 -8.31641 18.2959 -8.31641zM274.849 109.161q0.831055 0.831055 0.831055 6.6543v42.416l-3.32617 -4.99121q-5.82227 -7.48633 -8.73242 -16.6328q-2.91211 -9.14941 -1.24902 -14.9707q0.833008 -2.49414 5.40625 -8.73145
q4.5752 -6.24023 5.40723 -6.6543q0.832031 -0.416016 1.66309 2.91016zM245.739 262.19q-6.6543 6.6543 -6.6543 9.56445q0 2.91113 4.16016 -3.74316q2.49414 -3.32617 5.82227 -6.65234q3.3252 -3.32715 1.66211 -3.32715q-1.66211 0 -4.99023 4.1582zM332.234 420.209
q0 0.832031 7.90137 4.1582q7.89941 3.32715 16.2178 4.99219q4.15723 0.830078 10.8115 0.830078h8.31738l-7.48633 -1.66211q-6.6543 0 -13.7227 -1.66406t-16.2178 -5.82227q-5.82129 -2.49512 -5.82129 -0.832031zM62.7705 493.396q-3.32812 5.82324 -3.32812 14.1387
q0 8.31738 3.32812 9.14941q0.831055 0 0.831055 -2.49512q-0.831055 -13.3076 0.832031 -19.1279q1.66309 -2.49512 0.831055 -3.32617q-0.831055 -0.833008 -2.49414 1.66113zM79.4023 494.229q-1.66113 1.66309 -2.49512 10.8105q-0.832031 9.14941 0.416992 10.3975
q1.24805 1.24707 1.66406 -7.07031q0.414062 -8.31641 1.66309 -11.6436q1.24707 -3.32715 -1.24902 -2.49414zM187.521 527.497q-1.66406 4.15723 -1.24707 10.8115t2.91113 8.73242t0.832031 -4.57422q-0.832031 -4.1582 -0.832031 -8.31543v-6.23926
q0 -2.0791 -1.66406 -0.415039zM290.65 536.645q2.49609 0 6.65332 2.07812q4.1582 2.08105 7.06934 6.24023q2.91016 4.15625 3.74219 9.14746l0.832031 5.82031q0.831055 1.66602 -4.57422 4.16016q-5.40625 2.49414 -11.2266 4.15723q-5.82227 1.66309 -16.2188 2.49512
q-10.3965 0.833008 -17.8809 -3.32617q-14.1396 -7.48633 -3.32715 -24.1191q4.15918 -4.98926 14.9697 -7.06934q10.8115 -2.07715 19.9609 0.416016zM69.4229 543.298q2.49609 0.832031 7.48438 1.66504q4.99121 0.830078 9.15039 0.830078q8.31641 0 25.3652 4.57324
q17.0488 4.57617 31.6035 10.3984q14.5557 5.82031 24.9502 8.73145q10.3965 2.91113 21.209 4.5752l17.4648 1.66309q6.65332 0.832031 19.96 0.832031l24.1191 -1.66406q15.8018 -0.831055 19.96 0l6.6543 0.832031l35.7617 6.65332q6.65332 0.831055 12.0596 2.49512
q5.40527 1.66309 12.8906 6.65234q9.14941 7.48535 13.3057 14.1396q4.16016 6.65234 4.99219 12.4756v9.14746q0 1.66309 -0.832031 6.6543q-0.832031 4.99023 -1.66211 5.82031q-0.833008 0.833008 -4.99219 -16.6338q-3.32617 -9.97852 -10.3955 -18.7109
q-7.06934 -8.73438 -12.8906 -9.56445q-2.49512 0.830078 0.832031 2.49609q6.65332 2.49316 12.4756 11.2256q5.82031 8.7334 8.31641 18.7129l3.32617 10.8125q1.66309 6.65332 -3.32617 12.8916q-4.98926 6.2373 -13.3076 6.65234q-8.31641 0.416016 -19.5449 -1.66309
q-11.2266 -2.08008 -19.1299 -4.57422q-7.89844 -2.49512 -10.3945 -6.65332t1.24902 -14.5537q3.74121 -10.3965 10.3945 -17.0498q6.6543 -6.65527 20.792 -12.4746q8.31738 -3.32617 6.65332 -4.15918q-1.66211 -0.833008 -8.73242 2.49414
q-7.06934 3.32715 -13.7227 7.48438q-11.6436 8.31836 -17.0498 21.21q-5.40527 12.8906 -0.415039 20.375q4.15723 3.32715 15.8018 6.6543l25.7822 4.99023h5.82129l-2.49414 1.66309q-1.66504 0.831055 -6.2373 1.66211q-4.5752 0.833008 -15.3877 1.66406
l-16.6328 1.66309q-7.48535 0.832031 -26.6143 0.832031h-29.1084l-34.9297 -2.49512l-19.9609 -2.49512q-23.2871 -2.49414 -35.7637 -4.98926l-21.624 -4.15918q-16.6318 -3.32617 -28.6914 -7.06836q-12.0596 -3.74414 -16.2168 -7.06934
q-4.16016 -3.32715 -10.8135 -8.31738q-15.8008 -9.97949 -19.1289 -24.1201q-1.66211 -8.31641 1.24707 -29.9385q2.91211 -21.624 7.06934 -34.9307l1.66504 -4.99121l4.1582 2.49512q4.1582 2.49609 7.48438 4.1582zM680.708 563.258q11.6426 5.82324 18.2979 9.14941
q1.66211 2.49512 -0.832031 6.65332l-27.4443 90.6523q-26.6152 97.3076 -41.585 163.01q-14.9707 65.7031 -17.4658 103.129v5.82227l-32.4355 -6.6543l0.832031 -5.82129q5.82129 -34.9316 30.7734 -138.891l34.0967 -140.554l14.1387 -54.8906
q6.6543 -25.7822 8.73242 -30.3564q2.08105 -4.57617 6.23926 -4.15918q4.15723 0.416992 6.65234 2.91016zM59.4424 584.051q-2.49512 5.82129 -2.07812 15.8018q0.416016 9.97949 3.74219 11.6436l-0.832031 -8.31641v-9.98047q3.32715 -10.8115 1.66406 -10.3955
q-1.66406 0.415039 -2.49609 1.24707zM79.4023 589.041q-2.49512 4.99023 -1.66113 13.3066q0.831055 8.31738 3.3252 9.14844q2.49512 0.831055 0 -4.99121q-2.49414 -8.31641 -0.415039 -15.3848q2.0791 -7.06934 -1.24902 -2.0791zM214.136 617.318
q-2.49512 4.1582 -3.32715 10.3965q-0.830078 6.2373 1.24609 10.8105q2.08105 4.57324 2.08105 1.24707v-14.1387q0.831055 -9.97949 0 -8.31543zM363.007 644.764q23.2871 35.7637 10.8115 54.0596q-4.99121 9.14844 -14.1387 14.1377q-5.82031 3.32715 -12.8906 4.99023
q-7.06836 1.66309 -20.376 4.15918l-21.625 4.1582q-9.14746 1.66211 -24.9492 3.32715q-21.625 2.49414 -32.0205 4.15625q-10.3955 1.66406 -19.543 4.15918q-15.8027 4.1582 -27.4463 6.23828t-23.2881 2.91211q-23.2861 1.66113 -43.6621 0
q-20.376 -1.66504 -25.3672 -3.32715q-6.65234 -3.32812 -8.31836 -4.1582l-4.98828 -4.16016l-9.14746 -5.82031q-27.4473 -15.8027 -20.793 -59.8828q1.66309 -9.97852 4.57324 -18.2959q2.91113 -8.31836 4.57617 -9.14941q4.1582 0.831055 9.97949 3.32715
q9.14844 4.98926 18.2969 7.48535t24.9521 5.82129l18.2949 3.32715q9.97949 1.66406 27.0303 3.74316q17.0498 2.07812 37.8408 3.74121l21.624 1.66406q9.97949 0.832031 32.4346 0.415039q22.457 -0.415039 30.7734 -1.24707l16.6348 -1.66309
q15.7998 -0.832031 18.2949 -3.32715l7.48535 -3.32617l6.65332 -3.32715l5.82227 -4.99023l4.1582 -6.65332l4.15918 7.48633q7.48438 11.6426 8.31641 23.7021q0.831055 12.0596 -4.98926 22.04l-1.66504 3.32715l-6.65137 -0.832031q-47.4072 -1.66309 -44.0811 -29.1094
q0 -7.48535 -1.66309 0.831055q-0.832031 4.99121 0.832031 10.8125q1.66309 5.82227 4.98926 9.14746q5.82227 4.16016 19.1299 7.48535q13.3066 3.32812 24.9492 4.15918q5.82227 0.832031 8.31738 -7.48438q9.14941 -22.4561 -6.65332 -47.4062l-4.1582 -6.65332
l1.66309 -3.32617q0.831055 -3.32715 1.66406 -2.49512zM573.421 645.595q-0.832031 0.831055 -1.66211 6.6543q-2.49512 18.2959 -7.48535 39.9189q-4.99023 21.625 -11.6436 41.584l-4.99023 14.9707v2.49512q21.624 -59.8799 25.7812 -81.5049
q4.98926 -27.4453 0 -24.1182zM239.918 685.516q0 3.32617 3.32715 11.2275q3.3252 7.90137 4.57324 7.07031q1.24902 -0.832031 -1.24805 -6.2373q-2.49414 -5.4082 -3.74219 -9.98047q-1.24805 -4.57422 -2.91016 -2.08008zM77.7412 686.347q0 3.32715 2.07812 13.3086
q2.0791 9.97852 5.40625 14.9688h2.49512l-6.6543 -20.792l-0.832031 -6.65234q-0.832031 -3.32715 -2.49316 -0.833008zM95.2051 693.832q0.832031 5.82324 2.49512 12.8926q1.66309 7.06836 2.91113 7.06836t1.24805 -1.66406l-1.66602 -6.65234
q-1.66113 -5.82129 -1.66113 -10.8135q-1.66504 -9.14746 -3.32715 -0.831055zM357.185 727.101q0.831055 22.4551 -6.65332 22.4551q-2.49609 0 -5.82227 0.832031q-3.32715 0.830078 -11.6426 1.24609q-8.31836 0.416016 -14.1377 -0.831055
q-5.82324 -1.24707 -9.15039 -7.06836q-3.32617 -5.82324 -3.32617 -9.14941q0 -3.32715 -0.416016 1.24707t1.24707 7.90234q1.66406 3.32715 4.99219 5.82129q3.32617 2.49414 4.98828 3.32617q9.14941 1.66309 17.4648 1.66309q8.31836 0 13.3066 -1.66309
l2.49609 -0.832031q0 0.832031 -3.32617 4.1582l-5.82324 5.82227l-8.31543 5.82227q-13.3076 10.8115 -28.2783 17.8799q-14.9697 7.06934 -28.2754 10.3965q-14.9717 3.32812 -31.1885 9.14844q-16.2188 5.82129 -25.3662 12.4756q-4.15918 2.49512 -11.2285 4.99121
q-7.06934 2.49414 -14.5547 4.1582q-14.1377 2.49512 -31.6035 -2.91211q-17.4639 -5.40625 -31.6035 -16.2188q-14.1396 -10.8115 -17.8818 -19.5439q-3.74121 -8.73145 -4.57422 -29.5244q2.49609 -11.6416 9.98047 -9.98047q14.1387 2.49512 37.8418 2.91113
t37.8408 -2.07812l17.4658 -2.49414l35.7617 -7.48535l47.4072 -7.48633l13.3057 -2.49414l19.1279 -4.16016q21.624 -4.98926 25.3682 -5.40527q3.74219 -0.416016 4.57324 7.07031zM251.562 752.05q-0.833008 4.1582 3.74121 13.3066q4.5752 9.14941 4.99023 7.07031
t-2.08008 -7.07031q-2.49414 -4.98828 -3.32715 -9.14844q-2.49414 -6.65234 -3.32422 -4.1582zM128.472 786.149q0.833008 4.1582 7.07031 12.8906q6.2373 8.73145 7.90039 7.90137q0.831055 -0.831055 -2.91016 -4.98926q-3.74219 -4.16016 -7.06934 -8.7334
q-3.32617 -4.5752 -3.32617 -5.82324q0 -1.24609 -1.66504 -1.24609zM144.273 788.644q0 1.66406 2.91211 6.65332q2.91113 4.99023 3.74316 4.99023l-2.49609 -5.82129q-4.15918 -8.31641 -4.15918 -5.82227z" />
</svg>
