<?xml version="1.0" standalone="no"?>
<!DOCTYPE svg PUBLIC "-//W3C//DTD SVG 1.1//EN" "http://www.w3.org/Graphics/SVG/1.1/DTD/svg11.dtd" >
<svg xmlns="http://www.w3.org/2000/svg" xmlns:xlink="http://www.w3.org/1999/xlink" version="1.1" viewBox="-10 0 647 1024">
   <path fill="currentColor"
d="M488.396 73.5859q-6.76953 1.69141 -11.8457 5.07715q-0.847656 -0.845703 -3.38574 1.69238q-2.53906 2.53809 -5.92383 22q-2.53906 10.1562 -5.92383 24.542q-3.38379 14.3848 -4.6543 15.6533q-1.26953 1.27051 -3.80762 4.65527l-11.8477 18.6172l-5.07617 6.76953
q-8.46289 8.46191 -14.8096 16.501q-6.3457 8.03809 -7.19238 11.4238q0 0.845703 -1.69141 2.11621q-1.69336 1.26758 -2.96191 4.65332q-1.27148 3.38477 -2.96191 4.23145q-1.69336 0.845703 -3.38477 2.96191q-1.69238 2.11426 -1.69238 2.96094t-2.53906 2.53906
q-2.53809 1.69238 -9.30859 8.46191l-15.2324 16.0771q-14.3848 16.0801 -20.7314 20.7334q-6.34668 4.6543 -13.9629 7.19336q-3.38477 0.84668 -11.001 4.23047l-16.0771 7.61523q-10.1553 5.07715 -16.0791 9.30859q-5.92285 4.23145 -10.1543 10.1543l-7.61523 8.46289
l-20.3086 27.0781l-16.9258 24.541q-6.76953 10.1533 -21.1533 27.9238l-7.61621 9.30859l-16.9248 18.6162l-20.3096 24.541l-27.0791 34.6953q-6.76953 7.61523 -11.001 12.6924q-8.45996 9.30859 -22 20.7314q-13.54 11.4248 -22.0029 17.3496l-5.92285 5.07617
q-5.92383 4.23145 -19.4629 11.8477l-12.6934 7.61328q-4.23145 -2.53809 -7.61719 -23.2695q-3.38184 -20.7324 -8.46094 -22.4238q-5.92285 1.69141 -16.502 8.88477q-10.5771 7.19238 -11.4219 13.1172q3.38477 36.3867 20.3086 129.47l30.4629 162.474
q28.7715 115.085 33.8496 116.776q3.38379 0 3.38379 -3.80762q0 -3.80859 3.38574 -9.73242q5.92285 -8.46191 11 -11.4229t13.5391 -2.96094q3.38672 0 0.84668 -7.61621l-12.6924 -40.6191l1.69141 -1.69141q7.61719 -6.77246 27.0781 -14.3857
q19.4639 -7.61719 48.2363 -16.502q28.7715 -8.88672 49.9258 -9.73047q21.1553 -0.84668 47.3877 5.92188l11.8477 2.53809l42.3096 8.46289l16.9248 2.53906q38.9248 3.38379 48.2324 6.77051q3.38672 0.844727 11.8477 1.69238h16.0771l33.0039 -11.002
q2.53906 -2.53906 5.92285 -3.38477q3.38574 -0.84668 8.46289 -0.84668q23.6924 -0.845703 40.1953 -22.001q16.5 -21.1553 17.3467 -51.6191v-11.8467l4.23047 -4.23047q8.46387 -8.46289 18.6182 -29.1943q10.1543 -20.7334 16.0771 -39.3496
q2.53906 -7.61523 2.11523 -17.3467q-0.421875 -9.73242 -2.96191 -17.3486l-0.845703 -4.23047l2.54004 -0.844727q14.3838 -8.46289 24.1152 -27.5039q9.73145 -19.04 9.73145 -37.6572q-0.84668 -16.9238 -6.76953 -27.9229q-5.92285 -11.002 -15.2324 -14.3867
l-3.38379 -0.845703l5.07617 -2.53906q13.54 -6.76855 16.9258 -18.6162q3.38379 -9.30859 4.23047 -19.4629l0.84668 -11.8467q0.844727 -5.07812 0.844727 -13.541q0 -8.46094 -1.69141 -12.6914l-1.69336 -5.07715q-0.84668 -4.23145 -2.53711 -6.77051
l-3.38574 -6.76953q-4.23145 -11.8467 -17.7705 -21.1543q-22.8486 -17.7715 -64.3125 -8.46289l-7.61523 3.38379q-5.9248 1.69336 -6.76953 2.53906l-5.07812 2.54004l-5.92285 -1.69336q-10.1543 -3.38574 -23.2715 -5.92383q-13.1162 -2.53906 -22.4248 -3.38477
q-5.92285 0 -11.8457 -2.53906l-9.30859 -5.07617q-5.9248 -2.53906 -7.19238 -5.07812q-1.27051 -2.53809 0.421875 -10.1543q5.07812 -16.0781 10.1543 -24.1172q5.07812 -8.03809 13.541 -13.9619q12.6934 -8.46191 24.5391 -25.3867l11.8477 -15.2324
q16.9229 -22.001 22.4248 -30.041q5.5 -8.03711 8.03711 -16.5q2.54004 -8.46289 9.30957 -22.8486q8.46289 -20.3086 11.001 -37.6553q2.53809 -17.3477 0 -45.2725q-1.69238 -16.9238 -7.61621 -34.2715t-12.6943 -24.9629q-9.30859 -11.8477 -22.8467 -11.8477
q-3.38379 0 -6.76953 0.84668zM501.937 77.8174q5.07617 1.69238 9.73047 5.92188q4.65332 4.23242 8.04004 10.1562q11 22 14.8086 53.7334q3.80762 31.7334 -2.96289 54.5801q-1.69141 7.61621 -3.38379 12.6943l-5.9248 12.6934l-5.92383 16.0781
q-3.38477 9.30762 -6.34473 14.8086q-2.96289 5.5 -10.5791 14.8096l-26.2314 34.6934q-5.07715 7.61523 -12.2705 15.2314q-7.19238 7.61621 -13.1152 11.8477q-10.1562 6.76953 -15.6562 17.3467q-5.5 10.5791 -9.73145 27.502q0 5.92285 -3.38477 3.38379
q-11.002 -3.38379 -22.8467 -5.0752h-21.1562q-16.9248 0 -27.9248 0.845703l-8.46191 1.69238q-7.61621 0.845703 -7.61621 2.53711l8.46191 0.847656q19.4639 -2.53906 41.041 -1.26855q21.5791 1.26855 35.1182 5.5l25.3857 9.30762q5.07715 1.69336 6.34863 2.53906
q1.26855 0.845703 8.03711 1.69141q13.541 0.84668 28.7725 3.80859q15.2305 2.96289 26.6553 7.61719q11.4229 4.65332 10.5781 2.53809q-0.84668 -2.11621 -10.1543 -5.50098q-0.84668 -0.84668 7.19238 -3.80762q8.03809 -2.96289 16.5 -4.65527
q33.002 -5.92188 54.1572 9.30859q6.77051 5.07812 10.1553 9.30859q3.38574 4.23242 5.92285 9.30859l4.23145 6.76953q0.84668 2.53906 2.54004 5.92383l0.844727 5.92383q1.69238 5.07617 1.69238 11.4229q0 6.34766 -0.84668 10.5781
q-0.845703 4.23145 -0.845703 15.2314q-0.844727 17.7705 -8.46191 27.5029q-7.61621 9.73145 -24.54 13.1162q-2.53809 0 -1.69141 2.53906l5.07715 0.84668q17.7695 -0.84668 25.3857 21.999q9.30762 26.2334 -5.92285 54.1592q-5.9248 11.8467 -11.001 16.9248
q-5.07812 5.07617 -14.3857 9.30762q-1.69238 0.845703 -2.11621 2.53809q-0.421875 1.69238 0.84668 2.53906q1.26953 0.84668 2.11621 13.5381q0.845703 12.6943 -0.84668 21.1572q-6.77051 26.2324 -22.002 52.4648q-4.23047 7.61621 -6.76855 11
q-2.54004 3.38379 -5.9248 6.76953q-6.76855 6.76953 -4.23047 7.61621q1.69238 1.69141 1.26758 9.30859q-0.420898 7.61523 -1.26758 12.6924q-6.77051 27.0801 -21.5781 43.1582q-14.8086 16.0771 -33.4258 15.2305q-9.30762 -0.84668 -14.3848 3.38477
q-11.8477 9.30859 -25.3867 11.8467h-16.9248l-15.2324 -1.69238q-6.76953 -2.53711 -22.8467 -4.23047l-38.0801 -4.23145q-13.54 -1.69238 -33.8486 -6.76855l-25.3857 -5.92285q-29.6182 -7.61621 -53.7334 -5.92383q-24.1182 1.69141 -67.2744 15.2314
q-38.9258 11.8457 -53.3125 26.2324l-3.38477 1.69238l-4.23145 -12.6924q-9.30762 -29.6182 -16.9238 -65.1592l-17.7715 -89.6992l-22 -132.009q0 -0.845703 6.76855 -4.23047l16.0791 -8.46094q9.30762 -5.07812 13.5381 -8.46289l7.61621 -5.07715
q15.2334 -11.001 31.7344 -27.0801q16.5 -16.0781 28.3467 -30.4629l27.9268 -35.542l52.4639 -60.9268l6.77051 -9.30859q18.6172 -29.6172 33.002 -49.0801q14.3857 -19.4629 23.6943 -25.3867q5.92383 -3.38574 19.8857 -10.1543q13.9629 -6.76855 19.8857 -8.46094
t14.3867 -8.46191q8.46191 -6.77051 34.6934 -33.8506q10.1543 -10.1543 12.6934 -11.4219q2.53809 -1.27148 2.53809 -4.23145q0 -2.96289 4.23047 -4.6543q0.84668 0 2.11719 -2.96191q1.26953 -2.96191 3.80762 -3.80957q2.53809 -0.844727 2.53809 -3.38379
q0 -5.07715 7.61621 -12.6934l16.0771 -18.6162q3.38477 -5.07617 5.07715 -7.61523l8.46289 -13.54q0.845703 0 1.69336 1.69238q0.845703 5.92383 8.03906 11.8477q7.19141 5.92285 13.1152 5.92285q16.9248 0 19.4629 -21.1562q1.69141 -10.999 -0.422852 -19.8848
q-2.11523 -8.88574 -8.03906 -21.5791q-5.92285 -10.999 -8.88477 -19.0391q-2.96094 -8.03906 -1.26855 -8.88477q2.53809 -2.53906 10.5781 -3.38477q8.03711 -0.845703 13.1152 0zM477.396 90.5107q1.69336 5.92285 3.38574 10.5771t5.07715 10.5762
q6.76953 13.54 8.88477 22.8486t-0.422852 19.04q-2.53809 9.73047 -9.30762 13.9629q-6.76953 4.23047 -13.541 0q-11.8447 -7.61621 -13.5381 -15.2324l-0.84668 -4.23047l1.69141 -2.53906q1.69434 -2.53809 3.80859 -9.30859q2.11523 -6.77051 4.6543 -20.3096
q5.92383 -33.8477 7.19336 -33.002q1.26855 0.845703 2.96094 7.61719zM417.314 208.979q0.845703 4.23047 11.4248 14.8096q10.5781 10.5762 14.8086 10.5762q3.38379 -2.53809 -11.001 -12.6924q-8.46289 -5.92383 -12.6943 -11.8477
q-1.69238 -2.53809 -2.53809 -0.845703zM413.083 219.98q0 4.23047 9.73242 14.3848q9.73145 10.1543 14.3867 9.73242q4.65332 -0.422852 -4.65527 -6.34668q-5.92383 -4.23145 -11.001 -9.30859q-5.07812 -5.07715 -5.92383 -7.61621
q-0.845703 -2.53809 -2.53906 -0.845703zM551.862 496.691q-9.30859 4.23145 -16.9248 6.34766q-7.61523 2.11523 -16.0771 2.53711q-8.46191 0.423828 -7.61523 1.69336q0.845703 1.26953 10.1543 0.845703q9.30762 -0.422852 17.7705 -2.96094
q8.46191 -2.53906 15.2324 -5.5q6.76855 -2.96289 7.61426 -4.65527q0 -3.38477 -10.1543 1.69238zM41.5967 531.386q0.84668 6.77246 2.54004 19.4648l3.38184 23.6924q2.54004 22.8477 22.4258 131.586q19.8857 108.739 40.1953 168.819l11.002 28.7725h-2.54004
q-11.8457 1.69141 -20.3096 18.6152l-2.53711 5.07715l-0.84668 -4.23145q-9.30859 -30.4619 -22.002 -92.2363l-55.0039 -286.866q-2.53711 -15.2305 -1.69141 -15.2305q5.07617 -4.23242 13.1152 -9.30859q8.03906 -5.07812 9.73145 -5.07812zM508.704 637.163
q0.847656 4.23145 15.2334 5.92285q14.3857 1.69238 15.2324 -0.847656q0.845703 -2.53613 -6.76953 -2.53613q-16.9248 2.53613 -23.6963 -2.53906zM475.703 737.862q0.847656 5.07617 23.6934 5.07617h11.8486q3.38379 0 3.80762 -1.26855
q0.422852 -1.26953 -2.11719 -1.69141q-2.53711 -0.424805 -12.6934 -0.424805h-14.3838q-10.1553 -3.38477 -10.1553 -1.69141zM446.085 799.636q0.84668 3.38477 9.30859 7.61621q8.46387 4.23047 10.5781 2.53906q2.11621 -1.69238 -3.80762 -3.38477
q-8.46191 -1.69336 -12.2695 -5.50195q-3.80957 -3.80762 -3.80957 -1.26855z" />
</svg>
