<?xml version="1.0" standalone="no"?>
<!DOCTYPE svg PUBLIC "-//W3C//DTD SVG 1.1//EN" "http://www.w3.org/Graphics/SVG/1.1/DTD/svg11.dtd" >
<svg xmlns="http://www.w3.org/2000/svg" xmlns:xlink="http://www.w3.org/1999/xlink" version="1.1" viewBox="-10 0 831 1024">
   <path fill="currentColor"
d="M349.693 365.093q-12.5449 1.4082 -24.9199 7.65137q-12.376 6.24512 -19.8105 15.2227q-3.7373 4.00488 -5.66992 4.07324l-6.70605 2.1709q-5.77051 1.1709 -26.7197 11.5908l-7.60449 4.13965l-28.5195 15.5283q-7.60645 4.13867 -15.21 8.2793l-26.6875 12.5557
q-3.83496 1.10254 -21.9141 10.4531q-18.0781 9.34863 -29.4873 15.5596l-11.373 7.17969q-40.7246 26.6084 -54.7314 41.6279q-4.66992 5.00684 -6.95312 8.96191q-2.28223 3.9541 -6.88477 10.8965q-7.23242 14.7822 -9.9502 20.2051q-2.71582 5.42188 -6.21289 16.2012
l-4.43555 11.7783l-6.26367 14.75q-4.53418 8.87793 -8.03125 19.6533l-4.33203 14.6826l-5.82617 27.3271q-2.59961 8.80957 -4.70801 31.6494q-2.1084 22.8379 -1.95215 41.2393q0.158203 18.3975 2.43262 28.0059q2.27344 9.60742 6.27734 13.3438
q3.00488 2.80078 6.95801 5.08301q3.95605 2.28516 6.40918 3.16797q2.45215 0.883789 10.2256 1.58203q7.77441 0.695312 9.20898 0.161133t1.57129 3.33496q0.371094 10.6455 2.61035 19.2832q2.2373 8.6416 6.72754 12.3584q4.48828 3.71875 11.2949 4.4502
q6.80762 0.730469 12.0947 -0.422852q5.28711 -1.15234 14.3789 -4.37695q9.08887 -3.22168 12.8242 -7.22949l8.36914 -9.97656q4.60254 -6.94238 6.41895 -10.3975q1.81641 -3.4541 3.24902 -3.98926q1.43652 -0.533203 4.83984 -0.167969
q3.40234 0.365234 10.6426 -0.37207q7.24023 -0.736328 12.0254 -2.35742q4.78809 -1.61914 10.373 -8.11133q5.58398 -6.49316 9.65234 -14.8691q4.06738 -8.375 6.56445 -20.0859l2.32715 -16.5508l1.53027 -11.6787l1.42969 -14.5801l1.93359 -0.0673828
q7.70801 -1.23633 16.6465 -8.81348q8.93555 -7.57812 14.4707 -15.5215q9.13574 -15.8193 14.417 -31.0186t4.14551 -20.0039l-0.0351562 -0.96582l0.900391 -1.9707q-0.0673828 -1.93457 1.90234 -1.03418q5.83887 0.764648 13.9961 -1.45898
q8.15625 -2.22168 14.7588 -7.29395l11.3066 -9.11523q5.63672 -5.04004 8.43652 -8.04395l2.80273 -3.00391l22.1865 -2.71191q0.932617 -1.00098 2.07031 3.80176l23.6719 39.8604l11.1846 15.1074l1.03223 1.90137q3.14062 6.67188 1.51074 15.4473
q-1.63184 8.77637 -6.23438 15.7178q-3.66602 5.93945 -14.8877 17.4727q-11.2236 11.5312 -17.8262 16.6064l-15.041 13.1182l-24.3447 24.0996q-3.76953 3.03809 -9.44043 7.11133q-5.66992 4.07129 -14.5576 13.1016q-8.88574 9.02832 -17.2236 19.9766l-28.7412 36.8428
q-13.04 14.9873 -17.9736 26.2988q-4.93164 11.3154 -6.29199 27.8301q-1.3623 16.5146 2.88086 27.0244q4.24121 10.5049 15.1875 18.8428l5.97461 4.63477q1.96973 0.898438 4.90625 1.7666q13.7129 4.36426 27.0225 -2.88184l8.60645 -3.20703
q4.80371 -1.13574 8.60645 -3.20703l13.2754 -8.21387q6.6377 -4.10449 10.3877 -7.62695q3.75293 -3.52148 9.37305 -9.04492q5.61914 -5.52637 14.0908 -12.6025t16.874 -16.0889l10.3047 -10.0459q3.77148 -3.03809 8.50586 -6.11035q7.57129 -5.10742 13.207 -10.1475
t18.7451 -18.0898l8.43555 -8.04688l8.47266 -7.07617q10.3721 -8.1123 16.542 -11.7168q6.1709 -3.60645 15.7109 -7.81445l26.7188 -11.5898q20.0488 -8.44824 38.2949 -12.9619l50.0088 -10.4639l14.4453 -2.44238q6.74023 -1.2041 18.249 -4.5127l23.8828 -9.5498
l23.8174 -11.4883q19.0811 -8.41699 26.6182 -14.4932l36.958 -23.5703l11.4062 -6.21094q13.3438 -6.27832 21.5166 -8.01758q8.17285 -1.7373 25.5879 -2.3457l4.83789 -0.167969l2.18555 34.7969l1.74316 22.2178q0.0673828 1.93555 2.53809 3.30469
q2.46973 1.36621 4.36914 0.331055q1.90332 -1.03613 14.5459 0.460938q12.6475 1.49414 18.5205 3.22656q3.90527 0.833984 4.83594 -0.167969q0.93457 -1.00195 2.38672 -1.05176q1.45117 -0.0507812 2.33398 -2.50293q0.882812 -2.45312 -0.445312 -26.624
q-1.3291 -24.1729 -3.64746 -62.8408q-1.47461 -14.4775 -2.21777 -35.7637l-1.02441 -57.1201q-1.31934 -37.7324 -1.24609 -63.4053q0.0703125 -25.6738 1.62207 -64.4756q1.29395 -18.4521 0.584961 -38.7705q-0.708984 -20.3193 -2.22852 -22.2021
q-1.51953 -1.88379 -2.35254 2.01953l-3.6084 63.0918q-1.62012 36.8682 -2.20801 61.5908q-0.589844 24.7227 0.625977 59.5537q0.856445 52.2812 1.41406 68.2461q0.558594 15.9619 3.8457 54.5977l3.96094 57.9834l-7.77344 -0.697266
q-15.582 -2.36035 -23.2891 -1.12305l-3.87012 0.135742l-0.37207 -10.6436q-1.50781 -15.4463 -1.88477 -40.1357q-0.378906 -24.6895 -0.953125 -41.1367l1.60352 -148.269l3.30371 -71.8018l0.719727 -34.8975q-0.642578 -18.3857 0.393555 -16.4844l7.77344 0.698242
q12.6465 1.49512 16.5166 1.35938q3.87012 -0.133789 3.78613 -2.55273q-0.0859375 -2.41992 -2.03613 -2.83398q-1.95312 -0.416992 -9.72754 -1.11426q-25.2227 -1.05566 -21.2178 2.67773q1.03516 1.90234 1.06934 2.86914l-1.25879 19.418l-1.99023 26.2256
q0.134766 3.86914 -0.817383 4.38672q-0.951172 0.518555 -5.85449 -1.24805q-14.6826 -4.33008 -34.1689 -7.52539q-19.4844 -3.19336 -38.9043 -4.4541l-24.2539 -1.08984q-15.5488 -1.39355 -39.3877 -4.4375q-23.8408 -3.04199 -37.4883 -5.47168l-44.7422 -5.2168
l-37.0361 -6.45801l-24.3232 -3.02441l-10.7119 -1.56445q-14.6152 -2.39453 -34.2178 -8.97559q-19.6035 -6.58203 -34.2012 -8.49316q-14.5967 -1.91113 -30.9785 0.59668zM380.824 368.851q10.709 1.5625 25.3926 5.89453q9.80859 3.5332 21.5205 6.02832
q11.7119 2.49707 32.166 5.65723l25.3594 4.92773q16.582 3.2959 37.0029 5.48828l101.231 13.9023q8.74023 0.664062 17.4814 1.32715l28.1611 1.92188q21.3877 2.16016 40.3896 5.37109q19.001 3.21094 31.7158 6.64258l4.90234 1.76465l-3.16895 75.6719
l-2.86523 84.3789l-0.831055 87.2109l-10.6406 0.373047q-14.5137 0.507812 -22.6689 2.72852q-8.15723 2.22168 -20.5342 8.4668l-11.4395 5.24316l-38.8252 25.5723q-4.70117 4.04004 -28.5176 15.5283q-5.70508 3.10547 -11.4092 6.21094
q-14.2422 8.24805 -31.5225 12.7246l-13.4102 4.34473l-6.77344 0.234375q-8.67383 1.27246 -13.4775 2.40918l-52.877 11.5342q-16.3467 3.47559 -38.7969 12.4951q-22.4502 9.0166 -36.6924 17.2646q-7.57129 5.1084 -17.96 12.7354q-10.3896 7.62891 -15.9922 13.6367
l-11.2393 11.0479q-7.4707 8.00977 -12.1885 11.5664q-4.71973 3.55664 -15.127 10.6992l-5.6709 4.07324l-17.7402 19.0254l-8.4707 7.07715q-8.47168 7.0752 -14.0918 12.6006q-5.61816 5.52344 -3.76758 3.03809q1.84961 -2.48828 2.71582 -5.4248l1.66602 -7.80762
q0.797852 -4.87012 -0.338867 -9.6748q-9.58789 -24.8516 -32.043 -29.8799q-4.87012 -0.799805 -13.5781 -0.496094q-8.70703 0.304688 -12.5439 1.40918q-28.7568 8.75293 -37.96 22.6367q-4.60059 6.94238 -1.10156 -3.83594q0.763672 -5.83984 2.09766 -9.27539
q1.33203 -3.43848 3.13379 -7.37598q1.80078 -3.9375 4.60059 -6.94141l8.33691 -10.9463q9.26855 -11.9482 13.8701 -18.8906l16.7402 -19.959q8.36914 -9.97949 17.2402 -19.4922q8.87109 -9.51074 15.4756 -14.5859l7.53613 -6.07617l25.3125 -24.1328l15.0088 -14.085
l22.4766 -22.0986q7.50488 -7.04199 12.0703 -14.9512q4.56934 -7.91016 5.36523 -12.7803l0.834961 -3.9043q-0.0673828 -1.93359 -1.17188 -5.77148q-1.10156 -3.83691 -1.54102 -16.4131q0.425781 -15.5156 -1.89648 -26.5762q-2.3252 -11.0566 -7.71875 -26.8525
q-5.39551 -15.7959 -6.49805 -19.6318q-0.101562 -2.90332 -1.03418 -1.90039q-0.935547 1.00098 1.27148 8.67383q2.2041 7.67188 6.49805 19.6299q4.29102 11.959 6.03027 20.1318q1.73926 8.17383 2.14453 19.7852l0.371094 10.6426q0.0673828 1.93555 -0.932617 1.00098
q-4.00684 -3.73438 -8.14551 -11.3398l-18.4639 -29.3857q-5.1416 -8.53906 -11.9043 -21.8643q-6.76172 -13.3242 -11.9727 -23.8008l-8.34863 -17.1455q-0.0332031 -0.96582 -1 -0.931641q-0.966797 0.0322266 1.13477 4.80371l9.45312 20.9814
q4.14062 7.60449 3.17285 7.63867l-20.1494 5.54688l-11.4414 5.24414l-5.80566 0.203125q-16.4473 0.573242 -30.4668 -12.501q-8.00977 -7.46973 -15.1895 -18.8428q-7.17773 -11.3721 -10.4512 -21.915l-1.10449 -3.83594q-0.0322266 -0.967773 -1.4668 -0.43457
q-1.43359 0.536133 1.27148 8.67676q2.70703 8.13672 6.84668 15.7432l2.06934 3.80176l-1.86621 2.00195q-4.63477 5.97461 -8.4043 9.01367q-6.60254 5.07422 -18.0117 11.2852q-11.4062 6.20898 -19.0811 8.41602l-17.2471 5.44531q-16.3105 4.44336 -23.5508 5.18262
q-7.24023 0.735352 -9.25977 -1.61523q-2.01953 -2.35156 -1.41895 1.01855q0.604492 3.36816 7.89355 4.08203q7.29199 0.71582 15.9658 -0.555664q3.80078 -2.07129 1.06934 2.87012q-6.33398 12.8135 -12.3535 20.7734q-6.01855 7.95801 -20.0576 22.0107
q-10.2725 11.0156 -16.46 14.1357q-6.1875 3.12402 -13.9619 2.42578q-1.93457 0.0683594 1.03711 1.90234q2.96777 1.83301 11.6426 0.5625q2.86816 -1.06934 3.36914 -0.601562q0.500977 0.464844 1.57031 3.33398q1.54199 16.415 -4.72363 31.1641l-4.40039 12.7461
l-7.79395 26.4287q-1.7002 6.84082 -6.24902 15.2344q-4.55078 8.3916 -9.21973 13.4004l-9.43945 7.10938q-5.63477 5.04004 -10.3721 8.11035l-8.70801 0.303711q-6.77148 0.237305 -10.6924 -1.07715q-3.92188 -1.31836 -8.39453 -4.55176
q-4.47168 -3.23438 -6.50879 -6.06934q-2.03613 -2.83496 -3.20605 -8.60547q-1.16992 -5.77148 -1.69434 -20.7676q-0.523438 -14.998 0.972656 -27.6426l0.494141 -13.582q1.39551 -15.5469 4.72559 -31.1631l3.29492 -16.5811l6.82812 -26.3945
q0.797852 -4.87207 2.49707 -11.7129l14.2988 -34.4062q5.33203 -13.7461 9.36426 -23.0898t11.333 -22.1914q6.40234 -10.8779 15.7744 -19.9258q9.37109 -9.04492 29.2822 -21.3652l11.4092 -6.20898q6.63672 -4.10742 13.2744 -8.21387q15.1084 -11.1836 36.04 -22.0889
q20.9307 -10.9004 40.0449 -18.3486l8.57324 -4.17383l10.5068 -4.24219q16.1768 -8.31445 20.4141 -11.8535q4.23438 -3.53809 9.45508 -6.62598t14.7607 -7.29785l11.4424 -5.24121q7.60449 -4.1416 17.2275 -5.92969q9.62598 -1.79004 18.3672 -1.125
q5.83887 0.763672 27.2939 4.8584l24.4248 5.92773q2.93652 0.864258 5.35449 0.782227q2.41992 -0.0859375 1.38379 -1.98535q-2.03613 -2.83691 -31.3652 -10.5303q-10.7461 -2.5332 -18.5195 -3.22852l-11.6777 -1.5293q-3.9043 -0.833984 -6.80664 -0.732422
l-2.90332 0.101562l1.90137 -1.0332q3.70312 -4.97363 14.1592 -10.667q10.458 -5.69238 18.6318 -7.43066q8.17285 -1.74023 19.2988 -2.12793q11.1279 -0.388672 19.8691 0.275391zM225.068 569l6.07617 7.53906q5.97363 4.63379 -0.495117 13.5781
q-2.76758 3.97168 -7.91992 8.99512t-7.10547 4.60938q-1.95117 -0.417969 -1.91797 0.549805t-12.3076 8.17969q-14.2764 7.2793 -22.415 9.98438q-8.13867 2.70703 -12.5615 0.922852q-4.42188 -1.78223 -6.83984 -1.69727q-2.41992 0.0839844 -0.416992 1.95117
l7.87695 3.60059q2.96777 1.83301 -2.11133 22.8389q-5.07812 21.0049 -12.3779 33.8516q-6.43652 9.91113 -10.168 13.918q-3.7373 4.00586 -11.8262 8.16211q-8.08789 4.15723 -2.2832 3.9541l0.966797 -0.03125l2.30566 10.5723q2.24023 8.64062 1.64453 19.3184
l-1.46094 13.6123q0.203125 5.80566 -5.02832 22.457l-3.49902 10.7783q-0.832031 3.90332 -3.63379 6.90625l-4.60156 6.94336q-6.43457 9.90918 -11.1377 13.9512q-4.70117 4.03809 -19.0469 9.38184q-8.6377 2.23926 -16.9473 0.106445
q-8.30859 -2.13086 -11.4131 -7.83398l-2.1377 -5.7373l-2.51074 -16.3799q-1.06934 -2.86914 -1.10352 -3.83789q-0.0332031 -0.96582 1.86914 -2.00195l11.3389 -8.14355q18.0117 -11.2881 24.04 -32.8086l13.9609 -44.0811q2.63281 -7.84082 3.26074 -17.5488
q0.629883 -9.70996 -1.47266 -14.4805q-2.10352 -4.77051 1.69727 -6.83984l8.47266 -7.07715q15.041 -13.1191 22.9111 -23.5654q7.86914 -10.4453 15.1025 -25.2275q1.73145 -5.87598 2.69824 -5.9082l11.5439 -2.34082q8.63965 -2.23926 13.8945 -4.35938
q5.25293 -2.12207 17.5947 -9.33301q6.67188 -3.13965 13.7246 -9.19629q7.05469 -6.05957 9.82227 -10.0303l0.900391 -1.96973zM238.153 583.074q8.01074 7.4707 19.7383 10.4502q11.7295 2.98242 22.2363 -1.26074l4.77148 -2.10352q0.966797 -0.0341797 2.00195 1.86719
l1.96973 0.900391l-1.86816 2.00391q-7.50293 7.04102 -15.042 13.1172q-7.53613 6.07422 -12.3066 8.18066q-23.749 13.4209 -31.2324 -6.66016q-1.10156 -3.83496 -1.53418 -2.36816q-0.433594 1.46777 1.16992 5.77246q1.60352 4.30371 4.10547 6.63672
q2.50391 2.33301 1.6377 5.27148l0.168945 4.83691q-0.697266 7.77539 -5.57812 20.5381q-4.88477 12.7637 -14.0518 27.6143q-4.60254 6.94238 -11.6572 13q-7.05176 6.05957 -13.2236 9.66406q-6.16992 3.60645 -5.50684 -5.13379l-1.2041 -6.73926l-1.2041 -6.73926
q-1.10254 -3.83691 -1.13574 -4.80371q-0.0351562 -0.96875 2.80078 -3.00488q5.63574 -5.03906 13.0557 -14.502q7.41895 -9.45996 10.9854 -18.3057q1.7998 -3.93652 4.36523 -13.7139l4.19629 -18.5527l2.80078 -3.00195q16.0771 -11.2188 17.6064 -22.8965
q-0.101562 -2.90332 1.93457 -0.0673828zM310.922 586.346q0.0332031 0.967773 0.0664062 1.93652l1.03613 1.90039l-19.2822 2.6084l-2.97168 -1.83203q-3.93652 -1.79883 2.80273 -3.00391l8.63867 -2.23926l5.73828 -2.13867q0.898438 -1.96875 3.97168 2.76855z
M212.042 612.08q-0.798828 4.87012 -3.83105 15.1465q-3.03027 10.2783 -4.86328 13.248q-6.2998 13.7812 -14.1875 23.7441q-7.88672 9.96289 -13.6572 11.1348l1.58691 3.81836q1.58594 3.81934 3.23828 9.5752q1.65625 5.75391 1.8916 12.5264l-0.59668 10.6768
q-1.85449 30.0938 -8.98535 47.7812q-4.5 9.84375 -9.60156 16.3184q-5.10156 6.47559 -8.90527 8.54492q-3.80176 2.07031 -10.541 3.27441q-6.73828 1.20508 -12.0439 1.87402q-5.30371 0.668945 -3.46973 -2.30176l7.62598 -31.2627q0.663086 -8.74219 0.172852 -22.7734
q-0.489258 -14.0283 -2.7627 -23.6357q-1.03418 -1.90039 3.25098 -3.9873q4.28613 -2.08691 7.57227 -5.10938q3.28516 -3.02051 8.35156 -10.4629q5.06738 -7.44141 6.83594 -12.3477q1.76562 -4.90625 6.19727 -16.6865q5.19629 -17.6162 4.72363 -31.1621
l-0.0664062 -1.93457l1.93555 -0.0683594q5.80469 -0.202148 15.8281 -4.42773q10.0264 -4.22559 21.3994 -11.4023l3.80176 -2.07129zM635.475 642.822q0.0341797 0.96582 0.0673828 1.93262q2.07031 3.80469 0.439453 12.5801q-1.62793 8.77539 -6.13086 18.6191
q-2.66406 6.87402 -1.69824 6.83984q1.96875 0.901367 5.91797 -10.8613q3.94629 -11.7617 3.62598 -20.9541q-0.322266 -9.19141 -2.22168 -8.15625zM553.302 647.628q2.20605 7.67285 -3.95898 25.3262q-2.66504 6.87402 -0.765625 5.83887
q3.80469 -2.07031 6.21582 -16.2002q2.41406 -14.1318 -1.52539 -15.9316q-1 -0.933594 0.0341797 0.966797zM288.395 801.219q1.13477 4.80273 11.167 14.625q10.0303 9.82031 13.9004 9.68457q3.86816 -0.134766 -2.07129 -3.80176q-5.94043 -3.66797 -12.9658 -10.6875
q-7.02539 -7.02148 -8.09473 -9.8877q-1.07031 -2.87012 -1.93555 0.0673828zM273.217 810.467q0.238281 6.77344 8.23145 13.7578q7.99316 6.9873 16.8027 9.58496q5.80566 -0.203125 1.80078 -3.93945l-5.90625 -2.69824q-10.8125 -4.46582 -17.958 -14.873
q-3.07227 -4.73535 -2.9707 -1.83203zM247.613 853.984q15.583 2.36035 23.1943 12.2676q7.61035 9.90625 9.81543 17.5781q1.06934 2.86816 0.270508 7.74121l-0.696289 7.77344q0.0673828 1.93359 -2.7002 5.90723l-2.73535 4.93848q0.0351562 0.966797 -5.16797 4.53906
q-5.2041 3.57324 -13.7422 8.71484l-4.73633 3.07227q-2.83496 2.03613 -8.10645 3.6709q-5.26953 1.6377 -8.13867 2.70801q-14.2412 8.24512 -28.043 1.46191q-13.7988 -6.78223 -21.1787 -23.9629q-2.17188 -6.70605 -2.375 -12.5098l1.42871 -14.5801l0.899414 -1.96875
q9.23633 -12.915 26.8828 -20.7979q17.6445 -7.88184 35.1289 -6.55371z" />
</svg>
