<?xml version="1.0" standalone="no"?>
<!DOCTYPE svg PUBLIC "-//W3C//DTD SVG 1.1//EN" "http://www.w3.org/Graphics/SVG/1.1/DTD/svg11.dtd" >
<svg xmlns="http://www.w3.org/2000/svg" xmlns:xlink="http://www.w3.org/1999/xlink" version="1.1" viewBox="-10 0 868 1024">
   <path fill="currentColor"
d="M68.1357 299.515q-16.2852 5.43652 -25.4795 13.5615q-4.7373 12.1826 -8.05273 87.4883q-3.31445 75.3066 -0.601562 122.509q8.26074 88.2393 20.2422 136.83q11.9834 48.5908 18.1475 51.4258q8.02441 2.54004 17.6846 3.39062q9.66211 0.851562 15.873 -2.03809
q11.0049 -2.69434 13.1309 -7.31836q2.12402 -4.62402 -0.571289 -15.6279l-9.36523 -47.1006l5.72266 0.0458984q12.2295 -0.984375 31.0127 0.328125q18.7842 1.31152 29.7422 4.33789q4.94141 1.12402 11.792 5.27832q6.84863 4.15527 12.8203 11.7822l17.4727 20.0957
q3.37695 3.27637 5.67676 5.76953l14.4365 12.9561q11.0586 9.67871 28.2832 22.1924l29.0654 21.1172q22.6074 16.4258 33.8604 21.3105l26.3701 10.1152l17.0762 11.584q13.9941 10.167 23.8301 18.1367l15.0723 10.9492q3.37598 3.27539 10.2754 10.7559l12.7256 14.1787
l22.3672 26.9424l12.4297 12.3213l23.5908 28.6514q5.8252 6.7002 13.3135 17.8975l7.63672 12.127q9.93652 14.6211 19.3311 19.8018q2.15332 1.56445 6.70312 3.22461q4.5498 1.66113 11.2021 1.56055q9.29395 -1.47168 13.5713 -4.53125
q4.2793 -3.05957 8.04297 -9.37207q9.0918 -14.7754 9.52344 -30.0859q0.432617 -15.3115 -6.76953 -42.75l-4.65625 -17.3604q-1.8125 -5.42969 -3.33105 -9l-3.47656 -9.92773q-3.33105 -9 -7.14941 -15.0635q-3.81836 -6.0625 -8.41797 -11.0508
q-3.37695 -3.27441 -7.04883 -8.41016q-1.51758 -3.57031 -4.74707 -5.91602l-7.83008 -7.33301q-11.0596 -9.68066 -21.4111 -20.9014q-10.3496 -11.2217 -14.3154 -18.2139q-6.41211 -10.415 -9.05762 -18.0938t-4.11719 -16.9727l-1.61914 -10.2217l1.02148 -11.5938
q1.27148 -4.01172 5.96289 -10.4707l23.4629 -32.2949q5.62305 -6.60645 13.3467 -14.9746q7.72656 -8.36719 10.7803 -13.1387q3.05566 -4.77051 3.91113 -5.38379q0.856445 -0.610352 5.01465 1.58789q14.335 6.30371 29.8662 8.13086t29.4707 -0.380859l7.43359 -1.17773
l10.6191 6.89258q16.4414 13.5898 23.292 17.7441q6.84961 4.15527 13.1855 5.05664q6.33496 0.902344 15.3096 0.432617q8.97656 -0.46875 17.1934 -2.72266q0.929688 -0.146484 1.0752 0.782227q0.101562 6.65234 4.48633 19.2939q4.38379 12.6436 11.3857 26.7754
q4.1123 7.92285 7.70898 12.5938q3.59863 4.66895 6.38574 4.22754q2.78711 -0.442383 -3.61621 7.24121q-3.91016 5.38184 -6.50098 10.0791q-2.59082 4.69629 -5.91211 13.7969l-4.59082 13.1123q-2.6875 7.09277 -2.07129 16.999q0.616211 9.9043 3.79883 17.9736
q1.37109 2.64258 1.66602 4.5l-0.829102 6.79883q-0.0927734 11.4463 4.46191 22.1572t11.6484 13.3955q12.1826 4.73926 20.3994 2.48633l5.42773 -1.8125q2.78906 -0.442383 13.25 -12.5781q3.12891 -4.30566 4.57324 -1.2002q1.44531 3.10547 8.48828 2.46582
q7.04297 -0.638672 12.1543 -1.44824t5.89355 -1.88574l1.71094 -1.22363q1.71191 -1.22461 3.88379 -11.5713q2.17188 -10.3457 1.70215 -19.3213q-0.46875 -8.97754 0.801758 -12.9883t5.32715 -8.46387q5.76953 -5.67773 8.87012 -16.1719
q3.10254 -10.4932 6.85645 -34.9043l5.66016 -30.4258q5.51172 -31.3584 5.77441 -44.7363q0.263672 -13.3789 -4.64062 -38.3232l-3.78027 -29.8857q-1.47266 -9.29297 -1.86719 -17.8037l-0.249023 -7.58105l-1.76562 -11.1523q-2.06055 -13.0117 -3.65332 -17.0459
q-1.59082 -4.03418 -4.96777 -7.31055q-3.37793 -3.27441 -6.06738 -5.23047q-2.69141 -1.95508 -7.92676 -4.93652l-55.2891 -30.3008q-4.15918 -2.19922 -6.01758 -1.90527l-14.9707 -4.29688q-4.01074 -1.27051 -11.1055 -3.95703l-54.4502 -19.002l-17.418 -7.71973
q-13.2588 -5.52148 -28.1816 -15.542l-15.8535 -9.87207l-5.67676 -5.77051q-11.3545 -11.5391 -23.3906 -15.3477q-12.0342 -3.81055 -31.5498 -0.719727l-43.1904 3.9834q-16.2393 -0.286133 -29.7646 -1.47754q-13.5264 -1.19238 -40.7236 -4.50586l-57.332 -7.11426
q-10.6641 -1.16797 -16.5342 -2.14355l-30.5752 -6.58887q-20.8418 -5.27344 -45.0303 -7.63477q-24.1895 -2.36035 -49.7227 -1.17383l-77.8223 1.84668l-37.9092 1.24121l-10.8115 -2.09766l-0.165039 -37.1279q0.71875 -31.5508 -0.165039 -37.125zM77.4834 310.419
q-0.0458984 5.72266 -0.746094 73.4697q-0.702148 67.749 6.27832 141.899q10.3672 95.5283 18.4814 134.729q8.11426 39.2012 8.4082 41.0605q-1.12207 4.94043 -15.748 5.82812q-14.624 0.886719 -17.707 -0.530273q-0.929688 0.148438 -11.3213 -44.4082
t-17.6279 -144.39q-4.69141 -89.7568 -0.851562 -143.712q3.83691 -53.9541 4.9375 -56.0352q1.09961 -2.0791 13.0332 -4.9209q11.9346 -2.84375 12.8633 -2.99023zM121.297 382.548q16.0928 -0.644531 40.8438 -0.753906l57.083 -0.46875
q19.8105 -1.23242 43.5361 1.20312q23.7246 2.43457 42.4121 6.14258l37.375 7.41895q5.87012 0.974609 16.6816 3.07227l97.835 10.2266q7.72754 0.680664 26.7559 0.524414l25.3857 -2.11523q28.9561 -3.63379 38.3965 -4.17676q9.44043 -0.541992 14.6768 2.43945
q4.1582 2.19824 10.0791 6.50098q5.9209 4.30078 10.374 8.35938l5.5293 4.83984l29.7002 19.1123l10.4707 5.96094l12.1826 4.73926l19.4238 8.35547q13.1104 4.59277 16.0459 5.08008l44.2754 14.8984q18.9814 5.56543 20.3535 8.20703l3.37695 3.27637
q6.45801 4.69141 20.3604 26.3066q20.7559 34.8164 32.5107 63.916q11.7529 29.0986 12.248 44.2617q-0.827148 6.80078 -4.26855 21.1592q-3.44336 14.3564 -7.25098 26.3926q-2.54004 8.02344 -4.29785 14.9707l-1.61133 7.875q-0.633789 2.00684 -1.71191 1.22461
q-7.87402 -1.61035 -19.0176 18.2529q-4.25195 9.24805 -7.64648 17.8828q-3.39648 8.63672 -1.39062 9.26953q2.00586 0.635742 4.5459 -7.3877l6.30273 -14.3359q3.46875 -8.1709 8.38281 -13.2344q4.91309 -5.06543 6.38184 -4.82129q1.4668 0.244141 -0.681641 7.72852
q-2.14844 7.48535 -6.10547 18.5918l-2.68652 7.09277q0.146484 0.929688 -1.80859 3.62012q-1.95508 2.69141 -2.7373 3.76855q-5.91699 4.74707 -13.499 4.99609q-7.58203 0.248047 -12.6689 -1.80469q-14.2891 -12.0254 -15.6602 -14.666
q-9.49512 -11.833 -8.2334 -33.9434q0.176758 -40.9902 18.0723 -54.3057l8.55762 -6.11816q1.71094 -1.22266 5.03711 -1.27344t4.03516 -1.5918q0.708008 -1.54102 -4.86719 -0.658203q-5.57617 0.882812 -10.3203 4.0166q-4.74219 3.13281 -6.74805 2.49707
l-3.86426 -0.34082q-5.72363 -0.0449219 -9.34375 -1.85352q-3.62109 -1.80762 -8.0752 -5.86621q-6.89941 -7.47949 -5.00293 -31.5977l2.13477 -34.6318q0.339844 -3.86426 -2.44629 -3.42188q-2.78809 0.441406 -4.93359 16.9756q-0.239258 10.5156 -1.41113 12.1309
q-1.17383 1.61426 -5.96777 1.42188q-30.5205 5.78613 -66.3857 -16.1592q-6.31152 -3.76367 -8.16992 -3.46875q-3.71777 0.588867 -0.046875 5.72168l1.22363 1.71191l-6.99219 3.96582l-11.6396 4.7002q-11.4932 5.63184 -20.8594 6.6377
q-9.36719 1.00879 -22.8184 0.28125q-13.4521 -0.728516 -12.082 1.91309q-0.633789 2.00586 1.7627 2.10254t10.125 0.77832q17.3174 1.06836 30.1064 -2.38672t28.4863 -12.6094q4.20508 -3.52344 5.67383 -3.28027q1.46777 0.244141 5.77344 3.37207
q15.8535 9.87402 34.3926 12.6533q18.541 2.7793 32.8203 -3.29395q3.57031 -1.51758 4.18262 -0.662109q0.611328 0.855469 -0.364258 6.72559q-1.74902 25.0459 7.84375 34.4814q9.59082 9.43652 19.9609 8.74707l2.78711 -0.442383l-3.12793 4.30762
q-14.8594 20.4541 -12.1016 61.9307q0.542969 9.44043 -6.67969 -6.08594q-7.22168 -15.5273 -16.8721 -46.3877q-0.442383 -2.78809 -0.736328 -4.64746q0.533203 -8.65723 -0.69043 -10.3691q-1.22363 -1.71094 -3.90918 5.38281l-0.635742 2.00586l-4.79395 -0.194336
q-8.36426 1.32617 -18.0986 0.00976562q-9.73535 -1.31641 -16.5107 -5.00684q-6.77734 -3.68848 -19.8418 -14.0039q-7.68359 -6.4043 -12.3799 -8.99414q-4.69727 -2.59082 -5.84863 -3.83789q-1.14941 -1.24609 -1.51758 -3.57031q-0.368164 -2.32227 -1.29688 -2.17578
q-0.928711 0.147461 -0.487305 2.93555q0.44043 2.78809 -0.805664 3.9375q-1.24609 1.15137 -7.75195 2.18066q-6.50586 1.03027 -10.9082 0.298828q-4.40137 -0.731445 -17.1455 -3q-12.7432 -2.26758 -21.9912 -6.52051q-9.24609 -4.25 -26.1758 -14.9072
q-7.53613 -5.47363 -11.4746 -6.2793q-3.93652 -0.804688 -5.03711 1.27441q-1.09961 2.0791 0.735352 4.64746q1.83594 2.56641 10.8389 8.28418q9.00391 5.7207 10.2266 7.43066q1.22461 1.71191 -0.486328 2.93652l-22.7842 24.5645l-11.7305 16.1494l-18.4766 27.6943
q-3.91211 5.38281 -3.02832 10.959l0.542969 9.44043q0.100586 6.65234 1.57227 15.9453l1.7666 11.1504q2.40137 9.14746 9.74316 19.416q7.34277 10.2676 15.6143 20.3896l11.3525 11.5391l11.3555 11.5381q8.90527 8.11523 12.5039 12.7852
q3.59668 4.66895 5.89648 7.16211q4.4541 4.05957 7.58691 8.80078q3.13184 4.74512 6.02148 10.9561l4.99609 13.498q2.59375 4.35156 3.33008 8.99805l9.31055 34.7246l1.61816 10.2236q2.20801 13.9395 0.0371094 24.2852q-2.17188 10.3477 -9.06445 20.9648
q-3.12891 4.30664 -8.875 7.12207t-9.75684 1.54492q-1.07715 -0.782227 -2.4707 -0.560547q-1.39355 0.220703 -3.39941 -0.415039l-6.3125 -3.76367q-9.24707 -4.25 -18.1074 -18.0889l-13.9014 -21.6152l-29.709 -37.209l-6.90137 -7.48145
q-5.53027 -4.83887 -11.3535 -11.5381q-20.2139 -25.376 -33.7949 -38.9443t-31.7334 -25.9346l-10.7656 -7.82031l-12.7705 -8.45801q-7.53516 -5.47363 -13.7734 -8.77344q-6.23926 -3.29785 -19.3506 -7.89062q-8.16992 -3.46777 -22.4082 -12.167
q-14.2393 -8.70215 -26.2266 -18.2344l-14.1416 -11.0967q-17.0781 -11.585 -32.1992 -25.8604q-15.1211 -14.2764 -18.6455 -18.4814l-17.4727 -20.0967q-5.67676 -5.76855 -10.4473 -8.82324q-4.77148 -3.05566 -12.6465 -4.66602q-12.0352 -3.80859 -32.2871 -5.36523
q-20.252 -1.55469 -33.5566 -1.35254l-4.64551 0.736328l-7.21289 -45.5371q-5.00488 -31.5957 -7.50684 -47.3945q-3.44043 -33.75 -4.0918 -67.9414l-0.771484 -77.041l1.65723 -13.5996l2.78809 -0.442383zM734.308 499.797q-4.5459 7.3877 -3.22461 6.70312
q1.31934 -0.685547 4.375 -5.45605q3.05469 -4.77051 3.22559 -6.70312q0.169922 -1.93164 -4.37598 5.45605zM778.289 512.836q5.08691 2.05176 9.39453 5.18164l7.3877 4.54492q5.23535 2.98145 6.16406 2.83496q0.929688 -0.148438 1.07812 0.78125l2.2998 2.49316
q2.15234 1.56445 3.72168 8.46094q1.56738 6.89648 2.11035 16.3379l1.96875 24.4561q0.394531 8.50977 2.89746 24.3096q2.50195 15.7979 5.3457 27.7314q2.8418 11.9346 1.72363 25.9248t-7.7998 56.0117q-4.58301 31.209 -7.21973 41.6289
q-2.63574 10.4199 -5.22656 15.1182q-2.59082 4.69727 -6.18359 9.07617q-3.59277 4.38086 -5.84277 5.21191q-2.25 0.833984 -8.26367 7.97852q-6.0127 7.14453 -9.48145 15.3145q-2.83496 6.16406 -10.7285 16.4648q-7.89453 10.2998 -7.67383 11.6943
q0.220703 1.39355 -3.98438 4.91797q-4.20508 3.52344 -5.91699 4.74805l-4.5 1.66504q-6.20996 2.8877 -13.6943 0.739258q-7.48633 -2.14844 -11.1562 -7.28223q-1.66602 -4.49902 -4.23828 -11.7139q-2.57031 -7.21289 -3.30664 -11.8594l-0.736328 -4.64648
l4.30664 3.12891q6.31152 3.7627 10.8613 5.42285q4.5498 1.66113 11.5938 1.02344q7.04395 -0.640625 12.3477 -6.24414q5.30566 -5.60352 16.5957 -24.5391q4.39844 -8.31738 8.89355 -19.0322q4.49512 -10.7129 3.90625 -14.4316q-0.148438 -0.928711 2.58984 -4.69629
q2.7373 -3.76855 4.71582 -9.32129q1.97852 -5.55371 2.31836 -9.41699l8.40137 -25.1465q2.83496 -6.16504 4.51855 -13.5762t5.98047 -22.3809q2.6875 -7.09473 5.4209 -19.9111q2.7334 -12.8174 4.49121 -19.7637q0.726562 -13.4531 -8.5791 -39.1289t-26.5391 -56.2881
l-7.00195 -14.1328q-6.70703 -12.2754 -12.5312 -18.9736l-1.51855 -3.56934zM740.132 506.496q-2.34668 3.22949 -2.05078 5.08789q0.292969 1.8584 2.49219 -2.30078l4.20508 -3.52246q0.782227 -1.07715 0.561523 -2.4707q-0.22168 -1.39355 -5.20801 3.20605z
M500.139 573.086q-0.78418 1.07715 2.05566 3.96094q2.83887 2.88477 2.49707 6.74902q-0.34082 3.86523 -3.02832 10.959q-2.19824 4.1582 -11.3672 9.42188q-9.16895 5.2627 -14.5977 7.0752l-24.502 7.69141q-5.57617 0.882812 -18.7344 2.01367l-29.1025 2.70508
q-29.1035 2.70312 -57.5215 6.72754q-28.4189 4.02539 -30.667 4.8584q-2.25 0.833008 3.47266 0.87793l79.7285 -7.86328q30.1787 -1.92188 49.1572 -5.4043q18.9766 -3.48242 34.333 -8.77344q6.35938 -1.95801 16.0146 -10.1562q9.65723 -8.19824 10.8262 -18.8623
q0.194336 -4.79297 -2.86523 -9.07324q-3.05957 -4.27734 -5.69922 -2.90723zM797.914 534.497q-4.20605 3.52246 -2.3457 3.22949q1.8584 -0.295898 3.95996 -2.05664q2.10352 -1.7627 2.34766 -3.22852q0.243164 -1.46875 -3.96191 2.05566zM788.959 628.319
q-4.64746 0.737305 -3.57031 1.51855q1.07715 0.782227 7.11621 -0.174805q6.04102 -0.956055 6.82324 -2.0332q0.78125 -1.07617 -3.00879 -0.952148q-3.79004 0.125 -7.36035 1.6416zM787.302 641.918q-1.56348 2.15332 3.08105 1.41797
q4.64746 -0.735352 3.57129 -1.51758q-1.07715 -0.782227 -3.40039 -0.414062q-2.32129 0.368164 -3.25195 0.513672zM402.427 720.024q-12.1279 7.6377 -26.5771 15.6416q-14.4512 8.00488 -25.1611 12.5586q-4.35254 2.59375 0.293945 1.8584
q10.0752 -2.54785 32.5957 -13.7363t26.4297 -16.5703q2.05273 -5.08789 -7.58105 0.248047zM450.806 724.746q-24.9355 23.002 -37.3574 28.7803q-4.35156 2.59473 -15.4307 4.8252q-11.0781 2.23047 -18.6592 2.47852q-5.72266 -0.0449219 -5.57617 0.883789
q-1.26953 4.01172 7.09473 2.68555l25.8721 -5.0498q5.42969 -1.81055 8.07031 -3.18262q9.63379 -5.33594 26.9932 -19.041q17.3564 -13.7041 18.7744 -16.7871q-1.22363 -1.71094 -2.15332 -1.56348zM722.091 729.41q2.2998 2.49414 3.81836 6.06348l3.6709 5.13477
q3.37695 3.27637 7.29102 6.94238q3.91504 3.66699 6.99902 5.08496l8.16992 3.46777l7.72852 0.681641q6.65234 -0.100586 8.51172 -0.395508q6.21094 -2.88867 -0.240234 10.5166q-4.73926 12.1826 -5.96289 10.4707q-5.08887 -2.05176 -16.4561 7.36914
q-11.3682 9.42188 -17.626 18.0342q-6.25586 8.6123 -4.10352 10.1768q2.15332 1.56348 6.625 -6.28906q4.47168 -7.85352 7.74805 -11.2305l4.2041 -3.52246q4.9873 -4.60059 9.73145 -7.7334q4.74316 -3.13281 7.53027 -3.5752l1.8584 -0.294922l-2.98047 5.23633
q-10.5078 17.8584 -14.8828 23.3145q-4.37598 5.45605 -8.87598 7.12207q-7.28711 2.10645 -10.5166 -0.240234q-3.22852 -2.3457 -4.69629 -2.58984t-5.31055 -3.44629q-3.83984 -3.20215 -5.06348 -4.91309q-2.44824 -3.42285 -4.16309 -11.248
q-1.71582 -7.82617 -1.57324 -15.9453q0.143555 -8.12109 4.66211 -21.6963q4.51758 -13.5762 9.69629 -22.9707q3.4707 -8.16992 4.20605 -3.52441zM789.902 760.586q0.293945 1.8584 2.15332 1.56445q1.8584 -0.293945 3.62109 1.80762q1.76074 2.10352 1.46582 0.244141
q-0.292969 -1.8584 -2.91113 -3.34863q-2.61816 -1.49121 -4.3291 -0.267578zM512.044 822.693q-15.1074 12.873 -17.0625 15.5635q-1.95508 2.69238 -6.16016 6.21484q-6.84668 4.89551 -3.91016 5.38281q0.146484 0.930664 1.8584 -0.293945l23.8125 -18.0605
q2.49316 -2.30078 1.88184 -3.15625q-0.612305 -0.856445 6.86914 -7.75684q1.56445 -2.15332 -0.295898 -1.8584q-1.85742 0.293945 -6.99316 3.96484zM789.966 791.06q-0.976562 5.87012 -0.240234 10.5166q0.248047 7.58301 -1.14062 16.8525
q-1.38965 9.26953 -3.73633 12.499q0.146484 0.929688 -9.14648 2.40137q-7.43359 1.17773 -9.9043 0.617188q-2.47168 -0.561523 -2.91309 -3.34961l-1.36914 -2.63965l3.12695 -4.30762q5.47559 -7.53418 6.7959 -8.2207q1.32031 -0.685547 2.52148 3.8877
q1.2002 4.57324 2.64355 7.67773q1.44531 3.10645 2.44824 3.42383t-0.514648 -3.25293q-1.51855 -3.57031 -2.86621 -9.07227q-1.34766 -5.50293 0.216797 -7.65723q1.9043 -6.01562 7.08496 -15.4111q5.18066 -9.39355 7.03906 -9.6875zM754.899 804.235
q-6.55078 6.75293 -11.9023 18.0791q-5.34961 11.3262 -3.66211 12.9658q1.68945 1.63672 2.95801 -2.375q1.9043 -6.01758 6.69336 -14.873q4.79102 -8.85645 8.06641 -12.2344q4.69238 -6.45801 -2.15332 -1.5625z" />
</svg>
