<?xml version="1.0" standalone="no"?>
<!DOCTYPE svg PUBLIC "-//W3C//DTD SVG 1.1//EN" "http://www.w3.org/Graphics/SVG/1.1/DTD/svg11.dtd" >
<svg xmlns="http://www.w3.org/2000/svg" xmlns:xlink="http://www.w3.org/1999/xlink" version="1.1" viewBox="-10 0 738 1024">
   <path fill="currentColor"
d="M671.67 80.0303q6.86035 2.93945 17.6396 3.91992l4.90039 0.979492v295.96l5.87988 74.4805l-7.83984 1.95996q-15.6797 1.95996 -26.46 6.86035l-6.86035 3.91992l0.980469 -18.6201q0.979492 -47.04 1.95996 -80.3604l2.93945 -56.8398
q0.980469 -135.24 -0.979492 -160.72q-0.980469 -10.7803 -1.46973 -39.6904q-0.490234 -28.9102 1.46973 -35.7695zM143.45 362.27q-9.7998 6.86035 -16.6602 16.1709q-6.86035 9.30957 -3.91992 7.34961l9.7998 -9.7998l14.7002 -11.7598q3.91992 -1.96094 2.4502 -3.9209
q-1.4707 -1.95996 -6.37012 1.95996zM245.37 510.25q10.7803 4.90039 23.5195 8.82031l12.7402 4.89941q5.87988 1.95996 6.37012 2.94043q0.490234 0.979492 -12.25 0.979492q-9.7998 0.980469 -14.7002 1.95996q-4.89941 0.980469 -10.7803 2.94043
q-8.81934 2.94043 -16.6592 2.94043q-7.84082 0 -7.84082 1.95996t10.7803 1.95996l5.87988 0.979492q-2.93945 14.7002 -13.2295 35.2803t-20.5801 32.3398t-15.1904 7.83984q-3.91992 -0.979492 -2.93945 0.980469q3.91992 4.89941 11.7598 1.95996
q1.95996 -1.95996 2.94043 -0.980469q0.979492 0.980469 0.979492 4.90039q1.95996 15.6797 -1.95996 27.9297t-4.90039 25.9697q0 4.90039 -1.95996 15.6807q-2.93945 14.7002 -4.89941 29.8896q-1.95996 15.1904 -1.95996 25.9697l-1.95996 39.2002
q-0.980469 16.6602 -4.41016 25.4805q-3.42969 8.81934 -12.25 18.1299q-8.82031 9.30957 -20.0898 10.7803q-11.2705 1.46973 -18.1299 -5.39062q-0.980469 -1.95996 -0.490234 -13.2295q0.490234 -11.2705 1.46973 -14.21l0.980469 -29.4004l4.89941 -34.2998
l10.7803 -55.8604q1.95996 -8.82031 3.42969 -13.2295q1.4707 -4.41016 2.4502 -11.2705l1.95996 -11.7598q0.980469 -2.94043 2.94043 -3.91992q9.7998 -10.7803 18.1299 -27.9297q8.33008 -17.1504 13.2295 -34.79q3.91992 -14.7002 4.90039 -22.54
q0.979492 -7.84082 -0.980469 -11.7607q-0.979492 -1.95996 3.91992 -2.93945q11.7607 -4.90039 22.54 -15.1904q10.7803 -10.29 13.7207 -19.1094q0.979492 -5.88086 2.4502 -6.86035q1.46973 -0.980469 5.38965 1.95996zM194.41 556.31q0.979492 5.88086 -2.94043 21.5605
l-2.93945 9.7998q-3.91992 13.7197 -7.83984 24.0098q-3.9209 10.29 -6.86035 14.21l-9.7998 15.6807q-0.980469 1.95996 -3.91992 2.93945l-11.7607 3.91992q-6.85938 2.94043 -6.85938 3.91992q0 0.980469 5.38965 0q5.38965 -0.979492 11.2705 -3.91992
q0.979492 0 0 3.91992l-5.88086 22.54q-2.93945 10.7803 -5.87988 27.4404q-9.7998 34.2998 -10.7793 35.2803l-5.87988 3.91992q-6.86035 4.89941 -3.43066 4.41016q3.43066 -0.490234 9.31055 -4.41016l2.93945 -2.94043l-0.979492 10.7803
q-1.95996 10.7803 -3.43066 23.0303q-1.46973 12.25 -1.46973 22.0498l-2.93945 29.3994q-0.980469 21.5605 -9.80078 39.2002q-8.81934 17.6406 -19.1094 21.5605t-11.7607 3.91992q-1.46973 0 1.4707 -5.87988l6.85938 -21.5605q2.94043 -6.85938 5.87988 -22.54
q1.96094 -10.7803 3.43066 -14.7002t1.46973 -8.33008q0 -4.40918 0.980469 -9.7998q0.979492 -5.38965 0.979492 -22.0498v-25.4795l-0.979492 -4.90039l2.93945 -2.94043q4.90039 -6.85938 7.35059 -18.6191q2.44922 -11.7607 3.42969 -31.3604l0.979492 -22.54
q0.980469 -10.7803 0.980469 -12.7402l-1.95996 -10.7803l3.91992 -1.95996q4.90039 -3.91992 10.7803 -10.7793q5.87988 -6.86035 8.81934 -11.7607l5.87988 -7.83984q7.84082 -11.7598 9.80078 -20.5801l2.93945 -11.7598l1.95996 -10.7803l0.980469 -8.81934
q0.979492 -4.90039 0.490234 -10.7803q-0.490234 -5.87988 0 -6.37012q0.489258 -0.490234 3.91992 1.46973q3.42969 1.95996 6.85938 1.4707q3.43066 -0.490234 8.33008 -1.95996q4.90039 -1.4707 5.87988 -0.980469q0.980469 0.490234 0.980469 3.42969zM305.15 673.91
q-1.95996 3.91992 11.2695 9.30957q13.2305 5.39062 23.0303 4.41016q2.93945 -0.979492 2.93945 -2.93945t-3.91992 -0.980469q-6.85938 0 -17.1494 -2.94043q-10.29 -2.93945 -13.2305 -5.87988q-1.95996 -1.95996 -2.93945 -0.979492zM297.31 687.63
q0 2.94043 10.7803 8.33008t20.5801 7.34961q5.87988 0.980469 10.7803 0q4.89941 -0.979492 5.38965 -3.42969t-6.37012 -1.46973q-6.85938 0.979492 -21.5596 -2.94043t-19.6006 -7.83984zM183.63 728.79q-7.83984 3.91992 -8.82031 4.90039q-0.979492 0.979492 2.4502 0
q3.43066 -0.980469 7.83984 -3.43066q4.41016 -2.4502 4.41016 -3.91992t-5.87988 2.4502zM281.63 748.39q-9.7998 0.980469 -14.21 2.94043t-8.33008 7.83984q-13.7197 16.6602 -14.7002 34.2998q0.980469 9.7998 2.4502 -0.979492q1.46973 -10.7803 7.83984 -22.54
t13.2305 -15.6807q4.89941 -1.95996 15.1895 -2.44922q10.29 -0.490234 19.1104 1.46973l10.7803 0.979492q3.91992 0.980469 6.37012 1.96094q2.44922 0.979492 6.85938 4.40918q4.41016 3.43066 5.87988 7.84082q1.4707 4.40918 -0.489258 11.2695t0 6.37012
t3.91992 -8.33008q2.93945 -10.7803 -3.91992 -18.6201q-6.86035 -7.83984 -19.6006 -8.82031l-10.7793 -1.95996h-19.6006zM204.7 1069.83q-1.46973 3.91992 -0.490234 2.93945l2.94043 -3.91992q1.95996 -3.91992 1.95996 -5.87988q-2.94043 2.94043 -4.41016 6.86035z
M618.75 399.51q5.87988 -13.7197 3.91992 -26.46q-3.91992 -15.6797 -3.91992 0q0.980469 10.7803 -1.95996 21.5605q-2.94043 10.7793 -8.82031 17.6396l-6.85938 5.87988l-3.91992 2.94043l0.979492 -2.94043q4.90039 -13.7197 4.90039 -36.2598t-4.90039 -19.6006
q-0.979492 0.980469 0 6.86035q1.95996 35.2803 -4.90039 50.96q-2.93945 5.87988 -7.83984 13.7197q-3.91992 6.86035 -2.93945 3.9209q4.89941 -10.7803 3.91992 -21.5605q0 -9.7998 -6.86035 -23.5195q-7.83984 -16.6602 -2.93945 0.979492
q5.87988 14.7002 6.85938 25.4805q0 9.7998 -4.89941 21.5596q-2.94043 6.86035 -3.91992 6.86035q-0.980469 0 -0.980469 -5.87988q-0.979492 -10.7803 -5.87988 -29.4004q-3.91992 -17.6396 -6.86035 -19.5996q-0.979492 0 0.980469 9.7998t5.87988 23.5195
q3.91992 18.6201 0 28.4199q-2.94043 9.80078 -6.86035 13.7207q-2.93945 3.91992 -6.85938 7.83984q-2.94043 2.93945 -2.94043 0.979492q2.94043 -5.87988 3.91992 -13.7197q0.980469 -6.86035 0.980469 -11.7598q-1.95996 -19.6006 -6.86035 -43.1201
q-3.91992 -22.54 -6.86035 -25.4805q-1.95996 -1.95996 1.95996 13.7207l7.84082 51.9395q0.979492 12.7402 -4.90039 27.4404q-4.90039 14.7002 -13.7197 26.46q-4.90039 7.83984 -0.980469 -5.87988l2.94043 -18.6201l-2.94043 -9.7998l-0.979492 5.87988
q0 6.85938 -1.95996 17.6396q-0.980469 10.7803 -3.91992 16.6602q-2.94043 4.90039 -10.7803 12.7402t-6.86035 4.89941q2.94043 -8.81934 2.94043 -26.46q0 -17.6396 -3.91992 -19.5996v10.7803q0.979492 20.5801 -2.94043 31.3594q-3.91992 10.7803 -14.7002 16.6602
q-6.85938 3.91992 -11.7598 7.83984l-14.7002 11.7598l2.94043 -4.89941q5.87988 -10.7803 6.86035 -21.5605q0 -9.7998 -3.9209 -23.5195l-2.93945 -9.7998q-0.980469 -4.90039 -1.95996 -3.91992q-0.980469 0.979492 0.979492 7.83984q1.95996 5.87988 3.91992 18.6201
q1.95996 12.7393 -2.93945 24.5q-2.94043 4.89941 -6.86035 10.7793q-2.93945 5.88086 -14.7002 15.6807q-18.6191 14.7002 -32.3398 37.2402q-13.7197 20.5791 -19.5996 34.2998q-5.87988 12.7393 -7.83984 27.4395l-2.94043 8.82031l-21.5596 49l-10.7803 29.4004
q-5.87988 15.6797 -11.7598 25.4795l-6.86035 13.7197q-3.91992 7.84082 -12.7402 17.6406q-7.83984 8.81934 -14.6992 11.7598l-8.82031 3.91992q-7.83984 3.91992 -13.7197 2.94043q-5.88086 -0.980469 -16.6602 -7.84082q-7.83984 -4.89941 -12.7402 -9.7998
q-3.91992 -4.89941 -6.86035 -13.7197q-4.89941 -14.7002 -3.91992 -37.2402q0 -21.5596 4.90039 -39.2002l2.93945 -17.6396l5.88086 -24.5l4.89941 -16.6602l8.82031 -25.4795l15.6797 -38.2207q6.86035 -15.6797 7.83984 -27.4395l2.94043 -10.7803
q0.979492 -3.91992 0.979492 -19.5996l1.95996 -23.5205q1.95996 -19.5996 0.980469 -31.3594q0 -11.7607 -3.91992 -25.4805l-7.83984 -23.5195l-3.91992 -9.80078q-2.94043 -8.81934 -5.87988 -5.87988q-1.96094 2.94043 5.87988 17.6406q1.95996 3.91992 5.87988 16.6592
q3.91992 11.7607 5.87988 17.6406t1.95996 12.7402q0 5.87988 -1.95996 4.89941q-0.980469 0 -6.86035 -5.87988l-8.81934 -9.7998l-23.5205 -23.5205l-8.82031 -9.7998q-3.91992 -6.85938 -8.81934 -16.6602q-3.91992 -8.81934 -4.90039 -13.7197
q-0.979492 -4.90039 -2.93945 -4.90039t-1.95996 3.9209q4.89941 26.46 39.1992 58.7998l8.82031 8.81934l8.82031 10.7803q4.89941 4.90039 8.81934 6.86035q3.91992 0.979492 2.94043 3.91992l-0.980469 6.86035q-0.979492 9.7998 -1.95996 12.7393
q-0.979492 1.95996 -3.91992 -0.979492q-2.93945 -2.94043 -14.7002 -7.83984q-10.7793 -3.91992 -19.5996 -5.88086q-5.87988 -1.95996 -8.82031 -2.93945l-5.87988 -2.94043q-1.95996 0 -5.87988 -2.93945q-3.91992 -1.95996 -4.89941 -3.91992l-6.86035 -5.87988
q-11.7598 -7.84082 -16.6602 -13.7207q-4.90039 -4.89941 -8.82031 -12.7393q-2.93945 -7.84082 -6.85938 -12.7402q-3.91992 -4.90039 -10.7803 -10.7803l-10.7803 -9.7998q-3.91992 -3.91992 -2.93945 -1.95996q0 1.95996 9.7998 11.7598q7.83984 7.83984 12.7402 13.7197
q3.91992 4.90039 7.83984 12.7402t8.82031 12.7402q4.89941 4.89941 14.6992 12.7402l12.7402 10.7793q3.91992 1.95996 4.90039 3.91992q-2.94043 8.82031 -4.90039 12.7402t-8.82031 9.7998q-8.81934 8.82031 -14.6992 12.7402t-10.7803 4.90039l-4.90039 0.979492
q-2.93945 1.95996 -8.81934 3.91992q-4.90039 0.980469 -7.84082 0q-1.95996 0 -5.87988 -2.93945q-3.91992 -1.95996 -6.85938 -4.90039q-7.83984 -7.83984 -14.7002 -15.6797l-8.82031 -8.82031l4.90039 6.86035q4.89941 7.83984 15.6797 19.5996l3.91992 3.91992v7.83984
q0.980469 7.84082 0 10.7803l-0.979492 8.82031q-0.980469 6.86035 -1.95996 11.7598l-2.94043 10.7803q-2.93945 9.7998 -10.7803 21.5596l-5.87988 8.82031q-2.93945 4.90039 -8.81934 10.7803q-13.7207 13.7197 -24.5 17.6396q-9.80078 2.94043 -24.5 -3.91992
q-13.7207 -5.87988 1.95996 2.94043q15.6797 7.83984 28.4199 0.979492q6.85938 -4.90039 5.87988 0.980469l0.979492 15.6797l-3.91992 46.0596q-0.979492 8.82031 -3.91992 16.6602q-1.95996 7.83984 -6.85938 12.7402q-7.84082 6.86035 -18.6201 13.7197
q-9.80078 5.87988 -18.6201 9.7998q-5.87988 1.95996 -2.94043 2.94043q4.90039 -0.980469 17.6406 -7.83984q11.7598 -5.87988 17.6396 -10.7803l3.91992 -2.93945v2.93945q0.980469 7.83984 0 22.54q0 14.7002 -0.979492 20.5801l-1.96094 10.7803l-3.91992 23.5195
q-1.95996 7.83984 -2.93945 12.7402q-0.980469 4.90039 -4.90039 15.6797l-1.95996 7.83984q-0.979492 4.90039 -3.91992 10.7803q-2.93945 5.87988 -5.87988 7.83984l-6.86035 7.83984q-6.85938 6.86035 -11.7598 9.80078q-3.91992 2.93945 -10.7803 2.93945
q-2.93945 0 -7.83984 -0.979492q-4.89941 0 -7.83984 -4.90039q-2.93945 -3.91992 -3.91992 -10.7803q-0.980469 -6.85938 -1.95996 -10.7793q-0.980469 -15.6807 -3.91992 -27.4404l-0.980469 -5.87988l-1.95996 -27.4404q-0.979492 -12.7393 -1.95996 -25.4795
q0 -11.7598 0.980469 -18.6201v-17.6396l-0.980469 -22.54q-0.979492 -16.6602 0.980469 -58.8008q0.979492 -42.1396 2.93945 -49.9795q0.980469 -0.980469 5.87988 -2.94043q3.9209 -0.979492 6.86035 -2.93945q2.94043 -0.980469 -4.89941 0.979492
q-4.90039 1.95996 -4.90039 -2.93945q0 -0.980469 1.95996 -3.91992q1.95996 -2.94043 7.83984 -3.91992q5.87988 0 4.90039 -0.980469l-5.87988 -0.979492l-6.86035 1.95996q0 -0.980469 1.95996 -5.87988l3.91992 -9.80078q2.94043 -6.85938 6.86035 -25.4795
q0.979492 -4.90039 1.95996 -9.7998l4.89941 -9.80078l2.94043 -8.81934l1.95996 -8.82031q0 -5.87988 2.94043 -12.7402q1.95996 -5.87988 7.83984 -15.6797l4.89941 -11.7598q1.95996 -3.91992 3.91992 -9.7998q0.980469 -5.88086 3.91992 -12.7402
q2.94043 -5.87988 8.82031 -14.7002l8.82031 -17.6396l3.91992 -12.7402l1.95996 -16.6602q3.91992 -24.5 15.6797 -40.1797q11.7598 -15.6807 35.2803 -25.4805q12.7402 -5.87988 15.6797 -8.82031l13.7207 -9.7998l6.85938 -5.87988q12.7402 -11.7598 13.7197 -11.7598
q0.980469 0 4.90039 -2.94043l14.7002 -13.7197q9.7998 -7.83984 18.6201 -11.7598l50.96 -21.5605l40.1797 -19.5996q5.87988 -2.94043 9.7998 -5.87988l64.6807 -40.1797q4.89941 -3.9209 13.7197 -7.84082q7.83984 -2.93945 21.5596 -6.85938l9.80078 -4.90039
l46.0596 -17.6396l45.0801 -13.7197q22.54 -4.90039 49 -6.86035q25.4795 -1.95996 45.0801 0.979492l21.5596 5.88086q1.95996 0.979492 1.95996 4.89941l0.980469 19.6006q0.979492 40.1797 0.979492 75.46q0 34.2998 -0.979492 56.8398l-4.90039 88.2002
q0 16.6592 -1.95996 18.6191q-0.979492 1.95996 -4.89941 -7.83984q-2.94043 -4.89941 -3.91992 -5.87988q-0.980469 -0.979492 -1.96094 -7.83984l-2.93945 -27.4404q-0.980469 -16.6592 -2.94043 -27.4395q-1.95996 -9.7998 -5.87988 -33.3203l-0.979492 -10.7803
q0 -9.7998 -1.95996 -8.81934q-0.980469 0 0 8.81934q0 7.84082 2.93945 29.4004l2.94043 21.5596l4.89941 54.8809q0 0.979492 -3.91992 3.91992q-7.83984 6.85938 -10.7793 3.91992q-2.94043 -1.95996 -4.90039 0q6.86035 5.87988 16.6602 0l4.89941 -3.91992
l4.90039 7.83984q3.91992 6.85938 7.83984 8.82031l0.980469 24.5q0 26.46 0.979492 32.3398q0.980469 5.87988 3.91992 1.95996q7.83984 -7.83984 37.2402 -11.7607q10.7803 -0.979492 11.7598 -2.93945q-1.95996 -0.980469 -6.85938 -83.2998v-283.221
q-0.980469 -6.85938 -2.94043 -7.83984q-0.979492 -0.979492 -8.82031 -1.95996q-9.7998 -1.95996 -17.6396 -5.87988q-7.83984 -2.93945 -11.7598 -4.89941q-1.95996 0 -1.95996 6.85938v60.7598l-6.86035 -1.95996q-11.7598 -4.89941 -34.2998 -5.87988
q-21.5596 -0.979492 -43.1201 2.94043q-29.4004 4.89941 -54.8799 11.7598q-24.5 6.86035 -42.1396 14.7002l-45.0801 16.6602q-10.7803 3.91992 -21.5605 8.81934q-10.7793 4.90039 -12.7402 7.84082q-0.979492 1.95996 -5.87988 4.89941l-15.6797 9.7998l-20.5801 11.7607
l-17.6396 10.7793q-3.91992 2.94043 -18.6201 10.7803q-13.7197 6.86035 -19.6006 9.7998l-61.7393 27.4404q-4.90039 1.95996 -9.7998 4.89941l-5.88086 2.94043q-1.95996 0.979492 -30.3799 25.4795l-14.7002 12.7402q-3.91992 2.94043 -9.7998 6.86035t-10.7793 5.87988
l-24.5 11.7598q-3.9209 1.95996 -11.7607 10.7803t-11.7598 14.7002q-7.83984 14.7002 -9.7998 30.3799l-1.95996 8.82031q-0.980469 3.91992 -1.95996 11.7598q0 6.85938 -2.94043 14.7002q-2.93945 7.83984 -9.7998 18.6191q-4.90039 7.84082 -7.83984 13.7207
q-1.95996 5.87988 -4.90039 14.7002q-0.979492 5.87988 -2.93945 10.7793q-1.95996 4.90039 -6.86035 13.7207q-4.90039 8.81934 -6.86035 14.6992t-3.91992 13.7207q0 5.87988 -3.91992 13.7197l-3.91992 10.7803l-6.85938 25.4795q-0.980469 5.87988 -1.95996 8.82031
l-7.84082 18.6201q-0.979492 2.93945 0 5.87988q0 2.93945 -1.95996 4.89941q-1.95996 0.980469 -1.95996 5.88086l-2.93945 45.0791q-0.980469 15.6807 -1.95996 34.3008q0 18.6201 0.979492 25.4795q0.980469 5.87988 0.980469 37.2402v31.3604
q0 8.81934 0.979492 15.6797l1.95996 29.3994q0 2.94043 0.980469 5.88086l2.93945 14.6992l0.980469 11.7607q0 7.83984 3.91992 20.5801q1.95996 5.87988 9.7998 8.81934q6.86035 2.94043 17.6406 0.980469q4.89941 -1.95996 7.83984 -2.94043l4.89941 -3.91992
l13.7207 -12.7402q2.93945 -1.95996 3.91992 -2.93945q0.979492 -0.980469 2.93945 -0.980469q9.7998 -0.979492 17.6406 -5.87988q6.85938 -4.89941 12.7393 -14.7002q2.94043 -5.87988 6.86035 -14.6992q2.94043 -8.82031 3.91992 -14.7002l0.980469 -2.94043
l1.95996 1.95996q11.7598 8.82031 26.46 4.90039q13.7197 -3.91992 24.5 -20.5801q4.89941 -6.86035 7.83984 -20.5801q1.95996 -13.7197 2.93945 -48.0195l1.95996 -23.5205q0.980469 -12.7402 1.95996 -13.7197l6.86035 2.93945l5.87988 2.94043h6.86035
q15.6797 0 24.5 -17.6396q2.93945 -3.9209 2.93945 -2.94043l-4.89941 18.6201q-1.95996 8.82031 -2.94043 16.6602q-0.979492 7.83984 -2.93945 26.46q0 7.83984 2.93945 21.5596q1.95996 12.7402 4.90039 20.5801q2.93945 6.86035 5.87988 11.7598
q2.94043 3.91992 7.83984 6.86035l7.83984 3.91992q9.7998 6.86035 16.6602 7.83984q5.87988 0 16.6602 -3.91992q7.83984 -2.93945 11.7598 -5.87988q3.91992 -1.95996 11.7598 -10.7803l8.82031 -9.7998l18.6201 -36.2598l19.5996 -49l16.6602 -46.0605l1.95996 -5.87988
q1.95996 -15.6797 8.82031 -28.4199q3.91992 -6.85938 12.7402 -20.5801q7.83984 -13.7197 12.7393 -19.5996l9.80078 -12.7402l9.7998 -9.7998l13.7197 -12.7402l25.4805 -17.6396q3.91992 -3.91992 10.7793 -7.83984q5.88086 -2.94043 9.80078 -6.86035
q2.93945 -2.94043 6.85938 -4.90039q2.94043 -1.95996 7.83984 -5.87988q4.90039 -3.91992 7.84082 -7.83984l8.81934 -9.7998q9.7998 -8.82031 15.6807 -21.5605q2.93945 -6.85938 3.91992 -5.87988q2.93945 0.980469 9.7998 -5.87988q5.87988 -6.85938 9.7998 -13.7197
q2.94043 -6.86035 9.7998 -14.7002l7.83984 -10.7803q3.91992 -6.85938 4.90039 -7.83984q0.980469 0 3.91992 -1.95996l6.86035 -4.89941q8.81934 -6.86035 13.7197 -19.6006zM244.39 615.11q5.87988 -3.91992 11.7607 -12.7402q8.81934 -14.7002 9.7998 -35.2803v-6.85938
l3.91992 -2.94043q17.6396 -11.7598 20.5801 -14.7002l2.93945 -1.95996l-0.979492 7.83984q0 6.86035 -1.95996 16.6602l-2.94043 17.6396l-3.91992 10.7803l-24.5 61.7402q-5.87988 14.7002 -5.87988 19.5996q0 1.95996 -0.979492 5.87988l-0.980469 3.9209
l-1.95996 -35.2803q-0.980469 -31.3604 -4.90039 -34.2998zM242.43 616.09q0 1.95996 1.95996 8.82031q0.980469 6.85938 1.95996 29.3994v30.3809l-11.7598 28.4199q-7.83984 9.7998 -18.6201 8.81934q-2.93945 -0.979492 -8.81934 -3.91992
q-5.88086 -1.95996 -6.86035 -2.93945q-0.980469 -0.980469 0 -8.82031l1.95996 -14.7002q0.980469 -6.85938 1.95996 -15.6797l1.95996 -13.7197l2.94043 -8.82031l1.95996 -17.6396q0 -9.80078 -1.95996 -17.6406l-0.980469 -2.93945l5.87988 -5.87988
q9.7998 -11.7607 20.5801 -33.3203q10.7803 -21.5605 11.7598 -33.3203q0 -3.91992 1.95996 -4.89941l6.86035 -0.980469q9.7998 -2.94043 23.5205 -3.91992q12.7393 -0.980469 13.7197 1.95996q-1.95996 0.980469 -4.90039 3.91992q-1.95996 2.94043 -10.7793 9.7998
q-10.7803 7.83984 -15.6807 10.7803q-4.89941 2.94043 -9.7998 3.91992q-4.90039 0 -3.91992 0.980469q0.979492 0.979492 5.87988 0q3.91992 0 6.86035 -0.980469q1.95996 0 0.979492 5.87988q0 4.90039 -0.979492 8.82031q-4.90039 27.4395 -18.6201 35.2803
q-5.87988 2.93945 -14.7002 -1.95996q-5.87988 -1.95996 -3.91992 0q0.979492 1.95996 4.90039 3.91992q3.91992 0.979492 7.83984 1.95996q3.91992 0 6.85938 -0.980469z" />
</svg>
