<?xml version="1.0" standalone="no"?>
<!DOCTYPE svg PUBLIC "-//W3C//DTD SVG 1.1//EN" "http://www.w3.org/Graphics/SVG/1.1/DTD/svg11.dtd" >
<svg xmlns="http://www.w3.org/2000/svg" xmlns:xlink="http://www.w3.org/1999/xlink" version="1.1" viewBox="-10 0 664 1024">
   <path fill="currentColor"
d="M52.0996 83q-12.5996 2.7002 -15.75 2.7002q-3.14941 0 -5.84961 135q-0.900391 38.7002 -0.900391 71.0996q0 81 3.60059 123.3q0.899414 11.7002 1.7998 13.5q0.900391 1.80078 2.7002 -0.899414q8.09961 -5.40039 22.5 -6.2998q4.5 0 5.39941 -0.900391
q0.900391 -0.900391 0 -2.7002l-2.69922 -36.8994l7.19922 1.7998q4.5 0.899414 8.10059 -0.450195q3.59961 -1.34961 10.7998 -5.84961q3.59961 -2.7002 5.40039 -2.25q1.7998 0.449219 4.0498 2.25q2.25 1.7998 5.84961 2.69922q3.60059 0.900391 5.40039 0.450195
t1.7998 3.60059q0 4.0498 1.7998 8.5498t3.15039 7.2002q1.34961 2.69922 4.9502 7.19922l22.5 21.6006q2.69922 3.59961 7.64941 9.4502q4.9502 5.84961 4.9502 6.75q2.7002 9 6.2998 17.5498q3.60059 8.5498 8.10059 15.75l6.2998 9l8.09961 14.3994
q6.2998 11.7002 16.6504 24.75q10.3496 13.0508 21.1494 22.9502l10.8008 11.7002q8.09961 8.09961 13.5 11.7002q1.7998 0.899414 3.14941 2.7002q1.35059 1.7998 4.0498 9.89941l10.8008 27l7.19922 20.7002q8.10059 24.2998 10.8008 36q2.69922 11.7002 4.5 29.7002
l8.09961 69.2998l5.40039 31.5q0.899414 7.2002 4.5 21.5996q3.59961 14.4004 5.39941 18q1.7998 3.60059 8.10059 9q6.2998 5.40039 10.7998 7.2002q29.7002 15.2998 58.5 -20.7002q3.59961 -3.59961 7.64941 -11.6992q4.05078 -8.10059 6.75 -23.4004
q1.80078 -10.7998 3.60059 -27.9004q0.899414 -6.2998 0.899414 -24.2998v-22.5l-2.69922 -20.7002q-0.900391 -11.6992 -2.7002 -17.0996l-9.90039 -58.5q-0.899414 -3.59961 -1.34961 -8.09961t0.450195 -4.5q0.899414 0 7.19922 3.59961l9 6.2998
q5.40039 2.7002 13.5 4.5l10.8008 1.7998q10.7998 2.7002 14.8496 7.2002l4.0498 4.5q0.900391 7.2002 5.85059 15.75q4.94922 8.5498 6.75 11.7002q1.7998 3.15039 0.899414 4.9502q0 16.2002 3.15039 28.7998q3.14941 12.5996 9.89941 25.6504q6.75 13.0498 9 20.6992
q2.25 7.65039 3.15039 22.0508v9l3.59961 24.2998q2.7002 18 5.40039 31.5l7.2002 53.0996l3.59961 38.7002q3.60059 26.0996 16.6504 48.1504q13.0498 22.0498 29.25 25.6494q9 0.900391 13.9502 -0.899414q4.94922 -1.80078 12.1494 -5.40039
q9.90039 -6.2998 11.25 -12.5996q1.35059 -6.30078 -2.25 -20.7002l-2.7002 -16.2002q-1.7998 -11.7002 -1.7998 -16.2002l0.900391 -6.2998l0.899414 -13.5l2.7002 -24.2998v-60.2998l6.2998 -71.1006l3.60059 -24.2998q4.5 -22.5 7.64941 -38.25
q3.15039 -15.75 2.25 -19.3496q-0.899414 -3.60059 -3.59961 -12.6006t-4.5 -13.5l-2.7002 -5.39941l0.900391 -4.5q0.899414 -9 0.450195 -26.5508q-0.450195 -17.5498 -2.25 -28.3496q-1.80078 -10.7998 -0.450195 -30.1504q1.34961 -19.3496 4.9502 -39.1494l4.5 -22.5
q1.7998 -7.2002 4.5 -13.5q3.59961 -11.7002 4.5 -18.9004v-18q-5.40039 -24.2998 -8.10059 -29.7002q-2.7002 -5.39941 -12.1494 -13.5q-9.4502 -8.09961 -22.9502 -15.2998q-19.7998 -11.7002 -44.5498 -27.8994q-24.75 -16.2002 -41.8506 -29.7002l-46.7998 -36
q-10.7998 -8.10059 -19.7998 -14.8506t-14.8506 -12.1494q-5.84961 -5.40039 -11.25 -9.90039l-16.1992 -12.5996q-22.5 -17.1006 -38.25 -27.9004t-31.0508 -19.7998l-27 -17.0996q-43.1992 -26.1006 -78.2998 -38.7002q-35.0996 -12.6006 -86.3994 -17.1006
l-29.7002 -2.69922l-18.9004 -0.900391l-0.899414 -28.7998l-2.7002 -3.60059q-0.900391 -0.899414 -3.60059 -0.899414q-2.69922 0 -9 1.7998zM140.3 416.9q3.60059 1.7998 9 4.94922q5.40039 3.15039 9.90039 6.75l6.2998 5.40039q3.59961 1.7998 6.2998 4.9502
q2.7002 3.14941 8.10059 10.3496l24.2998 27.9004q5.39941 5.39941 8.09961 9l13.5 12.5996q10.7998 9.90039 16.6504 14.8506q5.84961 4.94922 19.3496 14.8496l11.7002 7.2002l12.5996 8.09961l28.8008 18l13.5 5.40039l13.5 4.5l16.1992 3.59961
q1.80078 -0.899414 2.25 1.7998q0.450195 2.7002 1.80078 6.75q1.34961 4.05078 2.25 5.85059q5.39941 9 8.5498 12.1494q3.14941 3.15039 8.5498 6.75l6.2998 3.60059v12.5996l2.7002 11.7002q1.7998 9 3.59961 20.7002q1.80078 11.7002 2.7002 16.2002
q0 2.69922 0.900391 8.09961q5.39941 23.4004 6.2998 56.7002t-2.7002 56.7002q-3.59961 18 -6.2998 24.75t-9 13.9492q-23.4004 29.7002 -53.0996 19.8008q-3.60059 -2.7002 -10.3506 -7.65039t-9.4502 -8.5498l-1.7998 -6.2998l-6.2998 -26.1006l-6.2998 -39.5996
l-8.10059 -73.7998q-1.7998 -12.6006 -3.59961 -21.6006t-5.40039 -20.7002q-4.5 -18 -9 -29.6992q-4.5 -11.7002 -11.6992 -31.5q-4.5 -9 -2.25 -9t6.75 0.899414l-15.3008 -9q-2.69922 -1.7998 -9 -8.09961q-27 -27.9004 -36.8994 -40.0498
q-9.90039 -12.1504 -16.2002 -24.75q-9.90039 -17.1006 -13.5 -22.5q-3.59961 -5.40039 -7.65039 -13.0508q-4.0498 -7.64941 -6.75 -15.75q-0.899414 -4.5 -3.14941 -8.09961t-6.75 -8.09961q-13.5 -14.4004 -12.6006 -14.4004zM583.1 419.6q2.7002 2.7002 5.40039 10.3506
q2.7002 7.64941 2.25 3.14941t-3.59961 -9.44922q-3.15039 -4.9502 -4.05078 -4.05078zM530 456.5q5.40039 0.900391 11.7002 17.0996l2.7002 8.10059q4.5 -0.900391 -0.450195 -12.1504t-9.4502 -13.0498t-4.5 0zM463.4 501.5q7.19922 -0.900391 15.2998 11.7002
q5.39941 8.09961 5.39941 4.5q0 -1.7998 -2.69922 -5.40039q-2.7002 -3.59961 -5.40039 -6.75q-2.7002 -3.14941 -6.75 -4.5q-4.0498 -1.34961 -5.84961 0.450195zM293.3 584.3q7.2002 0.900391 22.5 0.900391t17.1006 -0.900391q-0.900391 -0.899414 -3.60059 -0.899414
l-15.2998 0.899414h-17.0996q-6.30078 -0.899414 -3.60059 0zM587.6 662.6q-3.59961 2.7002 -3.59961 4.05078q0 1.34961 4.5 -2.25q3.59961 -4.5 -0.900391 -1.80078zM474.2 686.9q9 10.7998 12.5996 15.2998l10.7998 11.7002l4.5 4.5q2.7002 1.7998 4.05078 1.7998
q1.34961 0 -2.25 5.39941q-5.40039 13.5 -3.60059 34.2002t10.7998 31.5q0.900391 7.2002 -0.899414 18l-2.7002 16.2002q-3.59961 18 -4.5 24.2998v2.7002l-11.7002 -76.5l-2.7002 -22.5q0 -4.5 -2.25 -9.90039q-2.25 -5.39941 -7.64941 -15.2998
q-12.6006 -25.2002 -12.6006 -50.3994v-3.60059l0.900391 2.7002q2.7002 3.59961 7.2002 9.90039zM591.2 678.8q-4.5 1.7998 -7.2002 4.5l8.09961 -3.59961q2.7002 -1.7998 1.80078 -1.7998q-0.900391 0 -2.7002 0.899414zM350 694.1q-9 1.80078 0 0.900391
l6.2998 -0.900391h-6.2998zM569.6 798.5l-2.69922 0.900391h2.69922q4.5 -1.80078 0 -0.900391zM589.4 812.9q-0.900391 8.09961 -1.35059 41.8496t-2.25 51.75l-1.7998 18l-1.7998 1.7998q-6.2998 4.5 -9 7.65039q-2.7002 3.14941 -5.40039 8.5498
q-4.5 8.09961 -6.2998 15.75t-0.900391 21.1504l1.80078 1.7998l5.39941 2.7002q27 0.899414 14.4004 9.89941q-1.7998 1.7998 -10.3506 5.85059q-8.5498 4.0498 -21.1494 -0.450195q-9 -2.7002 -21.6006 -20.7002q-13.5 -20.7002 -16.1992 -44.0996
q-1.80078 -13.5 -3.60059 -27.9004l-1.7998 -18q0 -4.5 0.900391 -3.59961q0.899414 0.899414 2.69922 4.5q3.60059 5.39941 5.40039 7.19922l6.2998 4.5q13.5 7.2002 26.1006 8.10059h7.19922q2.7002 0 3.15039 -3.15039q0.450195 -3.14941 6.75 -16.6494t9.4502 -22.9502
q3.14941 -9.4502 4.9502 -25.6504v-4.5l9 -35.0996v11.7002zM578.6 838.1v4.5l-1.7998 12.6006l-5.39941 17.0996q-1.80078 6.2998 -6.30078 15.2998l-6.2998 13.5q-0.899414 3.60059 -2.7002 2.25q-1.7998 -1.34961 -8.5498 -6.2998t-7.64941 -8.09961
q-0.900391 -3.15039 0.899414 -9.4502q3.60059 -9.90039 7.65039 -15.75t13.0498 -14.8496t13.0498 -11.7002t4.0498 0.899414zM584 931.7q0 6.2998 4.5 31.5q1.7998 11.7002 1.7998 16.2002v4.5h-9.89941q-18.9004 0.899414 -18.9004 -7.2002
q-0.900391 -28.7998 16.2002 -44.1006q4.5 -4.5 5.84961 -4.5q1.35059 0 0.450195 3.60059zM68.2998 118.1q28.7998 0.900391 48.6006 3.60059q39.5996 3.59961 58.5 9q46.7998 12.5996 102.6 45l29.7002 18q26.0996 16.2002 52.2002 35.0996q27 19.7998 42.2998 34.2002
q7.2002 6.2998 17.0996 13.5l26.1006 19.7998l72 53.1006l50.3994 31.5q26.1006 14.3994 36 27.8994q9.90039 13.5 9.90039 35.1006v16.1992l-4.5 15.3008q-6.2998 18 -9.90039 39.5996q-3.59961 21.5996 -3.59961 43.2002l-0.900391 16.2002q0 3.59961 0.900391 9.89941
q2.7002 16.2002 2.7002 33.2998q0 18 -1.80078 22.5q-0.899414 0 -3.59961 -4.5q-2.7002 -5.39941 -4.5 -10.7998q-1.7998 -5.39941 -4.5 -16.2002q-2.7002 -10.7998 -4.5 -19.7998l-3.59961 -14.3994l-5.40039 -27l-2.7002 -10.8008l-2.7002 -13.5
q-3.59961 -18.8994 -0.899414 2.7002l2.7002 12.6006l2.69922 9.89941l2.7002 12.6006l1.7998 12.5996l2.7002 15.2998q2.7002 9.90039 4.5 20.7002l3.60059 9.90039l1.7998 8.09961l-6.2998 -9.90039l-10.8008 -14.3994q-4.5 -4.5 -7.19922 -9l-7.2002 -14.4004
l-4.5 -8.09961l-18 -27.9004l3.59961 6.2998l8.10059 13.5q3.59961 6.30078 6.2998 10.8008l4.5 10.7998q5.39941 10.7998 13.5 19.7998l4.5 5.40039l15.2998 21.5996q5.40039 6.2998 8.09961 11.7002q2.7002 5.39941 4.5 10.7998l3.60059 11.7002
q1.7998 6.2998 1.7998 11.7002q0 6.2998 -2.7002 18l-7.2002 39.5996l-2.69922 18.9004v7.19922l-0.900391 15.3008q-1.7998 12.5996 -4.5 20.6992l-8.09961 33.3008q-0.900391 5.39941 -2.7002 4.5q-2.7002 -0.900391 -11.7002 7.19922q-9.90039 9 -15.2998 17.1006
q-6.2998 8.09961 -9.90039 17.0996q-3.59961 9.90039 -2.7002 12.6006l9 9l9.90039 8.09961q-0.900391 0.900391 -10.7998 0q-10.7998 -1.7998 -16.2002 -4.5t-9.90039 -6.2998q-4.5 -3.60059 -8.09961 -10.7998q-4.5 -7.2002 -5.40039 -14.4004v-9.90039
q-0.899414 -10.7998 2.7002 -30.5996l3.60059 -17.0996q0.899414 -9.90039 2.69922 -12.6006q2.7002 -2.7002 7.2002 -1.7998q10.7998 1.7998 -0.899414 -3.59961q-7.2002 -2.7002 -9.90039 -5.40039q-6.2998 -7.2002 -8.09961 -24.2998q-2.7002 -17.1006 -0.900391 -27
q1.7998 -10.7998 9 -20.7002l5.40039 -8.09961l-4.5 3.59961q-4.5 5.40039 -5.40039 6.2998q-4.5 0 -20.7002 -20.7002l-16.2002 -20.6992l-12.5996 -19.8008q-3.59961 -5.39941 -4.5 -13.5q-0.900391 -9 1.7998 -16.1992q2.7002 -5.40039 0 -2.7002t-3.59961 9.89941
l-0.900391 3.60059l-1.7998 -1.7998q-4.5 -4.5 -8.09961 -5.40039q-10.8008 -3.59961 -17.1006 -4.5q-12.5996 -2.7002 -21.5996 -9l-21.6006 -13.5q-12.5996 -10.7998 -16.1992 -22.5q-3.60059 -12.5996 -2.7002 -26.0996q-0.900391 -6.30078 -1.7998 9.89941
l-0.900391 8.10059q-6.2998 -0.900391 -20.7002 -6.30078q-15.2998 -5.39941 -24.2998 -10.7998l-35.0996 -21.5996q-13.5 -8.10059 -27 -18.9004q-14.4004 -10.7998 -27 -23.3994l-12.6006 -11.7002l-29.7002 -36q-8.09961 -9.90039 -14.3994 -15.2998
q-7.2002 -6.30078 -18 -12.6006q-3.60059 -1.7998 -7.2002 -2.7002q-4.5 -1.7998 -6.2998 -1.7998q-2.7002 -0.899414 -3.60059 -1.7998l-4.5 -3.59961q-10.7998 -9.90039 -12.5996 -21.6006t3.59961 -32.3994q2.7002 -9.90039 6.30078 -16.2002
q3.59961 -6.2998 12.5996 -18q4.5 -6.2998 4.5 -9q-2.7002 0 -9.90039 9q-7.19922 9.89941 -12.5996 18.8994q-2.7002 5.40039 -5.40039 18q-3.59961 12.6006 -3.59961 20.7002l-2.7002 0.900391q-9.89941 -1.7998 -13.5 -9.90039v-6.2998l1.7998 -9.90039
q1.80078 -5.39941 10.8008 -20.6992q9 -16.2002 15.2998 -25.2002l27 -32.4004q1.7998 -2.7002 0 -2.7002q-1.7998 0.900391 -2.7002 1.80078l-16.2002 17.0996q-5.39941 6.2998 -9 11.7002l-8.09961 12.5996l-10.7998 16.2002q-8.10059 12.5996 -10.8008 18.9004
q-0.899414 2.69922 -0.899414 8.09961v13.5l-3.60059 1.7998q-2.69922 2.7002 -7.19922 4.5q-5.40039 1.7998 -7.2002 2.7002q-7.2002 -0.900391 -7.2002 -4.5zM64.7002 130.7q-7.2002 261.899 -3.60059 286.2q-9 1.7998 -24.2998 6.2998l-2.7002 -51.2998
q-1.7998 -20.7002 0.900391 -220.5l2.7002 -60.3008q0.899414 -2.69922 3.59961 -3.59961l21.6006 -0.900391q2.69922 5.40039 1.7998 36v8.10059z" />
</svg>
