<?xml version="1.0" standalone="no"?>
<!DOCTYPE svg PUBLIC "-//W3C//DTD SVG 1.1//EN" "http://www.w3.org/Graphics/SVG/1.1/DTD/svg11.dtd" >
<svg xmlns="http://www.w3.org/2000/svg" xmlns:xlink="http://www.w3.org/1999/xlink" version="1.1" viewBox="-10 0 878 1024">
   <path fill="currentColor"
d="M107.146 125.193q2.50293 4.0332 6.12695 4.29004q3.62598 0.253906 13.7363 -3.31738l15.4717 -3.62402q4.18555 -1.63379 20.833 -3.6748q7.09766 -0.355469 11.4385 -1.12012q8.52734 -2.39941 21.293 -1.07031q18.2793 2.14746 21.6738 1.10059
q3.39746 -1.04395 16.9531 -0.303711q13.5566 0.741211 21.8281 1.9707q24.9678 4.54785 38.3447 9.34766l11.335 3.37305q9.44629 2.80957 17.1543 5.92285l11.6426 5.10938q2.91113 1.27832 7.93848 4.41699q5.0293 3.1416 16.415 11.876q11.3867 8.73145 15.7764 13.3281
l5.25781 4.44238q3.52344 4.75 14.1934 14.5039l13.3262 14.6553l16.2842 21.2949l29.6113 35.9512l18.8887 20.8359q24.3008 26.1455 24.5557 22.5215q0.870117 -0.152344 -2.34668 -3.16699q-6.12695 -4.29199 -18.3545 -17.7988q-12.2266 -13.5059 -23.8135 -28.4668
l-38.7002 -46.8809q-8.06738 -10.2119 -17.4346 -20.1973q-9.36719 -9.98242 -15.6465 -15.1426l-7.60645 -7.60742q-8.32324 -6.58789 -17.5127 -13.0225l-15.624 -12.4629q3.32031 -1.47852 6.66504 -0.27832q3.34375 1.20215 4.66992 3.65137
q2.96094 6.6377 3.08887 4.82617q0.128906 -1.8125 1.2002 -3.3457q1.07227 -1.5293 4.29102 1.48242l5.10352 3.57422q2.04199 1.42969 3.36914 3.88184q3.11523 7.50488 3.31836 6.12695q0.204102 -1.37793 1.27637 -2.90918q1.07324 -1.53223 2.45312 -1.32715
q1.37793 0.203125 6.17578 2.04395q8.57812 2.96094 15.7275 7.96777l8.01465 4.85059q19.5039 9.08984 38.6494 26.3018l31.7061 27.5264l16.0811 15.0645q22.5146 21.0908 41.3037 31.2031l22.0029 13.126q29.8711 17.1094 38.167 28.625t12.3252 39.4463
q2.44922 13.8896 5.38379 25.4551q2.93359 11.5664 10.8955 41.4873q7.95996 29.9238 13.2451 44.6562q5.28223 14.7314 15.5928 32.6035q11.9463 22.0596 24.3516 39.1162q12.4043 17.0557 28.9453 34.7256q8.62891 8.3252 23.0264 21.4482q14.3975 13.127 24.915 22.0107
q7.14844 5.00586 19.7578 13.0742q12.6104 8.07031 19.2988 10.4697q3.93359 1.99219 4.08594 2.86133l-2.14648 3.06445q-82.7402 155.109 -101.384 206.729l-2.24707 7.55566l-47.0215 -38.249q-12.5615 -10.3184 -30.9141 -20.5078q-18.3564 -10.1885 -34.7969 -17.1348
l-29.9707 -12.6162q-5.97266 -3.42188 -12.5088 -4.95508q-10.4668 -3.52441 2.14551 -3.06152l11.5908 -0.256836l1.27441 -2.90723q-2.04004 -1.43164 -4.64551 -0.97168l-17.9736 -0.411133q-28.6953 -0.311523 -42.8379 -1.84473q-14.1445 -1.5332 -29.2568 -6.0293
l-11.1816 -2.50391l-26.7041 -4.24121l-29.9199 -7.25391l-8.27344 -1.22852l-37.4258 -4.13965q-11.7441 -0.616211 -25.8105 -9.32324q-14.0664 -8.70605 -42.25 -31.4844l-31.3994 -25.791l-24.8086 -18.8955q-6.28418 -5.15625 -11.3887 -8.73242l-15.0107 -8.9873
q-15.0098 -8.99023 -8.93262 -10.0625q3.16602 -2.34766 7.55762 -12.9668q4.39453 -10.6211 3.37402 -11.3359q-1.02246 -0.71582 -2.30078 2.19434q-1.68555 5.66992 -4.23828 11.4873l-4.29004 6.12891l-5.15918 6.28125l-3.77734 -1.125
q-13.2236 -3.93457 -9.54492 -13.5322q2.55176 -5.82129 3.21582 -12.2031q0.666992 -6.38184 -0.916992 -5.20898l-1.6875 5.66699q-0.969727 4.64648 -2.09277 8.4248l-1.83984 4.7998q-1.12207 3.77832 -8.68066 1.53125l-13.5293 -5.6709
q-11.6406 -5.10742 -23.5898 -11.9512l-11.793 -5.97559q-5.97363 -3.4209 -3.67578 -5.61719q7.91504 -5.86914 10.6475 -15.75q2.73535 -9.88184 -1.04297 -18.6123t-7.22363 -13.0479q-3.44727 -4.31348 -11.1562 -7.42871q-22.2598 -9.5 -33.1895 -0.415039
q-22.7236 18.3291 -28.8027 34.6172q-1.94043 9.29102 -6.58594 -6.89551q-6.27637 -20.375 11.2383 -37.7832q11.3369 -11.8428 40.1377 -16.0273q28.7979 -4.18359 69.543 -1.52441q14.5029 1.02637 30.4062 4.93359q15.9053 3.90723 24.6348 7.73828l3.93262 1.99121
q0.868164 -0.151367 7.70996 3.11621l12.9678 7.55957q10.9268 6.12793 20.168 10.3174q9.24219 4.1875 13.9648 5.59375q4.72363 1.4043 11.5645 4.67383l29.8691 17.1084q5.97266 3.42285 16.9502 7.30371q10.9775 3.88281 14.96 3.62695
q3.98242 -0.25293 -2.70703 -2.65332q-19.502 -9.09277 -9.3916 -12.666l16.748 -6.5332q14.1465 -6.07324 19.6865 -10.1836t15.499 -16.1592t8.70801 -14.0654q-1.25195 -2.01562 -5.38867 4.97656q-10.5713 16.1855 -21.0898 22.5166l-7.20215 4.84766
q-0.152344 -0.867188 3.42383 -5.97168l18.4355 -27.417l17.8242 -30.8896l11.8496 -19.0938q5.00391 -7.15039 7.12402 -12.8936t-2.88477 1.40332q-0.154297 -0.868164 -2.24512 -7.65918q-2.2959 -13.0195 -8.62695 -23.54q-2.80664 -5.76855 -4.59473 -10.8262
l-14.9541 -34.0586q-3.41992 -9.24121 -2.55273 -9.39453l4.08496 2.85938q11.0791 6.99805 9.90527 5.41309q-1.1748 -1.58301 -6.43359 -6.02441l-19.8604 -16.1904q-5.10352 -3.5752 -10.3125 -10.2646q-5.20703 -6.68945 -8.01465 -12.46l-13.374 -20.0166
q-2.35059 -3.16602 -4.28711 -9.09082l-4.44336 -9.95703q-1.17383 -1.58301 -3.93066 -9.60059q-2.75586 -8.0166 -4.69531 -13.9414q-1.68359 -9.54688 -2.65234 -12.5068q-0.970703 -2.96289 -2.55176 -1.78809q-3.32031 1.47754 -12.334 -1.40625
q-9.01074 -2.88672 -20.957 -9.73145l-8.72949 -3.8291q-14.4004 -5.51758 -26.1699 -16.4199q-11.7666 -10.9033 -15.4922 -21.8818q-2.09277 -6.79199 -3.36914 -3.87988l1.99023 11.2832l-8.27148 -1.22656q-4.49512 -0.103516 -5.51465 -0.819336
q-1.02344 -0.713867 -5.51562 -0.816406q-14.042 1.58105 -33.5713 -2.58398q-19.5312 -4.16406 -31.3252 -10.1396q-5.10645 -3.57324 -14.0156 -10.9541q-8.9082 -7.37988 -12.7109 -11.1836q-3.80566 -3.80469 -6.25293 -10.085q-2.45117 -6.28223 -1.91406 -10.8506
q0.537109 -4.56934 3.44824 -10.9014q2.91211 -6.33301 5.3623 -7.65723zM172.401 114.581q8.98926 0.205078 -5.05371 1.78613q-17.3613 3.0625 -13.6074 1.50391q3.75293 -1.55664 9.83008 -2.62891q6.07617 -1.07129 8.83105 -0.661133zM95.7588 131.676
q0.15332 0.867188 -0.895508 5.07812q-1.04688 4.21387 -1.91406 4.36719q-0.868164 0.15332 -3.75391 1.55762q-2.88477 1.40332 -5.13086 1.35059q-2.24707 -0.0498047 -6.02637 -1.17383q-15.9795 -4.34375 -4.13379 -8.22168zM70.9424 143.211
q4.9502 2.70801 9.95508 3.16797q5.00293 0.459961 9.19141 -1.17383l3.32031 -1.48145q2.29492 13.0225 8.88184 19.916l10.6699 9.75488q8.32129 6.58691 11.3838 8.73242q9.03906 5.56641 15.8027 8.40234q6.76465 2.83398 17.9473 5.33887
q8.27344 1.22461 -4.74902 3.52344q-8.67969 1.52832 -19.4795 1.19629q-10.7988 -0.333984 -26.627 -3.80859q-7.55762 -2.24707 -17.0283 -7.73828q-9.47168 -5.49121 -12.5342 -7.63477q-6.43359 -6.02637 -9.08789 -10.9287q-2.65332 -4.90234 -2.8584 -11.1318
q-2.1416 -12.1533 1.58594 -16.3906q0.564453 -1.88867 3.62598 0.255859zM85.5889 190.751q18.2285 12.0029 53.1523 12.1094l16.9531 -0.303711l10.9805 -3.72754l6.22754 -0.202148q6.38281 0.666016 14.501 1.02148l7.25098 0.513672l5.10547 3.5752
q4.95215 2.70605 7.42969 4.05957q2.47559 1.35156 8.21875 3.47363q5.74512 2.11816 6.76465 2.83398q1.02148 0.71582 3.70312 0.689453q2.68066 -0.0263672 4.72168 1.4043l9.49707 8.17188q-3.62598 -0.254883 -14.2969 -2.40137q-10.6719 -2.14551 -15.624 -4.85254
l-4.79883 -1.83984l-30.3818 5.35645q-29.5127 5.2041 -37.4814 5.71484q-7.96387 0.509766 -11.7412 -0.613281q-22.2119 -4.14062 -33.3682 -11.5723q-11.1562 -7.42969 -12.4297 -19.7344q-1.94141 -5.9248 -0.713867 -6.58789q1.22559 -0.663086 6.33008 2.91113z
M215.538 201.848l2.60352 -0.458008l8.37109 11.9512q-0.866211 0.151367 -9.52051 -3.24414q-8.6543 -3.39746 -13.6064 -6.10449l-5.10547 -3.57422l7.25 0.509766q6.53613 1.5332 10.0078 0.919922zM209.612 219.006q6.84375 3.26758 18.459 5.69434
q11.6152 2.42773 15.0869 1.81445q0.714844 -1.02051 5.23438 1.76465q4.51758 2.78223 9.31738 4.62012l9.75195 4.54688q19.6562 9.95996 28.6426 10.1631l3.62598 0.257812l3.67383 20.8311l-3.62402 -0.254883q-5.51562 -0.817383 -14.6045 -4.13672
q-9.08789 -3.32129 -15.0605 -6.74316l-4.08496 -2.85938l-7.35547 3.98145q-7.35254 3.98242 -15.292 7.17285q-7.94141 3.18945 -14.7324 5.28223t-10.9795 3.72559q-13.2744 5.92188 -31.7334 0.226562q-18.458 -5.69629 -27.6963 -17.4932
q-1.33008 -2.4502 -0.945312 -7.89062q0.383789 -5.43652 2.17285 -7.98828q1.78613 -2.55273 9.64844 1.42969q2.19629 2.29883 4.36621 1.91602q2.1709 -0.382812 7.22363 -2.16992q15.8848 -6.37988 20.8369 -18.8896q0.408203 -2.75586 1.40527 -4.72266
q0.996094 -1.96484 6.66309 -0.27832zM199.349 221.71q-4.08691 12.3574 -18.2314 18.4307q-4.90332 2.6543 -7.07422 3.03613q-2.16895 0.381836 -4.72168 -1.40527q-2.55176 -1.78711 -6.3291 -2.91016l-3.7793 -1.12305l4.0332 -2.50195
q3.16602 -2.34961 11.8975 -6.12598q8.7334 -3.77637 13.7881 -5.5625q10.2646 -2.70605 10.417 -1.83789zM532.654 360.744q-0.867188 0.152344 2.50098 4.0332q8.21973 11.083 13.1699 21.3975q4.95215 10.3135 5.15332 16.5439q0.102539 10.7227 2.91113 1.27637
q0.666992 -6.38281 -3.69824 -15.9053q-4.36426 -9.52344 -12.4316 -19.7373q-3.67383 -5.61719 -7.60547 -7.6084zM75.9453 521.827q3.625 0.256836 9.9541 3.16699q6.33203 2.91211 10.3408 5.33887q4.00684 2.42383 9.77539 14.832q3.98145 7.35547 1.1709 16.8037
q-2.80957 9.44238 -10.5713 16.1807q-3.16406 2.34961 -4.54395 2.14551q-1.37695 -0.207031 -6.17773 -2.04297q-9.44629 -2.81055 -15.4707 -3.98633q-6.02539 -1.17383 -16.0322 -2.0957q-19.7109 -0.105469 -25.4277 -7.15234l-1.33008 -2.44922l1.12598 -3.7793
q1.5332 -6.53516 6.33203 -12.3047q4.80273 -5.76953 13.6387 -14.04q8.83203 -8.26953 14.2441 -10.5674q5.41309 -2.29492 12.9717 -0.0498047zM178.977 583.319q-0.5625 1.88965 -2.60547 8.06543q-2.04395 6.17969 -3.32129 9.08984q-3.4209 5.97363 0.180664 3.54883
q3.59766 -2.42578 5.54004 -11.7188q1.94336 -9.29199 0.206055 -8.98535zM649.142 589.921l-5.00488 7.14746q-14.6074 33.9023 -21.7578 44.1133q-5.00391 7.14746 -3.62598 7.35254q1.37891 0.204102 2.96191 -0.970703l4.29004 -6.12695
q16.8027 -31.6035 22.3203 -46.0029q1.12305 -3.77734 0.816406 -5.5127zM716.383 636.241q-2.14453 3.06348 -5.82227 12.6621q-9.65332 21.3936 -24.6436 37.9092q-14.9873 16.5166 -41.6436 32.8516l-7.91406 5.87109q1.78516 5.05566 20.8604 -8.59961
q19.0713 -13.6562 34.1367 -29.7373q7.6084 -7.6084 12.6641 -17.0029q5.05859 -9.39453 10.5742 -23.793q2.55371 -5.82031 4.1875 -9.24023q1.63574 -3.42285 -0.25293 -3.9834zM704.037 926.622q-7.25098 -0.511719 -16.2871 -6.07715
q-9.90527 -5.41602 -10.6709 -9.75586q0.358398 -8.11816 15.4775 -49.2705q15.9893 -41.3057 29.625 -70.5635l12.7705 -29.1025l12.1045 -22.7188q14.5059 -29.4082 32.4824 -59.4307q17.8262 -30.8906 33.5537 -53.3545l3.4248 -5.97168l2.19336 2.29688
q4.23633 3.72852 10.3633 8.01855q7.14844 5.00391 10.9287 6.12891l2.9082 1.27734l-1.43066 2.04004q-5.31055 5.41309 -18.7422 25.6816q-13.2793 21.1377 -25.6895 42.1221q-32.2266 55.8057 -55.2109 108.189q-23.7012 53.4062 -33.6113 93.6406l-2.91406 13.9395
q-0.408203 2.75586 -1.27539 2.91016zM108.985 120.393l6.38184 0.664062q5.20801 -0.918945 13.3262 -0.55957l10.876 0.766602q1.89062 0.5625 -3.31738 1.48242l-24.1533 5.15332l-2.34766 -3.16699q-2.19531 -2.29688 -3.37109 -3.88086l-3.4707 0.612305
q-2.45117 1.32812 -4.59668 4.39062l-1.27734 2.91113l-6.94434 1.22461q-8.83301 0.661133 -14.7559 2.60156q-6.63965 2.95898 -8.06836 5.00098l-2.14648 3.06543q-2.8584 4.08496 -2.50293 11.1816q-0.357422 8.11914 2.90918 16.4922q0.458008 2.60547 2.96094 6.63867
q3.36816 3.88184 5.7168 7.04785l3.2168 3.0127l-0.40918 2.75684q-1.78809 10.1611 5.41113 20.5273q8.06445 10.2139 21.2881 14.1475q19.9141 6.33398 29.7676 6.38574q10.7236 -0.100586 40.9531 -6.3252l21.7012 -3.82617q-12.7168 4.03027 -25.123 9.79883
q-13.125 6.79004 -14.248 10.5684q0.15332 0.868164 -1.12402 3.77734q-3.37109 11.3369 4.54102 20.6807q7.91211 9.34668 26.8057 14.9639q7.55664 2.24902 13.7861 2.04492q7.25 0.511719 11.4375 -1.11914l5.76953 -2.80859q5.05566 -1.78711 10.9785 -3.72656
q13.585 -4.18457 28.4434 -11.2803l8.2207 -4.13574l3.0625 2.14453q6.28223 5.15918 15.7266 7.96777q9.59863 3.67871 16.6963 3.32129l3.62598 0.256836l1.78613 5.05469q8.47363 22.6719 19.1934 37.7871l7.19824 10.3662q6.33008 10.5195 11.8965 16.7002
q5.56543 6.17773 14.7539 12.6143q4.08496 2.85742 4.23633 3.72754q-0.5625 1.88965 3.01172 12q4.59375 10.8232 10.3613 23.2344l5.92285 13.2754l4.89844 12.5625l6.22754 15.0127q3.41992 9.24219 3.01074 11.999t-3.9834 7.8623l-49.7959 83.0693
q-2.55273 5.82129 -5.00488 7.14746q-4.74902 3.52344 -17.4648 7.55566q-13.583 4.18457 -16.9004 5.66406l-3.47266 0.612305l-12.9678 -7.55957q-15.7256 -7.96582 -23.4365 -11.083l-8.73145 -3.83008q-8.57715 -2.96387 -35.3828 -17.9277
q-8.01465 -4.85254 -13.835 -7.40527l-8.57812 -2.96191q-11.7949 -5.97656 -33.8506 -9.24707q-10.3145 -2.65527 -20.3232 -3.57812q-10.874 -0.766602 -29.7178 -1.02344q-9.85547 -0.0537109 -22.1602 1.2207q-12.458 0.40625 -24.6113 2.5498
q-17.3604 3.06152 -27.3193 7.50293q-9.80371 5.30664 -16.7988 16.3867q-6.8457 11.9473 -6.59277 23.54q0.918945 5.20703 2.86035 11.1309q1.93945 5.92188 3.98047 7.35352q2.04297 1.42773 2.50195 4.03418q-0.71582 1.02051 5.25879 4.44238
q6.83984 3.27051 13.2227 3.93359l14.5029 1.02246q16.3877 1.58496 32.6787 7.66309q16.2861 6.08105 22.4131 10.3701l21.5469 10.5205l11.7939 5.97559q1.8877 0.5625 4.64551 0.97168q3.77734 1.12402 6.38184 0.665039q2.75684 0.408203 4.08496 2.85938
q1.48047 3.31934 6.27832 5.15723q5.82227 2.55469 7.4043 1.38184q1.58496 -1.17578 3.93262 1.99023q3.21484 3.01367 13.1211 8.42871q10.0586 6.28027 16.1855 10.5703q7.14648 5.00586 16.4902 12.3076l14.4492 10.8789l46.6113 41.0059
q6.12891 4.29199 14.4492 10.8799q9.19043 6.43457 15.0098 8.99023q8.01758 4.84961 14.5527 6.38477q6.53516 1.53027 21.1885 3.42188l20.0146 1.8418q13.7871 2.0459 25.9922 5.2627l54.7344 10.9355q28.1846 7.55957 57.0332 8.73828l10.0078 0.919922
q2.60449 -0.458984 10.4668 3.52539q8.73047 3.83105 16.4414 6.94629l12.6611 5.82324q16.4404 6.94531 28.2344 12.9238q12.6641 5.82031 22.7227 12.1025l13.9893 8.27246q4.95215 2.70898 16.4902 12.3096l30.2246 24.2061q5.26074 4.44434 11.5391 9.60156
l5.10645 3.57422l-11.8018 39.6738q-0.972656 4.64551 -0.819336 5.51562q-0.714844 1.02051 0.612305 3.47168q1.48145 3.31836 2.34961 3.16406q8.62695 8.3252 16.4912 12.3096q8.88281 4.69727 11.1807 2.50293q2.29883 -2.19434 0.40918 -2.75684l3.11621 -7.70996
q16.8584 -56.6748 52.2529 -130.045q36.2627 -73.5225 79.4189 -138.414q7.86426 -11.2334 6.53809 -13.6826q-0.306641 -1.73633 -5.10645 -3.57617q-7.55664 -2.24707 -20.9854 -12.4111q-5.41113 -5.30957 -8.01465 -4.85156q-2.45117 1.32715 -8.0166 10.3652
q-6.28223 10.0576 -7.86523 11.2324q-1.58301 1.17285 -4.49414 -0.102539q-9.75195 -4.5459 -24.2012 -15.4229q-15.3154 -10.7285 -30.0713 -23.3418q-32.7246 -28.2402 -49.8789 -49.3828q-18.1768 -21.8555 -33.7959 -49.5322q-9.44336 -18.0254 -14.4961 -31.4551
q-5.9209 -13.2764 -10.7188 -30.332q-10.3613 -38.4492 -14.4434 -56.5264q-4.94922 -17.9219 -8.00977 -35.2842l-3.52051 -19.9648q-1.63574 -4.1875 -5.31055 -9.80469q-3.82715 -6.4834 -4.84863 -7.2002q-1.89062 -0.563477 -4.08594 -2.85938
q-5.41016 -5.3125 -13.5801 -11.0312q-8.32031 -6.58984 -9.34277 -7.30273q-1.88867 -0.5625 -5.97461 -3.42285l-13.9883 -8.27344l-9.03711 -5.56641q-7.8623 -3.9834 -19.248 -12.7178q-12.4062 -9.44629 -21.0342 -17.7715q-9.64941 -9.03906 -20.168 -17.9248
q-10.5166 -8.88672 -15.623 -12.4619q-5.97168 -3.42188 -17.8184 -14.7598q-8.62598 -8.32422 -20.7256 -16.0342q-12.2559 -8.58008 -23.0283 -13.8408l-7.86328 -3.98438q-14.7041 -7.25195 -19.7588 -5.46484q-0.71582 1.01953 -2.19531 -2.2998
q-2.34863 -3.16504 -8.32227 -6.58789q-5.10645 -3.57422 -6.84082 -3.26855q-1.58398 1.17285 -3.93262 -1.99121q-5.41211 -5.31152 -14.959 -3.62988q-1.73633 0.306641 -3.62598 -0.253906l-7.55664 -2.24805q-4.95312 -2.70801 -15.2656 -5.36328l-28.1855 -7.56055
q-11.334 -3.37305 -25.1191 -5.41602q-9.14062 -1.07324 -21.7529 -1.53516q-13.6328 -1.17578 -21.5996 -0.667969q-3.4707 0.612305 -10.875 -0.765625l-32.7812 -3.16992l-7.65918 2.24512q-7.81152 1.37793 -14.6035 3.46777q-6.63867 2.96191 -17.666 1.3291
l-14.1963 0.708984z" />
</svg>
