<?xml version="1.0" standalone="no"?>
<!DOCTYPE svg PUBLIC "-//W3C//DTD SVG 1.1//EN" "http://www.w3.org/Graphics/SVG/1.1/DTD/svg11.dtd" >
<svg xmlns="http://www.w3.org/2000/svg" xmlns:xlink="http://www.w3.org/1999/xlink" version="1.1" viewBox="-10 0 852 1024">
   <path fill="currentColor"
d="M699.903 110.002q-13.5869 5.0957 -23.7764 8.49316q-10.1895 3.39551 -13.5859 5.09473q-6.79297 3.39648 -14.4365 4.24512q-11.8877 0.848633 -28.4463 6.79395q-16.5586 5.94336 -27.5986 12.7373q-8.49121 5.94336 -16.1328 8.49121
q-7.64355 2.54785 -20.3809 3.39746l-6.79297 0.848633l-20.3799 4.24609q-11.8887 1.69727 -27.1729 6.36816q-15.2861 4.66992 -22.9277 8.06641q-13.5869 6.79395 -25.4756 11.8896l-18.6807 7.6416q-28.0225 13.5859 -33.543 19.9551q-5.51855 6.37012 -8.49121 8.91699
t-8.06738 5.94434q-7.6416 5.09473 -14.8594 11.0381q-7.21777 5.94531 -10.6143 11.8887l-15.2861 18.6826q-11.0381 12.7363 -16.5586 21.2285q-5.51953 8.49121 -17.4072 24.625l-4.24609 5.94434l-15.2842 5.09375q-14.4355 5.94531 -24.627 11.041
q-5.94336 3.39551 -16.5586 15.2842q-10.6143 11.8877 -17.4072 29.7207q-2.54688 11.04 -3.39648 28.8711v20.3818q0 10.1875 -2.12305 32.2666t-3.82129 32.2676q-3.39746 16.9834 -11.8877 46.7041l-6.79297 16.9834l-28.0225 61.1406l-11.04 27.1729
q-7.6416 19.5303 -19.1055 25.9004q-11.4648 6.36719 -18.2568 9.76367q-5.0957 2.54785 -14.0107 5.0957q-8.91797 2.5459 -14.8613 3.39648q-5.94434 0.849609 -15.2852 3.39648l-10.1895 2.54785q-0.849609 0 -2.54883 -6.79492l-5.94238 -22.9258
q-2.54785 -12.7373 -5.0957 -14.0107q-2.54785 -1.27441 -11.8877 1.69727q-9.3418 2.97168 -11.8887 6.36914q-0.849609 5.94434 7.6416 56.0439l21.2305 105.297l7.6416 31.4199l9.34082 33.9648q5.94434 22.9268 14.8604 50.5254q8.91699 27.5986 11.4639 31.8447
q2.54785 0 16.1348 -3.82129q13.5859 -3.82227 16.9824 -7.21777q0.849609 -1.7002 -0.849609 -11.0391q-1.69727 -9.3418 -5.09473 -16.9834l-5.09473 -18.6816l1.69824 -1.7002q5.09473 -4.24512 19.5303 -14.0107q14.4365 -9.76367 34.8154 -19.1055l28.0234 -11.8887
q20.3799 -8.49023 32.2676 -12.7373l24.626 -7.6416q6.79395 -1.69922 10.1904 -3.39746l13.5869 -6.79297q20.3789 -7.64355 45.0049 -22.9268l22.0781 -11.04q7.64258 -4.24609 25.4746 -15.2852l87.4648 -56.8936q30.5684 -22.0781 67.9316 -63.6865
q6.79395 -6.79297 19.5322 -20.3799l22.0771 -21.2295q18.6816 -18.6816 40.7598 -32.6934q22.0781 -14.0107 50.1006 -26.7471l81.5195 -40.7607q5.0957 -2.54688 12.7383 -7.64258q19.5293 -16.1338 20.8037 -40.3359q1.27344 -24.2002 -18.2568 -31.8428
l-11.0381 -3.39746q-8.49219 -2.5459 -16.9834 -3.82031q-8.49219 -1.27344 -22.9277 0.423828q-14.4355 1.7002 -21.2295 2.97266q-6.79297 1.27441 -17.4082 5.0957q-10.6143 3.82129 -17.4082 6.36816l-14.4346 5.94434q-7.64355 3.39648 -20.3799 11.0391
l-25.4756 15.2842q-41.6094 24.626 -54.3467 28.8721q-6.79199 2.54785 -9.34082 2.54785h-5.09473l-7.64258 -3.39746q-16.9824 -5.94434 -26.748 -14.0117q-9.7666 -8.06543 -19.9561 -25.8975q-6.79199 -11.8887 -14.8604 -23.3525q-8.06738 -11.4648 -14.8594 -18.2559
l-3.39746 -4.24805l5.09473 -10.1885q7.64355 -14.4365 10.1914 -25.4756q2.54688 -11.0391 0.848633 -28.8711v-2.54785l6.79395 -2.54688q10.1885 -4.24609 21.6523 -10.1914q11.4639 -5.94336 19.1064 -11.4629t17.4082 -17.832q9.76465 -12.3135 14.0117 -19.9561
q1.69824 -3.39648 4.24512 -7.6416q4.24512 -5.94531 5.94434 -7.64258q1.69727 -1.69922 6.79199 -1.69922q8.49219 -1.69727 17.833 -5.94434q9.3418 -4.24609 17.4082 -10.1885q8.06738 -5.94531 14.4355 -16.9844q6.36914 -11.0391 8.06641 -18.6816
q0.849609 -4.24512 2.12402 -5.51953q1.27344 -1.27246 7.21777 -2.12207q24.625 -1.69922 47.5527 -14.4365q22.9268 -12.7373 32.2676 -29.7207q2.54883 -5.09375 5.52051 -7.2168t8.91602 -9.34082t8.49121 -11.4639q9.34082 -20.3799 -3.39648 -34.8164
q-2.54688 -3.39648 -6.79395 -5.94434l-5.94238 -3.39648q-5.09668 -3.39648 -13.5879 -0.849609zM710.095 110.002q0 1.69922 -3.39844 6.79395q-3.39648 5.09473 -6.79297 8.49121q-5.09473 5.94531 -7.6416 7.21777q-2.54883 1.27441 -6.79395 1.27441l-16.9834 2.54688
q-10.1895 2.54785 -13.5859 1.69824q-3.39746 -0.847656 -3.39746 -4.24512q0 -1.69922 2.12207 -3.39648q2.125 -1.69922 13.1641 -5.0957l15.2842 -5.94434q28.8711 -10.1885 28.0234 -9.34082zM715.188 115.098q0.848633 0.848633 4.24512 3.39746l5.94434 5.09473
q1.69922 1.69727 4.24609 7.64258q5.0957 12.7373 -11.8877 34.8145q-5.0957 6.79492 -6.36914 7.64355q-1.27246 0.847656 -0.424805 -3.39746q0.848633 -2.54785 -0.423828 -10.6152q-1.27344 -8.06641 -8.06738 -19.1055q-2.54785 -3.39551 -5.0957 -5.09473
l-3.39648 -1.69824l2.54883 -1.69922q2.54688 -1.69727 5.94336 -5.94238q3.39746 -4.24707 5.09473 -8.49219q3.39648 -6.79395 7.64258 -2.54785zM650.652 132.08q-0.848633 3.39746 1.69824 7.64355l-17.833 5.94434q-5.94434 1.69824 -6.79199 1.69824
q-2.54785 -0.849609 -17.834 1.27344q-15.2832 2.12305 -21.2285 3.82129l-3.39648 0.848633l11.8887 -5.94336q22.0781 -11.8887 53.4971 -15.2861zM690.562 137.177q-0.849609 1.69727 -4.24609 8.06641q-3.39551 6.36816 -3.39551 7.21777
q-1.69922 2.54785 -19.5303 3.39648q-17.833 0.849609 -25.9004 -1.69922q-8.06641 -2.54688 -9.76465 -4.24512q0.847656 -0.849609 8.49121 -2.54688l15.2842 -4.24707q7.64355 -2.54688 19.5312 -4.66992q11.8887 -2.12305 17.833 -2.97168q2.54785 0 1.69727 1.69922z
M699.903 140.572q4.24609 5.0957 5.94531 10.6152q1.69727 5.51953 2.5459 13.1621q1.7002 22.9268 -23.7754 39.0615q-29.7207 19.5293 -56.0459 20.3799q-6.79297 0.849609 -8.49023 0.423828q-1.69922 -0.423828 -2.54883 -3.39648q-0.847656 -2.97266 -2.97168 -6.36816
q-2.12207 -3.39648 -3.82129 -3.39648l-1.69727 -1.69922q-54.3477 4.24609 -57.7441 4.24609q-3.39551 0 -18.6816 0.849609l-22.0771 0.848633q-28.0234 1.69824 -43.3076 8.49219q-5.94434 2.5459 -16.5596 4.24609q-10.6143 1.69727 -18.2559 3.39551
q-11.0391 3.39648 -19.5303 7.64258q-5.0957 2.54883 -13.1631 5.51953q-8.06641 2.97266 -12.3115 3.82129q-6.79492 0.849609 -13.1631 2.54688q-6.36914 1.7002 -8.91602 3.39746q-8.49219 5.09473 -0.849609 -3.39746q9.3418 -9.33887 25.4746 -19.5303
q5.0957 -3.39551 9.76562 -9.34082q4.6709 -5.94336 8.91602 -9.34082q4.24707 -3.39648 11.8887 -6.79199q7.64258 -3.39746 14.0117 -5.09668q6.36816 -1.69727 13.1611 -4.24512l20.3809 -10.1895q67.083 -22.9277 87.4629 -24.626q10.1904 0 28.0225 -5.09473
q8.49121 -3.39746 13.1621 -4.24609q4.66992 -0.849609 13.1611 -1.69824l14.4365 -0.849609q2.54785 0 3.39746 0.849609q9.34082 9.34082 39.0615 7.64258q10.1895 -0.850586 14.0107 -1.69824q3.82129 -0.849609 3.82129 -1.69824l6.79395 -18.6826
q2.5459 -3.39648 8.49023 4.24609zM581.021 166.896q4.24512 2.54883 3.82031 3.82129q-0.424805 1.27344 -0.424805 0.423828q-1.69727 -4.24512 -3.39551 -4.24512zM604.798 212.751q1.69727 1.69922 -1.27441 7.21875q-2.97168 5.51855 -5.0957 6.79297
q-2.12305 1.27441 -8.06543 1.27441h-8.49316l-13.5859 -2.54883q-14.4346 -3.39648 -18.6816 -6.36914q-4.24609 -2.9707 5.94434 -2.9707l7.64258 -0.849609zM609.044 215.299q5.09473 4.24609 6.79297 12.7383q0 5.09473 -4.6709 15.2842t-9.76562 16.9834
q-5.0957 6.79297 -14.4346 12.7363q-9.3418 5.94531 -18.6826 8.06836t-16.1338 2.97168l-5.94434 0.849609q-16.9824 0 -31.418 -0.849609q-14.4365 -0.848633 -18.6816 -2.54785q-0.850586 -0.849609 -5.09668 -5.0957v2.54883q0.850586 3.39648 0.850586 7.21777
q0 3.82031 -1.69922 6.36914l-1.69727 5.09375q-4.24609 7.64355 -15.2861 14.0117q-11.0391 6.36914 -24.625 8.91602q-3.39648 0.850586 -12.7383 0.424805q-9.34082 -0.424805 -17.832 -0.424805q-3.39648 -0.849609 -4.24609 0.850586l7.64355 1.69629l8.49121 0.849609
q5.94336 0.849609 5.09473 13.5869q-0.848633 25.4756 -15.71 47.9766q-14.8594 22.5039 -33.541 29.2969q-3.39648 0.849609 -3.39648 2.54785l5.0957 -0.849609q18.6807 -5.94434 38.2109 -37.3623l4.24609 -6.79297h5.94336q5.0957 0 12.7383 -2.12305t12.7373 -2.97266
l0.848633 9.3418q-0.848633 13.5869 -3.39648 23.7754q-2.54688 10.1895 -8.49121 22.9287q-1.69824 11.8867 7.21875 23.7744q8.91504 11.8896 18.2559 28.8721q11.0391 18.6826 18.6807 27.1738q7.64355 8.49121 16.9844 11.8877l8.49121 3.39648
q6.79297 3.39746 11.8887 5.0957l6.79297 0.849609q4.24707 0 16.1338 -4.24609q11.8887 -4.24707 19.5312 -7.64355l16.1348 -9.33984l15.2842 -11.0381q14.4365 -9.3418 25.4746 -15.7109q11.0391 -6.36816 22.0781 -10.6143l14.4365 -5.94434
q7.6416 -3.39648 18.2568 -6.79297t17.4072 -4.24609q10.1914 -1.69922 22.9277 -2.54785q12.7373 -0.847656 23.7764 1.69922l10.1914 1.69824q5.94238 1.69727 11.8867 4.24609q21.2305 11.8877 11.8887 41.6084q-4.24512 13.5869 -12.7373 21.2295t-31.4189 18.6807
l-26.3232 13.5869l-39.9111 19.5312q-29.7207 12.7363 -50.9492 27.1719l-11.8896 7.64355q-11.8877 8.49121 -30.1445 25.0498q-18.2578 16.5586 -37.7871 38.6367q-13.5869 14.4365 -28.0225 28.8721q-14.4365 14.4346 -24.627 22.9268q-4.24609 4.24707 -10.1895 8.49219
l-36.5137 25.4746l-72.1797 45.0059l-24.626 11.8887l-16.9824 10.1895q-17.833 10.1895 -37.3633 19.1064q-19.5303 8.91602 -32.2686 12.3125q-37.3633 11.8877 -75.1494 29.7197q-37.7891 17.833 -53.0732 32.2686l-3.39648 3.39746l-18.6816 -62.8389l-20.3809 -74.7266
l-10.1895 -43.3066q-6.79297 -25.4756 -6.79297 -29.7207q0 -0.849609 8.91504 -2.97266q8.91797 -2.12207 18.2578 -3.82031q11.8877 -1.69824 24.2012 -6.36816q12.3125 -4.67188 21.6543 -10.6152l11.8877 -7.64258q2.54785 -0.848633 2.54785 -2.97266
q0 -2.12207 3.39551 -8.06738l20.3809 -49.25q14.4355 -28.8711 19.5312 -41.6094l6.79297 -15.2852l5.09473 -12.7373l5.09473 -22.9268q2.54688 -7.64258 4.24609 -20.3809l3.39648 -21.2285q1.69824 -11.8887 2.54785 -40.7598l2.54688 -44.1562
q1.69922 -14.4355 14.0117 -30.5693q12.3125 -16.1348 23.3516 -22.0781q7.6416 -3.39648 19.5312 -8.06836q11.8877 -4.66895 11.0391 -2.97266l-11.0391 18.6826l-12.7373 22.9277l-12.7373 28.8711l-6.79395 22.9268l-0.849609 8.49219l2.54785 -9.34082
q2.54785 -10.1895 5.52051 -19.1055q2.97266 -8.91699 8.91406 -20.8047q4.24609 -9.3418 13.5869 -23.7773l17.833 -27.1729l11.8887 -16.1338l11.8867 -17.832q3.39844 -5.94434 8.06836 -11.8887q4.6709 -5.94434 8.06738 -10.1904l6.79297 -7.64258
q5.94434 -8.49023 11.0391 -11.8877q5.09473 -3.39648 16.1338 -5.09375l12.7383 -3.39746l11.0381 -3.39648l9.34082 -4.24512q7.64355 -3.39746 17.833 -6.36914q10.1895 -2.97266 17.832 -3.82227q5.09473 -0.848633 11.0391 -2.54688t11.0391 -3.39746
q17.833 -7.64258 42.459 -7.64258h11.8867l13.5869 -1.69727q8.49219 0 10.1914 0.848633q0.848633 5.09473 17.832 9.33984q33.1172 8.49219 36.5137 -0.423828t4.66992 -10.6143q1.27539 -1.69824 2.12402 0zM425.624 215.299q5.94434 0.849609 6.79395 3.39648
q0.848633 2.54688 1.69824 1.69824q-0.849609 -5.09473 -8.49219 -5.94336h-2.54785zM414.585 220.394q0 0.848633 2.54785 0.848633q5.09375 0 5.51855 0.849609q0.424805 0.848633 -0.847656 -0.423828q-1.27441 -1.27441 -3.82227 -1.69824
q-2.54688 -0.424805 -3.39648 0.423828zM492.709 228.886q2.5459 2.54688 0 9.34082q-2.54883 6.79297 0 2.12207q2.5459 -4.66992 2.12207 -8.06641q-0.425781 -3.39648 -2.12207 -3.39648zM376.373 267.098q0 -1.69824 3.82227 0q3.81934 1.69824 7.21777 4.24609
q5.94238 4.24609 5.09375 11.0391q-0.848633 -5.94531 -3.39746 -8.49219q-2.54688 -2.54688 -6.36816 -4.66992t-6.36816 -2.12305zM361.088 272.192q0.849609 0.848633 4.24609 1.69824q10.1885 0 11.0391 11.8887q0.849609 5.94336 2.12207 2.97266
q1.27441 -2.97266 -0.848633 -7.64258q-2.12402 -4.67188 -5.09473 -6.36816q-2.97168 -1.7002 -6.79297 -2.54883t-4.6709 0zM509.691 286.628q5.0957 0 10.1895 0.849609h29.7207l-0.848633 2.54688q-6.79395 8.49219 -8.06738 11.4639q-1.27246 2.97266 -3.82129 6.37012
l-8.49121 11.0381q-9.34082 13.5869 -23.3525 23.3516q-14.0117 9.7666 -36.0898 17.4082q-39.0605 15.2842 -37.3623 10.1895q5.09473 -11.8877 6.36914 -20.8037q1.27246 -8.91602 -0.424805 -23.3516q-1.69922 -1.69922 5.0957 -1.69922
q12.7363 -0.849609 27.1719 -8.06641q14.4365 -7.21875 22.9287 -18.2578q2.5459 -4.24512 3.39648 -7.64258l0.848633 -4.24512q0.849609 -0.848633 5.09473 0zM257.49 368.148q-5.0957 6.79199 -9.34082 17.4062q-4.24609 10.6152 -2.54785 10.6152
q0.849609 -4.24609 5.52051 -14.4346q4.66992 -10.1904 6.36816 -13.1621q1.69824 -2.97266 0 -0.424805zM372.127 502.315q1.69922 3.39746 4.24609 11.8887l7.6416 19.5312q7.64355 18.6807 8.49219 33.541t-4.24609 29.2969l-5.09375 14.4355
q-1.69922 4.24609 -2.54883 8.49121q-1.69824 11.0391 -0.848633 27.1738l5.09473 33.1162q2.54883 28.873 0 38.2129q0 7.64258 2.12305 0.848633q2.12207 -6.79199 2.97168 -13.5869q0.850586 -5.09375 0.424805 -10.6143q-0.424805 -5.51953 -2.9707 -14.8604
q-5.0957 -25.4736 -4.67188 -43.3066q0.425781 -17.832 6.36816 -33.9658q7.64355 -18.6826 6.79492 -34.8164q-0.849609 -16.1338 -10.1904 -37.3633l-11.8877 -26.3242q-1.69922 -5.09473 -2.12305 -5.09473q-0.425781 0 0.423828 3.39648zM637.915 512.505
q-0.848633 1.69922 1.69727 1.27441q2.54785 -0.423828 5.09668 15.71q3.39551 6.79297 1.27246 -1.69824q-2.12207 -8.49219 -4.24512 -12.3135q-2.12402 -3.82129 -3.82129 -2.97266zM523.278 563.455l5.09473 10.1895q11.04 25.4746 11.04 38.6377
q0 13.1621 0.847656 13.1621q2.54883 -0.849609 2.12402 -13.1621q-0.425781 -12.3125 -2.97168 -22.5029q-2.54883 -5.94434 -8.91797 -16.5586q-6.36914 -10.6152 -7.2168 -9.76562zM56.2383 664.505q3.39746 8.49219 12.7393 50.1006l39.0596 152.001l22.0791 73.0273
l4.24512 15.2861l2.54785 8.49023l-8.49121 4.24707l-17.832 5.94336q-1.69922 0 -24.626 -77.2744q-11.8887 -43.3066 -25.0508 -105.721q-13.1621 -62.4131 -23.3525 -117.608q-0.848633 -2.54688 1.27441 -3.82129q2.12305 -1.27344 8.91602 -2.97168zM204.842 733.287
q-1.69727 2.54785 3.82129 14.0117q5.51953 11.4639 12.7373 22.9287q7.21875 11.4619 14.4365 16.5576t19.1055 7.6416q8.49121 1.69922 11.0391 1.69922h2.54785l-2.54785 -2.54785l-11.0391 -2.54785q-11.8877 -2.54688 -19.1055 -7.6416t-15.71 -18.6816
q-5.94434 -8.49219 -10.1895 -16.5586q-4.24707 -8.06738 -5.0957 -12.3135v-2.54785z" />
</svg>
