<?xml version="1.0" standalone="no"?>
<!DOCTYPE svg PUBLIC "-//W3C//DTD SVG 1.1//EN" "http://www.w3.org/Graphics/SVG/1.1/DTD/svg11.dtd" >
<svg xmlns="http://www.w3.org/2000/svg" xmlns:xlink="http://www.w3.org/1999/xlink" version="1.1" viewBox="-10 0 943 1024">
   <path fill="currentColor"
d="M903.398 273.024q-17.6885 0.884766 -22.9951 0.884766q-5.30762 0 -1.76953 40.6846l-14.1514 0.884766q-9.72852 0 -17.6885 0.882812q-7.96094 0.885742 -22.1113 3.53906q-38.917 6.19043 -80.4854 21.6689q-41.5693 15.4775 -81.3691 38.4736l-63.6807 34.4932
l-18.5732 11.498l-4.42188 3.53906q-6.19238 5.30664 -15.9209 7.07422q-16.8047 2.6543 -32.2822 7.51855q-15.4775 4.86328 -26.9756 9.28613l-14.1514 6.19141q-15.0361 5.30664 -38.915 22.1113q-23.8809 16.8047 -40.6855 33.6084l-7.95898 7.96094
q-2.6543 2.65332 -3.53906 2.65332q-2.65332 0 -17.6885 7.51758q-15.0361 7.51855 -22.5547 12.8242q-7.5166 5.30664 -12.8232 11.498q-5.30664 6.19043 -11.498 17.6895q-4.42285 7.95898 -7.0752 11.498q-11.499 15.9199 -16.8047 29.1875
q-4.42188 11.4961 -13.2666 24.3213q-8.84473 12.8242 -16.8057 19.0156q-20.3418 17.6885 -49.0859 51.2979q-28.7451 33.6104 -36.7051 49.5293q-1.76953 3.53809 -2.65332 3.98047q-0.883789 0.441406 -2.65332 3.53809q-1.76953 3.0957 -3.53711 2.21094
q-3.53809 0 -7.07617 6.19043q-1.76855 3.53809 -3.53809 4.42188q-6.19043 3.53906 -22.1113 15.0371q-15.9189 11.4961 -30.9551 23.8789q-11.498 9.72852 -22.9971 15.9209q-7.0752 4.42188 -10.6123 7.0752l-13.2666 9.72949q-5.30762 4.4209 -9.28809 7.95898
q-3.97852 3.53809 -9.28613 7.96094q-12.3818 14.1504 -19.458 17.6885q-8.84375 4.42285 -15.0352 14.5938t-6.19141 19.0156q0 11.498 12.8252 19.9004q12.8242 8.40137 30.5127 8.40137q7.07617 0 21.2275 -4.4209q14.1514 -4.42285 22.1113 -7.96191
q16.8047 -9.72852 17.6895 -10.6123q0.882812 -0.884766 2.65234 -0.884766l10.6133 -0.884766q13.2676 -0.884766 28.3027 -7.51758q15.0361 -6.63281 28.7441 -17.6885q13.71 -11.0557 21.6689 -16.8047q7.96094 -5.74902 16.8047 -10.1719l8.84473 -3.53711
l9.72949 -2.65332q7.95996 -2.65332 15.0352 -5.30664q7.07617 -2.6543 9.72949 -4.42188q2.65332 -1.76953 6.19043 -0.443359q3.53809 1.32715 13.2676 0.884766q9.72949 -0.441406 15.0352 -1.32617q2.65332 0 13.709 -5.30664q11.0557 -5.30762 19.9004 -12.3828
l26.5332 -22.9951q38.0312 -30.0713 41.5684 -54.8369q0.885742 -6.19043 1.76953 -7.5166q0.884766 -1.32715 2.65332 -1.32715q4.42188 -0.883789 10.1719 -3.97949q5.74902 -3.0957 11.0557 -7.51855l6.19043 -5.30664h7.07617q13.2676 0 30.0703 -5.74902
q16.8047 -5.74902 31.8408 -15.4785l5.30566 -2.65234q0.885742 -0.884766 3.53906 -0.884766q7.95996 -0.883789 13.2666 -4.42188l1.76855 -1.76953l2.6543 1.76953q4.42188 2.65234 6.63281 3.53809q2.21191 0.883789 6.63379 0q7.95996 -0.885742 11.4971 -1.76953
l8.84473 -2.65332q7.0752 -1.76953 14.1514 -4.86426q7.0752 -3.09473 12.3828 -3.09473l15.9189 -2.65527q5.30664 -1.76758 15.4785 -2.21094q10.1719 -0.441406 22.5537 -2.65234t18.5732 -4.86426l9.72852 -3.53906q3.53906 -1.76855 5.30664 -2.65234
q1.76953 -0.884766 12.3818 -5.30664q25.6504 -10.6133 37.1475 -17.6895q7.0752 -4.42188 14.5938 -6.19043q7.51758 -1.76953 11.499 -4.86523q3.97852 -3.0957 6.63281 -6.63379q0.882812 -0.884766 3.53711 -2.65332q7.0752 -2.65332 15.4785 -6.63281
q8.40137 -3.98047 13.708 -8.40234l21.2266 -15.9199q12.3838 -7.95898 19.459 -16.8037q3.53711 -4.42285 4.86328 -4.42285q1.32715 0 3.53906 -0.884766q2.21094 -0.884766 5.74805 0q3.53809 0.884766 9.72949 0.441406q6.19043 -0.441406 10.6133 -1.32617
l3.53711 -1.76855l0.884766 23.8799l3.53809 1.76953q4.42188 1.76855 13.709 1.76855q9.28613 0 11.9404 -2.65332q0.883789 -0.884766 1.76855 -13.2666q4.42188 -302.482 6.19141 -312.212q0.884766 -4.42188 -3.53809 -4.42188q-1.76953 0 -5.30664 0.884766z
M906.936 282.754q-0.883789 6.19043 -6.19043 314.864q-12.3828 2.65234 -22.1113 0.883789q1.76953 -205.192 2.65332 -228.188l0.884766 -29.1855v-61.9121l24.7637 -0.884766v4.42285zM877.75 331.398l-1.76953 64.5645v48.6445v54.8359q0.884766 23.8809 0 34.4941
l-1.76953 29.1875l-1.76855 -7.96094q-0.883789 -7.0752 -2.21094 -11.9404q-1.32617 -4.86426 -3.98047 -11.4971q-2.65234 -6.63477 -3.53809 -5.30762q-0.883789 1.32812 1.76953 9.72852q2.65332 8.40332 3.97949 18.5742q1.32715 10.1719 0 13.709
q-1.32617 3.53906 -1.76758 5.75q-0.443359 2.20996 -7.51855 3.09473q-7.07617 0.883789 -11.498 -0.884766q-0.883789 -0.883789 -4.42285 0.884766q-6.19043 2.65332 -4.42188 -1.76855q1.76855 -8.84473 -0.441406 -19.459q-2.21094 -10.6123 -7.51855 -20.3408
q-7.95996 -15.0361 -8.84375 -12.3828q0 1.76758 2.65332 8.84473q12.3818 27.417 9.72852 47.7598q0 7.07617 -20.3418 20.3418l-11.498 8.84473q-9.72852 7.95996 -1.76953 -0.884766q8.84473 -11.4971 13.709 -22.1113q4.86523 -10.6123 0.442383 -11.4971
q-1.76953 -0.884766 -2.65332 4.42188q-5.30566 13.2676 -15.4785 27.4189q-10.1709 14.1504 -18.1309 18.5732q-7.95898 4.42188 -11.4961 4.42188q-3.54004 0 -6.19238 3.97949q-2.65332 3.98047 -8.84473 7.07617t-13.2666 4.86426q-1.76953 0.884766 -6.19238 3.53809
l-7.07422 4.42188q-6.19141 3.53711 -24.7637 11.498l-22.1113 8.84473q-1.76953 0 -11.499 3.53711q-21.2266 7.0752 -48.6445 8.84473q-9.72949 0.884766 -18.5742 2.65332l-12.3818 1.76953q-2.65332 0.884766 -8.84473 3.0957q-6.19043 2.21094 -11.9404 3.97949
q-5.74805 1.76855 -14.5928 3.53711q-8.84473 1.76953 -12.3818 0.884766t-10.6133 -6.19043q-5.30664 -3.53906 -6.63477 -3.0957q-1.32617 0.442383 1.76953 3.53809q3.0957 3.09473 2.65332 3.98047q-0.441406 0.882812 -4.42285 2.20996
q-3.97949 1.32715 -7.5166 1.76953q-3.53906 0.442383 -5.30664 1.32617l-7.07617 4.42188q-13.2676 7.07715 -28.3027 12.8242q-15.0352 5.74902 -30.0703 7.51855h-2.6543l6.19238 -5.30664q14.1504 -12.3818 18.5732 -15.4775q4.42188 -3.09668 10.6123 -6.63379
q15.0371 -7.0752 28.3037 -11.4971q13.2656 -4.42285 27.418 -6.19141q6.19043 -0.885742 8.40137 -1.76953t1.32617 -2.65332q-0.882812 -1.76953 -12.8242 -0.441406q-11.9395 1.32617 -25.2061 5.74805q-14.1514 5.30762 -27.8604 12.8242
q-13.709 7.51758 -19.0146 13.71q-2.65527 3.53711 -7.07617 6.19043l-14.1523 13.2666q-9.72754 7.96094 -14.1504 10.6143q-4.42285 2.65234 -9.72949 2.65234h-22.9951q-5.30664 -0.882812 -4.86426 1.76953q0.441406 2.65332 11.0547 2.65332
q7.07617 0 7.96094 0.442383q0.884766 0.441406 0.884766 2.21094l-1.76953 7.95996q-1.76953 5.30664 -5.30664 12.8252q-3.53809 7.5166 -7.07617 11.498q-3.53711 3.97949 -12.3818 11.9395l-15.0361 14.1514l-24.7637 19.458q-3.53906 3.53711 -11.0557 8.40234
q-7.51855 4.86328 -15.4785 8.40137q-7.95996 3.53906 -15.0352 4.42188l-7.95996 0.885742q-11.499 -0.885742 -15.9209 -3.09668l-4.42285 -2.21094h4.42285q9.72852 -0.883789 14.5947 -3.09473q4.86328 -2.21191 11.0557 -8.40234q6.18945 -6.19238 7.95898 -12.3818
q1.76855 -6.19238 0 -15.0361q-0.883789 -7.0752 -3.53711 -12.3818q-2.6543 -5.30859 -10.1719 -15.4785q-7.51758 -10.1709 -10.1719 -19.0156q-2.65234 -8.84473 -3.97852 -9.28809q-1.32812 -0.44043 0.441406 -3.97852q4.42285 -7.95996 7.95996 -17.6895
l2.65332 -9.72852q0.883789 -4.42285 1.76953 -10.6143q0.883789 -9.72754 1.76953 -14.1504q0.883789 -4.42188 3.53711 -7.07617l1.76953 -1.76855l3.53711 7.0752q1.76855 2.65332 6.19043 7.0752q4.42188 4.42285 5.30664 5.30664q0.884766 -1.76758 -3.53809 -7.0752
q-2.65234 -2.65332 -6.19043 -7.95898q-3.53809 -5.30762 -3.53809 -7.07715q0 -1.76758 2.6543 -6.18945q2.65332 -4.42285 3.97949 -2.6543t4.86426 6.63379q3.53809 4.86426 5.74902 4.86426t-3.0957 -5.75q-5.30664 -5.74805 -4.42285 -10.1699
q0.885742 -4.42285 9.72949 -13.2676q6.19141 -7.07422 6.19141 -2.65332q0 1.76855 1.32715 4.86523q1.32617 3.0957 2.65234 3.0957q1.32715 0 -0.883789 -6.19238q-2.21191 -6.18945 3.53711 -14.5928q5.75 -8.40137 21.6689 -20.7842l18.5742 -15.9209
q5.30664 -4.42188 5.30664 -5.74805q0 -1.32715 17.6885 -12.8242q7.07617 -5.30859 10.6143 -7.96094l8.84375 -8.84375l10.6143 -11.498l17.6885 -22.1113q5.30664 -6.19141 13.2666 -14.1514l9.72949 -7.95996l11.498 -8.84375l2.65234 -2.65527
q-30.9561 19.459 -40.6846 31.8408l-10.6133 13.2676q-18.5742 23.8809 -30.9561 31.8398l-12.3818 9.72949q-6.19141 4.42285 -9.72949 7.95996l-17.6885 15.0352q-26.5342 22.1104 -32.7246 35.377q-1.76855 2.65527 -3.53809 4.42285l-7.95996 7.96094l-5.30664 7.0752
l-3.53711 3.53809q-6.19238 8.84375 -7.51855 11.9395t-2.21094 3.98047q-5.30762 4.42285 -7.0752 22.9951q-0.885742 7.96094 -5.74902 19.9004q-4.86523 11.9404 -11.9395 23.4385l-11.499 21.2266l-5.30566 7.0752q-8.84473 11.498 -12.3828 24.7656
q-3.53906 13.2656 -0.884766 22.1113q0.884766 4.42188 8.40137 11.0557q7.51855 6.63281 14.5938 10.1709l2.6543 1.76758l-25.6494 8.84473q-7.96094 2.6543 -11.498 5.30664q-14.1514 8.8457 -23.8799 14.5928q-9.72852 5.75 -22.1113 10.1729
q-20.3418 7.95898 -34.0508 9.28613q-13.709 1.32617 -26.0928 -3.98047q-7.07422 -2.65332 -8.40039 -2.21094q-1.32715 0.443359 8.40039 5.75q5.30762 2.65332 8.40332 3.53711q3.0957 0.884766 10.1709 1.76855h2.65332l-1.76855 1.76953
q-6.19141 6.19141 -17.6895 12.3818q-7.07617 3.53711 -10.6133 5.30664l-10.6123 6.19141q-7.07617 4.42285 -11.499 6.19141l-16.8047 6.19043q-7.95898 1.76855 -16.3623 2.65332q-8.40137 0.884766 -17.2461 -1.76758q-15.9209 -5.30664 -22.9961 -15.4785
q-7.07617 -10.1719 1.76855 -24.3223q3.53809 -5.30762 6.63379 -8.84473q3.0957 -3.53906 9.28711 -6.19141q3.53809 -2.65332 7.95898 -6.19141q4.42285 -3.53809 12.3828 -10.6123q10.6143 -9.72949 17.6895 -15.0371l18.5732 -14.1504l4.42188 -2.65332v9.72949
q2.65332 -7.07617 3.53711 -9.72949l2.65527 -2.65234l7.95996 -6.19238l33.6074 -25.6484q7.96094 -6.19141 11.499 -8.84473l8.84473 -6.19238q4.42285 -3.53711 4.86328 -3.09473q0.442383 0.442383 0 5.30664q-0.44043 4.86523 0.885742 5.74902
q1.32617 0.884766 1.32617 -3.53809l2.65332 -10.6123q7.95996 -13.2666 7.07617 -10.6133q-0.885742 4.4209 -1.32617 10.1699q-0.443359 5.74902 0.882812 5.74902q1.32715 0 1.32715 -2.65332q0.883789 -7.95898 2.65332 -13.2656q-1.76953 14.1504 1.76953 13.2656
l3.53711 -9.72852q1.76855 -9.72949 3.97949 -15.4785q2.21191 -5.74902 6.63379 -11.9395q5.30664 -8.8457 13.71 -19.9004q8.40137 -11.0557 14.5928 -17.2461l9.72949 -12.3818l37.1455 -37.1475l5.30664 -5.30762l8.8457 -10.6123q6.19043 -7.96094 9.72852 -13.71
q3.53711 -5.74902 7.95996 -15.4775l7.95996 -15.9199l8.84473 -12.3818q3.53809 -4.42188 6.19043 -10.6143q9.72949 -19.458 22.1113 -28.3027q5.30762 -4.42188 22.1113 -13.2666q16.8047 -8.84473 19.458 -8.84473l-23.8789 35.3779q-7.96094 10.6143 -11.0557 16.8057
q-3.09668 6.19141 -4.42285 11.0557t0 4.86426t1.32617 -1.76953l7.95996 -15.9199l20.3428 -31.8408q9.72852 -14.1504 21.2266 -26.5322t22.9961 -21.2275l16.8037 -12.3818q22.1113 -17.6885 41.5703 -24.7646l15.9199 -6.19141q8.84375 -3.53711 21.6689 -7.51758
q12.8242 -3.98047 32.2832 -8.40234q6.18945 -0.883789 9.72852 -2.21191q3.53711 -1.32617 6.19043 -3.97949l49.5293 -29.1875l61.0264 -30.9551q22.1113 -12.3818 40.6855 -19.457q13.2666 -6.19238 34.0518 -12.8252q20.7842 -6.63379 42.8955 -12.8232
q10.6123 -2.65527 30.0713 -5.30762q19.457 -2.6543 30.9561 -3.53809l14.1514 -0.883789v12.3818zM824.683 482.64q0.883789 2.65234 6.19043 10.6123q12.3818 14.1514 15.0371 29.1875l1.76758 7.95996q0.884766 2.65332 1.76953 1.32715q0.883789 -1.32715 0 -7.0752
q-0.884766 -5.74902 -2.65332 -10.1719q-1.76953 -7.07617 -10.6133 -18.5732l-7.96094 -10.6143q-3.53711 -5.30664 -3.53711 -2.65234zM278.092 755.934q1.76953 2.65332 2.6543 7.0752q2.65332 7.96191 12.3828 21.2285q7.07422 8.84375 8.84375 14.1504
q1.76855 5.30664 2.65234 15.0361q0 7.0752 -0.883789 10.1699q-0.883789 3.09668 -3.53809 6.63477q-8.84375 12.3818 -28.3018 14.1504q-3.53906 0.884766 -4.42188 1.76953q-0.884766 0.883789 -7.07715 -2.6543q-6.18945 -3.53711 -11.0557 -8.40137
q-4.86328 -4.86426 -4.86328 -15.0361q0 -10.1709 4.42285 -21.6689q1.76758 -4.42285 3.97949 -7.51758q2.20996 -3.0957 6.63281 -8.84473q4.42188 -5.74902 9.72949 -16.3623l5.30664 -9.72949l1.76953 -2.65234zM186.109 893.909q-4.42285 3.53711 -15.4785 10.1699
q-11.0547 6.63379 -12.8242 7.51855l-6.19043 2.65332q-11.499 5.30664 -19.459 6.19043h-4.42188l4.42188 -1.76855q8.8457 -5.30762 13.2666 -11.4971l2.65527 -2.6543l2.65234 -0.883789q5.30664 0 14.1514 -2.6543q8.84473 -2.65332 16.8037 -6.19043
q6.19238 -2.65332 4.42285 -0.883789z" />
</svg>
