<?xml version="1.0" standalone="no"?>
<!DOCTYPE svg PUBLIC "-//W3C//DTD SVG 1.1//EN" "http://www.w3.org/Graphics/SVG/1.1/DTD/svg11.dtd" >
<svg xmlns="http://www.w3.org/2000/svg" xmlns:xlink="http://www.w3.org/1999/xlink" version="1.1" viewBox="-10 0 982 1024">
   <path fill="currentColor"
d="M39.9443 350.516q4.5127 1.80566 10.8311 2.70898q6.31738 0.901367 10.8301 3.60938q1.80469 1.80469 1.80469 21.6602v47.832q0 57.7607 1.35352 87.543q1.35449 29.7812 4.06152 66.7842l2.70703 29.7832q1.80566 24.3672 3.61035 33.3916
q0.902344 4.5127 0.451172 5.41602q-0.451172 0.902344 -4.96289 1.80469q-9.92773 2.70703 -15.3438 0.902344h-2.70703l-1.80469 -9.02539l-8.12305 -55.0518l-5.41504 -51.4424v-160.645l-2.70703 -17.1484q0 -7.21973 0.902344 -8.57324t4.51172 0.450195z
M175.319 385.713q22.5625 1.80566 44.2236 6.76953q21.6602 4.96387 39.71 12.1836l34.2939 11.7334l46.9307 18.9512l37.0029 17.1484q17.1475 8.12207 37.002 15.3418q19.8555 7.2207 23.4648 7.2207t12.6348 1.80469q9.02539 1.80566 18.0498 4.96387
q9.02539 3.1582 26.1738 9.92676q17.1475 6.76855 23.4639 10.3799l55.9551 27.9766q9.02539 4.5127 11.7324 7.2207l16.2461 11.7324q14.4395 8.12207 24.8184 16.2451q10.3789 8.12207 14.8906 18.9521l8.12305 14.4395q4.51172 6.31836 11.7324 12.6348l16.2451 15.3438
q12.6348 9.92773 20.7568 18.5q8.12305 8.57422 18.0498 20.3066l13.5381 15.3428q9.02441 9.92773 12.6357 15.3428q3.60938 5.41406 3.60938 9.02539q0.90332 6.31641 3.15918 5.41406q2.25586 -0.901367 3.1582 0.452148t3.61035 2.70703q2.70703 1.35352 4.96387 4.5127
q2.25586 3.1582 2.25586 5.86523q0 -4.51172 7.21973 2.70898l17.1484 15.3418l14.4385 14.4395l9.92773 8.12305q1.80566 0.902344 7.67188 6.31738t7.67188 6.31836q1.80371 0.901367 1.80371 2.70703q1.80566 1.80566 2.70801 3.60938q0 5.41504 0.451172 3.61035
q0.452148 -1.80469 -0.451172 -4.5127l-0.902344 -2.70703l5.41504 3.60938q6.31738 3.61035 19.4033 15.7939q13.0869 12.1836 21.209 20.3066l-1.80469 14.4395q-0.90332 1.80566 -5.41602 -1.80469l-8.12207 -6.31738q-2.70703 -1.80566 -6.31641 -5.41504
l-21.6611 -19.8555q-11.7324 -10.8291 -16.6953 -14.8906q-4.96484 -4.06055 -12.1836 -7.67188q-5.41602 -2.70703 -8.12305 -4.5127q-2.70801 -1.80371 -7.2207 -6.31641l-24.3662 -21.6602l-5.41504 -5.41504l-2.70898 -5.41504q-2.70703 -2.70703 -4.51172 -3.61035
q-0.902344 -6.31738 -9.02539 -16.2451q-8.12207 -9.92676 -27.9766 -29.7822l-16.2461 -16.2441l-18.0498 -19.8555q-6.31641 -7.21973 -9.02441 -11.7324q-2.70703 -4.5127 -3.15918 -4.06152q-0.451172 0.450195 2.70801 5.41504q3.15918 4.96289 7.67188 9.47559
l9.92578 11.7334l24.3682 24.3672q22.5625 23.4648 30.2344 34.2949q7.6709 10.8301 8.57324 20.7578q0.902344 2.70703 1.35449 2.70703q0.450195 0 -0.452148 -7.21973q-0.902344 -3.61035 3.60938 2.70703l3.61133 5.41504q0.901367 1.80566 0.901367 5.41504
q0.90332 1.80566 1.35449 2.25684q0.451172 0.450195 0 -2.25684t0.451172 -2.70703l4.5127 3.61035q4.5127 4.51172 4.96289 5.41504q0.452148 0.901367 1.35449 0.901367l15.3418 13.5371q3.61035 3.61133 6.31836 5.41602l8.12207 5.41504
q7.21973 3.60938 12.6348 7.6709q5.41504 4.06055 15.3428 13.9883l17.1475 14.4404q14.4404 11.7324 13.5381 13.5381q-0.90332 1.80469 -0.90332 -0.90332l12.6348 8.12207q4.5127 3.61133 14.4404 13.5381q9.92773 9.92773 13.0869 11.2812
q3.15918 1.35449 13.9883 9.92773q10.8301 8.57422 16.2451 13.9893l16.2451 14.4395q5.41504 4.51172 4.96289 8.57422q-0.450195 4.06152 -4.06055 7.6709q-1.80566 0.90332 -7.2207 3.15918q-5.41406 2.25586 -7.66992 1.80469q-2.25684 -0.451172 -5.86719 -3.15918
l-3.61035 -3.61035l-4.51172 -4.51172q-19.8545 -24.3672 -13.5381 -38.8076q0.90332 -3.60938 0 -2.70801q-5.41504 5.41504 -2.25586 16.2461q3.15918 10.8291 13.0869 23.4648q9.92773 12.6348 1.80371 4.5127q-1.80371 -2.70801 -4.5127 -4.5127l-20.7568 -9.92773
l-11.7314 -7.2207q-10.8311 -6.31641 -19.8555 -15.3418l-6.31836 -5.41504q-2.70703 -2.70703 -6.31641 -4.5127q-8.12305 -3.60938 -11.2812 -8.12207q-3.15918 -4.5127 -8.57422 -10.8311l-10.8301 -11.7314l-18.9521 -24.3682q-7.2207 -9.92773 -18.9531 -21.209
q-11.7314 -11.2812 -21.6592 -17.5977q-4.5127 -3.61035 -7.2207 -8.12305q-5.41406 -7.2207 -8.12305 -7.2207l6.31836 6.31836q6.31641 6.31641 27.0752 25.2695q8.12207 9.02539 15.3418 16.6963q7.2207 7.67188 17.1484 20.3066l11.7314 13.5371
q14.4404 15.3428 18.0508 24.3682l10.8301 4.5127q3.60938 1.80371 12.6348 9.92676q5.41504 5.41504 12.6348 10.8301t9.92773 6.31836l26.1719 14.4385q8.12305 4.5127 12.1846 13.9893q4.06055 9.47656 0.450195 19.4043q-0.902344 3.60938 -3.60938 5.41504
q-2.70703 1.80371 -10.8301 6.31641q-3.61035 1.80566 -12.1836 3.61133q-8.57422 1.80371 -12.1836 1.80371q-21.6602 0.90332 -81.2246 -38.8066q-12.6348 -7.2207 -11.7334 -7.67188q0.902344 -0.450195 1.80566 -3.1582q15.3428 -17.1475 -11.7324 -43.3203
l-9.02539 -7.2207q-1.80469 -1.80371 -5.41504 -9.92578l-9.92773 -18.9531q-4.5127 -9.02539 -6.31738 -11.7334l-9.92676 -14.4385q-1.80566 0 3.60938 6.31641l25.2695 46.0273l-0.902344 4.5127q-4.5127 18.9531 8.12305 37.9053q2.70703 3.61035 5.86621 6.76953
q3.15918 3.15723 2.70703 2.25586q-0.451172 -0.902344 -4.96289 -7.2207q-6.31836 -9.02539 -9.02539 -17.1475q-2.70801 -8.12207 -2.70801 -16.2441q0.902344 -7.2207 1.80566 -8.12402q3.60938 0.90332 12.1836 9.92773q8.57324 9.02539 12.1836 16.2461
q1.80469 3.60938 2.25684 9.92676q0.450195 6.31738 -0.90332 6.76855q-1.35352 0.452148 -4.96387 4.06152q-6.31738 6.31836 0.902344 0.90332q5.41504 -4.5127 0 2.70703q-5.41504 5.41504 -13.085 8.12207q-7.67188 2.70801 -14.8926 1.80566
q-18.0498 -1.80566 -32.9414 -12.6348q-14.8906 -10.8311 -29.3311 -31.5879l-8.12207 -10.8301q-4.5127 -5.41602 -4.5127 -7.67188t-4.5127 -5.86621l-18.9521 -14.4404q-7.21973 -4.51172 -12.1846 -11.7314q-4.96289 -7.21973 -11.2812 -16.2451
q-3.60938 -5.41504 -5.41406 -9.92773l-5.41504 -12.6348q-1.80566 0 0 4.06055q1.80469 4.0625 0 3.15918q-1.80566 -0.902344 -6.31738 -0.902344q-7.21973 0 -18.501 -1.80469q-11.2812 -1.80566 -16.6963 -3.61035q-14.4404 -6.31738 -27.9785 -15.7939
q-13.5371 -9.47559 -13.5371 -13.9883q0 -0.90332 -1.35352 -1.35352q-1.35352 -0.452148 2.25586 4.96289q1.80566 2.70801 0.90332 3.15918q-0.90332 0.451172 -9.02539 1.35352q-14.4404 1.80566 -27.0752 0.452148q-12.6348 -1.35449 -27.0742 -5.86719
l-15.3438 -3.61035q-9.92773 -2.70703 -18.0498 -5.41504q-8.12207 -2.70703 -7.6709 -4.06055t-2.25684 -1.35352q0 0.901367 -5.41406 -0.902344l-20.7578 -5.41504q-16.2451 -4.5127 -37.9043 -12.6348q-21.6611 -8.12305 -37.9053 -15.3438l-17.1475 -7.21875
q-44.2227 -19.8555 -59.5654 -36.1006q-1.80566 -2.70801 -5.41504 -4.96387q-3.61035 -2.25684 -5.41504 -2.25684l-21.6602 -12.6348q-20.7568 -16.2441 -27.5254 -28.8789q-6.76953 -12.6357 -8.57422 -29.7832q-1.80469 -9.92773 -2.70703 -0.90332
q0 2.70898 0.902344 8.12402q0.901367 5.41406 3.1582 10.8291q2.25586 5.41504 -1.35352 4.06152q-3.61035 -1.35352 -10.3789 -7.2207q-6.76855 -5.86621 -10.3789 -11.2812q-6.31738 -7.21973 -6.31738 -21.6592q0.902344 -8.12305 0 -8.12305
q-4.5127 0.90332 -2.70703 12.6348q1.80469 11.7334 7.21973 19.8555l1.80469 2.70703l-5.41504 4.5127q-3.60938 1.80566 -6.31738 1.80566q-8.12305 0 -16.2451 -7.2207q-8.12207 -7.21973 -11.7314 -20.7568l-1.80566 -8.12207q-1.80566 -3.61035 -3.61035 -1.35352
q-1.80469 2.25586 2.25684 11.7314q4.06055 9.47559 10.3779 16.6963l3.61035 2.70703l-23.4648 -0.902344q-12.6357 -0.901367 -27.9775 1.80566q-8.12305 1.80566 -14.4395 2.70703h-7.2207l-8.12305 -116.423v-96.5664q0 -1.80566 9.92773 -2.70801l18.0508 -2.70703
q14.4395 -1.80566 39.2588 -0.90332q24.8184 0.90332 40.1602 2.70703zM589.568 573.434q3.60938 2.70703 7.21875 6.31738q8.12305 6.31738 3.61035 0q-3.61035 -3.61035 -10.8291 -7.6709q-7.2207 -4.06152 -6.31836 -1.35449q2.70703 0 6.31836 2.70801zM539.027 609.534
q0 0.902344 2.70703 2.70703l12.6348 7.2207q6.31836 3.60938 5.86719 2.25586q-0.451172 -1.35449 -10.3789 -6.76855q-9.92676 -5.41504 -10.8301 -5.41504zM612.131 629.389q0 0.902344 2.70703 4.51172l12.6348 19.8555q5.41504 6.31836 -0.90332 0.90332
l-15.3418 -12.6348q-4.5127 -2.70801 -4.96387 -2.70801t3.1582 2.70801l42.418 34.2939q5.41602 4.5127 9.92773 8.12305l29.7822 20.7578l19.8555 15.3418l8.12207 8.12207q7.21973 9.92773 9.02539 15.3428q0.902344 2.70703 1.80469 3.15918
q0.902344 0.451172 -0.902344 -4.96387q0.902344 -0.902344 5.86621 4.06152q4.96387 4.96289 6.76855 5.86621q1.80469 0.902344 -6.31738 -7.21973q-6.31738 -6.31836 -9.02539 -9.92773q-0.902344 -1.80566 -4.5127 -5.41504l-12.6348 -11.7324l-18.0498 -13.5371
q-2.70703 -2.70898 -8.12207 -6.31836l-16.2461 -11.7324q-3.60938 -1.80469 -8.12207 -5.41504l-9.02441 -7.21973q-3.61035 -3.61035 -8.12305 -6.76855q-4.51172 -3.15918 -9.02441 -8.12305t-10.8311 -14.8916q-9.92578 -15.3418 -9.92578 -14.4395zM489.391 658.269
q2.70703 2.70703 11.7314 7.21973l10.8311 5.41504l-6.31836 -4.5127l-10.8291 -5.41504q-7.2207 -4.5127 -5.41504 -2.70703zM567.006 662.781q0 0.902344 12.6348 4.5127l28.8789 9.02441l7.2207 2.70703l35.1973 14.4404q18.9531 9.02539 34.2949 18.9531
q7.2207 5.41504 12.1836 10.3779q4.96484 4.96484 6.76855 8.57422q8.12207 9.92773 16.2461 25.2695l9.92676 21.6602q8.12305 17.1484 9.47656 23.917t-1.35352 13.9883q-2.70801 9.02539 1.80469 -0.902344l1.80469 -5.41504q0.90332 -3.61035 0 -5.41406
q0 -5.41602 -2.70801 -9.02539l-15.3418 -35.1982q-7.2207 -16.2451 -18.502 -30.2334q-11.2812 -13.9893 -17.5977 -18.502q-12.6348 -8.12207 -21.6602 -12.6348l-38.8076 -17.1465q-7.21973 -3.61035 -13.5381 -5.86621q-6.31641 -2.25684 -24.3662 -6.76855
q-18.0508 -4.5127 -22.5625 -6.31836zM675.306 722.347q-4.5127 6.31641 -9.02539 8.12207t-2.70801 2.25586q1.80566 0.451172 8.12207 -4.51172q6.31836 -4.96387 6.76855 -7.67188q0.452148 -2.70703 -3.15723 1.80566zM873.855 889.309q0 1.80469 1.80469 8.12305
l2.70801 8.12207q8.12207 14.4404 18.0498 22.5625q9.92676 8.12207 17.1475 5.41504q2.70703 -1.80566 6.31641 -4.5127q3.61133 -2.70703 3.15918 -3.60938q-0.451172 -0.90332 -3.15918 1.80371q-5.41406 6.31836 -9.47559 6.31836t-11.2812 -4.5127
q-17.1475 -12.6348 -23.4648 -34.2939q-1.80469 -8.12402 -1.80469 -5.41602zM946.957 923.604q-2.70703 4.5127 -7.21973 8.57422q-4.5127 4.06055 -7.6709 5.86621q-3.15918 1.80566 -4.06055 0.902344q-0.90332 -0.902344 -0.452148 -5.41504
q0.452148 -4.5127 -0.451172 -9.02539q0.90332 -5.41504 3.61035 -3.60938q5.41504 2.70703 6.76855 2.25586t6.31738 -2.25586q4.96387 -1.80566 6.31738 -3.15918t-3.15918 5.86621zM913.565 864.941q2.70703 -8.12305 -4.5127 -15.3418l-6.31836 -5.41602
l-9.02441 -9.02441q-23.4658 -24.3682 -35.1973 -35.1973q-12.6348 -11.7334 -18.9531 -16.2461l-10.8291 -7.21973q-4.5127 -2.70801 -9.02539 -7.2207q-2.70801 -3.60938 -7.2207 -6.31641l-6.31641 -5.41504l-37.0029 -33.3936q-5.41504 -4.51172 -7.2207 -7.21875
q-1.80371 -2.70703 -4.5127 -3.61035q-3.60938 -1.80566 -4.51172 -3.60938l-2.70703 -2.70801l-2.70703 -4.5127q0 -3.61035 -9.92773 -14.4404l-38.8086 -44.2227l-9.02539 -9.02441l-10.8291 -9.92773q-12.6348 -9.92676 -19.8555 -17.1475
q-7.21973 -8.12207 -10.8291 -15.3418l-5.41504 -10.8301l-10.8311 -13.5381q-9.92773 -9.02441 -23.4648 -18.0498l-22.5625 -14.4404q-3.60938 -3.60938 -13.5371 -9.02441q-10.8301 -5.41602 -22.5625 -10.8301l-17.1475 -9.02441q-6.31738 -3.61133 -12.6348 -6.31836
l-47.832 -19.8555q-7.2207 -2.70703 -12.6357 -3.60938l-11.7324 -2.70703q-5.41504 -1.80566 -9.02539 -1.80566q-3.60938 0 -7.21875 -1.80469l-11.7334 -3.61035l-20.7568 -8.12207l-23.4658 -10.8301l-11.7314 -4.51172l-43.3213 -18.9531l-61.3691 -22.5625
q-40.6123 -14.4404 -95.665 -19.8555t-91.1533 1.80566l-5.41504 0.902344v-14.4404q0.902344 -11.7324 0 -15.3428q-1.80469 -4.5127 -9.02441 -7.21973l-19.8545 -5.41504q-5.41602 -1.80566 -7.2207 -0.902344l1.80469 34.2959v156.132q2.70801 38.8066 6.31836 66.7842
l9.02539 56.8584q1.80371 1.80469 14.4385 0q13.5381 -1.80566 17.1484 -4.5127q0 -2.70801 -0.902344 -16.2451l-1.80566 -16.2451l-0.902344 -13.5371l22.5625 -2.70801q8.12305 -1.80469 16.2451 -1.80469q9.02539 0 16.2451 0.90332l21.6592 0.901367l3.61133 1.80566
q5.41406 2.70703 9.92676 2.70703t12.6357 -5.41406q0.901367 -1.80566 3.60938 1.80371q7.21973 6.31836 14.4404 9.02539l5.41406 1.80566l2.70801 4.51172q14.4404 28.8799 50.54 44.2227l4.5127 1.80566l11.7324 9.92676q7.21973 6.31738 27.0752 18.0498
q19.8555 11.7334 32.4902 16.2451l56.8564 22.5625q17.1475 7.21973 42.418 13.5381l8.12207 1.80371q5.41602 1.80566 8.12305 2.70898q9.02441 4.51172 23.4648 8.12207q15.3428 4.5127 28.8809 8.12207q9.02441 1.80566 20.7568 2.70801q12.6348 0.901367 23.4648 0
l10.8291 -1.80566l7.2207 5.41602q6.31738 5.41504 17.1475 10.8291q10.8311 5.41504 17.1475 8.12305q8.12207 2.70703 18.9531 3.61035q11.7314 0.902344 15.3428 0.902344q3.60938 -0.902344 4.5127 0q1.80371 0.901367 4.51172 6.31641q5.41406 10.8311 12.6348 20.7588
q8.12305 10.8291 17.1475 17.1475l16.2451 12.6348q3.61035 2.70703 5.41504 6.31738q1.80566 4.5127 4.5127 8.12207l6.31738 9.02539q23.4658 37.0029 53.2471 45.125q14.4404 2.70703 23.4658 0q9.92773 -2.70801 11.7314 -3.60938q2.70898 -1.80566 4.5127 -1.80566
l7.2207 5.41504q26.1729 18.9531 47.832 29.7822q22.5625 10.8301 36.1006 10.8301q3.60938 0.90332 10.8301 -0.902344q8.12207 -1.80566 15.3418 -5.41504q8.12207 -3.61035 10.8301 -6.31738q2.70703 -2.70801 3.61035 -4.5127q0.902344 -2.70801 1.80566 -2.70801
q10.8291 -5.41504 18.0498 -14.4404q8.12207 -9.92578 9.02441 -17.1465q0 -3.61035 -1.80469 -6.31738q-1.80566 -3.61035 -8.12305 -8.12305l-20.7578 -18.0498l-11.7324 -10.8301q-1.80469 0.90332 -5.41504 -2.70801l-8.12207 -6.31641
q-4.5127 -2.70801 -9.02539 -7.2207l-7.21875 -7.21973q-3.61133 -3.60938 -4.5127 -5.41504q-1.80566 -2.70703 -1.80566 -5.41504l1.80566 -10.8301q0 -0.902344 12.6348 11.7324l15.3418 14.4404q4.5127 4.5127 6.31738 9.02441q1.80566 3.61035 0.90332 8.12305z" />
</svg>
