<?xml version="1.0" standalone="no"?>
<!DOCTYPE svg PUBLIC "-//W3C//DTD SVG 1.1//EN" "http://www.w3.org/Graphics/SVG/1.1/DTD/svg11.dtd" >
<svg xmlns="http://www.w3.org/2000/svg" xmlns:xlink="http://www.w3.org/1999/xlink" version="1.1" viewBox="-10 0 1087 1024">
   <path fill="currentColor"
d="M506.436 417.734q-17.4502 3.08203 -28.2061 7.2168q-10.7539 4.13672 -22.7334 13.584q-11.9775 9.44824 -16.3164 12.3262q-4.33984 2.87988 -18.5645 9.31836q-9.94238 3.09961 -16.3018 4.81836q-6.3584 1.71777 -9.36816 3.96582q-3.00879 2.24609 -7.51855 3.7373
l-46.5996 17.9229q-9.82812 4.02148 -23.1855 9.88574q-13.3584 5.86328 -26.5449 13.1123l-18.7363 7.93164q-2.60352 1.72852 -4.62012 1.79883q-0.668945 0.0234375 -1.27441 -0.135742q-1.08496 -0.287109 -3.72754 -0.195312q-3.25391 0.114258 -8.86719 0.803711
l-12.7168 3.4375q-0.488281 0.0585938 -1.04785 0.0791016q-3.67285 0.12793 -10.3877 -1.48926l-9.47266 -0.714844l-11.9053 2.40039q-11.0947 1.36133 -17.4521 3.08008l-16.3008 4.81738l-21.2656 2.61035l-5.77441 -1.16602q-1.91211 -0.00390625 -3.85352 0.0634766
q-13.3076 0.464844 -27.9863 4.31543q-16.8203 4.41113 -28.9697 12.4717l-4.62207 0.567383l-14.4365 -2.91992l-12.1318 0.550781q-5.54785 0.681641 -11.793 3.32617q-3.35645 3.22559 -3.64941 4.6709q-0.292969 1.44238 -2.60352 1.72656
q-2.31152 0.28418 -6.01855 4.49316q-3.70508 4.20898 -5.50684 8.65234q-1.3291 3.28418 -1.14941 8.43262q0.0634766 1.81934 0.314453 3.87109q0.964844 7.85938 4.41992 13.0654t12.6836 11.5811t18.8154 8.0127l6.8125 1.98047q5.77441 1.16797 9.58496 1.6377
q2.27832 0.280273 4.84375 0.191406q1.73047 -0.0605469 3.5918 -0.289062l7.39648 -0.908203l6.22852 4.86816q11.5322 9.84473 23.5996 12.5869q12.0674 2.74121 30.3799 2.83789q3.43945 0.0185547 6.38477 -0.0849609q12.7324 -0.444336 16.2109 -3.15723
q1.73438 -1.15234 4.50879 -1.49414q0.44043 -0.0537109 0.978516 -0.0722656q2.8584 -0.0996094 8.49316 0.787109l41.1191 6.21484l10.5088 1.52344q0.573242 -0.0703125 1.08398 -0.0878906q2.79297 -0.0976562 3.7666 1.37109q10.9648 5.22168 28.6357 7.74512
q11.2598 1.60742 23.6035 1.17578q7.02832 -0.245117 14.4102 -1.15234l12.9424 -1.58789l0.113281 0.923828q6.53613 22.6602 16.0498 31.3457q9.51172 8.68652 27.6475 11.1523q25.585 2.97266 45.5859 2.27344q29.1182 -1.01562 46.3984 -9.81348
q12.251 -6.39355 12.1299 -9.85352q-0.0185547 -0.523438 -0.322266 -0.981445q-0.613281 -0.479492 -1.3291 -0.455078q-1.70508 0.0605469 -3.99121 2.98535q-9.375 7.7207 -24.8652 11.5q-8.76562 2.13672 -24.0381 2.6709q-11.7178 0.40918 -27.2656 -0.126953
l-23.6826 -1.7832q-7.50977 -0.0175781 -10.623 -2.4502l-3.11426 -2.43262l5.54688 -0.681641q5.54688 -0.680664 14.5088 -4.12695q8.96191 -3.44727 9.95117 -6.85352q0.810547 -2.79297 0.728516 -5.15918q-0.0185547 -0.520508 -0.0791016 -1.01953l-1.13477 -9.24609
q-1.0918 -5.56836 -1.35156 -13.0078q-0.338867 -9.7002 0.736328 -22.5801q0.848633 -8.09277 0.675781 -13.043q-0.0908203 -2.60938 -0.46582 -4.3457q-1.08691 -5.02832 -3.45508 -5.20508q-0.214844 -0.015625 -0.478516 -0.00683594
q-2.66309 0.0927734 -10.4453 2.75586q-3.92578 1.34277 -3.90918 1.80664q0.00976562 0.291016 1.57031 0.237305q1.375 -0.0488281 3.95312 -0.365234l10.1699 -1.24902l0.681641 5.54785q0.390625 3.18457 0.513672 6.70898q0.0917969 2.61816 0.0351562 5.42188
q-1.40918 11.4365 -1.08691 21.7197q0.0195312 0.59375 0.0400391 1.1748q0.331055 9.4834 1.08008 15.5811l1.02051 8.32129q0.0820312 0.668945 0.104492 1.29297q0.0673828 1.9541 -0.459961 3.44336q-4.05566 5.18945 -16.3096 8.57129
q-6.89355 1.90234 -11.7734 2.07227q-3.79297 0.132812 -6.37012 -0.782227q-9.11328 -5.45117 -15.8936 -22.4502q-3.09766 -9.94336 -4.4209 -13.0635q-0.583984 -1.38086 -0.636719 -2.91699q-0.0683594 -1.94238 0.710938 -4.13281q0.94043 -7.62402 5.86328 -13.3896
t18.8066 -14.9775l12.8477 -10.0244q8.4502 -7.6084 23.666 -17.4521q15.2139 -9.8457 29.3252 -17.209l13.1875 -7.25q5.20605 -3.4541 8.79102 -4.83398q3.58398 -1.37793 11.792 -3.3252q14.792 -1.81738 25.9443 -2.71582q2.36719 -0.19043 4.7041 -0.272461
q8.67773 -0.302734 16.958 0.898438l25.5312 1.55664l11.5469 2.33691q6.81348 1.97852 18.1348 2.46484q8.79004 0.441406 17.335 0.142578q12.5693 -0.438477 24.6104 -2.47656l26.9248 -2.36719l10.2832 -0.325195l39.2705 6.44043l6.00098 3.01758
q4.96289 2.20605 8.19043 5.56348l18.6865 14.5977q12.6836 11.5811 19.1387 18.2969q6.45508 6.71484 7.89746 7.00586q0.1875 0.0390625 0.344727 0.0332031q0.912109 -0.0322266 0.860352 -1.5166q-0.0078125 -0.24707 -0.0439453 -0.53418
q-0.283203 -2.31152 -6.68262 -8.56445q-6.39941 -6.25195 -12.6279 -11.1191l-15.6836 -13.0898q-11.4189 -8.9209 -18.5723 -13.6729q-2.0752 -1.62402 -6.9248 -2.9043q-4.85059 -1.28223 -16.2861 -2.69238q-17.3223 -3.50488 -26.7383 -3.75684
q-1.81152 -0.0478516 -4.30176 0.0390625q-10.4492 0.364258 -32.8506 3.11523l-20.4531 1.57324q-6.47168 0.793945 -12.5381 1.07031q-0.180664 0.00878906 -0.362305 0.015625q-5.96191 0.208008 -14.3662 -1.49219l-11.5479 -2.33594l-34.3057 -4.23535
q-9.28125 -1.3916 -19.4404 -1.03711q-8.67676 0.303711 -17.9961 1.88086q-20.2266 3.42285 -31.79 8.59668l-14.8096 9.32617q-14.1133 7.3623 -27.1865 15.5381q-13.0723 8.17383 -21.6377 14.8555l-18.9775 13.5938q-24.7109 17.3486 -24.2129 31.6025
q0.0244141 0.697266 0.109375 1.3877q0.0566406 0.461914 0.0712891 0.876953q0.101562 2.91504 -1.87207 3.56738q-2.25488 0.746094 -10.5742 1.76758q-5.12988 0.405273 -10.1533 0.580078q-15.9111 0.555664 -30.7471 -1.19043q-19.5195 -2.29395 -25.75 -7.16113
q-0.113281 -0.922852 -10.5098 -1.52441l-36.2676 -4.93164q-18.2471 -3.39062 -31.873 -7.34863q-13.624 -3.95801 -17.8896 -8.12598q-1.98145 -1.54785 -2.91406 -1.51465q-0.0449219 0.000976562 -0.0869141 0.00683594l-5.66113 -0.245117
q-11.5488 -2.33496 -24.6631 -2.13184q-2.72363 0.0410156 -5.36035 0.133789q-10.0576 0.350586 -18.8467 1.42969q-4.85449 0.595703 -8.48828 0.723633q-2.59668 0.0898438 -4.56934 -0.0585938q-4.73633 -0.357422 -11.5488 -2.33496l-5.8877 -2.09375
q-3.81152 -0.469727 -11.2578 -3.7793q-7.44336 -3.30859 -12.748 -8.28809q-9.0498 -7.07129 -9.48242 -19.4766q-0.0644531 -1.82715 0.0585938 -3.7666q0.714844 -9.47363 10.3174 -15.3447q6.68555 -4.08789 16.1084 -4.41797q4.10938 -0.143555 8.73926 0.427734
q8.1875 0.541992 13.1006 0.371094q7.01074 -0.246094 7.35449 -1.94238q0.583008 -2.8877 10.4121 -6.91113q9.8291 -4.02148 21.6221 -7.34766q10.9707 -2.60059 20.543 -2.93457q4.75098 -0.166992 9.15723 0.226562q2.13867 -0.0253906 3.82227 -0.0830078
q4.94824 -0.172852 5.94141 -0.644531q1.33008 -0.635742 12.4238 -1.99707l11.0957 -1.36133l9.13184 -2.05957q16.3584 -5.28027 31.0244 -5.79199q6.375 -0.222656 12.4287 0.456055q5.37305 0.105469 6.97852 0.0488281q0.361328 -0.0117188 0.532227 -0.0322266
q11.2979 -2.94141 22.9072 -3.34668q2.40723 -0.0839844 4.82812 -0.0595703q8.32227 -1.02148 10.0557 -2.17188l42.791 -18.3936l59.9014 -24.2471q8.79004 -4.83301 10.0645 -5.92773q1.27246 -1.09668 6.59277 -3.62598l9.94336 -3.09766
q6.3584 -1.71973 20.6406 -7.69629q14.2812 -5.97656 17.752 -8.2793l17.2432 -12.4404q7.64062 -6.56934 15.1572 -10.3086q7.51758 -3.73828 23.123 -6.59277q7.28125 -1.83301 11.9043 -2.40039q2.21387 -0.271484 4.66504 -0.357422
q2.66895 -0.0927734 5.61914 0.0332031l17.0947 1.6543q15.9453 -0.0791016 41.8164 4.25098q25.8711 4.33105 49.0811 9.92871l25.9854 5.25488q14.209 1.07129 37.7773 1.93164l40.6631 2.51562l27.2656 0.40625q0.760742 -0.0302734 1.5332 -0.0566406
q10.6309 -0.37207 23.7715 -0.235352l21.8301 2.01172l29.3438 2.02734q10.4707 0.663086 27.5244 0.0683594q7.59668 -0.266602 16.4971 -0.780273q19.5283 -1.45996 41.9443 -2.33398q4.45508 -0.173828 8.48926 -0.314453q16.2588 -0.568359 25.6553 -0.59375
q6.68457 -0.0185547 10.6123 -0.155273q2.95898 -0.103516 4.34961 -0.273438q3.08203 -0.378906 3.02344 -2.0752q-0.00390625 -0.0849609 -0.0146484 -0.171875q-0.227539 -1.84961 -26.6816 -3.29297q-9.78223 0.49707 -23.7773 0.986328
q-4.6875 0.163086 -9.84766 0.325195q-1.54199 0.0498047 -3.08398 0.103516q-19.0166 0.664062 -37.9355 2.11816q-23.4551 0.0644531 -45.0605 -0.0976562t-30.7275 -1.85742q-8.10156 -1.50488 -28.1377 -0.805664q-2.53125 0.0888672 -5.25391 0.211914
l-36.5088 0.729492l-34.0801 -2.38574q-21.8311 -2.01074 -39.3896 -3.60938q-17.5586 -1.59668 -26.334 -4.27441q-25.0596 -5.36914 -50.0059 -9.81348q-24.9463 -4.44629 -44.7021 -4.83496l-14.209 -1.07129zM988.126 358.59q-5.22363 10.9658 -10.2695 73.0557
q-5.04492 62.0898 -6.3125 112.924q-1.10254 29.2285 0.364258 71.749q0.046875 1.38379 0.0957031 2.76172q1.43164 41.0049 3.25293 78.0068l0.664062 13.0576l-6.7002 -1.05469q-9.81152 -3.4873 -16.3975 -3.61719t-24.3799 0.177734l-19.5283 1.45996
q-5.5459 0.680664 -7.33887 1.37012q-1.79297 0.688477 -8.55566 2.92773q-5.58398 1.84668 -6.91211 1.89355q-0.28125 0.0107422 -0.37207 -0.0615234q-0.220703 -0.171875 -0.242188 -0.791992q-0.0292969 -0.838867 0.306641 -2.50098
q1.83105 -4.12012 1.67383 -8.64355q-0.0332031 -0.925781 -0.148438 -1.86719q-0.532227 -4.33789 -1.29395 -4.31055q-0.700195 0.0244141 -1.59375 3.72754q0.0302734 0.239258 0.0390625 0.495117q0.164062 4.70605 -6.54297 15.3193q-3.35742 3.22852 -10.9971 9.79688
q-7.64062 6.56738 -12.8467 10.0244q-17.6875 7.91113 -33.5332 8.46387q-4.87695 0.170898 -9.58008 -0.355469q-6.58594 -0.130859 -17.6719 -2.52344t-12.6426 -3.60938q-0.69043 -0.539062 -1.49609 -0.511719q-1.01074 0.0361328 -2.20312 0.96582
q-2.14062 1.6709 -16.3018 4.81836q-12.3252 2.7373 -26.7021 3.24023q-2.13965 0.0742188 -4.3252 0.0996094q-33.041 -1.57422 -44.9307 -6.68359q-11.8887 -5.1084 -21.3525 -9.58008q-9.46484 -4.46777 -25.6201 -13.7461q-23.1953 -13.1064 -43.8018 -20.4297
q-20.6074 -7.32422 -43.4785 -10.1455l-44.8164 -5.76172l-28.7568 -4.91309q-5.66211 -0.244141 -11.5498 -2.33691q-9 -2.88477 -11.5078 -2.79688q-0.984375 0.0351562 -0.96875 0.52832q0.000976562 0.0224609 0.00390625 0.0458984q0.227539 1.84863 10.4453 4.81738
q10.2197 2.96973 14.2578 5.28906l26.9102 5.14258l41.0039 5.28809q27.6055 3.17871 47.751 10.5596q20.1455 7.37988 44.3779 21.2979q30.1211 16.0107 50.9629 21.4287q20.8428 5.41895 41.5244 5.69336q1.0293 0.00292969 2.19434 -0.0380859
q7.33398 -0.255859 20.0508 -2.22461q14.7354 -2.27832 22.7168 -6.07129l4.50879 -1.49414l13.7373 4.88281q12.7002 4.07227 20.2666 4.5498q2.09668 0.133789 4.4873 0.0488281q6.24805 -0.216797 14.5244 -1.91211q11.4424 -2.3457 19.0742 -5.15723
q7.63184 -2.81445 14.3467 -9.27246l9.2627 -8.64355l6.60059 -7.37988l3.8125 0.470703q5.54688 -0.680664 16.9336 -3.4873q11.3867 -2.80566 26.292 -3.69727q18.9463 1.42773 26.0508 1.96191q7.10352 0.537109 19.8037 4.6084l1.96387 0.697266l2.06055 9.13184
q1.81543 14.793 4.62207 26.1797q2.80371 11.3857 4.0127 13.584q1.08984 1.98242 3.45215 1.90039q0.256836 -0.00878906 0.529297 -0.0419922q1.12207 -0.138672 2.86816 -0.199219q2.57031 -0.0908203 6.49121 -0.0126953l17.3242 3.50488
q1.62109 0.157227 2.98145 0.109375q5.80859 -0.203125 6.84668 -4.13281q-0.793945 -6.4707 -3.64941 -22.0762q-6.34375 -44.1953 -8.29785 -100.152q-0.0449219 -1.25684 -0.0849609 -2.52051q-1.89648 -57.4834 0.634766 -105.657q5.82422 -74.8564 19.0293 -143.109
l0.827148 -8.54883q0.943359 -4.66699 0.828125 -7.97852q-0.0273438 -0.78418 -0.113281 -1.49316zM995.733 367.04q4.96191 2.20605 18.5879 6.16602l16.5117 4.54297l-0.356445 4.73535q-8.40332 38.5703 -16.4492 99.1523q-8.04785 60.582 -7.5791 110.264
q0.25293 17.6533 0.821289 33.9268q3.0498 87.3535 15.2168 134.909q1.51367 2.75098 1.55859 4.02832q0.0263672 0.763672 -0.47168 1q-0.381836 0.181641 -1.05469 0.205078q-1.66895 0.0585938 -5.12402 -0.854492q-9.55078 -2.52344 -20.5615 -2.13867
q-0.172852 0.00585938 -0.34668 0.0126953l-5.66113 -0.243164l-7.29883 -44.1504l-0.875 -22.416q-1.7998 -22.3027 -3.92285 -54.8896l-0.0634766 -23.4551q-0.316406 -6.21289 -0.526367 -12.2002q-0.668945 -19.1758 -0.235352 -36.0381
q0.567383 -22.123 1.7832 -50.4268q1.21875 -28.3037 2.8252 -49.6182q1.60449 -21.3125 3.74707 -49.7314l6.92773 -50.5889q-0.0683594 -0.547852 -0.0839844 -0.994141q-0.0693359 -2.00098 0.887695 -2.03516q0.641602 -0.0224609 1.74316 0.837891zM72.7568 554.508
q8.09082 1.17383 8.1377 2.50195q0.0136719 0.396484 -0.693359 0.807617q-1.18555 0.69043 -3.78125 0.78125q-4.11035 0.143555 -11.7568 -1.21777q-4.13086 -0.178711 -7.66113 -0.0556641q-6.14941 0.214844 -10.4814 1.34375q-3.14453 0.819336 -3.89258 0.844727
q-0.232422 0.0078125 -0.234375 -0.0595703q-0.00683594 -0.189453 1.75879 -0.963867q4.45215 -1.95508 9.83008 -4.02148q2.41992 -0.931641 4.94238 -1.02051q3.08398 -0.107422 6.32227 1.04395zM553.504 502.988q-0.359375 1.01465 -0.34082 1.54297
q0.0205078 0.59375 0.518555 0.576172q0.776367 -0.0273438 2.70996 -1.53613q9.01953 -2.9834 41.7842 -7.47559q26.2246 -3.59473 45.8926 -4.28125q4.9043 -0.171875 9.40039 -0.162109l14.0957 0.146484q12.248 0.373047 21.7197 1.08789l7.73633 1.86426
q1.18164 -0.143555 1.16113 -0.71582q-0.0107422 -0.323242 -0.407227 -0.783203q-1.09473 -1.27344 -8.66016 -1.75195q-7.56738 -0.478516 -17.1533 -2.11719l-26.3408 -0.520508q-2.57031 -0.404297 -7.62109 -0.227539q-8.12012 0.283203 -22.6543 2.06738
q-23.5742 2.89453 -33.7461 4.14355zM137.346 553.146q-1.62207 2.07715 -1.57422 6.29492q0.00878906 0.739258 0.0302734 1.34668q0.0986328 2.82617 0.472656 2.81348q0.00390625 0 0.00878906 -0.000976562q0.460938 -0.0556641 1.85742 -3.98145l0.939453 -7.62305
q-0.31543 -0.24707 -0.599609 -0.236328q-0.649414 0.0214844 -1.13477 1.38672zM246.556 540.677q-0.470703 3.8125 -0.381836 16.001q0.0195312 2.72363 0.0976562 4.97168q0.273438 7.81348 1.25684 9.87891q0.459961 0.967773 0.800781 0.955078
q0.59375 -0.0195312 0.820312 -3.03223l-0.0644531 -23.4551q0.00195312 -0.72168 -0.0205078 -1.35645q-0.157227 -4.50391 -1.51855 -4.45703q-0.433594 0.015625 -0.990234 0.494141zM259.953 542.786q-2.09277 5.8877 -1.99609 14.3223
q0.0146484 1.25195 0.0537109 2.36816q0.222656 6.39355 1.25195 8.26367q0.27832 0.504883 0.493164 0.49707q0.71875 -0.0253906 0.731445 -5.80859l0.487305 -11.3223q-0.264648 -2.15723 -0.321289 -3.77441q-0.0888672 -2.53613 0.336914 -3.73535
q0.0917969 -1.20508 0.0683594 -1.85059q-0.0263672 -0.745117 -0.205078 -0.739258q-0.271484 0.00976562 -0.900391 1.7793zM433.521 580.598q-0.0273438 2.7666 0.0693359 5.51562q0.393555 11.2686 2.87695 22.2793q3.08984 13.6973 5.51367 14.3389
q1.0625 0.280273 1.63867 0.260742q0.694336 -0.0253906 0.677734 -0.486328q-0.000976562 -0.0292969 -0.00488281 -0.0585938l-5.74219 -16.1885l-3.51855 -28.6602l-1.03809 -0.811523q-0.685547 0.0839844 -0.614258 2.13867q0.0253906 0.716797 0.141602 1.67188z
M107.044 619.746q4.73633 0.356445 12.3604 1.29883q0.913086 -0.0390625 1.79785 -0.0693359q21.7266 -0.758789 26.2715 3.19238q4.72754 4.11035 19.3916 8.88086l9.8125 3.48828l-3.69922 0.454102q-2.83984 0.939453 -6.71094 1.0752
q-2.27441 0.0791016 -4.90332 -0.119141q-7.10352 -0.536133 -21.1982 -0.681641q-14.0967 -0.147461 -21.9463 -2.93555q-7.84961 -2.79102 -16.04 -8.35449q-4.9375 -2.48242 -4.99023 -3.97656q-0.0673828 -1.92773 8.00977 -2.20996q0.875 -0.03125 1.84473 -0.0429688z
M414.546 594.191q1.60449 5.43262 3.55176 13.6406l3.55078 13.6416q3.8457 16.2158 6.14941 16.1357q0.0273438 -0.000976562 0.0556641 -0.00488281q0.90625 -0.111328 0.855469 -1.54883q-0.0771484 -2.22754 -2.45215 -7.63965l-10.0889 -36.3027
q-0.227539 -1.84766 -1.2666 -2.65918q-0.137695 -0.106445 -0.244141 -0.102539q-0.438477 0.015625 -0.373047 1.89941q0.0400391 1.13281 0.261719 2.94043zM873.687 649.496q0.112305 0.922852 2.30469 3.4707l21.4082 36.7871q0.104492 0.850586 0.893555 0.822266
q0.0693359 -0.00195312 0.144531 -0.0117188q0.133789 0.00976562 0.256836 0.00585938q1.25879 -0.0449219 1.2041 -1.61523q-0.126953 -3.64453 -7.31543 -15.502q-7.02344 -11.3389 -13.1309 -19.0342q-4.51465 -5.69238 -5.50586 -5.6582
q-0.294922 0.00976562 -0.277344 0.530273q0.00390625 0.09375 0.0175781 0.205078z" />
</svg>
