<?xml version="1.0" standalone="no"?>
<!DOCTYPE svg PUBLIC "-//W3C//DTD SVG 1.1//EN" "http://www.w3.org/Graphics/SVG/1.1/DTD/svg11.dtd" >
<svg xmlns="http://www.w3.org/2000/svg" xmlns:xlink="http://www.w3.org/1999/xlink" version="1.1" viewBox="-10 0 1099 1024">
   <path fill="currentColor"
d="M46.7988 412.977q-6.03027 1.44238 -13.582 2.99316q-7.55371 1.5498 -11.5469 2.85059l-0.770508 76.6699q0.697266 68.3975 1.17285 89.8174q1.20898 17.2822 5.87207 54.7539l8.30859 75.0156q2.29883 18.2266 3.52832 21.207q1.22852 2.97656 4.28027 2.7627
l13.2129 -0.923828q12.2725 0.164062 16.4092 0.895508q4.13672 0.734375 5.0127 -1.37109q0.873047 -2.10449 0.12793 -12.7793q-0.74707 -10.6738 -1.17285 -16.7734l-1.30078 -3.99609l36.2207 6.66211q11.3242 1.25098 21.918 6.63867l25.3916 12.5273l12.7676 7.28027
q8.63281 6.54785 17.5557 10.0098q8.92676 3.46191 29.6846 8.13965l41.6592 11.3906l23.3809 -1.63574q52.8633 -3.69629 89.9805 -13.4443q37.1152 -9.74512 61.3926 -27.7891q4.87109 -3.4043 60.1953 -1.14258q6.1709 0.587891 16.4775 1.91113
q40.2852 6.37598 73.6924 1.99609q33.4043 -4.37598 65.0117 -19.8691q5.88574 -3.47656 11.5947 -9.49219q5.70898 -6.0166 7.42188 -10.7344q1.71484 -4.71777 0.12793 -12.7783q-1.58594 -8.06348 -6.29102 -16.9277q-1.15918 -1.96191 0.875 -2.10449l18.3701 -0.262695
q15.3184 -0.0507812 44.7646 -2.61914q29.4453 -2.57031 48.6895 -4.93652q17.2119 -2.22559 43.6445 -4.0752l32.6016 -1.25781q3.99512 -1.30078 5.48438 -1.91504q1.49121 -0.616211 7.7666 1.5q6.27539 2.11523 11.3955 2.26758q5.11914 0.152344 13.1094 -2.4502
q13.9492 -5.06152 20.7803 -9.62598l3.85254 -3.33203l6.24121 1.60547q6.24219 1.60645 13.499 3.14355l15.4629 1.98242q41.374 7.32227 63.751 -1.39355q22.376 -8.71484 32.4102 -18.6104t14.041 -18.3486q4.00684 -8.4541 5.11426 -21.8115
q1.11035 -13.3584 -0.62793 -16.3008q-1.73828 -2.94336 -6.125 -7.23242q-4.38477 -4.29199 -9.68262 -6.98535l-10.4512 -3.35645q-6.24121 -1.60645 -11.3936 -2.26758l-12.3418 -1.17969q-17.5664 -2.85742 -45.2988 -5.00488q-21.5615 -1.55762 -48.4209 -5.80762
q-12.3418 -1.18066 -12.1289 1.86914q7.40234 3.56934 56.8369 9.30566l58.8008 8.14746q17.5674 2.8584 23.9482 6.49902q6.38477 3.63965 6.52734 5.67188q3.33496 3.85352 3.76074 9.95215q0.426758 6.09961 -1.44043 15.9346q-1.86621 9.83594 -12.2656 21.8008
q-10.4014 11.9639 -32.2686 20.6455q-26.9492 9.0332 -68.3955 0.694336l-17.4951 -1.83984q-12.4121 -2.19727 -10.4502 -3.35547l4.37109 -10.5225q0.875 -2.10352 1.93652 -8.81738q1.0625 -6.71582 0.920898 -8.74902q-0.143555 -2.03418 -2.71777 -2.36328
q-2.57715 -0.329102 -1.99902 0.651367q0.581055 0.981445 -1.90137 9.32422l-3.35645 10.4521q-0.875 2.10352 -2.69238 5.29883l-0.803711 3.11914q-0.874023 2.10254 -5.70898 6.0166q-4.83398 3.91309 -9.77539 6.30176q-10.8262 5.86621 -20.4727 -0.611328
l-12.5547 -4.22949q-20.0273 -8.81445 -28.4795 -12.8203q-8.4541 -4.00684 -15.9248 -8.5918q-12.7686 -7.2793 -17.4023 -15.1299l-3.33398 -3.85059l3.0498 -0.213867q3.99512 -1.30176 4.83398 -3.91309q0.838867 -2.61328 -3.37012 -4.3623l-18.3701 0.263672
q-21.4902 -0.540039 -39.0908 -3.9082q-17.6045 -3.36523 -28.1963 -8.75293l-3.19141 -1.82129l-1.58594 -8.06055q-0.996094 -14.2334 -2.4834 -13.6172q-1.49023 0.613281 -2.29492 3.73535l-0.730469 4.1377q-2.26855 11.3955 -4.16016 13.5703l-10.542 9.93164
q-6.76074 5.58203 -19.2549 9.51953q-12.4941 3.93945 -25.5674 6.89551l-36.3125 6.625q-23.2402 3.66895 -25.1328 5.84473q-0.801758 3.11914 3.26465 2.83398l24.3975 -1.70508q34.4951 -3.43457 59.4834 -11.3105q24.9873 -7.87598 34.4424 -18.752l3.78027 -4.35156
l5.29785 2.69336q16.9766 9.02832 33.0537 12.501q16.0752 3.47363 33.3604 2.2666l9.14844 -0.640625l0.212891 3.0498q0.711914 10.167 17.7568 20.2109l11.8252 8.36621q5.36621 3.71191 18.0273 9.4668q12.6621 5.75488 17.8848 7.43262
q-0.945312 1.08691 -29.4092 3.07812l-39.6475 2.77246q-39.4326 5.82129 -76.5752 7.90723q-37.1396 2.08887 -64.2578 1.43262q-27.1172 -0.65918 -27.9561 1.9541q-0.838867 2.61133 6.20508 1.0957l22.5781 1.48633q8.13379 -0.568359 10.3096 1.32227
q2.1748 1.89258 4.77637 9.88281q5.06152 13.9482 0.546875 22.4355t-22.3145 16.8828q-51.2998 26.0635 -127.665 15.0576q-11.3232 -1.25 -17.4941 -1.84082l-38.915 -1.36523q-14.2334 0.994141 -9.29102 -1.39258q10.8242 -5.86621 28.8975 -25.0068
q18.0703 -19.1416 20.6943 -25.4541l6.09961 -0.424805q11.2539 0.233398 42.2598 -1.93457t42.1172 -3.96875q14.1621 -2.01074 22.1514 -4.61133q7.99121 -2.60449 19.6924 -10.5732q11.7021 -7.96777 13.416 -12.6846t6.51172 -9.13867
q8.72168 -6.74023 24.9512 -8.38574q16.2305 -1.64648 23.4189 -1.125l60.1904 -1.14453q8.13281 -0.569336 8.57227 -1.62207q0.436523 -1.05176 -15.9717 -1.94824l-28.6064 -0.0439453q-23.5947 -1.41309 -39.8594 -0.275391q-12.2002 0.853516 -18.2295 2.2959
l-17.9414 6.36426q-7.56543 8.69824 -8.00293 9.75195q-0.4375 1.05176 -4.18262 5.91211q-3.74805 4.8584 -15.5195 11.8115q-11.7725 6.95215 -30.9453 10.335l-18.2998 1.2793q-16.1943 2.15527 -36.5977 2.55957l-38.7021 1.68555l-17.0176 19.5781
q-33.3066 35.0186 -66.4043 51.124q-33.0938 16.1045 -82.623 23.6562q-30.2148 6.19824 -50.1084 6.56738q-19.8955 0.370117 -33.5381 -4.80566l-24.9658 -6.42676q-19.7412 -4.74902 -28.7031 -8.71973q-8.96191 -3.96973 -22.8887 -13.2109
q-18.1348 -10.9922 -32.8291 -16.6035q-14.6924 -5.61523 -34.2939 -8.3291l-18.6543 -3.80273q-5.15332 -0.662109 -5.59277 0.390625q-0.435547 1.05176 -1.73828 -2.94336l-4.87305 -40.5225q-1.72852 -10.0947 -2.42871 -27.4121q-0.700195 -17.3184 -2.05078 -36.6328
l-2.31152 -106.082l1.01074 -43.998q0.327148 -24.5391 -3.00781 -28.3936zM58.4785 419.312q-0.589844 6.1709 -0.769531 54.7051q-0.18457 48.5391 0.294922 69.958l1.44824 49.957q1.68457 38.7002 3.83887 54.8955l5.02051 42.5537q4.30566 32.3906 4.80469 39.5059
q0.141602 2.03418 -6.02832 1.44434l-9.22168 -0.37793l-13.2861 -0.0917969q0.0712891 1.0166 -1.47949 -6.53809q-1.55078 -7.55176 -2.90039 -26.8682l-1.4209 -20.3301l-6.32031 -46.5508q-3.00781 -28.3945 -4.42871 -48.7275q-1.99023 -28.4639 -1.1709 -89.8145
l0.318359 -68.4678l15.0342 -4.11621q14.0928 -3.02832 16.2666 -1.13672zM62.8574 452.715q-3.0498 0.214844 -2.83594 3.26562q0.142578 2.03223 2.1748 1.88965l21.5615 1.55664q3.12305 0.803711 33.8311 1.7207l122.987 5.70215q48.1357 1.74316 70.9277 6.27832
q15.5342 3 25.7363 2.79785q10.2012 -0.203125 24.5029 -0.181641q35.7939 0.561523 54.0225 -1.73535l42.6982 -2.98535l15.1748 -2.08203l26.5049 -0.833008q7.11523 -0.49707 14.2334 -0.995117q15.3896 0.966797 27.9453 5.19629l25.1064 8.45996l-4.93848 2.38867
q-11.8447 5.9375 -25.9346 8.96484q-13.0742 2.95898 -19.5752 4.94434q-6.50098 1.9873 -14.8926 6.15039q-8.39258 4.16113 -8.21387 6.70312q0.177734 2.54004 5.11816 0.154297q4.93945 -2.38965 13.4385 -5.02734q8.49805 -2.63574 19.0684 -4.90918
q10.5664 -2.27051 17.5381 -4.80176q13.0049 -3.97461 15.9834 -5.2041q1.96289 -1.15918 23.9727 -7.80469l31.0146 -9.32031q35.0127 -10.6211 61.5156 -11.4531q26.5039 -0.831055 42.4629 8.26758l9.57422 5.45996l18.9404 7.87012q15.7451 6.0498 32.8643 17.1113
q14.9443 9.1709 18.207 12.0059q6.52637 5.67676 38.5166 24.8906q19.1533 10.9209 26.6221 15.5039q7.47266 4.58789 11.3135 8.4043q3.84277 3.81641 17.9121 15.0918q18.4902 16.0742 22.7002 17.8223q2.10352 0.876953 3.04883 -0.212891l0.873047 -2.10547
q0.947266 -1.08594 -9.8916 -10.0322q-10.8438 -8.94629 -15.123 -11.7129l-16.3145 -14.1807q-3.26367 -2.83789 -9.68359 -6.9873q-6.41797 -4.14648 -11.7861 -7.8584l-35.1113 -20.0186q-12.7676 -7.28223 -13.8574 -8.22656l-3.2627 -2.83594l12.2002 -0.853516
q14.2314 -0.994141 25.6289 1.27344q11.3945 2.26855 32.3652 9.99609q8.41895 3.49707 19.3418 6.30957q10.9229 2.81055 13.0273 3.68359l10.2373 0.306641q7.18652 0.519531 7.11621 -0.498047q-0.0712891 -1.01562 -8.96191 -3.96973
q-8.89062 -2.95312 -18.2529 -5.36426l-18.8672 -6.85254q-26.1953 -9.40527 -39.626 -11.5293q-15.5322 -3.00098 -32.6016 1.25684l-6.02832 1.44336l-2.1748 -1.89062l-23.3613 -12.6689q-10.6631 -6.40625 -27.5693 -14.418l-24.3047 -11.5801
q-10.5938 -5.38965 -17.8506 -6.9248q-14.5889 -4.08691 -40.9492 -1.22266q-6.10059 0.425781 -54.3252 11.9707l-42.2012 10.1025l-3.19141 -1.82031q-3.19238 -1.82031 -10.5225 -4.37207l-13.5703 -4.1582q-24.0215 -7.51562 -41.3037 -6.30762l-63.0293 4.40918
q-16.2666 1.13672 -37.6133 2.62793q-21.3496 1.49512 -41.752 1.89941q-17.3545 0.192383 -25.5566 -0.255859q-8.20508 -0.447266 -24.7539 -3.37598q-21.6338 -2.57324 -40.2158 -5.36035q-4.06738 0.283203 -32.8154 -1.79199l-38.9863 -2.38281l-111.593 -3.43262z
M701.336 467.321q0.0722656 1.01465 -2.55078 7.3291q-3.42773 9.43359 -0.555664 6.67871t4.51465 -8.48926q1.64258 -5.73145 0.0458984 -6.64258q-1.59668 -0.910156 -1.4541 1.12402zM718.834 469.162q-0.946289 1.08594 -1.67969 5.22461l-1.60547 6.24121
q-0.734375 4.1377 0.648438 1.99805t2.62402 -6.31348q1.23926 -4.17188 1.0625 -6.71191q-0.177734 -2.54297 -1.0498 -0.438477zM875.004 569.592q1.08691 0.946289 5.72266 8.79199l6.87988 10.7598q4.42383 4.79688 14.0342 10.7646q9.61133 5.96777 11.6807 6.33496
q2.06836 0.367188 -1.19531 -2.47168l-7.47168 -4.58398q-10.8047 -8.4375 -15.2969 -14.2559q-7.96875 -11.7002 -12.0234 -18.5654q-4.05762 -6.86914 -4.56641 -6.83496q-0.507812 0.0361328 0.864258 5.0498zM488.583 624.195q0.0712891 1.01562 1.30176 3.99512
l1.44238 6.02832q-0.873047 2.10547 0.614258 1.49121q1.48926 -0.616211 0.0820312 -6.13672q-1.40918 -5.52148 -2.45801 -5.95703q-1.05371 -0.4375 -0.982422 0.579102zM522.685 688.212q-2.41016 9.36328 -2.38379 17.0234q0.0234375 7.66016 2.12793 8.53418
l0.59082 -6.1709q-0.425781 -6.09863 0.967773 -15.3896l1.46289 -8.27539q-0.0712891 -1.01758 -0.579102 -0.981445q-0.507812 0.0351562 -2.18652 5.25977zM508.736 693.273q0.142578 2.03418 -1.60645 6.24219q-3.49707 8.41699 -1.53516 7.25781
q1.96289 -1.1582 3.60352 -6.89062q1.64355 -5.73438 1.06348 -6.71484q-0.579102 -0.980469 -1.52539 0.105469z" />
</svg>
