<?xml version="1.0" standalone="no"?>
<!DOCTYPE svg PUBLIC "-//W3C//DTD SVG 1.1//EN" "http://www.w3.org/Graphics/SVG/1.1/DTD/svg11.dtd" >
<svg xmlns="http://www.w3.org/2000/svg" xmlns:xlink="http://www.w3.org/1999/xlink" version="1.1" viewBox="-10 0 878 1024">
   <path fill="currentColor"
d="M37.2021 161.533q-1.44629 1.78711 -3.42578 2.40332t-5.64062 4.67969q-3.66016 4.0625 -4.93555 7.46582q-2.55273 6.80762 -1.7041 14.8926q0.34082 3.2334 1.48828 6.38281q3.7002 11.8711 12.335 24.041q4.80762 6.85254 5.01953 8.87305t3.31934 8.23242
q3.10449 6.21289 6.93262 11.5322l8.88965 14.5967q8.89062 14.5947 15.2285 20.4678l7.2334 6.59473q3.65918 3.70312 6.33789 5.87305l10.5508 7.06543q7.14746 5.78711 10.1475 7.10645q3.00098 1.31836 4.0625 3.65918q7.91113 13.0645 13.7393 21.8496
q5.82715 8.78809 13.0605 15.3838l10.0811 10.3838q5.44629 5.15039 12.6777 11.7451q7.23242 6.59668 10.2744 8.32031q3.04102 1.72266 3.12598 2.53223q1.31934 4.7666 16.0371 20.3828q14.7207 15.6172 30.8018 28.6396l14.3789 12.3838l23.4834 21.2363
q19.1016 18.4268 26.25 24.2129q14.2949 11.5762 28.2246 31.3633q13.9316 19.7881 23.7568 43.2754q11.1426 28.2529 17.5391 69.6748q6.39551 41.4219 3.16113 57.292l-2.46875 7.61621l-3.91602 9.40137q-4 8.59473 -17.3203 21.8467q-13.3184 13.251 -37.5322 31.7363
q-24.2129 18.4814 -39.4502 44.6045q-15.2373 26.1221 -21.6211 58.6699l-2.04688 11.6602q-1.18848 4.20996 -1.89355 9.1875q-0.703125 4.97852 -0.577148 13.9561l-0.298828 4.93555q-0.00195312 15.5303 4.8457 30.5498q4.84766 15.0215 12.9736 22.3418
l6.33887 5.87207q5.53027 5.95605 13.6992 5.91504q8.1709 -0.0400391 14.9375 -5.65625q9.02051 -7.48633 15.8301 -20.4619q6.80957 -12.9766 8.68359 -26.251q0.383789 -4.12695 4.80957 -8.67969q4.42578 -4.55176 14.8945 -13.8252q8.21387 -7.40234 15.5742 -15.123
q7.36133 -7.72266 10.002 -13.7207q1.36133 -2.5957 3.29785 -3.61719q1.93457 -1.01953 5.59473 -5.08301t4.42578 -4.55078q0.765625 -0.491211 2.21289 -2.27734q1.44629 -1.78613 5.2334 -4.63672l24.4268 -16.4619q21.999 -16.209 41.9561 -20.7568
q12.7656 -2.97656 25.4004 -7.16504q12.6396 -4.19141 14.8086 -6.87012l3.06445 -1.95605l40.2109 -14.0352l37.1465 -12.0771q7.10547 -2.38184 14.126 -5.57227q14.8506 -6.46582 21.7012 -11.2715q2.25586 -1.87305 6.57422 -3.55176q4.31836 -1.68164 12.1484 -4.9541
q11.8711 -3.7002 23.5303 -9.42188q11.6602 -5.7207 17.6191 -11.25q2.25488 -1.87305 7.14746 -1.97949t15.6572 1.2168l15.7002 1.61816q20.5498 1.11035 38.208 5.79297q14.3379 4.21387 25.3994 8.36426t22.165 8.7041q8.50977 3.19336 9.93652 5.08691
q1.42188 1.89355 1.29492 8.44629l2.04004 19.4023q4.08105 23.2734 7.80176 23.7002q3.72363 0.425781 10.6797 0.512695q6.95801 0.0849609 11 -0.339844q2.33984 -1.06348 4.68066 -2.12598l1.36328 -2.5957l-4.6748 -44.4629q-4.24805 -40.4238 -6.28418 -75.3545
l-2.89062 -27.4863l-2.33301 -45.5273l-1.52148 -61.1416q-0.71875 -30.167 -0.228516 -44.9307q0.493164 -14.7646 2.2832 -28.8467q1.23438 -11.5732 1.12891 -16.4668q-0.106445 -4.89355 -1.48828 -6.38379q-1.38184 -1.48926 -3.44727 -1.68066
q-2.06152 -0.191406 -9.42285 -0.235352q-8.89355 0.93457 -12.6582 0.104492q-3.76562 -0.830078 -4.93457 -0.299805q-1.1709 0.533203 -1.85156 1.83105t-0.724609 8.6582l-1.02734 36.8877l-26.8906 -6.98145q-10.9346 -2.93652 -25.5918 -6.30078
q-14.6572 -3.36328 -20.4854 -4.38574q-4.21094 -1.19238 -11.0186 -3.74512l-54.2031 -18.0068q-10.2119 -3.83203 -25.3584 -7.96094q-15.1465 -4.12988 -23.4863 -5.7041q-6.72266 -1.74609 -15.1475 -4.12988q-8.42188 -2.38477 -21.2285 -7.57812
q-18.083 -8.72363 -32.292 -19.4912l-35.9492 -23.1943q-9.57227 -5.5332 -18.5303 -9.08691q-8.95508 -3.55371 -27.4199 -8.15137l-38.7168 -10.6445l-15.0605 -3.32031l-5.19141 -2.72461q-9.99609 -9.57422 -28.6963 -20.2783q-18.6963 -10.7051 -33.1201 -15.7275
q-9.23242 -2.29785 -16.5293 -5.61914q-7.2959 -3.31934 -18.6553 -10.2988l-23.3564 -12.2578l-13.6162 -5.1084l-10.2949 -4.63965q-2.68066 -2.16992 -9.04004 -4.36133q-6.36133 -2.19238 -11.3389 -2.89453t-10.2119 -3.83203q-5.23242 -3.12793 -21.1445 -14.5332
l-17.5283 -11.2354q-14.8477 -9.06543 -34.3311 -23.3643l-15.8281 -10.5977q-7.06152 -4.97949 -10.5498 -7.06445q-3.48926 -2.08496 -7.87207 -4.89453l-28.1621 -19.1084q-6.08398 -3.44727 -16.0615 -8.93848q-9.97559 -5.49023 -14.2725 -7.49121
q-1.7041 -0.636719 -3.32031 -0.466797q-2.42578 0.254883 -3.87109 2.04102zM43.8379 162.47q2.5127 0.554688 6.08496 3.44824l12.082 6.08594q6.89355 3.36328 12.168 6.89453l12.3389 8.5127q-4.85254 0.509766 -16.5957 -2.34375q-11.7412 -2.85156 -22.7607 -6.59766
q-5.02148 -1.10742 -5.95605 -10l-0.594727 -5.66016zM39.668 169.448l0.595703 5.65918l2.76465 2.97852l5.19043 2.72266q21.2295 7.57812 35.2285 8.55762q5.74414 0.213867 9.19043 1.89648q3.44629 1.68066 10.4229 5.85156l13.1455 8.42578l32.7168 23.5352
l21.1006 14.1299q9.6582 6.34082 22.8906 15.5752l26.376 17.6621q2.51074 0.551758 -2.97852 2.7666q-9.44629 3.44434 1.06348 2.33984q4.04297 -0.425781 7.40332 0.448242q3.36035 0.870117 7.74316 3.67969l3.4873 2.08691l-3.23145 0.339844
q-14.2998 3.95312 -2.08691 3.4873q5.6582 -0.594727 10.2754 0.555664q4.61621 1.14941 10.6982 4.59473q3.49121 2.08789 7.29883 3.32031q3.80664 1.23535 11.5088 4.51367l12.082 6.08496q7.70117 3.2793 18.9316 9.0459q11.2324 5.7666 19.9971 11.3848
q16.5488 9.70312 28.5889 15.3867q12.041 5.67969 17.8691 6.70215l9.14844 1.49121q5.8291 1.02246 14.9766 2.51172l54.6738 14.6875q17.5693 3.87695 28.7598 9.2373q11.1885 5.36426 23.6123 14.6846l20.123 12.5967q20.3779 15.0234 35.8633 22.3848
q15.4873 7.36621 39.8662 13.7939q12.5527 2.7666 25.6348 6.7041q13.083 3.93848 22.4854 7.85547l34.6758 11.0674l19.5283 6.93848q9.31543 3.10645 26.8467 6.57715q17.5283 3.4707 32.6768 7.59961l16.7617 3.96094q7.53125 1.65918 8.4248 2.38379l-0.176758 44.9727
l5.1709 126.966l6.79688 64.6729q-0.341797 12.2969 -0.704102 12.7441q-0.361328 0.446289 -4.6582 -1.55371q-7.7002 -3.27637 -23.4238 -8.98145q-15.7178 -5.7041 -30.0557 -9.91797q-7.53125 -1.66211 -16.7207 -3.55566q-9.19141 -1.89648 -16.5518 -1.93848
l-27.1895 -2.04688l-11.4883 -0.426758l3.06445 -1.95801l7.23438 -8.93359l3.44922 -6.08301q-0.424805 -4.04297 -5.40625 3.01953q-7.95898 9.82715 -20.5312 18.5059q-12.5752 8.67676 -28.2324 15.2275l-10.1709 4.33691q7.40527 -7.31738 10.9795 -12.1875
q3.5752 -4.87207 1.87305 -5.50879q-1.70312 -0.640625 -4.51074 3.74219q-9.48926 10.8076 -27.1934 21.249q-17.6992 10.4424 -38.2939 16.6943l-22.2119 6.4209l-11.0635 3.61426l-31.3164 13.0996q-8.63867 3.3623 -12.0635 5.76562q-3.42578 2.40137 -14.084 5.97461
q-10.6602 3.57227 -22.6162 6.46484q-10.3389 2.7207 -21.957 8.8457q-11.6152 6.12598 -20.7217 12.8037l-28.9365 20.2061l0.46875 -3.31934q-0.509766 -4.84961 -1.14844 -3.14746q-0.638672 1.70117 -2.87402 7.65625q-2.23242 5.95801 -7.46777 10.5947
q-2.16895 2.68066 -2.4668 -0.148438q-0.298828 -2.83105 -0.575195 -1.5752q-0.275391 1.25391 -2.78906 8.46777q-2.51172 7.20996 -20.4688 22.9932q-11.999 10.2529 -20.1279 18.4619l-1.44727 1.78711l-0.508789 -4.85059q-0.0410156 -8.16895 -3.76465 -16.3623
q-3.71973 -8.18945 -9.97461 -13.2539q-4.4668 -3.61523 -10.4023 -1.76562q-5.93652 1.84961 -9.38477 7.93164q-7.78711 11.4434 -9.08496 18.5293q-1.2998 7.08496 1.5918 19.04q5.65332 30.4668 14.0352 40.2109l1.87109 2.25488l-1.44629 1.78613
q-6.04297 4.72363 -13.9355 3.50977q-7.8916 -1.21484 -15.125 -7.81152l-5.44531 -5.14844q-10.166 -11.1924 -13.3125 -33.3369q-3.14453 -22.1475 3.11523 -48.1445l2.21191 -10.042q8.86133 -55.6924 62.2656 -99.7217q42.9346 -34.7559 50.3848 -49.4336
l2.72266 -5.19043l3.19238 -8.50977q2.89453 -19.1025 2.26074 -32.9326q-1.23145 -19.4873 -6.24902 -43.8887q-5.0166 -24.4023 -9.01172 -39.1025q-3.99805 -14.7012 -8.33691 -24.8711q-4.33789 -10.1699 -10.3789 -20.9766l-11.7393 -18.3848
q-4.80762 -6.84961 -9.93262 -12.8506q-5.12598 -5.99902 -13.2529 -13.3203l-35.1816 -31.4473q-7.31738 -7.4043 -16.335 -15.4473l-16.9756 -13.7461q-7.14746 -5.78809 -12.5928 -10.9375l-22.9307 -23.7451q-8.29395 -8.9375 -11.2314 -13.5322l-1.0625 -2.34082
l2.42578 -0.254883q2.42578 -0.254883 2.25586 -1.87109l-9.14648 -1.49219q-1.61816 0.171875 -8.76465 -5.61719l-8.21191 -8.12793l-15.6973 -17.1484q-11.7832 -11.0225 -16.8457 -20.2979l-5.06055 -9.27637q-4.80762 -6.85156 0.0429688 -7.36133
q4.84961 -0.509766 5.44629 -2.61621q0.595703 -2.10645 -3.36035 -0.87207q-2.33984 1.06348 -5.61719 1q-3.27637 -0.0664062 -5.78711 -0.619141q-2.59473 -1.36328 -12.4219 -9.32129q-9.8291 -7.95703 -13.4863 -11.6592l-6.33789 -5.87207
q-4.46875 -3.61719 -9.27344 -10.4697l-16.6348 -26.041q-9.01367 -23.5742 -5.6543 -30.4658q1.83203 -5.91406 4.44824 -8.23242q2.61719 -2.31836 7.38379 -3.63574l2.34082 -1.06445l0.254883 2.42578q-0.554688 2.50977 1.72266 4.72168
q2.27344 2.21387 9.97656 5.49219q15.3145 5.74707 22.6768 5.79102q4.04004 -0.425781 6.55176 0.126953q2.51074 0.553711 6.16992 4.25488l48.3711 32.5156l37.5664 23.0234l13.1455 8.42773q21.9961 14.8516 19.6553 15.917q-3.95898 1.23242 -11.084 7.29297
q-7.12793 6.0625 -7.19141 9.33887q-0.0644531 3.27734 5.72168 -3.87109q2.89453 -3.57227 7.40527 -7.31543q4.51172 -3.74512 6.93652 -4q4.04102 -0.424805 10.2959 4.63965l3.48828 2.08594l-5.40527 3.01953q-4.59473 2.93555 -7.48828 6.50977
q-2.89551 3.57227 -2.68359 5.59473q0.212891 2.02148 2.29883 -1.46973q2.1709 -2.67969 5.55371 -5.4873q3.38379 -2.80664 5.72461 -3.87012l3.14648 -1.14844q3.23535 -0.339844 13.8701 7.53418q10.6367 7.87305 18.8477 16.001l24.1201 19.5322l27.1855 17.5781
l23.4434 13.0664q10.2959 4.63867 15.0596 11.085q4.76562 6.44727 0.362305 -0.446289q-4.40234 -6.89551 -13.8916 -11.6182l-25.0576 -12.8965q-13.0605 -7.61816 -28.165 -19.1084q-15.1025 -11.4902 -25.1846 -21.874q-7.40234 -8.21289 -18.8467 -16l-7.95508 -5.7041
q-7.95508 -5.70117 -13.0615 -7.61719q-2.59473 -1.3623 -8.84668 -6.42676q-7.14941 -5.78711 -21.6338 -15.2998q-14.4883 -9.50977 -42.4814 -27.0029l-39.5225 -26.0879q-17.6992 -12.8535 -21.0166 -13.3213q0.0839844 0.807617 -8.84961 -6.42676
q-9.74121 -7.14941 -16.5918 -10.1074q-6.84961 -2.95801 -14.5303 -2.15039q-7.68164 0.806641 -12.5098 5.40137q-4.83105 4.59277 -6.95898 15.4434q-0.467773 3.31836 -0.916016 2.95703q-0.446289 -0.361328 -3.46777 -5.76562q-7.8252 -12.2559 -10.3545 -24.6582
q-2.53125 -12.4033 1.72656 -18.5713q2.89258 -3.5752 6.27441 -6.38281q3.38477 -2.80664 5.00195 -2.97754q0.807617 -0.0839844 1.31738 4.7666zM71.8721 203.662q10.2109 3.83008 20.0391 11.7881l2.76465 2.97852q-8.16895 0.0410156 -20.082 -4.42676
q-11.9111 -4.4707 -13.0615 -7.61816q-1.6582 -8.00098 10.3398 -2.72168zM127.14 224.008q-1.91602 5.10547 -0.745117 4.5752q1.16992 -0.532227 2.12793 -3.08496q0.957031 -2.55371 0.743164 -4.57422q-0.210938 -2.02051 -2.12598 3.08398zM141.514 267.453
q-4.98047 7.06055 -1.66016 7.5293q0.723633 -0.892578 3.12695 -5.23145q2.40332 -4.3418 2.27734 -5.55273q-0.12793 -1.21289 -3.74414 3.25488zM232.479 277.508q3.40234 1.27832 9.40332 3.91602l11.0186 3.74609q9.31836 3.10742 16.21 6.46973
q6.89355 3.36328 15.6553 8.98047l18.2539 10.3418q6.8916 3.3623 14.5078 5.83105q10.041 2.21484 13.4443 3.49121l7.78516 4.08594q10.3809 5.44922 18.6543 10.2998q8.27539 4.85156 17.126 11.2783q6.25195 5.06348 7.18945 6.19238
q0.935547 1.12793 -4.08496 0.0195312l-14.8916 -1.7041q-2.51172 -0.552734 -14.5938 -6.63965q-12.083 -6.08594 -28.2266 -15.833q-16.1465 -9.74609 -46.1416 -22.9404l-12.9766 -6.81055q-9.57129 -5.53223 -15.4844 -7.3623l-7.78809 -4.08496l-12.2529 -7.7041
q-1.7002 -0.637695 -2.18945 -1.4043q-0.491211 -0.766602 -2.27539 -2.21387q3.2334 -0.339844 11.6572 2.04492zM387.851 371.521q0.0849609 0.808594 2.59473 1.36133q5.83008 1.02441 17.1055 7.19336q6.08203 3.44922 5.50684 1.87402
q-0.574219 -1.57422 -5.3584 -4.33984q-4.78711 -2.76855 -9.08398 -4.76758q-4.29492 -2.00195 -7.57227 -2.06543q-3.27637 -0.0634766 -3.19238 0.744141zM357.972 444.955q5.27441 3.53223 9.91113 8.7666q4.63965 5.23438 4.21289 1.19141
q-0.253906 -2.4248 -6.10547 -7.53125q-5.84961 -5.10645 -11.3604 -6.97949q-5.50781 -1.87305 -5.25391 0.552734q3.31836 0.467773 8.5957 4zM795.917 451.236q4.12891 0.383789 9.02051 0.277344q4.89258 -0.105469 5.42676 1.06543q0.530273 1.16895 -0.322266 8.61426
q-1.61816 15.7021 -2.36621 28.041q-0.745117 12.3369 -0.193359 25.3584l-0.217773 21.2734l1.72852 101.988l11.2148 106.714l6.80273 49.1426q1.23242 3.95703 0.104492 4.89453q-1.12793 0.935547 -10.8291 1.95605q-9.70215 1.01855 -11.4873 -0.428711
l-5.77734 -54.9746q0.981445 -13.9961 -1.78125 -48.0371l-8.74023 -160.918l0.134766 -37.6133q-0.34082 -3.23145 -0.295898 -2.8291q0.0419922 0.405273 0.169922 -6.14844l0.942383 -37.6963zM760.074 561.262q-2.80762 4.38086 -6.53125 19.4844
q-3.72754 15.1045 -6.49414 27.6543q-3.06641 17.4873 -3.72754 22.8711q-0.660156 5.38184 0.957031 5.21191q1.61816 -0.169922 2.25488 -1.87207zM389.081 663.189l1.10547 10.5107q16.2441 61.2285 19.3916 60.0801l-0.254883 -2.4248l-2.72168 -10.3389
q-3.44434 -9.44824 -7.39844 -23.7441q-3.95508 -14.2969 -6.84668 -26.2529q-2.89258 -11.957 -3.27539 -7.83008zM334.213 817.716q1.31738 4.76758 7.38086 11.8945q6.06152 7.12695 10.2734 8.32031q5.74414 0.211914 0.382812 -4.12793
q-4.2959 -2.00098 -8.40332 -6.06445q-4.10352 -4.06445 -7.03906 -8.6582q-2.93555 -4.59668 -2.59473 -1.36426zM324.255 831.842q1.31836 4.76465 7.10254 13.1475q5.78516 8.38281 8.7002 8.89355q2.91504 0.511719 -2.78613 -7.06348l-7.74219 -11.4473
q-5.69922 -7.57324 -5.27441 -3.53027zM293.911 877.533q3.40137 1.27637 7.23047 6.5957q3.82812 5.31836 5.63672 10.8506q1.80859 5.53125 2.31738 10.3838q0.508789 4.84766 -1.79004 14.0811q-2.04297 11.6592 -9.08887 26.2949q-7.04297 14.6348 -11.8086 15.9521
q-2.42383 0.254883 -6.7207 -9.51074q-4.29688 -9.76465 -6.12402 -19.3809q-4.37988 -18.3398 -4.0166 -26.5518q0.362305 -8.20996 5.89551 -17.7832q8.17285 -15.5732 18.4688 -10.9316z" />
</svg>
