<?xml version="1.0" standalone="no"?>
<!DOCTYPE svg PUBLIC "-//W3C//DTD SVG 1.1//EN" "http://www.w3.org/Graphics/SVG/1.1/DTD/svg11.dtd" >
<svg xmlns="http://www.w3.org/2000/svg" xmlns:xlink="http://www.w3.org/1999/xlink" version="1.1" viewBox="-10 0 1053 1024">
   <path fill="currentColor"
d="M1001 161q-3 1 -15 7l-47 22q-3 0 -15 4t-20 6q-4 2 -16.5 8.5t-17.5 14.5l-9 2q-6 2 -20 9.5t-32 17.5l-44 24l-23 13q-14 7 -20 13q-1 1 -11.5 1.5t-25.5 4.5l-108 30q-35 12 -70 13q-14 2 -29.5 8t-25.5 9l-21 7l-13 9l-30 20q-6 3 -28 16l-27 15q-2 1 -11 6l-72 29
q-20 9 -44 16t-43 11q-35 6 -53 7t-54 -2l-13 -1v-43q1 -11 -3.5 -13t-12.5 -3t-12 -1q-2 0 -4 3t-3 18l-4 72q-3 59 -3 91q0 48 2 85t6 53q2 9 6 5q9 -7 25 -3h6l2 -2q1 -3 0 -11l-2 -27l-3 -70q-1 -18 -1 -52v-67l1 -32l15 1q16 1 35 1.5t29 -1.5q31 -4 48.5 -7.5t28.5 -7
t27.5 -9t31.5 -12.5l66 -26q7 -4 10 -6l25 -14q22 -12 30 -16l37 -25q8 -5 18 -8l12 -4l20 -8q13 -6 21.5 -7t23.5 -2q18 -2 29 -4.5t23 -7t33 -9.5l30 -8l-24 10q-13 5 -24 11.5t-24 18.5q-8 6 -9 5q-4 0 -19.5 4t-21 6t3.5 0l19 -4l15 -1q-1 1 -11.5 11t-22.5 19l-37 31
q6 -1 30.5 -21.5t36.5 -32.5q6 -6 19 -16.5t26 -18.5l14 -7q36 -15 55 -10q8 2 18 2h35q29 1 34 1h11h32l28 2q7 6 26 10.5t28 2.5q3 -2 6 -5.5t5 -2t6 8.5q5 16 -13 32.5t-43 19.5l-42 5q-16 2 -26 -0.5t-8.5 -6.5t-5.5 4q-13 14 -28.5 20.5t-30.5 4.5q-7 -2 -19 -5.5
t-13.5 -3t0.5 2.5t0 13q-2 6 -7 13t-16 16q-21 15 -32 18.5t-24 3.5q-10 3 1 2.5t21 -3t25 -12.5q10 -7 18 -14q13 -11 15 -17.5t3 -12.5t10 -4l13 4q15 5 32 -1t31 -21l4 -4l3 2q3 2 8 3l6 1l-2 3l-10 5q-24 9 -53 24l-34 16q-11 5 -22 12t-19 13.5t-12 9t-10.5 5.5
t-4.5 3.5t11 -3.5q5 -4 0.5 4.5t-12.5 17.5t-23 22l-23 20l-21 16q-5 3 -11 7t-12.5 6t-9.5 3l4 1l-39 30q-7 6 -17 13t-18 11l-12 7q-7 4 -14 9l-18 11q-14 9 -18.5 11t-20.5 9.5t-23 12.5q-4 3 -20 10t-33 10q-13 1 -33 1l-28 -1q-15 0 -27.5 -1.5t-27.5 -4.5l-9 -2
l-32 -3q-14 -2 -32 0t-32 6q-17 6 -1 2.5t34 -4.5t34 0l22 2l17 2q18 4 32.5 5.5t44.5 0.5h34l10 6q22 12 47.5 18t63.5 9l23 2h22q13 0 16.5 1t9.5 1q16 1 31.5 6t41.5 18q32 16 46 23.5t19.5 13t9.5 8.5l13 12q15 16 26 17.5t22 -12.5q5 -6 10 -18.5t3 -35.5
q0 -6 -1.5 -10t-5.5 -13q-11 -26 -39 -45l-11 -8l-18 -12l-14 -8q-8 -4 -11 -7q-7 -7 -12 -14l-20 -27q-4 -8 -6 -28.5t0 -39.5l3 -17q1 -1 6.5 -5.5t11.5 -9.5l15 -14q15 -12 22.5 -21t11.5 -18t6 -10l9 -7q18 -15 39 -25l57 -28l17 -8q16 -5 24 -11l6 -5l24 -2l38 -5
q17 -2 24 -7q25 -13 29.5 -29.5t-4.5 -28.5l19 -8q10 -4 16 -8l20 -11q7 -5 16 -11l13 -9q4 -2 15.5 -13t20.5 -23q2 -4 5 -13l2 -11q2 -6 4.5 -8.5t4.5 -7.5t2 -15q1 -17 -8 -31l-5 -7q-2 -2 -3.5 -2t-7.5 3zM1009 162l-4 11q-1 5 -3.5 7.5t-10.5 8.5l-5 3q-3 -2 -10.5 0
t-14.5 7l-4 2q-5 -1 -10.5 -4.5t-5.5 -4.5t4 -3l28 -13q21 -11 29 -14.5t7 0.5zM1016 170q6 10 7 23.5t-3 21.5l-5 8l-1 -11q-1 -9 -7.5 -15t-15.5 -6l9 -7q3 -3 6.5 -10.5t4 -9.5t2.5 1zM939 193q2 3 9 7l7 3l-14 9q-12 7 -19.5 10t-20 9t-19.5 10q-12 7 -24.5 12.5
t-28.5 9.5q-27 7 -45.5 13t-32.5 15l-13 7q-11 5 -12 4.5t3.5 -4t10.5 -6.5l32 -17l38 -22q12 -7 29.5 -16t25.5 -11l4 -1v4q0 3 1 3t1 -3q0 -9 15 -18.5t41 -15.5zM985 194q3 3 1 7.5t-15 12.5q-7 5 -15.5 7t-23.5 4l-8 -1l8 -4l28 -18q20 -14 25 -8zM1001 195q2 2 5 6
t4.5 6.5t2 11.5t-3.5 25q-3 8 -15.5 22.5t-24.5 22.5l-26 16q-10 6 -22.5 13t-16.5 8l-11 5q-6 3 -8 3q-2 -2 -3 -3.5t-10 -0.5l-48 2l-16 -1l-30 -1q-15 -1 -19 0t-10 1t-9.5 -1t-12.5 0h-34q-20 0 -28.5 -2.5t2.5 -6.5q18 -5 23.5 -5t3.5 2q-3 5 -1.5 5.5t2.5 -2.5l2 -4
q2 -3 12 -3l6 -1l-5 11q1 0 3 -3l6 -8l5 -5q39 -22 52 -27q5 -2 18 -6l25 -7q18 -4 33.5 -10t33.5 -16q31 -18 36 -16.5t16 0.5t21 -4q15 -6 23.5 -13.5t6.5 -12.5q-1 -3 3 -3t9 2zM864 264q-1 2 -0.5 7.5t1 3.5t0 -6.5zM721 306q2 3 -14 5l-12 2l-24 5l-15 4q-4 1 -7 0.5
t-2 -1.5l45 -12q11 -3 19 -3.5t10 0.5zM880 332q2 4 0 7.5t-4 5.5q-12 6 -41 -5q-8 -3 -11 -5l-2 -2h22l20 -1h16zM636 339q-1 5 -0.5 9.5t1.5 3.5v-9zM755 347q3 4 1 7t0 -3q0 -1 -1 -4zM481 383q-6 2 -13 6t-7 5l10 -5q10 -5 13 -6t3 -2t-6 2zM464 422q-5 2 -9 5l17 -9
q1 -1 -8 4zM23 447q4 0 9 0.5t7 2.5t2 4v11q-4 98 -4.5 125.5t0 44.5t2.5 57l2 30q1 23 2 33q0 5 -8.5 4t-13.5 1t-6.5 2.5t-2.5 -6.5q-5 -30 -6.5 -90t0.5 -107l5 -85q1 -23 4.5 -26t7.5 -1zM444 485q-5 1 -10 4l-7 4q1 1 8 -3t9 -5zM127 537q-1 5 -1.5 22.5t1 21t1 -3
t-0.5 -19t1 -18t-1 -3.5zM547 581q-3 20 -2.5 41t5.5 32q1 3 6.5 10.5t8.5 10.5l7 11q6 7 11 12l12 9l17 10q7 4 14 9l15 11q6 5 14 12t13 13q16 24 15 47q0 19 -5 28.5t-9.5 15t-11 8.5t-14.5 -3q-5 -4 -19 -15l-17 -16q-4 -4 -11 -8t-23 -13l-39 -19q-23 -12 -39.5 -18
t-30.5 -6q-8 -1 -9 -1l20 -17q18 -14 19 -18q-1 -1 -3 1l-8 8q-6 5 -11 8t-11.5 8.5t-12.5 7.5t-18 1q-25 0 -59.5 -3.5t-40.5 -6.5q-1 -1 -7 -2.5t-16 -5t-17 -6.5l-12 -5q-6 -2 0 -3q9 -1 20 -4.5t19 -7.5l52 -28q10 -4 25 -14l38 -23q10 -5 21 -12.5t18 -13.5l13 -10
l27 -22q2 -2 6 -3q9 -3 24 -15q6 -5 7 -4.5t-1 9.5zM443 672q-4 9 -19.5 24t-32.5 30q-8 5 -6 6q4 2 30 -23q11 -10 21 -23.5t10 -17.5zM406 726q-5 3 -7 5q-4 4 4 -2q17 -12 3 -3zM442 741q-7 5 -20 10q-5 3 -5 3.5t11.5 -5t16.5 -10t-3 1.5zM626 759q-2 7 -2.5 9t1.5 -3
t1 -6z" />
</svg>
