<?xml version="1.0" standalone="no"?>
<!DOCTYPE svg PUBLIC "-//W3C//DTD SVG 1.1//EN" "http://www.w3.org/Graphics/SVG/1.1/DTD/svg11.dtd" >
<svg xmlns="http://www.w3.org/2000/svg" xmlns:xlink="http://www.w3.org/1999/xlink" version="1.1" viewBox="-10 0 962 1024">
   <path fill="currentColor"
d="M35.7422 271.183q-11.1738 7.88184 -15.4023 22.5488q-1.32812 6.70703 3.60352 21.2637q3.43652 7.53223 9.62891 17.2295q6.19141 9.69727 13.1406 16.4814q4.44824 3.64453 3.66211 4.27051t-1.29199 2.56836l0.111328 9.15625q-1.53516 18.6875 6.16309 28.9814
q7.69434 10.2949 20.5938 21.3223q12.8984 11.0293 24.2412 16.8779q9.20996 4.46582 22.9043 8.44141q13.6943 3.97168 27.8018 5.56348q10.4082 1.45996 17.4873 4.54395q3.00977 1.19531 3.44824 1.10352q0.439453 -0.0947266 2.75586 2.16895l3.19434 2.07129
l1.30371 6.15039q2.61523 12.2959 10.9092 21.0859q8.29492 8.79395 20.832 11.6367q7.77148 2.01758 9.02246 3.58984q9.95801 7.98047 26.4658 18.6973q16.5039 10.7207 30.668 16.8887q10.0879 4.28125 28.8262 10.3936q18.7402 6.11523 21.748 7.31055
q0.876953 -0.185547 0.533203 0.347656q-0.345703 0.532227 -6.30566 2.71484l-14.7451 4.05371q-7.02637 1.49316 -12.1074 3.49121q-5.08301 1.99805 -10.8564 5.0625q-2.45117 1.43848 -5.6543 5.78906q-3.2041 4.35254 -3.96289 7.26758
q-0.757812 2.91602 -0.924805 10.7549q-0.172852 7.83789 0.575195 11.3496q1.49414 7.02637 5.11719 15.4346q3.62305 8.40918 6.49707 13.3047q6.25781 7.84961 18.5986 16.2412q12.3408 8.39355 24.373 13.1758l11.1523 4.97754q5.13672 2.5752 9.90234 3.39844
l7.95996 2.89941q12.0293 4.78516 26.2305 6.81445q14.2012 2.03125 21.0381 -0.339844q2.45117 -1.43945 3.70312 0.129883q2.50195 3.14062 8.70508 6.41113l21.8018 11.8896q10.0898 4.27832 15.0664 8.27051q4.97852 3.98828 11.0488 10.96l13.0215 13.7539
q3.38184 2.9541 6.07422 6.97266l9.13477 12.7422q16.3242 24.9844 36.4805 46.4043q20.1533 21.4141 39.3242 33.8604l30.8799 20.0586l23.0537 13.457l26.7549 13.5879q18.7949 10.6924 33.873 12.5361q15.0771 1.8418 38.0977 -2.13281
q12.4824 -1.73535 28.3193 -2.80469q15.834 -1.07227 29.3145 -0.267578q13.4834 0.806641 32.2588 2.78223q18.7764 1.97363 32.8838 3.56445q6.70801 1.33008 10.4082 1.45996l6.33398 -0.426758q1.94238 0.50293 3.00781 1.19434l-0.953125 8.46484
q-0.845703 17.6201 4.92871 14.5557q0.879883 -0.1875 2.82031 0.318359l25.7666 4.61914q22.0654 4.49121 20.9473 -0.777344q0.316406 -2.82031 -7.08301 -3.08496l-12.1621 -1.08691q-11.4746 -2.15039 -20.6279 -2.04102q-5.64258 -0.635742 -6.70801 -1.32617
q-1.06641 -0.691406 0.131836 -3.70312q2.09375 -16.0479 2.5498 -44.1377q0.454102 -28.0957 -0.25 -57.3164q-0.705078 -29.2256 -0.326172 -49.04q0.375977 -19.8154 3.69043 -51.7285l1.16113 -20.4395l3.48828 -61.3242l1.58008 -44.3916
q-0.374023 -1.75781 0.157227 -1.41113q0.533203 0.34375 1.41211 0.157227q0.87793 -0.186523 3.19434 2.07617q4.25977 2.76758 16.3848 7.99023q12.1279 5.22559 17.9561 6.74023l1.94238 0.504883l-5.60547 90.2275l-2.71973 51.9795q-1.84082 51.7939 -7.38281 103.456
q-2.17285 24.3262 -2.53906 37.7119q-0.367188 13.3906 0.742188 25.0869t5.31348 9.88379q2.63574 -0.557617 2.95312 -3.38086q0.316406 -2.82129 0.0869141 -14.7041q-0.228516 -11.8818 0.601562 -23.0771q0.834961 -11.1904 3.35254 -36.0488
q2.51758 -24.8594 3.9707 -50.4102q1.45312 -25.5537 2.58301 -63.4238l3.71875 -86.1553q-0.296875 -10.0352 -0.783203 -20.9443l-0.21875 -18.3145q-0.0546875 -4.57617 -0.428711 -6.33203q-0.37207 -1.75586 -2.31738 -2.26172l-9.02441 -3.5918l-26.8848 -9.88965
q-6.0166 -2.3916 -6.61426 -0.888672q-0.597656 1.50488 -1.47559 1.69238q-0.879883 0.1875 -1.57227 1.25098l-5.80176 59.0605q-1.75684 0.373047 -16.7705 -3.31738q-15.0098 -3.69531 -24.0352 -7.28516q-16.1055 -6.6709 -45.79 -29.7344
q-16.9082 -14.7646 -53.2451 -34.5771l-15.5996 -8.61816l-40.0938 -24.5225q-17.7285 -9.99902 -32.5439 -19.2422q-14.8145 -9.24121 -22.457 -14.9619q-7.63867 -5.71875 -16.0938 -13.1016q-8.45312 -7.38184 -19.4092 -17.9014q-10.957 -10.5205 -23.7334 -18.8252
q-12.7812 -8.2959 -21.6172 -11.0068q-4.9502 -1.70312 -6.89258 -2.20605q-4.44824 -3.64551 -18.2109 -5.76855q-13.7598 -2.12109 -31.8174 -2.87305q-18.0586 -0.75 -31.1943 -2.08984q-13.1348 -1.33789 -23.9141 -4.55664l-41.8721 -11.291
q-7.77148 -2.02051 -20.8408 -5.20996q-13.0693 -3.1875 -27.3623 -5.65625l-13.2295 -1.77734l-12.9092 -4.59961l-16.7969 -5.60645q-21.7471 -7.3125 -23.5039 -6.9375q-3.7002 -0.131836 -32.2666 -17.9248q-10.6484 -6.91699 -15.252 -9.15039
q-4.60449 -2.23242 -10.4365 -3.74805q-20.3105 -4.86523 -41.6045 -18.6924l-12.9658 -9.17676q-25.1279 -10.2637 -29.2031 -12.1514l-6.20117 -3.27148q-3.00977 -1.19824 -7.86621 -2.45898q-4.86035 -1.2627 -11.9404 -4.34766q-7.0791 -3.08203 -11.5254 -6.72656
q-3.19434 -2.07617 -10.0908 -4.2832q-6.8916 -2.20605 -14.6631 -4.22461q-3.00781 -1.19629 -4.95312 -1.70117l-6.3877 -4.15039q-13.1533 -10.0527 -23.4502 -2.35742zM48.9717 272.959q1.94141 0.503906 5.66895 2.9248q3.72559 2.42188 3.82031 2.86035
q0.09375 0.44043 -1.12988 1.15625q-1.22461 0.71875 -3.39258 3.47852q-2.16797 2.75293 -3.36523 5.7627q-12.3906 23.7461 5.87598 49.2344l15.7676 22.3516l-2.13086 -1.38281q-7.95996 -2.89844 -16.5068 -10.7207q-8.54688 -7.82129 -15.5518 -19.1836
q-10.9443 -16.9463 -12.4932 -28.5527q-1.54883 -11.6035 5.92676 -19.6172l2.95312 -3.38086q2.26074 -2.31836 6.55859 -3.69043t7.99902 -1.24023zM65.6367 282.269q0.188477 0.875977 0.71875 1.22363q0.533203 0.34375 3.91504 3.29688l12.084 9.36523
q16.5332 13.0078 21.2979 13.8301l4.7666 0.824219q3.88281 1.00977 4.13867 0.0380859q0.251953 -0.97168 -1.50586 -0.59668q-1.75488 0.37207 -10.4336 -3.74902q-8.67871 -4.12207 -14.3779 -9.33789l-15.6533 -13.1953l26.0059 10.0781
q2.13086 1.38477 7.20215 5.81152q5.07031 4.42871 12.7139 10.1504q7.64062 5.71582 13.8438 8.99023l12.4053 6.53906l8.33203 4.65527q5.32324 3.45605 11.3398 5.85059l44.4834 23.5908l28.3789 16.9131q10.6494 6.91602 24.1211 14.1484l38.4658 21.1973
q4.07129 1.88867 11.1543 4.97266l37.1611 15.0488q3.19434 2.0752 11.4043 4.00195q8.21289 1.9248 13.3496 4.50293l10.9668 4.0957q4.95117 1.7002 8.14648 3.77539q10.8359 7.79297 28.3242 12.3389q11.4727 2.14844 7.77344 2.02051
q-5.64355 -0.640625 -5.45605 0.239258q0.185547 0.879883 4.07031 1.88965l7.39941 0.260742q19.3789 0.472656 40.4707 4.70801q21.0938 4.23633 37.3867 11.7881q5.13867 2.58203 5.82715 1.51562q0.693359 -1.06445 -4.63086 -4.52246
q-14.1621 -6.16992 -33.9385 -10.6855q-19.7793 -4.5166 -38.2754 -5.17383q-8.27539 -0.0791016 -7.14453 -1.2334q1.12988 -1.16016 -10.0908 -4.2832q-11.2188 -3.12207 -17.7676 -5.85938q-6.5498 -2.73828 -9.83594 -5.25098q-3.29004 -2.51465 -9.30566 -4.9082
l-12.2178 -5.66504q-6.89258 -2.20508 -13.1621 -3.62598q-6.26855 -1.4209 -11.2207 -3.12305l-39.1035 -15.5547l-11.1543 -4.97363l-35.2715 -19.1201q-14.5361 -7.92383 -29.2568 -16.7285l-28.3789 -16.915l-40.2236 -20.8223q-8.33203 -4.65527 -12.5928 -7.41797
q-4.25781 -2.76855 -7.45312 -4.84375l-11.3398 -5.85254q-7.08301 -3.08496 -16.7598 -9.74609t-10.0508 -8.41992l3.00781 1.19824q1.94434 0.503906 8.30566 2.36523q6.3584 1.85938 10.4355 3.74902l19.2979 8.74707q9.90039 3.40137 26.9404 14.4658
q11.7129 7.60938 21.8008 11.8896q10.0918 4.28223 20.8711 7.49707q4.7666 0.822266 9.37012 3.05664q4.60254 2.2334 15.0654 8.27051q15.0986 10.5605 23.7754 14.6816q8.67871 4.12109 14.416 5.19629q5.73535 1.07422 12.8145 4.16211q15.0391 5.97949 26.2607 9.10156
q11.2188 3.125 22.5029 4.39746q27.5225 4.24902 49.2715 11.5557l32.1553 8.77051q13.7861 4.41211 27.4541 6.09668q13.668 1.68555 35.8652 2.47168q14.9844 1.40723 27.2393 2.93164q12.2568 1.52539 12.9775 2.74805q0.719727 1.22461 14.5078 5.6377
q9.90332 3.40332 22.1494 11.3574q12.2432 7.94922 24.5186 18.1943q18.5312 18.0869 33.8145 29.5273q15.2812 11.4365 44.7256 29.0469l44.3516 27.2852l25.1826 14.8408q14.7236 8.80469 27.501 17.1006q12.7783 8.2998 20.4199 14.0186q23.4834 19.793 41.0264 28.915
q17.5439 9.12207 41.3643 13.2383l7.77441 2.01855l-4.68359 64.3301q-3.31445 31.9111 -4.13281 51.8193q-0.816406 19.9111 0.208008 46.3125q0.96582 21.8223 0.605469 50.3564q-0.363281 28.5293 -1.37109 32.415q-0.87793 0.1875 -5.10938 -0.291992
q-4.23438 -0.475586 -7.14648 -1.2334q-2.91504 -0.756836 -25.0479 -3.39746q-22.1328 -2.6377 -53.8574 -5.07129q-15.6768 -0.341797 -30.1006 0.890625q-14.4238 1.23145 -24.9648 3.46973q-18.4424 3.91992 -31.0459 2.92773q-12.6016 -0.992188 -24.8193 -6.65918
q-9.39648 -5.34375 -23.7451 -12.3916q-14.3486 -7.04688 -22.8701 -12.5791l-32.6338 -19.6807l-21.4863 -14.7109q-9.77148 -7.10156 -18.6904 -16.6787q-8.92188 -9.57715 -26.2559 -30.6777l-9.82617 -11.6797l-18.8271 -28.123q-3.56836 -3.8291 -7.13672 -7.66211
l-11.7695 -12.1865q-12.2754 -10.2402 -16.3457 -12.1289q-5.51074 -4.33398 -14.4717 -9.77246q-8.95605 -5.44043 -18.168 -9.90723q-4.95117 -1.70312 -9.0498 -5.87793q-4.10254 -4.17871 -9.5752 -12.6533t-7.3584 -4.40234q0.186523 0.87793 2.5293 5.42969
q2.3418 4.55078 6.09863 9.25977l2.50293 3.13867l-1.75586 0.374023q-2.63574 0.561523 -11.1914 -0.833008q-8.55664 -1.39355 -16.3301 -3.41211q-27.2041 -7.06934 -49.793 -18.332q-22.5879 -11.2617 -33.291 -22.7539q-3.75684 -4.70996 -7.72461 -12.5879
q-3.96875 -7.875 -5.65039 -15.7803q-0.557617 -2.63184 -0.108398 -9.15527q0.449219 -6.52051 0.675781 -9.78125q0.224609 -3.25977 3.61523 -6.73242q3.39355 -3.47852 7.41016 -6.16699q11.043 -4.18262 28.4229 -8.7959q17.377 -4.61035 22.1416 -3.78906
q1.94336 0.507812 7.58594 1.14453q5.64258 0.635742 6.89355 2.20508q1.25195 1.56836 -0.261719 7.40039q-0.956055 8.46094 -3.34668 14.4785l-2.07715 3.19629q-0.503906 1.94141 -3.77539 8.14453l-8.2959 12.7783q-3.27344 6.20117 -4.81738 9.74316
q-1.54199 3.54004 -3.01855 5.23047q-1.47559 1.69043 -4.61523 4.19238l-4.70898 3.75586l-13.1719 2.80078l-5.64453 -0.637695q-3.69922 -0.130859 -4.92285 0.588867q-1.22559 0.720703 3.63379 1.97949q4.85742 1.2627 8.02539 1.0498
q3.16699 -0.213867 8.43555 -1.33398l7.02539 -1.49414l3.83301 -3.56738q4.0166 -2.68848 5.83887 -4.91309q1.82422 -2.22363 3.61719 -6.73633q1.79492 -4.51074 4.2168 -8.24023q2.41797 -3.72363 4.49121 -6.92188l2.89941 -7.95605q4.46777 -9.21289 6.99121 -18.9248
q2.52539 -9.71777 1.68457 -13.6699q-0.839844 -3.95215 -6.48047 -4.58887l-3.88965 -1.01172l0.878906 -0.1875l54.1318 -8.74805q7.9043 -1.67871 23.0781 0.601562q15.1709 2.2832 27.2012 7.07129l7.95996 2.89453q3.8877 1.01172 8.14746 3.77637l26.2441 15.5332
l51.249 29.4951q5.13574 2.57715 16.4512 6.13965q11.3115 3.5625 18.7119 3.82617q8.64844 1.83105 26.3535 9.54102q17.7012 7.71094 18.0752 9.47266q-1.75781 0.370117 3.93945 5.58594l11.9561 13.0615q20.3418 22.293 23.5146 37.2236q0.5625 2.63477 1.78613 1.91504
q1.22461 -0.717773 -0.333984 -5.89453q-1.56152 -5.17578 -3.55859 -10.2578q-4.68652 -9.10059 -11.4775 -17.2959q-6.78906 -8.19434 -19.25 -19.3154q-3.38281 -2.9502 -1.44043 -2.44727q4.01855 -2.68848 -12.5518 -11.5596q-16.5723 -8.86816 -33.5264 -13.0664
q-16.958 -4.19824 -24.8252 -6.65625q-7.86621 -2.45703 -12.124 -5.22363l-23.7461 -12.3926l-53.5625 -31.7559q-4.44434 -3.64648 -8.33105 -4.65332q-12.9121 -4.59961 -21.1221 -6.52734q-8.21094 -1.92676 -14.9189 -3.25391l-8.65234 -1.83496
q-5.6416 -0.633789 -11.0059 0.0458984q-5.36133 0.680664 -20.292 3.85547l-15.1143 2.2959l-7.21289 0.614258l-8.96973 0.986328q-13.5469 1.0459 -22.1035 -0.348633q-8.55566 -1.39453 -29.7998 -10.6465l-12.9102 -4.60156q-20.8711 -7.49414 -44.7363 -22.6152
q-23.8652 -15.1221 -32.4414 -25.2305q-2.6875 -4.01758 -7.32227 -8.53809l-7.32227 -8.54102q-3.56836 -3.83203 -9.0791 -8.16895l-17.9717 -15.457q-11.207 -9.5498 -22.7891 -20.8545q-11.5859 -11.3076 -15.9541 -23.2305q-2.18652 -5.95898 -2.86621 -11.3223
q-0.678711 -5.36328 -0.613281 -7.21191q0.0644531 -1.85156 -0.786133 0.624023q-0.851562 2.47656 -0.555664 12.5098l0.936523 4.39258l-5.13867 -2.58008q-13.4707 -7.23242 -27.9658 -19.2969q-14.499 -12.0635 -22.3809 -23.2402l-11.6387 -15.8857
q-7.69727 -10.2969 -10.4131 -16.6006q-2.7168 -6.30762 -1.7627 -14.7715q-0.482422 -10.9111 4.7041 -18.8994q5.1875 -7.98633 11.0166 -6.4707zM63.0596 360.838q3.8877 1.00781 8.30566 2.36523q4.41895 1.35449 6.73535 3.61719q8.38867 9.23047 20.9131 18.501
q12.5254 9.26855 23.6807 14.2422l6.20117 3.27051l2.87793 4.89648q5.37793 8.03516 14.3916 18.0518q9.01465 10.0156 19.1602 18.8779q6.76074 5.90234 1.09082 2.97754q-5.66992 -2.92676 -16.2637 -5.2627q-27.709 -5.12598 -45.5947 -13.7158
q-17.8916 -8.58789 -33.041 -23.7246q-11.7705 -12.1855 -15.9521 -23.2295q-4.18457 -11.043 -1.90234 -26.2129q-0.186523 -0.879883 3.00879 1.19531q3.19336 2.07324 6.38867 4.15039zM268.083 379.674q-5.58789 3.94141 -5.21289 5.69824
q0.371094 1.75684 1.84668 0.0654297q1.47754 -1.69141 5.59082 -3.94238q4.11035 -2.25 2.95117 -3.37988q-1.15723 -1.13184 -5.17578 1.55859zM283.551 391.99q-3.64453 4.44922 1.25293 1.57129q1.57031 -1.25293 4.29785 -1.37305q2.72754 -0.121094 2.44922 -1.43945
q-0.28125 -1.31543 -3.44922 -1.10156q-3.16699 0.214844 -4.55078 2.34277zM253.429 405.737q-4.89648 2.87695 -8.54004 7.32324q-3.64453 4.44434 -3.01855 5.22949q0.624023 0.78418 3.48535 -3.03418q2.86035 -3.82031 10.3896 -7.25781
q5.08301 -1.99609 3.92578 -3.12988q-1.15918 -1.12988 -6.24219 0.869141zM261.816 414.97q-3.83105 3.56641 -3.20605 4.35156q0.626953 0.78418 2.88867 -1.5332l3.32324 -1.62305q1.57324 -1.25195 0.947266 -2.03809q-0.625977 -0.783203 -3.95312 0.842773z
M193.44 468.972q3.75391 4.70898 9.44824 9.92578q5.69824 5.21387 7.3252 8.53906l2.50098 3.13672q2.50488 3.14062 -3.50879 0.749023q-8.83887 -2.71094 -16.5078 -10.7188q-7.66797 -8.00781 -9.53613 -16.7891l-0.74707 -3.51465l3.19434 2.0752
q3.19531 2.07324 7.83105 6.59668zM403.604 563.821q-7.41992 12.5898 -10.6748 27.5117q-3.25391 14.918 -2.02344 29.3438q1.86816 8.78027 2.07422 -3.19629q0.208008 -11.9785 2.89062 -23.1016q2.68555 -11.1279 8.34766 -23.3447l3.08398 -7.08203
q0.504883 -1.94336 -0.654297 -3.07422q-1.15723 -1.13184 -3.04395 2.94336zM417.129 575.634q-3.27051 6.2002 -4.91699 15.7285q-1.64746 9.53223 -0.15332 16.5566q1.49316 7.02441 1.75586 -0.373047q-0.350586 -14.6133 6.00391 -27.8975
q3.27051 -6.19922 0.451172 -6.51758q-1.06543 -0.694336 -3.14062 2.50293zM578.685 640.425q0.371094 1.75781 2.50098 3.13867q9.08008 8.16797 11.7324 16.3262q2.65137 8.1543 1.37695 19.4414q-0.766602 9.3418 2.31836 2.26074q6.43066 -21.5615 -12.79 -38.5879
q-6.57812 -5.02832 -5.13867 -2.5791zM786.149 774.398l-0.131836 3.70117l1.23242 14.4229q3.46875 24.9648 -3.45703 42.042q-6.92773 17.0762 -26.7744 35.9814q-9.04492 9.26562 0.560547 2.63184q24.4258 -18.959 32.2646 -40.3613q7.84473 -21.3994 1.49805 -51.2617
l-1.86621 -8.78125l-0.878906 0.1875q-1.94336 -0.506836 -2.44727 1.4375z" />
</svg>
