<?xml version="1.0" standalone="no"?>
<!DOCTYPE svg PUBLIC "-//W3C//DTD SVG 1.1//EN" "http://www.w3.org/Graphics/SVG/1.1/DTD/svg11.dtd" >
<svg xmlns="http://www.w3.org/2000/svg" xmlns:xlink="http://www.w3.org/1999/xlink" version="1.1" viewBox="-10 0 914 1024">
   <path fill="currentColor"
d="M856.544 257.974q-3.76855 0.735352 -12.2832 3.08594q-17.96 4.65332 -33.6465 10.3604q-15.6855 5.70605 -37.6094 14.8135l-59.1182 24.877l-19.9189 6.41504l-17.1299 6.5625q-12.3809 4.94434 -13.3096 4.89648q-2.74316 -1.0752 -16.0059 2.8916
q-13.2617 3.9668 -26.5713 8.86523l-27.6035 10.6748l-10.2305 -0.535156q-11.1582 -0.584961 -17.7168 0.00292969l-20.6055 1.7207q-11.2578 1.27344 -18.3301 2.76758q-7.07031 1.49316 -11.8174 3.11133q-31.3711 11.4082 -45.2676 27.4658
q-3.96289 4.45508 -9.34473 9.30176q-5.38281 4.84766 -14.1436 11.8467q-17.5186 14.0039 -29.3115 25.5068l-3.91504 3.52148q-0.976562 0.884766 -3.30273 0.763672q-2.32422 -0.123047 -9.86426 1.34766l-15.9521 1.96289q-16.0039 2.89062 -32.5713 7.61621
q-16.5664 4.72656 -24.2246 8.52246q-7.65918 3.79492 -18.3271 11.6279l-14.4844 9.49512l-15.4639 10.3809l-28.7773 15.2773q-15.2676 6.66211 -31.5898 15.5967q-16.3193 8.93652 -31.7344 18.3857q-16.3945 10.3311 -29.7539 16.1582l-13.4561 7.68555
l-29.6592 14.2988l-31.6611 16.9902l-8.70996 6.07129q-6.70605 3.37793 -8.56543 3.28125l0.241211 -22.3672q0.140625 -20.5088 -0.59375 -24.2754q-2.74219 -1.07812 -21.7812 -2.54004q-19.0391 -1.46387 -22.9062 1.12891q-2.10156 4.55371 -1.85645 17.6201
l-0.676758 30.7373q-2.62793 67.9336 -2.2168 157.941q0.414062 90.0078 2.62109 119.032q3.42676 5.77344 21.1934 4.83984q17.7676 -0.935547 19.7725 -3.62695l1.06641 -38.1768q0.981445 -0.881836 26.5781 -0.00488281q25.5967 0.875 71.1162 4.19336
q26.9688 1.41309 34.8965 1.3623q7.93164 -0.0507812 18.3047 -2.30469q18.9395 -5.53516 37.1445 -14.8379l21.1426 -11.9453q5.62793 -0.640625 11.8672 -4.04395q6.2373 -3.40137 11.0361 -5.94922l11.5977 -7.78223l23.3418 -18.3604q5.82422 -4.35742 8.75879 -7
l5.96973 -7.14746q5.87012 -5.28809 15.8545 -17.8164l4.98926 -6.26758q11.1074 -16.2041 13.2119 -20.7559q7.19043 -12.6777 10.4199 -20.9014q1.22168 -5.53125 4.30273 -10.9639l5.28516 -11.8447l3.27539 -9.15527q1.17383 -4.60059 3.22949 -8.22266
l3.03125 -4.50391q4.06445 -6.31152 17.1787 -16.3496q13.1152 -10.0371 29.5068 -20.3682q43.3115 -25.7051 56.8623 -52.9707q2.00488 -2.68945 2.51758 -3.59668q0.514648 -0.904297 3.79297 -1.2002q3.28027 -0.294922 10.9141 -3.625l29.4639 -10.5771l2.69238 2.00391
q3.62109 2.05664 4.89258 4.4541q1.27344 2.39844 2.69531 10.8652q4.40918 22.6113 -5.81641 39.7939l-6.06543 9.00391q-3.08203 5.43555 -4.99219 6.26855l-11.8906 13.3652q-9.78613 8.81152 -18.4482 13.9512l-10.5205 5.04297q-10.668 7.83496 -31.5166 14.2031
l-12.332 4.01465q-5.72559 2.49609 -13.2393 3.50195q-7.5127 1.00586 -9.42285 1.83887q-11.5967 7.7832 -23.9785 12.7295q-12.3809 4.94629 -23.4395 11.3613q-11.0625 6.41113 -10.6943 8.29883q0.366211 1.88184 6.14355 -1.54492q2.88867 -1.71289 11.9639 -5.90039
q9.08008 -4.18652 17.6426 -7.46875q8.56543 -3.27832 15.7578 -7.09961q7.19629 -3.81934 10.1309 -6.46191q2.9375 -2.64355 4.79688 -2.5459q5.5791 0.292969 15.0254 -2.00977l9.49414 -3.23438q17.0303 -4.7002 27.5283 -9.27832q10.4971 -4.5791 25.9619 -14.96
q9.6875 -6.95215 18.5918 -16.7412l10.9629 -13.4141q3.03027 -4.50391 5.60156 -9.03125q2.56738 -4.53027 7.01855 -18.2812q2.93262 -20.3633 -2.01465 -32.7441q-1.42188 -8.46777 -5.53223 -10.0811q-4.11133 -1.61621 0.634766 -3.23145
q12.4316 -5.87598 22.1211 -12.8281l13.5059 -8.61621q12.4297 -5.875 26.917 -15.375l17.3721 -11.2109q12.6729 -10.5254 17.8096 -19.5811q5.04004 -7.19629 19.1338 -18.1143q14.0947 -10.9189 18.8418 -12.5352q44.5879 3.27148 61.5674 -18.2207l5.96875 -7.14453
q4.94043 -5.33691 7.48535 -9.40137q2.54395 -4.06152 3.7666 -9.59277q1.36914 -8.31934 3.37598 -11.0117q2.00391 -2.69336 8.66016 -5.1416l32.5938 -16.9424l29.8008 -17.0879q4.79785 -2.54492 8.71191 -6.07129l9.73828 -7.88184q18.4971 -14.8828 20.8896 -42.7305
q1.51367 -11.1113 -4.0918 -19.7979q-5.60645 -8.68652 -15.7393 -11.082l-3.57129 -2.9873l1.61523 4.75q2.05957 14.0967 -14.2383 22.5654q-4.69727 0.685547 -26.1113 0.0302734q-21.4121 -0.655273 -32.5215 -2.17188q-7.44043 -0.388672 -2.40039 1.27441
q5.04297 1.66309 19.8965 2.9082q14.8564 1.24414 21.3643 1.58496l12.1396 -0.295898q9.34766 -0.442383 16.1729 -6.14648q6.82812 -5.70215 7.31445 -15.0049q-0.6875 -4.69629 4.65039 0.246094q10.8672 6.16406 10.1348 20.1133q-0.389648 7.4375 -2.71191 16.1758
q-2.32324 8.7373 -6.43262 15.9824q-3.03418 4.50488 -13.7988 14.1973q-10.7656 9.69336 -17.5176 13.999l-59.5107 32.3174l-5.72461 2.49707l-4.16211 -9.54199q-3.33008 -7.63477 -10.5752 -11.7432q-4.55176 -2.10449 -17.499 -4.18066
q-12.9443 -2.08008 -28.8047 -1.97754l-43.8506 0.499023q-9.30078 -0.487305 -25.1094 -1.31543t-21.3408 -2.05078l-12.04 -1.56445q-9.2998 -0.486328 -10.2041 -0.998047q-0.905273 -0.515625 3.84277 -2.13086l76.0518 -27.7197l14.1914 -3.91895
q8.51465 -2.35059 14.2412 -4.84961l66.7061 -27.2744q13.3584 -5.8291 28.5547 -11.0928q15.1973 -5.26367 27.4795 -8.35156l15.124 -3.86914q4.69727 -0.685547 8.46582 -1.42188q11.1602 0.585938 8.05078 -2.37402q-3.1084 -2.96191 -12.4082 -3.44922z
M746.435 312.815l0.855469 1.44434q0.858398 1.44141 1.22559 3.32617q0.365234 1.88574 1.39453 0.0722656q1.02637 -1.81055 -0.712891 -4.23145q-1.7373 -2.42188 -2.7627 -0.611328zM733.27 314.922q-0.0498047 0.930664 1.2959 1.93262q1.3457 1.00488 2.15527 3.37793
q0.807617 2.37402 0.929688 0.0478516q0.121094 -2.32324 -1.6416 -4.28125q-1.7627 -1.95605 -2.73926 -1.07715zM590.215 357.78q13.9492 0.730469 33.3799 3.61523q19.4336 2.88281 32.4521 3.56445l42.8242 1.31055h17.7188q0.928711 0.0488281 4.96777 3.05664
q4.03809 3.00977 12.752 5.79688q8.71289 2.78906 11.4521 3.86328l8.37207 0.439453q6.50781 0.34082 12.1377 -0.297852q8.56348 -3.2832 -0.833008 -1.9082q-3.76953 0.735352 -9.34863 0.442383l-7.43848 -0.390625q-3.7207 -0.194336 -10.1318 -2.39551
q-6.41211 -2.2002 -9.1543 -3.27637l-9.05664 -5.13672q2.8877 -1.71387 19.5781 0.09375q16.6904 1.80664 22.1953 3.49219q5.50879 1.68848 9.71973 10.3037q4.21289 8.60938 2.40332 16.4434q-1.80957 7.83008 -3.37598 11.0127q-1.56543 3.17969 -7.4375 8.46875
q-5.13672 9.05469 -10.4961 13.4365q-5.35742 4.38281 -11.9658 5.90234q-10.5205 5.04102 -17.1035 6.09473q-6.58398 1.05469 -16.7627 -0.411133l-24.1787 -1.26855q-12.0898 -0.629883 -22.2686 -2.09863q-10.1836 -1.46582 -8.66602 -3.71777
q1.5166 -2.25293 1.63867 -4.57617q0.124023 -2.32422 -1.27148 -2.39648q-1.39551 -0.0742188 -3.35254 1.6875q-1.95703 1.7627 -2.47168 2.66992q-0.514648 0.90332 -5.89551 5.75195q-5.38379 4.84473 -10.1787 7.39062q-8.61621 4.21289 -19.0381 7.39648
q-13.3125 4.89551 -18.4512 5.09277t-10.7676 0.834961q-13.9971 0.198242 -13.8535 -2.59082q0.149414 -2.79102 -1.66406 -3.81738q-1.80957 -1.02637 -2.88574 1.71387l-2.20117 6.41309q-2.15332 5.48242 -6.72754 12.7031q-4.57324 7.2168 -9.61328 14.415
l-33.8613 41.1191q-16.6846 15.9102 -14.042 18.8477q4.60059 1.17188 15.5625 -12.2422l16.9785 -21.4873l22.8496 -26.7793q9.93457 -11.5996 13.2598 -21.6836l1.07422 -2.74023l8.37012 0.4375q13.9502 0.731445 22.416 -0.69043q8.46777 -1.41992 14.1455 -2.98828
l14.29 -5.77832q10.4746 -4.11328 14.3877 -7.63867l6.80078 -5.23926l41.6533 5.91504l-4.89355 4.40527q-13.5059 8.61719 -33.3721 31.8193q-4.99121 6.26562 -12.2832 11.9463q-7.29102 5.67871 -15.9033 9.89062l-60.585 35.0547q-17.1777 7.49219 -23.832 9.94141
q-3.81836 1.66504 -12.2861 3.08691l-10.4248 3.18457q0.0488281 -0.930664 2.10352 -4.55371l4.99121 -6.26465q5.9707 -7.14844 13.8232 -14.6611q7.85449 -7.51367 14.6074 -11.8242l9.6416 -6.02246q3.91309 -3.52539 6.80176 -5.23828l14.291 -5.77832
q5.72656 -2.49805 19.6992 -11.0889q13.9697 -8.59375 27.5244 -18.1416q8.75879 -7.00098 3.22852 -8.22266q-3.7666 0.735352 -21.1895 12.8779q-17.4209 12.1416 -22.2656 15.6182q-13.3115 4.89648 -20.5068 8.71387q-7.19336 3.81934 -11.0596 6.41504
l-8.70996 6.07129q-12.5303 7.73438 -22.4375 18.873q-9.90723 11.1357 -15.1416 22.0537l-5.13965 9.05469l-5.13672 9.05664q-4.05957 6.3125 -13.4053 15.6152q-9.3457 9.30078 -19.9658 16.2041l-7.78027 6.12012l-18.3037 11.1631q-8.66113 5.14062 -19.3291 12.9736
q-2.93457 2.64258 -7.87793 7.97949l-8.95508 10.7227l-3.0332 4.50195q-2.00391 2.69336 -3.08301 5.43262l-6.35938 14.5879l-10.5654 23.6904q-4.25586 10.0332 -12.9658 24.9629q-8.70801 14.9316 -15.6084 22.0293l-6.99414 8.95996q-5.87305 5.28516 -12.7471 11.9199
q-6.87695 6.63281 -10.791 10.1592l-17.4697 13.0723l-17.4199 12.1387q-4.84668 3.47656 -15.3193 7.59082q-10.4707 4.11328 -15.2676 6.65918l-15.3193 7.59082q-12.4795 6.80469 -22.9023 9.98828q-15.1719 4.80078 -26.8457 5.12109
q-11.6699 0.320312 -51.6592 -1.77539q-36.2676 -1.90039 -57.7061 -2.09082l-23.2959 -0.291016l-0.157227 -50.3613q-0.451172 -44.7832 0.37793 -60.5908l4.42676 -120.061l57.3564 -26.832q49.7695 -24.4336 66.0664 -32.9062q23.0977 -13.71 37.0205 -21.3711
q13.9238 -7.66504 31.1494 -16.0869q17.2236 -8.42285 31.1719 -16.5498q13.9473 -8.125 26.5723 -17.7207l10.6699 -7.83594q3.81543 -1.66602 8.6123 -4.20996q10.4727 -4.11426 25.1299 -8.00879q14.6582 -3.89453 27.8232 -6.00098l12.1865 -1.22656
q6.6543 -2.44922 0.783203 2.83789q-5.96777 7.14648 -13.1113 18.8965q-2.98535 3.57324 -4.47852 5.3584q-1.49121 1.78711 -4.37793 3.50098q-15.4658 10.3799 -25.2764 19.6553q-9.8125 9.2793 -5.20996 10.4521l20.502 -17.5762q7.78125 -6.11914 14.5352 -10.4258
l7.7334 -5.19141q9.63965 -6.02246 5.96777 -7.14648q-0.929688 -0.0498047 -3.81641 1.66406l-3.81738 1.66309l7.97559 -9.83594q7.92773 -8.90918 12.8691 -14.248l24.418 -21.0996l31.2197 -26.3389q4.84473 -3.47656 8.8584 -8.86035
q24.7109 -26.6787 72.5244 -31.6328l18.748 -1.81543zM536.186 374.53l0.882812 0.981445q3.66895 1.12207 4.91797 3.98633t1.37012 0.539062q0.12207 -2.32715 -2.5459 -4.79688q-2.66797 -2.47168 -4.625 -0.709961zM517.197 380.997q-3.76953 0.733398 1.81055 1.02539
q5.58105 0.294922 7.24609 4.11035q1.66504 3.81738 1.86133 0.0966797q-2.40137 -7.58301 -10.918 -5.23242zM53.1396 712.89q-1.55762 47.4736 -1.64062 102.485l-0.329102 59.6621l-27.166 2.30762l-2.41895 -96.1748l0.537109 -223.77l37.1982 1.94824zM438.308 640.759
q-0.977539 0.878906 -1.26953 6.45801q-0.146484 2.79102 0.0507812 7.93066q0.196289 5.1377 2.7666 9.46875q2.57227 4.33203 3.54883 3.4502q0.980469 -0.880859 -0.733398 -3.76855q-1.56641 -5.67676 -2.64746 -11.7939q-1.07715 -6.11914 -0.0498047 -7.92871
q1.02734 -1.81055 0.194336 -3.71875q-0.833008 -1.91016 -1.86035 -0.0976562z" />
</svg>
