<?xml version="1.0" standalone="no"?>
<!DOCTYPE svg PUBLIC "-//W3C//DTD SVG 1.1//EN" "http://www.w3.org/Graphics/SVG/1.1/DTD/svg11.dtd" >
<svg xmlns="http://www.w3.org/2000/svg" xmlns:xlink="http://www.w3.org/1999/xlink" version="1.1" viewBox="-10 0 712 1024">
   <path fill="currentColor"
d="M26.1602 88.9199q-0.959961 10.5605 -0.959961 18.2402q0 13.4395 36.4795 77.7598q6.7207 9.59961 7.68066 14.4004l8.63965 29.7598q5.75977 19.2002 9.59961 30.7197q2.88086 4.7998 8.64062 17.7598t15.8398 30.7207q10.0801 17.7598 17.7598 27.3594
l1.91992 2.87988l-1.91992 4.80078q-4.7998 11.5195 -2.39941 26.3994q2.39941 14.8799 12 37.9199l4.7998 10.5605q6.71973 16.3193 14.8799 30.2402q8.16016 13.9199 17.7598 23.5195q3.83984 3.83984 3.83984 4.7998t1.91992 2.87988l1.91992 3.84082
q1.9209 2.87988 5.76074 6.71973t7.67969 5.75977l2.87988 1.91992v2.87988q0 4.7998 3.36035 12q3.35938 7.2002 8.16016 12.96q1.91992 2.87988 3.83984 6.7207l10.5596 26.8799l4.7998 17.2793q1.91992 5.76074 1.91992 8.16016q0 2.40039 1.44043 7.2002
t1.44043 11.5205l0.959961 9.59961q0.959961 3.83984 0.959961 14.4004l0.959961 24q-0.959961 3.83984 0 6.71973l12.4795 47.04q1.91992 4.7998 3.83984 7.67969q8.64062 18.2402 26.8809 40.3203q3.83984 4.7998 3.83984 5.75977q0.959961 7.67969 14.8799 22.5596
q13.9199 14.8809 32.1602 26.4004q26.8799 18.2402 36.4795 20.1602q2.87988 0.959961 6.71973 4.7998l3.84082 2.87988l5.75977 7.68066l18.2402 12.4795q14.3994 10.5596 36.4795 16.3203q15.3604 4.7998 20.1602 6.71973l18.2402 6.71973q3.83984 0.959961 12 4.7998
q8.16016 3.84082 17.7598 9.60059q16.3203 8.63965 23.04 12.4795q3.83984 0.959961 2.87988 2.88086l-10.5596 54.7197q-0.959961 2.87988 1.91992 4.7998l14.3994 9.59961q1.91992 0.959961 3.83984 0.959961l3.84082 0.959961l1.91992 -1.91992
q1.91992 -0.959961 1.91992 -4.7998q0.959961 -6.71973 6.24023 -27.8398q5.2793 -21.1201 10.0791 -37.4404l16.3203 -57.5996l10.5605 -32.6396q10.5596 -32.6406 24.96 -69.6006q14.3994 -36.96 26.8799 -66.7197l12.4795 -28.7998q5.75977 -12.4805 6.7207 -13.4404
q0.959961 -0.959961 0 -2.87988q-0.960938 -1.91992 -4.80078 -2.87988l-7.67969 -1.91992q-2.87988 -0.959961 -10.0801 -2.40039q-7.2002 -1.43945 -9.59961 -1.43945q-2.40039 0 -6.7207 8.16016q-4.31934 8.15918 -14.8799 33.1201q-2.87988 9.59961 -4.7998 10.5596
t-8.63965 0q-11.5205 -2.87988 -19.6807 -6.71973q-8.15918 -3.83984 -18.7197 -11.5205q-6.71973 -4.7998 -10.5596 -9.59961t-9.60059 -12.4805l-6.71973 -12.4795l-38.4004 -69.1201l-34.5596 -72.96l-16.3203 -41.2803l-16.3193 -48
q-1.91992 -5.75977 -4.80078 -10.5596l-8.63965 -14.4004q-3.83984 -6.71973 -8.63965 -12q-4.80078 -5.28027 -10.5605 -9.12012l-5.75977 -3.83984q-11.5195 -6.71973 -19.2002 -10.5596l-17.2803 -7.68066l-9.59961 -3.83984l-16.3203 -10.5596
q-11.5195 -7.68066 -17.7598 -12.96q-6.24023 -5.28027 -15.8398 -15.8408q-11.5195 -12.4795 -24.96 -24.4795t-24.96 -18.7197l-12.4805 -9.60059q-5.75977 -3.83984 -12.4795 -6.71973l-10.5605 -2.87988l-1.91992 -2.87988q-0.959961 -1.91992 -0.479492 -3.83984
q0.479492 -1.91992 -4.32031 -5.76074l-2.87988 -2.87988q0 -1.91992 -1.91992 -3.83984l-3.83984 -4.7998l-3.83984 -5.75977l-4.80078 -10.5605q-7.67969 -19.2002 -16.3193 -28.7998q-2.87988 -2.87988 -5.28027 -7.2002q-2.40039 -4.31934 -8.16016 -12
q-5.75977 -7.67969 -12.4795 -15.3594l-4.80078 -4.80078l-2.87988 -5.75977q-4.7998 -7.67969 -5.75977 -10.5596t-3.83984 -7.2002t-6.24023 -10.0801q-3.35938 -5.75977 -5.75977 -8.63965q-2.40039 -2.88086 -5.28027 -4.80078l-3.83984 -2.87988l-0.959961 -5.75977
q-1.91992 -5.75977 -5.75977 -13.4404l-8.64062 -19.1992q-1.91992 -3.83984 -4.7998 -5.76074l-6.71973 -2.87988l-7.67969 -2.87988l-3.84082 -5.75977q-1.91992 -4.7998 -5.75977 -7.67969t-5.75977 -2.87988h-7.67969q-5.76074 0.959961 -10.0801 3.83984
q-4.32031 2.87988 -9.60059 7.67969q-5.2793 4.7998 -8.15918 19.2002q-0.960938 3.83984 -0.960938 9.59961q0 4.7998 0.960938 10.5605q1.91992 12.4795 2.87988 17.2793l3.83984 13.4404zM56.8799 7.32031q2.87988 1.91992 6.71973 5.75977
q3.84082 3.83984 3.84082 5.28027q0 1.43945 -3.36035 1.91992q-3.36035 0.479492 -7.2002 1.43945q0 1.91992 -1.91992 -5.75977t-0.959961 -9.12012q0.959961 -1.43945 2.87988 0.480469zM52.0801 10.2002q-0.959961 3.83984 0.959961 6.71973l0.959961 6.71973
q-3.83984 3.84082 -6.71973 11.04q-2.87988 7.2002 -4.7998 21.6006q-5.76074 30.7197 0.959961 56.6396q1.91992 5.75977 0.959961 5.28027q-0.959961 -0.480469 -6.24023 -10.5605t-7.2002 -14.8799l-2.87988 -11.5195q-3.83984 -14.4004 -5.75977 -26.8799
q-1.91992 -12.4805 -0.959961 -19.6807q0.959961 -7.19922 3.35938 -11.5195q2.40039 -4.32031 6.24023 -8.16016q9.59961 -8.63965 15.3604 -8.63965q5.75977 0 5.75977 0.959961v2.87988zM74.1602 23.6396q2.87988 0.959961 4.7998 1.91992l2.87988 1.9209
l-1.91992 3.83984q-1.91992 2.87988 -1.91992 4.7998t2.87988 6.71973q3.83984 6.71973 10.5605 18.2402l8.63965 11.5195l-16.3203 -28.7998q-3.83984 -4.7998 -3.35938 -8.16016q0.479492 -3.35938 2.39941 -6.23926q1.91992 -2.88086 2.87988 -1.44043t3.83984 9.12012
q5.76074 13.4395 8.64062 20.1602l2.87988 11.5195l3.83984 13.4404q2.87988 0 9.12012 12t14.8799 32.1602q3.83984 6.71973 8.63965 15.8398q4.80078 9.12012 8.64062 15.8398q5.75977 8.63965 11.5195 19.2002l21.1201 39.3594q5.75977 8.64062 0 8.64062
q3.83984 0.959961 8.64062 4.31934q4.7998 3.36035 4.7998 4.32031t-1.91992 1.91992q-6.7207 0.959961 -9.60059 2.87988l-4.7998 3.83984q-3.83984 1.9209 -3.83984 3.36035q0 1.44043 6.24023 -2.39941q6.23926 -3.84082 12.96 -4.32031
q6.71973 -0.480469 6.71973 4.32031l-2.87988 2.87988q-8.63965 3.83984 -6.71973 5.2793q1.91992 1.44043 5.2793 0q3.36035 -1.43945 4.80078 -3.83984q1.43945 -2.39941 4.7998 0.480469q3.35938 2.87988 12 13.4395l6.71973 7.68066l37.4404 39.3594
q6.71973 4.7998 12.4795 11.5205q7.67969 8.63965 12.4805 12.4795l11.5195 5.75977l5.75977 1.9209l22.0801 11.5195q17.2803 8.63965 27.3604 20.1602q10.0801 11.5195 24.4795 39.3604q5.76074 11.5195 7.68066 11.5195t-7.2002 -16.3203q-9.12012 -16.3193 -14.8799 -24
l-2.87988 -5.75977q-1.91992 -1.91992 -7.68066 -8.63965q-5.75977 -6.7207 -12.96 -11.04q-7.19922 -4.32031 -22.5596 -12l-17.2803 -8.64062q-1.91992 -1.91992 -3.35938 -1.91992q-1.44043 0 -4.80078 -1.43945q-3.35938 -1.44043 -6.23926 -4.32031l-9.60059 -11.5195
q-4.7998 -3.84082 -11.5195 -9.60059l-8.64062 -8.63965l-24 -26.8799l-12.4795 -13.4404q-11.5205 -14.3994 -13.9199 -14.8799q-2.40039 -0.479492 -2.40039 -3.36035q0 -2.87988 -3.83984 -3.83984q-1.91992 -0.959961 -2.87988 -4.31934
q-0.959961 -3.36035 -5.75977 -5.76074q-4.80078 -2.39941 -4.80078 -4.31934t-1.91992 -6.24023t-3.83984 -6.24023l-26.8799 -48.96q-8.63965 -12.4795 -12.96 -20.6396t-7.2002 -13.9199l-9.59961 -23.04q-3.83984 -10.5605 -6.71973 -15.3604l-5.76074 -8.63965
q-2.87988 -3.83984 -0.959961 -2.87988t2.87988 1.43945q0.959961 0.480469 5.76074 9.12012q2.87988 4.7998 5.75977 7.67969l2.87988 5.76074l2.87988 7.67969q3.83984 8.63965 11.5205 17.2803q7.67969 8.63965 11.04 12.96q3.35938 4.31934 5.2793 8.15918
q4.7998 9.60059 6.7207 10.0801q1.91992 0.480469 6.71973 7.68066t7.67969 12.96l5.75977 12.4795l2.87988 9.60059q0 0.959961 2.40039 2.39941q2.40039 1.44043 4.7998 5.28027q2.40039 3.83984 2.40039 5.28027q0 1.43945 3.83984 4.31934
q3.83984 2.88086 3.83984 4.80078t0.959961 7.67969q3.83984 0.959961 11.5205 3.83984l7.67969 1.91992q1.91992 1.91992 4.32031 3.83984q2.39941 1.91992 7.2002 4.80078l9.59961 5.75977l10.5596 7.67969q8.64062 5.75977 21.1201 18.2402
q12.4805 12.4795 18.2402 20.1602l13.4404 13.4395l20.1592 14.4004l15.3604 9.59961q4.7998 2.87988 9.59961 4.7998l32.6406 15.3604l10.5596 6.71973q7.68066 4.80078 10.5605 9.60059l13.4395 20.1602q4.7998 7.67969 7.68066 16.3193l4.7998 14.4004l8.63965 28.7998
l17.2803 45.1201l33.5996 71.04l12.4805 24q8.63965 16.3203 11.5195 21.1201l5.75977 9.59961l21.1201 33.6006q26.8799 24.96 36.4805 29.2793q9.59961 4.32031 21.1201 6.24023l5.75977 1.91992q0 0.959961 -3.83984 12.4805l-16.3203 43.1992l-23.04 69.1201
l-18.2402 63.3604l-7.67969 30.7197q0 0.959961 -20.1602 -10.5596l-16.3193 -8.64062l-20.1602 -8.63965q-8.64062 -3.83984 -17.2803 -7.2002q-8.63965 -3.35938 -20.1602 -7.19922q-16.3193 -4.80078 -29.7598 -11.04q-13.4404 -6.24023 -20.1602 -12.96
l-13.4395 -13.4404q4.7998 -2.87988 -1.9209 -3.83984q-1.91992 0 -5.75977 -1.91992l-15.3594 -6.7207l-9.60059 -4.7998l-14.3994 -9.59961q-17.2803 -10.5605 -28.8008 -24.96l-8.63965 -9.60059q-0.959961 -1.91992 3.83984 0.959961q5.75977 4.80078 4.7998 2.88086
q-0.959961 -1.9209 -9.59961 -10.5605t-17.2803 -22.0801q-11.5195 -17.2803 -15.8398 -25.9199t-6.24023 -16.3203l-10.5596 -35.5195q0 -1.91992 -1.91992 -6.71973v-41.2803l-0.959961 -11.5205q-0.959961 -6.71973 -1.91992 -10.5596l-5.76074 -31.6797
q-2.87988 -9.60059 -8.15918 -20.6406q-5.28027 -11.04 -8.64062 -16.3193q-3.35938 -5.28027 -6.23926 -11.5205q-2.88086 -6.24023 -3.36035 -10.5596q-0.480469 -4.32031 -3.36035 -5.28027q-3.83984 -1.91992 -8.63965 -6.71973t-6.71973 -10.5605
q-1.91992 -5.75977 -4.32031 -6.71973t-9.12012 -9.12012t-11.5195 -17.7598l-10.5605 -18.2402q-24 -48.96 -21.1201 -69.1201q0 -5.75977 1.91992 1.44043t8.64062 15.8398q3.83984 4.7998 6.71973 9.59961q5.75977 12.4805 15.3604 17.2803
q3.83984 1.91992 8.63965 0.480469q4.7998 -1.44043 13.4404 -7.2002l19.1992 -12.4805l13.4404 -9.59961l1.91992 -4.7998q1.91992 -3.83984 1.91992 -7.68066q0 -3.83984 -2.87988 -9.59961l-6.71973 -13.4404q-0.959961 -3.83984 0 -3.83984l7.67969 7.68066
q0.959961 1.91992 5.75977 6.23926q4.7998 4.32031 10.5605 8.64062q5.75977 4.31934 11.5195 10.0801q5.75977 5.75977 9.60059 10.5596l18.2393 23.04q2.87988 3.83984 6.7207 8.63965q2.87988 2.88086 6.71973 8.64062l13.4395 19.2002q2.88086 3.83984 6.7207 9.59961
q9.59961 10.5596 12.4795 19.2002l13.4404 30.7197q2.87988 7.67969 7.67969 16.3203l5.75977 11.5195q2.87988 9.60059 7.2002 15.8398q4.32031 6.24023 11.04 13.9199q9.59961 11.5205 17.2803 24q7.67969 12.4805 11.5195 24l1.91992 7.68066
q1.91992 4.7998 2.87988 11.5195q1.9209 12.4805 3.84082 13.4404v-12.4805q-6.7207 -29.7598 -16.3203 -46.0801q-6.71973 -13.4395 -16.3203 -24l-9.59961 -12.4795q-4.7998 -3.83984 -10.5605 -16.3203l-13.4395 -30.7197q-1.91992 -5.75977 -4.7998 -10.5605
l-7.68066 -16.3193q-2.87988 -6.7207 -5.75977 -11.04q-2.87988 -4.32031 -7.67969 -10.0801t-8.64062 -10.5605q-4.7998 -8.63965 -9.59961 -15.8398t-8.16016 -10.5596q-3.35938 -3.36035 -9.12012 -11.04l-14.3994 -18.2402q-5.76074 -8.63965 -10.0801 -12.96
q-4.32031 -4.32031 -11.5205 -10.0801q-7.19922 -5.75977 -11.5195 -10.5596t-12.96 -11.5205q-8.64062 -6.71973 -17.2803 -12.4795q-17.2803 -9.60059 -27.8398 -9.60059q-10.5605 0 -15.3604 1.44043q-4.7998 1.43945 -10.5596 6.24023q-5.75977 4.7998 -9.60059 11.5195
l-3.83984 5.75977q-1.91992 -0.959961 -9.59961 -13.9199t-14.4004 -27.3594l-15.3594 -32.6406l-3.84082 -7.67969l-9.59961 -28.7998l-12.4795 -44.1602l-7.68066 -23.04q-2.87988 -10.5596 -7.67969 -27.8398t-6.71973 -27.8398q-1.91992 -14.4004 -0.959961 -31.2002
t5.75977 -32.1602q0.959961 -6.71973 2.87988 -9.59961q1.91992 -2.88086 10.5596 -6.7207q3.84082 -0.959961 10.5605 0.959961zM30.96 99.4805l8.63965 17.2793l6.7207 9.60059l6.71973 21.1201l9.59961 26.8799q1.91992 8.63965 1.91992 9.59961
q-2.87988 -2.87988 -31.6797 -63.3604q-5.75977 -14.3994 -4.7998 -21.1191v-6.7207zM183.6 316.44q3.84082 0.959961 10.5605 4.31934q6.71973 3.36035 12.4795 9.12012q1.91992 1.91992 4.80078 7.67969l8.63965 17.2803l0.959961 4.7998q0 6.7207 -3.83984 11.04
q-3.83984 4.32031 -5.75977 5.28027l-27.8408 18.2402q-6.71973 4.7998 -11.04 5.75977q-4.31934 0.959961 -9.11914 -0.959961q-7.68066 -2.87988 -13.4404 -14.4004l-3.83984 -8.63965q-1.91992 -1.91992 -5.75977 -10.0801q-3.84082 -8.16016 -5.76074 -13.9199
l-0.959961 -4.7998l2.87988 -8.64062q3.84082 -8.63965 8.16016 -12.96q4.32031 -4.31934 9.60059 -7.67969q5.2793 -3.36035 11.5195 -3.83984q6.24023 -0.480469 10.0801 0.479492zM306.48 360.6l4.7998 1.91992q28.7998 16.3203 17.7598 9.60059t-17.2803 -9.60059
q-6.24023 -2.87988 -5.2793 -1.91992zM256.56 437.4q-0.959961 0.959961 -2.87988 3.83984q-4.7998 5.75977 -9.59961 9.12012q-4.7998 3.35938 -4.7998 5.2793t8.16016 -3.35938q8.15918 -5.28027 12 -12q0.959961 -4.7998 -2.88086 -2.87988zM270.96 449.88
q-1.91992 0.959961 -5.75977 3.83984q-8.64062 8.64062 -15.3604 12.4805q-3.83984 2.87988 -1.91992 3.35938q1.91992 0.480469 7.67969 -2.39941q5.76074 -2.87988 12.4805 -8.16016t6.71973 -8.16016t-3.83984 -0.959961zM301.68 628.44v5.75977
q17.2803 49.9199 25.9199 60.4795q2.88086 1.91992 0 -3.83984l-7.67969 -13.4395q-6.71973 -15.3604 -11.5195 -27.8408q-4.80078 -12.4795 -4.80078 -18.2393q0 -5.76074 -1.91992 -2.87988zM643.44 640.92q2.87988 0.959961 7.67969 2.40039
q4.7998 1.43945 4.7998 2.39941l-21.1201 46.0801l-4.7998 14.4004q-19.2002 47.04 -35.5195 95.04l-29.7607 96q-3.83984 15.3594 -7.2002 30.2402q-3.35938 14.8799 -5.2793 25.4395l-3.83984 25.9199q0.959961 4.7998 -6.7207 -0.959961l-14.3994 -6.71973
l15.3594 -59.5205q0 -1.91992 3.84082 -14.3994l9.59961 -32.6406q7.67969 -26.8799 19.2002 -60.4795q11.5195 -33.6006 24.96 -69.1201l9.59961 -27.8398l25.9199 -63.3604q0.959961 -3.83984 1.91992 -4.31934q0.959961 -0.480469 5.76074 1.43945zM490.8 696.6
q0 1.91992 -0.959961 6.7207q-0.959961 8.63965 -6.24023 20.6396q-5.2793 12 -15.8398 28.3203q-6.71973 10.5596 -12.96 18.7197t-8.16016 10.5596q-1.91992 2.40039 -1.91992 3.36035q0.959961 2.87988 15.8398 -16.3203q14.8809 -19.1992 24.4805 -37.4395
q4.7998 -10.5605 7.67969 -20.6406q2.87988 -10.0791 0.959961 -13.9199q-1.91992 -1.91992 -2.87988 0zM497.52 759.96q-0.959961 0.959961 -6.71973 8.63965l-26.8799 34.5605q-5.75977 8.63965 -9.12012 13.9199q-3.35938 5.28027 -2.39941 6.24023l32.6396 -39.3604
l8.63965 -11.5195q5.76074 -6.7207 6.7207 -9.60059t-0.480469 -3.35938q-1.43945 -0.480469 -2.40039 0.479492z" />
</svg>
