<?xml version="1.0" standalone="no"?>
<!DOCTYPE svg PUBLIC "-//W3C//DTD SVG 1.1//EN" "http://www.w3.org/Graphics/SVG/1.1/DTD/svg11.dtd" >
<svg xmlns="http://www.w3.org/2000/svg" xmlns:xlink="http://www.w3.org/1999/xlink" version="1.1" viewBox="-10 0 670 1024">
   <path fill="currentColor"
d="M589.696 -6.89453q-1.92773 0.962891 -6.74707 7.71094l-4.81934 7.71094h-5.7832l-19.2783 3.85547q-2.89258 0.964844 -3.85547 0.964844q-2.89258 2.89062 -14.459 28.916l-12.5303 28.917q-1.92773 1.92871 -4.82031 7.71191l-25.0615 44.3389
q-5.7832 12.5312 -10.1211 19.7607q-4.33691 7.22852 -11.084 13.9766q-4.81934 5.7832 -7.71094 9.63867l-7.71191 12.5303q-4.82031 8.67578 -7.71094 15.4229l-26.9893 58.7979l-7.71094 4.81934q-7.71094 4.81934 -13.0137 8.6748q-5.30078 3.85645 -12.0479 9.63965
l-13.4951 10.6025l-19.2773 13.4951q-12.5312 9.63867 -18.7969 15.9043q-6.26562 6.26465 -9.15625 14.9395q-0.963867 5.78418 -4.33789 18.7969q-3.37305 13.0117 -4.33789 18.7959q-0.962891 5.7832 -1.92773 7.22949q-0.963867 1.44531 -2.89062 2.40918
q-3.85645 1.92871 -21.2061 15.4229q-7.71094 5.78418 -15.9043 14.458q-8.19336 8.67578 -12.0488 14.459q-3.85645 5.78418 -8.67578 15.9043t-6.74707 14.9404l-16.3867 36.6279q-1.92773 5.78418 -4.81934 10.6035t-4.81934 8.67383l-3.85645 10.6045
q-2.89062 7.71094 -4.81836 12.0479t-4.82031 8.19336l-7.71094 12.5303q-6.74707 10.6035 -11.5674 19.2783l-6.74609 11.5674l-5.7832 8.6748q-4.82031 7.70996 -10.1211 15.9033q-5.30078 8.19434 -8.67578 15.4229q-3.37305 7.23047 -6.26465 11.085l-5.78418 7.71191
q-4.81934 7.71094 -16.3857 19.2773t-20.2422 18.3145q-8.6748 6.74707 -21.2061 12.5303q-12.5303 5.78418 -22.1689 8.6748l-12.5312 1.92871q-7.71094 1.92676 -9.63867 0l-5.7832 -32.7734q-4.81934 -30.8447 -6.74707 -35.6641q-1.92773 0 -11.5684 2.40918
q-9.63867 2.41016 -11.5664 4.33789q-0.962891 0 -0.962891 3.85645q0 4.81934 1.92773 20.2422q2.8916 25.0605 11.5664 81.9316q29.8818 240.011 34.7012 236.154q4.81934 -3.85547 12.0488 -9.63867q7.22852 -5.7832 8.19238 -10.6025l-4.81934 -38.5566
q-2.8916 -16.3857 -2.8916 -18.3135q6.74707 -2.89258 23.1338 -11.0859q16.3848 -8.19238 40.4834 -17.8311l52.0498 -13.4941q8.67578 -0.964844 21.207 -3.375q12.5303 -2.4082 13.9756 -3.85547q1.44629 -1.44531 3.37402 -1.44531l3.85547 -0.963867
q9.63867 -2.89258 17.3506 -7.71191q7.70996 -4.81934 9.63867 -6.74707q1.92773 -1.92676 3.85449 -1.92676q4.82031 0 16.3877 -5.78418l11.5664 -6.74805q9.63867 -4.81836 23.1338 -16.3848l11.5664 -9.63965q17.3506 -16.3867 30.3633 -32.7725
q13.0127 -16.3867 21.6875 -37.5928l17.3516 -35.6641q8.67383 -19.2773 13.0117 -34.7012q4.33789 -15.4219 6.26562 -31.8076q1.92773 -8.67578 6.26465 -19.2773q4.33789 -10.6035 6.26465 -19.2793q0.96582 -4.81836 0 -16.3857v-36.6279
q0.96582 -8.67578 1.92871 -9.63867l6.74707 -14.459q2.8916 -7.71191 3.85645 -11.085q0.962891 -3.37305 1.92676 -4.33691l2.8916 -2.8916q40.4834 -42.4131 48.1953 -57.835q2.89258 -6.74609 3.85547 -10.6025q0.963867 -3.85547 0.963867 -9.63867t-2.40918 -10.6035
q-2.41016 -4.81836 -8.19336 -14.458q-1.92871 -1.92773 0 -3.85547l12.5303 -21.207l21.2061 -31.8076l5.7832 -11.5674q4.82031 -10.6035 7.22949 -13.4941q2.41016 -2.89258 5.30273 -14.459l3.85449 -12.5303q3.85547 -9.63867 8.6748 -25.0615l2.89258 -7.71094
l9.63867 -24.0977l6.74707 -18.3145q5.7832 -15.4229 8.6748 -22.6514q2.89258 -7.22949 3.85645 -15.9053l4.81934 -18.3125q0.963867 -3.85547 3.85547 -8.67578q2.8916 -2.8916 7.71094 -10.6025l16.3867 -24.0977q3.85449 -6.74805 5.7832 -9.63867l5.7832 -10.6045
q3.85547 -9.63867 7.71191 -21.2051l1.92676 -12.5303q2.89258 -9.63965 1.92773 -21.6885q-0.962891 -12.0488 -12.5293 -23.6152q-1.92969 -1.92773 -11.0859 -6.26562q-9.15625 -4.33691 -13.0127 -5.30078q-2.8916 -2.89258 -7.71094 -1.92773zM594.516 -4.00293
q2.8916 3.85547 3.85547 9.63867q0.963867 5.78418 0 9.63965l-3.85547 10.6025l-1.92773 -3.85645q-2.8916 -6.74609 -9.63867 -10.6016q-3.85645 -0.964844 -3.37402 -2.89258q0.481445 -1.92773 8.19336 -10.6035q4.81934 -4.81836 6.74707 -1.92676zM603.19 -0.147461
q31.8096 9.63965 26.9902 47.2305q-1.92871 15.4229 -9.15723 32.7725q-7.23047 17.3506 -17.833 31.8096l-16.3857 23.1338l5.7832 -21.2061q13.4941 -48.1953 4.81934 -74.2207q-1.92773 -4.81836 -1.92773 -8.19238q0 -3.375 1.92773 -7.22949
q2.8916 -7.71191 3.37402 -11.5674t-1.44629 -8.67578q-1.92773 -4.81836 -1.44531 -5.30078q0.481445 -0.482422 5.30078 1.44629zM551.141 18.166q3.85547 4.82031 4.33691 13.4951q0.481445 8.67578 -1.44531 15.4219q-5.7832 14.459 -12.5312 24.0977
q-6.74707 9.63965 -12.5303 11.5674q-0.963867 -0.963867 -2.8916 -1.92773l-3.85547 -4.82031l5.7832 -14.458l13.4941 -29.8809l7.71191 -15.4229zM498.608 149.258q4.33594 1.92773 4.81836 0.962891q0.481445 -0.962891 -4.81836 -2.8916
q-5.30273 -1.92676 -7.23047 -0.963867q2.8916 0.963867 7.23047 2.89258zM528.971 176.246q1.92773 4.81934 2.41016 11.085q0.481445 6.26562 -1.44629 10.6035q-1.92773 4.33691 -13.0127 8.6748q-11.085 4.33691 -21.6875 5.30078q-5.78418 0 -5.78418 -0.963867
l28.917 -28.917q8.6748 -7.71094 9.63965 -8.6748zM436.918 260.106q2.40918 1.92676 3.37402 1.92676q0.962891 0 -3.37402 -3.37402q-4.33691 -3.37305 -5.30176 -0.481445q2.89258 0 5.30176 1.92871zM351.612 328.542q5.7832 0 9.15723 1.44727
q3.37402 1.44434 -1.92676 -0.96582q-5.30273 -2.40918 -7.23047 -0.481445zM341.974 339.146q-1.92871 0 -2.8916 1.92773q6.74707 -3.85547 10.6025 3.85547q3.85547 5.7832 3.85547 2.41016q0 -3.37402 -3.85547 -6.26562t-7.71094 -1.92773zM482.703 397.943
q4.81934 5.7832 5.7832 13.4951q0.963867 7.71094 -0.481445 13.4941q-1.44629 5.7832 -7.71191 15.4229q-6.26562 9.63867 -13.0117 19.2773l-11.5674 13.4951l-9.63867 10.6016q-11.5664 13.4961 -9.63965 8.67578l0.964844 -4.81934l4.81934 -12.5312l2.89062 -5.7832
q21.207 -40.4824 26.0264 -54.9414l8.67383 -20.2422zM32.5625 643.737q1.92773 12.5312 6.74707 48.1953l7.71094 57.834l19.2783 172.538l6.74707 41.4482q0.963867 0.963867 -3.85547 3.85449l-8.67578 5.78516l-3.85449 2.89062q-3.85645 -14.459 -8.67578 -53.9785
l-35.665 -271.819l-0.963867 -5.78418l17.3516 -6.74707q2.89062 -1.92773 3.85547 5.7832zM132.808 689.041q-3.85547 16.3857 -8.6748 29.8809t-11.5674 27.9531q-2.89062 6.74805 -2.40918 7.71094q0.481445 0.963867 7.22852 -14.458q6.74805 -15.4229 10.6025 -26.9893
l3.85547 -15.4229q2.89258 -8.6748 0.964844 -8.6748zM408.483 471.199q0.963867 4.81934 2.8916 9.63867q0.962891 5.78418 2.8916 14.459l1.92676 18.3145l3.85645 60.7256q0 6.74707 -0.963867 15.4229q-2.89258 15.4219 -8.67578 25.0605
q-1.92676 2.89258 -2.89062 7.71191l-3.85547 24.0977q-1.92773 10.6025 -4.82031 19.2783q-2.89062 8.6748 -12.5303 26.9883l-12.5312 26.9893q-11.5664 26.0254 -24.0977 43.376q-11.5664 16.3857 -30.8447 32.7725l-10.6016 9.63867q-4.82031 4.81934 -11.5674 10.6025
q-6.74805 4.82031 -11.5664 6.74707l-19.2783 10.6035q-2.89258 0.963867 -5.7832 1.92773q-2.89258 0 -17.3516 -1.92773q-13.4941 -1.92871 -14.458 -0.963867l11.5674 1.92773l13.4941 2.89062q-0.964844 1.92871 -9.63867 6.74902q-7.71094 3.85547 -14.459 6.74707
q-0.963867 0.962891 -6.74707 1.92871q-2.89258 0 -4.81934 -0.96582l-2.8916 -0.962891q-23.1328 -4.82031 -29.8818 -9.63965q4.82031 4.81934 14.459 8.67578q8.6748 2.89258 16.3867 4.81934l-6.74707 2.8916q-3.85645 -1.92773 -67.4736 13.4941l-29.8809 10.6035
q-27.9531 9.63965 -40.4834 19.2783q-2.8916 2.89062 -2.8916 -3.85547q-6.74707 -66.5098 -12.5312 -109.886q-4.81934 -43.375 -8.6748 -72.292l-0.963867 -6.74707l9.63867 -0.964844q25.0625 -2.89062 53.9795 -22.1689q12.5293 -9.63867 28.917 -27.9531
q15.4219 -18.3145 24.0977 -32.7734q3.85449 -7.70996 9.63867 -17.3496l11.5664 -17.3496l6.74609 -9.63965l16.3877 -29.8809q1.92773 -2.8916 4.81934 -5.7832q4.81934 -5.78418 7.70996 -10.6025l5.78418 -17.3496l3.85547 -9.63965l5.7832 -11.5674l17.3496 -39.5195
q4.82031 -11.5664 10.6035 -22.1699q5.78418 -10.6025 10.6045 -16.3857q9.63867 -11.5664 26.0244 -25.0615q15.4219 -12.5312 17.3496 -10.6035l-1.92773 6.74805q-3.85547 16.3857 -4.81934 26.9893l-0.963867 6.74609l-3.85547 3.85645
q-8.6748 7.71094 -18.3145 22.1699q-8.6748 13.4941 -13.4932 23.1328q-0.96582 3.85547 -0.96582 5.78418q3.85645 -7.71191 12.5322 -20.2432q8.6748 -11.5664 16.3848 -19.2773l6.74902 -7.71094l-0.964844 6.74707q-1.92773 15.4229 -5.78418 27.9531
q-2.89062 11.5664 -8.67383 24.0977q-4.81934 12.5312 -9.63867 24.0977q-3.85547 11.5664 -3.85547 15.4229q0.962891 1.92773 1.92676 -1.92773q0 -6.74805 11.5674 -30.8457q5.7832 -12.5303 8.67383 -18.3135q1.92871 -4.82031 3.85645 -14.459
q1.92773 -8.6748 3.85547 -19.2783q1.92773 -9.63867 3.85547 -25.0615l0.964844 -11.5664l6.74609 -33.7363l4.82031 -21.2061q2.89062 -12.5303 4.81836 -18.3135q0.964844 -4.82031 3.85547 -8.67578q1.92871 -3.85547 6.74902 -7.71191
q3.85449 -3.85449 8.67383 -7.70996l20.2432 -15.4229q13.4932 -9.63867 24.0977 -18.3135l11.5664 -8.67578l25.0605 -17.3506q7.71191 -5.7832 16.3867 -10.6025l39.5195 -26.0244h6.74707q9.63867 0 21.207 -3.85645q10.6025 -2.8916 16.3857 -8.6748
q1.92676 -2.8916 2.89258 -8.67578q0 -5.7832 -1.92871 -11.5664l2.8916 0.963867q4.82031 2.89258 7.71094 5.7832q1.92773 2.89258 2.89258 6.74805q3.85547 12.5303 3.85547 20.2412q0 7.71191 -0.963867 12.5312q-3.85645 16.3857 -11.5674 26.0254l-7.71094 9.63867
q-6.74707 9.63965 -18.3135 19.2783q-11.5684 8.6748 -25.0625 15.4219l-17.3506 10.6025l1.92773 4.82031q-4.81934 15.4229 -10.6025 24.0967q-9.63867 15.4229 -46.2666 29.8818q11.5664 1.92773 11.5664 6.74707v13.4951l-0.963867 15.4219l-1.92871 18.3145
q0 16.3857 -3.85449 24.0977q-2.8916 7.71094 -12.5303 14.458q-8.67578 6.74707 -12.5312 10.6025l2.89258 0.963867l7.71094 -5.7832q13.4941 -8.6748 17.3496 -18.3135q3.85547 -8.67578 5.7832 -32.7734q1.92871 -18.3135 0.963867 -28.917
q0 -10.6025 -1.92773 -16.3857l-1.92773 -2.89258l8.67578 -4.81934q14.458 -5.7832 22.1689 -13.4932q7.71094 -7.71191 13.4941 -21.207q2.89258 -3.85547 3.85645 -9.63867q0.963867 -4.82031 0 -5.7832q-0.963867 -0.963867 2.8916 -3.85547
q2.8916 -1.92773 12.5303 -6.74805q4.81934 -2.8916 12.5312 -7.71094l13.4941 -9.63867q4.81934 -2.8916 9.63867 -8.67578q4.82031 -4.81934 7.71191 -9.63867l8.67578 -11.5664q6.74609 -8.67578 9.63867 -20.2422q2.89062 -10.6025 1.92773 -20.2422
q-0.964844 -16.3857 -4.82031 -22.1689q-2.89062 -5.7832 -9.63867 -10.6035l-3.85645 -3.85547q-3.85449 -1.92773 -3.85449 -3.85547q0 -0.963867 -4.81934 2.8916q-3.85547 2.8916 -16.3867 15.4229l-15.4229 16.3857q-4.81934 3.85547 -7.71094 4.81934l-8.6748 6.74707
l-27.9531 17.3496q-13.4941 7.71191 -21.2061 13.4961q-3.85449 3.85547 -2.8916 1.92773q0 -0.964844 4.82031 -11.5674l22.168 -43.375l11.5674 -20.2422q2.8916 -7.71191 11.5664 -17.3506q5.7832 -7.71094 10.6035 -15.4219q4.81934 -7.71094 9.63867 -18.3145
l7.71191 -14.459l19.2773 -31.8076q5.7832 9.63867 13.4951 3.85547q7.71094 -5.78418 16.3867 -24.0967q12.5303 -26.9902 0.962891 -41.4492l6.74805 -3.85547q4.81934 -0.962891 7.71094 -1.92773q1.92773 0 5.78418 0.964844q12.5293 1.92773 17.3496 10.6016
l4.81934 14.459q4.81934 15.4229 2.8916 34.7002q-0.963867 18.3145 -8.6748 42.4121l-4.81934 19.2773q-2.89258 12.5322 -6.74707 27.9541q-1.92871 6.74609 -2.89258 11.5664q0 3.85547 -1.92676 7.71094l-11.5674 27.9531l-4.82031 13.4951
q-2.89062 8.6748 -6.74609 18.3135l-2.89258 7.71191l-16.3857 51.0869q-1.92773 4.81934 -3.85547 7.71094q-0.963867 1.92773 -5.7832 11.5674l-5.7832 10.6016l-17.3516 25.0615l-14.458 26.0254q-8.67578 13.4941 -14.459 32.7725q-3.85547 11.5674 -10.6016 26.0264
q-5.7832 14.458 -12.5322 26.0244q-4.81836 6.74707 -5.7832 10.6025l-5.7832 18.3154l-9.63867 27.9521q-3.85547 14.459 -3.85547 -2.8916l-0.963867 -9.63867l-2.89258 -15.4219q-0.962891 -7.71289 -2.89062 -12.5322q-1.92773 -3.85449 -4.81934 -9.63867z" />
</svg>
