<?xml version="1.0" standalone="no"?>
<!DOCTYPE svg PUBLIC "-//W3C//DTD SVG 1.1//EN" "http://www.w3.org/Graphics/SVG/1.1/DTD/svg11.dtd" >
<svg xmlns="http://www.w3.org/2000/svg" xmlns:xlink="http://www.w3.org/1999/xlink" version="1.1" viewBox="-10 0 966 1024">
   <path fill="currentColor"
d="M895.767 168.857q-7.1543 -0.894531 -8.94238 3.13086q-1.78711 4.02344 -2.68164 26.376v17.8828l-2.68262 -0.893555l-6.25977 -0.895508l-30.3984 -5.36426h-27.7197q-22.3545 0 -36.6602 0.893555l-76.001 8.94238q-37.5527 3.57617 -72.4248 12.5176
l-6.25781 0.894531h-6.25879l-33.084 -3.57812l-89.4131 -6.25781l-16.9883 -2.68262q-64.377 -2.68164 -74.2139 1.78809l-14.3057 8.04785l-10.7285 6.25879l-13.4121 8.94141q-3.57617 2.68164 -10.7295 7.15332l-12.5186 8.04688q-3.57715 2.68164 -9.83496 6.25879
l-42.0254 25.0352l-17.8818 9.83496q-9.83496 5.36621 -12.0713 6.70703q-2.23438 1.3418 -3.12891 1.3418t-4.4707 1.78711l-8.04785 5.36426q-5.36328 2.68359 -8.94043 6.25977q-3.57715 3.57715 -4.4707 3.57715q-7.15332 0.894531 -16.9883 12.5176
q-9.83691 11.623 -16.0947 25.9297l-6.25879 15.2012q-2.68359 5.36328 -4.4707 7.15137q-3.57715 4.47168 -6.25879 9.83594l-3.57715 4.4707l-35.7646 25.0361l-5.36523 5.36426l-4.4707 8.04785q-2.68164 25.0352 14.3076 35.7646q16.9863 10.7305 48.2822 3.57617
q4.46973 -1.78711 4.46973 -0.894531q0 0.894531 -3.57617 7.15527q-2.68262 3.5752 -8.04688 10.7285l-17.8828 19.6699q-8.04688 8.94238 -12.5176 16.0957q-7.15332 9.83496 -23.248 24.1416q-10.7295 9.83496 -20.1172 23.6934q-9.38867 13.8613 -21.0127 37.1074
l-8.94141 15.2002q-9.83594 15.2012 -9.83594 17.4365q0 2.2334 -5.36523 9.3877q-5.36328 7.15234 -9.83398 12.5176q-12.5186 13.4131 -21.0127 27.7188t-17.4365 36.6592q-8.04492 19.6709 -7.15137 37.1055q0.894531 17.4365 8.94043 25.4834
q4.47168 3.57715 9.38867 5.81055q4.91797 2.2373 8.49512 2.2373q3.57617 0 8.0459 0.894531l3.57617 0.892578l-5.36426 6.25879q-13.4121 15.2012 -19.6699 28.6133q-6.26074 13.4111 -5.8125 27.2705q0.447266 13.8594 11.1768 26.377q10.7285 12.5176 23.2471 14.3057
l8.04785 1.78906q2.68262 0 8.94043 -0.893555q6.25977 -0.895508 9.83496 -2.68359q5.36523 -2.68164 17.8828 -14.3057q12.5186 -11.623 17.8838 -18.7773q7.15234 -9.83496 22.8008 -25.0361q15.6465 -15.2002 25.9297 -22.7988q10.2822 -7.59961 20.5654 -18.3311
q10.2822 -10.7295 15.2002 -14.7529q4.91699 -4.02344 15.6465 -14.7529q5.36523 -6.25879 1.78809 2.68164q-0.894531 4.4707 -4.46973 9.83594l-5.36621 10.7305l-31.2949 42.9189q-8.94043 10.7285 -16.0947 16.9873l-20.5635 22.3545q-25.9297 25.0342 -35.3193 40.6816
q-9.3877 15.6475 -7.59961 30.8477q0 11.624 3.12891 17.4365q3.13086 5.81152 14.7529 12.0693q6.25977 3.57617 8.94336 4.91797q2.68164 1.3418 6.25781 2.23633l10.7295 0.894531q8.04688 0.892578 13.8594 -2.23633q5.81055 -3.12891 10.2822 -5.8125
q10.7295 -5.36426 24.5889 -17.8818q13.8594 -12.5186 24.5879 -25.9297l13.4121 -17.8838l2.68262 3.57812q2.68262 4.46973 5.36621 7.15234q2.68164 2.68262 13.4111 10.7295q17.8828 13.4121 45.6006 -0.447266q27.7178 -13.8584 59.0117 -52.3066
q4.47266 -5.36426 9.83691 -11.1768t6.70508 -6.25781q1.34277 -0.448242 8.49414 -4.91797q4.47168 -2.68262 9.83594 -7.1543l8.94238 -7.15234q10.7295 -6.25977 18.3291 -16.0938q7.60059 -9.83594 12.0703 -20.5645q2.68164 -6.26074 22.3525 -17.8848
q11.624 -6.25781 25.0371 -16.54q13.4121 -10.2822 25.0352 -21.9062q4.47168 -4.47168 6.25879 -5.36523q1.78809 -0.894531 5.8125 -1.78906q4.02344 -0.893555 11.1758 -4.46973l20.5654 -8.94141q35.7656 -16.0938 48.2822 -28.6123q5.36523 -5.36426 7.1543 -4.46973
l28.6113 -8.94238q39.3438 -12.5186 61.6963 -26.376q22.3525 -13.8594 55.4355 -46.9424l19.6699 -17.8838q11.624 -9.83496 16.9893 -16.0938l15.2002 -18.7773l5.36426 -8.0459l8.94141 -10.7305l12.5195 -10.7295l6.25781 -6.25879l3.57617 -0.893555
q4.47168 -2.68262 10.7305 -4.02441q6.25879 -1.34082 7.15332 -0.447266q5.36328 9.83496 19.6699 8.94043h7.15332l0.894531 8.94336q1.78906 18.7764 3.57617 23.2461q1.78809 4.47168 8.04785 3.57715l16.9883 1.78809q12.5186 2.68262 15.1992 0.894531
q0.894531 0 0.894531 -3.57617q0 -3.57715 -0.894531 -8.94336v-390.734q0 -5.36523 -0.893555 -7.15332t-3.57617 -2.68262t-11.624 -0.894531t-15.1992 0.894531zM916.33 175.117q4.47266 0.894531 5.36523 1.34082q0.894531 0.447266 0 400.125l-27.7178 -1.78906
l-3.57617 -12.5176v-388.054q19.6719 -0.894531 25.9287 0.894531zM864.472 218.036q7.15234 1.78711 11.623 1.78711l6.25879 0.894531q4.4707 -1.78809 1.78906 317.417q-4.4707 1.78809 -11.623 1.78809q-7.1543 0 -8.04785 -1.78809l-3.57812 -3.57715l-3.5752 -7.15234
l-5.36523 -16.9893q-7.15137 -25.9297 -14.3066 -47.8359q-7.15234 -21.9053 -17.8828 -46.0479l-13.4121 -32.1885q-6.25781 -16.9883 -8.49219 -23.6943q-2.23633 -6.70605 -4.02441 -4.02441q-0.894531 0 4.02441 12.9658q4.91699 12.9648 17.4336 42.4707
q8.94336 22.3545 14.3066 37.1064q5.36426 14.7529 8.94238 28.166l5.36426 16.0938q1.78809 6.25977 2.68164 10.7295q0.894531 4.4707 3.57715 14.3057l1.78809 10.7295l-6.25879 2.68359q-4.46973 1.78809 -6.25879 2.68164h-4.47168
q-16.0918 -13.4121 -26.8232 -35.7656q-10.7295 -22.3525 -21.9062 -43.3643t-14.7529 -25.4834q-2.68359 -2.68262 -4.47168 0v2.68262l6.26074 10.7295q14.3057 23.248 26.8232 50.0713q9.83496 24.1416 15.1992 33.084q5.36523 8.94043 9.83594 11.623l3.57715 1.78809
l-19.6709 17.8828q-5.36426 5.36523 -6.25879 4.4707h-8.04883q-50.0703 -4.4707 -42.0234 -3.57715l48.2832 8.04785q0.895508 0.894531 -2.68164 4.4707l-16.9893 20.5645q-2.68164 3.57617 -6.25879 7.1543l-19.6709 16.9883l-11.624 11.623
q-24.1406 24.1406 -37.1055 34.4238q-12.9648 10.2822 -29.9531 18.3301q-7.15332 4.47168 -14.3066 7.15332l-50.9658 16.9883q-6.25879 2.68262 -9.83594 3.12891q-3.57617 0.447266 -5.36523 1.3418q-1.78711 0.894531 -5.36328 4.4707
q-12.5186 9.83496 -41.5781 24.5879q-29.0586 14.7539 -38.8945 16.542q-1.78711 0 -3.57617 1.34082t-8.94043 6.70605q-25.0371 23.2471 -47.3906 35.7656l-9.83398 6.25879q-5.36621 3.57617 -7.15527 2.23535q-1.78711 -1.34082 -3.5752 3.12891
q-4.4707 13.4121 -16.0947 27.7188q-11.623 14.3066 -27.7178 25.0352q-19.6709 13.4121 -33.083 30.4014q-17.8818 21.459 -38.4482 37.1064q-20.5645 15.6465 -36.6592 19.2236l-12.5166 -1.78906q-7.1543 -2.68262 -9.83496 -4.46973
q-13.4131 -8.94043 -17.8838 -16.0947q-4.4707 -7.15332 -2.68262 -15.1992q5.36426 -18.7773 25.9287 -44.2598q20.5664 -25.4834 54.5439 -54.0967l6.25781 -6.25684q2.68359 -5.36523 16.0947 -18.7783q13.4121 -13.4111 22.3535 -20.5645
q8.94043 -7.15234 12.9639 -11.1758q4.02539 -4.02441 5.8125 -8.49609l21.459 -33.082l7.15332 -8.04688q0.893555 -1.78809 -1.78906 -1.78809q-2.68164 0 -8.04492 7.15332q-5.36621 7.15234 -9.83691 15.2002l-11.623 17.8818q-2.68262 4.47168 -6.25977 8.04785
q-3.57617 3.5752 -12.5186 11.623l-9.83496 8.04688l-7.15332 8.04883q-19.6689 23.2461 -23.2471 25.0352q-21.458 15.2002 -41.5762 36.6592q-20.1172 21.458 -34.4238 43.8125q-4.47168 7.15234 -7.60059 15.6475q-3.12988 8.49316 -3.12988 12.5166
q0 4.02441 -2.23535 5.36523t-16.542 19.2236q-11.623 15.2021 -24.1406 26.8242q-12.5186 11.624 -22.3545 16.9883l-8.0459 4.4707q-5.36523 2.68164 -12.5186 1.78906l-9.83496 -1.78906q-4.4707 0 -8.04785 -2.68262l-8.04785 -4.46973
q-8.0459 -3.57617 -10.7275 -8.49512q-2.68262 -4.91699 -3.57812 -15.6475q-0.893555 -10.7295 4.02344 -21.0107q4.91895 -10.2842 16.542 -22.8008l4.4707 -6.25879q3.57715 -3.57715 16.0947 -16.9893l28.6133 -30.4004q8.0459 -8.94141 13.4111 -15.2002
t11.624 -16.0947l12.5166 -18.7764q6.25879 -9.83594 10.2832 -18.3291q4.02344 -8.49512 4.4707 -12.9648q0.447266 -4.47168 2.23535 -6.25977q16.0947 -6.25879 44.7061 -37.5537q28.6123 -31.2949 50.9668 -67.9541l6.25879 -9.83496l4.4707 5.36523
q7.15137 9.83496 10.7285 10.2822q3.57812 0.446289 -2.68262 -4.91797q-3.57617 -3.57715 -7.15137 -8.04688q-3.57715 -4.4707 -3.57715 -7.1543q0 -2.68164 -2.68262 0.895508q-2.68262 3.57617 -10.7295 16.9883q-18.7773 29.5068 -44.2588 57.2246
q-25.4844 27.7178 -48.7314 42.918q-8.94043 6.25977 -14.3066 12.5176q-3.57617 3.57617 -11.1768 9.38867q-7.59863 5.81055 -11.6221 10.7295q-4.02441 4.91895 -9.38965 9.83594q-5.36328 4.91797 -13.4121 11.1758q-14.3057 10.7295 -27.7178 23.6943t-22.7998 25.4844
q-9.38867 12.5166 -21.9062 23.2461q-12.5176 10.7305 -17.8838 11.624q-1.78809 0 -5.36523 0.894531q-8.94043 2.68164 -23.2461 -5.36523q-19.6719 -11.624 -21.459 -31.7422q-1.78906 -20.1182 16.0947 -43.3652q15.1992 -20.5635 18.7764 -19.6709
q5.36523 -0.892578 14.7539 -8.04688q9.38672 -7.15332 19.2227 -18.7754l15.2002 -16.0957q15.2002 -15.1992 24.1416 -33.084q8.04785 -13.4111 28.165 -34.4229q20.1182 -21.0127 37.1074 -32.6357l10.7285 -10.7295l7.1543 -8.94141l3.5752 -4.47168l23.248 -25.0342
q4.4707 -5.36621 8.04688 -9.83594l26.8242 -33.083q2.68262 -3.57812 -3.12891 -6.70605q-5.81152 -3.12891 -10.2822 -12.9639q-2.68359 -7.1543 -3.57715 -6.26074q-3.57715 0.895508 0 8.49512q3.57715 7.60059 9.83398 12.0713q2.68359 1.78613 2.68359 2.23438
q0 0.447266 -4.46973 5.81152l-52.7539 63.4844q-4.47168 6.25879 -12.0723 14.3057q-7.59961 8.04785 -16.54 14.3066q-17.8828 14.3057 -33.084 30.4004q-15.2002 16.0947 -25.0352 31.7412q-9.83594 15.6475 -24.5898 33.083q-14.752 17.4355 -29.0576 29.9531
q-8.94141 7.15332 -14.7529 8.94238q-5.8125 1.78809 -11.1768 0.892578l-8.94141 -1.78711q-4.47168 0 -7.1543 -1.78906l-5.36426 -3.57617q-5.36523 -1.78809 -7.59961 -8.94043q-2.23535 -7.15332 -2.23535 -21.46q-0.895508 -8.94141 0.446289 -14.3057
q1.3418 -5.36523 6.70703 -16.9893q8.94043 -22.3535 16.54 -34.8701q7.60156 -12.5186 21.9072 -28.6123q4.4707 -4.47168 7.15234 -8.94141q2.68262 -4.47168 6.25879 -10.7305q3.57812 -6.25781 14.3066 -21.459l8.04688 -15.2002q4.47168 -8.94141 12.0713 -21.459
t12.9648 -18.7773l27.7188 -28.6123l6.25781 -8.0459l9.83496 -13.4131l11.624 -13.4121q11.625 -14.3057 17.4355 -21.459q5.8125 -7.15234 6.70605 -10.7305l2.68262 -2.68164l8.04785 -1.78711q12.5176 -1.78809 23.6943 -7.15332q11.1758 -5.36523 18.3291 -13.4131
l8.94238 -8.94043q4.46875 -4.4707 8.94043 -8.04785q4.4707 -3.57617 5.36523 -3.57617q3.57617 -0.894531 9.3877 -4.91797q5.8125 -4.02344 6.25977 -5.36523q0.446289 -1.33984 3.57715 -1.33984q3.12891 0 5.81055 -1.3418q2.68262 -1.34082 3.12988 -3.57617
q0.448242 -2.23535 -6.70703 0.446289h-6.25781l-8.04785 -4.4707q-9.83496 -5.36426 -11.624 -4.91699q-1.78809 0.446289 1.78906 2.23438l13.4111 9.83594q1.78906 1.78906 -3.12793 4.91797t-8.04785 3.57617q-3.12988 0.447266 -21.0117 17.4365l-8.04785 8.0459
l-5.36523 4.4707q-7.15137 4.4707 -16.0938 8.04785q-8.94141 3.57617 -14.7539 4.4707q-5.81152 0.894531 -9.38867 2.68164q-5.36426 0.895508 -17.4336 3.13086q-12.0713 2.2334 -18.3301 2.2334q-19.6719 0 -29.5078 -14.3057q-2.68164 -2.68164 -3.57617 -7.59961
q-0.892578 -4.91699 -0.892578 -8.49414q0 -6.25879 1.34082 -4.91895q1.33984 1.34277 5.81152 0.448242q0.893555 -0.893555 6.25879 -3.57617q12.5186 -8.04785 21.9062 -17.8838q9.3877 -9.83496 8.49316 -15.1992q-0.893555 -0.893555 1.34277 -3.12988
q2.23438 -2.23535 4.46973 -6.70605q2.23633 -4.46973 4.91699 -7.60059q2.68359 -3.12891 6.25977 -9.83496t6.25977 -12.9648q6.25781 -14.3057 16.541 -25.9297q10.2822 -11.623 12.5176 -7.59961t3.12891 -1.78906q0.894531 -5.81152 8.94238 -10.2822
q0.892578 6.25977 3.57617 0l5.36523 -5.36523l3.57617 -1.78711v2.68066q0.893555 5.36523 1.78809 4.47168q0.894531 -0.894531 0.894531 -3.57617q-1.78906 -5.36426 16.9873 -14.3057l8.94238 -4.4707l50.9658 -27.7188q6.25781 -3.57617 9.83594 -7.15234
q6.25781 -4.47168 12.5166 -8.49609q6.25879 -4.02344 11.1768 -7.59961q4.91895 -3.57617 10.2832 -7.15234l28.6113 -16.9883q8.04785 -2.68262 29.5068 -2.23633q21.459 0.447266 39.3418 4.02344q5.36621 0.894531 9.83496 1.78906l25.9297 0.894531l59.0137 4.4707
l52.7539 5.36523q1.78711 0 2.68262 -0.895508q5.36426 -1.78809 37.5537 -7.15234q32.1875 -5.36523 64.377 -8.94141t51.8594 -4.91895q19.6719 -1.34082 42.918 -0.445312h23.248zM421.876 330.695q-1.78906 0.894531 -3.57715 4.02344
q-1.78711 3.13086 -5.36426 8.49512l-7.1543 8.04785q-2.68164 3.57617 -4.46875 8.94141q-2.68359 8.94043 -9.38867 14.752q-6.70703 5.8125 -22.8018 13.8594q-39.3408 19.6709 -55.4355 21.0127q-16.0947 1.34082 -25.0361 -13.8594
q-2.68164 -2.68262 -6.70605 -6.25879q-4.02344 -3.57715 -5.81152 -3.57715t3.57715 4.4707q3.57617 2.68262 6.25879 7.15332q8.94141 16.0947 24.5879 16.541q15.6475 0.448242 46.9414 -14.752l21.46 -9.83594q7.15332 -3.57715 10.2822 -5.8125
q3.12988 -2.23633 4.47168 -2.23633q1.34082 0 5.81152 3.13184q4.4707 3.12793 5.8125 5.36426q1.34082 2.23535 1.34082 4.91699q-0.895508 8.04785 2.23535 15.6484q3.12988 7.59961 8.94141 10.2822q5.81152 2.68164 -0.447266 -4.47168
q-5.36426 -3.57715 -7.15332 -15.2002q-0.894531 -5.36426 -0.894531 -6.25879q0 -0.892578 3.12988 1.78809q3.12988 2.68359 8.04688 4.91699q4.91797 2.23633 6.70703 2.23633q5.36426 -1.78906 -2.68359 -6.25879q-4.4707 -2.68262 -9.83496 -6.70605
q-5.36523 -4.02441 -10.7295 -7.60059q-5.36523 -3.5752 -5.81348 -4.91699q-0.444336 -1.34082 2.23633 -4.02344q5.36426 -6.25977 7.15332 -13.4131l2.68262 -5.36523q15.2002 -22.3525 14.3057 -24.5879q-0.893555 -2.23438 -2.68164 -0.447266zM848.377 362.885
q4.4707 17.8828 14.3057 39.3408q9.83691 21.46 13.8594 23.6963q4.02246 2.23438 -4.02246 -12.9668l-12.5195 -25.0352l-7.15234 -20.5645q-1.78906 -7.15234 -3.12891 -6.70605q-1.3418 0.446289 -1.3418 2.23535zM177.777 408.485q-3.5752 7.15332 -12.5186 15.6475
q-8.94043 8.49414 -21.458 15.6475l-4.47168 0.894531q-2.68066 -3.57715 0.894531 -7.1543q3.57715 -3.57617 14.3057 -10.7295l17.8838 -12.5176q6.25879 -4.46973 5.36426 -1.78809zM332.463 445.146q0.893555 9.83496 40.2354 22.3516l18.7764 5.36523
q11.624 3.57715 29.0596 7.60059q17.4365 4.02344 28.165 4.91895l19.6719 1.78809q46.4941 5.36328 98.3535 5.36328t76.002 -5.36328q4.46973 -0.894531 7.60059 -2.68359q3.12793 -1.78809 3.5752 -3.12891q0.448242 -1.3418 -6.25879 0.893555
q-6.70508 2.23535 -18.3291 4.02441l-36.6602 3.5752q-97.46 -3.5752 -121.602 -6.25781l-19.6709 -2.68262q-13.4111 -1.78906 -31.7412 -5.81152q-18.3291 -4.02344 -33.5303 -9.38867l-18.7764 -5.36426q-12.5186 -3.57617 -21.46 -7.60059
q-8.94043 -4.02441 -11.1768 -7.59961q-2.23438 -3.57715 -2.23438 0zM402.205 497.898q-1.78906 0.893555 3.5752 2.68262l52.7549 19.6709q16.9883 6.25977 35.7656 10.2822q18.7764 4.02344 42.9189 6.70703q19.6699 1.78809 27.2705 1.33984
q7.59961 -0.446289 5.81152 -3.12891q0 -0.894531 -2.68359 -0.894531l-10.7285 -1.78809q-37.5537 -3.57715 -59.46 -7.60059t-43.3662 -12.0703q-19.6709 -7.15234 -34.8711 -11.624q-15.1992 -4.46973 -16.9873 -3.57617zM243.943 511.312
q-0.893555 1.78711 1.78711 8.49316q2.68359 6.70703 5.36523 9.3877q2.68359 2.68359 -0.892578 -4.46973q-1.78906 -3.57715 -3.57812 -8.94238q-1.78711 -7.15234 -2.68164 -4.46875zM426.347 544.393q0.894531 0.894531 4.91797 3.57812
q4.02246 2.68262 11.1768 9.83496l30.3994 28.6113l36.6611 39.3418q14.3057 15.2002 25.4814 28.166q11.1768 12.9648 20.1182 25.4824q4.4707 6.25879 4.91699 4.02344q0.448242 -2.23535 -9.83496 -16.0938q-10.2822 -13.8594 -21.9062 -26.3779l-57.2246 -59.9062
l-25.0352 -23.2471q-18.7764 -16.9883 -19.6709 -13.4131zM511.289 547.075q-0.894531 2.68262 1.78809 1.78906q4.4707 0 23.6943 12.5176t37.1074 27.7188q9.83496 8.04688 13.4111 9.38867q3.57715 1.33984 2.68262 -3.13086q-0.893555 -4.46973 -16.542 -16.541
q-15.6465 -12.0703 -29.9531 -19.6709q-14.3057 -7.59961 -23.2471 -10.7305q-8.94141 -3.12891 -8.94141 -1.34082zM290.438 608.771q0 3.57617 6.70605 10.7314q6.70605 7.15137 11.1768 8.0459q1.78906 -0.894531 -1.34277 -2.68262q-3.12793 -1.78809 -7.59961 -6.70605
q-4.46973 -4.91699 -6.70605 -8.94043q-2.23438 -4.02441 -2.23438 -0.448242zM155.424 615.029q1.78906 6.25977 10.2822 16.9893q8.49609 10.7295 9.38867 7.15332l-2.68164 -3.57715l-8.04883 -9.83594q-3.5752 -5.36426 -6.25781 -9.83398
q-3.57715 -7.1543 -2.68262 -0.895508zM361.075 689.242q0.894531 1.78809 4.91797 4.47168q4.02246 2.68164 7.59961 2.68164t-1.78809 -2.68164q-2.68359 -0.894531 -6.25977 -2.68359q-4.46973 -4.46973 -4.46973 -1.78809zM90.1523 693.714
q0.894531 5.36523 9.38867 14.7539q8.49512 9.38672 10.7295 8.49219q2.23535 -0.893555 -4.91699 -7.15137q-4.47168 -4.4707 -8.04785 -8.94141q-3.57617 -4.47168 -4.91699 -7.15332q-1.3418 -2.68359 -2.23633 0zM408.463 708.02q0.894531 0.894531 4.47168 1.78906
t8.94141 3.57617q9.83496 4.46973 8.49414 1.78809t-10.7295 -5.8125q-9.38867 -3.12988 -11.1777 -1.34082zM201.024 716.066q0.895508 4.4707 7.60156 12.0713q6.70508 7.60059 10.2822 8.04688q3.57617 0.447266 -2.68262 -4.91699q-4.47168 -3.57617 -8.04785 -7.60059
q-3.57617 -4.02344 -4.46973 -6.70703q-1.78809 -4.46875 -2.68359 -0.893555zM465.688 731.268q0.895508 3.57617 9.38867 7.59961q8.49609 4.02246 14.3057 2.68164q5.8125 -1.33984 -3.12891 -2.23438q-3.57617 -0.893555 -8.94043 -2.68262
q-5.36523 -1.78809 -8.49512 -4.91797t-3.12988 -0.446289zM275.237 771.503q-0.893555 3.57715 5.8125 9.83691q6.70605 6.25684 11.1758 6.25684q4.47168 0 -2.68066 -4.4707q-4.47168 -2.68164 -8.94238 -7.15137zM392.369 784.915q-1.78809 3.57617 4.91895 8.94141
q6.70508 5.36426 13.8574 5.8125q7.15332 0.446289 0 -2.2373q-10.7295 -1.78711 -18.7764 -12.5166zM113.4 803.692q0 4.46973 8.04688 13.8584t10.2822 8.49414t-4.02246 -6.25879q-3.5791 -3.57617 -7.1543 -7.59961q-3.57617 -4.02441 -4.91699 -7.60059
q-1.3418 -3.57617 -2.23535 -0.893555zM338.721 829.622q0.894531 3.57617 6.70703 9.83496q5.81152 6.25879 7.59961 4.91699q1.78809 -1.33984 -0.894531 -2.23438q-2.68066 -0.893555 -5.81152 -4.91699q-3.12988 -4.02441 -5.36426 -7.60059
q-2.23633 -3.57715 -2.23633 0zM194.766 873.435q0.894531 2.68164 5.36523 7.59961q4.4707 4.91895 8.04688 6.70703q8.04785 1.78711 0.894531 -3.57715q-3.57715 -1.78906 -8.04785 -6.25879q-6.25879 -7.15332 -6.25879 -4.4707z" />
</svg>
