<?xml version="1.0" standalone="no"?>
<!DOCTYPE svg PUBLIC "-//W3C//DTD SVG 1.1//EN" "http://www.w3.org/Graphics/SVG/1.1/DTD/svg11.dtd" >
<svg xmlns="http://www.w3.org/2000/svg" xmlns:xlink="http://www.w3.org/1999/xlink" version="1.1" viewBox="-10 0 986 1024">
   <path fill="currentColor"
d="M110.726 164.403l-4.14746 0.829102l-4.98047 0.831055l-12.4473 0.830078q-9.12891 0.830078 -12.8633 2.07422q-3.73438 1.24512 -3.73438 10.374v17.4268l-8.29785 152.697q-4.15039 56.4307 -4.15039 95.4346q0 39.0049 5.80957 107.885l1.65918 28.2148
q0.830078 15.7676 3.32031 21.5771q1.65918 2.48926 4.97754 2.48926l5.80957 -0.830078q10.7891 -1.65918 20.333 -7.05371q9.54395 -5.39355 9.54395 -7.88379q-0.832031 -8.29883 -0.832031 -19.917v-13.2793q3.32129 -0.829102 29.4619 0
q26.1416 0.831055 36.0996 5.80957l8.29883 8.29883q9.12793 12.4482 26.5557 29.0469q17.4277 16.5967 39.0039 32.3643l50.623 41.4941l26.5557 19.917q13.2783 9.95898 18.2568 12.4482l38.1738 23.2373l7.46875 5.80762q12.4492 9.12988 24.4824 20.7471
q12.0332 11.6182 17.0117 19.916q6.63965 9.96094 11.2041 16.5977q4.56348 6.63965 11.2021 14.9385q5.80957 6.63965 10.7881 12.4482l13.2793 14.1074q5.80859 4.97949 14.5225 12.0342q8.71387 7.05371 16.5977 11.6172q7.88379 4.56543 21.1621 12.8633
l15.7666 10.7891l9.95898 7.46875q15.7676 13.2783 24.0664 19.0869l9.95801 6.63867l37.3447 19.0859q3.31836 1.66211 10.7881 4.15039q7.46973 2.48926 10.7881 2.48926q9.95898 -0.829102 17.8438 -7.05371q7.88281 -6.22363 8.71289 -14.5225
q0 -3.31836 1.24414 -2.07422q1.24414 1.24512 5.80859 8.71289q4.56543 7.46973 8.2998 12.8633q3.7334 5.39453 8.71387 10.373l19.916 21.5781q4.97949 6.63965 9.12988 11.6172q6.63867 9.12988 12.0322 12.4482q5.39453 3.32031 11.2041 4.14941
q4.97852 0.830078 10.7881 0.830078q4.97852 0 11.6172 -0.830078q11.6182 -0.829102 17.4287 -4.14941q10.7871 -6.63965 18.2568 -22.8213q7.46973 -16.1836 -5.80859 -33.6104l-15.7695 -20.7471q-8.29785 -10.7871 -29.873 -33.1953
q-5.81055 -4.97852 -8.71387 -9.12793q-2.90527 -4.14941 -6.22461 -9.95801l-4.98047 -7.46973l-11.6182 -14.1074l-16.5967 -24.0654l-13.2783 -21.5771q-0.829102 -2.49023 7.05371 5.39355q7.88379 7.88379 15.3525 17.0127l15.7686 18.2568l14.1084 18.2578
l16.5967 20.7471l14.9375 16.5967l9.95898 9.12891q5.80957 4.97949 9.12793 9.12891q19.0869 21.5752 26.9717 28.2148q7.88379 6.63965 19.502 11.6191q9.95703 4.97852 19.917 1.66016q16.5967 -3.32031 21.9912 -12.0332q5.39453 -8.71387 8.71289 -17.0137
q2.49121 -7.46875 0.415039 -19.502q-2.07324 -12.0332 -15.3516 -29.46l-6.63965 -10.7881q-4.97949 -5.80957 -8.29785 -9.95898q-7.46973 -7.46777 -6.63965 -8.29883q4.14941 1.66016 12.8633 0.415039t14.5225 -3.73438q8.29883 -4.97949 14.1074 -14.1074
q5.81055 -9.12891 6.63965 -13.2793q0.830078 -4.14844 -1.24414 -16.5967q-2.0752 -12.4482 -7.46973 -26.9707t-10.374 -31.1201q-3.31836 -9.12793 -11.6182 -22.4072l-10.7871 -16.5967q-8.2998 -14.1084 -10.375 -18.2578q-2.07422 -4.14844 -4.56348 -10.7881
q-4.14941 -9.95898 -11.6182 -22.4062l-6.63867 -10.7891q-4.15039 -6.63867 -5.80957 -11.6172q-3.31836 -9.95898 -9.95801 -20.7471l-9.95801 -14.1084l-23.2363 -31.5342q-4.15039 -7.4707 -11.6191 -16.5986t-12.4482 -15.7676l-35.6846 -35.6846
q-11.6182 -13.2783 -21.5771 -27.3857l-6.63867 -9.95801l15.7676 4.97852q14.1074 4.97949 27.3857 9.12988q27.3857 7.46777 46.0576 7.05273q18.6729 -0.414062 26.9717 -11.2031q14.9375 -19.0869 3.31934 -39.834q-1.66113 -4.97949 -15.7686 -14.1074
q-9.12695 -5.80957 -21.5752 -14.9375l-14.1094 -10.7891q-4.97852 -3.31934 -8.29785 -9.12988l-9.95801 -17.4258q-5.80957 -11.6191 -14.1084 -19.0869q-8.29883 -7.46875 -23.2363 -15.7676q-11.6182 -6.63965 -25.7256 -16.5977l-17.4277 -11.6182
q-6.63867 -4.14941 -23.2363 -14.9385l-20.7471 -14.1074l-16.5967 -13.2783q-13.2783 -10.7871 -21.5762 -16.5967q-8.2998 -5.80957 -14.9395 -14.9375q-2.48926 -2.49023 -7.46875 -6.63965l-6.63867 -4.14941q-6.63965 -4.14844 -19.917 -6.63867l-16.5977 -2.48926
q-14.1074 -2.49023 -24.4814 -3.73535q-10.373 -1.24512 -24.4805 -1.24512q-57.2617 -2.48926 -71.3691 -4.97949l-25.7256 -2.48926l-21.5771 0.831055q-25.7266 2.48926 -37.3447 4.97949q-11.6182 2.48828 -24.0654 7.05371q-12.4492 4.56445 -28.2158 7.05371
q-15.7686 2.48926 -45.6445 4.14941h-100.414q-0.830078 0.829102 0.829102 -24.0674q0.831055 -20.7471 -0.829102 -24.0654q-0.830078 -2.49023 -3.32031 -2.49023q-0.828125 0 -2.49023 0.830078zM112.388 178.511v14.1074l-2.49023 67.2207l-2.49023 38.1738
q-2.48926 26.5566 -3.31934 46.4736v162.655l2.49023 64.7295v14.1084l-1.66016 2.48828q-4.14941 3.32129 -16.5977 7.05469q-12.4492 3.73535 -14.9385 2.07422q0 -0.829102 -1.6582 -29.0449l-4.97949 -79.668q-2.48926 -29.876 -2.48926 -61.4102l4.14844 -78.8389
l2.49023 -58.0898l5.80859 -116.183l25.7256 -3.32031h10.7881zM377.946 194.279q5.80859 0 10.7881 0.829102l22.4072 2.48926h11.6182l19.916 1.66016l55.6025 2.49023l15.7666 2.48926q19.0879 2.48828 28.6299 4.97852q9.5459 2.49023 17.0146 8.2998l4.14746 3.31836
q3.32031 2.49023 5.39453 5.39551q2.07617 2.90527 6.22363 7.46777q4.15039 4.56543 9.12988 7.88477l24.0654 17.4268q4.98047 4.98047 11.6191 9.95898q6.63965 4.97852 11.6172 8.29785l5.80957 3.32031l19.0879 13.2773l9.12793 6.63867l31.5361 20.7471
q24.8965 14.9375 33.6084 22.4062q8.71387 7.46973 17.0137 23.2373l5.80859 9.95703q2.49023 4.15039 4.97949 6.63965l3.31934 3.32129l-0.830078 2.48828q-1.6582 4.97949 -4.14941 11.6191l-5.80859 13.2773q-6.63867 12.4473 -7.46875 17.4277
q-0.830078 4.97949 2.9043 8.29785q3.73535 3.32031 12.8643 8.2998q9.12695 4.97852 17.4268 8.29785l5.80762 2.48926q8.2998 4.97949 15.3535 3.32031q7.05469 -1.66016 16.1826 -8.2998q6.63965 -5.80762 4.15039 -0.829102q-4.15039 10.7881 -13.2783 17.4277
q-11.6191 4.97949 -37.3447 1.65918q-25.7266 -3.31934 -48.1328 -12.4482q-6.63965 -2.48828 -14.5234 -4.97852q-7.88281 -2.49023 -9.54395 -3.32031l-16.5977 -20.7471q-13.2773 -17.4258 -22.4053 -27.3848l-26.5557 -32.3662q-6.63965 -6.63867 -11.2041 -13.6924
q-4.56348 -7.05469 -7.05371 -12.0322q-1.66016 -2.49023 -13.2783 -17.8438q-11.6182 -15.3516 -24.0654 -26.1406l-14.1084 -13.2773q-10.7891 -10.7891 -14.1084 -12.4492q-9.12793 -4.97754 -31.9502 -17.4258q-22.8203 -12.4482 -27.8008 -12.4482
q-1.65918 1.6582 8.29883 6.63867l21.5771 9.12793l17.4268 9.95898q12.4482 6.63965 17.4277 10.7881l24.8965 24.0664q10.7881 9.95898 20.3311 21.5771q9.54492 11.6182 13.6934 20.7461q4.15039 7.46875 14.9375 20.7471l22.4082 27.3867l17.4258 19.916
l32.3662 41.4941l14.9365 21.5762q4.98047 6.63965 10.7891 13.2783l19.0869 18.2578q14.9375 14.9375 24.0654 25.7256l10.79 14.1074l11.6182 17.4277l4.97852 5.80859q3.31934 4.15039 10.7891 15.7686l14.9375 21.5762q1.66016 3.31934 5.39355 10.7891
q3.73438 7.46777 8.71387 17.4277q4.98047 9.95801 7.05469 12.4473t4.97852 8.2998q2.9043 5.80762 7.05469 16.5967q2.48926 6.63867 7.88281 15.3516q5.39453 8.71484 11.2031 18.6729l8.30078 12.4482l6.63672 11.6182l14.9385 42.3232q5.80859 15.7686 6.63965 33.1953
q0 8.29883 -4.98047 14.9385q-3.31934 4.97852 -4.97949 6.63867q-1.6582 1.65918 0 -2.49023q1.66016 -2.48926 2.49121 -6.63867l0.829102 -4.97852q2.48926 -4.97949 -5.80957 -13.2783q-8.29785 -8.29883 -14.5225 -11.6182q-6.22461 -3.32031 -14.5225 -4.15039
q-14.9385 -1.65918 -20.7471 4.97949t0 19.0879q9.12891 19.916 15.7676 27.3857l4.14941 4.14844q-3.31934 0 -8.2998 -4.56348q-4.97754 -4.56543 -9.12793 -11.2041l-8.29785 -9.95801q-11.6191 -16.5977 -22.4072 -32.3652t-19.0869 -29.0449
q-12.4473 -20.7471 -24.4805 -35.2695q-12.0342 -14.5234 -24.4824 -25.3125q-7.46875 -5.80859 -16.1826 -15.3516q-8.71387 -9.54395 -14.5234 -18.6729l-4.97852 -6.63867l-4.14844 -5.80957q-4.98047 -4.14844 -14.1094 -14.9375l-60.5791 -78.0078
q-4.97949 -6.63965 -6.22461 -5.80859q-1.24512 0.830078 0.414062 2.48926l4.97949 7.46777l47.3027 59.751q14.1074 17.4277 24.0674 28.2168l5.80859 6.63867l4.97852 7.46875q3.32031 4.97949 14.9385 18.2578l19.917 19.917q35.6836 40.6641 44.8125 56.4307
q9.12988 14.1084 19.916 29.4609q10.79 15.3516 21.5781 29.46l18.2568 24.8965q23.2363 27.3857 25.7266 31.5352l4.97852 8.2998q4.97949 8.29785 7.88574 14.9365q2.90332 6.63867 2.90332 13.2783l0.829102 4.15039l-1.6582 -1.66113
q-2.48926 -1.65918 -11.6191 -6.63965l-15.7676 -9.12793q-15.7676 -6.63867 -28.6299 -1.66016q-12.8643 4.98047 -12.0342 17.4277q0 5.80859 2.07422 10.7881q2.07617 4.98047 5.80957 12.4492q3.73535 7.46875 3.31934 8.29785q-0.414062 0.830078 -7.05273 -4.14941
q-4.15039 -2.48926 -14.5234 -13.2783q-10.374 -10.7881 -20.3311 -23.2363q-2.49121 -2.48828 -8.30078 -8.29883l-9.95703 -9.12793q-7.46875 -7.46973 -13.2793 -14.1074l-11.6182 -14.9385q-10.7871 -14.1074 -22.4053 -27.3857l-12.4482 -14.1074
q-4.97949 -5.80957 -13.2783 -14.1074l-9.12793 -9.12891q-3.32031 -2.49023 -10.7891 -11.6182l-24.8955 -28.2158q-5.80859 -6.63965 -13.2793 -14.1084l-37.3438 -36.5137q-20.7471 -20.7461 -28.6309 -27.8008q-7.88281 -7.05371 -19.502 -12.0342
q-6.63867 -4.14844 -9.95801 -4.97949q-3.32031 -0.829102 1.65918 1.66016q25.7266 15.7686 44.8145 34.8555l57.2607 57.2607q8.29785 9.12891 14.1074 14.9375l15.7676 17.4277q4.14941 4.14941 6.63867 7.88379t7.46973 12.8633l4.97949 8.29785l19.916 29.0459
q4.15039 6.63867 8.29883 11.2041q4.14941 4.56348 6.63867 7.88379q2.49023 3.31934 5.80957 9.54395q3.31934 6.22363 10.7881 13.6914q14.1084 14.9385 21.5771 23.2373q7.46973 8.29883 13.2783 15.7676l9.95703 12.4482q7.4707 7.46875 9.5459 14.9375
q2.07324 7.46875 -2.0752 21.5771q-3.32031 7.46875 -9.95996 13.2773q-4.14941 4.98047 -7.88281 7.05371q-3.73535 2.07422 -2.07617 0.416016q8.30078 -5.81055 12.8643 -12.8643q4.56445 -7.05371 5.39355 -12.8623q0 -11.6172 -19.0859 -20.332
q-19.0879 -8.71387 -35.6846 -4.56445q-11.6191 3.31934 -12.0332 12.4473q-0.416016 9.12988 9.54395 31.5361l3.31836 6.63965q2.49023 4.14941 -4.14941 1.6582q-4.14941 -0.829102 -9.12891 -4.97852q-4.97852 -4.14941 -11.6172 -13.2764l-7.46973 -9.96094
q-4.97949 -5.80859 -16.1826 -17.4258q-11.2031 -11.6191 -17.0117 -21.5781l-9.12988 -14.1074q-4.97754 -8.29883 -7.46777 -11.6172l-11.6182 -14.1084l-24.8955 -25.7256l-45.6445 -51.4531q-27.3848 -32.3652 -36.5137 -41.9092q-9.12793 -9.54297 -19.0879 -17.0117
q-19.0859 -14.9375 -31.1191 -23.6523q-12.0342 -8.71289 -12.0342 -7.05273q3.32031 0.829102 36.5156 28.2148q13.2773 11.6191 18.2568 16.1826q4.97949 4.56445 9.95801 11.2041l87.9668 98.7549q23.2354 23.2354 21.5762 23.2354l-2.48926 -1.6582
q-9.12793 -4.98047 -20.3311 -1.24512q-11.2041 3.73438 -14.5234 12.8633q-0.829102 3.31934 -0.829102 10.7871q0 7.46973 0.829102 10.7891q0 0.830078 -4.14941 -1.65918l-16.5967 -8.29883l-18.2578 -9.95898l-14.1074 -10.7881l-11.6191 -9.95801l-20.7471 -14.9385
l-11.6182 -7.46875q-8.29883 -5.80859 -16.5977 -10.7881l-13.2773 -8.29883q-12.4482 -7.46875 -29.0459 -26.9697q-16.5977 -19.5039 -29.874 -40.251q-7.46973 -11.6172 -13.2793 -18.6709q-5.80859 -7.05469 -13.2773 -12.8643l-14.1084 -11.6172
q-4.97949 -4.15039 -9.12793 -6.63965l-9.12891 -6.63867q-9.95898 -7.46875 -10.7891 -7.46875l-24.0654 -14.1074q-9.12891 -5.80957 -31.5361 -22.4082l-38.1738 -29.874l-29.875 -24.0664q-31.5361 -24.0664 -49.793 -43.5684q-18.2559 -19.5029 -19.917 -29.46
q-2.48926 -13.2793 -1.24414 -32.3662q1.24414 -19.0879 6.22266 -38.1729q1.66016 -5.80957 4.15039 -12.0342q2.48926 -6.22461 4.56348 -9.54395q2.07617 -3.31836 1.66113 -4.56445q-0.416016 -1.24414 -2.90527 1.24609q-2.48926 2.48828 -4.56445 6.6377
q-2.07422 4.14941 -5.80859 14.9385q-3.73535 10.7881 -5.39453 19.917l-2.48926 25.7256q0 11.6182 0.830078 22.4072l0.830078 10.7881q-7.46973 -2.49023 -16.1836 -3.73438q-8.71289 -1.24414 -26.9717 -1.24414h-21.5752v-171.785l3.31836 -72.1982l2.49023 -35.6855
v-56.4307l26.5566 0.830078q30.7051 0 65.5596 -1.24512t50.6221 -2.90527q8.29785 -0.829102 14.5225 -2.07422q6.22461 -1.24414 20.332 -6.22363l20.7471 -5.80957q7.46973 -0.830078 22.8203 -2.9043q15.3545 -2.07422 22.8232 -2.9043zM517.365 233.282
q-0.830078 1.66113 4.14941 1.66113q9.12793 0 19.0869 4.14844q9.95898 4.15039 4.14941 -0.829102q-4.97949 -3.31934 -14.9375 -5.39551q-9.95898 -2.07422 -12.4482 0.415039zM767.157 390.959q3.31934 2.48926 6.63867 4.97949l30.7061 21.5771
q7.46875 4.97852 12.0322 12.8623q4.56543 7.88379 2.49023 13.2783t-8.2998 9.54297q-6.22266 4.15039 -12.0322 5.80859q-8.29883 1.66016 -23.2373 -4.97949l-24.8945 -14.9375q-4.15039 -2.48828 -3.73535 -7.46777q0.415039 -4.98047 5.39355 -14.9385
l4.15039 -8.29785l7.46875 -19.918zM614.461 449.88q0 0.830078 4.97852 7.46973q4.97949 6.6377 12.4473 15.7666l9.12988 10.7891l1.65918 1.65918l-9.95703 -13.2783q-7.4707 -9.12793 -12.0332 -15.3525q-4.56543 -6.22363 -6.22461 -7.05371zM530.643 551.124
q1.66016 4.97852 16.1826 21.5771q14.5225 16.5977 18.6729 18.2568l-6.63965 -6.63867q-9.95898 -9.95898 -18.2568 -19.916q-8.29883 -9.95898 -8.29883 -12.0332q0 -2.0752 -1.66016 -1.24609zM458.444 626.643q1.6582 6.63965 15.7666 23.6514
q14.1084 17.0137 19.918 19.5029q0 -0.830078 -4.14941 -4.15039q-6.63867 -5.80957 -15.3525 -16.1816q-8.71484 -10.374 -14.5244 -20.332q-1.6582 -3.31934 -1.6582 -2.49023zM767.987 630.792q-7.46973 4.15039 -12.4482 9.12988q-4.97852 4.97754 -4.14941 6.22363
q0.829102 1.24414 4.97949 -2.90527q3.32031 -3.31836 8.29883 -7.46875q4.97852 -4.14941 7.46875 -6.63867zM769.646 644.071q-2.48926 1.6582 -4.97852 4.14844q-2.49023 2.48926 -2.49023 3.31934t4.14844 -3.31934q4.15039 -4.14844 5.81055 -4.56348
q1.65918 -0.416016 1.65918 -1.24609q0 -0.829102 -4.14941 1.66113zM416.12 700.501q0 0.831055 3.31934 4.98047l4.97949 6.63867q4.14941 4.14941 -1.65918 -3.31934l-4.97949 -6.63867q-1.66016 -3.32031 -1.66016 -1.66113zM712.385 729.547
q-12.4482 9.12891 -12.8623 14.1094q-0.415039 4.97754 0.414062 2.48828l2.49023 -4.97852l7.46973 -6.63965q14.1074 -12.4473 2.48828 -4.97949zM841.016 741.994q-1.65918 0 -4.56445 2.07617q-2.9043 2.07422 -2.9043 2.9043q-1.65918 2.49023 2.49023 -0.830078
q3.31934 -2.48828 4.97852 -4.15039zM718.195 745.315q-4.98047 4.14941 -6.63965 9.12793q-1.65918 4.97949 2.48926 -1.65918q1.66113 -2.49023 4.15039 -5.39453q2.48828 -2.90527 3.7334 -4.14844q1.24512 -1.24707 -3.7334 2.07422zM866.742 790.959
q7.46875 0.828125 12.4473 3.31836q4.97949 2.49023 11.6182 7.46973q2.49023 2.48926 5.81055 6.6377q3.31836 4.14941 3.31836 6.63867q0 2.49023 -0.830078 8.2998q-0.830078 5.80859 -3.31934 9.12891q-4.97949 6.63867 -9.12891 8.71387
q-4.14844 2.07422 -9.95801 2.9043q-9.95801 1.65918 -9.95801 0l-9.12988 -9.95898q-0.828125 -1.65918 -4.97754 -8.29785l-5.80957 -11.6182q-4.97949 -12.4482 0.415039 -18.6729t19.502 -4.56348zM633.547 793.448q-4.97852 2.48828 -7.88379 4.97852
q-2.9043 2.48926 -2.48926 3.32031q0.415039 0.829102 4.56445 -2.48926l7.46973 -4.98047q3.31836 -2.49023 2.48828 -2.49023zM636.866 803.405q-1.6582 0.831055 -4.97949 4.15039q-3.31836 3.31934 -2.90332 3.73535q0.414062 0.415039 4.56348 -4.15039
q4.14941 -4.56445 4.97949 -4.97949q0.830078 -0.414062 -1.66016 1.24414zM516.535 813.365q-2.49023 1.6582 -4.97949 3.31836q-2.48926 1.66113 -2.48926 2.49023q0 0.830078 2.48926 -0.829102l3.32031 -2.49023l4.14844 -2.48926q4.15039 -1.65918 2.49023 -1.24512
t-4.97949 1.24512zM515.705 822.493q-4.14941 3.32031 -3.31836 3.32031q0.828125 0 3.31836 -1.66113q2.49023 -1.65918 3.73438 -2.9043q1.24512 -1.24414 -3.73438 1.24512zM808.65 844.07q-2.48926 0.829102 -5.80859 4.14844q-3.32031 3.32031 -2.9043 3.73438
q0.415039 0.416016 3.7334 -2.48828q3.32031 -2.9043 6.63867 -5.39453l3.32031 -1.66016q0 -0.830078 -4.97949 1.66016zM600.353 876.436q-2.48926 1.65918 -4.97949 4.14941q-2.48926 2.48828 -2.48926 3.73438q0 1.24316 4.14941 -2.90527l4.97949 -4.97852
q4.14941 -3.31934 -1.66016 0zM859.274 895.521q3.31836 0.831055 12.0322 4.98047q8.71484 4.14844 17.0127 9.12793q8.29883 4.98047 9.12793 5.80957t-0.415039 4.56445q-1.24512 3.7334 -2.48828 7.46777q-1.24609 3.73535 -4.98047 9.54395
q-3.73438 5.80957 -9.54199 9.95898q-9.12988 4.14941 -17.4287 4.97852h-10.7891q-8.29883 -4.97852 -9.95801 -6.63867l-9.12793 -18.2578q-2.49023 -5.80859 -3.32031 -10.7881v-9.12793q19.0869 -14.1084 29.877 -11.6191zM662.593 898.011
q9.95898 5.80957 12.4482 13.6943q2.49023 7.88379 -4.14941 14.9365q-6.63867 7.05469 -12.8633 9.12891q-6.22363 2.0752 -12.8623 1.24512q-4.14941 -0.829102 -9.12891 -3.31934l-5.80859 -2.48926q-1.66016 -2.48926 -2.0752 -11.6182t1.24414 -13.2793
q4.14941 -7.46777 14.1084 -9.95703t19.0869 1.6582zM727.323 902.991q-8.2998 4.14941 -7.46875 4.97949q0.829102 0.830078 2.49023 -0.830078q1.65918 -1.65918 6.63867 -4.14941q6.63867 -2.48926 5.39355 -2.48926t-7.05371 2.48926zM770.477 942.825
q11.6182 2.48926 20.7471 7.05371q9.12891 4.56348 12.4473 9.54297q2.49023 2.49023 2.49023 5.80957q0 3.31836 -3.31934 9.95801q-4.97852 9.12988 -12.8643 15.3545q-7.88281 6.22363 -18.6709 6.22363h-8.29883q-5.80957 -0.831055 -6.63867 -1.66113
q-1.66113 -4.97754 -3.31934 -7.46875l-3.32031 -7.46875q-6.63867 -16.5967 -7.46875 -24.8945q0 -7.4707 8.2998 -10.79q8.29785 -3.31934 19.916 -1.65918z" />
</svg>
