<?xml version="1.0" standalone="no"?>
<!DOCTYPE svg PUBLIC "-//W3C//DTD SVG 1.1//EN" "http://www.w3.org/Graphics/SVG/1.1/DTD/svg11.dtd" >
<svg xmlns="http://www.w3.org/2000/svg" xmlns:xlink="http://www.w3.org/1999/xlink" version="1.1" viewBox="-10 0 1075 1024">
   <path fill="currentColor"
d="M249.692 33.46q-3.9209 1.27734 -7.30762 3.01758t-8.55957 6.61328q-5.17285 4.87207 -6.4248 8.46875q-1.25195 3.5957 -1.9707 7.65625l-0.508789 7.05273q-0.649414 5.05762 0.697266 9.97559t4.61816 8.69922l11.0918 15.2627q3.41113 5.77637 12.5527 14.6602
q9.14258 8.88379 16.6133 15.3789l18.0752 14.7754l10.6729 9.27734q9.67578 9.34863 11.7061 9.70703q2.0293 0.359375 6.86719 5.0332q4.83789 4.6748 10.3145 11.3086l10.8818 12.2705q15.2217 16.9795 22.3232 32.5225q8.44824 20.46 26.1738 30.248
q5.2666 3.6416 7.40137 5.49707l11.9502 13.1982l27.2412 31.1758q12.0195 14.1963 2.23145 31.9219q-1.78516 3.13184 -3.28223 3.2373q-1.49609 0.104492 -9.29199 -3.86133q-7.79492 -3.96582 -15.0576 -7.46777l-9.39648 -5.35742l-31.1123 -14.8662l-9.39648 -5.35742
q-28.2598 -17.0703 -38.6543 -22.3584l-79.5322 -33.5342q-7.2627 -3.50195 -10.3945 -5.28711l-16.7285 -9.85742q-8.3291 -4.42969 -14.7334 -9.99707l-21.9248 -12.501l-14.5244 -7.00391q-30.1846 -15.9326 -48.8486 -17.6348q-18.665 -1.70215 -31.8984 9.74902
q-13.2334 11.4502 -12.8701 30.9727q0.362305 19.5225 12.9609 27.6631l29.3965 18.9961l39.6514 22.2881q13.457 6.07617 31.3223 17.8584l15.7305 9.92676l13.8057 11.0645q7.47168 6.49414 13.8057 11.0635l17.7949 10.7852l17.9355 12.7803
q18.0752 14.7754 32.5293 20.7812l35.2422 16.582l16.4492 5.86719q7.19238 2.50391 13.3867 5.07812q13.248 3.08398 18.5146 6.72559q5.2666 3.64062 5.5459 7.63086t-1.72656 11.1484q-2.00586 7.15723 -3.50195 7.26172t-6.55371 -0.543945l-74.4268 -17.8525
q-15.3125 -3.94141 -33.9072 -4.64551q-18.5938 -0.705078 -47.4541 2.31543q-9.97559 0.698242 -20.5195 0.432617q-10.5439 -0.264648 -18.6641 -1.70215l-42.665 -8.04297l-35.4727 -5.53906l-17.3076 -3.80273l-8.0498 -0.439453l-10.1152 -1.29688
q-20.5098 -6.58594 -35.7031 5.50391q-7.5625 6.54297 -11.7822 17.8652q-1.57715 6.125 -1.22852 11.1123q0.279297 3.99023 1.48633 6.91309l2.41309 5.84668q3.55078 7.77051 8.09961 15.4727q4.54785 7.70117 6.75293 10.5547q6.19434 2.57422 19.0127 6.68945
q12.8184 4.11621 21.9355 5.4834l38.3955 4.33203q29.3486 3.96289 51.7129 8.41309l52.7803 9.34082l34.6152 7.60449l118.947 23.7607l0.836914 11.9707l1.41602 5.91504l-2.15527 12.1807q-0.579102 6.05469 -2.89844 8.72266q-2.32031 2.66895 -9.16309 5.15234
l-16.54 7.1709q-9.83691 2.69238 -13.7568 3.96973q-8.83887 2.62305 -34.3223 10.9209q-25.4824 8.29785 -36.2471 12.0576q-4.91797 1.3457 -17.8164 3.25098l-16.8193 3.18066l-26.6553 5.87402l-26.7939 3.87793q-15.8916 2.11426 -28.9053 9.54004t-12.8604 23.9551
t3.56445 22.3057t4.40918 5.70605q5.47559 6.63477 25.7764 10.2275q4.05957 0.717773 22.584 0.425781q18.5254 -0.292969 47.3848 -3.31348l43.7529 -5.06445q18.8838 -2.32324 27.792 -3.94824q8.90918 -1.62598 23.5928 -6.66211q4.84863 -2.34375 8.83887 -2.62305
l30.7852 -4.1582l23.6621 -5.66406q13.7568 -3.96875 20.6006 -6.45215q6.84375 -2.48438 9.97559 -0.698242q18.7236 9.71777 36.5996 14.4824t26.7842 3.13965q11.7607 -3.83008 -0.209961 -2.99316q-16.0303 0.118164 -41.7363 -9.11035
q-25.707 -9.22949 -40.5098 -20.2236q-4.26953 -3.71094 -3.63086 -1.75098q0.637695 1.95996 4.37402 5.20703q3.73535 3.24805 7.93457 5.96094l3.20215 2.78418q-0.0693359 -0.998047 -5.98535 0.417969l-41.2695 11.9082l-30.8555 3.16016
q-3.91992 1.27637 -8.83789 2.62305q-15.6123 6.10352 -25.0195 7.76367t-28.3613 2.98535l-59.5742 8.17578q-15.8916 2.11426 -27.8975 2.45215q-12.0049 0.338867 -21.123 -1.0293l-8.12012 -1.43652q-7.12207 -1.50684 -12.8184 -4.11621
q-5.69531 -2.6084 -9.53613 -7.35254q-3.83984 -4.74414 -4.1084 -15.752t0.519531 -14.0703l0.788086 -3.0625q4.36035 -9.32715 17.0498 -14.2236q6.77344 -3.48145 13.1875 -4.93262q6.41504 -1.4502 19.3135 -3.35547q20.8789 -2.46191 32.71 -5.29395l17.7471 -4.24902
l17.8867 -2.25293q6.91309 -1.48535 10.834 -2.7627l35.2842 -11.4893l32.4316 -9.28418l31.2939 -11.2109q14.6846 -5.03613 15.0537 -14.084l2.36523 -9.1875q1.4375 -8.12012 -1.11621 -15.9609q-1.27637 -3.9209 -0.523438 -7.48145
q0.753906 -3.56152 -0.847656 -4.95312q-1.60059 -1.3916 -8.65332 -1.90137l-191.1 -37.7617q-33.6172 -7.67285 -69.9482 -11.1475q-14.1055 -1.01855 -16.1699 -1.87695q-2.06543 -0.857422 -12.25 -3.15234q-26.3555 -4.17188 -35.1836 -8.56738
q-8.82812 -4.39453 -13.585 -15.0889q-7.88965 -12.4795 -8.98145 -20.9238q-1.0918 -8.44531 4.33496 -16.8438q13.4287 -22.9932 37.9287 -16.6865l10.2549 3.29297l9.04785 0.369141q9.11719 1.36719 18.3047 3.73242q16.3096 3.87207 34.6152 7.60352
q18.3047 3.73242 23.292 3.38379q4.98828 -0.348633 13.1084 1.08887q27.2832 3.10352 56.1426 0.0830078q16.958 -1.18555 34.0566 -0.375977q17.0977 0.808594 30.2754 2.89453l59.1143 13.9111q10.1855 2.29492 14.8135 3.97559q4.62891 1.68164 9.61621 1.33301
l6.05566 0.579102l0.208984 2.99219q0.418945 5.98535 3.74609 -3.77051q3.32812 -9.75586 3.62793 -19.8008q0.579102 -6.05566 -2.62305 -8.83887t-14.5938 -8.00195l-37.0986 -14.4473q-7.19141 -2.50391 -11.3213 -4.21973l-15.5918 -7.93262
q-27.8408 -11.084 -34.3145 -17.6484q-8.53906 -7.42285 -24.2695 -17.3496l-18.9326 -12.71l-12.668 -9.13867q-12.8086 -11.1338 -29.5713 -21.4902q-16.7637 -10.3555 -39.6865 -22.7871q-26.0547 -14.2168 -42.25 -23.6104q-16.1943 -9.39258 -18.3984 -12.2461
l-4.26953 -3.71094q-7.61133 -8.49023 -7.26562 -25.0547t8.83496 -24.1748q14.3359 -10.0244 31.0049 -8.18262t47.8516 17.7051l14.4541 6.00586q9.32715 4.36035 14.5938 8.00195l11.6016 8.21094q8.39844 5.42676 10.5332 7.28223l36.3096 17.5098
q21.7861 10.5059 29.9766 12.9414q20.6484 8.58008 44.001 19.9785q23.3516 11.3994 33.8848 18.6816q8.39941 5.42773 12.46 6.14648q0.99707 -0.0703125 8.25879 3.43164l39.7217 23.2861q4.12988 1.7168 9.25684 3.3623l6.19434 2.57422l-2.71289 4.2002
q-3.50195 7.26172 -1.9707 7.65527q1.53027 0.394531 2.35352 -2.16895t3.14355 -5.23242q2.31934 -2.66797 3.74609 -3.77051q1.42578 -1.10156 4.07031 -6.29883q11.6426 -19.8604 -4.71582 -38.7656l-10.9521 -13.2686q-10.8828 -12.2705 -21.6602 -23.0449
q-10.7783 -10.7744 -17.1123 -15.3438q-12.5986 -8.14062 -19.6299 -22.6855l-5.8252 -11.6221l-5.61621 -8.62988q-5.61523 -8.62891 -15.3955 -19.4727q-9.78027 -10.8447 -18.3184 -18.2676l-17.2168 -16.8398q-14.0146 -14.0566 -23.5166 -20.9102
q-9.50098 -6.85449 -21.2764 -17.5586q-11.7754 -10.7051 -16.1846 -16.4111l-5.61523 -8.62891q-3.3418 -4.7793 -6.32324 -11.5879q-2.98242 -6.80859 -3.19141 -9.80078q-0.488281 -6.9834 3.01367 -14.2451t13.1279 -12.9473q9.62695 -5.68555 17.2139 -4.71191
q7.58594 0.972656 30.2998 10.4111t38.793 24.3535l15.082 14.9844l11.7412 10.2061q6.54297 7.56152 39.3506 32.334l29.5371 20.9902q11.4609 6.21582 21.6006 15.0303q10.1396 8.81348 21.0918 22.082l53.8545 53.374q5.40625 5.63574 16.0791 14.9141l13.9453 13.0596
l16.7979 10.8545q13.666 9.06836 22.9932 13.4287l16.6582 8.85938q6.19434 2.57422 6.26465 3.57227l-3.9209 1.27637q-5.98535 0.417969 -13.3975 1.93945q-7.41113 1.52051 -10.1953 4.72266q10.7646 -3.76074 29.2188 -5.05078q18.4551 -1.29102 33.6279 0.655273
l28.2109 2.03711l-9.97559 0.698242q-18.8838 2.32227 -33.6377 6.36133q-14.7549 4.03906 -13.5479 6.96191q1.06738 0.928711 4.91797 -1.3457q11.7617 -3.83008 32.0723 -7.25488q20.3105 -3.42578 31.4229 -2.19727q1.06738 0.927734 -9.09277 6.14941
q-10.1602 5.2207 -23.8477 10.1875q-8.76855 3.62109 -14.5449 7.03223t-4.74316 3.83984q1.03223 0.429688 5.38184 -1.87988q4.34961 -2.30859 15.1133 -6.06836q10.7637 -3.76074 20.4609 -8.44824q9.69629 -4.6875 14.4053 -9.02734l2.92285 -1.20605l2.7832 -3.20215
q-0.0205078 14.0352 -4.38086 23.3623t-1.90137 8.65332q2.45898 -0.672852 6.28613 -10.4639q3.82617 -9.79004 5.19336 -18.9082l5.16895 -26.4248q0.927734 -1.06738 2.99316 -0.208984q2.06445 0.857422 -1.48633 -6.91309q-1.27637 -3.9209 -2.33301 -11.8662
q-1.05664 -7.94629 -0.663086 -9.47754q0.394531 -1.53125 -0.987305 -6.94727q-1.38086 -5.41699 -3.79492 -11.2627l-7.03125 -14.5449l-6.24316 -17.6074q-8.93652 -27.4434 -9.46289 -56.4775t7.98438 -50.6807l9.43848 -22.7139l12.291 -24.918
q7.07422 -13.5264 19.624 -20.4189q12.5498 -6.8916 24.7998 -3.73828q4.12988 1.71582 8.8623 4.89355q4.7334 3.17676 6.9375 6.03027l2.20508 2.85352l-0.370117 9.04785q-0.439453 8.0498 -0.425781 22.584q0.0136719 14.5352 2.84668 26.3662l5.29395 32.71
q1.34668 4.91797 2.54297 14.8594q1.19629 9.94043 0.268555 11.0078q-5.8457 2.41406 -6.7041 4.47852q-0.857422 2.06543 2.95801 -0.708008q3.81641 -2.77246 7.22754 3.00293q4.6875 9.69727 -2.87402 16.2402q-3.85156 2.27441 -3.74707 3.77051
q0.105469 1.49609 2.95801 -0.708008q5.56738 -6.4043 7.47168 6.49512l8.86621 26.4453q7.93848 27.5137 21.8838 40.5723l4.4082 5.70703l12.2295 17.1885q7.67969 9.4873 10.0244 14.3359q2.34375 4.84766 4.6875 9.69629l4.1084 15.752q2.55371 7.84082 4.39844 12.7236
q1.8457 4.88379 3.61035 15.7871l1.97363 13.8965q0.209961 2.99219 2.46289 20.8789l3.66895 23.8018l8.24609 60.5723l5.31543 18.6748l4.66699 23.7324q1.97363 13.8955 7.72852 24.5205l3.48145 6.77344q1.20703 2.92285 9.45605 13.373t15.79 17.9424l26.9619 27.1855
l20.3486 18.626l18.1445 15.7725l-14.9844 15.082q-30.8271 32.2285 -71.3018 84.1787t-48.7549 62.5537q-11.7832 17.8652 -26.7432 40.4639t-21.2451 33.0625q-1.71582 4.12988 -3.28223 3.23633q-1.56641 -0.892578 -7.18164 -9.52148l-7.75 -10.4854l-40.6768 -51.2871
q-6.54395 -7.5625 -16.5684 -21.8975l-14.5029 -21.04q6.05566 0.579102 7.44727 -1.02148q1.3916 -1.60156 -5.66113 -2.11035l-12.25 -3.15332q-5.2666 -3.6416 -24.499 -6.30664q-6.05566 -0.579102 -15.2432 -2.94336l-18.3047 -3.73242
q-23.4326 -5.37891 -38.3506 -10.8516t-24.5234 -13.8232q-6.4043 -5.56641 -5.73145 -3.10742q0.673828 2.45898 6.50879 7.06348q5.83594 4.60352 13.0977 8.10547t19.0479 7.18945q11.7861 3.68652 24.0352 6.83984l41.7373 9.11035q17.168 1.80762 23.4326 5.37891
t12.0889 15.1934q15.71 23.9629 28.7969 39.0869l8.74805 10.415l30.7217 37.9492l12.3691 19.1846q2.06445 0.857422 -1.57715 6.12402q-6.21582 11.4619 -11.3643 23.8516l-4.42969 8.3291q-0.508789 7.05273 8.94727 20.4258t15.5801 14.9492
q6.77441 -3.48047 26.4883 -36.9375t37.0635 -57.7266q32.1943 -41.3457 77.2979 -91.6152q45.1035 -50.2686 74.0742 -80.3623l20.6211 -20.4883q9.34766 -9.67578 8.99902 -14.6641q-0.348633 -4.9873 -4.22363 -10.2295q-3.875 -5.24316 -8.56348 -14.9395
l-4.89648 -12.6895q-1.27637 -3.91992 -1.34668 -4.91797q-1.48535 -6.91309 -6.33398 -4.56934q-2.92285 1.20703 -13.3379 9.95508l-21.5488 21.5557l-5.33691 -4.63965q-5.33691 -4.63867 -10.7432 -10.2754l-52.9268 -54.4404q-26.0342 -28.2529 -31.3281 -60.9629
l-4.3877 -19.7422l-11.0293 -57.3711q-1.55566 -7.91016 -4.9248 -41.7578l-2.11328 -15.8916q-1.34668 -4.91797 -2.05469 -7.875q-0.708008 -2.95801 -2.47266 -13.8613q-0.488281 -6.9834 -1.23145 -10.4404q-0.743164 -3.45605 -3.15723 -9.30176l-7.31055 -18.5352
q-2.69238 -9.83594 -6.74219 -17.5723q-4.0498 -7.7373 -14.4678 -20.541q-10.4189 -12.8047 -15.9648 -20.4365l-2.2041 -2.85352q-2.13477 -1.85547 -5.7207 -10.125q-3.58496 -8.27051 -6.27832 -18.1064l-10.5615 -36.3516q-1.20605 -2.92285 -3.34082 -4.77832
q3.3623 -9.25781 -2.11426 -15.8916q-1.06738 -0.927734 -1.20605 -2.92285l-2.46289 -20.8789l-6.64062 -37.6289q-1.55566 -7.91016 -2.20801 -24.4053t0.181641 -26.0762q0.833008 -9.58105 -0.164062 -9.51172l-7.54102 -7.49219q-17.0771 -14.8447 -41.249 -2.12793
q-7.70117 4.54883 -13.1982 11.9502t-9.06934 13.666l-8.71973 18.6533l-5.14844 12.3896l-4.15039 12.3193q-8.51074 21.6465 -8.55273 49.7178t7.89648 55.584l6.17383 16.6104l12.0684 29.2295l3.02051 28.8594q1.20605 2.92285 -0.694336 11.5762
q-1.90137 8.6543 -3.82617 9.79102l-3.71191 4.26953l-3.78027 3.27148l-22.3652 -4.4502q-2.06543 -0.858398 -7.05273 -0.509766l-30.2061 -1.89746l-16.2402 -2.87402q-2.99219 0.208984 -10.3242 -4.29004l-20.7881 -10.5762q-7.2627 -3.50195 -13.5264 -7.07324
l-20 -13.6387q-6.33496 -4.56934 -14.9082 -12.4902t-17.3213 -18.3369l-30.0938 -28.9707l-17.3564 -18.835q-8.74805 -10.415 -21.0566 -21.584q-12.3096 -11.1689 -22.8428 -18.4512l-42.1348 -29.1318l-22.2744 -17.4893q-16.0098 -13.917 -24.6182 -22.3369
q-14.084 -15.0547 -27.75 -24.123q-13.666 -9.06934 -31.043 -13.8682l-10.3252 -4.29102q-8.25879 -3.43164 -15.2422 -2.94336q-3.99023 0.279297 -7.84082 2.55273zM347.237 123.876q-2.78418 3.20215 -2.21484 4.16504q0.568359 0.962891 3.35156 -2.23926
t2.67871 -4.69824q-0.104492 -1.49707 -3.81543 2.77246zM415.315 194.299q-13.3379 9.95508 -7.35254 9.53613q1.9248 -1.13672 8.52441 -7.1123q6.59961 -5.97461 7.45703 -8.03906q0.858398 -2.06543 -8.62891 5.61523zM732.959 178.102
q-6.91309 1.48633 -9.83594 2.69238q-7.84082 2.55371 2.13477 1.85645q15.8213 -3.11133 15.6816 -5.10645zM423.345 208.774q-3.78125 3.27148 -1.78613 3.13184t3.38672 -1.74023q1.3916 -1.60156 1.75098 -3.63086q0.359375 -2.03027 -3.35156 2.23926zM190.779 266.137
q-1.71582 4.12988 -3.93066 8.29395q-2.21484 4.16504 -0.290039 3.02832q1.92578 -1.1377 5.49707 -7.40137l3.50195 -7.2627q-1.13672 -1.9248 -4.77832 3.3418zM297.923 321.798q-2.7832 3.20215 -5.92578 8.43457q-3.14258 5.23145 -4.92871 8.36426
q-1.43652 8.12012 3.0625 0.788086q1.78613 -3.13184 5.85645 -9.43164q4.07031 -6.29883 5.92578 -8.43359q1.85645 -2.13477 0.753906 -3.56152t-4.74414 3.83984zM779.104 336.268q4.40918 5.70703 34.2803 17.1514q29.8711 11.4434 38.709 8.82129
q-18.4443 -5.72754 -38.4541 -12.3477q-20.0107 -6.62109 -29.4775 -12.9756q-4.12988 -1.71582 -5.05762 -0.649414zM594.82 410.304q-0.439453 8.0498 6.30273 25.6221q6.74219 17.5732 16.0127 35.4697q9.27148 17.8965 26.2227 45.2812q16.9521 27.3838 25.7695 38.7969
q4.33887 4.70898 5.76562 3.60645t-1.91504 -5.88086q-6.61328 -8.55957 -23.5293 -35.4443l-27.4297 -48.2041q-24.5762 -50.4092 -27.1992 -59.2471zM151.672 452.318q-2.50488 7.19238 -2.87402 16.2402q-0.370117 9.04785 1.19629 9.94043
q1.56543 0.892578 1.2168 -4.09473q-0.557617 -7.98047 3.66309 -19.3027q1.57617 -6.125 -0.418945 -5.98535t-2.7832 3.20215zM568.723 424.157q-2.57324 6.19531 -4.76465 17.876q-2.19043 11.6816 -2.28125 24.7197q-1.1084 27.1436 0.694336 60.0977
q1.80371 32.9551 5.0752 36.7354q3.27148 3.78125 1.43652 -8.12012q-4.43652 -34.7744 -3.83984 -76.418q0.59668 -41.6426 5.6748 -55.0293q1.7168 -4.12988 0.254883 -3.52637q-1.46094 0.602539 -2.25 3.66504zM266.301 457.334q-2.71387 4.2002 -4.38086 23.3633
l-2.0166 14.1748q-0.369141 9.04785 2.92285 -1.20703l3.59277 -20.2998q2.0166 -14.1748 -0.118164 -16.0312zM526.344 463.209q-4.66016 19.3721 -8.70215 54.7402q-4.04297 35.3682 -1.69922 40.2168q2.06543 0.857422 2.85352 -2.20508
q0.788086 -3.06152 1.08789 -13.1074q4.07422 -56.4219 7.80664 -74.7266q0.71875 -4.05957 -1.34668 -4.91797zM304.912 651.113q-2.7832 3.20117 6.96191 13.5469q9.53613 7.35254 0.788086 -3.0625q-5.40625 -5.63672 -7.75 -10.4844zM249.098 670.053
q1.625 8.9082 1.49609 -0.104492q-0.128906 -9.01367 -2.91211 -5.81152q1.13672 1.92578 1.41602 5.91602zM1036.59 621q2.62305 8.83887 5.6748 16.6445q3.05176 7.80664 5.25684 10.6592l1.27637 3.9209l-8.55957 6.61328q-53.792 47.8691 -122.171 130.841
q-39.7559 47.8896 -63.4258 82.124q-23.6689 34.2344 -39.4629 66.415q-4.42969 8.3291 -5.42773 8.39941q-4.4082 -5.70703 -12.1592 -16.1914l-8.88672 -12.4102l6.28516 -10.4648q4.36035 -9.32617 8.92969 -15.6602l25.4199 -37.8662q46.3418 -68.3984 90.667 -122.623
q44.3262 -54.2236 96.7715 -107.011l12.2012 -11.8799l3.85059 -2.27441zM486.775 671.477q-4.86914 16.3799 20.1885 30.666q7.33203 4.5 23.7812 10.3662q16.4492 5.86719 32.8291 10.7363q8.18945 2.43457 17.2373 2.80469t9.44238 -1.16113
q0.393555 -1.53125 -3.66602 -2.25q-11.043 -0.230469 -19.6973 -2.13184q-8.65332 -1.90039 -30.2305 -9.41406q-53.4072 -18.3184 -47.75 -37.7607q1.4375 -8.12012 -2.13477 -1.85547zM852.163 649.936l4.42969 -8.3291q10.7148 -18.793 14.7959 -32.1104
q5.00879 -14.3848 0.161133 -12.04q-0.927734 1.06738 -2.57422 6.19434q-5.79785 17.4473 -16.5127 36.2402q-11.7129 18.8623 -26.4873 36.9375q-21.1309 27.541 -40.7539 47.96q-20.6211 20.4883 -27.5342 21.9736q-1.92578 1.1377 -1.85547 2.13477
q8.25879 3.43262 36.3027 -25.5947q29.041 -29.0967 52.8154 -61.835l5.35742 -9.39648z" />
</svg>
