<?xml version="1.0" standalone="no"?>
<!DOCTYPE svg PUBLIC "-//W3C//DTD SVG 1.1//EN" "http://www.w3.org/Graphics/SVG/1.1/DTD/svg11.dtd" >
<svg xmlns="http://www.w3.org/2000/svg" xmlns:xlink="http://www.w3.org/1999/xlink" version="1.1" viewBox="-10 0 1034 1024">
   <path fill="currentColor"
d="M715 0q-13 3 -20.5 7t-19.5 12q-3 2 -9 9l-20 24q-4 4 -8 10.5t-15.5 20t-39.5 40.5q-22 22 -35 40.5t-14 20.5l-38 62q-7 11 -11 15l-6 8l-9 13q-8 11 -18 21t-17 14q-3 2 -8 5l-9 7q-5 5 -13 7q-25 2 -44 8q-6 2 -8 2l-4 -6q-3 -5 -4 -9q-2 -11 2 -35l7 -39
q6 -32 6 -53t-6 -38q-6 -22 -14 -37t-19 -31q-7 -9 -17.5 -19.5t-18.5 -14.5q-10 -4 -21 -2t-17 10t-5 19.5t11 31.5l6 14l-5 58q0 9 1 10.5t-0.5 4.5t0.5 7q0 1 -2 5v4q-4 5 -5 12l-2 17q-1 13 -14 36q-9 17 -16.5 34.5t-10.5 28.5q-3 8 -5.5 24t-4 33t-2.5 25t-5 21
q-1 4 -3 17l-5 30q0 7 -5 37.5t-22 56.5q-9 10 -22.5 20.5t-21.5 15.5l-28 17q-7 4 -13 8.5t-7 4.5l-4 -18q-4 -15 -7 -19q-4 -2 -16.5 2t-16 7t-2.5 6l5 27q6 31 9.5 50.5t8.5 57.5q12 96 22 144.5t26 97.5q2 5 8 5t15 -5q18 -9 28 -19q3 -7 -1 -24l-6 -18q0 -3 26 -19
l47 -31q9 -6 11 -6.5t13.5 -9t23.5 -18.5q10 -8 26.5 -20t28.5 -20l18 -11q15 -10 41 -22q11 -5 20.5 -10t24 -14.5t40 -23t73.5 -36.5l21 -11q19 -13 46 -22l23 -10l16 -2q3 -2 14 -2t23.5 0.5t40.5 -0.5h97q53 -2 73 -3t33 -5l22 -6q17 -4 26 -13q6 -7 8 -16.5t0 -17.5
q-3 -11 -15 -17q-10 -4 -25.5 -6.5t-26 -0.5t-30 1t-33.5 -4q-23 -6 -49 -4q-22 0 -47.5 -0.5t-35.5 -2.5q-24 -5 -17 -19q1 -5 8 -11t24 -16q11 -7 30.5 -16t30.5 -12l74 -33q22 -10 33 -13q25 -8 40.5 -13.5t29.5 -11.5l16 -8q19 -8 25.5 -14t9.5 -19q2 -7 2 -14
q0 -21 -22 -30q-9 -4 -18.5 -2.5t-26.5 8.5q-20 8 -41 15l-46 16q-14 4 -23 7l-16 4q-11 3 -17 4l-22 4q-14 2 -27 5q-10 3 -17 6l-23 9q-18 8 -32 13.5t-20 6.5q-2 0 -3.5 -4.5t0 -8.5t6.5 -8.5t10 -8.5l10 -8q7 -6 13 -10l19 -14l9 -6l48 -45q32 -33 47.5 -46.5
t33.5 -25.5l9 -6l30 -24l29 -25q11 -10 14.5 -23t-2.5 -26q-4 -7 -16.5 -13t-23.5 -6q-14 1 -29.5 9t-27.5 19l-43 33l-24 15l-14 8l-30 16q-21 11 -40.5 26.5t-31.5 30.5q-8 9 -21.5 23t-26 24t-15.5 8q-6 -4 -6 -17.5t6 -28.5q3 -6 9 -15l18 -24q15 -20 22 -33t10 -23
q2 -6 9 -16l8 -13q6 -10 19 -27l17 -24l14 -19q14 -18 26.5 -36.5t14.5 -25.5l1 -6q0 -5 -0.5 -12t-5.5 -13.5t-12 -9t-10.5 -3t-13.5 0.5zM739 5q18 10 16 28q-1 5 -5.5 12t-19.5 12q-6 2 -14 3.5t-12 -1.5q-7 -6 -6.5 -14t4.5 -18q5 -17 15.5 -22.5t21.5 0.5zM252 85
q12 5 25 14t15 14l4 9q3 7 2.5 10.5t-4.5 6.5q-6 6 -13 7.5t-10.5 -0.5t-8.5 -10l-6 -11q-5 -11 -8.5 -22.5t-3.5 -15.5q-1 -7 8 -2zM651 92q1 5 8.5 11.5t9.5 4.5t-4 -5q-8 -5 -11 -9t-3 -2zM901 137q6 1 14.5 5.5t11.5 8.5q10 11 4 29q-1 3 -2.5 3t-9.5 6q-18 12 -28 12
q-2 0 -4 -1l-4 -2q-8 -4 -9.5 -13t3.5 -20l13 -23q3 -4 3 -5.5t8 0.5zM574 183q1 6 10 12.5t12 4.5t-4 -5q-10 -3 -15 -10q-3 -5 -3 -2zM564 196q-1 4 6 10.5t15 9.5q6 2 6.5 0.5t-4.5 -4.5q-8 -3 -14 -7.5t-9 -8.5zM817 214q-1 4 2.5 11t6.5 7.5t0 -3.5zM275 216q-9 2 -8 4
l7 -1q5 -1 14 0h13q3 0 2.5 -1.5t-10 -2.5t-18.5 1zM268 228q-7 1 -8 3.5t2.5 1t11.5 -1t16 2.5q14 4 10 -2q-3 -3 -13.5 -4t-18.5 0zM710 295q0 8 6.5 15.5t7.5 3.5q1 -1 -2.5 -4.5t-6.5 -8t-5 -6.5zM695 300q-2 4 6.5 16.5t14 13t-2.5 -6t-14 -17.5zM464 353
q-11 11 -17 18t-10 13l-1 3q3 -2 8 -8l13 -15l17 -19q8 -9 5 -6zM996 352l6 6q6 20 4 28.5t-5.5 14t-8.5 5t-11.5 -1t-18 -2.5t-11.5 -15q0 -4 7 -14t10 -13l13 -10q7 -5 15 2zM899 399q-1 6 1.5 13t5.5 9t-1 -3.5t-5 -15.5q0 -7 -1 -3zM560 433q-9 6 -22 19t-11 12.5
t9 -7.5l17 -17q11 -10 7 -7zM774 441q-1 3 1 12.5t4 11t-1 -7.5q-3 -6 -3 -11t-1 -5zM765 449q1 5 4 12.5t5 8.5t-1 -4q-2 -3 -4 -8t-2 -7q-1 -5 -2 -2zM622 518q-9 5 -20 14t-9.5 8.5t5.5 -3.5l13 -10q7 -6 11 -8t3.5 -2t-3.5 1zM952 595q6 4 11 13t-1 23.5t-16 17.5
q-6 1 -27 -13q-8 -6 -9.5 -10.5t2.5 -11.5q11 -15 32 -22q2 -1 8 3zM784 616q-2 7 -3 15.5t0 7t2 -11.5t1.5 -12t-0.5 1zM618 621q-8 3 -16 7t-8 5l36 -17q-3 1 -12 5zM795 620l-2 10v8l2 -4v-8q1 -5 0 -6zM868 624q-2 11 -1 10.5t1 -5.5q0 -9 0 -5zM48 637q0 3 2 8l25 102
l35 171l17 62q2 11 2 17q-2 2 -15.5 11t-18.5 8q-7 -10 -19.5 -74.5t-21.5 -125t-13 -84t-10 -44.5l-7 -25q-4 -16 -3.5 -19.5t7.5 -7t14 -4.5q4 -1 4.5 -0.5t1.5 5.5zM330 362l8 -4q24 -12 43 -15l6 -1q4 -1 8 -1q5 0 8 -1q6 -3 0 3l-8 11l-7 12q-5 8 3 -2q13 -17 21 -25
t19 -15q28 -19 42 -42q4 -6 9 -11l6 -8l31 -46l23 -39q9 -15 23 -31q15 -17 38 -39q7 -6 15 -15l12 -13q3 -4 7 -10l5 -8q7 -10 18 -22l13 -14q5 -7 18 -14q14 -7 22 -8l-3 4q-11 13 -13 26q-3 14 1 22q9 12 37 2q10 -4 14 -9l5 -6q-2 7 -12 23q-11 16 -25 32l-11 13l-40 56
q-11 17 -16 26q-6 10 -8 18q-6 18 -37 57q-6 8 -12 17q-6 10 -9 17q-7 19 -5 33q3 14 12 14q7 -1 27 -19t36 -38q11 -13 33 -30q11 -9 19 -14t19 -11l57 -33q6 -3 14 -8q8 -6 16 -13l36 -28q9 -7 17 -11q9 -4 16 -5l8 -1l-7 14q-10 17 -11 26q-2 9 5 17q15 19 49 -6
q-4 8 -13 15l-40 34l-21 16q-19 13 -25 17q-7 6 -27 25q-21 20 -30 29l-7 8l-28 26q-7 6 -12 9l-52 40q-12 9 -16 16q-4 8 -1 15q1 6 5 6q5 0 17 -6l55 -22q37 -13 71 -17q9 -1 37 -9t43 -14l62 -24q30 -12 40 -7l-2 2q-3 1 -7 4l-7 7q-9 7 -14 17t-4 17q1 2 3 5q3 3 6 4
q3 2 20 4t18 1q0 3 -24 13l-17 8q-25 11 -65 23l-15 6l-21 8l-35 16q-17 9 -35 16q-35 13 -54 23q-20 10 -36 23q-2 1 -6 5q-5 5 -5 13q0 9 9 13q10 4 21 5l65 2h12q5 -1 11 -1q19 1 33 5t31 4q18 1 35 -1q25 -3 39 1q6 1 -2 3q-15 6 -24 16q-9 11 -5 20q3 5 12 11
q10 7 18 10q3 1 3 2q-2 1 -14 4q-13 4 -21 6l-8 1q-10 3 -29 3q-40 2 -103 2q-64 1 -114 0q-7 0 -23 2q-12 2 -17 3q-6 2 -13 5l-40 17q-4 2 -12 7t-16 9q-9 5 -20 10l-59 29q-15 8 -27 14t-23 14l-21 12q-10 6 -14 8q-8 3 -22 10t-21 11l-25 16l-29 21l-16 12l-28 22
q-4 3 -14 10l-20 11q-13 8 -29 19q-17 11 -28 20q-6 5 -6 4q-2 -4 -7 -28q-6 -24 -12 -54l-8 -41l-16 -74q-14 -61 -22 -83l-1 -4q1 -2 9 -8q9 -6 17 -10q27 -16 40 -27q14 -12 17 -14q6 -7 13 -16q7 -10 9 -15q9 -26 12 -51q4 -26 6 -41l4 -19q1 -7 5 -22q4 -17 7 -53
q1 -23 5 -36q4 -14 12 -31l28 -59q3 -9 4 -26q2 -11 4 -12l3 -2q-1 -1 -1 -3q-1 -2 0 -5q2 -3 1 -3q-3 -3 0 -7q4 -4 1 -5q-3 -2 -1 -17l2 -36q1 -8 2 -8q9 12 27 3t10 -24q-2 -4 -3 -8t-4 -6q-3 -3 -15 -11q-12 -9 -18 -12q-6 -4 -10 -5t-1 -6q4 -5 8 -7q4 -3 15 -4
q9 0 18 6q9 7 22 22q7 8 15 21q9 14 16 28q13 30 13 60q1 31 -11 90q-5 23 -4 35t7 21q4 4 -2 5q-10 4 -19 10t-3 4q5 -1 7 -3z" />
</svg>
