<?xml version="1.0" standalone="no"?>
<!DOCTYPE svg PUBLIC "-//W3C//DTD SVG 1.1//EN" "http://www.w3.org/Graphics/SVG/1.1/DTD/svg11.dtd" >
<svg xmlns="http://www.w3.org/2000/svg" xmlns:xlink="http://www.w3.org/1999/xlink" version="1.1" viewBox="-10 0 928 1024">
   <path fill="currentColor"
d="M429.281 315.515q-5.70605 0.298828 -11.7412 3.47656q-6.03223 3.17676 -16.0479 12.2881q-3.6543 3.05176 -14.8203 8.40723l-12.9688 7.35547q-12.0176 7.30664 -49.0156 11.1543q-13.3164 0.697266 -17.0234 2.80078q-3.70312 2.10156 -1.55273 6.75586
q0.0498047 0.952148 -0.750977 3.85645q-3.40625 7.80957 -2.45703 16.8213q0.948242 9.01074 4.55078 14.0693q3.60645 5.05762 11.9883 10.3389q8.38574 5.28516 12.1904 5.08691q0.952148 -0.0507812 0.5 0.450195q-0.450195 0.500977 -17.4727 3.2998
q-12.3154 1.59961 -21.2783 3.49902q-8.96191 1.90039 -17.373 5.20508l-32.8936 9.35449q-27.1875 9.05469 -40.7812 13.584q-13.5947 4.52637 -22.8574 9.78027q-20.4287 10.6104 -34.5967 13.2588q-10.3643 2.45117 -23.3818 8.85742l-15.8721 6.55566
q-23.3828 8.85449 -33.248 20.8203l-4.45703 5.9541q-11.8184 11.1123 -6.11523 28.9375q6.85449 21.5781 11.8105 25.1338l1.95215 0.852539l-5.65625 1.25098q-15.2207 0.796875 -22.707 3.57422q-7.48438 2.77637 -17.1221 9.95801q-9.6416 7.18262 -13.0977 14.04
q-3.4541 6.85938 -2.85645 18.2734l2.25 6.55762q1.25391 5.65918 6.35547 12.0674q2.9541 1.75195 7.85938 4.35938l8.81152 4.30664q9.66211 2.35449 29.1865 1.80957q19.5254 -0.547852 36.498 -4.29883q19.8779 -2.94824 47.5625 -2.49219l47.6113 -1.54199
l-3.75391 1.15137q-23.332 9.80566 -35.0986 12.8086q-11.7656 3.00098 -26.9863 3.79785l-51.168 6.49902q-7.60938 0.398438 -11.8398 1.57227q-4.23047 1.17676 -9.83887 3.37891q-26.2363 9.00586 -28.6172 27.2529q-2.38281 18.248 7.20215 28.2373
q9.58594 9.99121 33.666 14.4521l17.3213 2.9082q7.70801 1.50293 12.0146 1.75586q4.30664 0.249023 9.96387 -1.00195l17.9736 -2.84766q5.70801 -0.298828 12.2646 -2.55176l1.20215 4.70703q0.547852 10.4619 2.7998 17.0225q2.25195 6.55762 8.20801 11.0156
q7.9082 5.30762 13.3145 8.36328q5.40723 3.05469 14.0693 4.50977l9.66211 2.35449q6.75684 1.55566 18.6973 1.88184q11.9404 0.328125 25.207 -1.32227l16.1211 -1.7959q5.65918 -1.25 6.66016 -0.349609q2.95312 1.75293 15.418 3.00781l15.3213 1.10547
l17.1709 0.0527344q7.66016 0.551758 22.8301 -1.19629l9.46191 -1.45117q0.952148 -0.0488281 1.90234 -0.0996094l3.75488 -1.14941q2.85352 -0.150391 6.65918 -0.349609l32.4414 0.208008l15.2705 0.15332q5.75781 0.651367 13.3662 0.25293l5.70801 -0.298828
l1.95215 0.851562q3.00391 2.7041 9.83691 5.68555q6.83301 2.97949 23.2783 7.36426q16.4453 4.38379 27.1064 7.64062l19.2773 3.75977q9.66113 2.35352 39.4482 6.5166q29.7881 4.16113 58.4736 5.52051q6.70898 0.601562 15.3193 1.10449
q28.7871 3.25977 39.1514 0.808594q2.80273 -1.10059 14.2178 -1.69824l9.46289 -1.45117l16.9717 -3.75q4.70898 -1.2002 8.46289 -2.35059l8.41016 -3.30176l29.1904 -7.25293l35.8477 -7.60254q13.2666 -1.64746 29.9385 -2.0459q16.6719 -0.396484 20.627 2.25879
l1.44824 9.46191q2.09863 21.8281 4.89941 38.8496l2.5498 12.2666l7.65918 0.552734q10.5625 1.35449 25.8828 2.45898q15.3203 1.10547 17.5996 -0.921875q2.27832 -2.02734 1.17773 -4.83203q-5.10156 -24.5322 -10.7227 -77.1748q-5.62012 -52.6455 -6.96191 -96.4502
q-1.74219 -51.418 1.24902 -103.558q2.99121 -52.1445 11.3662 -128.891l1.95898 -17.2734q-0.199219 -3.80469 -1.2002 -4.70508q-4.95605 -3.55566 -6.30957 7.00781q-6.56641 38.4971 -10.5088 90.6895q-3.94141 52.1914 -4.2041 101.805
q-0.564453 62.0303 5.10449 124.687q5.66699 62.6582 15.2734 100.308l1.19922 4.70703l-45.7578 0.492188l-2.64941 -32.2949l-4.39355 -47.4619q-5.19141 -62.6807 -5.32812 -128.967q-0.135742 -66.2852 4.93555 -133.32l8.43359 -93.9199
q0.600586 -6.70801 0.651367 -5.75684l3.85547 0.751953q6.80762 2.50391 20.8252 6.06152q14.0166 3.55859 16.3955 3.43359q2.37695 -0.124023 1.82715 -1.52637q-0.549805 -1.40332 -5.35645 -2.10449l-35.7441 -8.62012q-2.9043 -0.799805 -2.95215 -1.75195
q-2.95508 -1.75293 -4.28125 0.223633q-1.3291 1.97754 -3.45996 15.9209q-2.12988 13.9424 -3.83594 35.9717l-1.95801 17.2715l-5.90723 -3.50684q-7.8584 -4.35742 -21.7734 -15.0742l-29.9824 -26.0898l-20.875 -16.0752l-52.1562 -48.7764l-17.918 -14.3213
l-18.873 -14.2725q-11.9131 -8.91504 -25.4541 -12.498q-13.543 -3.58203 -39.3242 -4.1377l-37.248 -0.910156l-52.668 -3.91602l-32.6914 -4.96582q-4.80469 -0.700195 -9.56152 -0.450195q-8.56055 0.448242 -15.1191 2.69922q-1.9043 0.0996094 -1.00293 -0.902344
q-0.199219 -3.80371 -14.418 -2.10449zM439.896 317.819q1.00098 0.901367 1.95312 0.851562l-2.75488 2.05078q-3.70508 2.10352 -2.72949 2.5293q0.976562 0.424805 2.83008 -0.625q12.0664 -6.35547 36.0977 -2.84668q15.416 3.00781 21.1748 3.66016l61.2275 3.4668
l37.2979 1.8623q12.417 0.302734 24.9072 2.0332q12.4902 1.72949 19.2988 4.23535q3.90625 1.70215 8.86133 5.25879l18.7705 12.3691l23.9268 19.7305l52.207 49.7256l11.9121 8.91504l21.9756 18.8789q22.0225 19.8301 40.6953 30.2969l5.90625 3.50684
q1.00098 0.901367 1.04883 1.85254q-1.50195 7.71094 -2.91016 35.4463l-2.16406 49.7119q-2.01562 52.5684 -1.07324 106.889q0.9375 54.3193 5.28418 100.832q1.44824 9.46191 1.07227 11.3887q-0.374023 1.92773 -3.32812 0.173828q-22.1289 -3.6084 -55.123 3.84375
l-47.1621 10.1016q-11.2676 3.45312 -19.6777 6.75293q-3.75391 1.15332 -9.41113 2.40332l-10.3643 2.45117q-2.85449 0.149414 -16.1709 0.84668l-11.3662 1.5498l-7.55859 1.35156q-5.66016 1.24902 -21.9805 -0.756836l-22.0254 -1.70605
q-46.8115 -1.36426 -71.8438 -5.77441q-25.0303 -4.41211 -27.9844 -6.16504l-62.8271 -15.7842q-14.5176 -4.00781 -15.5449 -5.38477q-1.02344 -1.37695 -2.00098 -1.80273q-0.976562 -0.425781 -6.20801 -0.152344q-5.23145 0.275391 -14.7939 -0.176758
q-16.2695 -1.05664 -30.541 -0.308594l-29.5879 -0.355469q-1.90137 0.0996094 -2.80273 1.09766q-4.70605 1.20312 -26.1094 2.32422q-21.4014 1.12109 -26.2578 -0.53125l-9.51465 0.499023q-4.80371 -0.702148 -7.23242 -1.53125q-2.42871 -0.825195 -7.20898 -1.05078
q-4.78223 -0.227539 -15.2451 0.321289q-23.7285 2.19727 -34.2197 2.27051q-10.4883 0.0722656 -18.2471 -2.38281l-9.66211 -2.35449q-11.5137 -1.30371 -17.4717 -5.76172l-6.95703 -5.3584l-4.95605 -3.55664q-4.10352 -5.50781 -4.90234 -20.7275
q-1.44922 -9.46191 0.705078 -13.8682q2.15332 -4.40332 10.5137 -8.65723q2.80566 -1.10156 6.08398 -2.22852q3.2793 -1.12207 10.8906 -1.52148l12.3164 -1.60059q5.65723 -1.25098 13.291 -1.1748q7.63672 0.078125 10.4902 -0.0712891
q6.75684 1.55078 21.9756 0.754883q15.2207 -0.798828 24.1836 -2.69727q8.96094 -1.90137 14.6436 -2.67578q5.68359 -0.774414 15.1963 -1.27344l12.3652 -0.648438l8.56055 -0.448242q7.66016 0.551758 16.2217 0.104492l7.61133 -0.399414l5.60742 -2.20117
q5.60645 -2.20117 12.1895 -3.97754q6.58594 -1.77637 13.2432 -2.125l11.3145 -2.50098q5.65918 -1.24902 7.48633 -2.77637q1.82715 -1.52637 -5.7334 -0.177734l-13.2676 1.65137q-15.1191 2.69922 -26.3838 6.15137q-8.41211 3.30078 -24.6826 2.24707
q-26.7842 -1.45703 -59.7295 6.94629q-5.70703 0.298828 -19.501 1.02148q-13.792 0.72168 -21.5 -0.78125q-4.75781 0.249023 -10.4902 0.0742188q-5.73242 -0.175781 -10.4385 1.02246l-20.8271 2.99902q-9.46289 1.4502 -17.2734 7.10547
q-7.81152 5.65625 -9.36621 12.4141l-3.75391 1.15137q-2.80469 1.10059 -5.65625 1.25l-20.8301 2.99707q-9.46191 1.45117 -21.0273 -0.803711l-8.70996 -2.40527l-10.5615 -1.35352q-37.4492 -4.71484 -38.6465 -27.543q-0.646484 -12.3682 4.21191 -19.7764
q4.85742 -7.40625 16.9736 -12.8135q6.55762 -2.24902 13.1436 -4.02539q6.58301 -1.77637 17.0469 -2.32422l48.3145 -6.34766q16.1699 -0.847656 27.9111 -4.32422q11.7422 -3.47656 35.0732 -13.2852q5.6084 -2.20117 9.83789 -3.37695
q4.23145 -1.17773 10.8906 -1.52637l30.4395 -1.59473l25.6328 -2.29688l29.29 -5.34961l36.6982 -9.55469q17.9248 -3.80176 12.9697 -7.35742q-1.00195 -0.899414 -35.8477 7.60352q-16.0215 3.70117 -32.0938 6.45215l-12.2666 2.5498q-15.1191 2.69922 -57.9258 4.94336
q-42.8057 2.24219 -62.8809 1.3877q-11.4658 -0.354492 -25.2314 0.844727q-13.7695 1.19922 -23.2334 2.64844q-17.8721 4.75195 -33.543 6.05176q-15.6719 1.29785 -23.9072 -1.13379q-8.23438 -2.42969 -14.6406 -6.38574q-6.4082 -3.95703 -10.4873 -8.98828
q-4.07715 -5.03223 -2.69824 -15.1211q1.37598 -10.0869 5.83398 -16.0439q2.70508 -3.00293 8.21289 -7.10742t11.0654 -7.25586q5.55859 -3.15332 14.9951 -5.08105q9.4375 -1.92188 26.5605 -2.81934q13.3184 -0.699219 14.2432 -1.22461
q0.925781 -0.527344 3.78027 -0.676758q6.65918 -0.348633 23.5811 -5.0498l16.0225 -3.7002l10.3135 -3.40332q3.70508 -2.10254 17.876 -4.75098q14.167 -2.65137 31.1895 -5.45215l103.236 -13.9922l55.7734 -9.60156q3.75488 -1.15039 3.70605 -2.10254
q1.65332 -4.85547 -8.71191 -2.40332l-22.7275 3.09766l-29.2402 6.30176l-33.1445 4.59863l-70.041 10.3486q-17.9746 2.84668 -34.498 6.09766q-16.5205 3.25195 -41.9053 10.3057q-12.2656 2.55078 -19.8008 4.375q-7.53613 1.82617 -14.1943 2.1748l-8.56152 0.449219
l-2.95215 -1.75391q-3.9043 -1.70215 -6.58301 -7.28418q-2.67773 -5.58496 -7.17871 -18.7002q-4.50488 -13.1211 7.16406 -27.084q15.373 -16.0684 33.1973 -21.7715q7.45898 -3.25098 18.626 -8.60645q11.165 -5.35352 24.3838 -7.95508q5.6582 -1.25 12.668 -4
q7.00879 -2.75391 20.0781 -8.20801q23.2305 -11.7109 78.6553 -27.9678l14.1211 -3.60254q9.36133 -3.35254 17.3721 -5.20312t17.4746 -3.2998l32.1914 -4.5498q2.85254 -0.148438 3.80566 -0.199219l11.6152 3.20703q21.374 7.46484 35.2666 8.64355
q13.8926 1.18066 38.5752 -1.06738q11.416 -0.598633 11.915 -0.147461q0.500977 0.451172 1.90332 -0.0996094q1.40039 -0.550781 7.10742 -0.849609q5.70996 -0.299805 6.63574 -0.824219q0.925781 -0.525391 5.68262 -0.774414l5.70703 -0.298828l6.80859 2.50293
q25.2803 9.16895 49.1113 8.87305q5.75684 0.65332 8.10938 0.0527344q2.35254 -0.599609 7.00977 -2.75293q6.50977 -3.2002 5.00879 -4.55273q-1.50293 -1.35449 -9.91406 1.9502q-15.0693 3.65039 -41.1533 -2.61328q-26.082 -6.26562 -38.0938 -17.082
q-5.00586 -4.50586 -8.25977 -11.9668q-3.25098 -7.45898 -3.5 -12.2178q-0.398438 -7.6084 -1.42676 0.0771484q-1.0293 7.68262 5.77832 19.25q6.80469 11.5664 14.6641 15.9219q4.80566 0.705078 -8.51074 1.40234l-42.8545 1.29102q-11.3652 1.55176 -19.0508 0.522461
q-7.68262 -1.02832 -27.0088 -5.73828q-13.5166 -3.1084 -13.5674 -4.05957q-0.0488281 -0.949219 -6.80762 -2.50391q-25.0811 -5.3623 -34.7168 -16.3047q-9.63477 -10.9395 -4.82422 -28.3623l0.851562 -1.9502l4.75684 -0.25q4.80762 0.700195 12.3662 -0.649414
l13.2178 -2.59961q15.1191 -2.7002 21.6523 -5.42676q6.53613 -2.72754 9.14062 -7.63281q0.799805 -2.90332 1.75293 -2.95312l26.9375 -13.8125q3.7041 -2.10254 9.16211 -7.15625q8.26367 -6.15625 11.9443 -8.73535q3.67871 -2.57715 7.45898 -3.25293
q3.78027 -0.673828 8.06152 -0.899414q4.28027 -0.224609 6.18262 -0.323242zM366.442 354.101q-0.901367 1.00098 -2.75488 2.05176l-4.60742 3.10254q-4.60449 3.10352 -20.6768 5.85449l-16.0703 2.74707l-13.2188 2.60254l-1.05078 -1.85449
q-1.15039 -3.75293 2.58008 -5.38086q3.72949 -1.62598 16.0957 -2.27441q8.55957 -0.446289 21.7803 -3.04883q4.75488 -0.248047 10.3613 -2.44922l6.60938 -1.30078q0.90332 -1.00293 0.952148 -0.0498047zM533.337 444.554q0.199219 3.80664 3.25195 7.46094
l1.00195 0.902344l-1.80371 2.00195q-1.80176 2.00098 -5.35645 6.95605q-3.55566 4.95605 -5.21094 9.81152q-1.65332 4.85547 -0.827148 11.4912q0.825195 6.63184 2.2002 5.60742q1.37891 -1.02734 1.05469 -7.20996q-0.324219 -6.18164 0.477539 -9.08691
q0.800781 -2.90137 4.30762 -8.80957q5.25879 -8.85938 8.1123 -9.00781q2.85352 -0.151367 -0.649414 -3.30566q-3.50586 -3.15625 -4.70605 -7.86133q-1.19922 -4.70703 -1.85254 1.0498zM372.827 457.736q-4.10742 12.6123 -6.21484 27.0322
q-2.10547 14.417 -0.652344 14.8203q1.45117 0.400391 1.15234 -5.30762q0.303711 -12.416 5.86426 -33.6914l1.60254 -5.80859q-1 -0.899414 -1.75195 2.95508zM248.013 478.585q-0.853516 1.95117 -0.479492 9.08594q0.374023 7.13379 1.37598 8.03516
q1.00098 0.902344 0.551758 -7.65918l-0.448242 -8.56055q-0.0986328 -1.90332 -1 -0.901367zM155.084 507.3q0.0996094 1.90234 1.35156 7.56055q1.25195 5.65625 2.87598 9.38672q1.62695 3.73145 0.526367 0.928711q-1.30176 -6.60938 -2.62402 -13.6943
q-1.32617 -7.08398 -2.12988 -4.18164zM529.258 548.737q2.25293 6.55957 26.9043 31.0205q24.6504 24.4629 40.5684 36.9834q10.9141 8.01074 20.6982 12.7471q9.78711 4.73145 10.6641 3.25391q0.875977 -1.47559 -0.124023 -2.37793l-5.8584 -2.55371
q-12.7139 -6.01172 -24.1523 -14.9512q-11.4375 -8.93945 -31.5068 -27.916l-25.1289 -24.4375q-6.05664 -6.36133 -9.13281 -10.4912q-3.08203 -4.13086 -2.93164 -1.27734zM497.918 551.334q0.0996094 1.90137 5.45312 13.0684q21.1201 38.9551 32.0273 65.0908
q10.9092 26.1357 13.709 43.1582q0.349609 6.65918 3.22754 6.98438q2.87793 0.327148 0.226562 -13.8408q-3.75 -16.9746 -14.5332 -40.7324q-10.7842 -23.7578 -29.751 -58.0566l-8.40723 -14.8213q-3.05371 -3.65527 -1.95215 -0.850586zM353.38 559.863
q-0.802734 2.90332 -0.40332 10.5127q0.399414 7.61133 1.17383 13.293t2.92578 10.3379q2.15137 4.6582 2.62793 4.63281q0.475586 -0.0244141 0.424805 -0.976562q-3.25098 -7.46094 -5.27539 -18.7988q-2.02539 -11.3408 -0.522461 -19.0508
q-0.0488281 -0.951172 -0.951172 0.0498047zM225.311 573.251q-0.800781 2.9043 -0.0507812 8.11035q0.749023 5.20801 1.25 5.6582t1.40234 -0.548828l-0.399414 -7.61035q-1.49902 -10.416 -2.20215 -5.60938zM121.224 589.198q0.0996094 1.90332 0.473633 9.03711
q0.375 7.13477 1.87695 8.48633q1.49902 1.35352 1.2002 -4.35547l-1.39941 -8.51074q-0.349609 -6.65918 -2.15137 -4.65723zM485.092 597.791q0.0498047 0.950195 3.25098 7.46094q5.20605 8.30957 7.05664 16.3223q1.84961 8.00977 2.44824 19.4258
q0.349609 6.65918 0.649414 12.3652l-0.908203 19.125q-3.25879 28.7861 -2.7373 47.835q0.519531 19.0508 3.27539 16.998q0.950195 -0.0498047 0.850586 -1.95215l-0.498047 -9.5127q-0.648438 -12.3652 0.130859 -24.8047q0.779297 -12.4424 2.23438 -30.1641
q1.45605 -17.7236 0.857422 -29.1387q-0.598633 -11.4141 -4 -21.7295q-2.34961 -8.45996 -6.55469 -15.8711q-4.20312 -7.41016 -6.05566 -6.35938zM367.278 643.074q-0.75 3.85352 1.34766 16.6201q2.10156 12.7676 3.62695 14.5947q1.52734 1.82812 -0.673828 -3.78027
q-2.30176 -7.50879 -4.00098 -21.7275q-0.349609 -6.66016 -0.299805 -5.70703zM253.529 656.665q0.149414 2.85254 0.924805 8.53613t2.27637 7.03516q1.50195 1.35254 0.200195 -5.25684l-1.39941 -8.51074q-1.2998 -6.6084 -2.00195 -1.80371zM146.986 680.373
q0.0498047 0.950195 0.273438 5.23047q0.224609 4.28027 0.275391 5.23242q2.10156 3.70508 1.60352 -5.80664q-0.499023 -9.51172 -2.15234 -4.65625zM323.153 729.323q-2.45508 7.75977 -1.42969 18.1992q1.02148 10.4375 2.97559 11.291
q1.95117 0.850586 0.300781 -3.35449q-1.65234 -4.20605 -1.57422 -11.8408q0.0771484 -7.63477 0.828125 -11.4893l0.751953 -3.85352q-1.00098 -0.90332 -1.85254 1.04785zM400.152 724.336q0.149414 2.85449 3.72754 16.498q3.57617 13.6416 5.67676 17.3467
q2.00293 1.80469 -0.149414 -2.85352l-2.4502 -10.3633l-3.55078 -13.1689q-2.4502 -10.3633 -3.25391 -7.45898zM259.57 735.519q-0.802734 2.90137 -0.40332 10.5137q0.399414 7.60938 1.42383 8.9873q1.02539 1.37695 0.925781 -0.527344l0.455078 -9.56055
q-0.698242 -13.3174 -2.40137 -9.41309z" />
</svg>
