<?xml version="1.0" standalone="no"?>
<!DOCTYPE svg PUBLIC "-//W3C//DTD SVG 1.1//EN" "http://www.w3.org/Graphics/SVG/1.1/DTD/svg11.dtd" >
<svg xmlns="http://www.w3.org/2000/svg" xmlns:xlink="http://www.w3.org/1999/xlink" version="1.1" viewBox="-10 0 1052 1024">
   <path fill="currentColor"
d="M493.919 310.64q-2.16016 1.08105 -74.5732 1.08105h-71.335l-7.56445 1.08008q-7.56543 2.16016 -15.1318 4.86328q-7.56445 2.70117 -10.8096 4.86328l-6.4834 4.32227q-11.8896 6.48633 -24.8584 16.2139l-70.251 51.8779q-7.56738 5.40527 -11.8877 8.64453
l-10.8096 9.72949l-12.9697 8.64453q-12.9688 9.72656 -28.1016 24.3193q-15.1299 14.5908 -21.6152 18.374q-6.48535 3.78125 -25.9385 7.02441l-19.4541 4.32324l-1.08105 -27.0205v-28.6406q0 -8.10742 -1.62109 -11.8896q-1.62109 -3.7832 -2.70215 -4.32129
q-1.08203 -0.542969 -6.48633 1.62109l-38.9082 12.9688q-7.56445 3.24121 -6.48438 4.32324q-1.08008 4.32324 -1.08008 31.3418l2.16113 119.97q1.08105 48.6357 3.24316 78.8984q2.16016 30.2637 9.72754 75.6572l5.40234 39.9893q5.4043 36.7461 10.2686 61.0645
q4.8623 24.3164 8.10645 25.3975l3.24316 -2.16113q3.24023 -2.16016 12.9678 -5.94434q9.72656 -3.78223 15.1309 -4.86426q9.72754 -2.16016 9.72754 -4.32227l-2.16113 -33.5068q0 -2.15918 2.16113 -2.7002q2.16211 -0.539062 11.8906 -0.539062
q18.3721 0 34.0439 1.08008t32.9639 5.40332l56.2002 11.8896l25.9404 4.32324l42.1504 6.48535q19.4551 2.16016 30.2637 3.24023l25.9385 1.08301q28.1016 2.16016 58.3633 1.0791l62.6865 -1.0791q5.4043 -1.08301 10.8066 -2.16309l32.4258 -5.40527h36.7461
q27.0205 -1.08008 36.208 -0.538086q9.18555 0.538086 27.5586 3.7832q12.9707 1.08105 28.6416 0.539062q15.6729 -0.539062 37.2871 -2.70117l41.0713 -5.40527q8.64648 0 15.1309 -1.08105l11.8896 -3.24121q17.292 -4.32324 30.2627 -9.72852
q12.9697 -5.40332 19.4551 -9.72656q11.8867 -7.56543 15.1289 -18.9131t3.24219 -12.4287l10.8096 1.08105l59.4434 4.32227q6.48438 0 14.0508 1.08008q38.9082 7.56738 59.4434 -20.5332l3.24219 -5.40527q2.16211 -3.24219 3.78223 -9.18652
q1.62207 -5.94434 2.16211 -11.3496q0.541016 -5.40234 -0.540039 -7.56543q-2.16211 -10.8076 -14.0518 -18.3721q-7.56543 -5.40527 -14.0498 -8.10645q-6.48438 -2.70312 -17.293 -5.4043q-10.8066 -2.70117 -27.5596 -4.8623q-16.752 -2.16211 -44.8525 -5.4043
q-5.40527 0 -11.8906 -1.62109q-6.4834 -1.62207 -11.8867 -3.7832l-4.32324 -1.08301l17.291 2.16309q24.8604 4.32422 59.9844 8.64551q35.1279 4.32227 51.8789 5.94531q16.7529 1.62109 24.8584 -2.16113q8.10645 -3.78418 19.9951 -17.835
q5.4043 -6.4834 8.10645 -14.0498q2.7002 -7.56543 1.08008 -14.0508q-1.62207 -6.48438 -7.56445 -12.4277q-5.94531 -5.94531 -23.2383 -16.7529q-9.72656 -5.4043 -23.2373 -11.8877q-13.5107 -6.48438 -17.833 -7.56641v-0.540039v-0.542969
q5.4043 1.08301 11.8916 -6.48242q6.48242 -7.56543 8.64258 -16.2119q0 -5.40527 -4.32227 -15.1328q-4.32031 -9.72559 -12.9697 -20.5332q-4.32227 -6.48438 -12.4297 -11.3496q-8.10449 -4.8623 -24.3164 -10.2676l-20.5361 -7.56543
q-7.56543 -4.32227 -16.752 -7.56543q-9.1875 -3.24219 -14.5918 -3.78223q-5.40234 -0.541016 -12.9678 -3.78418q-7.56543 -3.24219 -18.915 -9.18555q-11.3486 -5.94531 -25.3975 -11.3477q-14.0508 -5.40527 -21.6162 -7.56641l-29.1846 -7.56543
q-7.56348 -2.16211 -15.6699 -3.7832q-8.10449 -1.62012 -17.835 -3.78223l-44.3105 -11.8896q-17.293 -4.32227 -29.1807 -6.48438l-23.7793 -3.24219q-10.8076 -1.08203 -22.6963 -3.24121l-3.24316 -1.08203l9.72754 -2.16211q7.56641 -3.24121 11.8887 -5.40332
l35.668 -16.2119q4.32227 -1.08105 12.4297 -9.72754q8.10547 -8.64648 13.5098 -21.0752q5.40234 -12.4297 4.8623 -24.3174q-0.539062 -11.8896 -1.62207 -12.9717q-2.16016 -5.40137 -3.24023 -6.48438l-3.24316 -2.16211q-1.08105 -1.0791 -4.32422 -1.0791
l-67.0068 5.40332q-3.24512 0 -12.9707 -2.16211q-14.0518 -3.24121 -51.8779 -7.02539q-37.8291 -3.78223 -47.5566 -2.7002zM394.484 316.042q7.56738 1.08203 17.2939 1.08203h16.2119h18.374l68.0889 2.16113l47.5576 4.32422q10.8076 1.08105 19.9961 2.7002
q9.18457 1.62207 12.4277 2.70312q3.24023 1.08105 4.32129 2.16016l1.08105 1.08301l1.08105 6.48535q0 7.56348 3.78223 12.4277q3.78418 4.86328 12.9707 9.18652q9.1875 4.32227 21.6162 4.32227t19.9941 -4.32227l8.64551 -5.40332q3.24414 -2.16113 7.02539 -5.94336
q3.7832 -3.78613 3.7832 -4.86426q0 -1.08105 0.542969 -0.541016q0.538086 0.541016 0.538086 4.8623l-1.08105 7.56641q-1.08008 3.24219 -2.16113 5.40625l-3.24316 5.40234q-5.4043 12.9688 -17.292 21.0742q-11.8877 8.10742 -32.4248 13.5098l-21.6143 7.56836
q-9.72852 5.40332 -16.2129 5.94336q-6.48535 0.540039 -19.4541 -2.7041q-25.9395 -6.48242 -49.7148 -14.5889q-23.7793 -8.10547 -50.8008 -19.9941q-51.877 -22.6973 -103.755 -22.6973q-9.72754 1.08008 -12.9697 1.62109q-3.24316 0.541016 -3.24316 1.62109
q-2.16113 4.32324 5.40625 4.32324q23.7773 -3.24316 55.6592 2.16016q31.8848 5.40332 58.9023 17.2949q27.0215 11.8877 35.667 15.1289l9.72754 3.24512q9.72754 5.40332 23.2363 9.18555q13.5117 3.7832 27.5625 7.02441l10.8076 3.24414l48.6357 8.64551
q11.8896 2.16211 29.1807 5.40527l10.8086 2.15918l57.2812 15.1289l19.4561 4.3252q8.64551 2.16211 19.4531 4.86523q10.8086 2.70117 16.2129 3.78125q18.374 3.24414 49.7158 19.4561q16.2129 8.64551 23.2363 11.3467q7.02539 2.7041 12.4297 3.78418
q5.40527 1.08008 14.0498 3.78223q8.64746 2.70117 16.2139 5.94531l21.6152 8.64648q19.4551 6.48438 27.0195 11.8877q7.56543 5.40234 15.1318 17.2939q3.24121 4.32324 4.86328 8.10449q1.62402 3.78418 2.70117 8.10547l1.08105 4.32324l-3.23926 6.48438
q-3.24316 5.40527 -5.40625 7.56738q-2.16211 2.16113 -5.4043 4.32227q-3.24121 2.16211 -6.4834 2.16211l-3.24414 1.08105q-2.16113 0 -13.5098 -2.70312q-11.3477 -2.70117 -20.5352 -4.32324q-9.18652 -1.62012 -21.0762 -2.70117q-8.64453 0 -21.6133 -2.70215
q-12.9727 -2.70312 -27.0234 -7.02539l-37.8271 -8.64551l-38.9082 -7.56738q-21.6162 -3.24219 -44.3125 -5.40234q-22.6963 -2.16211 -48.0938 -6.4873q-25.4004 -4.32129 -38.3691 -8.64355l-19.4561 -7.56641l-10.8066 -4.32422q-5.4043 -2.16016 -5.94531 0
q-0.540039 2.16309 7.02441 5.40625q7.56836 3.24121 24.8604 10.8066q15.1299 5.40527 41.6094 9.72852q26.4805 4.32324 52.4189 6.48242l17.2949 2.16309l17.291 3.24316l63.7656 11.8867l56.2021 15.1318l37.8291 4.32324q6.4834 1.0791 16.2119 3.24414
l16.2129 4.32227q14.0508 3.24219 35.665 14.5908q21.6162 11.3477 31.3447 22.1553q7.56445 7.56641 4.32129 18.9141q-3.24316 11.3496 -16.2119 22.1572q-5.4043 4.32227 -11.3477 5.94238q-5.94434 1.62207 -17.832 0.542969q-17.2949 -1.08203 -55.6631 -5.94629
q-38.3691 -4.8623 -58.9043 -8.10547l-19.4531 -3.24121q-16.2119 -1.08105 -31.8838 -3.7832q-15.6719 -2.70312 -32.9639 -7.02539q-12.9688 -3.24316 -25.9395 -4.32422l-23.7783 -3.24023q-31.3428 -4.32422 -62.1455 -3.78516q-30.8018 0.541016 -54.5791 5.94531
l-18.375 4.32422q-11.8887 2.16016 -11.8887 3.78125t11.8887 -0.539062l18.375 -3.24219q51.8779 -9.72852 119.969 0l25.9385 3.24219l63.7686 12.9678q4.32129 1.08203 18.3711 6.48633q14.0508 5.40332 24.3193 7.56445q10.2676 2.16211 34.0459 4.32227
l21.6152 2.16309q14.0488 2.16113 26.4785 5.4043q12.4307 3.24316 18.916 6.48535q6.48242 3.24219 11.3467 7.02441q4.86426 3.78418 5.94434 4.32227q1.08105 0.541992 4.8623 6.48633q3.78418 5.94336 -2.16113 22.1562q-5.94238 16.21 -18.9141 23.2354
q-12.9697 7.02637 -23.7773 8.10742h-7.56445l-19.4551 -3.24121l-63.7656 -4.32324l-39.9912 -6.48633l-36.748 -5.4043q-23.7744 -2.16113 -34.0439 -3.78125q-10.2695 -1.62207 -24.3184 -5.94531q-18.373 -4.32324 -30.8008 -5.94434
q-12.4297 -1.62207 -29.7227 -1.62207q-12.9688 0 -20.5352 1.08105l-32.4238 3.24316q-31.3428 3.24219 -36.748 7.56543q-1.08008 2.16211 1.08203 2.16211l9.72559 -2.16211q5.40527 -1.08203 11.8887 -2.16113l28.1006 -3.24219q30.2627 -3.24316 51.3389 -2.16211
q21.0752 1.08105 44.8545 7.56543q16.2119 4.32227 30.8008 6.48633q14.5908 2.15918 45.9355 5.40234l11.8887 2.16309q1.08105 0 0 2.16016q-4.3252 6.48438 -3.24219 17.293q1.08008 10.8076 6.4834 15.1328q5.4043 4.32129 1.08008 0q-4.32129 -4.3252 -4.8623 -13.5117
q-0.540039 -9.18652 1.62207 -15.6709l1.08008 -2.16113q0 -1.08203 1.08008 -1.62109q1.08008 -0.540039 0.541016 -1.08301l-0.541016 -0.538086l30.2637 5.40332v2.16211q1.0791 1.0791 0 3.24121l-3.24219 6.48633q-5.40527 11.8867 -16.2139 19.4531
q-4.32324 3.24316 -9.72754 5.40332q-5.40234 2.16211 -20.5332 6.48535l-11.8887 3.24121q-7.56641 3.24316 -12.4297 4.3252q-4.86426 1.08008 -11.3486 1.08008q-15.1328 0 -29.1816 2.16309q-36.7461 5.40137 -55.6621 5.94336q-18.9131 0.538086 -47.0137 -3.78418
q-19.4551 -2.15918 -54.5811 -1.62012q-35.125 0.539062 -54.5801 3.7832q-14.0488 2.15918 -34.585 3.24219l-20.5352 1.0791q-9.72852 1.08301 -31.8838 0.541992q-22.1562 -0.541992 -37.2861 -1.62109l-29.1836 -2.16309q-15.1309 -1.0791 -37.2871 -2.70117
q-22.1582 -1.62207 -43.7725 -4.86328l-19.4551 -3.24316l-81.0586 -17.292l-10.8096 -1.08105q-18.373 -1.0791 -29.7197 -1.0791h-19.9961l-2.16113 1.0791l-8.64746 -58.3633q-7.56445 -56.2021 -10.8066 -118.889q-3.24316 -62.6855 -1.08105 -123.21v-16.2129
q1.08105 -3.24121 3.24219 -2.16016l37.8281 -6.48535q4.32227 -1.08105 7.56641 -2.70312q3.24121 -1.61914 10.2656 -7.56445q7.02734 -5.94531 13.5098 -11.8887q6.48535 -5.94531 14.5908 -12.9707q8.1084 -7.02344 14.5918 -10.2666l14.0518 -10.8076l20.5342 -16.2129
l45.3926 -32.4229l25.9395 -21.6182q7.56445 -5.40137 17.293 -11.3467q9.72656 -5.94434 15.6709 -9.18555q5.94531 -3.24219 14.0508 -5.40527q8.10645 -2.16113 15.6738 -3.24316h16.209h27.0195zM675.494 324.69q0 1.0791 2.16113 5.40332l2.16113 6.48535
q0 2.16211 -3.78125 7.02441q-3.7832 4.8623 -10.2686 10.2656q-10.8076 7.56934 -18.373 9.18945q-7.56641 1.61914 -14.0498 -0.541016q-28.1006 -3.24316 -31.3438 -23.7764q-1.08203 -6.48535 0.539062 -7.02734q1.62207 -0.541016 9.18555 -1.62012l48.6377 -5.40332
q11.8896 -3.24219 15.1318 0zM77.8125 418.719q-1.08105 3.24121 -2.16309 17.292l-2.16016 24.8594l-3.24414 50.7979q-1.08008 15.1309 -1.08008 49.7168t1.08008 52.959q2.16211 38.9082 4.86621 69.7109q2.70117 30.8057 7.02441 58.9033l7.56348 52.9609
q2.16309 15.1289 3.24316 35.666q1.08105 1.0791 -6.4834 3.24219q-9.72754 4.32324 -17.2939 9.72461l-3.24023 1.08301l-4.32422 -28.1006l-11.8896 -96.1924q-6.48535 -42.1514 -9.18652 -71.8721q-2.70117 -29.7236 -3.7832 -83.7627
q-2.15918 -57.2812 -4.32324 -92.9492l-4.32129 -45.3926h6.48535q7.56348 -1.08105 18.9141 -3.7832q11.3457 -2.70215 19.9932 -4.86328q5.40332 -2.16211 4.32324 0zM738.181 491.132q-2.16309 6.48633 -1.08301 19.4541q1.08301 12.9707 3.24414 13.5117
q2.16113 0.539062 0 -7.02539q-1.08105 -5.4043 -1.08105 -14.0518q0 -8.64453 0.540039 -11.8887q0.541016 -3.24316 -1.62012 0zM751.149 503.021q-2.16211 6.48535 -1.08105 12.9707q1.08105 6.48438 2.16211 7.56543q1.08105 1.08008 0 -3.24414v-8.64453v-8.64746
q1.08105 -6.48438 -1.08105 0zM863.552 530.04q-4.32324 4.32227 -7.02246 14.0518q-2.70508 9.72559 -1.08301 10.8076q1.62207 1.08105 1.62207 -2.16309q1.08105 -7.56445 3.24219 -14.0498q2.16016 -6.4834 4.86426 -8.10547q2.7002 -1.62109 1.08008 -2.16113
q-1.62109 -0.539062 -2.70312 1.62012zM874.361 534.362q-4.32227 7.56836 -3.24414 9.72949q1.08105 2.16211 2.16113 -1.08105q1.08301 -3.24219 3.24414 -8.64844q0 -2.15918 -2.16113 0zM925.158 538.687q-10.8076 4.32422 -16.2119 12.9697
q-5.40332 8.64746 -2.16211 19.4551q1.08105 4.3252 4.32324 8.10547q3.24316 3.7832 3.24316 1.62207l-1.08105 -4.32324l-3.24219 -5.4043q-1.08105 -1.08203 -1.62109 -4.8623q-0.541016 -3.78516 0.540039 -7.02734q3.24023 -10.8066 11.8877 -16.2109t19.4541 -3.24219
q5.4043 1.07812 4.3252 -1.08203l-12.9717 -2.16113q-2.16016 1.08105 -6.4834 2.16113zM759.797 595.971q-1.08203 4.32227 -1.62305 10.2656q-0.540039 5.94629 0.541016 9.72852q1.08203 3.78125 1.08203 -7.02539q0 -7.56738 1.08105 -10.8086
q1.08008 -6.48438 -1.08105 -2.16016zM771.685 599.213q-2.16211 4.32324 -2.16211 16.21q0 11.8906 2.70117 13.5107q2.70312 1.62109 1.62305 -3.78027q-1.08008 -2.16406 -1.08008 -7.56836l1.08008 -16.2129q0 -3.24121 -2.16211 -2.15918zM959.746 640.281
q-9.73047 18.375 11.8867 33.5059q4.32324 4.32422 3.24219 2.16016l-7.56445 -7.56543q-14.0518 -12.9678 -7.56445 -23.7744q2.1582 -4.32617 12.9668 -14.0527q5.40625 -5.40137 9.72754 -8.10547q4.32422 -2.70312 3.24219 -3.24219
q-1.08105 -0.541016 -7.02441 3.24219q-5.94531 3.78223 -9.18652 7.02539zM904.621 621.908q-2.15918 3.24512 -5.40137 11.8887q-3.24316 8.64648 -2.16211 10.8105q1.08008 2.15918 2.16211 -3.24414l3.24219 -8.64648l3.24121 -8.64746
q3.24316 -6.48438 -1.08203 -2.16113zM914.351 626.231q-3.24316 6.48535 -4.32324 11.3486q-1.08105 4.86328 0 4.86328q1.08008 0 4.32324 -8.64648l3.24219 -10.8076q1.08008 -2.16113 -0.540039 -1.08105q-1.62305 1.08105 -2.70215 4.32324zM734.938 683.516
q-4.32227 7.56348 -6.48438 20.5342q-2.16309 12.9697 -0.540039 13.5098q1.62012 0.539062 1.62012 -3.7832q1.08203 -8.64648 3.24219 -16.751q2.16211 -8.10742 4.32227 -13.5098q2.16309 -5.4043 -2.16016 0zM741.424 699.726q-1.08203 4.32422 -2.16309 9.1875
q-1.08008 4.86328 0.540039 5.40332q1.62305 0.543945 2.16113 -7.02637q0.541016 -7.56445 1.62207 -7.56445t0.540039 -1.62012q-0.540039 -1.62207 -2.7002 1.62012zM922.996 711.616q-16.2119 18.373 -5.40332 34.583q5.40332 6.48535 18.9131 12.9707
q13.5098 6.4834 11.3486 5.40527l-19.4531 -7.56836q-9.72852 -4.32227 -14.0508 -10.8076q-4.32324 -9.72656 -2.16406 -20.5342q2.16406 -10.8047 10.2705 -15.1299q8.10547 -4.32422 19.9941 -5.40527l14.0488 -1.08008zM883.006 713.776
q-3.24121 3.24316 -4.86328 11.8887q-1.62012 8.64844 0.541992 7.56641q1.08008 1.08203 2.16016 -6.48535l1.08105 -7.56641q1.08008 -3.24121 2.70312 -4.86328q1.62012 -1.62012 0.540039 -1.62012q-1.08105 0 -2.16309 1.08008zM670.089 771.059
q0 6.4834 -4.32227 18.374q-4.32324 9.72656 -1.08203 7.02539q3.24219 -2.70312 5.94629 -14.5898q2.7002 -11.8906 1.08008 -12.9697q-1.62207 -1.08105 -1.62207 2.16016zM751.149 772.14v4.32227l-1.08105 7.56543q-1.08105 11.8916 2.16211 6.48535
q1.08105 -3.24023 1.08105 -10.8076q0 -7.56543 -2.16211 -7.56543z" />
</svg>
