<?xml version="1.0" standalone="no"?>
<!DOCTYPE svg PUBLIC "-//W3C//DTD SVG 1.1//EN" "http://www.w3.org/Graphics/SVG/1.1/DTD/svg11.dtd" >
<svg xmlns="http://www.w3.org/2000/svg" xmlns:xlink="http://www.w3.org/1999/xlink" version="1.1" viewBox="-10 0 1025 1024">
   <path fill="currentColor"
d="M948.685 306.572h-20.168q-16.3271 1.9209 -40.3369 2.88184l-22.0898 2.88184l-60.5039 9.60352l-65.3076 17.2871q-5.7627 1.9209 -12.4854 2.88184l-28.8115 4.80078q-8.64453 1.9209 -19.209 4.80273l-28.8115 6.72266l-57.624 17.2871
q-10.5645 3.8418 -17.2871 5.28223t-24.0098 4.32227l-36.4961 4.80176q-15.3662 1.9209 -34.5732 10.5635q-12.4854 6.72363 -27.8516 9.60547q-11.5254 1.9209 -26.4111 8.64258q-14.8867 6.72363 -25.4502 14.4062l-7.68457 5.7627l-7.68262 4.80176
q-24.0107 12.4854 -35.5352 27.8516l-11.5244 16.3271l-9.60352 16.3271q-2.88184 5.76172 -6.24316 10.083q-3.36133 4.32227 -11.0449 12.9658l-9.60352 10.5645q-0.959961 1.9209 -10.084 9.60449q-9.12402 7.68262 -23.5303 22.0889t-23.0498 24.0098l-34.5732 43.2178
l-30.7334 34.5752l-46.0996 48.0195l-51.8613 49.9404l-40.3369 37.4561q-3.8418 2.88086 -10.5645 7.68262q-9.60449 7.68457 -12.9648 16.8076q-3.36133 9.12402 1.44043 16.8076q14.4053 25.9307 46.0986 12.4844l13.4453 -5.7627q21.1299 -8.64258 40.8174 -18.7266
q19.6885 -10.085 28.332 -16.8076l42.2578 -30.7334l100.842 -69.1484l9.60449 -5.76172q16.3262 -9.60449 23.5293 -15.3662q7.20312 -5.76367 17.7676 -16.3271l11.5244 -11.5254q2.88184 -1.9209 4.80273 -2.88086l32.6523 -1.9209q24.0107 -0.960938 33.6152 -1.9209
q9.60352 -0.960938 22.0889 -4.80176l24.0098 -5.7627l-24.0098 -24.9697q-10.5645 -11.5254 -23.0498 -24.4902q-12.4854 -12.9658 -13.4453 -15.8467q-0.960938 -2.88184 8.64258 7.68262l50.9023 52.8223q11.5244 11.5244 15.3652 13.4453l3.8418 0.959961
q5.76367 -7.68262 9.12402 -15.3662q3.36133 -7.68262 2.88086 -8.64355q-0.479492 -0.959961 0 -4.32227q0.480469 -3.36035 -0.959961 -11.0439q-1.44043 -7.68262 -4.32129 -13.4453q-3.8418 -9.60352 -1.44043 -8.64355q2.40137 0.960938 9.12305 29.7725v4.80176
q0.960938 0 5.2832 -8.64355q4.32031 -8.64453 4.32031 -15.8467t-5.28125 -23.0488q-5.28223 -15.8477 -7.68359 -31.2139t-0.960938 -16.3271q1.44141 -0.959961 2.40137 1.9209l7.68359 39.377q4.80176 14.4053 6.72266 24.9697l0.960938 5.7627l4.80176 -9.60352
q5.76172 -9.60449 7.68262 -14.8857q1.9209 -5.2832 1.44141 -10.5654q-0.480469 -5.28223 1.44043 -3.36133q3.8418 0.960938 0.480469 12.9658q-3.3623 12.0049 -12.0049 26.4111l-22.0898 40.3369l-4.32129 8.64258q-1.44043 2.88184 -1.44043 4.80273t-0.960938 3.8418
l-53.7822 70.1084q-4.80273 6.72363 -9.60352 13.4453q-3.8418 4.80273 -9.60547 9.60449l-17.2871 15.3672q-11.5244 9.60352 -17.7666 16.3262q-6.24316 6.72266 -12.9658 17.2871l-14.4053 21.1289q-23.0498 31.6934 -32.6543 57.624q-9.60352 25.9307 -5.76172 48.0205
q2.87988 17.2871 18.2471 27.8516q15.3662 10.5635 33.6143 6.72168q10.5645 -2.87988 23.0488 -10.5635q12.4854 -7.68359 14.4062 -11.5254q0 -0.959961 1.9209 -4.80176q1.9209 -3.84082 7.68262 -11.5244q6.72363 -9.60449 7.2041 -13.9268
q0.480469 -4.32129 -1.44043 -7.20215q-3.84277 -7.68359 -13.4463 -14.4062t-12.4844 -7.68359l-12.4854 -8.64355q-10.5645 -5.7627 -20.1689 -7.68262q-15.3662 -0.959961 -34.5742 25.9307q-5.7627 7.68262 -6.72363 8.64355q-1.9209 -2.88184 10.085 -16.3271
q12.0049 -13.4453 19.6885 -17.7666q7.68359 -4.32227 20.1689 -0.480469q12.4844 3.84082 25.9307 14.4053q5.76172 2.88184 12.9648 8.16406q7.20215 5.28125 9.12402 7.20215q7.68359 10.5654 6.72266 15.3672q-0.959961 4.80176 -10.5654 18.248l-6.72168 11.5244
q-0.960938 0.959961 1.9209 -1.9209l9.60352 -7.68262q18.248 -15.3672 25.9307 -22.0898l15.3662 -15.3672l24.0098 -25.9307q10.5645 -11.5244 15.3672 -16.8057q4.80176 -5.2832 6.72266 -10.085q3.84082 -7.68262 10.084 -14.4062q6.24219 -6.72266 16.8076 -14.4062
q7.68262 -5.76172 11.5244 -9.60352t11.5244 -7.68262l8.64355 -4.80273l29.7725 -21.1279q18.248 -11.5254 27.8516 -21.6094t13.4463 -21.6094q1.9209 -5.7627 3.8418 -6.24316q1.9209 -0.479492 0 6.72363t-5.7627 12.9658q-6.72266 7.68262 5.7627 3.8418
q7.68262 -1.9209 14.4053 -7.68359t15.3672 -18.248q3.84082 -5.76172 5.28125 -10.084q1.44043 -4.32129 1.44043 -13.9258q0.960938 -16.3271 2.88184 -17.2881q0.959961 0 0.959961 9.60547q0 9.60352 -0.959961 18.2461q-0.960938 5.76367 -2.88184 10.085
t-6.72168 10.5645q-4.80273 6.24219 -4.32227 6.72266q0.480469 0.479492 7.20215 -1.44043q7.68359 -1.9209 12.0059 -5.28223q4.32129 -3.36133 7.20312 -9.12305q0.959961 -2.88184 3.36133 -2.88184t-0.480469 6.72266q0.960938 0.959961 7.68262 -2.88086
l18.248 -6.72266q12.4854 -3.84277 19.6875 -7.20312q7.2041 -3.36133 12.4863 -7.68359t9.12402 -6.24219q22.0889 -11.5254 25.9307 -50.9014q1.9209 -9.60449 3.36133 -15.8477q1.44043 -6.24121 1.9209 -13.9258q0.480469 -7.68262 -0.480469 -14.4043
q-1.9209 -11.5264 0.480469 -7.2041q2.40039 4.32227 2.40039 15.8467q0 11.5254 -1.91992 22.0889q-0.960938 6.72363 -0.960938 13.4463t-2.40039 15.8467q-2.40137 9.12305 -5.76367 14.8857q-3.36133 5.7627 6.24316 0.960938q6.72266 -3.8418 15.8467 -13.9258
t15.8457 -20.6494q9.60547 -14.4053 17.7686 -22.5693q8.16309 -8.16309 17.2871 -11.5244q9.12305 -3.36133 24.0098 -12.4854q14.8857 -9.12305 21.6094 -15.8467q2.88086 -3.8418 8.64355 -3.8418l8.64258 -0.959961h12.4854l12.4854 1.9209v-273.715zM384.931 466.96
q5.76172 -3.8418 6.24219 -1.9209q0.479492 1.9209 -1.9209 2.88184q-2.40039 0.958984 -12.4854 10.5635q-10.084 9.60449 -13.4453 13.9268q-3.36133 4.32031 -3.8418 1.44043q-0.479492 -2.88184 7.68359 -11.0459q8.16309 -8.16309 17.7676 -15.8457zM465.604 531.307
q3.84277 -4.80273 0.960938 7.68262q-6.72363 32.6543 10.5645 55.7031q4.80176 6.72363 2.40039 5.76367q-2.40039 -0.960938 -8.64355 -11.5254q-6.24219 -10.5645 -8.16309 -17.2871q-1.9209 -9.60352 -0.960938 -22.5693q0.960938 -12.9648 3.8418 -17.7676z
M200.533 656.159q0.959961 -3.8418 2.88086 2.88086q0.960938 11.5244 5.2832 20.6484q4.32129 9.12305 -1.44043 2.40137q-3.84277 -3.8418 -5.76367 -12.9658t-0.959961 -12.9648zM478.089 659.04q-3.8418 -2.88086 -4.80176 -2.88086
q-2.88086 -0.960938 -2.88086 7.68262v9.60352l1.91992 10.5654q0 3.84082 -1.91992 3.36035q-1.9209 -0.480469 -2.88184 -12.0049l-0.959961 -6.72266l0.959961 -8.64355q0.960938 -2.88086 -1.44043 -2.40039t-12.0049 3.36035q-13.4453 4.80273 -25.9307 6.24316
t-42.2578 2.40137q-18.248 0 -23.5303 0.959961q-5.28125 0.960938 -6.24219 2.88086l-10.5645 11.5254q-7.68359 8.64355 -10.5645 11.5254l-6.72266 5.76172l0.960938 15.3662q1.9209 26.8916 9.12305 40.8174q7.20312 13.9258 23.5293 18.7275l8.64453 2.88184
l18.2471 7.68262l13.4453 -11.5244q12.4863 -9.60449 21.1299 -19.209q8.64258 -9.60352 21.1279 -27.8516l14.4062 -19.207q7.68359 -10.5645 1.9209 -5.7627q-1.9209 0.959961 -4.80176 1.9209l-8.64355 2.88086q-11.5254 4.80273 -26.8916 6.72266
q-9.60352 1.9209 -15.3662 4.32227q-5.76172 2.40137 -5.28223 -0.480469q0.480469 -2.88184 21.6094 -6.72266q12.4844 -1.9209 24.0098 -5.7627q11.5244 -3.8418 19.208 -8.64258q4.80273 -3.84277 13.4453 -13.4463q8.64355 -9.60449 9.60352 -12.4844l0.960938 -7.68457
l-3.8418 -0.959961q-3.84082 -0.960938 -6.72266 -4.80176zM192.851 664.802q2.88086 -4.80176 2.88086 0.960938t2.88086 15.3662t5.7627 14.4062q2.88184 4.80176 0.960938 6.24219q-1.92188 1.44043 -5.76367 -2.40039q-3.84082 -5.7627 -6.24121 -17.2871
q-2.40137 -11.5254 -0.480469 -17.2881zM131.384 801.179q0 -3.8418 1.92188 -3.36133q1.9209 0.480469 4.32129 5.28223q2.40137 4.80273 2.88184 7.20312t-3.8418 -0.960938q-4.32227 -3.36035 -5.2832 -8.16309zM439.673 806.941q1.9209 -1.9209 3.84082 0.960938
q1.92188 2.87988 9.125 8.16309q7.20215 5.28223 18.7275 12.0049q8.64355 4.80176 4.80176 5.7627q-7.68262 -0.960938 -22.0889 -12.0049q-14.4062 -11.0459 -14.4062 -14.8867zM423.347 821.348q0.959961 -1.9209 1.9209 1.91992q0.959961 3.8418 13.9258 12.0059
q12.9648 8.16309 27.3711 13.9258q10.5645 3.84082 8.64355 6.24219t-20.168 -6.24219q-13.4463 -5.7627 -23.0508 -14.4062q-9.60352 -8.64355 -8.64258 -13.4453zM950.605 295.048q0 -20.168 5.7627 -52.8213q5.76172 -0.960938 12.4854 -0.960938
q12.4854 0 26.8906 2.88184v225.693q-2.88086 40.3369 -0.959961 75.8721q0.959961 20.168 0.959961 47.0586q0 26.8916 -0.959961 36.4961l-1.9209 26.8916l-11.5244 1.9209q-4.80273 0.959961 -15.3672 0.959961q-11.5244 0 -13.4453 0.959961
q-1.9209 1.9209 -2.88086 -2.88086v-72.9902l-4.80176 -0.960938q-7.68359 -0.959961 -18.248 -0.959961t-11.5244 0.959961q-1.9209 1.9209 -2.88184 1.9209q-1.9209 0 -8.64258 4.80273q-6.72363 5.76172 -10.5645 9.60352q-9.60449 9.60352 -34.5752 17.2871
q-5.7627 1.91992 -6.72266 3.84082q-1.9209 2.88184 -3.8418 4.80273q-2.88086 2.88184 -8.64355 9.60352q-5.76172 7.68359 -8.64355 13.4463q-8.64355 13.4453 -20.168 23.0498q-11.5254 10.5645 -21.1289 13.4453q-3.8418 0.960938 -5.76172 3.84082
q-2.88184 3.8418 -7.68457 7.68457l-4.80176 3.84082q0 0.959961 -4.80176 3.8418l-7.68359 5.7627q-8.64355 7.68262 -30.7324 13.4453l-26.8906 10.5645q-5.7627 1.9209 -8.64453 3.8418q-3.84082 2.88086 -12.4854 5.76172q-8.64258 2.88184 -13.4453 2.88184
q-1.9209 0 -5.76172 2.88086q-10.5654 8.64355 -23.0498 8.64355h-5.7627l-7.68359 7.68359q-4.80078 4.80176 -10.5635 8.64355l-40.3369 27.8516q-4.80273 3.8418 -10.5645 5.7627q-5.7627 2.87988 -5.7627 3.84082q0 0.959961 -4.80176 4.80273
q-4.80176 3.8418 -12.4863 9.60352q-17.2861 11.5244 -24.0098 24.9697q-3.8418 7.68359 -7.68262 13.4463q-4.80176 5.7627 -15.3662 16.3262l-23.0488 24.9707q-8.64453 9.60449 -19.209 19.208q-11.5244 10.5645 -37.4551 32.6543q-27.8516 24.0098 -50.9023 24.0098
q-21.1279 0 -38.416 -20.1689q-5.76172 -5.76172 -7.68262 -12.4854q-1.9209 -7.68262 -1.9209 -21.1279v-13.4453l2.88184 -12.4854q4.80078 -16.3271 13.4453 -31.6934q8.64355 -16.3271 24.9707 -38.416l28.8115 -40.3369l-16.3271 -6.72363
q-2.88086 -0.959961 -6.72168 -2.88086q-13.4463 -2.88086 -23.0508 -18.2471q-5.76172 -8.64453 -8.64258 -18.248q-2.88184 -9.60352 -3.8418 -26.8916q0 -10.5635 -0.960938 -11.5244q-0.960938 -1.9209 -4.80176 1.9209l-28.8115 17.2881l-103.724 70.1084
l-40.3369 29.7725q-14.4062 9.60449 -46.0986 24.0107q-31.6934 15.3652 -45.1396 18.2471q-10.5635 2.88086 -17.2871 0.959961q-6.72266 -1.9209 -13.4453 -8.64355q-11.5244 -11.5244 -11.5244 -22.0898q0 -15.3662 20.168 -30.7314l7.68359 -6.72363l16.3262 -15.3662
l21.1289 -19.208q4.80176 -2.88086 8.64453 -7.68359l17.2861 -17.2871q16.3271 -14.4053 43.2178 -41.2969q26.8916 -26.8916 37.4561 -39.377l23.0498 -25.9307l23.0498 -28.8115q11.5244 -15.3662 25.9307 -30.7324q14.4053 -15.3662 26.8906 -26.8916
q14.4062 -12.4844 24.9707 -24.0107q11.5244 -12.4844 15.3662 -22.0889q21.1289 -43.2178 59.5449 -62.4248l7.68262 -4.80273l8.64453 -4.80273q11.5244 -8.64258 25.9307 -15.3662q14.4062 -6.72168 24.9707 -8.64355q6.72168 -0.959961 14.4053 -3.8418
q7.68359 -2.87988 13.4463 -5.76172q17.2871 -9.60449 33.6133 -11.5244l47.0596 -6.72363q8.64355 -0.959961 15.3672 -2.88086q6.72168 -1.9209 16.3271 -5.76172l24.0098 -7.68359l39.376 -11.5254l6.72266 -0.959961q4.80176 -0.960938 14.4053 -3.8418
q12.4863 -3.84082 21.1299 -5.76172q9.60352 -1.9209 26.8906 -4.80273l19.209 -3.84082l49.9404 -14.4062q6.72168 -2.88086 9.60352 -3.8418l54.7432 -9.60352q11.5244 -2.88184 25.9307 -3.8418l36.4951 -3.8418q24.0098 0 30.7324 -0.960938zM960.21 258.553v10.5645
l-4.80176 386.081l18.248 -0.959961l16.3252 -2.88184v-23.0488q0.960938 -13.4463 0 -44.1787q0 -29.7725 -0.959961 -48.9805q-0.959961 -36.4961 1.9209 -97.9609v-188.238l-29.7715 -1.9209q0.958984 7.68262 -0.960938 11.5244z" />
</svg>
