<?xml version="1.0" standalone="no"?>
<!DOCTYPE svg PUBLIC "-//W3C//DTD SVG 1.1//EN" "http://www.w3.org/Graphics/SVG/1.1/DTD/svg11.dtd" >
<svg xmlns="http://www.w3.org/2000/svg" xmlns:xlink="http://www.w3.org/1999/xlink" version="1.1" viewBox="-10 0 916 1024">
   <path fill="currentColor"
d="M60.334 253.474q-1.66406 0 -13.7227 0.415039q-12.0596 0.415039 -17.8809 6.2373q-2.49512 4.99121 -2.07812 47.8213q0.415039 42.8291 2.07812 93.5605l3.32715 39.9189v137.222q2.49414 51.5635 5.82031 60.7129q5.82227 9.14844 15.3857 7.48438
q9.56445 -1.66406 14.5547 -8.31738q1.66309 -5.82129 1.66309 -22.4551v-19.959l2.49512 -1.66309q4.1582 -0.832031 9.5625 -5.40625q5.40723 -4.57324 7.90137 -10.3965h2.49512q3.32812 2.49609 9.14746 1.66504h3.32715l1.66309 3.3252
q4.99121 13.3076 18.2979 24.1191q13.3057 10.8115 25.7803 10.8115h2.49512q0.832031 1.66211 7.07031 4.15723q6.23633 2.49512 12.0586 4.15918q2.49512 0 4.1582 1.66309q1.66211 1.66309 4.98926 5.82129l6.65332 6.65332l10.8115 8.31738
q10.8105 7.48535 17.4658 10.8115q6.65234 3.32617 22.4541 9.97852q3.3252 0.832031 4.57422 1.66406q1.24707 0.832031 2.91016 3.32617q4.99023 5.82324 8.31543 8.31738l13.3076 7.48438l9.14746 5.82129q9.14844 4.15918 10.8125 5.82227
q1.66309 1.66309 1.66309 5.82129q-0.832031 22.4541 7.90137 44.0791q8.73145 21.6211 23.7002 37.4229q10.8135 10.8115 18.2979 16.2168q7.48438 5.40625 15.8008 7.90137q1.66406 0 2.49512 1.24707q0.831055 1.24805 6.65332 4.57422q5.82227 3.32715 12.4736 5.82129
q6.6543 4.99023 8.31738 9.14844q1.66406 4.1582 4.1582 6.65332l9.98047 14.1387l19.127 24.9492q3.32715 4.15918 7.48535 8.31738l11.6436 11.6426l29.1074 29.9395l14.9707 14.9697q5.82031 6.65332 17.4648 10.8125q11.6426 4.1582 21.6221 4.1582
q15.8018 -1.66406 27.0293 -11.2275q11.2266 -9.56445 14.5537 -24.5342q2.49512 -9.14941 1.24805 -23.2871q-1.24805 -14.1377 -5.40625 -24.1172l-3.32715 -10.8125l-7.48438 -22.4541q4.1582 -1.66406 12.0596 -5.82129q7.90039 -4.15918 11.2266 -6.65332
q9.98047 -6.65332 16.6328 -16.2178q6.65332 -9.56348 14.9707 -28.6924q6.65234 -15.8018 9.56445 -26.1973q2.91016 -10.3955 2.91016 -22.8691v-31.6035q0.832031 -9.97949 2.49414 -19.1289q0.832031 -7.48438 0 -25.7793v-39.9199q-2.49414 -0.833008 -1.66211 42.4141
q0 16.6328 -1.24805 24.1172q-1.24805 7.48535 -2.0791 18.2969v29.1084q0 14.1377 -2.49512 24.9502q-2.49414 10.8096 -9.14844 24.9492l-5.82031 11.6436q-11.6445 28.2754 -37.4248 40.75q-5.82227 2.49512 -8.7334 3.32715q-2.91113 0.831055 -7.89941 -0.832031
l-9.98047 -0.832031q-4.99023 -0.831055 -11.6436 -3.3252q-5.82227 -1.66504 -9.14844 -2.49609q-3.3252 -0.832031 -7.06934 -0.832031q-3.74121 0 -9.56348 -2.49512l-5.82227 -2.49414q16.6338 -16.6328 24.9502 -43.2461l5.82227 -18.2979l7.48438 -32.4336
q3.3252 -9.97949 6.6543 -24.9492l4.98828 -27.4434q11.6436 -29.9404 14.9707 -32.4346q1.66211 -0.833008 0.832031 -2.49707q-0.832031 -1.66113 -5.40625 4.1582q-4.57422 5.82324 -8.73242 15.8018q-0.832031 3.32715 -2.08008 8.31641
q-1.24609 4.99023 -2.91113 15.8027q-1.66113 15.8008 -9.97852 44.9092l-3.32715 14.9688q-4.15723 17.4658 -9.56348 33.2666q-5.40625 15.8018 -9.97949 22.8701q-4.57422 7.07031 -13.3066 17.8809q-8.73242 10.8115 -14.5547 15.8018
q-14.1377 14.1367 -53.2246 -2.49512l-16.6328 -5.82129q-16.6338 -5.82227 -28.2773 -10.3945q-11.6426 -4.5752 -12.0586 -6.65527q-0.416992 -2.0791 -8.31738 -4.57422t-14.9697 -7.90137q-7.06836 -5.40332 -17.8799 -15.3848q-22.4541 -22.4531 -29.1074 -63.2051
q-1.66406 -5.82227 -1.66406 -31.6035l0.832031 -5.82031q10.8115 3.32617 18.7109 4.1582q7.90137 0.831055 15.3857 0.831055h5.82324q3.3252 0 7.48438 -0.416016q4.1582 -0.415039 6.65234 -1.24707l3.32812 -0.831055q1.66211 9.97949 4.15723 14.9688
q2.49512 4.99023 7.48535 9.98145q2.49512 2.49414 2.0791 3.3252q-0.416992 0.831055 -7.90137 4.57422t-11.6426 7.06836q-4.1582 3.32812 -9.14844 9.97949q-2.49414 3.32715 -4.15918 6.6543q-1.66211 3.32715 -1.24707 4.57422q0.416016 1.24707 2.91211 -2.91113
q4.1582 -7.48438 11.6426 -14.1377l3.32617 -4.15918l9.14844 -4.1582l9.98047 -4.98926l4.1582 2.49414l1.66211 2.49512q-4.1582 8.31738 -6.2373 19.1289q-2.07812 10.8105 -0.416016 18.2959q0.833008 4.99023 2.91211 11.6436q2.0791 6.65234 3.32715 7.48535
q1.24707 0.831055 0.831055 -2.08008q-0.416992 -2.91016 -2.91211 -12.8916q-2.49512 -7.48438 -2.07812 -15.8008q0.415039 -8.31641 3.74219 -15.8008l3.32617 -6.65234q0.832031 -4.15918 6.65332 -0.833008q3.32715 1.66309 8.73145 2.91113
q5.40723 1.24707 9.98145 1.24707q4.57324 0 10.3955 -1.66309q5.82129 -1.66211 3.74219 -2.49512q-2.07812 -0.832031 -7.90039 0q-5.82227 0.833008 -9.97949 0.416016q-4.15918 -0.416016 -10.8125 -2.07812q-6.65234 -1.66406 -7.48438 -2.49512l-5.82227 -4.99121
q-4.1582 -2.49414 -9.14844 -7.90039q-4.98926 -5.40527 -6.65234 -8.31641q-1.66309 -2.91016 -3.32715 -12.0586q0 -4.1582 4.15918 -12.4746q2.49414 -4.1582 3.32617 -7.48535l2.49414 -6.65332q1.66406 -5.82031 -0.831055 -2.91113q-2.49512 2.91113 -5.82129 9.56445
q-4.15723 12.4746 -8.73242 15.3857q-4.57422 2.91016 -17.8809 2.91016q-10.8115 0 -17.0479 -0.832031q-6.23828 -0.830078 -13.7227 -2.49414l-7.48535 -1.66406l-49.8984 -14.9688q-3.32812 -0.832031 -6.6543 -2.49414l-8.31641 -3.32812
q-11.6436 -5.82031 -16.6338 -8.73145q-4.98926 -2.91211 -13.3057 -9.56445q-8.31641 -6.65332 -12.4746 -9.97949l-7.48438 -7.48535l-2.49512 -0.416016q-2.49609 -0.416016 -7.48535 -2.49512q-4.99023 -2.07812 -9.14844 -4.57324l-4.98926 -1.66309
q-3.32715 2.49512 -13.7227 -2.91211q-10.3945 -5.40527 -18.2959 -12.8896q-7.90039 -7.48535 -12.8906 -19.96q-0.833008 -4.99023 -1.66406 -9.14844l-0.832031 -5.82227q-0.831055 -10.8105 0.832031 -17.4629l4.99023 -24.9492l-7.48438 26.6113
q-1.66504 10.8125 0.831055 23.2861l0.831055 4.98926h-9.14648l-9.14844 -19.127q-0.833008 -2.49414 -2.49512 1.24805q-1.66406 3.74219 0.831055 10.3945q2.49512 4.15918 2.49512 5.82324q0 1.66113 -1.66406 3.32617q-3.32617 5.82129 -7.90039 9.97949
t-7.90039 4.1582l0.832031 -14.1377q0.831055 -14.1396 2.49414 -34.0986v-146.371l1.66406 -113.104q-1.66406 -0.831055 2.49414 -3.74219q4.15918 -2.91113 26.6133 -6.2373q12.4756 -0.832031 19.5439 -0.832031q7.06934 0 17.0498 0.832031l54.8887 9.14844
l62.374 14.9688q14.1377 3.32617 22.4551 6.6543l21.6221 6.65234q6.65332 1.66406 19.96 6.2373q13.3057 4.57422 21.623 7.07031l102.292 44.0771l68.1973 25.7812l36.5928 14.9688q64.0371 29.1084 75.6797 35.7627q20.791 12.4736 31.6025 28.2754
q4.1582 7.48438 7.06934 28.2764q2.91113 20.791 2.91113 24.1182l1.66309 8.31543q1.66406 14.1387 4.98926 23.2871q3.32812 9.14844 18.2969 39.9199l26.6143 56.5527l8.31641 24.9482l1.66211 7.48535q1.66406 7.48438 0.832031 11.6436l-1.66406 5.82129
l-3.32617 7.48438q-3.32617 4.99023 -3.32617 6.65332q0 1.66406 4.99023 -6.65332l5.82031 -10.8115l1.66406 1.66406q8.31641 5.82227 -0.832031 19.96q-7.48438 12.4746 -4.99023 11.6426l3.32812 -4.1582l4.1582 -5.82227q2.49414 -2.49512 3.32617 -5.82129
l1.66211 -3.32715q2.49609 0 4.99023 4.57422q2.49609 4.57422 2.08008 7.48535t-3.32715 7.90137q-2.91113 4.98926 -0.831055 4.98926q2.07812 0 4.57422 -4.98926l1.66211 -2.49512l2.49512 4.99023q3.32812 4.98926 4.15918 5.82031q0.830078 0.832031 5.82031 9.98047
l5.82227 10.8115q3.32715 4.15723 9.14844 12.4746l14.1377 24.9502l15.8018 25.7803l1.66309 2.49512l-2.49414 3.32812q-4.1582 3.3252 -3.32715 4.57324q0.831055 1.24707 3.32715 -1.24805l4.1582 -4.1582l3.32617 4.1582q3.32617 4.99023 8.31641 9.97949
q12.4756 12.4746 19.96 29.9395l1.66406 4.99023l-2.49609 1.66309q-15.8008 10.8125 -14.9697 27.8604q0.833008 17.0498 18.2959 32.8506l9.14844 7.48535q0 1.66309 9.98047 -2.49414q14.9697 -7.48535 4.99023 1.66211l-4.1582 4.98926
q-6.6543 10.8135 -23.7031 9.14844q-17.0488 -1.66309 -29.1074 -10.8096q-12.0586 -9.14941 -22.0391 -19.1299l-12.4746 -10.8105q-12.4746 -9.98047 -23.2861 -24.1182l-6.65332 -8.31641q-4.1582 -5.82227 -11.6426 -17.4648l-4.99023 -7.48438
q4.1582 -0.831055 5.82031 -2.91211q1.66406 -2.07812 -1.66211 -0.415039q-5.82227 0.831055 -8.31641 -0.831055q-2.49512 -1.66406 -7.06934 -6.23828q-4.57324 -4.5752 -8.31641 -9.14844q-3.74219 -4.57422 -8.31641 -9.56348q-4.57422 -4.99023 -7.90137 -9.14844
l-27.4443 -36.5918q-2.49512 -2.49609 -4.99023 -4.15918l-2.49414 -2.49512l6.65234 -19.959q6.6543 -18.2969 10.8125 -35.7607q4.1582 -17.4658 5.82031 -26.1982q1.66406 -8.73242 2.49512 -20.375v-9.14844l-2.49512 -22.4551q-0.831055 -10.8115 -3.3252 -8.31641
l3.3252 28.2773v9.97949l-1.66211 15.7998q-1.66309 11.6455 -3.32715 20.792l-2.49414 9.98047l-14.9697 49.8984q-3.32812 8.31738 -4.99023 11.6436q-2.49609 5.82129 -9.98047 12.4756q-7.48438 6.65332 -20.792 10.8115q-6.65234 2.49512 -19.96 4.98926
q-13.3047 2.49512 -20.791 2.49512q-4.15723 0 -3.32617 1.24805q0.832031 1.24707 8.73242 0.831055t19.5439 -2.0791q14.1387 -3.32617 24.9492 -8.31641q10.8115 -4.98926 16.6338 -10.8125q2.49414 -2.49414 4.99023 -7.48438l4.1582 -5.82129l3.32715 3.32715
l4.98926 5.82129l8.31543 10.8105l24.9502 29.9404q4.99023 4.98926 8.73145 9.97949q3.74414 4.99023 8.73438 10.3965q4.98926 5.40527 7.48438 7.06836q2.49414 1.66406 4.1582 4.1582l6.65234 9.98047q2.49609 4.98828 6.6543 9.97949l7.48535 10.8115
q2.49414 3.32617 9.5625 11.2266q7.06934 7.90234 14.5547 13.7236q4.1582 3.32617 14.9697 13.3057l12.4746 11.6436l5.82129 4.15918q5.82227 4.1582 12.4746 8.31543q2.49512 0.831055 8.31738 2.49414l9.98047 2.49512q19.96 -4.1582 22.0381 -5.82031
q2.0791 -1.66504 6.65234 -7.06934q4.57422 -5.40527 6.23828 -8.31641q1.66309 -2.91113 2.49512 -4.57422q0.830078 -0.832031 0.830078 -3.32715q0 -3.32715 -3.3252 -8.31738l-16.6338 -27.4434q-2.49414 -2.49512 -14.1367 -25.7822
q-7.48633 -14.9688 -10.3965 -19.959q-2.91016 -4.99121 -7.90039 -9.98047q-9.98047 -9.97949 -14.1387 -17.4639l-6.65332 -9.98047l-17.4648 -29.9395q-4.1582 -8.31641 -8.31543 -14.9688q-4.15918 -6.6543 -9.98047 -13.3076q-2.49512 -2.49414 -4.98926 -9.14844
l-3.32715 -5.82031q-0.832031 -1.66406 -2.91113 -3.74219q-2.07812 -2.08008 -3.32617 -5.40625q-1.24902 -3.32715 -2.91016 -5.40625q-1.66504 -2.07812 -1.66504 -5.40625q0 -4.98926 -5.82031 -12.4736q-2.49609 -3.32715 -2.49609 -4.5752
q0 -1.24707 -1.66211 -3.74219q-1.66406 -2.49414 -2.49609 -3.32617q-4.1582 -3.32617 -4.1582 -7.06934q0 -3.74219 -1.24609 -11.2266q-1.24805 -7.48633 -4.15918 -15.3857q-2.91113 -7.90137 -10.8115 -26.6133q-7.90137 -18.7129 -24.5342 -52.8105l-10.8105 -22.4541
l-4.99121 -9.98047l-4.98926 -26.6123l-5.82129 -41.583q-2.49414 -12.4746 -8.31738 -19.9609q-5.82031 -7.48438 -11.6426 -12.4746l-7.48438 -5.81934q-3.32715 -2.49609 -9.98047 -6.6543q-6.65234 -4.1582 -12.4746 -6.65332l-63.2051 -29.9395l-103.957 -39.0879
q-12.4746 -4.98926 -23.2871 -9.97949l-79.0068 -34.0986q-7.48438 -2.49414 -21.624 -7.48438q-14.1367 -4.99023 -20.79 -6.65234l-10.8125 -3.32812l-14.9688 -4.98926q-8.31641 -2.49512 -19.1279 -5.82031l-61.543 -14.1396q-6.65234 -1.66309 -30.7705 -4.98926
l-29.9395 -4.98926q-6.65332 -0.832031 -14.5537 -0.832031q-7.90137 0 -22.8701 1.66309q-17.4658 1.66309 -19.9609 2.49512q-2.49512 0.831055 -4.98926 1.66309q-0.832031 -0.832031 -0.416992 -7.48535q0.416992 -6.65332 -2.07812 -13.3057
q-2.49512 -3.32812 -6.65332 -3.74316t-4.98926 -0.415039zM48.6904 260.959q0.831055 -0.833008 8.31543 -0.416992q7.48535 0.416992 9.98047 12.0596q3.32715 60.71 1.24902 202.508q-2.08008 141.797 -5.40723 161.756q-5.82227 4.99023 -11.2266 4.99023
q-5.40723 0 -8.7334 -4.99023q-3.32617 -9.14746 -3.32617 -82.75q0 -73.6006 -3.32617 -156.766l-3.32715 -89.8184v-38.2568q1.66309 -5.82129 6.65332 -7.06934q4.98926 -1.24609 9.14844 -1.24609zM168.447 464.714q-7.48438 15.8008 -14.1377 41.998
q-6.65332 26.1963 -4.1582 28.6924q-0.831055 -6.65332 5.40625 -29.5254q6.23828 -22.8701 13.7227 -40.334q3.3252 -7.48633 -0.833008 -0.831055zM616.709 482.179q10.8125 1.66211 13.3066 12.4746q1.66406 4.98926 2.49414 3.3252q0.833008 -1.66211 -1.24609 -6.23633
q-2.08008 -4.57422 -4.15918 -6.23828q-2.0791 -1.66309 -5.82031 -2.91113q-3.74316 -1.24609 -4.5752 -0.414062zM543.524 522.097q0 0.832031 4.15918 1.66504q9.97852 4.15723 12.4736 14.9688q2.49512 7.48438 1.66309 1.24707t-4.57422 -10.8105
q-3.74316 -4.5752 -8.73242 -5.82227zM254.107 675.953q4.1582 0.832031 11.6445 3.32617l13.3057 3.32617l9.14844 3.32812q0.832031 0.830078 0.416016 5.82031t-0.416016 5.82227l-9.14844 -4.1582q-5.82129 -3.32617 -14.9688 -9.14844l-9.14844 -4.99023
q-11.6426 -6.65234 -0.833008 -3.32617zM458.695 579.481q0.832031 0.832031 4.99023 2.49512q14.9697 5.82129 16.6318 10.3965q1.66406 4.57324 -2.49414 -1.24902q-4.15723 -5.82031 -10.8115 -9.14746zM408.795 837.294q7.48535 2.49512 14.1396 4.98926
q20.792 8.31738 33.6816 7.48535q12.8906 -0.832031 23.7012 -13.3066l4.1582 -5.82129q1.66504 -0.832031 3.32812 0.832031q5.82129 4.15918 15.8008 4.15918q4.99023 0 12.4756 2.49414l9.97852 3.32617q4.15918 0.831055 7.48438 0.831055
q9.98145 0.833008 10.8125 1.66406l1.66309 5.82129l11.6436 34.9307q4.99023 25.7803 1.24805 41.165q-3.74219 15.3867 -17.8818 24.5342q-15.8008 9.98145 -33.2656 4.1582q-10.8115 -2.49414 -17.0488 -6.23633q-6.23828 -3.74316 -7.06836 -5.40625l-14.1387 -13.3066
l-43.2461 -44.0781q-2.49414 -2.49512 -7.48438 -9.14746l-7.48438 -9.98047q-8.31641 -9.97852 -16.6338 -22.0381q-8.31641 -12.0596 -8.31641 -14.5547l8.31641 2.49512zM798.841 831.473q-1.66211 4.15918 0.416992 3.74219q2.07812 -0.416016 2.91113 -2.0791
q0.831055 -1.66309 0.415039 -3.32715q-0.415039 -1.66309 -3.74316 1.66406zM844.582 886.36q0.831055 0.833008 3.32715 6.23926q2.49512 5.40527 5.82129 11.2266l16.6328 26.6133q1.66406 2.49512 3.32715 6.23828q1.66309 3.74121 1.24805 5.4043
q-0.416016 1.66406 -9.14844 5.82227q-8.7334 4.1582 -12.0596 4.1582q-5.82129 -3.32715 -12.4746 -11.2266q-6.65234 -7.90137 -10.8105 -16.6338q-4.15918 -8.7334 -2.91113 -17.4648q1.24609 -8.73242 7.90039 -14.5537l4.15918 -3.32617
q3.3252 -3.32812 4.98828 -2.49707z" />
</svg>
