<?xml version="1.0" standalone="no"?>
<!DOCTYPE svg PUBLIC "-//W3C//DTD SVG 1.1//EN" "http://www.w3.org/Graphics/SVG/1.1/DTD/svg11.dtd" >
<svg xmlns="http://www.w3.org/2000/svg" xmlns:xlink="http://www.w3.org/1999/xlink" version="1.1" viewBox="-10 0 834 1024">
   <path fill="currentColor"
d="M35.4316 104.794q-8.85254 3.54199 -12.8369 12.3955q-3.98438 8.85254 -3.09863 21.2461q0.884766 7.9668 3.09863 15.0498q2.21289 7.08203 4.86914 10.624l2.65527 5.30957q1.77246 2.65723 8.85254 14.167l6.19824 9.7373q1.76953 2.65527 5.31152 6.19629
l11.5088 12.3955l9.73828 9.7373q5.31152 5.3125 6.63965 6.19824q1.3291 0.884766 2.21387 2.65527q0.884766 4.42578 5.31055 13.2783q4.42676 8.85352 7.08301 13.2803l12.3945 14.165q13.2793 16.8193 23.0176 23.0176q3.54004 2.65527 3.54004 3.09863
q0 0.442383 2.65625 4.86914l9.73828 15.0488l21.2471 25.6738l-5.3125 3.54102q-20.3613 13.2803 -20.3613 37.1816q0 8.85352 1.77051 23.4609q1.77148 14.6074 3.54199 22.5752l3.54102 18.5918h-1.77051q-9.73828 -4.42676 -24.7891 -3.54199
q-15.0498 0.885742 -23.0166 7.08398q-14.166 13.2783 -9.73828 32.7539q1.76953 9.73828 7.52539 24.3457q5.75391 14.6074 7.52441 17.2637q0.885742 0 0.885742 0.884766l-1.77148 8.85352q-5.31055 21.2471 -2.65527 34.9697q2.65527 13.7217 13.2793 23.46
l9.73926 7.9668q7.08008 6.19727 18.5908 14.165q4.42578 3.54102 10.1797 8.85254q5.75488 5.31152 11.9521 10.625q6.19727 5.31152 17.7051 12.3926l8.85352 6.19824l15.9355 11.5088q6.19629 5.31055 11.5088 10.623l22.1318 18.5908q11.5078 9.73828 27.0029 20.3613
q15.4912 10.623 25.2295 15.0508q2.65527 0.884766 4.42578 2.65625l21.2471 16.8203q13.2803 10.623 32.3145 19.0332q19.0332 8.41113 48.2471 16.3779l16.8203 4.42676l16.8213 3.54199q18.5908 3.54004 28.7715 6.19629q10.1816 2.65723 21.6904 6.63965t20.3623 7.9668
q8.85156 3.98438 23.0176 11.0674l46.0352 22.1318l52.2324 25.6738l23.0166 14.1641l-7.08203 13.2803q-0.885742 1.76953 -0.885742 3.09766t4.42676 3.98438q9.73828 4.42578 14.6074 8.85352q4.87012 4.42578 7.08301 3.09766t6.63965 -11.0664l64.627 -129.253
q19.4756 -38.9531 27.4434 -55.7725q7.96777 -16.8213 11.5078 -27.4453q3.54102 -13.2783 6.64062 -28.7725q3.09863 -15.4922 0.442383 -26.1143q-1.76953 -3.54199 -11.9521 -6.64062q-10.1807 -3.09863 -15.4912 -3.09863l-1.77148 9.73926
q-0.885742 7.9668 -3.98438 16.8203q-3.09766 8.85254 -7.52441 20.3604l-22.1318 54.8896l-9.73926 25.6738q-9.73828 26.5576 -19.918 49.1338q-10.1807 22.5742 -19.0332 39.3945l-13.2803 22.1328q-7.08301 13.2783 -8.85254 14.1631l-24.7881 -15.0479
l-42.4951 -21.248l-46.9199 -21.2471q-27.4443 -13.2793 -50.0195 -20.8047q-22.5752 -7.52441 -49.1328 -12.8369q-15.9355 -3.54102 -7.96875 -2.65527q5.3125 0 14.165 -3.54199l6.19727 -2.6543q1.77051 -0.886719 1.77051 -2.65625q0 -1.77148 -9.73828 1.76953
q-12.3945 5.31152 -29.2139 2.21387q-16.8213 -3.09863 -54.0029 -16.3779q-10.624 -4.42773 -19.0342 -9.2959q-8.41016 -4.86914 -24.3457 -16.3779l-12.3945 -9.7373h12.3945q8.85254 0 11.5088 -0.442383q2.65527 -0.443359 2.21289 -1.77246
q-0.442383 -1.32617 -2.21289 -1.32617h-11.5088q-12.3945 0 -19.9189 -3.09961q-7.52539 -3.09766 -26.1162 -15.4912l-14.165 -9.73828q-4.42773 -4.42773 -12.3936 -10.625l-19.4766 -16.8203q-7.08203 -5.3125 -13.2793 -11.5088l-21.248 -15.0498
q-22.1318 -15.0498 -31.8701 -24.7881l-7.08203 -6.19727l-7.96777 -6.19629q-7.08203 -4.42773 -13.2783 -10.625l-7.96875 -6.19629q-12.3945 -9.73828 -15.0498 -21.2471t0.885742 -33.6406l1.76953 -10.624q0 -3.54102 -0.442383 -3.54102t-1.32715 -0.885742
l-6.19727 -15.9355q-2.65527 -7.96582 -4.86914 -16.377q-2.21289 -8.41113 -3.09961 -18.1484q0.886719 -5.3125 4.86914 -11.9521q3.98438 -6.64062 7.52539 -8.40918q3.54102 -1.77051 9.2959 -3.09961q5.75488 -1.32715 10.1807 -1.32715q6.19629 0 12.8369 1.32715
q6.64062 1.3291 9.2959 3.09961l15.9346 11.5088q3.54199 1.76953 21.6895 20.3604q18.1484 18.5908 19.9199 21.248h-3.54102q-5.31152 -0.886719 -10.623 -1.32812q-5.31348 -0.443359 -5.75586 0.441406q-0.442383 0.886719 5.75586 1.77148
q11.5078 1.77148 24.7871 7.08203q13.2793 5.3125 23.9043 12.3945l16.8193 9.73828q13.2793 7.96875 21.2471 13.2783l12.3945 10.624q6.19727 4.42676 7.52441 3.54199t-3.98242 -5.3125q-5.3125 -4.42578 -7.52637 -9.73828q-2.21191 -5.31055 -2.21191 -14.1641
q-0.887695 -13.2803 4.42578 -34.084q5.3125 -20.8047 12.3936 -36.7402q2.65625 -5.31152 1.32812 -4.86914q-1.32812 0.443359 -4.86914 6.64062q-3.54004 6.19727 -4.86816 11.5078q-1.3291 5.3125 -4.87012 3.54199q-11.5088 -4.42676 -19.9189 -16.3779
q-8.41016 -11.9502 -16.3789 -35.8545l-5.31055 -13.2793q-2.65625 -6.19727 -3.54199 -9.7373q-2.6543 -7.96875 -4.42578 -7.08301t3.54102 15.9355q5.3125 17.7051 8.41016 27.001q3.09863 9.2959 7.52539 16.377l2.65527 5.3125l-0.884766 1.77148v1.76953
l2.65625 7.96875q2.6543 9.7373 3.9834 16.8203q1.32812 7.08203 0.443359 7.9668q-0.885742 0.886719 -4.42676 1.77051q-9.74023 1.77051 -22.1318 7.08203q-12.3955 5.3125 -11.5098 6.19727q0.884766 0.885742 3.54102 0l27.4443 -7.9668
q4.42578 -0.886719 7.96777 -0.886719q3.54102 0 8.85254 0.443359t6.19629 1.32812v3.54102q-2.65527 9.73828 -2.65527 19.9199q0 10.1807 1.77051 17.2637q0.884766 1.76855 -2.65625 -1.3291q-3.54004 -3.09766 -7.08105 -5.75391l-28.3301 -16.8213
q-6.19727 -4.42578 -15.0498 -8.41016t-16.8203 -6.63867q-3.54297 -1.77148 -3.54297 -2.65625q0 -0.886719 -4.42578 -6.63965q-4.42578 -5.75488 -9.7373 -10.1816l-19.4756 -19.4756l-19.4775 -18.5908v-8.85254q-0.884766 -8.85352 -1.77051 -17.707l-3.54102 -28.3291
q-1.77051 -17.7061 1.77051 -27.8867t14.165 -16.3779q5.31152 -4.42676 7.08203 -4.42676q1.77148 0 4.42676 3.54199l8.85156 7.08203l11.5098 8.85254q33.6416 25.6729 48.6914 22.1318q6.19531 -0.885742 11.5088 11.5088q5.31152 12.3945 12.3936 21.2471
t19.4766 19.4766q12.3936 10.625 13.2793 14.6074q0.885742 3.98438 2.65625 4.86914q1.77051 0.885742 0.885742 -3.54199q-0.885742 -4.4248 -8.85352 -15.0479q-3.54004 -4.42773 -9.73828 -9.74023l-9.73828 -8.85156q-13.2803 -13.2812 -17.7061 -24.7881
q-4.42676 -11.5098 -6.63965 -11.9521q-2.21387 -0.442383 -0.442383 -1.32715q1.76953 -0.887695 2.65527 -2.65723t-5.31152 0.884766q-6.19629 2.65723 -12.3936 0.884766q-6.19727 -1.76953 -20.3613 -10.6221l-11.5098 -7.08203l-17.7061 -13.2793
q-12.3936 -8.85352 -24.7881 -23.0176l-15.0488 -18.5918l-6.19824 -10.624l2.65723 0.886719q12.3936 5.31152 -2.65723 -5.3125q-7.96777 -5.3125 -13.7217 -10.623q-5.75391 -5.31152 -13.7227 -14.165l-10.6221 -12.3936q-4.42676 -4.42676 -7.08398 -8.41016
q-2.6543 -3.98438 -6.19531 -12.3945q-3.54297 -8.41016 -1.77148 -7.96875q1.77148 0.444336 -0.443359 -1.32715q-2.21289 -1.76953 -2.21289 -5.31152q0 -7.08398 -2.65527 -7.08398t-1.76953 3.54297v1.77051q-2.65723 -0.885742 -13.2803 -13.2793
q-10.624 -12.3945 -15.0498 -18.5908q-7.96875 -12.3955 -8.85352 -12.8379t-3.54199 -3.9834l-2.65527 -4.42773q-1.77148 -1.76855 -4.4248 -9.29395q-2.65723 -7.52539 -3.54297 -11.0664q-2.65527 -14.1641 -1.76953 -21.2471q0.884766 -7.08203 4.42676 -11.9512
q3.53906 -4.86914 5.31055 -4.86914q1.77051 0 4.42676 3.98438q2.65527 3.9834 8.41113 10.1787q5.75391 6.19824 8.85156 7.96875q3.09863 1.77148 10.1816 2.21387q7.08203 0.443359 7.08203 -1.3291q0 -1.76953 -11.5088 -2.65527q-3.54102 -0.884766 -5.75488 -2.21387
q-2.21289 -1.32715 -7.52441 -6.63965q-14.165 -13.2783 -9.73828 -13.2783q1.77051 0 2.65527 0.885742l3.54102 1.76953q2.65723 0.885742 4.42773 2.65625l16.8203 11.5098l26.5576 21.2451q5.3125 5.3125 9.73926 8.85352l10.624 7.96875
q1.76953 0.884766 7.08105 6.19629q9.73828 9.73828 19.0352 17.2646q9.29492 7.52246 14.6064 10.1787q3.54102 0.885742 10.623 5.3125q7.08301 4.42578 12.3936 8.85352l1.77246 0.884766q0.884766 0.885742 5.31055 3.54004l7.08398 5.3125
q4.42578 4.42578 7.96582 6.63965q3.54102 2.21387 8.85352 4.86914q13.2793 6.19727 22.1318 13.2803q3.54199 3.54102 8.85352 7.08203q5.3125 3.54102 9.73828 6.19727l58.4297 30.9844q8.85254 4.42676 14.6064 8.41113q5.75586 3.98438 16.3789 12.8359
q4.4248 4.42676 5.75293 3.98438q1.3291 -0.442383 3.98438 1.32715l34.5273 18.5908l15.0488 8.85352q14.165 7.96777 23.4609 15.4922q9.2959 7.52637 17.7051 15.4941q8.41113 7.96582 9.73828 8.40918q1.32812 0.441406 -1.32715 -1.32812l-6.19727 -7.96777
q-7.9668 -8.85352 -17.2627 -16.8193q-9.29688 -7.96777 -23.46 -16.8203l-16.8213 -9.73828l-32.7559 -17.707q-3.54102 -1.77051 -2.65625 -1.77051l6.19824 0.885742q10.6221 0.884766 30.542 0.884766q19.9189 0 27.8867 -0.884766q13.2793 -1.77051 21.2471 0
l4.42676 0.884766q6.19629 1.77148 10.623 3.09863q4.42578 1.32715 6.19727 2.21289l7.9668 4.42773q9.73926 5.31152 15.0508 9.73828q5.31152 4.42578 5.31152 7.96777l4.42578 7.08203l14.166 24.7881q5.31055 9.7373 9.7373 16.8203q4.42676 7.08203 12.3945 17.7061
l10.623 15.9355l7.96875 13.2783l22.1318 38.9531q4.42676 8.85254 12.8359 22.5752q8.41016 13.7217 18.1504 27.001l8.85156 14.165q7.9668 10.623 20.3613 27.4443q10.624 14.165 16.8213 21.6895t14.1641 15.4922l20.3613 21.2471q7.96875 7.96777 12.3955 11.9521
q4.42578 3.98438 10.6221 8.41016q12.3945 7.96777 27.8877 14.1641q15.4932 6.19824 19.918 4.42773q1.77148 -0.884766 0.885742 -1.77148h-4.42578q-6.19727 -1.77051 -23.0186 -11.5088q-16.8203 -9.7373 -26.5576 -16.8213q-7.96875 -6.19629 -25.2314 -24.7871
q-17.2637 -18.5908 -27.001 -29.2148q-19.4756 -25.6738 -40.2812 -55.7734q-20.8047 -30.1006 -34.083 -54.8877l-28.3291 -49.5771l-20.3633 -30.0996q-4.42578 -6.19824 -7.96777 -13.2783l-6.19531 -11.5107l-14.166 -23.9014q-4.42578 -7.96777 -7.52539 -11.5088
q-3.09766 -3.54199 -9.29492 -7.08301l-7.08203 -3.54199q-6.19727 -3.54004 -11.0654 -5.31152q-4.86914 -1.77051 -11.9531 -3.54102q-10.6221 -1.77051 -16.8203 -2.21191q-6.19629 -0.443359 -14.1641 1.32715q-8.85254 0.884766 -28.7725 1.32812
q-19.918 0.442383 -32.3135 -0.443359q-8.85352 -0.884766 -11.0654 -1.32715q-2.21289 -0.443359 -3.9834 -2.21289q-9.73926 -9.73926 -27.4443 -19.4775l-69.0527 -37.1816l-7.08301 -4.42773q-7.08301 -6.19629 -11.9512 -9.29395q-4.86914 -3.09961 -11.9512 -6.64062
q-4.42676 -2.65527 -8.41113 -5.31152q-3.98242 -2.65625 -10.623 -8.41016q-6.63965 -5.75391 -16.3779 -11.9521l-7.96777 -6.19727q-6.19727 -3.54102 -9.73926 -6.19629q-5.31055 -2.65625 -14.1631 -9.73828q-8.85352 -7.08203 -15.9346 -14.1641l-7.96875 -7.08301
l-56.6592 -43.3779l-10.623 -7.96875q-9.73828 -7.08301 -16.8203 -4.42676zM118.649 173.847q-2.65625 3.54102 -1.77148 3.54102q0.885742 0 2.65625 -1.77051t1.77051 -3.09863t-2.65527 1.32812zM209.834 244.67q-6.19727 2.65625 -11.0654 7.52539
q-4.86914 4.86914 -3.98438 5.75488t2.65625 0q7.08105 -7.96777 14.1641 -11.5088q1.77051 -0.886719 1.77051 -1.77148q0 -0.885742 -3.54102 0zM223.113 254.408q-4.42578 1.77148 -7.52441 4.42773q-3.09863 2.6543 -3.09863 4.42578q0 1.77051 5.31152 -3.54102
q4.42676 -2.65625 7.08203 -4.42676t2.21289 -2.21387q-0.442383 -0.442383 -3.9834 1.32812zM457.717 339.396q-2.65723 2.65625 -2.65723 3.98438q0 1.32715 1.77148 -1.32812l3.54102 -2.65625q2.65527 -1.77051 1.32715 -1.77051q-1.32715 0 -3.98242 1.77051z
M397.516 378.35q-7.9668 7.08301 -6.19727 7.08301q1.77148 0 6.64062 -4.86914t5.75488 -7.08301q0.884766 -2.21387 -6.19824 4.86914zM193.899 419.958q1.76953 1.77051 11.9502 11.9512q10.1816 10.1826 15.4941 14.6084q11.5078 7.96582 21.2461 12.3936
q9.7373 4.42578 10.1807 2.65625q0.442383 -1.77051 -4.86914 -3.54199q-22.1318 -10.623 -40.7227 -27.4443l-10.624 -9.7373q-2.65527 -2.65625 -2.65527 -0.885742zM127.503 458.025v10.625q0 13.2783 -2.21387 22.5742q-2.21387 9.29492 -9.2959 19.918
q-7.08301 10.625 -7.96777 10.625q-0.885742 0 -0.443359 0.884766q0.443359 0.884766 3.98438 -1.77148q5.31152 -6.19629 10.623 -16.377q5.31348 -10.1816 7.08203 -19.0352q1.77051 -8.85254 1.77051 -17.7051t-1.32715 -9.2959q-1.32715 -0.442383 -2.21191 -0.442383z
M269.149 474.847q3.54102 2.65527 8.41016 4.86816q4.86914 2.21387 7.08105 2.65723q2.21387 0.441406 2.21387 1.32715l-5.31055 15.9365q0 1.76855 -0.887695 1.76855l-11.5068 -1.76855q-2.65625 0.883789 -1.77148 -0.886719q2.65625 -8.85254 0 -20.3613
q-1.76953 -7.08203 1.77148 -3.54102zM779.962 643.052v3.54102v3.54102q0 20.3623 -8.85352 46.0352q-8.85156 25.6738 -35.4102 74.3643q-16.8203 31.873 -34.9697 69.0537q-18.1484 37.1836 -27 57.5439l-9.73828 17.7061l-18.5908 -10.623q0 -0.885742 5.31055 -8.85254
l8.85254 -15.0518q22.1328 -33.6396 34.5273 -62.8555q12.3926 -29.2148 23.0176 -58.4277l9.7373 -27.4453l12.3945 -30.9854q7.96777 -19.4766 11.9521 -32.7559q3.9834 -13.2783 6.63867 -25.6729l0.884766 -7.08203zM663.104 697.055q0 3.54102 -7.08301 14.6074
q-7.08203 11.0654 -18.5908 24.3457l-6.19824 7.9668q-0.884766 1.77148 -0.441406 2.65723q0.441406 0.884766 2.65527 -0.443359q2.21387 -1.3291 6.63965 -8.41016q12.3945 -14.1641 19.9199 -27.4434q7.52539 -13.2803 3.98438 -15.0508q-0.885742 0 -0.885742 1.77051z
" />
</svg>
