<?xml version="1.0" standalone="no"?>
<!DOCTYPE svg PUBLIC "-//W3C//DTD SVG 1.1//EN" "http://www.w3.org/Graphics/SVG/1.1/DTD/svg11.dtd" >
<svg xmlns="http://www.w3.org/2000/svg" xmlns:xlink="http://www.w3.org/1999/xlink" version="1.1" viewBox="-10 0 860 1024">
   <path fill="currentColor"
d="M784.626 105.765q-2.65527 0.884766 -6.19629 4.42773q-12.3955 10.624 -21.6904 16.8193q-9.2959 6.19824 -26.1152 14.165l-23.9033 10.624q-2.65625 0.884766 -5.3125 2.65527t-3.54102 3.09863q-0.885742 1.32812 -5.31152 4.86914l-34.5264 26.5596
q-9.73828 7.08203 -21.6904 16.377q-11.9512 9.29688 -19.9189 16.3789l-13.2793 10.623l-23.9033 16.8213l-17.7061 10.623q-4.42578 2.65625 -11.5088 6.19629l-15.0488 6.19727q-7.96777 3.54102 -25.6729 12.8369q-17.7061 9.29492 -23.9043 11.9521l-10.6221 7.08105
l-6.19824 5.31348l-10.624 7.08105l-18.5908 -0.884766q-15.9355 0 -27.001 0.884766q-11.0664 0.884766 -24.3457 2.65625l-39.8379 0.884766q-3.54199 0 -4.42676 0.884766q-10.623 6.19824 -24.3457 20.3623q-13.7217 14.165 -18.1484 24.7891l-11.5088 26.5586
q-3.54004 10.623 -6.19727 15.9346q-2.65527 5.31152 -6.63867 10.624q-3.98438 5.31152 -8.41113 12.3926l-7.9668 13.2803l-57.5439 89.415q-6.19824 10.623 -22.1328 29.6582q-15.9346 19.0332 -30.9854 28.7715l-52.2324 28.3291q-10.624 4.42676 -21.2471 7.96777
l-11.5088 4.42578l-2.65625 -17.7061l-0.884766 -18.5908q0 -12.3936 -3.54102 -15.9346l-30.9844 -0.886719q-6.19824 -0.884766 -7.08301 8.85352q-4.42773 57.543 5.75391 156.255q10.1816 98.71 26.1162 158.024q3.54102 10.623 4.86816 13.7217
q1.3291 3.09961 2.21387 3.09961l4.42676 -1.77148l4.42676 -1.76953q1.76953 -1.77148 17.2627 -6.6416q15.4922 -4.86914 26.1172 -7.52344q1.76953 -0.885742 -0.885742 -10.1826q-2.65723 -9.29492 -2.65723 -12.835q0 -0.885742 7.08398 -2.65625l15.9346 -2.65625
q7.96777 -0.884766 25.2305 -2.21289t38.5107 -2.21289q61.9697 -1.77148 90.2998 -15.0498l11.5088 -4.42676l29.2148 -14.165l14.1641 -6.19727q15.9355 -6.19629 23.0176 -12.3945q2.65625 -1.76953 4.42578 -2.65527q29.2168 -4.42676 49.5771 -13.2793
q12.3945 -5.31152 20.8037 -10.1807q8.41113 -4.86914 15.4951 -10.1807l23.9014 -17.707l22.1328 -19.4756q13.2783 -10.623 20.3623 -19.0342q7.08105 -8.41113 17.7051 -23.46l9.73828 -13.2793l20.3623 -0.884766q6.19629 0 13.7217 -3.09863
q7.52441 -3.09961 8.41016 -4.86914l16.8203 -11.5098q30.9854 -21.248 56.6582 -57.543q4.42676 -6.19727 7.08203 -8.85352l14.166 -11.5088q6.19727 -5.31152 22.1318 -30.0996l11.5078 -16.8203q2.65625 -3.54199 5.75488 -10.1807q3.09863 -6.6416 3.9834 -11.0664
l2.65723 -8.85352q5.31152 -21.2471 -7.96777 -32.7559q-15.0498 -13.2793 -33.6416 -12.3936q-3.54102 0.884766 -8.85352 -6.19824q-2.65527 -4.42676 -9.73828 -12.3936l-3.54004 -3.54004l1.77051 -3.54199q1.76953 -6.19727 2.65527 -13.2793
q0.884766 -7.08301 0.884766 -12.3945q0 -3.54199 -2.65527 -11.5088q-2.65527 -7.96777 -3.54004 -10.624q-3.54199 -6.19531 -15.0508 -14.1631q-7.08203 -5.3125 -11.5088 -7.52637q-4.42676 -2.21191 -15.0498 -7.52539l-7.96777 -3.54004l55.7725 -51.3467
l12.3955 -10.624q8.85254 -7.96777 16.8193 -15.4922q7.96875 -7.52539 10.625 -11.9521l6.19531 -9.7373l3.54199 -7.08301l12.3945 -9.73926q16.8203 -11.5078 31.4277 -26.1152q14.6074 -14.6064 32.3135 -36.7393q8.85254 -10.625 12.3936 -16.3779
q3.54199 -5.75391 6.19629 -14.165q2.65625 -8.41016 2.65625 -13.7207q0 -5.3125 -2.65625 -10.626q-7.08105 -14.1631 -15.0488 -19.918q-7.96875 -5.75488 -15.9355 -2.21387zM793.478 109.306q2.65723 0.886719 3.54297 0.886719q4.42578 0.884766 10.623 10.1807
t7.08203 16.377q0 5.31348 -2.65625 14.165q-2.65527 8.85352 -6.19629 15.0508q-1.76953 2.65527 -9.73828 12.3936l-15.9355 19.4756q-5.31152 7.08398 -15.0508 16.3789q-9.7373 9.29492 -19.4766 17.2637q-5.31055 4.42578 -8.85156 6.63965
q-3.54102 2.21289 -8.85352 6.63867l-10.624 7.96875q-4.4248 3.54102 -5.75293 7.96777q-1.3291 4.42578 -9.2959 14.1641q-7.96777 9.73828 -20.8037 20.3613q-12.8379 10.624 -30.5439 27.4443q-17.7051 16.8193 -30.0996 30.1006l-7.08203 7.9668l-15.0508 -7.08105
l-45.1494 -17.707q-6.19629 -2.65527 -17.7051 -5.3125l-13.2793 -2.65527q-21.2471 -6.19727 -48.6914 -9.73828q-8.85352 -0.885742 -10.1816 -1.3291q-1.32715 -0.441406 3.54199 -3.09766q4.86914 -2.65527 8.41016 -6.19629q7.9668 -6.19727 27.4434 -16.3779
q19.4775 -10.1807 37.1826 -16.3779q15.0498 -6.19727 28.3291 -15.0498l10.623 -6.19727l26.5596 -18.5908q7.08203 -5.3125 14.166 -10.624q8.85156 -8.85254 20.3604 -18.1494q11.5088 -9.29492 23.0176 -17.2617l10.624 -7.08301l21.2461 -16.8203l6.19727 -6.19727
q5.3125 -4.42676 18.5908 -9.73828l18.5918 -8.85254q23.0176 -10.623 41.6084 -27.4443q4.42676 -5.31152 7.08203 -5.75391q2.65527 -0.444336 6.19629 2.21191zM797.905 118.159q0 7.96777 -4.42773 16.3789q-4.42578 8.41016 -8.85156 11.9502
q-1.77051 0.885742 -11.5088 3.9834q-9.73828 3.09863 -17.7061 3.98438h-6.19727l-7.08203 -7.96777q-2.65625 -3.54004 -2.21387 -0.884766q0.443359 2.65625 3.98438 6.63965t6.19727 4.86914q11.5088 -0.885742 24.3457 -4.86914q12.8359 -3.9834 16.3779 -7.52441
l3.54102 -6.19629q3.54102 -6.19824 5.31152 -13.7227q1.77051 -7.52539 0.885742 -11.0664q-1.77148 -1.77051 -2.65625 4.42578zM693.44 176.589q-1.77051 0.885742 2.65625 5.31152q4.42578 4.42773 4.42578 7.52539q0 3.09863 0.885742 0
q0.885742 -3.09766 -2.65625 -8.41113q-3.54102 -5.31152 -5.31152 -4.42578zM605.797 258.035q-1.77051 0 0 2.65723q1.77051 2.65527 1.77051 6.19531q0 6.19727 2.21289 3.09961q2.21387 -3.09961 0.443359 -7.96777q-1.77148 -4.86914 -4.42676 -3.98438z
M587.205 261.577q0 0.885742 3.54199 4.42578q3.54102 3.54199 5.31152 6.63965q1.77051 3.09863 1.77051 0.442383q0 -2.65527 -4.42578 -7.52441q-4.42676 -4.86816 -6.19824 -3.9834zM449.985 320.891q12.3945 0.885742 30.542 3.09961q18.1494 2.21289 30.543 4.86914
l15.0498 3.54102q16.8203 3.54102 24.7881 7.08105l21.248 7.96875q7.08105 3.54199 22.1318 8.85254l7.08301 3.54102l28.3291 14.165q4.42578 1.77148 7.96777 3.54102l11.5078 7.96777q4.42578 3.54199 8.41016 7.08301q3.98438 3.54004 4.86914 5.3125
q8.85254 21.2461 2.65723 40.7217q-0.885742 5.3125 -4.42773 0q-6.19727 -7.08301 -19.4756 -17.2617q-13.2793 -10.1816 -22.1318 -15.4932l-7.96777 -4.42578q-8.85352 -5.31348 -15.0508 -7.96875l-9.73828 -3.54102q-19.4756 -7.9668 -43.8213 -15.9355
q-24.3457 -7.9668 -29.6582 -8.85352q-2.65527 0.886719 -1.32812 2.21387q1.32812 1.32715 4.42676 1.77051q3.09961 0.443359 12.8369 3.98438l47.8057 16.8203l24.7891 10.623l21.2451 12.3936q7.96875 4.42773 11.5098 7.96875l17.7061 13.2783l16.8203 19.4775
q11.5088 13.2793 15.9355 23.4609q4.42676 10.1797 1.77148 19.918q-0.885742 6.19727 -5.3125 16.8203q-4.42676 10.625 -7.96875 15.9355q-1.77051 3.54102 -2.65527 3.09961q-0.885742 -0.444336 -5.31055 -5.75586q-4.42773 -5.31055 -11.9521 -13.2793
q-7.52539 -7.96777 -14.6074 -14.1631l-31.8711 -27.4443q-6.19727 -5.3125 -14.1631 -10.625q-25.6738 -18.5908 -50.4629 -29.2139l-9.73828 -5.31152q-7.96777 -3.54102 -8.40918 -2.21289q-0.443359 1.32812 2.6543 2.65527q3.09863 1.32812 15.4932 7.52441
l20.3613 11.5098q15.0498 8.85254 27.8877 18.1475q12.8359 9.29688 27.8867 22.5752l22.1318 20.3613l15.9355 16.8223q18.5908 20.3604 20.3613 42.4932q0 12.3936 -3.09863 18.1475q-3.09863 5.75586 -4.86914 8.41113q-14.165 22.1318 -29.2139 38.0684
q-15.0508 15.9346 -33.6416 30.0996l-14.1641 10.6221l-11.5098 7.96875q-3.54102 0.884766 -10.623 2.21387q-7.08301 1.32715 -13.2803 1.32715q-7.9668 0 -16.8203 -1.77051t-20.3604 -7.08301l-12.3955 -4.42578q-4.42676 -1.77148 -8.85156 -3.54102l-9.73926 -5.31152
q-4.42676 -2.65625 -4.42676 -3.54102l4.42676 -15.9355q7.08203 -17.707 7.96777 -21.6904q0.885742 -3.98242 1.77148 -3.09766q3.54102 0.884766 17.2627 0t18.5908 -3.09863q4.86914 -2.21289 3.98438 2.21387q0 1.76953 0.441406 2.21289
q0.443359 0.442383 1.32812 3.9834q2.65625 7.96777 10.1816 20.3623q7.52441 12.3926 9.73828 13.7217q2.21191 1.32812 -2.21387 -6.64062q-7.9668 -13.2793 -11.9512 -20.8037q-3.9834 -7.52539 -4.86914 -11.5078q-0.885742 -3.98438 -0.441406 -5.3125
q0.441406 -1.32812 2.21191 -2.21289l6.19727 -3.54199q3.54004 -2.65527 4.4248 -2.65527q0.886719 0 2.65723 3.09766q1.77051 3.09961 6.19629 5.3125q4.42676 2.21289 12.3945 3.98438q10.624 2.65527 20.8047 3.54004q10.1807 0.885742 14.6074 0
q7.08203 -1.77051 -9.2959 -2.21191q-16.377 -0.443359 -27.8857 -3.54199q-11.5098 -3.09863 -15.0508 -7.52539q-1.77051 -2.65527 -1.77051 -4.42676q0 -1.77051 2.65625 -6.19727q2.65527 -4.42578 3.98438 -7.9668q1.32812 -3.54102 1.32812 -7.96875l3.54102 -19.4756
q0 -0.884766 -0.886719 -0.884766q-0.884766 0 -0.884766 1.76953q-2.65625 8.85352 -3.98438 17.2637q-1.32715 8.41113 -6.63867 15.9355t-12.3945 11.9512l-7.08203 3.54199q-2.65625 1.77051 -6.19727 2.65625q-3.54102 0.884766 -11.5088 1.76953
q-15.0508 0.884766 -18.1484 0q-3.09863 -0.884766 -3.09863 -4.42578q0 -3.54199 -1.77051 -6.19727l-5.31152 -11.5088q-7.08301 -13.2803 -9.2959 -13.7227q-2.21387 -0.442383 1.32812 3.98438q1.77051 3.54102 4.42578 8.85254l6.19824 13.2793
q5.31152 8.85352 -3.54199 26.5596q-1.77148 5.31055 -3.54102 9.73828l-5.3125 15.0488q-4.4248 12.3936 -7.08105 18.5908l-11.5098 17.7061q-10.623 15.0508 -14.1641 20.3633l-15.0508 16.8193l-15.0498 15.9355q-23.0176 23.9023 -36.2959 23.0176q-5.3125 0 0 3.54102
q1.77051 0.884766 4.86816 0.884766h3.09863q0 2.65625 -5.31055 8.85352l-6.19824 9.73828q-12.3945 18.5908 -18.5908 23.9033q-6.19629 5.31055 -20.3633 10.623l-14.1631 6.19727l-37.1816 16.8203q-30.1016 14.165 -84.1035 15.9346q-40.7236 2.65625 -56.2158 3.98438
q-15.4932 1.32812 -28.7725 3.98438l-11.5088 1.77051q-0.885742 0 -2.65625 -10.624l-7.9668 -43.3799q-10.624 -54.8877 -15.9365 -87.2012q-5.31055 -32.3125 -9.73828 -67.7236l-3.54004 -29.2158l5.31152 -0.884766q5.31152 -1.77051 11.0654 -3.98438
q5.75488 -2.21191 13.7227 -5.75391l30.9844 -16.8203q23.9033 -12.3945 32.7568 -17.7061q3.54102 -3.54102 15.9355 -16.3789q12.3936 -12.8359 15.0498 -16.377l21.2471 -30.0996q10.623 -15.0508 30.0996 -45.1504l23.0176 -36.2969q7.08301 -12.3945 13.2793 -21.2461
q7.96875 -10.625 11.0654 -15.9355q3.09863 -5.3125 7.08301 -18.5918q3.9834 -13.2793 10.1807 -23.9033q6.19727 -10.6221 13.2793 -17.7061l15.0508 -14.1641q4.42578 -4.42578 7.52441 -7.08203t7.52539 -3.09961q4.42676 -0.441406 18.5918 -0.441406
q13.2793 0 20.8027 -0.443359q7.52637 -0.442383 23.4609 -3.09863zM388.015 350.105q-0.884766 0 -3.54199 0.886719q-9.7373 1.77051 -9.7373 7.08203q0 2.65527 1.77051 -0.442383q1.77148 -3.09863 11.5088 -4.86914l6.19629 -0.885742q0.885742 0 0 -1.32812
q-0.884766 -1.32812 -6.19629 -0.443359zM426.083 393.485q-4.42676 0.884766 -7.96777 4.42773q-3.54102 3.54102 -2.65625 5.31055q0.884766 1.77051 1.32715 -0.441406q0.443359 -2.21484 3.98438 -3.98438q3.54199 -1.77148 8.85254 -2.21387
q5.3125 -0.443359 3.9834 -2.21387q-1.32812 -1.76953 -7.52344 -0.884766zM461.494 459.882q-7.08203 1.77051 -7.08203 3.98438q0 2.21289 1.76953 0.443359q1.77051 -1.77051 6.63965 -2.65723q4.86914 -0.885742 9.29688 -0.442383q4.42578 0.442383 2.65625 -0.884766
q-1.77148 -1.32812 -5.75586 -1.32812q-3.9834 0 -7.52441 0.884766zM695.211 473.162q7.96875 0.885742 11.9531 2.65625q3.9834 1.76953 9.29395 6.19629q10.623 7.08203 11.5088 19.4756q0.885742 12.3945 -8.85352 30.9854q-3.54004 7.08301 -11.0645 19.0352
q-7.52637 11.9502 -13.7227 20.8037l-7.08203 7.9668q-2.65625 4.42773 -5.3125 7.08398q-9.73828 8.85156 -8.85352 7.08301l2.65625 -3.54199q5.3125 -8.85352 4.87012 -22.1318q-0.443359 -13.2803 -6.63965 -25.6738q-2.65723 -4.42676 -2.21387 -5.75488
q0.442383 -1.3291 2.65527 -4.42578q2.21387 -3.09961 4.86914 -7.52637l6.19824 -13.2783q10.623 -23.9043 4.42676 -36.2969q-1.77148 -2.65625 -0.885742 -3.09863t6.19629 0.442383zM49.833 588.25h0.885742h1.76953v3.54102q0.885742 11.5098 6.64062 61.5283
q5.75391 50.0186 11.0664 81.0039q7.08105 43.3799 18.1484 97.3828q11.0654 54.002 12.8359 61.084q0.885742 3.54102 0.885742 4.42676q0 0.886719 -3.54102 1.77148l-36.2979 11.5088l-5.31152 -24.7891q-4.42676 -23.0166 -7.08203 -39.8379
q-6.19727 -47.8057 -11.5088 -89.415q-5.3125 -41.6084 -8.85352 -92.0703q-0.884766 -28.3291 -0.884766 -51.3457l0.884766 -24.7891l7.96777 -0.884766q7.08398 0 12.3945 0.884766zM490.709 667.926q3.54102 1.77148 7.96777 3.54102l18.5908 7.08301
q5.3125 2.65527 12.8359 5.31152q7.52637 2.65723 11.0674 3.09961q3.54199 0.442383 -0.885742 3.98242q-2.65527 2.65527 -6.19824 7.96777q-11.5068 15.9355 -20.8037 26.1162q-9.2959 10.1816 -25.2305 23.46l-8.85352 7.96777q-5.31055 4.42676 -14.1641 11.5098
l-21.2461 15.0488q-7.08301 4.42676 -20.3633 10.624q-13.2793 6.19727 -23.0166 9.73828l-18.5908 5.3125q-12.3945 3.54004 -13.2793 3.09766q-0.886719 -0.443359 1.32715 -4.42578q2.21289 -3.98438 6.63965 -9.73828q4.42676 -5.75488 7.08203 -9.2959
l7.08301 -11.5098q2.65527 -5.31055 3.54004 -6.19629q8.85352 -4.42676 22.1328 -16.8203q13.2793 -12.3945 23.9033 -25.6738l9.73828 -11.5098q8.85254 -11.5068 18.1484 -27q9.29492 -15.4932 11.9512 -23.46q0.885742 -2.65625 2.21289 -2.21387
q1.32812 0.442383 8.41113 3.9834z" />
</svg>
