<svg xmlns="http://www.w3.org/2000/svg" viewBox="0 0 300 120" width="300" height="120">
  <rect x="0" y="0" width="300" height="120" fill="#fafafa"/>
  <g stroke="#333" stroke-width="0.8" fill="none">
    <line x1="15" y1="50" x2="285" y2="50"/>
    <line x1="15" y1="60" x2="285" y2="60"/>
    <line x1="15" y1="70" x2="285" y2="70"/>
    <line x1="15" y1="80" x2="285" y2="80"/>
    <line x1="15" y1="90" x2="285" y2="90"/>
  </g>
  <text x="15" y="22" font-family="sans-serif" font-size="11" fill="#444">1/8+2/16: shorter secondary (16ths only)</text>
  <ellipse cx="70" cy="70" rx="7" ry="5" fill="#1a1a1a"/>
  <ellipse cx="130" cy="70" rx="7" ry="5" fill="#1a1a1a"/>
  <ellipse cx="190" cy="70" rx="7" ry="5" fill="#1a1a1a"/>
  <line x1="76" y1="70" x2="76" y2="22" stroke="#1a1a1a" stroke-width="1" stroke-linecap="butt"/>
  <line x1="136" y1="70" x2="136" y2="22" stroke="#1a1a1a" stroke-width="1" stroke-linecap="butt"/>
  <line x1="196" y1="70" x2="196" y2="22" stroke="#1a1a1a" stroke-width="1" stroke-linecap="butt"/>
  <line x1="76" y1="22" x2="196" y2="22" stroke="#1a1a1a" stroke-width="5" stroke-linecap="butt"/>
  <line x1="136" y1="19.5" x2="196" y2="19.5" stroke="#1a1a1a" stroke-width="5" stroke-linecap="butt"/>
</svg>
