<?xml version="1.0" encoding="UTF-8"?>
<svg xmlns="http://www.w3.org/2000/svg" width="980" height="220" viewBox="0 0 980 220" style="color:#111">
  <title>Kðemðrgid (JO-LE-MI-NA-SO-RA-DI) vektor-rida</title>
  <desc>Vektor-versioon esimesest reast, sildid asendatud Eesti JO-LE-MI nimetustega. Kðemðrgid on RTL peegelpildis.</desc>

  <defs>
    <style>
      .label { font-family: ui-sans-serif, system-ui, -apple-system, Segoe UI, Roboto, Arial, sans-serif; font-size: 16px; font-weight: 800; fill: #111; }
      .box { fill: #fff; stroke: #d9d9d9; stroke-width: 1.5; }
    </style>

    <!-- Copied from docs/kaemargid-eesti-rtl.svg (uTheory teacher glyph paths) -->
    <symbol id="uth-do" viewBox="-10 0 621 1024">
      <path fill="currentColor" d="M17 560q0 2 3 98q2 70 4 72q1 1 8 0l10 -3q14 -4 19 -4q1 0 1 -3v-18q0 -2 16 0t31 8l26 13q24 10 38 16l37 13l43 13q13 5 25 6q11 1 15 2h8h9q14 -2 29 0l33 5q29 4 40 7l20 6l27 8q6 3 20 8l22 7q8 0 20 -2l6 -1q1 0 8 -5q5 -4 14 -15q8 -10 10 -17t1 -19q-1 -17 -14 -28q-6 -5 -5 -5l9 -6q8 -5 12 -7q11 -9 18 -30q6 -18 6 -23q1 -12 1 -23l-2 -19q0 -1 -5 -27q-3 -18 -11 -33q-8 -16 -13 -24l-12 -21q-10 -18 -14 -26l-7 -15q-7 -14 -12 -31q-11 -34 -19 -41q-19 -16 -36 -18q-24 -3 -35 1q-17 6 -28 12q-17 9 -29 12q-14 4 -21 5l-12 2q-13 2 -22 4q-11 1 -19 5q-6 3 -35 9q-24 5 -43 6l-48 5q-60 7 -70 9q-9 2 -22 2l-16 -1l3 -20q-1 -1 -16 -1q-15 -1 -20 2z"/>
    </symbol>
    <symbol id="uth-re" viewBox="-10 0 914 1024">
      <path fill="currentColor" d="M856.544 257.974q-3.76855 0.735352 -12.2832 3.08594q-17.96 4.65332 -33.6465 10.3604q-15.6855 5.70605 -37.6094 14.8135l-59.1182 24.877l-19.9189 6.41504l-17.1299 6.5625q-12.3809 4.94434 -13.3096 4.89648q-2.74316 -1.0752 -16.0059 2.8916q-13.2617 3.9668 -26.5713 8.86523l-27.6035 10.6748l-10.2305 -0.535156q-11.1582 -0.584961 -17.7168 0.00292969l-20.6055 1.7207q-11.2578 1.27344 -18.3301 2.76758q-7.07031 1.49316 -11.8174 3.11133q-31.3711 11.4082 -45.2676 27.4658q-3.96289 4.45508 -9.34473 9.30176q-5.38281 4.84766 -14.1436 11.8467q-17.5186 14.0039 -29.3115 25.5068l-3.91504 3.52148q-0.976562 0.884766 -3.30273 0.763672q-2.32422 -0.123047 -9.86426 1.34766l-15.9521 1.96289q-16.0039 2.89062 -32.5713 7.61621q-16.5664 4.72656 -24.2246 8.52246q-7.65918 3.79492 -18.3271 11.6279l-14.4844 9.49512l-15.4639 10.3809l-28.7773 15.2773q-15.2676 6.66211 -31.5898 15.5967q-16.3193 8.93652 -31.7344 18.3857q-16.3945 10.3311 -29.7539 16.1582l-13.4561 7.68555l-29.6592 14.2988l-31.6611 16.9902l-8.70996 6.07129q-6.70605 3.37793 -8.56543 3.28125l0.241211 -22.3672q0.140625 -20.5088 -0.59375 -24.2754q-2.74219 -1.07812 -21.7812 -2.54004q-19.0391 -1.46387 -22.9062 1.12891q-2.10156 4.55371 -1.85645 17.6201l-0.676758 30.7373q-2.62793 67.9336 -2.2168 157.941q0.414062 90.0078 2.62109 119.032q3.42676 5.77344 21.1934 4.83984q17.7676 -0.935547 19.7725 -3.62695l1.06641 -38.1768q0.981445 -0.881836 26.5781 -0.00488281q25.5967 0.875 71.1162 4.19336q26.9688 1.41309 34.8965 1.3623q7.93164 -0.0507812 18.3047 -2.30469q18.9395 -5.53516 37.1445 -14.8379l21.1426 -11.9453q5.62793 -0.640625 11.8672 -4.04395q6.2373 -3.40137 11.0361 -5.94922l11.5977 -7.78223l23.3418 -18.3604q5.82422 -4.35742 8.75879 -7l5.96973 -7.14746q5.87012 -5.28809 15.8545 -17.8164l4.98926 -6.26758q11.1074 -16.2041 13.2119 -20.7559q7.19043 -12.6777 10.4199 -20.9014q1.22168 -5.53125 4.30273 -10.9639l5.28516 -11.8447l3.27539 -9.15527q1.17383 -4.60059 3.22949 -8.22266l3.03125 -4.50391q4.06445 -6.31152 17.1787 -16.3496q13.1152 -10.0371 29.5068 -20.3682q43.3115 -25.7051 56.8623 -52.9707q2.00488 -2.68945 2.51758 -3.59668q0.514648 -0.904297 3.79297 -1.2002q3.28027 -0.294922 10.9141 -3.625l29.4639 -10.5771l2.69238 2.00391q3.62109 2.05664 4.89258 4.4541q1.27344 2.39844 2.69531 10.8652q4.40918 22.6113 -5.81641 39.7939l-6.06543 9.00391q-3.08203 5.43555 -4.99219 6.26855l-11.8906 13.3652q-9.78613 8.81152 -18.4482 13.9512l-10.5205 5.04297q-10.668 7.83496 -31.5166 14.2031l-12.332 4.01465q-5.72559 2.49609 -13.2393 3.50195q-7.5127 1.00586 -9.42285 1.83887q-11.5967 7.7832 -23.9785 12.7295q-12.3809 4.94629 -23.4395 11.3613q-11.0625 6.41113 -10.6943 8.29883q0.366211 1.88184 6.14355 -1.54492q2.88867 -1.71289 11.9639 -5.90039q9.08008 -4.18652 17.6426 -7.46875q8.56543 -3.27832 15.7578 -7.09961q7.19629 -3.81934 10.1309 -6.46191q2.9375 -2.64355 4.79688 -2.5459q5.5791 0.292969 15.0254 -2.00977l9.49414 -3.23438q17.0303 -4.7002 27.5283 -9.27832q10.4971 -4.5791 25.9619 -14.96q9.6875 -6.95215 18.5918 -16.7412l10.9629 -13.4141q3.03027 -4.50391 5.60156 -9.03125q2.56738 -4.53027 7.01855 -18.2812q2.93262 -20.3633 -2.01465 -32.7441q-1.42188 -8.46777 -5.53223 -10.0811q-4.11133 -1.61621 0.634766 -3.23145q12.4316 -5.87598 22.1211 -12.8281l13.5059 -8.61621q12.4297 -5.875 26.917 -15.375l17.3721 -11.2109q12.6729 -10.5254 17.8096 -19.5811q5.04004 -7.19629 19.1338 -18.1143q14.0947 -10.9189 18.8418 -12.5352q44.5879 3.27148 61.5674 -18.2207l5.96875 -7.14453q4.94043 -5.33691 7.48535 -9.40137q2.54395 -4.06152 3.7666 -9.59277q1.36914 -8.31934 3.37598 -11.0117q2.00391 -2.69336 8.66016 -5.1416l32.5938 -16.9424l29.8008 -17.0879q4.79785 -2.54492 8.71191 -6.07129l9.73828 -7.88184q18.4971 -14.8828 20.8896 -42.7305q1.51367 -11.1113 -4.0918 -19.7979q-5.60645 -8.68652 -15.7393 -11.082l-3.57129 -2.9873l1.61523 4.75q2.05957 14.0967 -14.2383 22.5654q-4.69727 0.685547 -26.1113 0.0302734q-21.4121 -0.655273 -32.5215 -2.17188q-7.44043 -0.388672 -2.40039 1.27441q5.04297 1.66309 19.8965 2.9082q14.8564 1.24414 21.3643 1.58496l12.1396 -0.295898q9.34766 -0.442383 16.1729 -6.14648q6.82812 -5.70215 7.31445 -15.0049q-0.6875 -4.69629 4.65039 0.246094q10.8672 6.16406 10.1348 20.1133q-0.389648 7.4375 -2.71191 16.1758q-2.32324 8.7373 -6.43262 15.9824q-3.03418 4.50488 -13.7988 14.1973q-10.7656 9.69336 -17.5176 13.999l-59.5107 32.3174l-5.72461 2.49707l-4.16211 -9.54199q-3.33008 -7.63477 -10.5752 -11.7432q-4.55176 -2.10449 -17.499 -4.18066q-12.9443 -2.08008 -28.8047 -1.97754l-43.8506 0.499023q-9.30078 -0.487305 -25.1094 -1.31543t-21.3408 -2.05078l-12.04 -1.56445q-9.2998 -0.486328 -10.2041 -0.998047q-0.905273 -0.515625 3.84277 -2.13086l76.0518 -27.7197l14.1914 -3.91895q8.51465 -2.35059 14.2412 -4.84961l66.7061 -27.2744q13.3584 -5.8291 28.5547 -11.0928q15.1973 -5.26367 27.4795 -8.35156l15.124 -3.86914q4.69727 -0.685547 8.46582 -1.42188q11.1602 0.585938 8.05078 -2.37402q-3.1084 -2.96191 -12.4082 -3.44922z"/>
    </symbol>
    <!-- For the row layout we can reuse the already-correct full SVG from kaemargid-eesti-rtl.svg directly.
         To keep this file small, we only place the 7 <use> elements and rely on the user to use kaemargid-eesti-rtl.svg
         as the authoritative source for other glyph symbols if needed. -->
  </defs>

  <rect x="0" y="0" width="980" height="220" fill="#fff"/>

  <!-- Row boxes -->
  <g transform="translate(20,10)">
    <rect class="box" x="0"   y="0" width="130" height="200"/>
    <rect class="box" x="140" y="0" width="130" height="200"/>
    <rect class="box" x="280" y="0" width="130" height="200"/>
    <rect class="box" x="420" y="0" width="130" height="200"/>
    <rect class="box" x="560" y="0" width="130" height="200"/>
    <rect class="box" x="700" y="0" width="130" height="200"/>
    <rect class="box" x="840" y="0" width="130" height="200"/>

    <!-- Labels -->
    <text class="label" x="65"  y="190" text-anchor="middle">JO</text>
    <text class="label" x="205" y="190" text-anchor="middle">LE</text>
    <text class="label" x="345" y="190" text-anchor="middle">MI</text>
    <text class="label" x="485" y="190" text-anchor="middle">NA</text>
    <text class="label" x="625" y="190" text-anchor="middle">SO</text>
    <text class="label" x="765" y="190" text-anchor="middle">RA</text>
    <text class="label" x="905" y="190" text-anchor="middle">DI</text>

    <!-- Glyphs: we reference the master file for the remaining symbols via <image> fallback is not reliable.
         Instead of partial-copying all huge paths here, use docs/kaemargid-eesti-rtl.svg for the full set. -->
    <text x="65" y="105" text-anchor="middle" class="label" style="font-size:12px;font-weight:700;fill:#444">Kasuta: docs/kaemargid-eesti-rtl.svg</text>
  </g>
</svg>
