<?xml version="1.0" encoding="UTF-8"?>
<svg xmlns="http://www.w3.org/2000/svg" width="980" height="760" viewBox="0 0 980 760" style="color:#111">
  <title>uTheory vs Noodimeister vordlus: JO, RA, DI</title>
  <desc>
    Vasakul: uTheory algallika "teacher" glyph (taidetud, fill=currentColor).
    Paremal: sama glyph renderdatud Noodimeistri RTL-peegelpildina (translate(viewBoxWidth-20) scale(-1 1)).
    Eesmarg: kinnitada, et allikas ja stiil on sama; erinevused tulenevad ainult peegeldusest.
  </desc>

  <defs>
    <style>
      .frame { fill: #fff; stroke: #d9d9d9; stroke-width: 1.5; }
      .label { font-family: ui-sans-serif, system-ui, -apple-system, Segoe UI, Roboto, Arial, sans-serif; font-size: 16px; font-weight: 800; fill: #111; }
      .hint  { font-family: ui-sans-serif, system-ui, -apple-system, Segoe UI, Roboto, Arial, sans-serif; font-size: 12px; font-weight: 600; fill: #444; }
      .col   { font-family: ui-sans-serif, system-ui, -apple-system, Segoe UI, Roboto, Arial, sans-serif; font-size: 13px; font-weight: 800; fill: #111; }
    </style>

    <!-- Inline path data from uTheory glyph-svgs/*.svg (teacher) -->
    <!-- do-teacher.svg viewBox: -10 0 621 1024 -->
    <symbol id="uth-do" viewBox="-10 0 621 1024">
      <path fill="currentColor" d="M17 560q0 2 3 98q2 70 4 72q1 1 8 0l10 -3q14 -4 19 -4q1 0 1 -3v-18q0 -2 16 0t31 8l26 13q24 10 38 16l37 13l43 13q13 5 25 6q11 1 15 2h8h9q14 -2 29 0l33 5q29 4 40 7l20 6l27 8q6 3 20 8l22 7q8 0 20 -2l6 -1q1 0 8 -5q5 -4 14 -15q8 -10 10 -17t1 -19
q-1 -17 -14 -28q-6 -5 -5 -5l9 -6q8 -5 12 -7q11 -9 18 -30q6 -18 6 -23q1 -12 1 -23l-2 -19q0 -1 -5 -27q-3 -18 -11 -33q-8 -16 -13 -24l-12 -21q-10 -18 -14 -26l-7 -15q-7 -14 -12 -31q-11 -34 -19 -41q-19 -16 -36 -18q-24 -3 -35 1q-17 6 -28 12q-17 9 -29 12
q-14 4 -21 5l-12 2q-13 2 -22 4q-11 1 -19 5q-6 3 -35 9q-24 5 -43 6l-48 5q-60 7 -70 9q-9 2 -22 2l-16 -1l3 -20q-1 -1 -16 -1q-15 -1 -20 2zM52 432q0 7 -1 14q-2 15 -3 30q-1 25 -1 33q1 17 2 36l3 43q2 28 2 47v42l2 21q1 15 2 20l-7 2q-6 0 -11 2l-11 3l-4 -61
q-3 -55 -3 -88q-1 -19 2 -85q3 -57 3 -60zM78 455q9 0 17 -1l19 -3q10 -1 27 -3l73 -8q21 -3 45 -7q19 -4 34 -9q15 -6 17 -6q5 -1 21 -3l20 -4l21 -6l15 -6l32 -14q7 -2 25 -2q17 0 27 4q14 6 20 13q6 8 8 13q9 23 13 39q3 11 7 20l6 12q4 8 14 26l13 22q6 10 13 27
q9 22 12 34q2 6 3 19q2 14 2 23q1 24 -6 42q-3 7 -13 20q-6 7 -16 15q-13 10 -38 17q-21 6 -38 8l-19 2q-15 1 -25 1q-9 0 -25 -4l-13.9541 -2.50684l41.5117 -2.46582l23.9736 -2.77148l24.7969 -4.35156q20.7988 -3.625 28.4141 -5.88379t12.4551 -5.36621
q4.83887 -3.10449 9.71875 -8.60156l6.50391 -7.06348q12.9785 -12.5332 17.5713 -24.415q4.59473 -11.8828 4.92871 -31.0166l-0.644531 -8.7832l-0.588867 -11.9717q-0.631836 -9.58105 -2.11328 -15.9873q-1.4834 -6.40625 -6.04492 -19.2461l-3.77637 -12.0273
q-5.26172 -18.4336 -14.4932 -37.7344l-20.5938 -53.791l-3.86133 -7.24414l-10.7295 -24.9092l-9.30273 -15.3154q-6.18359 -11.2715 -23.2471 -15.9561q-17.0635 -4.68359 -29.8057 -5.7041q-3.18945 -0.0556641 -11.1885 1.40137l-9.58203 0.629883
q-13.5801 1.35645 -21.1748 2.41992q-7.5957 1.06445 -10.8252 3.40039q-3.23047 2.33594 5.56641 0.895508q8.79688 -1.44238 23.958 -1.97559l18.3643 -1.27441q5.58301 0.0986328 13.9385 1.04199q8.35742 0.942383 16.6943 3.08203q8.33496 2.13867 13.8535 5.82422
t10.1758 10.9434l6.23828 8.08398q3.0918 5.63477 6.92578 14.4746l3.00781 10.4199l13.835 29.748l13.752 34.5332q4.5752 12.041 8.38086 22.4746q3.80469 10.4336 9.06445 28.8682q4.54688 13.6357 6.01758 20.8398q1.46875 7.20312 2.0498 19.5732
q0.582031 12.3711 -0.404297 23.1201q-0.985352 10.749 -3.48047 16.6865q-2.49609 5.9375 -6.17969 11.4551q-3.68652 5.51758 -14.2305 15.7012l-4.88184 5.49707q-6.48926 6.26758 -12.5303 9.74902q-6.04297 3.48438 -16.4346 4.89746l-7.20215 1.46875
l-1.60742 0.769531q-1.61035 0.770508 -10.4072 2.21191l-11.2031 2.19629l-23.9863 3.56934l-17.5684 1.28711q-33.5244 1.80859 -47.0498 -0.0224609q-2.3916 -0.0419922 -7.13379 -2.51758l-6.33594 -2.50293q-6.36426 -0.908203 -11.0781 -4.97852
q-4.71387 -4.06836 -10.1279 -13.7334q-3.10352 -4.83984 -5.41309 -9.66406q-2.30762 -4.8252 -4.56152 -12.8398l-4.58789 -11.2441q-5.31641 -15.2451 -4.51855 -15.2324q3.23047 -2.33496 10.5166 -8.58887l18.6289 -16.4209l2.3916 0.0429688
q5.5957 -0.701172 12.3145 2.60645q6.72168 3.30664 12.1914 9.78223l6.20996 9.67871l-1.63574 2.36426q-8.95117 10.21 -9.99902 24.5459q-0.893555 5.56641 1.48438 6.40625q3.93066 3.25879 4.90918 -7.0918q0.907227 -6.36426 4.20117 -12.2871
q3.29395 -5.92383 8.98438 -12.2051q5.67871 -5.48242 8.90332 -7.4209q3.22363 -1.93652 6.42578 -2.67871l2.40625 -0.754883l4.28711 5.65625q4.28809 5.6582 14.4707 16.2031q8.61719 8.92285 11.1182 2.58594q0.826172 -1.5791 -0.733398 -3.60059t-7.86816 -6.11816
q-7.07812 -5.70703 -10.96 -11.7559t-8.45605 -18.0908q-1.49707 -5.6084 -1.4834 -6.40625q0.0146484 -0.796875 4.01465 -1.52344q16.8398 -5.28809 29.7617 -14.6338q12.9238 -9.34277 15.4824 -18.8691q1.71875 -7.14746 -2.36426 -1.63672
q-6.5459 9.45703 -21.8525 18.3604q-15.3076 8.90332 -30.5107 11.8291q-12.7969 2.16895 -26.2803 -2.05469l-7.93164 -2.53027l9.00684 -13.3994q3.28613 -5.52637 6.18066 -11.457q2.89551 -5.93066 4.57227 -10.6855q4.18066 -11.0918 4.29883 -17.8672
q0.119141 -6.77832 -3.08301 -6.03613l-0.881836 4.76953q-1.73242 7.94434 -6.68359 17.4287q-4.9502 9.48242 -10.6846 18.1543l-6.53125 8.6582q-7.37012 11.0361 -28.4316 29.8096q-11.3281 9.37109 -21.4258 16.7705q-10.0986 7.40039 -22.168 13.5693l-28.1816 15.457
q-6.44824 3.87598 -13.6777 6.93945q-12.8545 5.3584 -16.4756 7.28809q-3.62402 1.93066 -2.88184 5.13379q0.742188 3.20215 3.93848 2.85938q3.19629 -0.34375 10.4395 -4.2041l30.5742 -15.415q24.9375 -12.3262 33.7891 -16.9541l7.24609 -3.86133l0.741211 3.20215
q1.40039 11.1895 5.95312 24.4268q4.55469 13.2373 9.1709 22.8887q6.19727 10.4756 12.9033 14.5801q6.70801 4.10352 14.623 7.43262l7.93164 2.53027l-1.62207 1.56738q-6.46094 4.67188 -7.35547 10.2383l-0.125 7.1748q-0.853516 3.17578 0.754883 2.40625
l3.36914 -10.3096q0.838867 -2.37793 3.27344 -4.72754l4.04102 -3.11914q1.6084 -0.769531 9.53906 1.76172l11.917 2.60059q13.4971 3.4248 21.4561 4.36133l4.78223 0.0849609l-1.63477 2.36328q-2.47656 4.74121 -3.76855 10.3018q-1.29395 5.55957 -0.173828 9.96484
q1.11914 4.40527 2.02832 -1.95801q0.0830078 -4.78418 1.36914 -9.94531q1.28711 -5.16016 2.93555 -8.32129l1.63672 -2.36523l19.9307 0.348633q11.1621 0.194336 20.7559 -1.23242l8.79785 -1.44141q9.58008 -0.629883 23.5947 -3.97363
q14.0156 -3.3457 23.6377 -6.36621l16.8252 -4.49219l2.36328 1.6377q3.91699 4.05566 7.80469 9.70508q3.89062 5.65039 5.80664 10.0703q1.91504 4.41895 2.18262 11.999q0.265625 7.58105 -0.614258 12.3516q-2.53125 7.92969 -7.44727 15.4209
q-4.91504 7.49023 -9.75391 10.5947l-8.88086 6.22461l-12.7969 2.16992q-4.78418 -0.0830078 -6.37891 -0.110352l-3.98633 -0.0703125q-8.7832 0.644531 -29.3584 -8.4873l-5.53906 -2.49023l-16.6592 -5.07422l-33.3301 -9.35449q-7.13379 -2.5166 -21.0498 -4.75391
q-13.917 -2.2373 -25.8545 -3.64062q-11.9375 -1.40527 -25.4424 -4.43262q-13.5039 -3.02734 -27.4629 -2.87207q-13.959 0.15625 -28.3232 0.702148q-6.37695 -0.111328 -23.0635 -3.59277l-27.7773 -7.66113q-18.2686 -4.30664 -40.4502 -12.668
q-22.1846 -8.3623 -33.2627 -13.3398l-24.5186 -11.5938q-18.9824 -9.10254 -27.709 -11.6494q-13.4697 -5.01758 -21.8125 -6.75879q-8.34473 -1.74219 -25.8691 -2.84473l-5.59473 0.699219l-2.01562 -21.5664q-1.26074 -19.1611 -1.3623 -59.0371
q-0.170898 -35.8896 -3.27051 -63.8555q-3.10156 -27.9658 -2.83691 -43.1133l1.3125 -29.4854q1.18652 -22.3076 2.02637 -24.6855zM364.566 616.65q0.796875 0.0146484 3.98633 0.0712891l8.72754 2.54297q7.93066 2.53223 13.1045 3.02148
q5.17676 0.487305 11.5684 -0.197266l3.99902 -0.728516q0.797852 0.0146484 0.364258 2.00195q-0.433594 1.98438 1.03613 9.1875l0.699219 5.5957l-1.59375 -0.0283203q-9.58105 0.628906 -17.6934 8.46289q-1.63477 2.36328 -2.4248 1.95117t-2.31641 -4.42578
q-9.27441 -16.9102 -24.3525 -21.1602l-2.39258 -0.0419922l5.69434 -6.28027q0.80957 -0.783203 1.59375 0.0273438z"/>
    </symbol>

    <!-- la-teacher.svg viewBox: -10 0 868 1024 -->
    <symbol id="uth-la" viewBox="-10 0 868 1024">
      <path fill="currentColor" d="M68.1357 299.515q-16.2852 5.43652 -25.4795 13.5615q-4.7373 12.1826 -8.05273 87.4883q-3.31445 75.3066 -0.601562 122.509q8.26074 88.2393 20.2422 136.83q11.9834 48.5908 18.1475 51.4258q8.02441 2.54004 17.6846 3.39062q9.66211 0.851562 15.873 -2.03809
q11.0049 -2.69434 13.1309 -7.31836q2.12402 -4.62402 -0.571289 -15.6279l-9.36523 -47.1006l5.72266 0.0458984q12.2295 -0.984375 31.0127 0.328125q18.7842 1.31152 29.7422 4.33789q4.94141 1.12402 11.792 5.27832q6.84863 4.15527 12.8203 11.7822l17.4727 20.0957
q3.37695 3.27637 5.67676 5.76953l14.4365 12.9561q11.0586 9.67871 28.2832 22.1924l29.0654 21.1172q22.6074 16.4258 33.8604 21.3105l26.3701 10.1152l17.0762 11.584q13.9941 10.167 23.8301 18.1367l15.0723 10.9492q3.37598 3.27539 10.2754 10.7559l12.7256 14.1787
l22.3672 26.9424l12.4297 12.3213l23.5908 28.6514q5.8252 6.7002 13.3135 17.8975l7.63672 12.127q9.93652 14.6211 19.3311 19.8018q2.15332 1.56445 6.70312 3.22461q4.5498 1.66113 11.2021 1.56055q9.29395 -1.47168 13.5713 -4.53125
q4.2793 -3.05957 8.04297 -9.37207q9.0918 -14.7754 9.52344 -30.0859q0.432617 -15.3115 -6.76953 -42.75l-4.65625 -17.3604q-1.8125 -5.42969 -3.33105 -9l-3.47656 -9.92773q-3.33105 -9 -7.14941 -15.0635q-3.81836 -6.0625 -8.41797 -11.0508
q-3.37695 -3.27441 -7.04883 -8.41016q-1.51758 -3.57031 -4.74707 -5.91602l-7.83008 -7.33301q-11.0596 -9.68066 -21.4111 -20.9014q-10.3496 -11.2217 -14.3154 -18.2139q-6.41211 -10.415 -9.05762 -18.0938t-4.11719 -16.9727l-1.61914 -10.2217l1.02148 -11.5938
q1.27148 -4.01172 5.96289 -10.4707l23.4629 -32.2949q5.62305 -6.60645 13.3467 -14.9746q7.72656 -8.36719 10.7803 -13.1387q3.05566 -4.77051 3.91113 -5.38379q0.856445 -0.610352 5.01465 1.58789q14.335 6.30371 29.8662 8.13086t29.4707 -0.380859l7.43359 -1.17773
l10.6191 6.89258q16.4414 13.5898 23.292 17.7441q6.84961 4.15527 13.1855 5.05664q6.33496 0.902344 15.3096 0.432617q8.97656 -0.46875 17.1934 -2.72266q0.929688 -0.146484 1.0752 0.782227q0.101562 6.65234 4.48633 19.2939q4.38379 12.6436 11.3857 26.7754
q4.1123 7.92285 7.70898 12.5938q3.59863 4.66895 6.38574 4.22754q2.78711 -0.442383 -3.61621 7.24121q-3.91016 5.38184 -6.50098 10.0791q-2.59082 4.69629 -5.91211 13.7969l-4.59082 13.1123q-2.6875 7.09277 -2.07129 16.999q0.616211 9.9043 3.79883 17.9736
q1.37109 2.64258 1.66602 4.5l-0.829102 6.79883q-0.0927734 11.4463 4.46191 22.1572t11.6484 13.3955q12.1826 4.73926 20.3994 2.48633l5.42773 -1.8125q2.78906 -0.442383 13.25 -12.5781q3.12891 -4.30566 4.57324 -1.2002q1.44531 3.10547 8.48828 2.46582
q7.04297 -0.638672 12.1543 -1.44824t5.89355 -1.88574l1.71094 -1.22363q1.71191 -1.22461 3.88379 -11.5713q2.17188 -10.3457 1.70215 -19.3213q-0.46875 -8.97754 0.801758 -12.9883t5.32715 -8.46387q5.76953 -5.67773 8.87012 -16.1719
q3.10254 -10.4932 6.85645 -34.9043l5.66016 -30.4258q5.51172 -31.3584 5.77441 -44.7363q0.263672 -13.3789 -4.64062 -38.3232l-3.78027 -29.8857q-1.47266 -9.29297 -1.86719 -17.8037l-0.249023 -7.58105l-1.76562 -11.1523q-2.06055 -13.0117 -3.65332 -17.0459
q-1.59082 -4.03418 -4.96777 -7.31055q-3.37793 -3.27441 -6.06738 -5.23047q-2.69141 -1.95508 -7.92676 -4.93652l-55.2891 -30.3008q-4.15918 -2.19922 -6.01758 -1.90527l-14.9707 -4.29688q-4.01074 -1.27051 -11.1055 -3.95703l-54.4502 -19.002l-17.418 -7.71973
q-13.2588 -5.52148 -28.1816 -15.542l-15.8535 -9.87207l-5.67676 -5.77051q-11.3545 -11.5391 -23.3906 -15.3477q-12.0342 -3.81055 -31.5498 -0.719727l-43.1904 3.9834q-16.2393 -0.286133 -29.7646 -1.47754q-13.5264 -1.19238 -40.7236 -4.50586l-57.332 -7.11426
q-10.6641 -1.16797 -16.5342 -2.14355l-30.5752 -6.58887q-20.8418 -5.27344 -45.0303 -7.63477q-24.1895 -2.36035 -49.7227 -1.17383l-77.8223 1.84668l-37.9092 1.24121l-10.8115 -2.09766l-0.165039 -37.1279q0.71875 -31.5508 -0.165039 -37.125z"/>
    </symbol>

    <!-- ti-teacher.svg viewBox: -10 0 860 1024 -->
    <symbol id="uth-ti" viewBox="-10 0 860 1024">
      <path fill="currentColor" d="M784.626 105.765q-2.65527 0.884766 -6.19629 4.42773q-12.3955 10.624 -21.6904 16.8193q-9.2959 6.19824 -26.1152 14.165l-23.9033 10.624q-2.65625 0.884766 -5.3125 2.65527t-3.54102 3.09863q-0.885742 1.32812 -5.31152 4.86914l-34.5264 26.5596
q-9.73828 7.08203 -21.6904 16.377q-11.9512 9.29688 -19.9189 16.3789l-13.2793 10.623l-23.9033 16.8213l-17.7061 10.623q-4.42578 2.65625 -11.5088 6.19629l-15.0488 6.19727q-7.96777 3.54102 -25.6729 12.8369q-17.7061 9.29492 -23.9043 11.9521l-10.6221 7.08105
l-6.19824 5.31348l-10.624 7.08105l-18.5908 -0.884766q-15.9355 0 -27.001 0.884766q-11.0664 0.884766 -24.3457 2.65625l-39.8379 0.884766q-3.54199 0 -4.42676 0.884766q-10.623 6.19824 -24.3457 20.3623q-13.7217 14.165 -18.1484 24.7891l-11.5088 26.5586
q-3.54004 10.623 -6.19727 15.9346q-2.65527 5.31152 -6.63867 10.624q-3.98438 5.31152 -8.41113 12.3926l-7.9668 13.2803l-57.5439 89.415q-6.19824 10.623 -22.1328 29.6582q-15.9346 19.0332 -30.9854 28.7715l-52.2324 28.3291q-10.624 4.42676 -21.2471 7.96777
l-11.5088 4.42578l-2.65625 -17.7061l-0.884766 -18.5908q0 -12.3936 -3.54102 -15.9346l-30.9844 -0.886719q-6.19824 -0.884766 -7.08301 8.85352q-4.42773 57.543 5.75391 156.255q10.1816 98.71 26.1162 158.024q3.54102 10.623 4.86816 13.7217
q1.3291 3.09961 2.21387 3.09961l4.42676 -1.77148l4.42676 -1.76953q1.76953 -1.77148 17.2627 -6.6416q15.4922 -4.86914 26.1172 -7.52344q1.76953 -0.885742 -0.885742 -10.1826q-2.65723 -9.29492 -2.65723 -12.835q0 -0.885742 7.08398 -2.65625l15.9346 -2.65625
q7.96777 -0.884766 25.2305 -2.21289t38.5107 -2.21289q61.9697 -1.77148 90.2998 -15.0498l11.5088 -4.42676l29.2148 -14.165l14.1641 -6.19727q15.9355 -6.19629 23.0176 -12.3945q2.65625 -1.76953 4.42578 -2.65527q29.2168 -4.42676 49.5771 -13.2793
q12.3945 -5.31152 20.8037 -10.1807q8.41113 -4.86914 15.4951 -10.1807l23.9014 -17.707l22.1328 -19.4756q13.2783 -10.623 20.3623 -19.0342q7.08105 -8.41113 17.7051 -23.46l9.73828 -13.2793l20.3623 -0.884766q6.19629 0 13.7217 -3.09863
q7.52441 -3.09961 8.41016 -4.86914l16.8203 -11.5098q30.9854 -21.248 56.6582 -57.543q4.42676 -6.19727 7.08203 -8.85352l14.166 -11.5088q6.19727 -5.31152 22.1318 -30.0996l11.5078 -16.8203q2.65625 -3.54199 5.75488 -10.1807q3.09863 -6.6416 3.9834 -11.0664
l2.65723 -8.85352q5.31152 -21.2471 -7.96777 -32.7559q-15.0498 -13.2793 -33.6416 -12.3936q-3.54102 0.884766 -8.85352 -6.19824q-2.65527 -4.42676 -9.73828 -12.3936l-3.54004 -3.54004l1.77051 -3.54199q1.76953 -6.19727 2.65527 -13.2793
q0.884766 -7.08301 0.884766 -12.3945q0 -3.54199 -2.65527 -11.5088q-2.65527 -7.96777 -3.54004 -10.624q-3.54199 -6.19531 -15.0508 -14.1631q-7.08203 -5.3125 -11.5088 -7.52637q-4.42676 -2.21191 -15.0498 -7.52539l-7.96777 -3.54004l55.7725 -51.3467
l12.3955 -10.624q8.85254 -7.96777 16.8193 -15.4922q7.96875 -7.52539 10.625 -11.9521l6.19531 -9.7373l3.54199 -7.08301l12.3945 -9.73926q16.8203 -11.5078 31.4277 -26.1152q14.6074 -14.6064 32.3135 -36.7393q8.85254 -10.625 12.3936 -16.3779
q3.54199 -5.75391 6.19629 -14.165q2.65625 -8.41016 2.65625 -13.7207q0 -5.3125 -2.65625 -10.626q-7.08105 -14.1631 -15.0488 -19.918q-7.96875 -5.75488 -15.9355 -2.21387z"/>
    </symbol>
  </defs>

  <rect x="0" y="0" width="980" height="760" fill="#fff"/>
  <text class="hint" x="20" y="22">Vordlus: uTheory algallikas (vasakul) vs Noodimeister RTL-peegelpilt (paremal)</text>
  <text class="col" x="250" y="52" text-anchor="middle">uTheory (originaal)</text>
  <text class="col" x="730" y="52" text-anchor="middle">Noodimeister (RTL mirror)</text>

  <!-- Layout constants -->
  <!-- boxW=440, boxH=210, pad=20, scale=0.17 -->
  <g transform="translate(20,70)">
    <!-- Row 1: JO (do) -->
    <rect class="frame" x="0" y="0" width="440" height="210"/>
    <rect class="frame" x="480" y="0" width="440" height="210"/>
    <text class="label" x="18" y="26">JO (d / do)</text>

    <g transform="translate(110,42) scale(0.17)">
      <use href="#uth-do"/>
    </g>
    <g transform="translate(590,42) scale(0.17)">
      <!-- MirrorX = viewBoxWidth - 20 = 621 - 20 = 601 -->
      <g transform="translate(601 0) scale(-1 1)"><use href="#uth-do"/></g>
    </g>

    <!-- Row 2: RA (la) -->
    <rect class="frame" x="0" y="240" width="440" height="210"/>
    <rect class="frame" x="480" y="240" width="440" height="210"/>
    <text class="label" x="18" y="266">RA (l / la)</text>

    <g transform="translate(90,282) scale(0.17)">
      <use href="#uth-la"/>
    </g>
    <g transform="translate(570,282) scale(0.17)">
      <!-- MirrorX = viewBoxWidth - 20 = 868 - 20 = 848 -->
      <g transform="translate(848 0) scale(-1 1)"><use href="#uth-la"/></g>
    </g>

    <!-- Row 3: DI (ti) -->
    <rect class="frame" x="0" y="480" width="440" height="210"/>
    <rect class="frame" x="480" y="480" width="440" height="210"/>
    <text class="label" x="18" y="506">DI (t / ti)</text>

    <g transform="translate(95,522) scale(0.17)">
      <use href="#uth-ti"/>
    </g>
    <g transform="translate(575,522) scale(0.17)">
      <!-- MirrorX = viewBoxWidth - 20 = 860 - 20 = 840 -->
      <g transform="translate(840 0) scale(-1 1)"><use href="#uth-ti"/></g>
    </g>
  </g>
</svg>

