<?xml version="1.0" encoding="utf-8" ?>
<svg xmlns="http://www.w3.org/2000/svg" xmlns:ev="http://www.w3.org/2001/xml-events" xmlns:xlink="http://www.w3.org/1999/xlink" baseProfile="full" height="699" version="1.1" viewBox="0 0 1060 699" width="1060">
  <defs/>
  <rect fill="white" height="699" width="1060" x="0" y="0"/>
  <path d="M 470 665 L 468 668 L 471 670 L 473 667 Z" fill="none" stroke="#111" stroke-linecap="round" stroke-linejoin="round" stroke-width="1.6"/>
  <path d="M 570 592 L 569 611 L 565 613 L 564 616 L 574 626 L 577 626 L 588 614 L 582 611 L 582 593 Z" fill="none" stroke="#111" stroke-linecap="round" stroke-linejoin="round" stroke-width="1.6"/>
  <path d="M 469 592 L 459 602 L 459 604 L 464 607 L 464 625 L 476 626 L 477 607 L 483 604 L 472 592 Z" fill="none" stroke="#111" stroke-linecap="round" stroke-linejoin="round" stroke-width="1.6"/>
  <path d="M 365 528 L 363 530 L 365 533 L 367 531 Z" fill="none" stroke="#111" stroke-linecap="round" stroke-linejoin="round" stroke-width="1.6"/>
  <path d="M 255 527 L 257 528 L 259 526 L 262 528 L 264 525 L 262 524 L 260 526 L 258 524 Z" fill="none" stroke="#111" stroke-linecap="round" stroke-linejoin="round" stroke-width="1.6"/>
  <path d="M 363 521 L 366 524 L 367 523 L 370 526 L 371 525 L 369 523 L 368 524 L 365 520 Z" fill="none" stroke="#111" stroke-linecap="round" stroke-linejoin="round" stroke-width="1.6"/>
  <path d="M 678 520 L 675 523 L 676 524 L 678 522 L 683 527 L 681 529 L 684 529 L 686 531 L 687 530 L 684 527 L 685 525 L 683 525 L 680 522 L 682 520 Z" fill="none" stroke="#111" stroke-linecap="round" stroke-linejoin="round" stroke-width="1.6"/>
  <path d="M 257 521 L 259 522 L 261 520 L 263 522 L 265 519 L 264 518 L 262 520 L 259 518 Z" fill="none" stroke="#111" stroke-linecap="round" stroke-linejoin="round" stroke-width="1.6"/>
  <path d="M 785 514 L 783 516 L 786 519 L 787 516 Z" fill="none" stroke="#111" stroke-linecap="round" stroke-linejoin="round" stroke-width="1.6"/>
  <path d="M 363 514 L 365 517 L 367 515 L 369 517 L 370 516 L 368 516 L 365 512 Z" fill="none" stroke="#111" stroke-linecap="round" stroke-linejoin="round" stroke-width="1.6"/>
  <path d="M 1022 492 L 1021 493 L 1024 496 L 1021 500 L 1018 497 L 1017 498 L 1021 502 L 1025 503 L 1027 499 Z" fill="none" stroke="#111" stroke-linecap="round" stroke-linejoin="round" stroke-width="1.6"/>
  <path d="M 783 490 L 782 491 L 788 496 L 788 492 L 785 492 Z" fill="none" stroke="#111" stroke-linecap="round" stroke-linejoin="round" stroke-width="1.6"/>
  <path d="M 272 492 L 270 490 L 267 493 L 270 494 Z" fill="none" stroke="#111" stroke-linecap="round" stroke-linejoin="round" stroke-width="1.6"/>
  <path d="M 814 484 L 813 485 L 815 487 L 813 489 L 810 486 L 809 487 L 806 484 L 805 485 L 813 495 L 809 498 L 802 491 L 801 492 L 806 499 L 803 502 L 794 493 L 796 491 L 795 490 L 793 492 L 795 494 L 792 497 L 790 497 L 794 500 L 799 500 L 804 505 L 807 505 L 811 501 L 815 501 L 816 498 L 814 495 L 816 493 L 816 488 Z" fill="none" stroke="#111" stroke-linecap="round" stroke-linejoin="round" stroke-width="1.6"/>
  <path d="M 776 483 L 775 484 L 777 484 L 781 489 L 781 484 L 780 483 L 778 485 Z" fill="none" stroke="#111" stroke-linecap="round" stroke-linejoin="round" stroke-width="1.6"/>
  <path d="M 582 483 L 581 484 L 583 487 L 586 488 L 587 487 Z" fill="none" stroke="#111" stroke-linecap="round" stroke-linejoin="round" stroke-width="1.6"/>
  <path d="M 981 482 L 984 488 L 997 501 L 998 500 L 994 496 L 996 494 L 1000 493 L 1003 495 L 1006 492 L 1014 492 L 1011 489 L 1012 487 L 1008 485 L 1008 487 L 1003 493 L 999 490 L 996 493 L 993 493 L 989 490 L 992 486 L 988 481 Z" fill="none" stroke="#111" stroke-linecap="round" stroke-linejoin="round" stroke-width="1.6"/>
  <path d="M 792 482 L 799 489 L 803 486 L 801 485 L 799 487 L 793 481 Z" fill="none" stroke="#111" stroke-linecap="round" stroke-linejoin="round" stroke-width="1.6"/>
  <path d="M 443 480 L 442 485 L 446 501 L 449 503 L 451 498 L 448 495 L 445 485 L 446 483 Z" fill="none" stroke="#111" stroke-linecap="round" stroke-linejoin="round" stroke-width="1.6"/>
  <path d="M 575 488 L 568 484 L 570 482 L 570 478 L 558 485 L 563 488 Z" fill="none" stroke="#111" stroke-linecap="round" stroke-linejoin="round" stroke-width="1.6"/>
  <path d="M 329 478 L 328 479 L 333 506 L 335 507 L 338 505 L 338 502 L 340 500 L 336 498 L 333 484 L 334 480 L 332 478 Z" fill="none" stroke="#111" stroke-linecap="round" stroke-linejoin="round" stroke-width="1.6"/>
  <path d="M 133 478 L 132 484 L 136 504 L 137 499 L 139 497 L 136 494 L 135 486 L 138 483 L 140 485 L 141 482 L 140 481 L 137 483 Z" fill="none" stroke="#111" stroke-linecap="round" stroke-linejoin="round" stroke-width="1.6"/>
  <path d="M 66 478 L 66 480 L 59 485 L 59 489 L 65 485 L 67 481 Z" fill="none" stroke="#111" stroke-linecap="round" stroke-linejoin="round" stroke-width="1.6"/>
  <path d="M 1014 477 L 1012 479 L 1012 484 L 1014 484 L 1019 489 L 1020 488 Z" fill="none" stroke="#111" stroke-linecap="round" stroke-linejoin="round" stroke-width="1.6"/>
  <path d="M 799 478 L 803 482 L 806 480 L 805 478 L 803 480 L 800 477 Z" fill="none" stroke="#111" stroke-linecap="round" stroke-linejoin="round" stroke-width="1.6"/>
  <path d="M 684 482 L 691 482 L 697 487 L 698 492 L 702 495 L 699 498 L 697 496 L 696 497 L 698 499 L 703 498 L 701 494 L 703 492 L 709 498 L 707 501 L 708 502 L 712 502 L 715 498 L 694 477 L 691 479 L 689 478 Z" fill="none" stroke="#111" stroke-linecap="round" stroke-linejoin="round" stroke-width="1.6"/>
  <path d="M 482 477 L 479 478 L 480 479 L 474 485 L 475 486 L 483 478 Z" fill="none" stroke="#111" stroke-linecap="round" stroke-linejoin="round" stroke-width="1.6"/>
  <path d="M 573 476 L 577 478 L 578 477 L 577 474 Z" fill="none" stroke="#111" stroke-linecap="round" stroke-linejoin="round" stroke-width="1.6"/>
  <path d="M 688 471 L 687 474 L 691 475 L 692 474 Z" fill="none" stroke="#111" stroke-linecap="round" stroke-linejoin="round" stroke-width="1.6"/>
  <path d="M 377 473 L 380 475 L 382 474 L 385 477 L 382 480 L 383 481 L 394 481 L 397 480 L 399 477 L 394 474 L 383 475 L 380 472 L 380 470 Z" fill="none" stroke="#111" stroke-linecap="round" stroke-linejoin="round" stroke-width="1.6"/>
  <path d="M 239 469 L 237 471 L 242 498 L 244 501 L 248 494 L 244 491 L 241 474 L 243 472 Z" fill="none" stroke="#111" stroke-linecap="round" stroke-linejoin="round" stroke-width="1.6"/>
  <path d="M 36 469 L 33 472 L 31 470 L 28 471 L 30 486 L 34 497 L 41 491 L 40 490 L 37 492 L 35 490 L 32 480 L 32 474 L 34 471 L 35 472 L 37 470 Z" fill="none" stroke="#111" stroke-linecap="round" stroke-linejoin="round" stroke-width="1.6"/>
  <path d="M 910 468 L 906 472 L 907 476 L 910 479 L 904 483 L 901 481 L 900 482 L 902 491 L 904 493 L 903 499 L 906 505 L 910 504 L 910 490 L 908 490 L 909 492 L 906 495 L 904 493 L 906 490 L 904 488 L 904 485 L 906 483 L 910 485 L 911 484 Z" fill="none" stroke="#111" stroke-linecap="round" stroke-linejoin="round" stroke-width="1.6"/>
  <path d="M 277 468 L 276 469 L 281 473 L 282 468 Z" fill="none" stroke="#111" stroke-linecap="round" stroke-linejoin="round" stroke-width="1.6"/>
  <path d="M 1008 464 L 1007 467 L 1011 471 L 1012 468 Z" fill="none" stroke="#111" stroke-linecap="round" stroke-linejoin="round" stroke-width="1.6"/>
  <path d="M 539 464 L 537 473 L 537 484 L 540 488 L 543 485 L 541 482 L 541 471 L 543 469 Z" fill="none" stroke="#111" stroke-linecap="round" stroke-linejoin="round" stroke-width="1.6"/>
  <path d="M 595 462 L 593 461 L 587 463 L 580 468 L 580 471 L 581 472 L 585 467 Z" fill="none" stroke="#111" stroke-linecap="round" stroke-linejoin="round" stroke-width="1.6"/>
  <path d="M 253 460 L 248 465 L 249 466 L 254 461 Z" fill="none" stroke="#111" stroke-linecap="round" stroke-linejoin="round" stroke-width="1.6"/>
  <path d="M 908 459 L 907 460 L 911 466 L 912 463 Z" fill="none" stroke="#111" stroke-linecap="round" stroke-linejoin="round" stroke-width="1.6"/>
  <path d="M 805 459 L 804 463 L 800 466 L 803 469 L 810 466 L 810 463 Z" fill="none" stroke="#111" stroke-linecap="round" stroke-linejoin="round" stroke-width="1.6"/>
  <path d="M 648 457 L 647 478 L 650 480 L 653 475 L 661 480 L 662 479 L 657 473 L 655 473 L 652 476 L 650 474 L 650 462 L 652 460 Z" fill="none" stroke="#111" stroke-linecap="round" stroke-linejoin="round" stroke-width="1.6"/>
  <path d="M 402 459 L 400 457 L 391 460 L 393 463 L 391 465 L 393 466 L 400 463 Z" fill="none" stroke="#111" stroke-linecap="round" stroke-linejoin="round" stroke-width="1.6"/>
  <path d="M 462 455 L 457 458 L 457 465 L 463 456 Z" fill="none" stroke="#111" stroke-linecap="round" stroke-linejoin="round" stroke-width="1.6"/>
  <path d="M 272 453 L 266 460 L 269 462 L 270 461 L 268 459 L 273 454 Z" fill="none" stroke="#111" stroke-linecap="round" stroke-linejoin="round" stroke-width="1.6"/>
  <path d="M 158 453 L 151 462 L 147 470 L 148 471 L 153 470 L 155 460 L 159 454 Z" fill="none" stroke="#111" stroke-linecap="round" stroke-linejoin="round" stroke-width="1.6"/>
  <path d="M 363 453 L 362 452 L 358 457 L 355 457 L 353 455 L 351 458 L 356 459 L 359 456 L 362 458 L 363 457 L 361 455 Z" fill="none" stroke="#111" stroke-linecap="round" stroke-linejoin="round" stroke-width="1.6"/>
  <path d="M 968 451 L 964 452 L 966 480 L 971 474 L 971 472 L 968 469 L 968 455 L 970 453 Z" fill="none" stroke="#111" stroke-linecap="round" stroke-linejoin="round" stroke-width="1.6"/>
  <path d="M 49 454 L 51 458 L 55 457 L 57 461 L 58 460 L 56 458 L 59 455 L 67 456 L 69 458 L 70 457 L 66 452 L 63 453 L 58 450 Z" fill="none" stroke="#111" stroke-linecap="round" stroke-linejoin="round" stroke-width="1.6"/>
  <path d="M 786 447 L 785 450 L 793 457 L 794 456 L 789 451 L 791 448 Z" fill="none" stroke="#111" stroke-linecap="round" stroke-linejoin="round" stroke-width="1.6"/>
  <path d="M 757 444 L 755 445 L 754 449 L 755 476 L 763 472 L 762 470 L 760 472 L 758 470 L 758 451 L 760 448 Z" fill="none" stroke="#111" stroke-linecap="round" stroke-linejoin="round" stroke-width="1.6"/>
  <path d="M 613 445 L 610 444 L 590 454 L 584 455 L 582 457 L 581 456 L 572 458 L 569 460 L 572 464 L 574 464 L 582 457 L 593 458 L 597 456 L 600 459 L 598 461 L 600 462 L 603 460 L 604 457 L 601 455 L 598 457 L 595 454 L 597 452 L 601 452 L 609 448 L 611 450 L 608 453 L 609 454 L 613 448 Z" fill="none" stroke="#111" stroke-linecap="round" stroke-linejoin="round" stroke-width="1.6"/>
  <path d="M 168 442 L 165 444 L 161 451 L 163 452 L 167 448 L 171 450 L 161 459 L 162 463 L 160 467 L 163 470 L 168 464 L 167 460 L 174 446 L 173 444 L 171 445 Z" fill="none" stroke="#111" stroke-linecap="round" stroke-linejoin="round" stroke-width="1.6"/>
  <path d="M 492 440 L 484 442 L 480 445 L 474 445 L 464 452 L 467 454 L 470 450 L 473 449 L 476 452 L 473 455 L 469 456 L 471 458 L 469 461 L 472 464 L 480 454 L 475 451 L 479 448 L 483 451 L 483 453 L 486 449 L 483 446 L 485 444 L 488 444 L 490 448 L 493 444 Z" fill="none" stroke="#111" stroke-linecap="round" stroke-linejoin="round" stroke-width="1.6"/>
  <path d="M 870 438 L 868 447 L 869 462 L 872 463 L 874 461 L 886 477 L 892 475 L 896 480 L 898 478 L 883 468 L 875 460 L 877 454 L 876 453 L 874 455 L 872 453 L 872 444 L 874 441 Z" fill="none" stroke="#111" stroke-linecap="round" stroke-linejoin="round" stroke-width="1.6"/>
  <path d="M 276 440 L 272 438 L 269 444 L 256 455 L 257 456 L 266 449 L 268 450 L 268 447 L 270 445 L 273 445 L 275 447 Z" fill="none" stroke="#111" stroke-linecap="round" stroke-linejoin="round" stroke-width="1.6"/>
  <path d="M 346 437 L 345 441 L 347 446 L 345 451 L 346 452 L 351 449 L 353 451 L 353 447 L 351 449 L 347 446 L 350 442 L 353 442 L 349 437 Z" fill="none" stroke="#111" stroke-linecap="round" stroke-linejoin="round" stroke-width="1.6"/>
  <path d="M 379 432 L 365 447 L 371 448 L 373 450 L 370 454 L 371 458 L 376 454 L 381 458 L 375 464 L 377 465 L 381 463 L 384 466 L 382 469 L 383 470 L 387 467 L 384 464 L 386 462 L 382 459 L 397 444 L 395 442 L 391 442 L 384 447 L 388 451 L 383 456 L 378 452 L 378 450 L 375 453 L 373 451 L 376 447 L 375 446 L 373 448 L 369 444 L 374 439 L 377 442 L 376 444 L 378 444 L 380 441 L 378 441 L 375 437 L 377 435 L 381 439 L 383 437 L 383 433 Z" fill="none" stroke="#111" stroke-linecap="round" stroke-linejoin="round" stroke-width="1.6"/>
  <path d="M 176 432 L 172 433 L 168 439 L 169 440 L 173 437 L 175 439 L 175 442 L 178 438 L 178 434 Z" fill="none" stroke="#111" stroke-linecap="round" stroke-linejoin="round" stroke-width="1.6"/>
  <path d="M 368 382 L 366 384 L 368 387 L 370 385 Z" fill="none" stroke="#111" stroke-linecap="round" stroke-linejoin="round" stroke-width="1.6"/>
  <path d="M 154 382 L 150 387 L 151 389 L 154 388 L 152 386 L 155 383 Z" fill="none" stroke="#111" stroke-linecap="round" stroke-linejoin="round" stroke-width="1.6"/>
  <path d="M 788 379 L 787 380 L 790 384 L 788 387 L 789 388 L 791 383 Z" fill="none" stroke="#111" stroke-linecap="round" stroke-linejoin="round" stroke-width="1.6"/>
  <path d="M 782 377 L 782 380 L 780 382 L 781 383 L 784 380 Z" fill="none" stroke="#111" stroke-linecap="round" stroke-linejoin="round" stroke-width="1.6"/>
  <path d="M 571 377 L 570 385 L 572 388 L 573 387 L 571 383 L 573 379 Z" fill="none" stroke="#111" stroke-linecap="round" stroke-linejoin="round" stroke-width="1.6"/>
  <path d="M 51 373 L 49 375 L 51 378 Z" fill="none" stroke="#111" stroke-linecap="round" stroke-linejoin="round" stroke-width="1.6"/>
  <path d="M 989 355 L 989 358 L 985 361 L 986 362 L 991 358 Z" fill="none" stroke="#111" stroke-linecap="round" stroke-linejoin="round" stroke-width="1.6"/>
  <path d="M 989 350 L 994 354 L 999 350 L 998 349 L 995 352 L 992 349 Z" fill="none" stroke="#111" stroke-linecap="round" stroke-linejoin="round" stroke-width="1.6"/>
  <path d="M 572 352 L 568 349 L 567 351 L 569 353 L 567 355 L 562 352 L 560 354 L 561 360 L 564 361 Z" fill="none" stroke="#111" stroke-linecap="round" stroke-linejoin="round" stroke-width="1.6"/>
  <path d="M 48 349 L 53 349 L 51 347 Z" fill="none" stroke="#111" stroke-linecap="round" stroke-linejoin="round" stroke-width="1.6"/>
  <path d="M 963 346 L 959 350 L 960 353 L 960 351 L 964 347 Z" fill="none" stroke="#111" stroke-linecap="round" stroke-linejoin="round" stroke-width="1.6"/>
  <path d="M 984 345 L 983 346 L 985 348 L 985 351 L 982 353 L 982 357 L 985 354 L 984 352 L 987 348 Z" fill="none" stroke="#111" stroke-linecap="round" stroke-linejoin="round" stroke-width="1.6"/>
  <path d="M 787 344 L 782 349 L 778 345 L 777 346 L 781 350 L 778 353 L 779 354 L 788 346 Z" fill="none" stroke="#111" stroke-linecap="round" stroke-linejoin="round" stroke-width="1.6"/>
  <path d="M 165 342 L 162 346 L 164 349 L 166 347 Z" fill="none" stroke="#111" stroke-linecap="round" stroke-linejoin="round" stroke-width="1.6"/>
  <path d="M 1011 342 L 1009 340 L 1003 346 L 1004 347 L 1010 344 Z" fill="none" stroke="#111" stroke-linecap="round" stroke-linejoin="round" stroke-width="1.6"/>
  <path d="M 688 341 L 685 339 L 678 343 L 680 344 Z" fill="none" stroke="#111" stroke-linecap="round" stroke-linejoin="round" stroke-width="1.6"/>
  <path d="M 388 340 L 387 339 L 381 345 L 377 345 L 381 349 L 381 347 Z" fill="none" stroke="#111" stroke-linecap="round" stroke-linejoin="round" stroke-width="1.6"/>
  <path d="M 570 336 L 569 341 L 572 342 L 573 339 Z" fill="none" stroke="#111" stroke-linecap="round" stroke-linejoin="round" stroke-width="1.6"/>
  <path d="M 176 336 L 173 340 L 169 336 L 168 337 L 173 342 L 170 352 L 167 355 L 165 355 L 168 358 L 169 362 L 171 360 L 173 350 L 179 337 Z" fill="none" stroke="#111" stroke-linecap="round" stroke-linejoin="round" stroke-width="1.6"/>
  <path d="M 1020 335 L 1016 336 L 1016 339 L 1014 341 L 1015 342 L 1021 336 Z" fill="none" stroke="#111" stroke-linecap="round" stroke-linejoin="round" stroke-width="1.6"/>
  <path d="M 499 335 L 493 335 L 496 338 L 491 348 L 488 351 L 486 351 L 488 353 L 489 358 L 491 357 L 493 350 L 501 337 Z" fill="none" stroke="#111" stroke-linecap="round" stroke-linejoin="round" stroke-width="1.6"/>
  <path d="M 349 334 L 342 337 L 344 339 L 344 342 L 352 340 L 350 338 L 347 341 L 345 339 L 347 336 L 348 337 L 350 335 Z" fill="none" stroke="#111" stroke-linecap="round" stroke-linejoin="round" stroke-width="1.6"/>
  <path d="M 770 330 L 770 332 L 765 337 L 763 335 L 762 336 L 764 338 L 760 342 L 755 338 L 753 341 L 756 341 L 759 344 L 755 348 L 752 346 L 751 347 L 753 349 L 753 352 L 757 348 L 760 351 L 756 356 L 760 363 L 764 362 L 769 358 L 769 355 L 767 355 L 764 352 L 772 343 L 771 342 L 768 344 L 764 340 L 770 334 L 774 338 L 774 340 L 775 339 L 779 343 L 781 342 L 770 332 Z" fill="none" stroke="#111" stroke-linecap="round" stroke-linejoin="round" stroke-width="1.6"/>
  <path d="M 283 330 L 280 332 L 281 334 L 277 350 L 274 352 L 272 350 L 272 347 L 269 350 L 267 350 L 274 353 L 276 355 L 276 359 L 279 358 L 285 336 L 285 332 Z" fill="none" stroke="#111" stroke-linecap="round" stroke-linejoin="round" stroke-width="1.6"/>
  <path d="M 998 332 L 995 329 L 993 329 L 993 333 L 987 339 L 985 338 L 980 342 L 982 344 L 987 339 L 989 341 L 989 347 L 994 341 Z" fill="none" stroke="#111" stroke-linecap="round" stroke-linejoin="round" stroke-width="1.6"/>
  <path d="M 393 329 L 392 330 L 398 337 L 386 352 L 383 352 L 385 354 L 384 358 L 386 360 L 391 352 L 404 338 L 402 334 L 399 335 Z" fill="none" stroke="#111" stroke-linecap="round" stroke-linejoin="round" stroke-width="1.6"/>
  <path d="M 981 328 L 971 339 L 973 341 L 974 337 L 982 329 Z" fill="none" stroke="#111" stroke-linecap="round" stroke-linejoin="round" stroke-width="1.6"/>
  <path d="M 466 328 L 465 327 L 460 331 L 462 332 Z" fill="none" stroke="#111" stroke-linecap="round" stroke-linejoin="round" stroke-width="1.6"/>
  <path d="M 439 330 L 441 332 L 447 334 L 448 333 L 454 338 L 455 337 L 452 333 L 449 334 L 447 332 L 447 326 L 442 326 Z" fill="none" stroke="#111" stroke-linecap="round" stroke-linejoin="round" stroke-width="1.6"/>
  <path d="M 72 326 L 70 326 L 67 330 L 68 338 L 66 348 L 63 350 L 61 346 L 58 349 L 63 351 L 66 357 L 69 356 L 73 332 Z" fill="none" stroke="#111" stroke-linecap="round" stroke-linejoin="round" stroke-width="1.6"/>
  <path d="M 778 325 L 783 332 L 786 329 L 793 334 L 794 333 L 792 331 L 791 325 Z" fill="none" stroke="#111" stroke-linecap="round" stroke-linejoin="round" stroke-width="1.6"/>
  <path d="M 237 324 L 236 334 L 238 337 L 238 342 L 241 345 L 241 348 L 246 351 L 247 350 L 244 347 L 246 345 L 241 342 L 243 338 L 239 332 L 241 330 L 239 328 L 240 326 Z" fill="none" stroke="#111" stroke-linecap="round" stroke-linejoin="round" stroke-width="1.6"/>
  <path d="M 686 323 L 682 323 L 673 329 L 657 348 L 658 349 L 665 341 L 667 343 L 664 348 L 664 351 L 661 354 L 656 355 L 654 353 L 656 350 L 655 349 L 647 356 L 647 358 L 653 359 L 659 357 L 664 353 L 671 352 L 673 350 L 671 350 L 667 345 L 671 337 Z" fill="none" stroke="#111" stroke-linecap="round" stroke-linejoin="round" stroke-width="1.6"/>
  <path d="M 602 322 L 599 325 L 601 328 L 599 330 L 598 335 L 601 338 L 599 344 L 604 349 L 604 324 Z" fill="none" stroke="#111" stroke-linecap="round" stroke-linejoin="round" stroke-width="1.6"/>
  <path d="M 337 321 L 337 324 L 335 326 L 339 328 L 340 327 L 338 324 L 340 322 Z" fill="none" stroke="#111" stroke-linecap="round" stroke-linejoin="round" stroke-width="1.6"/>
  <path d="M 990 321 L 989 320 L 982 326 L 985 327 Z" fill="none" stroke="#111" stroke-linecap="round" stroke-linejoin="round" stroke-width="1.6"/>
  <path d="M 884 321 L 880 321 L 882 324 L 880 328 L 875 331 L 875 334 L 871 338 L 872 343 L 869 346 L 871 349 L 871 355 L 874 352 L 876 352 L 879 348 L 883 351 L 886 351 L 889 348 L 892 341 L 891 339 L 888 340 L 883 337 L 886 328 Z" fill="none" stroke="#111" stroke-linecap="round" stroke-linejoin="round" stroke-width="1.6"/>
  <path d="M 370 320 L 364 326 L 365 331 L 368 329 L 368 325 L 372 323 Z" fill="none" stroke="#111" stroke-linecap="round" stroke-linejoin="round" stroke-width="1.6"/>
  <path d="M 153 322 L 150 320 L 147 324 L 148 325 L 151 322 Z" fill="none" stroke="#111" stroke-linecap="round" stroke-linejoin="round" stroke-width="1.6"/>
  <path d="M 764 318 L 760 322 L 760 324 L 763 327 L 760 330 L 761 331 L 766 326 L 768 328 L 769 327 L 768 323 L 765 325 L 762 323 L 765 319 Z" fill="none" stroke="#111" stroke-linecap="round" stroke-linejoin="round" stroke-width="1.6"/>
  <path d="M 347 316 L 345 317 L 347 319 L 344 322 L 346 324 L 343 327 L 345 329 L 348 328 L 345 325 L 348 322 L 354 324 L 355 323 L 354 320 L 350 319 Z" fill="none" stroke="#111" stroke-linecap="round" stroke-linejoin="round" stroke-width="1.6"/>
  <path d="M 252 315 L 249 318 L 247 317 L 240 321 L 247 326 L 248 325 L 253 328 L 250 331 L 248 329 L 245 331 L 249 333 L 253 332 L 255 334 L 252 338 L 249 336 L 247 338 L 252 342 L 250 344 L 253 347 L 250 350 L 256 352 L 257 351 L 255 349 L 260 345 L 262 339 L 257 331 L 257 328 L 251 320 L 254 317 Z" fill="none" stroke="#111" stroke-linecap="round" stroke-linejoin="round" stroke-width="1.6"/>
  <path d="M 41 315 L 36 319 L 38 323 L 35 326 L 39 329 L 37 333 L 40 336 L 38 338 L 41 341 L 41 343 L 37 346 L 40 348 L 40 346 L 44 343 L 44 339 L 46 337 L 49 340 L 50 339 L 46 334 L 46 321 Z" fill="none" stroke="#111" stroke-linecap="round" stroke-linejoin="round" stroke-width="1.6"/>
  <path d="M 782 315 L 781 314 L 778 318 L 774 320 L 772 319 L 771 321 L 773 321 L 776 324 L 776 321 L 778 319 L 781 321 L 782 320 Z" fill="none" stroke="#111" stroke-linecap="round" stroke-linejoin="round" stroke-width="1.6"/>
  <path d="M 389 314 L 387 316 L 390 319 L 391 317 Z" fill="none" stroke="#111" stroke-linecap="round" stroke-linejoin="round" stroke-width="1.6"/>
  <path d="M 51 313 L 50 314 L 55 318 L 54 319 L 57 322 L 58 321 L 54 317 L 55 316 Z" fill="none" stroke="#111" stroke-linecap="round" stroke-linejoin="round" stroke-width="1.6"/>
  <path d="M 880 312 L 879 311 L 871 318 L 874 318 Z" fill="none" stroke="#111" stroke-linecap="round" stroke-linejoin="round" stroke-width="1.6"/>
  <path d="M 713 310 L 708 314 L 710 316 L 710 324 L 707 327 L 707 331 L 705 333 L 706 335 L 708 333 L 711 335 L 713 333 Z" fill="none" stroke="#111" stroke-linecap="round" stroke-linejoin="round" stroke-width="1.6"/>
  <path d="M 368 311 L 373 315 L 377 315 L 379 312 L 378 310 L 376 312 L 372 312 L 369 310 Z" fill="none" stroke="#111" stroke-linecap="round" stroke-linejoin="round" stroke-width="1.6"/>
  <path d="M 40 309 L 37 309 L 30 314 L 27 321 L 27 337 L 29 339 L 29 343 L 32 346 L 32 342 L 34 340 L 30 335 L 32 333 L 30 330 L 32 326 L 30 320 L 34 317 L 33 315 L 37 311 L 39 312 L 41 310 Z" fill="none" stroke="#111" stroke-linecap="round" stroke-linejoin="round" stroke-width="1.6"/>
  <path d="M 1029 308 L 1026 312 L 1028 315 L 1028 330 L 1026 333 L 1028 337 L 1031 338 L 1032 309 Z" fill="none" stroke="#111" stroke-linecap="round" stroke-linejoin="round" stroke-width="1.6"/>
  <path d="M 354 307 L 353 308 L 356 311 L 354 313 L 358 317 L 359 312 Z" fill="none" stroke="#111" stroke-linecap="round" stroke-linejoin="round" stroke-width="1.6"/>
  <path d="M 249 307 L 248 309 L 250 312 L 252 310 Z" fill="none" stroke="#111" stroke-linecap="round" stroke-linejoin="round" stroke-width="1.6"/>
  <path d="M 256 305 L 255 307 L 265 317 L 266 316 Z" fill="none" stroke="#111" stroke-linecap="round" stroke-linejoin="round" stroke-width="1.6"/>
  <path d="M 818 302 L 816 302 L 813 305 L 815 308 L 815 314 L 811 318 L 809 318 L 810 320 L 808 322 L 806 322 L 810 329 L 806 332 L 807 333 L 802 338 L 803 339 L 812 330 L 816 333 L 819 332 Z" fill="none" stroke="#111" stroke-linecap="round" stroke-linejoin="round" stroke-width="1.6"/>
  <path d="M 545 303 L 546 308 L 549 310 L 548 311 L 560 323 L 561 322 L 548 309 L 550 307 L 554 311 L 556 310 L 560 315 L 562 314 L 570 321 L 575 317 L 558 309 L 548 302 Z" fill="none" stroke="#111" stroke-linecap="round" stroke-linejoin="round" stroke-width="1.6"/>
  <path d="M 377 301 L 376 305 L 378 306 L 380 304 Z" fill="none" stroke="#111" stroke-linecap="round" stroke-linejoin="round" stroke-width="1.6"/>
  <path d="M 463 301 L 474 313 L 477 310 L 479 312 L 480 311 L 478 311 L 470 303 L 464 300 Z" fill="none" stroke="#111" stroke-linecap="round" stroke-linejoin="round" stroke-width="1.6"/>
  <path d="M 443 300 L 444 305 L 448 307 L 451 311 L 462 311 L 454 304 L 449 304 L 447 302 L 449 300 L 448 299 Z" fill="none" stroke="#111" stroke-linecap="round" stroke-linejoin="round" stroke-width="1.6"/>
  <path d="M 347 299 L 346 300 L 352 306 L 353 305 Z" fill="none" stroke="#111" stroke-linecap="round" stroke-linejoin="round" stroke-width="1.6"/>
  <path d="M 355 298 L 354 299 L 358 303 L 356 305 L 358 306 L 360 304 L 365 309 L 366 308 Z" fill="none" stroke="#111" stroke-linecap="round" stroke-linejoin="round" stroke-width="1.6"/>
  <path d="M 251 297 L 249 299 L 253 301 L 254 298 Z" fill="none" stroke="#111" stroke-linecap="round" stroke-linejoin="round" stroke-width="1.6"/>
  <path d="M 912 295 L 909 300 L 912 303 L 912 309 L 909 312 L 910 315 L 903 319 L 903 322 L 897 327 L 898 329 L 894 333 L 895 334 L 909 320 L 912 325 L 916 323 L 915 297 Z" fill="none" stroke="#111" stroke-linecap="round" stroke-linejoin="round" stroke-width="1.6"/>
  <path d="M 133 290 L 131 292 L 131 299 L 133 303 L 135 303 L 133 299 L 135 295 L 141 304 L 140 306 L 147 312 L 145 314 L 138 312 L 137 313 L 140 316 L 139 320 L 146 331 L 147 330 L 145 326 L 141 322 L 145 318 L 149 318 L 151 316 L 157 321 L 162 321 L 158 315 L 153 313 L 143 304 Z" fill="none" stroke="#111" stroke-linecap="round" stroke-linejoin="round" stroke-width="1.6"/>
  <path d="M 459 237 L 459 242 L 461 240 Z" fill="none" stroke="#111" stroke-linecap="round" stroke-linejoin="round" stroke-width="1.6"/>
  <path d="M 217 237 L 217 242 L 219 240 Z" fill="none" stroke="#111" stroke-linecap="round" stroke-linejoin="round" stroke-width="1.6"/>
  <path d="M 949 236 L 949 242 Z" fill="none" stroke="#111" stroke-linecap="round" stroke-linejoin="round" stroke-width="1.6"/>
  <path d="M 109 236 L 109 242 Z" fill="none" stroke="#111" stroke-linecap="round" stroke-linejoin="round" stroke-width="1.6"/>
  <path d="M 820 232 L 822 234 L 825 232 Z" fill="none" stroke="#111" stroke-linecap="round" stroke-linejoin="round" stroke-width="1.6"/>
  <path d="M 349 231 L 346 238 L 350 240 L 351 232 Z" fill="none" stroke="#111" stroke-linecap="round" stroke-linejoin="round" stroke-width="1.6"/>
  <path d="M 337 231 L 335 232 L 336 241 L 340 239 Z" fill="none" stroke="#111" stroke-linecap="round" stroke-linejoin="round" stroke-width="1.6"/>
  <path d="M 708 216 L 712 219 L 714 217 L 713 215 L 711 217 L 709 215 Z" fill="none" stroke="#111" stroke-linecap="round" stroke-linejoin="round" stroke-width="1.6"/>
  <path d="M 466 205 L 465 204 L 460 206 L 464 209 Z" fill="none" stroke="#111" stroke-linecap="round" stroke-linejoin="round" stroke-width="1.6"/>
  <path d="M 686 195 L 685 196 L 690 201 L 691 200 Z" fill="none" stroke="#111" stroke-linecap="round" stroke-linejoin="round" stroke-width="1.6"/>
  <path d="M 343 197 L 339 194 L 331 202 L 332 203 L 335 201 L 341 201 Z" fill="none" stroke="#111" stroke-linecap="round" stroke-linejoin="round" stroke-width="1.6"/>
  <path d="M 839 195 L 833 191 L 830 193 L 827 190 L 827 195 L 824 199 L 825 200 L 820 203 L 816 208 L 817 209 L 826 205 L 833 198 Z" fill="none" stroke="#111" stroke-linecap="round" stroke-linejoin="round" stroke-width="1.6"/>
  <path d="M 794 190 L 793 205 L 795 214 L 798 215 L 802 212 L 799 209 L 797 201 L 797 196 L 799 194 Z" fill="none" stroke="#111" stroke-linecap="round" stroke-linejoin="round" stroke-width="1.6"/>
  <path d="M 193 188 L 190 192 L 191 213 L 193 213 L 196 210 L 194 207 L 194 194 L 196 191 Z" fill="none" stroke="#111" stroke-linecap="round" stroke-linejoin="round" stroke-width="1.6"/>
  <path d="M 379 187 L 378 188 L 380 190 L 376 194 L 377 195 L 381 191 Z" fill="none" stroke="#111" stroke-linecap="round" stroke-linejoin="round" stroke-width="1.6"/>
  <path d="M 615 187 L 608 184 L 608 186 L 605 189 L 606 191 L 609 191 L 611 193 L 608 197 L 605 197 L 609 200 L 607 204 L 600 203 L 598 201 L 592 201 L 591 202 L 594 205 L 591 208 L 595 209 L 596 208 L 594 205 L 596 203 L 599 205 L 599 208 L 604 207 L 607 204 L 614 205 L 619 197 L 619 194 L 616 191 Z" fill="none" stroke="#111" stroke-linecap="round" stroke-linejoin="round" stroke-width="1.6"/>
  <path d="M 371 187 L 361 184 L 360 185 L 368 192 L 366 194 L 361 190 L 357 190 L 354 188 L 351 191 L 347 191 L 346 195 L 350 198 L 350 200 L 354 196 L 366 194 L 371 195 L 372 194 L 369 189 Z" fill="none" stroke="#111" stroke-linecap="round" stroke-linejoin="round" stroke-width="1.6"/>
  <path d="M 732 189 L 728 184 L 724 184 L 730 191 L 728 195 L 730 197 L 727 201 L 725 199 L 726 195 L 723 190 L 717 190 L 714 192 L 708 190 L 706 192 L 708 195 L 704 202 L 702 200 L 696 203 L 693 201 L 692 202 L 699 206 L 707 214 L 707 211 L 710 208 L 712 210 L 713 208 L 708 203 L 707 204 L 709 207 L 706 210 L 700 205 L 705 201 L 706 202 L 709 196 L 713 194 L 723 199 L 723 209 L 727 210 L 730 208 L 732 201 Z" fill="none" stroke="#111" stroke-linecap="round" stroke-linejoin="round" stroke-width="1.6"/>
  <path d="M 337 183 L 339 185 L 347 183 Z" fill="none" stroke="#111" stroke-linecap="round" stroke-linejoin="round" stroke-width="1.6"/>
  <path d="M 602 181 L 598 182 L 599 184 L 596 188 L 601 192 L 596 196 L 599 199 L 603 196 L 600 193 L 603 190 L 599 184 L 601 182 L 602 183 Z" fill="none" stroke="#111" stroke-linecap="round" stroke-linejoin="round" stroke-width="1.6"/>
  <path d="M 349 182 L 352 182 L 354 184 L 358 183 L 355 181 Z" fill="none" stroke="#111" stroke-linecap="round" stroke-linejoin="round" stroke-width="1.6"/>
  <path d="M 925 179 L 922 180 L 923 202 L 927 199 L 925 197 L 925 184 L 927 182 Z" fill="none" stroke="#111" stroke-linecap="round" stroke-linejoin="round" stroke-width="1.6"/>
  <path d="M 241 181 L 238 179 L 235 181 L 231 181 L 226 187 L 226 189 L 219 195 L 217 200 L 211 206 L 212 207 L 220 199 L 224 197 L 222 195 L 229 189 L 231 191 L 226 196 L 227 197 L 231 193 L 231 189 Z" fill="none" stroke="#111" stroke-linecap="round" stroke-linejoin="round" stroke-width="1.6"/>
  <path d="M 85 179 L 82 180 L 83 202 L 87 199 L 85 197 L 85 184 L 87 182 Z" fill="none" stroke="#111" stroke-linecap="round" stroke-linejoin="round" stroke-width="1.6"/>
  <path d="M 305 178 L 305 201 L 309 202 L 311 200 L 319 204 L 319 202 L 318 203 L 312 199 L 311 200 L 308 197 L 307 184 L 309 181 Z" fill="none" stroke="#111" stroke-linecap="round" stroke-linejoin="round" stroke-width="1.6"/>
  <path d="M 550 177 L 546 179 L 546 197 L 549 210 L 551 210 L 554 207 L 551 201 L 551 185 L 555 182 L 553 182 Z" fill="none" stroke="#111" stroke-linecap="round" stroke-linejoin="round" stroke-width="1.6"/>
  <path d="M 953 175 L 947 178 L 954 179 L 956 181 L 961 193 L 960 197 L 957 200 L 949 201 L 947 199 L 950 196 L 952 197 L 952 194 L 954 192 L 948 190 L 938 198 L 939 199 L 942 197 L 946 202 L 944 204 L 945 205 L 950 205 L 954 207 L 955 206 L 957 208 L 962 205 L 961 201 L 963 199 L 964 193 L 957 177 Z" fill="none" stroke="#111" stroke-linecap="round" stroke-linejoin="round" stroke-width="1.6"/>
  <path d="M 113 175 L 107 178 L 114 179 L 116 181 L 121 193 L 120 197 L 117 200 L 109 201 L 107 199 L 110 196 L 112 197 L 112 194 L 114 192 L 108 190 L 98 198 L 99 199 L 102 197 L 106 202 L 104 204 L 105 205 L 110 205 L 114 207 L 115 206 L 117 208 L 122 205 L 121 201 L 123 199 L 124 193 L 117 177 Z" fill="none" stroke="#111" stroke-linecap="round" stroke-linejoin="round" stroke-width="1.6"/>
  <path d="M 230 175 L 227 174 L 219 180 L 213 181 L 200 189 L 201 190 L 213 183 L 216 185 L 226 176 L 228 177 Z" fill="none" stroke="#111" stroke-linecap="round" stroke-linejoin="round" stroke-width="1.6"/>
  <path d="M 449 172 L 446 174 L 442 186 L 441 195 L 443 198 L 447 196 L 449 198 L 450 197 L 448 197 L 445 194 L 448 180 L 452 175 Z" fill="none" stroke="#111" stroke-linecap="round" stroke-linejoin="round" stroke-width="1.6"/>
  <path d="M 813 175 L 814 176 L 817 173 L 819 175 L 823 172 L 817 171 Z" fill="none" stroke="#111" stroke-linecap="round" stroke-linejoin="round" stroke-width="1.6"/>
  <path d="M 587 171 L 586 172 L 590 176 L 588 179 L 594 181 L 595 180 L 593 177 L 595 175 L 595 172 Z" fill="none" stroke="#111" stroke-linecap="round" stroke-linejoin="round" stroke-width="1.6"/>
  <path d="M 561 176 L 562 177 L 568 172 L 571 175 L 577 176 L 579 172 L 569 171 Z" fill="none" stroke="#111" stroke-linecap="round" stroke-linejoin="round" stroke-width="1.6"/>
  <path d="M 469 171 L 468 172 L 470 174 L 470 177 L 466 182 L 467 184 L 465 186 L 465 194 L 470 204 L 475 209 L 472 212 L 469 210 L 468 211 L 476 220 L 478 220 L 480 217 L 479 216 L 477 218 L 473 214 L 476 210 L 478 210 L 474 205 L 476 203 L 474 200 L 476 197 L 473 194 L 475 191 L 473 188 L 475 185 L 473 183 L 471 184 L 469 181 L 471 179 L 473 180 L 476 174 L 480 177 L 480 182 L 478 184 L 479 185 L 481 183 L 483 185 L 480 190 L 482 193 L 479 196 L 482 199 L 478 202 L 479 203 L 484 199 L 483 190 L 485 186 L 481 176 L 478 173 Z" fill="none" stroke="#111" stroke-linecap="round" stroke-linejoin="round" stroke-width="1.6"/>
  <path d="M 675 170 L 674 192 L 676 199 L 680 200 L 680 197 L 682 195 L 679 192 L 678 179 L 684 176 L 680 175 L 678 171 Z" fill="none" stroke="#111" stroke-linecap="round" stroke-linejoin="round" stroke-width="1.6"/>
  <path d="M 825 171 L 831 177 L 832 176 L 840 181 L 842 184 L 840 186 L 835 181 L 834 182 L 841 189 L 841 192 L 844 189 L 845 184 L 838 174 L 840 172 L 839 171 L 835 174 L 830 170 L 830 168 Z" fill="none" stroke="#111" stroke-linecap="round" stroke-linejoin="round" stroke-width="1.6"/>
  <path d="M 255 169 L 252 166 L 232 174 L 242 175 L 245 178 L 243 180 L 244 181 L 251 175 L 250 174 L 247 176 L 243 173 L 246 170 L 251 170 L 253 174 L 255 172 Z" fill="none" stroke="#111" stroke-linecap="round" stroke-linejoin="round" stroke-width="1.6"/>
  <path d="M 852 158 L 848 156 L 838 163 L 839 164 L 845 159 L 850 162 Z" fill="none" stroke="#111" stroke-linecap="round" stroke-linejoin="round" stroke-width="1.6"/>
  <path d="M 947 92 L 945 94 L 947 97 Z" fill="none" stroke="#111" stroke-linecap="round" stroke-linejoin="round" stroke-width="1.6"/>
  <path d="M 107 92 L 105 94 L 107 97 Z" fill="none" stroke="#111" stroke-linecap="round" stroke-linejoin="round" stroke-width="1.6"/>
  <path d="M 822 91 L 820 94 L 823 96 L 825 93 Z" fill="none" stroke="#111" stroke-linecap="round" stroke-linejoin="round" stroke-width="1.6"/>
  <path d="M 464 89 L 461 93 L 463 96 L 465 94 Z" fill="none" stroke="#111" stroke-linecap="round" stroke-linejoin="round" stroke-width="1.6"/>
  <path d="M 245 66 L 242 70 L 243 71 L 247 70 Z" fill="none" stroke="#111" stroke-linecap="round" stroke-linejoin="round" stroke-width="1.6"/>
  <path d="M 451 67 L 448 65 L 445 69 L 443 67 L 441 70 L 442 73 L 445 74 Z" fill="none" stroke="#111" stroke-linecap="round" stroke-linejoin="round" stroke-width="1.6"/>
  <path d="M 224 60 L 223 61 L 229 67 L 230 66 Z" fill="none" stroke="#111" stroke-linecap="round" stroke-linejoin="round" stroke-width="1.6"/>
  <path d="M 958 60 L 956 58 L 952 62 L 954 63 Z" fill="none" stroke="#111" stroke-linecap="round" stroke-linejoin="round" stroke-width="1.6"/>
  <path d="M 118 60 L 116 58 L 112 62 L 114 63 Z" fill="none" stroke="#111" stroke-linecap="round" stroke-linejoin="round" stroke-width="1.6"/>
  <path d="M 452 58 L 448 54 L 444 57 L 441 57 L 439 55 L 438 56 L 442 58 L 444 57 L 448 61 Z" fill="none" stroke="#111" stroke-linecap="round" stroke-linejoin="round" stroke-width="1.6"/>
  <path d="M 368 53 L 368 57 L 366 59 L 367 60 L 371 57 Z" fill="none" stroke="#111" stroke-linecap="round" stroke-linejoin="round" stroke-width="1.6"/>
  <path d="M 938 54 L 934 50 L 932 50 L 927 54 L 922 54 L 920 61 L 923 64 L 930 66 L 931 65 L 929 61 L 926 61 L 924 59 L 926 57 L 928 58 L 930 56 Z" fill="none" stroke="#111" stroke-linecap="round" stroke-linejoin="round" stroke-width="1.6"/>
  <path d="M 228 51 L 231 55 L 236 54 L 230 50 Z" fill="none" stroke="#111" stroke-linecap="round" stroke-linejoin="round" stroke-width="1.6"/>
  <path d="M 98 54 L 94 50 L 92 50 L 87 54 L 82 54 L 80 61 L 83 64 L 90 66 L 91 65 L 89 61 L 86 61 L 84 59 L 86 57 L 88 58 L 90 56 Z" fill="none" stroke="#111" stroke-linecap="round" stroke-linejoin="round" stroke-width="1.6"/>
  <path d="M 254 48 L 249 52 L 247 50 L 246 51 L 248 51 L 251 55 L 251 68 L 249 70 L 251 73 L 255 72 L 256 50 Z" fill="none" stroke="#111" stroke-linecap="round" stroke-linejoin="round" stroke-width="1.6"/>
  <path d="M 836 47 L 835 48 L 843 56 L 839 67 L 835 70 L 838 73 L 847 57 L 847 53 L 842 53 Z" fill="none" stroke="#111" stroke-linecap="round" stroke-linejoin="round" stroke-width="1.6"/>
  <path d="M 689 46 L 678 55 L 678 61 L 676 63 L 674 61 L 673 63 L 677 67 L 680 65 L 681 66 L 685 63 L 689 55 L 695 50 L 698 55 L 687 66 L 685 70 L 686 71 L 688 69 L 691 69 L 693 71 L 691 73 L 692 74 L 704 64 L 703 63 L 697 67 L 693 63 L 699 56 L 699 52 L 697 47 L 694 47 L 692 49 Z" fill="none" stroke="#111" stroke-linecap="round" stroke-linejoin="round" stroke-width="1.6"/>
  <path d="M 589 46 L 585 50 L 587 55 L 589 55 L 589 52 L 593 50 Z" fill="none" stroke="#111" stroke-linecap="round" stroke-linejoin="round" stroke-width="1.6"/>
  <path d="M 337 46 L 329 50 L 326 54 L 329 57 L 332 57 L 332 54 L 336 52 L 336 49 L 338 47 Z" fill="none" stroke="#111" stroke-linecap="round" stroke-linejoin="round" stroke-width="1.6"/>
  <path d="M 439 46 L 440 50 L 446 48 L 444 46 Z" fill="none" stroke="#111" stroke-linecap="round" stroke-linejoin="round" stroke-width="1.6"/>
  <path d="M 323 43 L 319 45 L 322 48 L 324 45 Z" fill="none" stroke="#111" stroke-linecap="round" stroke-linejoin="round" stroke-width="1.6"/>
  <path d="M 205 44 L 208 47 L 208 52 L 214 56 L 218 55 L 215 55 L 212 52 L 214 50 L 217 52 L 220 47 L 223 47 L 219 45 L 211 46 L 206 43 Z" fill="none" stroke="#111" stroke-linecap="round" stroke-linejoin="round" stroke-width="1.6"/>
  <path d="M 556 42 L 550 50 L 550 52 L 553 55 L 552 59 L 554 60 L 555 59 L 553 57 L 555 55 L 558 55 L 561 58 L 559 60 L 561 63 L 563 59 L 561 56 L 565 52 L 569 56 L 566 59 L 568 61 L 566 63 L 575 64 L 576 63 L 573 60 L 577 56 L 575 49 L 576 44 L 575 43 L 573 45 L 575 49 L 572 52 L 566 51 L 564 53 L 558 50 L 563 46 L 566 48 L 570 45 L 568 44 L 564 47 L 561 45 L 557 47 L 555 45 L 557 43 Z" fill="none" stroke="#111" stroke-linecap="round" stroke-linejoin="round" stroke-width="1.6"/>
  <path d="M 345 42 L 343 46 L 349 47 L 349 43 Z" fill="none" stroke="#111" stroke-linecap="round" stroke-linejoin="round" stroke-width="1.6"/>
  <path d="M 967 41 L 962 43 L 964 45 L 963 57 L 961 59 L 963 62 L 966 61 L 966 50 L 968 43 Z" fill="none" stroke="#111" stroke-linecap="round" stroke-linejoin="round" stroke-width="1.6"/>
  <path d="M 127 41 L 122 43 L 124 45 L 123 57 L 121 59 L 123 62 L 126 61 L 126 50 L 128 43 Z" fill="none" stroke="#111" stroke-linecap="round" stroke-linejoin="round" stroke-width="1.6"/>
  <path d="M 930 40 L 924 46 L 925 47 L 931 41 Z" fill="none" stroke="#111" stroke-linecap="round" stroke-linejoin="round" stroke-width="1.6"/>
  <path d="M 90 40 L 84 46 L 85 47 L 91 41 Z" fill="none" stroke="#111" stroke-linecap="round" stroke-linejoin="round" stroke-width="1.6"/>
  <path d="M 687 39 L 686 38 L 677 44 L 678 45 Z" fill="none" stroke="#111" stroke-linecap="round" stroke-linejoin="round" stroke-width="1.6"/>
  <path d="M 568 39 L 566 38 L 559 42 L 561 43 L 564 40 L 567 42 Z" fill="none" stroke="#111" stroke-linecap="round" stroke-linejoin="round" stroke-width="1.6"/>
  <path d="M 351 38 L 350 41 L 354 43 L 356 39 Z" fill="none" stroke="#111" stroke-linecap="round" stroke-linejoin="round" stroke-width="1.6"/>
  <path d="M 611 36 L 607 40 L 609 42 L 609 61 L 607 63 L 611 69 L 614 69 L 614 38 Z" fill="none" stroke="#111" stroke-linecap="round" stroke-linejoin="round" stroke-width="1.6"/>
  <path d="M 443 36 L 440 40 L 441 43 L 446 39 Z" fill="none" stroke="#111" stroke-linecap="round" stroke-linejoin="round" stroke-width="1.6"/>
  <path d="M 584 37 L 582 35 L 579 38 L 576 38 L 578 39 L 580 37 Z" fill="none" stroke="#111" stroke-linecap="round" stroke-linejoin="round" stroke-width="1.6"/>
  <path d="M 939 35 L 934 34 L 931 38 L 936 38 Z" fill="none" stroke="#111" stroke-linecap="round" stroke-linejoin="round" stroke-width="1.6"/>
  <path d="M 99 35 L 94 34 L 91 38 L 96 38 Z" fill="none" stroke="#111" stroke-linecap="round" stroke-linejoin="round" stroke-width="1.6"/>
  <path d="M 728 33 L 725 36 L 727 39 L 726 53 L 724 55 L 730 61 L 730 34 Z" fill="none" stroke="#111" stroke-linecap="round" stroke-linejoin="round" stroke-width="1.6"/>
  <path d="M 702 34 L 696 33 L 693 36 L 692 35 L 689 37 L 690 38 L 694 35 L 700 36 Z" fill="none" stroke="#111" stroke-linecap="round" stroke-linejoin="round" stroke-width="1.6"/>
  <path d="M 576 33 L 573 32 L 569 37 L 573 38 Z" fill="none" stroke="#111" stroke-linecap="round" stroke-linejoin="round" stroke-width="1.6"/>
  <path d="M 376 32 L 373 38 L 375 41 L 375 55 L 373 58 L 376 62 L 378 62 L 378 43 L 380 34 Z" fill="none" stroke="#111" stroke-linecap="round" stroke-linejoin="round" stroke-width="1.6"/>
  <path d="M 486 30 L 483 34 L 485 37 L 484 53 L 482 55 L 479 55 L 477 53 L 476 54 L 481 56 L 485 63 L 487 61 L 489 32 Z" fill="none" stroke="#111" stroke-linecap="round" stroke-linejoin="round" stroke-width="1.6"/>
  <path d="M 816 30 L 821 34 L 824 31 L 826 31 L 824 29 Z" fill="none" stroke="#111" stroke-linecap="round" stroke-linejoin="round" stroke-width="1.6"/>
  <path d="M 450 28 L 444 33 L 445 35 L 451 29 Z" fill="none" stroke="#111" stroke-linecap="round" stroke-linejoin="round" stroke-width="1.6"/>
  <path d="M 798 26 L 797 27 L 801 31 L 801 35 L 796 40 L 796 43 L 798 44 L 803 37 L 808 41 L 806 43 L 803 43 L 810 47 L 812 39 Z" fill="none" stroke="#111" stroke-linecap="round" stroke-linejoin="round" stroke-width="1.6"/>
  <path d="M 189 27 L 191 35 L 194 38 L 199 39 L 203 43 L 204 42 L 193 32 L 195 29 L 203 33 L 206 37 L 208 36 L 220 41 L 223 41 L 226 38 L 209 34 L 193 26 Z" fill="none" stroke="#111" stroke-linecap="round" stroke-linejoin="round" stroke-width="1.6"/>
  <path d="M 792 14 L 791 19 L 796 25 L 797 24 L 793 19 L 796 16 Z" fill="none" stroke="#111" stroke-linecap="round" stroke-linejoin="round" stroke-width="1.6"/>
  <text fill="#444" font-family="ui-sans-serif, system-ui, -apple-system, Segoe UI, Roboto, Arial" font-size="12px" x="12" y="687">Vector traced from PNG (white background, black contours)</text>
</svg>
