<?xml version="1.0" encoding="UTF-8"?>
<svg xmlns="http://www.w3.org/2000/svg" viewBox="0 0 952 2928" width="952" height="2928">
  <defs>
    <style type="text/css"><![CDATA[
      @font-face {
        font-family: 'Bravura';
        font-style: normal;
        font-weight: 400;
        font-display: swap;
        src: url('https://cdn.jsdelivr.net/npm/@fontsource/bravura@5.2.5/files/bravura-latin-400-normal.woff2') format('woff2');
      }
    ]]></style>
  </defs>
  <rect width="100%" height="100%" fill="#fafafa"/>
  <text x="476" y="20" text-anchor="middle" font-family="system-ui,sans-serif" font-size="17" font-weight="700" fill="#111">Helistikud ja võtmemärgid (SMuFL / Bravura)</text>
  <text x="476" y="38" text-anchor="middle" font-family="system-ui,sans-serif" font-size="10.5" fill="#555">Viiul: staff-indeksid scripts/wikimedia-measured-key-positions.json (pitch→staff; Commons piltidel kinnitatud tippude arv). Horisontaal: 1×sp; märk ~2,5×sp. Wikimedia 4 võtit: public/reference/key-signatures-wikimedia-4-clefs.svg. Indeks 0 = alumine joon.</text>
  <g transform="translate(16, 24)"><text x="8" y="22" font-family="system-ui,sans-serif" font-size="14" font-weight="700" fill="#111">Viiulivõti — dieesid (suurhelistikud)</text><text x="8" y="40" font-family="system-ui,sans-serif" font-size="10.5" fill="#555">Dieesid: F♯, C♯, G♯, D♯, A♯, E♯, B♯</text><text x="8" y="90" font-family="system-ui,sans-serif" font-size="11" fill="#333">C-duur / a-moll</text><text x="194" y="90" font-family="system-ui,sans-serif" font-size="11" text-anchor="end" fill="#666">0</text><line x1="208" y1="74" x2="628" y2="74" stroke="#1a1a1a" stroke-width="1.1"/>
<line x1="208" y1="84" x2="628" y2="84" stroke="#1a1a1a" stroke-width="1.1"/>
<line x1="208" y1="94" x2="628" y2="94" stroke="#1a1a1a" stroke-width="1.1"/>
<line x1="208" y1="104" x2="628" y2="104" stroke="#1a1a1a" stroke-width="1.1"/>
<line x1="208" y1="114" x2="628" y2="114" stroke="#1a1a1a" stroke-width="1.1"/><text x="214" y="97.5" font-family="Bravura,serif" font-size="40" fill="#1a1a1a" text-anchor="middle" dominant-baseline="middle"></text><line x1="0" y1="126" x2="920" y2="126" stroke="#eee"/><text x="8" y="168" font-family="system-ui,sans-serif" font-size="11" fill="#333">G-duur / e-moll</text><text x="194" y="168" font-family="system-ui,sans-serif" font-size="11" text-anchor="end" fill="#666">1</text><line x1="208" y1="152" x2="628" y2="152" stroke="#1a1a1a" stroke-width="1.1"/>
<line x1="208" y1="162" x2="628" y2="162" stroke="#1a1a1a" stroke-width="1.1"/>
<line x1="208" y1="172" x2="628" y2="172" stroke="#1a1a1a" stroke-width="1.1"/>
<line x1="208" y1="182" x2="628" y2="182" stroke="#1a1a1a" stroke-width="1.1"/>
<line x1="208" y1="192" x2="628" y2="192" stroke="#1a1a1a" stroke-width="1.1"/><text x="214" y="175.5" font-family="Bravura,serif" font-size="40" fill="#1a1a1a" text-anchor="middle" dominant-baseline="middle"></text><text x="259" y="152" font-family="Bravura,serif" font-size="28" fill="#1a1a1a" text-anchor="middle" dominant-baseline="middle"></text>
<line x1="0" y1="204" x2="920" y2="204" stroke="#eee"/><text x="8" y="246" font-family="system-ui,sans-serif" font-size="11" fill="#333">D-duur / h-moll</text><text x="194" y="246" font-family="system-ui,sans-serif" font-size="11" text-anchor="end" fill="#666">2</text><line x1="208" y1="230" x2="628" y2="230" stroke="#1a1a1a" stroke-width="1.1"/>
<line x1="208" y1="240" x2="628" y2="240" stroke="#1a1a1a" stroke-width="1.1"/>
<line x1="208" y1="250" x2="628" y2="250" stroke="#1a1a1a" stroke-width="1.1"/>
<line x1="208" y1="260" x2="628" y2="260" stroke="#1a1a1a" stroke-width="1.1"/>
<line x1="208" y1="270" x2="628" y2="270" stroke="#1a1a1a" stroke-width="1.1"/><text x="214" y="253.5" font-family="Bravura,serif" font-size="40" fill="#1a1a1a" text-anchor="middle" dominant-baseline="middle"></text><text x="259" y="230" font-family="Bravura,serif" font-size="28" fill="#1a1a1a" text-anchor="middle" dominant-baseline="middle"></text>
<text x="269" y="245" font-family="Bravura,serif" font-size="28" fill="#1a1a1a" text-anchor="middle" dominant-baseline="middle"></text>
<line x1="0" y1="282" x2="920" y2="282" stroke="#eee"/><text x="8" y="324" font-family="system-ui,sans-serif" font-size="11" fill="#333">A-duur / f♯-moll</text><text x="194" y="324" font-family="system-ui,sans-serif" font-size="11" text-anchor="end" fill="#666">3</text><line x1="208" y1="308" x2="628" y2="308" stroke="#1a1a1a" stroke-width="1.1"/>
<line x1="208" y1="318" x2="628" y2="318" stroke="#1a1a1a" stroke-width="1.1"/>
<line x1="208" y1="328" x2="628" y2="328" stroke="#1a1a1a" stroke-width="1.1"/>
<line x1="208" y1="338" x2="628" y2="338" stroke="#1a1a1a" stroke-width="1.1"/>
<line x1="208" y1="348" x2="628" y2="348" stroke="#1a1a1a" stroke-width="1.1"/><text x="214" y="331.5" font-family="Bravura,serif" font-size="40" fill="#1a1a1a" text-anchor="middle" dominant-baseline="middle"></text><text x="259" y="308" font-family="Bravura,serif" font-size="28" fill="#1a1a1a" text-anchor="middle" dominant-baseline="middle"></text>
<text x="269" y="323" font-family="Bravura,serif" font-size="28" fill="#1a1a1a" text-anchor="middle" dominant-baseline="middle"></text>
<text x="279" y="303" font-family="Bravura,serif" font-size="28" fill="#1a1a1a" text-anchor="middle" dominant-baseline="middle"></text>
<line x1="0" y1="360" x2="920" y2="360" stroke="#eee"/><text x="8" y="402" font-family="system-ui,sans-serif" font-size="11" fill="#333">E-duur / c♯-moll</text><text x="194" y="402" font-family="system-ui,sans-serif" font-size="11" text-anchor="end" fill="#666">4</text><line x1="208" y1="386" x2="628" y2="386" stroke="#1a1a1a" stroke-width="1.1"/>
<line x1="208" y1="396" x2="628" y2="396" stroke="#1a1a1a" stroke-width="1.1"/>
<line x1="208" y1="406" x2="628" y2="406" stroke="#1a1a1a" stroke-width="1.1"/>
<line x1="208" y1="416" x2="628" y2="416" stroke="#1a1a1a" stroke-width="1.1"/>
<line x1="208" y1="426" x2="628" y2="426" stroke="#1a1a1a" stroke-width="1.1"/><text x="214" y="409.5" font-family="Bravura,serif" font-size="40" fill="#1a1a1a" text-anchor="middle" dominant-baseline="middle"></text><text x="259" y="386" font-family="Bravura,serif" font-size="28" fill="#1a1a1a" text-anchor="middle" dominant-baseline="middle"></text>
<text x="269" y="401" font-family="Bravura,serif" font-size="28" fill="#1a1a1a" text-anchor="middle" dominant-baseline="middle"></text>
<text x="279" y="381" font-family="Bravura,serif" font-size="28" fill="#1a1a1a" text-anchor="middle" dominant-baseline="middle"></text>
<text x="289" y="396" font-family="Bravura,serif" font-size="28" fill="#1a1a1a" text-anchor="middle" dominant-baseline="middle"></text>
<line x1="0" y1="438" x2="920" y2="438" stroke="#eee"/><text x="8" y="480" font-family="system-ui,sans-serif" font-size="11" fill="#333">H-duur / g♯-moll</text><text x="194" y="480" font-family="system-ui,sans-serif" font-size="11" text-anchor="end" fill="#666">5</text><line x1="208" y1="464" x2="628" y2="464" stroke="#1a1a1a" stroke-width="1.1"/>
<line x1="208" y1="474" x2="628" y2="474" stroke="#1a1a1a" stroke-width="1.1"/>
<line x1="208" y1="484" x2="628" y2="484" stroke="#1a1a1a" stroke-width="1.1"/>
<line x1="208" y1="494" x2="628" y2="494" stroke="#1a1a1a" stroke-width="1.1"/>
<line x1="208" y1="504" x2="628" y2="504" stroke="#1a1a1a" stroke-width="1.1"/><text x="214" y="487.5" font-family="Bravura,serif" font-size="40" fill="#1a1a1a" text-anchor="middle" dominant-baseline="middle"></text><text x="259" y="464" font-family="Bravura,serif" font-size="28" fill="#1a1a1a" text-anchor="middle" dominant-baseline="middle"></text>
<text x="269" y="479" font-family="Bravura,serif" font-size="28" fill="#1a1a1a" text-anchor="middle" dominant-baseline="middle"></text>
<text x="279" y="459" font-family="Bravura,serif" font-size="28" fill="#1a1a1a" text-anchor="middle" dominant-baseline="middle"></text>
<text x="289" y="474" font-family="Bravura,serif" font-size="28" fill="#1a1a1a" text-anchor="middle" dominant-baseline="middle"></text>
<text x="299" y="489" font-family="Bravura,serif" font-size="28" fill="#1a1a1a" text-anchor="middle" dominant-baseline="middle"></text>
<line x1="0" y1="516" x2="920" y2="516" stroke="#eee"/><text x="8" y="558" font-family="system-ui,sans-serif" font-size="11" fill="#333">F♯-duur / d♯-moll</text><text x="194" y="558" font-family="system-ui,sans-serif" font-size="11" text-anchor="end" fill="#666">6</text><line x1="208" y1="542" x2="628" y2="542" stroke="#1a1a1a" stroke-width="1.1"/>
<line x1="208" y1="552" x2="628" y2="552" stroke="#1a1a1a" stroke-width="1.1"/>
<line x1="208" y1="562" x2="628" y2="562" stroke="#1a1a1a" stroke-width="1.1"/>
<line x1="208" y1="572" x2="628" y2="572" stroke="#1a1a1a" stroke-width="1.1"/>
<line x1="208" y1="582" x2="628" y2="582" stroke="#1a1a1a" stroke-width="1.1"/><text x="214" y="565.5" font-family="Bravura,serif" font-size="40" fill="#1a1a1a" text-anchor="middle" dominant-baseline="middle"></text><text x="259" y="542" font-family="Bravura,serif" font-size="28" fill="#1a1a1a" text-anchor="middle" dominant-baseline="middle"></text>
<text x="269" y="557" font-family="Bravura,serif" font-size="28" fill="#1a1a1a" text-anchor="middle" dominant-baseline="middle"></text>
<text x="279" y="537" font-family="Bravura,serif" font-size="28" fill="#1a1a1a" text-anchor="middle" dominant-baseline="middle"></text>
<text x="289" y="552" font-family="Bravura,serif" font-size="28" fill="#1a1a1a" text-anchor="middle" dominant-baseline="middle"></text>
<text x="299" y="567" font-family="Bravura,serif" font-size="28" fill="#1a1a1a" text-anchor="middle" dominant-baseline="middle"></text>
<text x="309" y="547" font-family="Bravura,serif" font-size="28" fill="#1a1a1a" text-anchor="middle" dominant-baseline="middle"></text>
<line x1="0" y1="594" x2="920" y2="594" stroke="#eee"/><text x="8" y="636" font-family="system-ui,sans-serif" font-size="11" fill="#333">C♯-duur / a♯-moll</text><text x="194" y="636" font-family="system-ui,sans-serif" font-size="11" text-anchor="end" fill="#666">7</text><line x1="208" y1="620" x2="628" y2="620" stroke="#1a1a1a" stroke-width="1.1"/>
<line x1="208" y1="630" x2="628" y2="630" stroke="#1a1a1a" stroke-width="1.1"/>
<line x1="208" y1="640" x2="628" y2="640" stroke="#1a1a1a" stroke-width="1.1"/>
<line x1="208" y1="650" x2="628" y2="650" stroke="#1a1a1a" stroke-width="1.1"/>
<line x1="208" y1="660" x2="628" y2="660" stroke="#1a1a1a" stroke-width="1.1"/><text x="214" y="643.5" font-family="Bravura,serif" font-size="40" fill="#1a1a1a" text-anchor="middle" dominant-baseline="middle"></text><text x="259" y="620" font-family="Bravura,serif" font-size="28" fill="#1a1a1a" text-anchor="middle" dominant-baseline="middle"></text>
<text x="269" y="635" font-family="Bravura,serif" font-size="28" fill="#1a1a1a" text-anchor="middle" dominant-baseline="middle"></text>
<text x="279" y="615" font-family="Bravura,serif" font-size="28" fill="#1a1a1a" text-anchor="middle" dominant-baseline="middle"></text>
<text x="289" y="630" font-family="Bravura,serif" font-size="28" fill="#1a1a1a" text-anchor="middle" dominant-baseline="middle"></text>
<text x="299" y="645" font-family="Bravura,serif" font-size="28" fill="#1a1a1a" text-anchor="middle" dominant-baseline="middle"></text>
<text x="309" y="625" font-family="Bravura,serif" font-size="28" fill="#1a1a1a" text-anchor="middle" dominant-baseline="middle"></text>
<text x="319" y="640" font-family="Bravura,serif" font-size="28" fill="#1a1a1a" text-anchor="middle" dominant-baseline="middle"></text>
<line x1="0" y1="672" x2="920" y2="672" stroke="#eee"/></g>
<g transform="translate(16, 744)"><text x="8" y="22" font-family="system-ui,sans-serif" font-size="14" font-weight="700" fill="#111">Viiulivõti — bemollid (suurhelistikud)</text><text x="8" y="40" font-family="system-ui,sans-serif" font-size="10.5" fill="#555">Bemollid: B♭, E♭, A♭, D♭, G♭, C♭, F♭</text><text x="8" y="90" font-family="system-ui,sans-serif" font-size="11" fill="#333">C-duur / a-moll</text><text x="194" y="90" font-family="system-ui,sans-serif" font-size="11" text-anchor="end" fill="#666">0</text><line x1="208" y1="74" x2="628" y2="74" stroke="#1a1a1a" stroke-width="1.1"/>
<line x1="208" y1="84" x2="628" y2="84" stroke="#1a1a1a" stroke-width="1.1"/>
<line x1="208" y1="94" x2="628" y2="94" stroke="#1a1a1a" stroke-width="1.1"/>
<line x1="208" y1="104" x2="628" y2="104" stroke="#1a1a1a" stroke-width="1.1"/>
<line x1="208" y1="114" x2="628" y2="114" stroke="#1a1a1a" stroke-width="1.1"/><text x="214" y="97.5" font-family="Bravura,serif" font-size="40" fill="#1a1a1a" text-anchor="middle" dominant-baseline="middle"></text><line x1="0" y1="126" x2="920" y2="126" stroke="#eee"/><text x="8" y="168" font-family="system-ui,sans-serif" font-size="11" fill="#333">F-duur / d-moll</text><text x="194" y="168" font-family="system-ui,sans-serif" font-size="11" text-anchor="end" fill="#666">1</text><line x1="208" y1="152" x2="628" y2="152" stroke="#1a1a1a" stroke-width="1.1"/>
<line x1="208" y1="162" x2="628" y2="162" stroke="#1a1a1a" stroke-width="1.1"/>
<line x1="208" y1="172" x2="628" y2="172" stroke="#1a1a1a" stroke-width="1.1"/>
<line x1="208" y1="182" x2="628" y2="182" stroke="#1a1a1a" stroke-width="1.1"/>
<line x1="208" y1="192" x2="628" y2="192" stroke="#1a1a1a" stroke-width="1.1"/><text x="214" y="175.5" font-family="Bravura,serif" font-size="40" fill="#1a1a1a" text-anchor="middle" dominant-baseline="middle"></text><text x="259" y="172" font-family="Bravura,serif" font-size="25" fill="#1a1a1a" text-anchor="middle" dominant-baseline="middle"></text>
<line x1="0" y1="204" x2="920" y2="204" stroke="#eee"/><text x="8" y="246" font-family="system-ui,sans-serif" font-size="11" fill="#333">B♭-duur / g-moll</text><text x="194" y="246" font-family="system-ui,sans-serif" font-size="11" text-anchor="end" fill="#666">2</text><line x1="208" y1="230" x2="628" y2="230" stroke="#1a1a1a" stroke-width="1.1"/>
<line x1="208" y1="240" x2="628" y2="240" stroke="#1a1a1a" stroke-width="1.1"/>
<line x1="208" y1="250" x2="628" y2="250" stroke="#1a1a1a" stroke-width="1.1"/>
<line x1="208" y1="260" x2="628" y2="260" stroke="#1a1a1a" stroke-width="1.1"/>
<line x1="208" y1="270" x2="628" y2="270" stroke="#1a1a1a" stroke-width="1.1"/><text x="214" y="253.5" font-family="Bravura,serif" font-size="40" fill="#1a1a1a" text-anchor="middle" dominant-baseline="middle"></text><text x="259" y="250" font-family="Bravura,serif" font-size="25" fill="#1a1a1a" text-anchor="middle" dominant-baseline="middle"></text>
<text x="269" y="270" font-family="Bravura,serif" font-size="25" fill="#1a1a1a" text-anchor="middle" dominant-baseline="middle"></text>
<line x1="0" y1="282" x2="920" y2="282" stroke="#eee"/><text x="8" y="324" font-family="system-ui,sans-serif" font-size="11" fill="#333">E♭-duur / c-moll</text><text x="194" y="324" font-family="system-ui,sans-serif" font-size="11" text-anchor="end" fill="#666">3</text><line x1="208" y1="308" x2="628" y2="308" stroke="#1a1a1a" stroke-width="1.1"/>
<line x1="208" y1="318" x2="628" y2="318" stroke="#1a1a1a" stroke-width="1.1"/>
<line x1="208" y1="328" x2="628" y2="328" stroke="#1a1a1a" stroke-width="1.1"/>
<line x1="208" y1="338" x2="628" y2="338" stroke="#1a1a1a" stroke-width="1.1"/>
<line x1="208" y1="348" x2="628" y2="348" stroke="#1a1a1a" stroke-width="1.1"/><text x="214" y="331.5" font-family="Bravura,serif" font-size="40" fill="#1a1a1a" text-anchor="middle" dominant-baseline="middle"></text><text x="259" y="328" font-family="Bravura,serif" font-size="25" fill="#1a1a1a" text-anchor="middle" dominant-baseline="middle"></text>
<text x="269" y="348" font-family="Bravura,serif" font-size="25" fill="#1a1a1a" text-anchor="middle" dominant-baseline="middle"></text>
<text x="279" y="333" font-family="Bravura,serif" font-size="25" fill="#1a1a1a" text-anchor="middle" dominant-baseline="middle"></text>
<line x1="0" y1="360" x2="920" y2="360" stroke="#eee"/><text x="8" y="402" font-family="system-ui,sans-serif" font-size="11" fill="#333">A♭-duur / f-moll</text><text x="194" y="402" font-family="system-ui,sans-serif" font-size="11" text-anchor="end" fill="#666">4</text><line x1="208" y1="386" x2="628" y2="386" stroke="#1a1a1a" stroke-width="1.1"/>
<line x1="208" y1="396" x2="628" y2="396" stroke="#1a1a1a" stroke-width="1.1"/>
<line x1="208" y1="406" x2="628" y2="406" stroke="#1a1a1a" stroke-width="1.1"/>
<line x1="208" y1="416" x2="628" y2="416" stroke="#1a1a1a" stroke-width="1.1"/>
<line x1="208" y1="426" x2="628" y2="426" stroke="#1a1a1a" stroke-width="1.1"/><text x="214" y="409.5" font-family="Bravura,serif" font-size="40" fill="#1a1a1a" text-anchor="middle" dominant-baseline="middle"></text><text x="259" y="406" font-family="Bravura,serif" font-size="25" fill="#1a1a1a" text-anchor="middle" dominant-baseline="middle"></text>
<text x="269" y="426" font-family="Bravura,serif" font-size="25" fill="#1a1a1a" text-anchor="middle" dominant-baseline="middle"></text>
<text x="279" y="411" font-family="Bravura,serif" font-size="25" fill="#1a1a1a" text-anchor="middle" dominant-baseline="middle"></text>
<text x="289" y="396" font-family="Bravura,serif" font-size="25" fill="#1a1a1a" text-anchor="middle" dominant-baseline="middle"></text>
<line x1="0" y1="438" x2="920" y2="438" stroke="#eee"/><text x="8" y="480" font-family="system-ui,sans-serif" font-size="11" fill="#333">D♭-duur / b-moll</text><text x="194" y="480" font-family="system-ui,sans-serif" font-size="11" text-anchor="end" fill="#666">5</text><line x1="208" y1="464" x2="628" y2="464" stroke="#1a1a1a" stroke-width="1.1"/>
<line x1="208" y1="474" x2="628" y2="474" stroke="#1a1a1a" stroke-width="1.1"/>
<line x1="208" y1="484" x2="628" y2="484" stroke="#1a1a1a" stroke-width="1.1"/>
<line x1="208" y1="494" x2="628" y2="494" stroke="#1a1a1a" stroke-width="1.1"/>
<line x1="208" y1="504" x2="628" y2="504" stroke="#1a1a1a" stroke-width="1.1"/><text x="214" y="487.5" font-family="Bravura,serif" font-size="40" fill="#1a1a1a" text-anchor="middle" dominant-baseline="middle"></text><text x="259" y="484" font-family="Bravura,serif" font-size="25" fill="#1a1a1a" text-anchor="middle" dominant-baseline="middle"></text>
<text x="269" y="504" font-family="Bravura,serif" font-size="25" fill="#1a1a1a" text-anchor="middle" dominant-baseline="middle"></text>
<text x="279" y="489" font-family="Bravura,serif" font-size="25" fill="#1a1a1a" text-anchor="middle" dominant-baseline="middle"></text>
<text x="289" y="474" font-family="Bravura,serif" font-size="25" fill="#1a1a1a" text-anchor="middle" dominant-baseline="middle"></text>
<text x="299" y="494" font-family="Bravura,serif" font-size="25" fill="#1a1a1a" text-anchor="middle" dominant-baseline="middle"></text>
<line x1="0" y1="516" x2="920" y2="516" stroke="#eee"/><text x="8" y="558" font-family="system-ui,sans-serif" font-size="11" fill="#333">G♭-duur / e♭-moll</text><text x="194" y="558" font-family="system-ui,sans-serif" font-size="11" text-anchor="end" fill="#666">6</text><line x1="208" y1="542" x2="628" y2="542" stroke="#1a1a1a" stroke-width="1.1"/>
<line x1="208" y1="552" x2="628" y2="552" stroke="#1a1a1a" stroke-width="1.1"/>
<line x1="208" y1="562" x2="628" y2="562" stroke="#1a1a1a" stroke-width="1.1"/>
<line x1="208" y1="572" x2="628" y2="572" stroke="#1a1a1a" stroke-width="1.1"/>
<line x1="208" y1="582" x2="628" y2="582" stroke="#1a1a1a" stroke-width="1.1"/><text x="214" y="565.5" font-family="Bravura,serif" font-size="40" fill="#1a1a1a" text-anchor="middle" dominant-baseline="middle"></text><text x="259" y="562" font-family="Bravura,serif" font-size="25" fill="#1a1a1a" text-anchor="middle" dominant-baseline="middle"></text>
<text x="269" y="582" font-family="Bravura,serif" font-size="25" fill="#1a1a1a" text-anchor="middle" dominant-baseline="middle"></text>
<text x="279" y="567" font-family="Bravura,serif" font-size="25" fill="#1a1a1a" text-anchor="middle" dominant-baseline="middle"></text>
<text x="289" y="552" font-family="Bravura,serif" font-size="25" fill="#1a1a1a" text-anchor="middle" dominant-baseline="middle"></text>
<text x="299" y="572" font-family="Bravura,serif" font-size="25" fill="#1a1a1a" text-anchor="middle" dominant-baseline="middle"></text>
<text x="309" y="557" font-family="Bravura,serif" font-size="25" fill="#1a1a1a" text-anchor="middle" dominant-baseline="middle"></text>
<line x1="0" y1="594" x2="920" y2="594" stroke="#eee"/><text x="8" y="636" font-family="system-ui,sans-serif" font-size="11" fill="#333">C♭-duur / a♭-moll</text><text x="194" y="636" font-family="system-ui,sans-serif" font-size="11" text-anchor="end" fill="#666">7</text><line x1="208" y1="620" x2="628" y2="620" stroke="#1a1a1a" stroke-width="1.1"/>
<line x1="208" y1="630" x2="628" y2="630" stroke="#1a1a1a" stroke-width="1.1"/>
<line x1="208" y1="640" x2="628" y2="640" stroke="#1a1a1a" stroke-width="1.1"/>
<line x1="208" y1="650" x2="628" y2="650" stroke="#1a1a1a" stroke-width="1.1"/>
<line x1="208" y1="660" x2="628" y2="660" stroke="#1a1a1a" stroke-width="1.1"/><text x="214" y="643.5" font-family="Bravura,serif" font-size="40" fill="#1a1a1a" text-anchor="middle" dominant-baseline="middle"></text><text x="259" y="640" font-family="Bravura,serif" font-size="25" fill="#1a1a1a" text-anchor="middle" dominant-baseline="middle"></text>
<text x="269" y="660" font-family="Bravura,serif" font-size="25" fill="#1a1a1a" text-anchor="middle" dominant-baseline="middle"></text>
<text x="279" y="645" font-family="Bravura,serif" font-size="25" fill="#1a1a1a" text-anchor="middle" dominant-baseline="middle"></text>
<text x="289" y="630" font-family="Bravura,serif" font-size="25" fill="#1a1a1a" text-anchor="middle" dominant-baseline="middle"></text>
<text x="299" y="650" font-family="Bravura,serif" font-size="25" fill="#1a1a1a" text-anchor="middle" dominant-baseline="middle"></text>
<text x="309" y="635" font-family="Bravura,serif" font-size="25" fill="#1a1a1a" text-anchor="middle" dominant-baseline="middle"></text>
<text x="319" y="655" font-family="Bravura,serif" font-size="25" fill="#1a1a1a" text-anchor="middle" dominant-baseline="middle"></text>
<line x1="0" y1="672" x2="920" y2="672" stroke="#eee"/></g>
<g transform="translate(16, 1464)"><text x="8" y="22" font-family="system-ui,sans-serif" font-size="14" font-weight="700" fill="#111">Bassivõti — dieesid (suurhelistikud)</text><text x="8" y="40" font-family="system-ui,sans-serif" font-size="10.5" fill="#555">Dieesid: F♯, C♯, G♯, D♯, A♯, E♯, B♯</text><text x="8" y="90" font-family="system-ui,sans-serif" font-size="11" fill="#333">C-duur / a-moll</text><text x="194" y="90" font-family="system-ui,sans-serif" font-size="11" text-anchor="end" fill="#666">0</text><line x1="208" y1="74" x2="628" y2="74" stroke="#1a1a1a" stroke-width="1.1"/>
<line x1="208" y1="84" x2="628" y2="84" stroke="#1a1a1a" stroke-width="1.1"/>
<line x1="208" y1="94" x2="628" y2="94" stroke="#1a1a1a" stroke-width="1.1"/>
<line x1="208" y1="104" x2="628" y2="104" stroke="#1a1a1a" stroke-width="1.1"/>
<line x1="208" y1="114" x2="628" y2="114" stroke="#1a1a1a" stroke-width="1.1"/><text x="214" y="84" font-family="Bravura,serif" font-size="40" fill="#1a1a1a" text-anchor="middle" dominant-baseline="middle"></text><line x1="0" y1="126" x2="920" y2="126" stroke="#eee"/><text x="8" y="168" font-family="system-ui,sans-serif" font-size="11" fill="#333">G-duur / e-moll</text><text x="194" y="168" font-family="system-ui,sans-serif" font-size="11" text-anchor="end" fill="#666">1</text><line x1="208" y1="152" x2="628" y2="152" stroke="#1a1a1a" stroke-width="1.1"/>
<line x1="208" y1="162" x2="628" y2="162" stroke="#1a1a1a" stroke-width="1.1"/>
<line x1="208" y1="172" x2="628" y2="172" stroke="#1a1a1a" stroke-width="1.1"/>
<line x1="208" y1="182" x2="628" y2="182" stroke="#1a1a1a" stroke-width="1.1"/>
<line x1="208" y1="192" x2="628" y2="192" stroke="#1a1a1a" stroke-width="1.1"/><text x="214" y="162" font-family="Bravura,serif" font-size="40" fill="#1a1a1a" text-anchor="middle" dominant-baseline="middle"></text><text x="259" y="162" font-family="Bravura,serif" font-size="28" fill="#1a1a1a" text-anchor="middle" dominant-baseline="middle"></text>
<line x1="0" y1="204" x2="920" y2="204" stroke="#eee"/><text x="8" y="246" font-family="system-ui,sans-serif" font-size="11" fill="#333">D-duur / h-moll</text><text x="194" y="246" font-family="system-ui,sans-serif" font-size="11" text-anchor="end" fill="#666">2</text><line x1="208" y1="230" x2="628" y2="230" stroke="#1a1a1a" stroke-width="1.1"/>
<line x1="208" y1="240" x2="628" y2="240" stroke="#1a1a1a" stroke-width="1.1"/>
<line x1="208" y1="250" x2="628" y2="250" stroke="#1a1a1a" stroke-width="1.1"/>
<line x1="208" y1="260" x2="628" y2="260" stroke="#1a1a1a" stroke-width="1.1"/>
<line x1="208" y1="270" x2="628" y2="270" stroke="#1a1a1a" stroke-width="1.1"/><text x="214" y="240" font-family="Bravura,serif" font-size="40" fill="#1a1a1a" text-anchor="middle" dominant-baseline="middle"></text><text x="259" y="240" font-family="Bravura,serif" font-size="28" fill="#1a1a1a" text-anchor="middle" dominant-baseline="middle"></text>
<text x="269" y="255" font-family="Bravura,serif" font-size="28" fill="#1a1a1a" text-anchor="middle" dominant-baseline="middle"></text>
<line x1="0" y1="282" x2="920" y2="282" stroke="#eee"/><text x="8" y="324" font-family="system-ui,sans-serif" font-size="11" fill="#333">A-duur / f♯-moll</text><text x="194" y="324" font-family="system-ui,sans-serif" font-size="11" text-anchor="end" fill="#666">3</text><line x1="208" y1="308" x2="628" y2="308" stroke="#1a1a1a" stroke-width="1.1"/>
<line x1="208" y1="318" x2="628" y2="318" stroke="#1a1a1a" stroke-width="1.1"/>
<line x1="208" y1="328" x2="628" y2="328" stroke="#1a1a1a" stroke-width="1.1"/>
<line x1="208" y1="338" x2="628" y2="338" stroke="#1a1a1a" stroke-width="1.1"/>
<line x1="208" y1="348" x2="628" y2="348" stroke="#1a1a1a" stroke-width="1.1"/><text x="214" y="318" font-family="Bravura,serif" font-size="40" fill="#1a1a1a" text-anchor="middle" dominant-baseline="middle"></text><text x="259" y="318" font-family="Bravura,serif" font-size="28" fill="#1a1a1a" text-anchor="middle" dominant-baseline="middle"></text>
<text x="269" y="333" font-family="Bravura,serif" font-size="28" fill="#1a1a1a" text-anchor="middle" dominant-baseline="middle"></text>
<text x="279" y="313" font-family="Bravura,serif" font-size="28" fill="#1a1a1a" text-anchor="middle" dominant-baseline="middle"></text>
<line x1="0" y1="360" x2="920" y2="360" stroke="#eee"/><text x="8" y="402" font-family="system-ui,sans-serif" font-size="11" fill="#333">E-duur / c♯-moll</text><text x="194" y="402" font-family="system-ui,sans-serif" font-size="11" text-anchor="end" fill="#666">4</text><line x1="208" y1="386" x2="628" y2="386" stroke="#1a1a1a" stroke-width="1.1"/>
<line x1="208" y1="396" x2="628" y2="396" stroke="#1a1a1a" stroke-width="1.1"/>
<line x1="208" y1="406" x2="628" y2="406" stroke="#1a1a1a" stroke-width="1.1"/>
<line x1="208" y1="416" x2="628" y2="416" stroke="#1a1a1a" stroke-width="1.1"/>
<line x1="208" y1="426" x2="628" y2="426" stroke="#1a1a1a" stroke-width="1.1"/><text x="214" y="396" font-family="Bravura,serif" font-size="40" fill="#1a1a1a" text-anchor="middle" dominant-baseline="middle"></text><text x="259" y="396" font-family="Bravura,serif" font-size="28" fill="#1a1a1a" text-anchor="middle" dominant-baseline="middle"></text>
<text x="269" y="411" font-family="Bravura,serif" font-size="28" fill="#1a1a1a" text-anchor="middle" dominant-baseline="middle"></text>
<text x="279" y="391" font-family="Bravura,serif" font-size="28" fill="#1a1a1a" text-anchor="middle" dominant-baseline="middle"></text>
<text x="289" y="406" font-family="Bravura,serif" font-size="28" fill="#1a1a1a" text-anchor="middle" dominant-baseline="middle"></text>
<line x1="0" y1="438" x2="920" y2="438" stroke="#eee"/><text x="8" y="480" font-family="system-ui,sans-serif" font-size="11" fill="#333">H-duur / g♯-moll</text><text x="194" y="480" font-family="system-ui,sans-serif" font-size="11" text-anchor="end" fill="#666">5</text><line x1="208" y1="464" x2="628" y2="464" stroke="#1a1a1a" stroke-width="1.1"/>
<line x1="208" y1="474" x2="628" y2="474" stroke="#1a1a1a" stroke-width="1.1"/>
<line x1="208" y1="484" x2="628" y2="484" stroke="#1a1a1a" stroke-width="1.1"/>
<line x1="208" y1="494" x2="628" y2="494" stroke="#1a1a1a" stroke-width="1.1"/>
<line x1="208" y1="504" x2="628" y2="504" stroke="#1a1a1a" stroke-width="1.1"/><text x="214" y="474" font-family="Bravura,serif" font-size="40" fill="#1a1a1a" text-anchor="middle" dominant-baseline="middle"></text><text x="259" y="474" font-family="Bravura,serif" font-size="28" fill="#1a1a1a" text-anchor="middle" dominant-baseline="middle"></text>
<text x="269" y="489" font-family="Bravura,serif" font-size="28" fill="#1a1a1a" text-anchor="middle" dominant-baseline="middle"></text>
<text x="279" y="469" font-family="Bravura,serif" font-size="28" fill="#1a1a1a" text-anchor="middle" dominant-baseline="middle"></text>
<text x="289" y="484" font-family="Bravura,serif" font-size="28" fill="#1a1a1a" text-anchor="middle" dominant-baseline="middle"></text>
<text x="299" y="499" font-family="Bravura,serif" font-size="28" fill="#1a1a1a" text-anchor="middle" dominant-baseline="middle"></text>
<line x1="0" y1="516" x2="920" y2="516" stroke="#eee"/><text x="8" y="558" font-family="system-ui,sans-serif" font-size="11" fill="#333">F♯-duur / d♯-moll</text><text x="194" y="558" font-family="system-ui,sans-serif" font-size="11" text-anchor="end" fill="#666">6</text><line x1="208" y1="542" x2="628" y2="542" stroke="#1a1a1a" stroke-width="1.1"/>
<line x1="208" y1="552" x2="628" y2="552" stroke="#1a1a1a" stroke-width="1.1"/>
<line x1="208" y1="562" x2="628" y2="562" stroke="#1a1a1a" stroke-width="1.1"/>
<line x1="208" y1="572" x2="628" y2="572" stroke="#1a1a1a" stroke-width="1.1"/>
<line x1="208" y1="582" x2="628" y2="582" stroke="#1a1a1a" stroke-width="1.1"/><text x="214" y="552" font-family="Bravura,serif" font-size="40" fill="#1a1a1a" text-anchor="middle" dominant-baseline="middle"></text><text x="259" y="552" font-family="Bravura,serif" font-size="28" fill="#1a1a1a" text-anchor="middle" dominant-baseline="middle"></text>
<text x="269" y="567" font-family="Bravura,serif" font-size="28" fill="#1a1a1a" text-anchor="middle" dominant-baseline="middle"></text>
<text x="279" y="547" font-family="Bravura,serif" font-size="28" fill="#1a1a1a" text-anchor="middle" dominant-baseline="middle"></text>
<text x="289" y="562" font-family="Bravura,serif" font-size="28" fill="#1a1a1a" text-anchor="middle" dominant-baseline="middle"></text>
<text x="299" y="577" font-family="Bravura,serif" font-size="28" fill="#1a1a1a" text-anchor="middle" dominant-baseline="middle"></text>
<text x="309" y="557" font-family="Bravura,serif" font-size="28" fill="#1a1a1a" text-anchor="middle" dominant-baseline="middle"></text>
<line x1="0" y1="594" x2="920" y2="594" stroke="#eee"/><text x="8" y="636" font-family="system-ui,sans-serif" font-size="11" fill="#333">C♯-duur / a♯-moll</text><text x="194" y="636" font-family="system-ui,sans-serif" font-size="11" text-anchor="end" fill="#666">7</text><line x1="208" y1="620" x2="628" y2="620" stroke="#1a1a1a" stroke-width="1.1"/>
<line x1="208" y1="630" x2="628" y2="630" stroke="#1a1a1a" stroke-width="1.1"/>
<line x1="208" y1="640" x2="628" y2="640" stroke="#1a1a1a" stroke-width="1.1"/>
<line x1="208" y1="650" x2="628" y2="650" stroke="#1a1a1a" stroke-width="1.1"/>
<line x1="208" y1="660" x2="628" y2="660" stroke="#1a1a1a" stroke-width="1.1"/><text x="214" y="630" font-family="Bravura,serif" font-size="40" fill="#1a1a1a" text-anchor="middle" dominant-baseline="middle"></text><text x="259" y="630" font-family="Bravura,serif" font-size="28" fill="#1a1a1a" text-anchor="middle" dominant-baseline="middle"></text>
<text x="269" y="645" font-family="Bravura,serif" font-size="28" fill="#1a1a1a" text-anchor="middle" dominant-baseline="middle"></text>
<text x="279" y="625" font-family="Bravura,serif" font-size="28" fill="#1a1a1a" text-anchor="middle" dominant-baseline="middle"></text>
<text x="289" y="640" font-family="Bravura,serif" font-size="28" fill="#1a1a1a" text-anchor="middle" dominant-baseline="middle"></text>
<text x="299" y="655" font-family="Bravura,serif" font-size="28" fill="#1a1a1a" text-anchor="middle" dominant-baseline="middle"></text>
<text x="309" y="635" font-family="Bravura,serif" font-size="28" fill="#1a1a1a" text-anchor="middle" dominant-baseline="middle"></text>
<text x="319" y="650" font-family="Bravura,serif" font-size="28" fill="#1a1a1a" text-anchor="middle" dominant-baseline="middle"></text>
<line x1="0" y1="672" x2="920" y2="672" stroke="#eee"/></g>
<g transform="translate(16, 2184)"><text x="8" y="22" font-family="system-ui,sans-serif" font-size="14" font-weight="700" fill="#111">Bassivõti — bemollid (suurhelistikud)</text><text x="8" y="40" font-family="system-ui,sans-serif" font-size="10.5" fill="#555">Bemollid: B♭, E♭, A♭, D♭, G♭, C♭, F♭</text><text x="8" y="90" font-family="system-ui,sans-serif" font-size="11" fill="#333">C-duur / a-moll</text><text x="194" y="90" font-family="system-ui,sans-serif" font-size="11" text-anchor="end" fill="#666">0</text><line x1="208" y1="74" x2="628" y2="74" stroke="#1a1a1a" stroke-width="1.1"/>
<line x1="208" y1="84" x2="628" y2="84" stroke="#1a1a1a" stroke-width="1.1"/>
<line x1="208" y1="94" x2="628" y2="94" stroke="#1a1a1a" stroke-width="1.1"/>
<line x1="208" y1="104" x2="628" y2="104" stroke="#1a1a1a" stroke-width="1.1"/>
<line x1="208" y1="114" x2="628" y2="114" stroke="#1a1a1a" stroke-width="1.1"/><text x="214" y="84" font-family="Bravura,serif" font-size="40" fill="#1a1a1a" text-anchor="middle" dominant-baseline="middle"></text><line x1="0" y1="126" x2="920" y2="126" stroke="#eee"/><text x="8" y="168" font-family="system-ui,sans-serif" font-size="11" fill="#333">F-duur / d-moll</text><text x="194" y="168" font-family="system-ui,sans-serif" font-size="11" text-anchor="end" fill="#666">1</text><line x1="208" y1="152" x2="628" y2="152" stroke="#1a1a1a" stroke-width="1.1"/>
<line x1="208" y1="162" x2="628" y2="162" stroke="#1a1a1a" stroke-width="1.1"/>
<line x1="208" y1="172" x2="628" y2="172" stroke="#1a1a1a" stroke-width="1.1"/>
<line x1="208" y1="182" x2="628" y2="182" stroke="#1a1a1a" stroke-width="1.1"/>
<line x1="208" y1="192" x2="628" y2="192" stroke="#1a1a1a" stroke-width="1.1"/><text x="214" y="162" font-family="Bravura,serif" font-size="40" fill="#1a1a1a" text-anchor="middle" dominant-baseline="middle"></text><text x="259" y="182" font-family="Bravura,serif" font-size="25" fill="#1a1a1a" text-anchor="middle" dominant-baseline="middle"></text>
<line x1="0" y1="204" x2="920" y2="204" stroke="#eee"/><text x="8" y="246" font-family="system-ui,sans-serif" font-size="11" fill="#333">B♭-duur / g-moll</text><text x="194" y="246" font-family="system-ui,sans-serif" font-size="11" text-anchor="end" fill="#666">2</text><line x1="208" y1="230" x2="628" y2="230" stroke="#1a1a1a" stroke-width="1.1"/>
<line x1="208" y1="240" x2="628" y2="240" stroke="#1a1a1a" stroke-width="1.1"/>
<line x1="208" y1="250" x2="628" y2="250" stroke="#1a1a1a" stroke-width="1.1"/>
<line x1="208" y1="260" x2="628" y2="260" stroke="#1a1a1a" stroke-width="1.1"/>
<line x1="208" y1="270" x2="628" y2="270" stroke="#1a1a1a" stroke-width="1.1"/><text x="214" y="240" font-family="Bravura,serif" font-size="40" fill="#1a1a1a" text-anchor="middle" dominant-baseline="middle"></text><text x="259" y="260" font-family="Bravura,serif" font-size="25" fill="#1a1a1a" text-anchor="middle" dominant-baseline="middle"></text>
<text x="269" y="245" font-family="Bravura,serif" font-size="25" fill="#1a1a1a" text-anchor="middle" dominant-baseline="middle"></text>
<line x1="0" y1="282" x2="920" y2="282" stroke="#eee"/><text x="8" y="324" font-family="system-ui,sans-serif" font-size="11" fill="#333">E♭-duur / c-moll</text><text x="194" y="324" font-family="system-ui,sans-serif" font-size="11" text-anchor="end" fill="#666">3</text><line x1="208" y1="308" x2="628" y2="308" stroke="#1a1a1a" stroke-width="1.1"/>
<line x1="208" y1="318" x2="628" y2="318" stroke="#1a1a1a" stroke-width="1.1"/>
<line x1="208" y1="328" x2="628" y2="328" stroke="#1a1a1a" stroke-width="1.1"/>
<line x1="208" y1="338" x2="628" y2="338" stroke="#1a1a1a" stroke-width="1.1"/>
<line x1="208" y1="348" x2="628" y2="348" stroke="#1a1a1a" stroke-width="1.1"/><text x="214" y="318" font-family="Bravura,serif" font-size="40" fill="#1a1a1a" text-anchor="middle" dominant-baseline="middle"></text><text x="259" y="338" font-family="Bravura,serif" font-size="25" fill="#1a1a1a" text-anchor="middle" dominant-baseline="middle"></text>
<text x="269" y="323" font-family="Bravura,serif" font-size="25" fill="#1a1a1a" text-anchor="middle" dominant-baseline="middle"></text>
<text x="279" y="343" font-family="Bravura,serif" font-size="25" fill="#1a1a1a" text-anchor="middle" dominant-baseline="middle"></text>
<line x1="0" y1="360" x2="920" y2="360" stroke="#eee"/><text x="8" y="402" font-family="system-ui,sans-serif" font-size="11" fill="#333">A♭-duur / f-moll</text><text x="194" y="402" font-family="system-ui,sans-serif" font-size="11" text-anchor="end" fill="#666">4</text><line x1="208" y1="386" x2="628" y2="386" stroke="#1a1a1a" stroke-width="1.1"/>
<line x1="208" y1="396" x2="628" y2="396" stroke="#1a1a1a" stroke-width="1.1"/>
<line x1="208" y1="406" x2="628" y2="406" stroke="#1a1a1a" stroke-width="1.1"/>
<line x1="208" y1="416" x2="628" y2="416" stroke="#1a1a1a" stroke-width="1.1"/>
<line x1="208" y1="426" x2="628" y2="426" stroke="#1a1a1a" stroke-width="1.1"/><text x="214" y="396" font-family="Bravura,serif" font-size="40" fill="#1a1a1a" text-anchor="middle" dominant-baseline="middle"></text><text x="259" y="416" font-family="Bravura,serif" font-size="25" fill="#1a1a1a" text-anchor="middle" dominant-baseline="middle"></text>
<text x="269" y="401" font-family="Bravura,serif" font-size="25" fill="#1a1a1a" text-anchor="middle" dominant-baseline="middle"></text>
<text x="279" y="421" font-family="Bravura,serif" font-size="25" fill="#1a1a1a" text-anchor="middle" dominant-baseline="middle"></text>
<text x="289" y="406" font-family="Bravura,serif" font-size="25" fill="#1a1a1a" text-anchor="middle" dominant-baseline="middle"></text>
<line x1="0" y1="438" x2="920" y2="438" stroke="#eee"/><text x="8" y="480" font-family="system-ui,sans-serif" font-size="11" fill="#333">D♭-duur / b-moll</text><text x="194" y="480" font-family="system-ui,sans-serif" font-size="11" text-anchor="end" fill="#666">5</text><line x1="208" y1="464" x2="628" y2="464" stroke="#1a1a1a" stroke-width="1.1"/>
<line x1="208" y1="474" x2="628" y2="474" stroke="#1a1a1a" stroke-width="1.1"/>
<line x1="208" y1="484" x2="628" y2="484" stroke="#1a1a1a" stroke-width="1.1"/>
<line x1="208" y1="494" x2="628" y2="494" stroke="#1a1a1a" stroke-width="1.1"/>
<line x1="208" y1="504" x2="628" y2="504" stroke="#1a1a1a" stroke-width="1.1"/><text x="214" y="474" font-family="Bravura,serif" font-size="40" fill="#1a1a1a" text-anchor="middle" dominant-baseline="middle"></text><text x="259" y="494" font-family="Bravura,serif" font-size="25" fill="#1a1a1a" text-anchor="middle" dominant-baseline="middle"></text>
<text x="269" y="479" font-family="Bravura,serif" font-size="25" fill="#1a1a1a" text-anchor="middle" dominant-baseline="middle"></text>
<text x="279" y="499" font-family="Bravura,serif" font-size="25" fill="#1a1a1a" text-anchor="middle" dominant-baseline="middle"></text>
<text x="289" y="484" font-family="Bravura,serif" font-size="25" fill="#1a1a1a" text-anchor="middle" dominant-baseline="middle"></text>
<text x="299" y="504" font-family="Bravura,serif" font-size="25" fill="#1a1a1a" text-anchor="middle" dominant-baseline="middle"></text>
<line x1="0" y1="516" x2="920" y2="516" stroke="#eee"/><text x="8" y="558" font-family="system-ui,sans-serif" font-size="11" fill="#333">G♭-duur / e♭-moll</text><text x="194" y="558" font-family="system-ui,sans-serif" font-size="11" text-anchor="end" fill="#666">6</text><line x1="208" y1="542" x2="628" y2="542" stroke="#1a1a1a" stroke-width="1.1"/>
<line x1="208" y1="552" x2="628" y2="552" stroke="#1a1a1a" stroke-width="1.1"/>
<line x1="208" y1="562" x2="628" y2="562" stroke="#1a1a1a" stroke-width="1.1"/>
<line x1="208" y1="572" x2="628" y2="572" stroke="#1a1a1a" stroke-width="1.1"/>
<line x1="208" y1="582" x2="628" y2="582" stroke="#1a1a1a" stroke-width="1.1"/><text x="214" y="552" font-family="Bravura,serif" font-size="40" fill="#1a1a1a" text-anchor="middle" dominant-baseline="middle"></text><text x="259" y="572" font-family="Bravura,serif" font-size="25" fill="#1a1a1a" text-anchor="middle" dominant-baseline="middle"></text>
<text x="269" y="557" font-family="Bravura,serif" font-size="25" fill="#1a1a1a" text-anchor="middle" dominant-baseline="middle"></text>
<text x="279" y="577" font-family="Bravura,serif" font-size="25" fill="#1a1a1a" text-anchor="middle" dominant-baseline="middle"></text>
<text x="289" y="562" font-family="Bravura,serif" font-size="25" fill="#1a1a1a" text-anchor="middle" dominant-baseline="middle"></text>
<text x="299" y="582" font-family="Bravura,serif" font-size="25" fill="#1a1a1a" text-anchor="middle" dominant-baseline="middle"></text>
<text x="309" y="567" font-family="Bravura,serif" font-size="25" fill="#1a1a1a" text-anchor="middle" dominant-baseline="middle"></text>
<line x1="0" y1="594" x2="920" y2="594" stroke="#eee"/><text x="8" y="636" font-family="system-ui,sans-serif" font-size="11" fill="#333">C♭-duur / a♭-moll</text><text x="194" y="636" font-family="system-ui,sans-serif" font-size="11" text-anchor="end" fill="#666">7</text><line x1="208" y1="620" x2="628" y2="620" stroke="#1a1a1a" stroke-width="1.1"/>
<line x1="208" y1="630" x2="628" y2="630" stroke="#1a1a1a" stroke-width="1.1"/>
<line x1="208" y1="640" x2="628" y2="640" stroke="#1a1a1a" stroke-width="1.1"/>
<line x1="208" y1="650" x2="628" y2="650" stroke="#1a1a1a" stroke-width="1.1"/>
<line x1="208" y1="660" x2="628" y2="660" stroke="#1a1a1a" stroke-width="1.1"/><text x="214" y="630" font-family="Bravura,serif" font-size="40" fill="#1a1a1a" text-anchor="middle" dominant-baseline="middle"></text><text x="259" y="650" font-family="Bravura,serif" font-size="25" fill="#1a1a1a" text-anchor="middle" dominant-baseline="middle"></text>
<text x="269" y="635" font-family="Bravura,serif" font-size="25" fill="#1a1a1a" text-anchor="middle" dominant-baseline="middle"></text>
<text x="279" y="655" font-family="Bravura,serif" font-size="25" fill="#1a1a1a" text-anchor="middle" dominant-baseline="middle"></text>
<text x="289" y="640" font-family="Bravura,serif" font-size="25" fill="#1a1a1a" text-anchor="middle" dominant-baseline="middle"></text>
<text x="299" y="660" font-family="Bravura,serif" font-size="25" fill="#1a1a1a" text-anchor="middle" dominant-baseline="middle"></text>
<text x="309" y="645" font-family="Bravura,serif" font-size="25" fill="#1a1a1a" text-anchor="middle" dominant-baseline="middle"></text>
<text x="319" y="630" font-family="Bravura,serif" font-size="25" fill="#1a1a1a" text-anchor="middle" dominant-baseline="middle"></text>
<line x1="0" y1="672" x2="920" y2="672" stroke="#eee"/></g>

  <text x="16" y="2916" font-family="system-ui,sans-serif" font-size="9.5" fill="#777">Uuenda: node scripts/generate-key-signatures-reference-svg.mjs</text>
</svg>
