<?xml version="1.0" encoding="UTF-8"?>
<svg xmlns="http://www.w3.org/2000/svg" viewBox="0 0 900 1368" width="900" height="1368">
  <defs>
    <style type="text/css"><![CDATA[
      @font-face {
        font-family: 'Bravura';
        font-style: normal;
        font-weight: 400;
        font-display: swap;
        src: url('https://cdn.jsdelivr.net/npm/@fontsource/bravura@5.2.5/files/bravura-latin-400-normal.woff2') format('woff2');
      }
    ]]></style>
  </defs>
  <rect width="100%" height="100%" fill="#fafafa"/>
  <text x="450" y="36" text-anchor="middle" font-family="system-ui,sans-serif" font-size="18" font-weight="700" fill="#1a1a1a">Noodimeister — rütmid ja rühmad (SMuFL / Bravura)</text>
  <text x="450" y="56" text-anchor="middle" font-family="system-ui,sans-serif" font-size="10" fill="#555">Eelvaade: Bravura WOFF2. Liit: BeamCalculation (õige viewBox + tala pikkus iga rütmataseme jaoks, nagu partituur).</text>
  <rect x="20" y="68" width="860" height="22" fill="#e7e5e4" stroke="#d6d3d1"/>
  <text x="28" y="84" font-family="system-ui,sans-serif" font-size="11" font-weight="700">Kategooria</text>
  <text x="160" y="84" font-family="system-ui,sans-serif" font-size="11" font-weight="700">value</text>
  <text x="300" y="84" font-family="system-ui,sans-serif" font-size="11" font-weight="700">SMuFL eelvaade</text>
  <text x="430" y="84" font-family="system-ui,sans-serif" font-size="11" font-weight="700">Kirjeldus</text>
  <g transform="translate(0,92)"><line x1="20" y1="40" x2="880" y2="40" stroke="#eee"/><text x="28" y="25" font-family="system-ui,sans-serif" font-size="11" fill="#444">Noot</text><text x="160" y="25" font-family="ui-monospace,monospace" font-size="11" fill="#1a1a1a">1/32</text><g transform="translate(300,3)"><svg width="88" height="36" viewBox="0 0 88 36" overflow="visible"><line x1="4" y1="22" x2="84" y2="22" stroke="#e5e5e5" stroke-width="0.6"/><text x="44" y="22" font-family="Bravura,serif" font-size="24" fill="#1a1a1a" text-anchor="middle" dominant-baseline="central">&#xE1DB;</text></svg></g><text x="430" y="25" font-family="system-ui,sans-serif" font-size="11" fill="#333">Kuuskümnendiknoot (U+E1DB)</text></g><g transform="translate(0,134)"><line x1="20" y1="40" x2="880" y2="40" stroke="#eee"/><text x="28" y="25" font-family="system-ui,sans-serif" font-size="11" fill="#444">Noot</text><text x="160" y="25" font-family="ui-monospace,monospace" font-size="11" fill="#1a1a1a">1/16</text><g transform="translate(300,3)"><svg width="88" height="36" viewBox="0 0 88 36" overflow="visible"><line x1="4" y1="22" x2="84" y2="22" stroke="#e5e5e5" stroke-width="0.6"/><text x="44" y="22" font-family="Bravura,serif" font-size="24" fill="#1a1a1a" text-anchor="middle" dominant-baseline="central">&#xE1D9;</text></svg></g><text x="430" y="25" font-family="system-ui,sans-serif" font-size="11" fill="#333">Kuueteistkümnendiknoot (U+E1D9)</text></g><g transform="translate(0,176)"><line x1="20" y1="40" x2="880" y2="40" stroke="#eee"/><text x="28" y="25" font-family="system-ui,sans-serif" font-size="11" fill="#444">Noot</text><text x="160" y="25" font-family="ui-monospace,monospace" font-size="11" fill="#1a1a1a">1/8</text><g transform="translate(300,3)"><svg width="88" height="36" viewBox="0 0 88 36" overflow="visible"><line x1="4" y1="22" x2="84" y2="22" stroke="#e5e5e5" stroke-width="0.6"/><text x="44" y="22" font-family="Bravura,serif" font-size="26" fill="#1a1a1a" text-anchor="middle" dominant-baseline="central">&#xE1D7;</text></svg></g><text x="430" y="25" font-family="system-ui,sans-serif" font-size="11" fill="#333">Kaheksandiknoot (U+E1D7)</text></g><g transform="translate(0,218)"><line x1="20" y1="40" x2="880" y2="40" stroke="#eee"/><text x="28" y="25" font-family="system-ui,sans-serif" font-size="11" fill="#444">Noot</text><text x="160" y="25" font-family="ui-monospace,monospace" font-size="11" fill="#1a1a1a">1/4</text><g transform="translate(300,3)"><svg width="88" height="36" viewBox="0 0 88 36" overflow="visible"><line x1="4" y1="22" x2="84" y2="22" stroke="#e5e5e5" stroke-width="0.6"/><text x="44" y="22" font-family="Bravura,serif" font-size="26" fill="#1a1a1a" text-anchor="middle" dominant-baseline="central">&#xE1D5;</text></svg></g><text x="430" y="25" font-family="system-ui,sans-serif" font-size="11" fill="#333">Neljandiknoot (U+E1D5)</text></g><g transform="translate(0,260)"><line x1="20" y1="40" x2="880" y2="40" stroke="#eee"/><text x="28" y="25" font-family="system-ui,sans-serif" font-size="11" fill="#444">Noot</text><text x="160" y="25" font-family="ui-monospace,monospace" font-size="11" fill="#1a1a1a">1/2</text><g transform="translate(300,3)"><svg width="88" height="36" viewBox="0 0 88 36" overflow="visible"><line x1="4" y1="22" x2="84" y2="22" stroke="#e5e5e5" stroke-width="0.6"/><text x="44" y="22" font-family="Bravura,serif" font-size="26" fill="#1a1a1a" text-anchor="middle" dominant-baseline="central">&#xE1D3;</text></svg></g><text x="430" y="25" font-family="system-ui,sans-serif" font-size="11" fill="#333">Poolnoot (U+E1D3)</text></g><g transform="translate(0,302)"><line x1="20" y1="40" x2="880" y2="40" stroke="#eee"/><text x="28" y="25" font-family="system-ui,sans-serif" font-size="11" fill="#444">Noot</text><text x="160" y="25" font-family="ui-monospace,monospace" font-size="11" fill="#1a1a1a">1/1</text><g transform="translate(300,3)"><svg width="88" height="36" viewBox="0 0 88 36" overflow="visible"><line x1="4" y1="22" x2="84" y2="22" stroke="#e5e5e5" stroke-width="0.6"/><text x="44" y="22" font-family="Bravura,serif" font-size="22" fill="#1a1a1a" text-anchor="middle" dominant-baseline="central">&#xE1D2;</text></svg></g><text x="430" y="25" font-family="system-ui,sans-serif" font-size="11" fill="#333">Täisnoot (U+E1D2)</text></g><g transform="translate(0,344)"><line x1="20" y1="40" x2="880" y2="40" stroke="#eee"/><text x="28" y="25" font-family="system-ui,sans-serif" font-size="11" fill="#444">Paus</text><text x="160" y="25" font-family="ui-monospace,monospace" font-size="11" fill="#1a1a1a">1/1</text><g transform="translate(300,3)"><svg width="88" height="36" viewBox="0 0 88 36" overflow="visible"><line x1="4" y1="22" x2="84" y2="22" stroke="#e5e5e5" stroke-width="0.6"/><text x="44" y="22" font-family="Bravura,serif" font-size="22" fill="#1a1a1a" text-anchor="middle" dominant-baseline="central">&#xE4E3;</text></svg></g><text x="430" y="25" font-family="system-ui,sans-serif" font-size="11" fill="#333">Täispaus U+E4E3</text></g><g transform="translate(0,386)"><line x1="20" y1="40" x2="880" y2="40" stroke="#eee"/><text x="28" y="25" font-family="system-ui,sans-serif" font-size="11" fill="#444">Paus</text><text x="160" y="25" font-family="ui-monospace,monospace" font-size="11" fill="#1a1a1a">1/2</text><g transform="translate(300,3)"><svg width="88" height="36" viewBox="0 0 88 36" overflow="visible"><line x1="4" y1="22" x2="84" y2="22" stroke="#e5e5e5" stroke-width="0.6"/><text x="44" y="22" font-family="Bravura,serif" font-size="22" fill="#1a1a1a" text-anchor="middle" dominant-baseline="central">&#xE4E4;</text></svg></g><text x="430" y="25" font-family="system-ui,sans-serif" font-size="11" fill="#333">Poolpaus U+E4E4</text></g><g transform="translate(0,428)"><line x1="20" y1="40" x2="880" y2="40" stroke="#eee"/><text x="28" y="25" font-family="system-ui,sans-serif" font-size="11" fill="#444">Paus</text><text x="160" y="25" font-family="ui-monospace,monospace" font-size="11" fill="#1a1a1a">1/4</text><g transform="translate(300,3)"><svg width="88" height="36" viewBox="0 0 88 36" overflow="visible"><line x1="4" y1="22" x2="84" y2="22" stroke="#e5e5e5" stroke-width="0.6"/><text x="44" y="22" font-family="Bravura,serif" font-size="24" fill="#1a1a1a" text-anchor="middle" dominant-baseline="central">&#xE4E5;</text></svg></g><text x="430" y="25" font-family="system-ui,sans-serif" font-size="11" fill="#333">Neljandikpaus U+E4E5</text></g><g transform="translate(0,470)"><line x1="20" y1="40" x2="880" y2="40" stroke="#eee"/><text x="28" y="25" font-family="system-ui,sans-serif" font-size="11" fill="#444">Paus</text><text x="160" y="25" font-family="ui-monospace,monospace" font-size="11" fill="#1a1a1a">1/8</text><g transform="translate(300,3)"><svg width="88" height="36" viewBox="0 0 88 36" overflow="visible"><line x1="4" y1="22" x2="84" y2="22" stroke="#e5e5e5" stroke-width="0.6"/><text x="44" y="22" font-family="Bravura,serif" font-size="24" fill="#1a1a1a" text-anchor="middle" dominant-baseline="central">&#xE4E6;</text></svg></g><text x="430" y="25" font-family="system-ui,sans-serif" font-size="11" fill="#333">Kaheksandikpaus U+E4E6</text></g><g transform="translate(0,512)"><line x1="20" y1="40" x2="880" y2="40" stroke="#eee"/><text x="28" y="25" font-family="system-ui,sans-serif" font-size="11" fill="#444">Paus</text><text x="160" y="25" font-family="ui-monospace,monospace" font-size="11" fill="#1a1a1a">1/16</text><g transform="translate(300,3)"><svg width="88" height="36" viewBox="0 0 88 36" overflow="visible"><line x1="4" y1="22" x2="84" y2="22" stroke="#e5e5e5" stroke-width="0.6"/><text x="44" y="22" font-family="Bravura,serif" font-size="24" fill="#1a1a1a" text-anchor="middle" dominant-baseline="central">&#xE4E7;</text></svg></g><text x="430" y="25" font-family="system-ui,sans-serif" font-size="11" fill="#333">Kuueteistkümnendikpaus U+E4E7</text></g><g transform="translate(0,554)"><line x1="20" y1="40" x2="880" y2="40" stroke="#eee"/><text x="28" y="25" font-family="system-ui,sans-serif" font-size="11" fill="#444">Paus</text><text x="160" y="25" font-family="ui-monospace,monospace" font-size="11" fill="#1a1a1a">1/32</text><g transform="translate(300,3)"><svg width="88" height="36" viewBox="0 0 88 36" overflow="visible"><line x1="4" y1="22" x2="84" y2="22" stroke="#e5e5e5" stroke-width="0.6"/><text x="44" y="22" font-family="Bravura,serif" font-size="22" fill="#1a1a1a" text-anchor="middle" dominant-baseline="central">&#xE4E8;</text></svg></g><text x="430" y="25" font-family="system-ui,sans-serif" font-size="11" fill="#333">Kuuskümnendikpaus U+E4E8</text></g><g transform="translate(0,596)"><line x1="20" y1="40" x2="880" y2="40" stroke="#eee"/><text x="28" y="25" font-family="system-ui,sans-serif" font-size="11" fill="#444">Lüliti</text><text x="160" y="25" font-family="ui-monospace,monospace" font-size="11" fill="#1a1a1a">rest</text><g transform="translate(300,3)"><svg width="88" height="36" viewBox="0 0 88 36" overflow="visible"><line x1="4" y1="22" x2="84" y2="22" stroke="#e5e5e5" stroke-width="0.6"/><text x="44" y="22" font-family="Bravura,serif" font-size="24" fill="#1a1a1a" text-anchor="middle" dominant-baseline="central">&#xE4E5;</text></svg></g><text x="430" y="25" font-family="system-ui,sans-serif" font-size="11" fill="#333">Paus-režiim (0 + vältus)</text></g><g transform="translate(0,638)"><line x1="20" y1="40" x2="880" y2="40" stroke="#eee"/><text x="28" y="25" font-family="system-ui,sans-serif" font-size="11" fill="#444">Lüliti</text><text x="160" y="25" font-family="ui-monospace,monospace" font-size="11" fill="#1a1a1a">dotted</text><g transform="translate(300,3)"><svg width="88" height="36" viewBox="0 0 88 36" overflow="visible"><line x1="4" y1="22" x2="84" y2="22" stroke="#e5e5e5" stroke-width="0.6"/><text x="44" y="22" font-family="Bravura,serif" font-size="24" fill="#1a1a1a" text-anchor="middle" dominant-baseline="central">&#xE1D5;</text><text x="51.2" y="19" font-family="Bravura,serif" font-size="24" fill="#1a1a1a" text-anchor="middle" dominant-baseline="central">&#xE1E7;</text></svg></g><text x="430" y="25" font-family="system-ui,sans-serif" font-size="11" fill="#333">Punktiga (näide neljandik)</text></g><g transform="translate(0,680)"><line x1="20" y1="40" x2="880" y2="40" stroke="#eee"/><text x="28" y="25" font-family="system-ui,sans-serif" font-size="11" fill="#444">Liit</text><text x="160" y="25" font-family="ui-monospace,monospace" font-size="11" fill="#1a1a1a">2/8</text><g transform="translate(300,3)"><svg width="88" height="36" viewBox="-17.7 -27.25 35.4 48.25" preserveAspectRatio="xMidYMid meet" overflow="visible"><line x1="-17.7" y1="0" x2="17.7" y2="0" stroke="#e5e5e5" stroke-width="0.6"/><text x="-3.85" y="0" font-family="Bravura,serif" font-size="20" fill="#1a1a1a" text-anchor="middle" dominant-baseline="middle">&#xE0A4;</text><line x1="-0.6000000000000001" y1="0" x2="-0.6000000000000001" y2="-17.5" stroke="#1a1a1a" stroke-width="0.5" stroke-linecap="butt"/><line x1="-3.85" y1="-17.5" x2="3.8500000000000005" y2="-17.5" stroke="#1a1a1a" stroke-width="2.5" stroke-linecap="butt"/><text x="3.8500000000000005" y="0" font-family="Bravura,serif" font-size="20" fill="#1a1a1a" text-anchor="middle" dominant-baseline="middle">&#xE0A4;</text><line x1="7.1000000000000005" y1="0" x2="7.1000000000000005" y2="-17.5" stroke="#1a1a1a" stroke-width="0.5" stroke-linecap="butt"/></svg></g><text x="430" y="25" font-family="system-ui,sans-serif" font-size="11" fill="#333">2×1/8 (BeamCalculation, vars üles)</text></g><g transform="translate(0,722)"><line x1="20" y1="40" x2="880" y2="40" stroke="#eee"/><text x="28" y="25" font-family="system-ui,sans-serif" font-size="11" fill="#444">Liit</text><text x="160" y="25" font-family="ui-monospace,monospace" font-size="11" fill="#1a1a1a">2/8+2/8</text><g transform="translate(300,3)"><svg width="88" height="36" viewBox="-17.7 -27.25 35.4 48.25" preserveAspectRatio="xMidYMid meet" overflow="visible"><line x1="-17.7" y1="0" x2="17.7" y2="0" stroke="#e5e5e5" stroke-width="0.6"/><text x="-5.775" y="0" font-family="Bravura,serif" font-size="20" fill="#1a1a1a" text-anchor="middle" dominant-baseline="middle">&#xE0A4;</text><line x1="-2.5250000000000004" y1="0" x2="-2.5250000000000004" y2="-17.5" stroke="#1a1a1a" stroke-width="0.5" stroke-linecap="butt"/><line x1="-5.775" y1="-17.5" x2="-1.9249999999999998" y2="-17.5" stroke="#1a1a1a" stroke-width="2.5" stroke-linecap="butt"/><text x="-1.9249999999999998" y="0" font-family="Bravura,serif" font-size="20" fill="#1a1a1a" text-anchor="middle" dominant-baseline="middle">&#xE0A4;</text><line x1="1.3250000000000002" y1="0" x2="1.3250000000000002" y2="-17.5" stroke="#1a1a1a" stroke-width="0.5" stroke-linecap="butt"/><text x="1.9249999999999998" y="0" font-family="Bravura,serif" font-size="20" fill="#1a1a1a" text-anchor="middle" dominant-baseline="middle">&#xE0A4;</text><line x1="5.175" y1="0" x2="5.175" y2="-17.5" stroke="#1a1a1a" stroke-width="0.5" stroke-linecap="butt"/><line x1="1.9249999999999998" y1="-17.5" x2="5.7749999999999995" y2="-17.5" stroke="#1a1a1a" stroke-width="2.5" stroke-linecap="butt"/><text x="5.7749999999999995" y="0" font-family="Bravura,serif" font-size="20" fill="#1a1a1a" text-anchor="middle" dominant-baseline="middle">&#xE0A4;</text><line x1="9.024999999999999" y1="0" x2="9.024999999999999" y2="-17.5" stroke="#1a1a1a" stroke-width="0.5" stroke-linecap="butt"/></svg></g><text x="430" y="25" font-family="system-ui,sans-serif" font-size="11" fill="#333">Kaks eraldi tala</text></g><g transform="translate(0,764)"><line x1="20" y1="40" x2="880" y2="40" stroke="#eee"/><text x="28" y="25" font-family="system-ui,sans-serif" font-size="11" fill="#444">Liit</text><text x="160" y="25" font-family="ui-monospace,monospace" font-size="11" fill="#1a1a1a">4/8</text><g transform="translate(300,3)"><svg width="88" height="36" viewBox="-17.7 -27.25 35.4 48.25" preserveAspectRatio="xMidYMid meet" overflow="visible"><line x1="-17.7" y1="0" x2="17.7" y2="0" stroke="#e5e5e5" stroke-width="0.6"/><text x="-5.775" y="0" font-family="Bravura,serif" font-size="20" fill="#1a1a1a" text-anchor="middle" dominant-baseline="middle">&#xE0A4;</text><line x1="-2.5250000000000004" y1="0" x2="-2.5250000000000004" y2="-17.5" stroke="#1a1a1a" stroke-width="0.5" stroke-linecap="butt"/><line x1="-5.775" y1="-17.5" x2="5.7749999999999995" y2="-17.5" stroke="#1a1a1a" stroke-width="2.5" stroke-linecap="butt"/><text x="-1.9249999999999998" y="0" font-family="Bravura,serif" font-size="20" fill="#1a1a1a" text-anchor="middle" dominant-baseline="middle">&#xE0A4;</text><line x1="1.3250000000000002" y1="0" x2="1.3250000000000002" y2="-17.5" stroke="#1a1a1a" stroke-width="0.5" stroke-linecap="butt"/><text x="1.9249999999999998" y="0" font-family="Bravura,serif" font-size="20" fill="#1a1a1a" text-anchor="middle" dominant-baseline="middle">&#xE0A4;</text><line x1="5.175" y1="0" x2="5.175" y2="-17.5" stroke="#1a1a1a" stroke-width="0.5" stroke-linecap="butt"/><text x="5.7749999999999995" y="0" font-family="Bravura,serif" font-size="20" fill="#1a1a1a" text-anchor="middle" dominant-baseline="middle">&#xE0A4;</text><line x1="9.024999999999999" y1="0" x2="9.024999999999999" y2="-17.5" stroke="#1a1a1a" stroke-width="0.5" stroke-linecap="butt"/></svg></g><text x="430" y="25" font-family="system-ui,sans-serif" font-size="11" fill="#333">4×1/8 üks tala</text></g><g transform="translate(0,806)"><line x1="20" y1="40" x2="880" y2="40" stroke="#eee"/><text x="28" y="25" font-family="system-ui,sans-serif" font-size="11" fill="#444">Liit</text><text x="160" y="25" font-family="ui-monospace,monospace" font-size="11" fill="#1a1a1a">4/16</text><g transform="translate(300,3)"><svg width="88" height="36" viewBox="-17.7 -31 35.4 52" preserveAspectRatio="xMidYMid meet" overflow="visible"><line x1="-17.7" y1="0" x2="17.7" y2="0" stroke="#e5e5e5" stroke-width="0.6"/><text x="-5.775" y="0" font-family="Bravura,serif" font-size="20" fill="#1a1a1a" text-anchor="middle" dominant-baseline="middle">&#xE0A4;</text><line x1="-2.5250000000000004" y1="0" x2="-2.5250000000000004" y2="-21.25" stroke="#1a1a1a" stroke-width="0.5" stroke-linecap="butt"/><line x1="-5.775" y1="-17.5" x2="5.7749999999999995" y2="-17.5" stroke="#1a1a1a" stroke-width="2.5" stroke-linecap="butt"/><line x1="-5.775" y1="-21.25" x2="5.7749999999999995" y2="-21.25" stroke="#1a1a1a" stroke-width="2.5" stroke-linecap="butt"/><text x="-1.9249999999999998" y="0" font-family="Bravura,serif" font-size="20" fill="#1a1a1a" text-anchor="middle" dominant-baseline="middle">&#xE0A4;</text><line x1="1.3250000000000002" y1="0" x2="1.3250000000000002" y2="-21.25" stroke="#1a1a1a" stroke-width="0.5" stroke-linecap="butt"/><text x="1.9249999999999998" y="0" font-family="Bravura,serif" font-size="20" fill="#1a1a1a" text-anchor="middle" dominant-baseline="middle">&#xE0A4;</text><line x1="5.175" y1="0" x2="5.175" y2="-21.25" stroke="#1a1a1a" stroke-width="0.5" stroke-linecap="butt"/><text x="5.7749999999999995" y="0" font-family="Bravura,serif" font-size="20" fill="#1a1a1a" text-anchor="middle" dominant-baseline="middle">&#xE0A4;</text><line x1="9.024999999999999" y1="0" x2="9.024999999999999" y2="-21.25" stroke="#1a1a1a" stroke-width="0.5" stroke-linecap="butt"/></svg></g><text x="430" y="25" font-family="system-ui,sans-serif" font-size="11" fill="#333">4×1/16</text></g><g transform="translate(0,848)"><line x1="20" y1="40" x2="880" y2="40" stroke="#eee"/><text x="28" y="25" font-family="system-ui,sans-serif" font-size="11" fill="#444">Liit</text><text x="160" y="25" font-family="ui-monospace,monospace" font-size="11" fill="#1a1a1a">8/16</text><g transform="translate(300,3)"><svg width="120" height="36" viewBox="-24.08 -31 48.16 52" preserveAspectRatio="xMidYMid meet" overflow="visible"><line x1="-24.08" y1="0" x2="24.08" y2="0" stroke="#e5e5e5" stroke-width="0.6"/><text x="-12.32" y="0" font-family="Bravura,serif" font-size="20" fill="#1a1a1a" text-anchor="middle" dominant-baseline="middle">&#xE0A4;</text><line x1="-9.07" y1="0" x2="-9.07" y2="-21.25" stroke="#1a1a1a" stroke-width="0.5" stroke-linecap="butt"/><line x1="-12.32" y1="-17.5" x2="-1.7599999999999998" y2="-17.5" stroke="#1a1a1a" stroke-width="2.5" stroke-linecap="butt"/><line x1="-12.32" y1="-21.25" x2="-1.7599999999999998" y2="-21.25" stroke="#1a1a1a" stroke-width="2.5" stroke-linecap="butt"/><text x="-8.8" y="0" font-family="Bravura,serif" font-size="20" fill="#1a1a1a" text-anchor="middle" dominant-baseline="middle">&#xE0A4;</text><line x1="-5.550000000000001" y1="0" x2="-5.550000000000001" y2="-21.25" stroke="#1a1a1a" stroke-width="0.5" stroke-linecap="butt"/><text x="-5.279999999999999" y="0" font-family="Bravura,serif" font-size="20" fill="#1a1a1a" text-anchor="middle" dominant-baseline="middle">&#xE0A4;</text><line x1="-2.0299999999999994" y1="0" x2="-2.0299999999999994" y2="-21.25" stroke="#1a1a1a" stroke-width="0.5" stroke-linecap="butt"/><text x="-1.7599999999999998" y="0" font-family="Bravura,serif" font-size="20" fill="#1a1a1a" text-anchor="middle" dominant-baseline="middle">&#xE0A4;</text><line x1="1.4900000000000002" y1="0" x2="1.4900000000000002" y2="-21.25" stroke="#1a1a1a" stroke-width="0.5" stroke-linecap="butt"/><text x="1.7599999999999998" y="0" font-family="Bravura,serif" font-size="20" fill="#1a1a1a" text-anchor="middle" dominant-baseline="middle">&#xE0A4;</text><line x1="5.01" y1="0" x2="5.01" y2="-21.25" stroke="#1a1a1a" stroke-width="0.5" stroke-linecap="butt"/><line x1="1.7599999999999998" y1="-17.5" x2="12.319999999999999" y2="-17.5" stroke="#1a1a1a" stroke-width="2.5" stroke-linecap="butt"/><line x1="-12.32" y1="-21.25" x2="-1.7599999999999998" y2="-21.25" stroke="#1a1a1a" stroke-width="2.5" stroke-linecap="butt"/><text x="5.279999999999999" y="0" font-family="Bravura,serif" font-size="20" fill="#1a1a1a" text-anchor="middle" dominant-baseline="middle">&#xE0A4;</text><line x1="8.53" y1="0" x2="8.53" y2="-21.25" stroke="#1a1a1a" stroke-width="0.5" stroke-linecap="butt"/><text x="8.799999999999999" y="0" font-family="Bravura,serif" font-size="20" fill="#1a1a1a" text-anchor="middle" dominant-baseline="middle">&#xE0A4;</text><line x1="12.049999999999999" y1="0" x2="12.049999999999999" y2="-21.25" stroke="#1a1a1a" stroke-width="0.5" stroke-linecap="butt"/><text x="12.319999999999999" y="0" font-family="Bravura,serif" font-size="20" fill="#1a1a1a" text-anchor="middle" dominant-baseline="middle">&#xE0A4;</text><line x1="15.569999999999999" y1="0" x2="15.569999999999999" y2="-21.25" stroke="#1a1a1a" stroke-width="0.5" stroke-linecap="butt"/></svg></g><text x="430" y="25" font-family="system-ui,sans-serif" font-size="11" fill="#333">8×1/16 (kaks rühma)</text></g><g transform="translate(0,890)"><line x1="20" y1="40" x2="880" y2="40" stroke="#eee"/><text x="28" y="25" font-family="system-ui,sans-serif" font-size="11" fill="#444">Liit</text><text x="160" y="25" font-family="ui-monospace,monospace" font-size="11" fill="#1a1a1a">1/8+2/16</text><g transform="translate(300,3)"><svg width="88" height="36" viewBox="-17.7 -31 35.4 52" preserveAspectRatio="xMidYMid meet" overflow="visible"><line x1="-17.7" y1="0" x2="17.7" y2="0" stroke="#e5e5e5" stroke-width="0.6"/><text x="-3.85" y="0" font-family="Bravura,serif" font-size="20" fill="#1a1a1a" text-anchor="middle" dominant-baseline="middle">&#xE0A4;</text><line x1="-0.6000000000000001" y1="0" x2="-0.6000000000000001" y2="-17.5" stroke="#1a1a1a" stroke-width="0.5" stroke-linecap="butt"/><line x1="-3.85" y1="-17.5" x2="5.7749999999999995" y2="-17.5" stroke="#1a1a1a" stroke-width="2.5" stroke-linecap="butt"/><line x1="1.9249999999999998" y1="-21.25" x2="5.7749999999999995" y2="-21.25" stroke="#1a1a1a" stroke-width="2.5" stroke-linecap="butt"/><text x="1.9249999999999998" y="0" font-family="Bravura,serif" font-size="20" fill="#1a1a1a" text-anchor="middle" dominant-baseline="middle">&#xE0A4;</text><line x1="5.175" y1="0" x2="5.175" y2="-21.25" stroke="#1a1a1a" stroke-width="0.5" stroke-linecap="butt"/><text x="5.7749999999999995" y="0" font-family="Bravura,serif" font-size="20" fill="#1a1a1a" text-anchor="middle" dominant-baseline="middle">&#xE0A4;</text><line x1="9.024999999999999" y1="0" x2="9.024999999999999" y2="-21.25" stroke="#1a1a1a" stroke-width="0.5" stroke-linecap="butt"/></svg></g><text x="430" y="25" font-family="system-ui,sans-serif" font-size="11" fill="#333">Segarütm</text></g><g transform="translate(0,932)"><line x1="20" y1="40" x2="880" y2="40" stroke="#eee"/><text x="28" y="25" font-family="system-ui,sans-serif" font-size="11" fill="#444">Liit</text><text x="160" y="25" font-family="ui-monospace,monospace" font-size="11" fill="#1a1a1a">2/16+1/8</text><g transform="translate(300,3)"><svg width="88" height="36" viewBox="-17.7 -31 35.4 52" preserveAspectRatio="xMidYMid meet" overflow="visible"><line x1="-17.7" y1="0" x2="17.7" y2="0" stroke="#e5e5e5" stroke-width="0.6"/><text x="-5.775" y="0" font-family="Bravura,serif" font-size="20" fill="#1a1a1a" text-anchor="middle" dominant-baseline="middle">&#xE0A4;</text><line x1="-2.5250000000000004" y1="0" x2="-2.5250000000000004" y2="-21.25" stroke="#1a1a1a" stroke-width="0.5" stroke-linecap="butt"/><line x1="-5.775" y1="-17.5" x2="3.8500000000000005" y2="-17.5" stroke="#1a1a1a" stroke-width="2.5" stroke-linecap="butt"/><line x1="-5.775" y1="-21.25" x2="-1.9249999999999998" y2="-21.25" stroke="#1a1a1a" stroke-width="2.5" stroke-linecap="butt"/><text x="-1.9249999999999998" y="0" font-family="Bravura,serif" font-size="20" fill="#1a1a1a" text-anchor="middle" dominant-baseline="middle">&#xE0A4;</text><line x1="1.3250000000000002" y1="0" x2="1.3250000000000002" y2="-21.25" stroke="#1a1a1a" stroke-width="0.5" stroke-linecap="butt"/><text x="3.8500000000000005" y="0" font-family="Bravura,serif" font-size="20" fill="#1a1a1a" text-anchor="middle" dominant-baseline="middle">&#xE0A4;</text><line x1="7.1000000000000005" y1="0" x2="7.1000000000000005" y2="-17.5" stroke="#1a1a1a" stroke-width="0.5" stroke-linecap="butt"/></svg></g><text x="430" y="25" font-family="system-ui,sans-serif" font-size="11" fill="#333">Segarütm</text></g><g transform="translate(0,974)"><line x1="20" y1="40" x2="880" y2="40" stroke="#eee"/><text x="28" y="25" font-family="system-ui,sans-serif" font-size="11" fill="#444">Liit</text><text x="160" y="25" font-family="ui-monospace,monospace" font-size="11" fill="#1a1a1a">triplet-8</text><g transform="translate(300,3)"><svg width="88" height="36" viewBox="-17.7 -27.25 35.4 48.25" preserveAspectRatio="xMidYMid meet" overflow="visible"><text x="0" y="-23" text-anchor="middle" font-family="system-ui,sans-serif" font-size="5.75" font-weight="700" fill="#1a1a1a">3</text><line x1="-17.7" y1="0" x2="17.7" y2="0" stroke="#e5e5e5" stroke-width="0.6"/><text x="-5.133333333333334" y="0" font-family="Bravura,serif" font-size="20" fill="#1a1a1a" text-anchor="middle" dominant-baseline="middle">&#xE0A4;</text><line x1="-1.8833333333333337" y1="0" x2="-1.8833333333333337" y2="-17.5" stroke="#1a1a1a" stroke-width="0.5" stroke-linecap="butt"/><line x1="-5.133333333333334" y1="-17.5" x2="5.133333333333332" y2="-17.5" stroke="#1a1a1a" stroke-width="2.5" stroke-linecap="butt"/><text x="0" y="0" font-family="Bravura,serif" font-size="20" fill="#1a1a1a" text-anchor="middle" dominant-baseline="middle">&#xE0A4;</text><line x1="3.25" y1="0" x2="3.25" y2="-17.5" stroke="#1a1a1a" stroke-width="0.5" stroke-linecap="butt"/><text x="5.133333333333332" y="0" font-family="Bravura,serif" font-size="20" fill="#1a1a1a" text-anchor="middle" dominant-baseline="middle">&#xE0A4;</text><line x1="8.383333333333333" y1="0" x2="8.383333333333333" y2="-17.5" stroke="#1a1a1a" stroke-width="0.5" stroke-linecap="butt"/></svg></g><text x="430" y="25" font-family="system-ui,sans-serif" font-size="11" fill="#333">Triool kaheksandikud</text></g><g transform="translate(0,1016)"><line x1="20" y1="40" x2="880" y2="40" stroke="#eee"/><text x="28" y="25" font-family="system-ui,sans-serif" font-size="11" fill="#444">Liit</text><text x="160" y="25" font-family="ui-monospace,monospace" font-size="11" fill="#1a1a1a">triplet-4</text><g transform="translate(300,3)"><svg width="88" height="36" viewBox="-17.7 -16 35.4 37" preserveAspectRatio="xMidYMid meet" overflow="visible"><text x="0" y="-11.75" text-anchor="middle" font-family="system-ui,sans-serif" font-size="5.75" font-weight="700" fill="#1a1a1a">3</text><line x1="-17.7" y1="0" x2="17.7" y2="0" stroke="#e5e5e5" stroke-width="0.6"/><text x="-5.133333333333334" y="0" font-family="Bravura,serif" font-size="20" fill="#1a1a1a" text-anchor="middle" dominant-baseline="middle">&#xE0A4;</text><line x1="-1.8833333333333337" y1="0" x2="-1.8833333333333337" y2="-17.5" stroke="#1a1a1a" stroke-width="0.5" stroke-linecap="butt"/><text x="0" y="0" font-family="Bravura,serif" font-size="20" fill="#1a1a1a" text-anchor="middle" dominant-baseline="middle">&#xE0A4;</text><line x1="3.25" y1="0" x2="3.25" y2="-17.5" stroke="#1a1a1a" stroke-width="0.5" stroke-linecap="butt"/><text x="5.133333333333332" y="0" font-family="Bravura,serif" font-size="20" fill="#1a1a1a" text-anchor="middle" dominant-baseline="middle">&#xE0A4;</text><line x1="8.383333333333333" y1="0" x2="8.383333333333333" y2="-17.5" stroke="#1a1a1a" stroke-width="0.5" stroke-linecap="butt"/></svg></g><text x="430" y="25" font-family="system-ui,sans-serif" font-size="11" fill="#333">Triool veerandikud (1/4 ei taluta — tala puudub, nagu partituuris)</text></g><g transform="translate(0,1058)"><line x1="20" y1="40" x2="880" y2="40" stroke="#eee"/><text x="28" y="25" font-family="system-ui,sans-serif" font-size="11" fill="#444">Beam</text><text x="160" y="25" font-family="ui-monospace,monospace" font-size="11" fill="#1a1a1a">beam:auto</text><g transform="translate(300,3)"><svg width="88" height="36" viewBox="0 0 88 36" overflow="visible"><g fill="none" stroke="#1a1a1a" stroke-width="1.2"><line x1="8" y1="10" x2="80" y2="10"/><line x1="8" y1="26" x2="80" y2="26"/></g><text x="44" y="20" font-family="system-ui,sans-serif" font-size="9" fill="#1a1a1a" text-anchor="middle" dominant-baseline="central">A</text></svg></g><text x="430" y="25" font-family="system-ui,sans-serif" font-size="11" fill="#333">Automaatne (skeem)</text></g><g transform="translate(0,1100)"><line x1="20" y1="40" x2="880" y2="40" stroke="#eee"/><text x="28" y="25" font-family="system-ui,sans-serif" font-size="11" fill="#444">Beam</text><text x="160" y="25" font-family="ui-monospace,monospace" font-size="11" fill="#1a1a1a">beam:2/8</text><g transform="translate(300,3)"><svg width="88" height="36" viewBox="0 0 88 36" overflow="visible"><g fill="none" stroke="#1a1a1a" stroke-width="1.2"><line x1="8" y1="10" x2="80" y2="10"/><line x1="8" y1="26" x2="80" y2="26"/></g><text x="44" y="20" font-family="system-ui,sans-serif" font-size="9" fill="#1a1a1a" text-anchor="middle" dominant-baseline="central">2</text></svg></g><text x="430" y="25" font-family="system-ui,sans-serif" font-size="11" fill="#333">2/8 kaupa (skeem)</text></g><g transform="translate(0,1142)"><line x1="20" y1="40" x2="880" y2="40" stroke="#eee"/><text x="28" y="25" font-family="system-ui,sans-serif" font-size="11" fill="#444">Beam</text><text x="160" y="25" font-family="ui-monospace,monospace" font-size="11" fill="#1a1a1a">beam:3/8</text><g transform="translate(300,3)"><svg width="88" height="36" viewBox="0 0 88 36" overflow="visible"><g fill="none" stroke="#1a1a1a" stroke-width="1.2"><line x1="8" y1="10" x2="80" y2="10"/><line x1="8" y1="26" x2="80" y2="26"/></g><text x="44" y="20" font-family="system-ui,sans-serif" font-size="9" fill="#1a1a1a" text-anchor="middle" dominant-baseline="central">3</text></svg></g><text x="430" y="25" font-family="system-ui,sans-serif" font-size="11" fill="#333">3/8 kaupa (skeem)</text></g><g transform="translate(0,1184)"><line x1="20" y1="40" x2="880" y2="40" stroke="#eee"/><text x="28" y="25" font-family="system-ui,sans-serif" font-size="11" fill="#444">Beam</text><text x="160" y="25" font-family="ui-monospace,monospace" font-size="11" fill="#1a1a1a">beam:4/8</text><g transform="translate(300,3)"><svg width="88" height="36" viewBox="0 0 88 36" overflow="visible"><g fill="none" stroke="#1a1a1a" stroke-width="1.2"><line x1="8" y1="10" x2="80" y2="10"/><line x1="8" y1="26" x2="80" y2="26"/></g><text x="44" y="20" font-family="system-ui,sans-serif" font-size="9" fill="#1a1a1a" text-anchor="middle" dominant-baseline="central">4</text></svg></g><text x="430" y="25" font-family="system-ui,sans-serif" font-size="11" fill="#333">4/8 (skeem)</text></g><g transform="translate(0,1226)"><line x1="20" y1="40" x2="880" y2="40" stroke="#eee"/><text x="28" y="25" font-family="system-ui,sans-serif" font-size="11" fill="#444">Beam</text><text x="160" y="25" font-family="ui-monospace,monospace" font-size="11" fill="#1a1a1a">beam:3/16</text><g transform="translate(300,3)"><svg width="88" height="36" viewBox="0 0 88 36" overflow="visible"><g fill="none" stroke="#1a1a1a" stroke-width="1"><line x1="6" y1="9" x2="82" y2="9"/><line x1="6" y1="13" x2="82" y2="13"/></g><text x="44" y="24" font-family="system-ui,sans-serif" font-size="7" fill="#1a1a1a" text-anchor="middle" dominant-baseline="central">3/16</text></svg></g><text x="430" y="25" font-family="system-ui,sans-serif" font-size="11" fill="#333">3/16 (skeem)</text></g>
  <text x="24" y="1320" font-family="system-ui,sans-serif" font-size="10" fill="#666">Beam-read: ainult skeem (mitte SMuFL), nagu rhythmToolbox BEAM_MODE_ICONS.</text>
  <text x="24" y="1338" font-family="system-ui,sans-serif" font-size="10" fill="#666">Uuenda: node scripts/generate-rhythm-smufl-table-svg.mjs</text>
</svg>