<?xml version="1.0" encoding="UTF-8"?>
<!DOCTYPE svg PUBLIC "-//W3C//DTD SVG 1.1//EN" "http://www.w3.org/Graphics/SVG/1.1/DTD/svg11.dtd">
<!-- Creator: CorelDRAW 2019 (64-Bit) -->
<!-- Reference copy for Noodimeister. Source: https://commons.wikimedia.org/wiki/File:Positions_of_%E2%99%AF_and_%E2%99%AD_in_Key_Signatures_in_4_Clefs.svg — check Commons file page for author and license (typically CC BY-SA). -->
<svg xmlns="http://www.w3.org/2000/svg" xml:space="preserve" width="208.685mm" height="276.699mm" version="1.1" style="shape-rendering:geometricPrecision; text-rendering:geometricPrecision; image-rendering:optimizeQuality; fill-rule:evenodd; clip-rule:evenodd"
viewBox="0 0 10401.51 13791.53"
 xmlns:xlink="http://www.w3.org/1999/xlink">
 <defs>
  <style type="text/css">
   <![CDATA[
    .fil0 {fill:black;fill-rule:nonzero}
   ]]>
  </style>
 </defs>
 <g id="图层_x0020_1">
  <metadata id="CorelCorpID_0Corel-Layer"/>
  <g id="_2762728038672">
   <g>
    <polygon class="fil0" points="4546.64,619.88 -0,619.88 -0,583.87 4546.64,583.87 "/>
   </g>
   <g>
    <polygon class="fil0" points="4546.64,946.93 -0,946.93 -0,910.93 4546.64,910.93 "/>
   </g>
   <g>
    <polygon class="fil0" points="4546.64,1273.99 -0,1273.99 -0,1237.99 4546.64,1237.99 "/>
   </g>
   <g>
    <polygon class="fil0" points="4546.64,1601.05 -0,1601.05 -0,1565.04 4546.64,1565.04 "/>
   </g>
   <g>
    <polygon class="fil0" points="4546.64,1928.11 -0,1928.11 -0,1892.1 4546.64,1892.1 "/>
   </g>
   <path class="fil0" d="M1090.53 1505.5c-16.14,-71.06 -50.7,-121.02 -60.94,-134.33 -41.68,-56.13 -94.22,-93.45 -155.57,-111.29 -40.65,-11.35 -79.87,-12.98 -111.6,-10.38 -13.69,-78.85 -26.8,-155.74 -38.62,-227.12 71.31,-80.47 118.76,-156.39 148.57,-212.52 45.41,-86.31 60.31,-146.01 61.14,-148.6 22.52,-68.46 27.2,-169.05 12.71,-276.44 -13.12,-98.63 -40.54,-186.56 -71.39,-229.07 -13.25,-18.82 -27.2,-28.23 -40.65,-28.23 -15.94,0 -48.85,15.89 -86.69,52.56 -30.01,28.56 -72.74,79.49 -106.25,158.01 -39.29,92.47 -42.17,216.42 -37.44,304.35 4.86,95.39 19.44,169.7 19.65,170.34 0.2,1.3 3.63,20.76 9.4,54.51 -2.89,2.92 -6.17,5.84 -9.4,9.09 -13.53,12.98 -29.05,27.9 -47.26,46.07 -11.26,11.04 -23.7,23.04 -36.81,35.69 -110.37,106.42 -277.77,267.68 -277.77,518.49 0,61.33 11.89,119.08 35.17,171.64 20.67,47.05 50.69,90.2 89.15,127.84 101.17,98.96 239.71,140.82 331.95,138.54 38.62,-0.97 73.17,-3.89 104.41,-10.06 23.89,125.89 38.87,217.71 39.28,287.8 0.62,85.01 -21.08,137.25 -71.98,173.58 -31.86,22.71 -68.68,35.04 -109.16,36.99 -33.91,1.62 -63.59,-4.54 -82.13,-9.73l-0.2 0c0,0 -3.71,-1.3 -3.93,-3.9 -0.2,-2.59 4.54,-2.92 4.54,-2.92l0.35 0c25.2,-5.84 71.77,-22.07 102.6,-65.22 23.56,-33.1 34.97,-93.45 10.86,-145.03 -14.5,-31.15 -47.19,-69.76 -120.81,-75.93 -32.7,-2.59 -62.3,4.22 -88.48,20.12 -23.69,13.95 -43.34,35.37 -57.07,61.65 -32.08,61.32 -26.1,136.27 14.76,186.89 38.81,47.37 99.11,77.55 170.28,85.01 11.18,1.3 22.24,1.62 33.31,1.62 58.04,0 115.46,-15.57 162.31,-44.45 47.79,-33.74 75.61,-85.98 84.39,-159.31 7.35,-61 2.27,-138.22 -15.93,-243.99 -4.73,-27.25 -11.89,-67.16 -20.47,-116.16 75.21,-24.98 129.62,-72.03 178.86,-148.6 43.14,-74.95 55.43,-154.77 36.83,-237.51zm-447.69 342.95c-60.72,-15.89 -118.78,-48.67 -167.81,-94.42 -17.17,-16.22 -41.68,-44.45 -60.92,-88.9 -17.79,-41.53 -26.59,-86.31 -25.75,-133.35 0.82,-61.32 18,-124.59 50.69,-187.22 38.26,-73.01 97.95,-145.36 177.21,-215.12 19.03,-16.55 37.04,-33.42 53.79,-49.97 10.03,55.49 20.87,116.81 32.28,180.73 -50.29,16.55 -112.38,57.75 -153.11,131.73 -46.36,85.98 -44.51,158.34 -34.96,203.76 12.31,58.4 45.4,107.72 90.61,134.97 12.22,7.46 66.2,35.37 90.31,27.58 4.95,-1.3 8.39,-4.22 10.24,-8.76 6.73,-15.25 -6.71,-23.69 -26.99,-36.02 -7.96,-4.86 -16.76,-10.38 -26.16,-17.52 -43.56,-32.45 -62.51,-90.85 -48.43,-148.28 7.57,-31.15 24.32,-59.38 48.43,-81.77 21.7,-20.12 48.49,-34.72 79.53,-42.83 26.79,146.98 53.79,292.99 75.22,402.33 1.65,9.09 3.5,17.85 5.08,26.61 -57.22,12.33 -114.03,11.04 -169.24,-3.57zm148.22 -434.13c135.3,-6.49 191.08,90.85 202.75,154.12 6.11,33.42 6.11,91.5 -14.08,146.66 -15.31,41.53 -47.47,94.74 -114.7,121.67 -0.82,-5.52 -1.86,-11.03 -2.83,-16.55 -20.25,-115.18 -45.59,-258.92 -71.14,-405.9zm-95.9 -928.29c23.29,-75.27 59.08,-117.78 85.24,-140.49 22.95,-19.79 44.36,-28.87 56.47,-28.87 1.78,0 3.42,0.32 4.68,0.65 6.1,1.95 13.04,9.09 19.21,20.76 30.23,55.81 20.41,143.74 2.82,201.81 -21.22,70.73 -59.47,144.06 -174.52,269.95 -2.27,-14.6 -4.32,-28.23 -6.34,-41.21 -16.33,-108.37 -12.08,-203.76 12.44,-282.61z"/>
   <path class="fil0" d="M3692.81 1117.44c7.94,-1.62 14.53,-10.71 14.53,-18.49l0 -77.22c0,-10.38 -7.95,-18.17 -18.4,-18.17l-2.66 0 -43.12 9.08 0 -195 -36.63 0 0 202.79 -116.48 23.69 0 -184.62 -36.6 0 0 192.4 -51.13 10.38c-7.76,1.3 -14.28,10.38 -14.28,18.17l0 78.52 0 -2.27c0,10.38 7.76,18.17 18.43,18.17l3.83 0 43.15 -9.41 0 216.09 -51.13 10.38c-7.76,1.3 -14.28,10.71 -14.28,18.17l0 75.92c0,10.71 7.76,18.5 18.43,18.5l3.83 0 43.15 -9.09 0 195 36.6 0 0 -202.79 116.48 -23.69 0 184.29 36.63 0 0 -192.08 49.64 -9.41c7.94,-0.98 14.53,-10.38 14.53,-18.17l0 -77.22c0,-10.38 -7.95,-18.17 -18.4,-18.17l-2.66 0 -43.12 9.08 0 -216.09 49.64 -8.76zm-202.76 257.3l0 -216.74 116.48 -23.69 0 215.77 -116.48 24.66z"/>
   <path class="fil0" d="M3365.79 626.86c7.98,-1.62 14.5,-10.71 14.5,-18.49l0 -77.22c0,-10.38 -7.98,-18.17 -18.39,-18.17l-2.63 0 -43.12 9.09 0 -195 -36.6 0 0 202.79 -116.5 23.69 0 -184.62 -36.61 0 0 192.41 -51.09 10.38c-7.78,1.3 -14.29,10.38 -14.29,18.17l0 78.52 0 -2.27c0,10.38 7.77,18.17 18.34,18.17l3.91 0 43.13 -9.41 0 216.09 -51.09 10.38c-7.78,1.3 -14.29,10.71 -14.29,18.5l0 75.6c0,10.71 7.77,18.5 18.34,18.5l3.91 0 43.13 -9.09 0 195 36.61 0 0 -202.79 116.5 -23.69 0 184.62 36.6 0 0 -192.41 49.64 -9.41c7.98,-0.97 14.5,-10.38 14.5,-18.17l0 -77.22c0,-10.38 -7.98,-18.17 -18.39,-18.17l-2.63 0 -43.12 9.08 0 -216.09 49.64 -8.76zm-202.75 257.62l0 -217.39 116.5 -23.36 0 215.77 -116.5 24.98z"/>
   <path class="fil0" d="M3038.72 1280.97c7.97,-1.62 14.48,-10.71 14.48,-18.49l0 -77.22c0,-10.38 -7.96,-18.17 -18.34,-18.17l-2.66 0 -43.15 9.09 0 -195 -36.6 0 0 202.79 -116.5 23.69 0 -184.62 -36.6 0 0 192.41 -51.1 10.38c-7.75,1.3 -14.27,10.38 -14.27,18.17l0 78.52 0 -2.27c0,10.38 7.75,18.17 18.39,18.17l3.85 0 43.13 -9.41 0 216.09 -51.1 10.38c-7.75,1.3 -14.27,10.71 -14.27,18.49l0 75.6c0,10.71 7.75,18.5 18.39,18.5l3.85 0 43.13 -9.09 0 195 36.6 0 0 -202.79 116.5 -23.69 0 184.29 36.6 0 0 -192.08 49.67 -9.41c7.97,-0.97 14.48,-10.38 14.48,-18.17l0 -77.22c0,-10.38 -7.96,-18.17 -18.34,-18.17l-2.66 0 -43.15 9.09 0 -216.09 49.67 -8.76zm-202.78 257.3l0 -216.74 116.5 -23.69 0 215.77 -116.5 24.66z"/>
   <path class="fil0" d="M2711.71 790.39c7.96,-1.62 14.49,-10.71 14.49,-18.49l0 -77.22c0,-10.39 -7.97,-18.17 -18.42,-18.17l-2.68 0 -43.13 9.09 0 -195 -36.54 0 0 202.79 -116.55 23.69 0 -184.62 -36.54 0 0 192.4 -51.11 10.39c-7.76,1.3 -14.35,10.38 -14.35,18.17l0 78.52 0 -2.27c0,10.38 7.76,18.17 18.41,18.17l3.93 0 43.13 -9.41 0 216.09 -51.11 10.71c-7.76,0.97 -14.35,10.06 -14.35,18.17l0 75.6c0,10.71 7.76,18.49 18.41,18.49l3.93 0 43.13 -9.08 0 195 36.54 0 0 -202.79 116.55 -23.69 0 184.62 36.54 0 0 -192.4 49.73 -9.41c7.96,-1.3 14.49,-10.38 14.49,-18.17l0 -77.22c0,-10.38 -7.97,-18.17 -18.42,-18.17l-2.68 0 -43.13 9.09 0 -216.09 49.73 -8.76zm-202.83 257.62l0 -217.39 116.55 -23.36 0 215.77 -116.55 24.99z"/>
   <path class="fil0" d="M2384.61 299.8c7.98,-1.62 14.51,-10.71 14.51,-18.5l0 -77.22c0,-10.38 -7.97,-18.17 -18.41,-18.17l-2.61 0 -43.14 9.09 0 -195 -36.6 0 0 202.79 -116.49 23.69 0 -184.62 -36.6 0 0 192.4 -51.1 10.38c-7.77,1.3 -14.29,10.39 -14.29,18.17l0 78.52 0 -2.27c0,10.38 7.77,18.17 18.42,18.17l3.84 0 43.14 -9.41 0 216.09 -51.1 10.38c-7.77,1.3 -14.29,10.71 -14.29,18.17l0 75.93c0,10.71 7.77,18.49 18.42,18.49l3.84 0 43.14 -9.09 0 195.01 36.6 0 0 -202.79 116.49 -23.69 0 184.29 36.6 0 0 -192.08 49.66 -9.41c7.98,-0.97 14.51,-10.38 14.51,-18.17l0 -77.22c0,-10.39 -7.97,-18.17 -18.41,-18.17l-2.61 0 -43.14 9.09 0 -216.09 49.66 -8.76zm-202.75 257.3l0 -216.74 116.49 -23.69 0 215.77 -116.49 24.66z"/>
   <path class="fil0" d="M2057.54 953.92c7.97,-1.62 14.56,-10.71 14.56,-18.5l0 -77.22c0,-10.38 -7.96,-18.17 -18.4,-18.17l-2.68 0 -43.13 9.09 0 -195.01 -36.62 0 0 202.79 -116.49 23.36 0 -184.29 -36.6 0 0 192.4 -51.12 10.38c-7.76,1.3 -14.29,10.38 -14.29,18.17l0 78.52 0 -2.27c0,10.39 7.76,18.17 18.42,18.17l3.83 0 43.16 -9.41 0 216.09 -51.12 10.39c-7.76,1.3 -14.29,10.71 -14.29,18.17l0 75.93c0,10.71 7.76,18.49 18.42,18.49l3.83 0 43.16 -9.09 0 195 36.6 0 0 -202.79 116.49 -23.69 0 184.29 36.62 0 0 -192.08 49.64 -9.41c7.97,-1.3 14.56,-10.38 14.56,-18.17l0 -77.22c0,-10.38 -7.96,-18.17 -18.4,-18.17l-2.68 0 -43.13 9.09 0 -215.77 49.64 -9.08zm-202.75 257.29l0 -216.74 116.49 -23.69 0 215.77 -116.49 24.66z"/>
   <path class="fil0" d="M1730.53 463.33c7.96,-1.62 14.49,-10.71 14.49,-18.5l0 -77.22c0,-10.38 -7.96,-18.17 -18.39,-18.17l-2.62 0 -43.13 9.08 0 -195 -36.6 0 0 202.79 -116.5 23.69 0 -184.62 -36.6 0 0 192.4 -51.1 10.38c-7.77,1.3 -14.3,10.38 -14.3,18.17l0 78.52 0 -2.27c0,10.38 7.79,18.17 18.34,18.17l3.93 0 43.13 -9.41 0 216.09 -51.1 10.38c-7.77,1.3 -14.3,10.71 -14.3,18.5l0 75.6c0,10.71 7.79,18.5 18.34,18.5l3.93 0 43.13 -9.09 0 195 36.6 0 0 -202.79 116.5 -23.69 0 184.62 36.6 0 0 -192.4 49.66 -9.41c7.96,-0.98 14.49,-10.38 14.49,-18.17l0 -77.22c0,-10.38 -7.96,-18.17 -18.39,-18.17l-2.62 0 -43.13 9.09 0 -216.09 49.66 -8.76zm-202.76 257.62l0 -217.06 116.5 -23.69 0 215.77 -116.5 24.98z"/>
  </g>
  <g>
   <g>
    <polygon class="fil0" points="10401.51,619.88 5854.87,619.88 5854.87,583.87 10401.51,583.87 "/>
   </g>
   <g>
    <polygon class="fil0" points="10401.51,946.61 5854.87,946.61 5854.87,910.6 10401.51,910.6 "/>
   </g>
   <g>
    <polygon class="fil0" points="10401.51,1273.67 5854.87,1273.67 5854.87,1237.66 10401.51,1237.66 "/>
   </g>
   <g>
    <polygon class="fil0" points="10401.51,1601.05 5854.87,1601.05 5854.87,1565.04 10401.51,1565.04 "/>
   </g>
   <g>
    <polygon class="fil0" points="10401.51,1927.78 5854.87,1927.78 5854.87,1891.77 10401.51,1891.77 "/>
   </g>
   <path class="fil0" d="M6945.4 1505.5c-16.14,-71.06 -50.7,-121.02 -60.94,-134.65 -41.68,-55.81 -94.22,-93.12 -155.57,-110.97 -40.65,-11.36 -79.87,-12.98 -111.6,-10.71 -13.69,-78.52 -26.8,-155.42 -38.62,-226.8 71.31,-80.79 118.76,-156.39 148.57,-212.84 45.41,-85.98 60.31,-145.69 61.14,-148.61 22.52,-68.14 27.2,-169.04 12.71,-276.44 -13.12,-98.63 -40.54,-186.57 -71.39,-229.07 -13.25,-18.5 -27.2,-28.23 -40.65,-28.23 -15.94,0 -48.85,16.22 -86.69,52.56 -30.01,28.55 -72.74,79.49 -106.25,158.34 -39.29,92.47 -42.17,216.42 -37.44,304.35 4.86,95.39 19.44,169.69 19.65,170.34 0.2,1.3 3.63,20.76 9.4,54.18 -2.89,3.24 -6.17,6.17 -9.4,9.41 -13.53,12.97 -29.05,27.58 -47.26,45.75 -11.26,11.36 -23.7,23.04 -36.81,36.02 -110.37,106.42 -277.77,267.68 -277.77,518.16 0,61.65 11.89,119.4 35.17,171.97 20.67,47.05 50.69,89.87 89.15,127.51 101.17,98.96 239.71,140.82 331.95,138.87 38.62,-0.97 73.17,-4.22 104.41,-10.06 23.89,125.56 38.87,217.71 39.28,287.47 0.62,85.33 -21.08,137.57 -71.98,173.58 -31.86,22.71 -68.68,35.37 -109.16,36.99 -33.91,1.62 -63.59,-4.22 -82.13,-9.73l-0.2 0c0,0 -3.71,-1.3 -3.93,-3.57 -0.2,-2.59 4.54,-3.24 4.54,-3.24l0.35 0c25.2,-5.51 71.77,-21.74 102.6,-64.89 23.56,-33.1 34.97,-93.45 10.86,-145.03 -14.5,-31.48 -47.19,-70.08 -120.81,-75.93 -32.7,-2.6 -62.3,4.22 -88.48,19.79 -23.69,14.28 -43.34,35.69 -57.07,61.65 -32.08,61.65 -26.1,136.6 14.76,186.89 38.81,47.37 99.11,77.87 170.28,85.34 11.18,1.3 22.24,1.62 33.31,1.62 58.04,0 115.46,-15.9 162.31,-44.45 47.79,-33.74 75.61,-85.98 84.39,-159.64 7.35,-60.67 2.27,-138.22 -15.93,-243.67 -4.73,-27.58 -11.89,-67.16 -20.47,-116.16 75.21,-25.31 129.62,-72.03 178.86,-148.6 43.14,-74.95 55.43,-155.09 36.83,-237.51zm-447.69 342.95c-60.72,-15.9 -118.78,-48.67 -167.81,-94.74 -17.17,-15.9 -41.68,-44.45 -60.92,-88.58 -17.79,-41.53 -26.59,-86.63 -25.75,-133.35 0.82,-61.65 18,-124.59 50.69,-187.22 38.26,-73.01 97.95,-145.36 177.21,-215.12 19.03,-16.55 37.04,-33.42 53.79,-50.29 10.03,55.81 20.87,117.13 32.28,181.05 -50.29,16.55 -112.38,57.75 -153.11,131.73 -46.36,85.98 -44.51,158.34 -34.96,203.76 12.31,58.4 45.4,107.4 90.61,134.97 12.22,7.46 66.2,35.04 90.31,27.58 4.95,-1.3 8.39,-4.54 10.24,-8.76 6.73,-15.25 -6.71,-23.69 -26.99,-36.34 -7.96,-4.87 -16.76,-10.38 -26.16,-17.2 -43.56,-32.45 -62.51,-90.85 -48.43,-148.28 7.57,-31.15 24.32,-59.7 48.43,-82.09 21.7,-20.12 48.49,-34.39 79.53,-42.83 26.79,147.31 53.79,293.32 75.22,402.66 1.65,8.76 3.5,17.52 5.08,26.61 -57.22,12.01 -114.03,11.03 -169.24,-3.57zm148.22 -434.45c135.3,-6.17 191.08,91.17 202.75,154.44 6.11,33.1 6.11,91.17 -14.08,146.33 -15.31,41.53 -47.47,95.07 -114.7,122 -0.82,-5.52 -1.86,-11.36 -2.83,-16.87 -20.25,-114.86 -45.59,-258.6 -71.14,-405.9zm-95.9 -928.29c23.29,-74.95 59.08,-117.46 85.24,-140.17 22.95,-19.79 44.36,-29.2 56.47,-29.2 1.78,0 3.42,0.32 4.68,0.97 6.1,1.62 13.04,9.09 19.21,20.44 30.23,56.13 20.41,144.06 2.82,202.14 -21.22,70.73 -59.47,144.06 -174.52,269.63 -2.27,-14.6 -4.32,-28.23 -6.34,-40.89 -16.33,-108.37 -12.08,-203.76 12.44,-282.93z"/>
   <path class="fil0" d="M9505.79 1643.07c-7.76,-50.94 -39.23,-99.61 -105.87,-99.61 -65.44,0 -103.41,40.56 -109.96,48.67l5.29 -420.18c0,-10.39 -7.75,-18.17 -18.4,-18.17l-15.51 0c-10.68,0 -18.43,7.79 -18.43,18.17l6.52 786.49c0,10.38 7.76,18.17 18.43,18.17 2.47,0 7.76,-1.3 10.45,-2.59 5.06,-2.6 90.11,-44.45 160.84,-124.27 49.67,-56.46 69.3,-120.38 69.3,-173.91 0,-11.68 -1.23,-22.39 -2.66,-32.77zm-90.14 50.94c0,19.79 -5.35,79.82 -38.06,129.79 -22.26,33.74 -66.61,69.11 -91.53,88.9l3.89 -255.35c2.63,-11.68 22.26,-49.64 74.6,-49.64 47.18,0 51.1,44.45 51.1,72.03l0 14.28z"/>
   <path class="fil0" d="M9178.77 988.96c-7.76,-50.94 -39.3,-99.29 -105.92,-99.29 -65.39,0 -103.45,40.23 -109.96,48.35l5.29 -420.18c0,-10.38 -7.77,-18.17 -18.34,-18.17l-15.59 0c-10.57,0 -18.34,7.79 -18.34,18.17l6.51 786.49c0,10.38 7.78,18.17 18.42,18.17 2.41,0 7.77,-1.3 10.38,-2.59 5.15,-2.6 90.18,-44.45 160.84,-124.27 49.74,-56.46 69.34,-120.38 69.34,-173.91 0,-11.68 -1.27,-22.39 -2.63,-32.77zm-90.2 50.94c0,19.79 -5.27,79.82 -37.97,129.79 -22.32,33.74 -66.63,69.11 -91.64,88.9l3.93 -255.03c2.68,-12 22.25,-49.96 74.59,-49.96 47.26,0 51.09,44.45 51.09,72.03l0 14.28z"/>
   <path class="fil0" d="M8851.69 1479.54c-7.77,-50.94 -39.23,-99.61 -105.92,-99.61 -65.37,0 -103.37,40.56 -109.96,48.67l5.36 -420.18c0,-10.38 -7.76,-18.17 -18.42,-18.17l-15.53 0c-10.64,0 -18.39,7.79 -18.39,18.17l6.52 786.49c0,10.38 7.75,18.17 18.4,18.17 2.46,0 7.76,-1.3 10.43,-2.6 5.08,-2.6 90.12,-44.45 160.87,-124.27 49.64,-56.46 69.29,-120.38 69.29,-173.91 0,-11.68 -1.23,-22.39 -2.67,-32.77zm-90.12 50.94c0,19.79 -5.36,79.82 -38.05,129.79 -22.26,33.74 -66.64,69.11 -91.56,88.9l3.84 -255.36c2.69,-11.68 22.32,-49.64 74.68,-49.64 47.17,0 51.09,44.45 51.09,72.03l0 14.28z"/>
   <path class="fil0" d="M8524.6 825.43c-7.76,-50.94 -39.21,-99.28 -105.83,-99.28 -65.4,0 -103.45,40.23 -109.98,48.34l5.3 -420.18c0,-10.38 -7.77,-18.17 -18.42,-18.17l-15.52 0c-10.65,0 -18.41,7.79 -18.41,18.17l6.59 786.49c0,10.38 7.76,18.17 18.34,18.17 2.48,0 7.76,-1.3 10.45,-2.6 5.14,-2.6 90.19,-44.45 160.85,-124.27 49.65,-56.46 69.31,-120.38 69.31,-173.91 0,-11.68 -1.24,-22.39 -2.69,-32.77zm-90.12 50.94c0,19.79 -5.29,79.81 -37.98,129.78 -22.31,33.74 -66.69,69.11 -91.62,88.9l3.91 -255.35c2.61,-11.68 22.24,-49.64 74.59,-49.64 47.2,0 51.1,44.45 51.1,72.03l0 14.28z"/>
   <path class="fil0" d="M8197.6 1316.01c-7.78,-50.94 -39.3,-99.29 -105.93,-99.29 -65.38,0 -103.43,40.23 -109.96,48.34l5.36 -420.18c0,-10.38 -7.82,-18.17 -18.4,-18.17l-15.53 0c-10.65,0 -18.42,7.79 -18.42,18.17l6.53 786.49c0,10.39 7.77,18.17 18.4,18.17 2.41,0 7.77,-1.3 10.44,-2.6 5.08,-2.6 90.12,-44.45 160.88,-124.27 49.65,-56.46 69.3,-120.38 69.3,-173.91 0,-11.68 -1.25,-22.06 -2.68,-32.77zm-90.19 50.94c0,19.79 -5.3,79.81 -37.98,129.78 -22.26,33.74 -66.65,69.11 -91.55,88.9l3.83 -255.35c2.69,-11.68 22.33,-49.64 74.59,-49.64 47.26,0 51.11,44.45 51.11,72.03l0 14.28z"/>
   <path class="fil0" d="M7870.51 661.9c-7.74,-50.94 -39.2,-99.61 -105.84,-99.61 -65.45,0 -103.43,40.56 -109.95,48.67l5.27 -420.18c0,-10.38 -7.76,-18.17 -18.42,-18.17l-15.5 0c-10.66,0 -18.42,7.79 -18.42,18.17l6.53 786.5c0,10.38 7.76,18.17 18.4,18.17 2.47,0 7.76,-1.3 10.45,-2.6 5.08,-2.6 90.13,-44.45 160.86,-124.27 49.66,-56.46 69.29,-120.38 69.29,-173.91 0,-11.68 -1.23,-22.38 -2.68,-32.77zm-90.11 50.94c0,19.79 -5.36,79.82 -38.05,129.78 -22.25,33.75 -66.62,69.11 -91.56,88.9l3.93 -255.35c2.6,-11.68 22.24,-49.64 74.59,-49.64 47.17,0 51.09,44.45 51.09,72.03l0 14.28z"/>
   <path class="fil0" d="M7543.5 1152.48c-7.76,-50.94 -39.29,-99.29 -105.91,-99.29 -65.4,0 -103.45,40.23 -109.97,48.35l5.3 -420.18c0,-10.38 -7.77,-18.17 -18.34,-18.17l-15.6 0c-10.56,0 -18.34,7.79 -18.34,18.17l6.53 786.5c0,10.38 7.77,18.17 18.42,18.17 2.41,0 7.77,-1.3 10.36,-2.6 5.16,-2.59 90.19,-44.45 160.86,-124.27 49.73,-56.45 69.31,-120.37 69.31,-174.24 0,-11.35 -1.25,-22.06 -2.61,-32.44zm-90.19 50.94c0,19.79 -5.27,79.82 -37.99,129.79 -22.3,33.74 -66.62,69.11 -91.62,88.9l3.92 -255.35c2.67,-11.68 22.26,-49.64 74.6,-49.64 47.26,0 51.09,44.45 51.09,72.03l0 14.28z"/>
  </g>
  <g>
   <g>
    <polygon class="fil0" points="4546.64,4544.57 -0,4544.57 -0,4508.56 4546.64,4508.56 "/>
   </g>
   <g>
    <polygon class="fil0" points="4546.64,4871.65 -0,4871.65 -0,4835.64 4546.64,4835.64 "/>
   </g>
   <g>
    <polygon class="fil0" points="4546.64,5198.65 -0,5198.65 -0,5162.64 4546.64,5162.64 "/>
   </g>
   <g>
    <polygon class="fil0" points="4546.64,5525.77 -0,5525.77 -0,5489.76 4546.64,5489.76 "/>
   </g>
   <g>
    <polygon class="fil0" points="4546.64,5852.86 -0,5852.86 -0,5816.85 4546.64,5816.85 "/>
   </g>
   <path class="fil0" d="M593.99 4525.36c-99.53,0 -179.26,57.46 -180.71,57.46 -75.82,56.2 -105.83,123.04 -117.72,168.85 -6.53,23.49 -9.01,46.98 -9.01,69.3 0,31.44 5.16,60.09 16.97,85.01 15.72,35.36 45.81,60.12 85.03,73.16 15.73,5.29 32.69,7.98 49.65,7.98 28.86,0 58.87,-7.98 83.88,-22.25 40.44,-22.36 65.37,-69.31 65.37,-120.44 0,-45.78 -23.69,-87.7 -62.99,-112.43 -27.39,-18.4 -53.5,-23.49 -75.82,-23.49 -15.73,0 -30.02,2.46 -41.9,6.52 -13.04,5.09 -35.16,18.2 -45.81,27.42 4.12,-24.92 19.64,-62.78 34.13,-83.78 14.34,-20.93 43.13,-47.08 65.46,-58.89 32.69,-18.2 74.59,-26.18 120.39,-26.18 133.46,0 198.86,107.3 198.86,327.02 0,121.84 -45.76,238.15 -85.05,315.41 -43.33,86.27 -100.76,168.85 -151.86,214.63 -136.14,124.27 -264.3,183.19 -265.53,183.19 0,0 -19.59,11.61 -14.51,31.28 4.07,13.04 15.74,15.71 23.7,15.71 1.23,0 5.16,-1.23 6.52,-1.23 1.26,0 150.5,-61.55 269.46,-154.54 66.83,-48.21 126.94,-100.55 179.28,-156.94 46.98,-50.91 87.62,-105.94 120.39,-160.87 57.42,-98.15 90.11,-200.13 90.11,-287.86 0,-108.53 -28.64,-198.83 -82.34,-262.85 -61.55,-73.36 -154.35,-111.19 -275.99,-111.19zm410.67 165.99c0,36.83 28.78,65.38 62.92,65.38 33.94,0 62.78,-28.55 62.78,-65.38 0,-36.63 -28.83,-66.65 -62.78,-66.65 -34.13,0 -62.92,30.02 -62.92,66.65zm0 323.16c0,36.6 28.78,66.84 62.92,66.84 33.94,0 62.78,-30.24 62.78,-66.84 0,-36.6 -28.83,-66.61 -62.78,-66.61 -34.13,0 -62.92,30.01 -62.92,66.61z"/>
   <path class="fil0" d="M3724.41 5369.12c7.95,-1.43 14.47,-10.55 14.47,-18.4l0 -77.26c0,-10.38 -7.95,-18.14 -18.33,-18.14l-2.66 0 -43.15 9.22 0 -195.1 -36.63 0 0 202.86 -116.48 23.46 0 -184.32 -36.6 0 0 192.31 -51.1 10.45c-7.76,1.23 -14.28,10.45 -14.28,18.2l0 78.45 0 -2.4c0,10.35 7.76,18.2 18.4,18.2l3.83 0 43.15 -9.22 0 215.8 -51.1 10.64c-7.76,1.27 -14.28,10.45 -14.28,18.2l0 75.83c0,10.65 7.76,18.43 18.4,18.43l3.83 0 43.15 -9.22 0 195 36.6 0 0 -202.76 116.48 -23.49 0 184.33 36.63 0 0 -192.31 49.67 -9.22c7.95,-1.2 14.47,-10.41 14.47,-18.17l0 -77.29c0,-10.45 -7.95,-18.2 -18.33,-18.2l-2.66 0 -43.15 8.99 0 -215.87 49.67 -9.02zm-202.79 257.59l0 -217.03 116.48 -23.59 0 215.89 -116.48 24.73z"/>
   <path class="fil0" d="M3397.39 4878.6c7.98,-1.43 14.47,-10.64 14.47,-18.43l0 -77.26c0,-10.45 -7.94,-18.2 -18.4,-18.2l-2.66 0 -43.12 9.22 0 -195 -36.56 0 0 202.76 -116.55 23.49 0 -184.36 -36.54 0 0 192.37 -51.09 10.38c-7.78,1.23 -14.37,10.45 -14.37,18.2l0 78.52 0 -2.5c0,10.45 7.77,18.2 18.42,18.2l3.91 0 43.13 -9.18 0 215.87 -51.09 10.67c-7.78,1.14 -14.37,10.35 -14.37,18.11l0 75.89c0,10.58 7.77,18.36 18.42,18.36l3.91 0 43.13 -9.15 0 195 36.54 0 0 -202.82 116.55 -23.49 0 184.42 36.56 0 0 -192.41 49.71 -9.21c7.98,-1.24 14.47,-10.45 14.47,-18.2l0 -77.26c0,-10.38 -7.94,-18.14 -18.4,-18.14l-2.66 0 -43.12 8.96 0 -215.83 49.71 -8.99zm-202.83 257.56l0 -217.1 116.55 -23.49 0 215.87 -116.55 24.72z"/>
   <path class="fil0" d="M3070.3 5532.68c7.98,-1.43 14.5,-10.64 14.5,-18.43l0 -77.22c0,-10.38 -7.96,-18.23 -18.4,-18.23l-2.63 0 -43.13 9.22 0 -195.01 -36.6 0 0 202.76 -116.49 23.56 0 -184.39 -36.61 0 0 192.34 -51.1 10.48c-7.75,1.14 -14.29,10.35 -14.29,18.1l0 78.52 0 -2.47c0,10.45 7.77,18.2 18.4,18.2l3.86 0 43.13 -9.22 0 215.87 -51.1 10.68c-7.75,1.23 -14.29,10.45 -14.29,18.2l0 75.83c0,10.64 7.77,18.4 18.4,18.4l3.86 0 43.13 -9.22 0 195 36.61 0 0 -202.76 116.49 -23.56 0 184.42 36.6 0 0 -192.37 49.66 -9.22c7.98,-1.17 14.5,-10.38 14.5,-18.13l0 -77.29c0,-10.42 -7.96,-18.2 -18.4,-18.2l-2.63 0 -43.13 9.02 0 -215.89 49.66 -8.99zm-202.75 257.56l0 -217.1 116.49 -23.49 0 215.87 -116.49 24.73z"/>
   <path class="fil0" d="M2743.23 5042.13c7.97,-1.46 14.56,-10.64 14.56,-18.4l0 -77.29c0,-10.45 -7.97,-18.2 -18.42,-18.2l-2.67 0 -43.13 9.22 0 -195 -36.61 0 0 202.76 -116.49 23.49 0 -184.36 -36.61 0 0 192.34 -51.11 10.45c-7.76,1.2 -14.28,10.42 -14.28,18.2l0 78.49 0 -2.47c0,10.45 7.76,18.2 18.41,18.2l3.9 0 43.08 -9.22 0 215.87 -51.11 10.61c-7.76,1.23 -14.28,10.42 -14.28,18.2l0 75.83c0,10.64 7.76,18.4 18.41,18.4l3.9 0 43.08 -9.18 0 194.97 36.61 0 0 -202.76 116.49 -23.49 0 184.36 36.61 0 0 -192.3 49.65 -9.22c7.97,-1.27 14.56,-10.45 14.56,-18.2l0 -77.29c0,-10.42 -7.97,-18.2 -18.42,-18.2l-2.67 0 -43.13 9.02 0 -215.84 49.65 -8.99zm-202.75 257.49l0 -217.03 116.49 -23.49 0 215.83 -116.49 24.69z"/>
   <path class="fil0" d="M2416.21 4551.51c7.97,-1.46 14.51,-10.58 14.51,-18.4l0 -77.29c0,-10.38 -7.98,-18.13 -18.42,-18.13l-2.61 0 -43.13 9.21 0 -195.07 -36.61 0 0 202.82 -116.49 23.49 0 -184.36 -36.6 0 0 192.34 -51.1 10.42c-7.77,1.27 -14.3,10.45 -14.3,18.2l0 78.45 0 -2.4c0,10.35 7.77,18.2 18.34,18.2l3.92 0 43.14 -9.22 0 215.83 -51.1 10.61c-7.77,1.27 -14.3,10.48 -14.3,18.2l0 75.86c0,10.64 7.77,18.4 18.34,18.4l3.92 0 43.14 -9.21 0 195 36.6 0 0 -202.76 116.49 -23.49 0 184.36 36.61 0 0 -192.31 49.65 -9.22c7.97,-1.23 14.51,-10.45 14.51,-18.2l0 -77.25c0,-10.45 -7.98,-18.2 -18.42,-18.2l-2.61 0 -43.13 8.99 0 -215.87 49.65 -9.02zm-202.75 257.56l0 -217.03 116.49 -23.56 0 215.87 -116.49 24.72z"/>
   <path class="fil0" d="M2089.15 5205.59c7.96,-1.37 14.48,-10.58 14.48,-18.33l0 -77.26c0,-10.45 -7.97,-18.2 -18.34,-18.2l-2.67 0 -43.13 9.19 0 -195 -36.62 0 0 202.79 -116.49 23.49 0 -184.36 -36.61 0 0 192.31 -51.09 10.41c-7.76,1.27 -14.29,10.45 -14.29,18.24l0 78.49 0 -2.47c0,10.45 7.76,18.2 18.42,18.2l3.82 0 43.13 -9.18 0 215.8 -51.09 10.64c-7.76,1.23 -14.29,10.45 -14.29,18.2l0 75.83c0,10.64 7.76,18.4 18.42,18.4l3.82 0 43.13 -9.19 0 194.97 36.61 0 0 -202.76 116.49 -23.46 0 184.36 36.62 0 0 -192.34 49.66 -9.18c7.96,-1.27 14.48,-10.48 14.48,-18.23l0 -77.26c0,-10.45 -7.97,-18.2 -18.34,-18.2l-2.67 0 -43.13 8.99 0 -215.86 49.66 -9.02zm-202.78 257.59l0 -217.07 116.49 -23.56 0 215.9 -116.49 24.72z"/>
   <path class="fil0" d="M1762.12 4715.04c7.96,-1.43 14.49,-10.64 14.49,-18.4l0 -77.25c0,-10.38 -7.96,-18.24 -18.42,-18.24l-2.66 0 -43.14 9.22 0 -195 -36.52 0 0 202.76 -116.56 23.59 0 -184.42 -36.54 0 0 192.37 -51.1 10.45c-7.77,1.17 -14.36,10.38 -14.36,18.14l0 78.49 0 -2.47c0,10.45 7.77,18.2 18.42,18.2l3.91 0 43.13 -9.21 0 215.89 -51.1 10.64c-7.77,1.23 -14.36,10.45 -14.36,18.2l0 75.83c0,10.64 7.77,18.4 18.42,18.4l3.91 0 43.13 -9.18 0 195 36.54 0 0 -202.76 116.56 -23.59 0 184.42 36.52 0 0 -192.37 49.73 -9.22c7.96,-1.17 14.49,-10.38 14.49,-18.14l0 -77.26c0,-10.45 -7.96,-18.2 -18.42,-18.2l-2.66 0 -43.14 8.99 0 -215.87 49.73 -9.02zm-202.82 257.59l0 -217.13 116.56 -23.49 0 215.89 -116.56 24.72z"/>
  </g>
  <g>
   <g>
    <polygon class="fil0" points="10401.51,4544.57 5854.87,4544.57 5854.87,4508.56 10401.51,4508.56 "/>
   </g>
   <g>
    <polygon class="fil0" points="10401.51,4871.56 5854.87,4871.56 5854.87,4835.55 10401.51,4835.55 "/>
   </g>
   <g>
    <polygon class="fil0" points="10401.51,5198.65 5854.87,5198.65 5854.87,5162.64 10401.51,5162.64 "/>
   </g>
   <g>
    <polygon class="fil0" points="10401.51,5525.64 5854.87,5525.64 5854.87,5489.63 10401.51,5489.63 "/>
   </g>
   <g>
    <polygon class="fil0" points="10401.51,5852.73 5854.87,5852.73 5854.87,5816.72 10401.51,5816.72 "/>
   </g>
   <path class="fil0" d="M6448.86 4525.33c-99.53,0 -179.26,57.4 -180.71,57.4 -75.82,56.19 -105.83,123.1 -117.72,168.85 -6.53,23.49 -9.01,47.05 -9.01,69.27 0,31.47 5.16,60.12 16.97,85.04 15.72,35.4 45.81,60.09 85.03,73.13 15.73,5.38 32.69,8.04 49.65,8.04 28.86,0 58.87,-8.04 83.88,-22.32 40.44,-22.25 65.37,-69.27 65.37,-120.41 0,-45.72 -23.69,-87.64 -62.99,-112.43 -27.39,-18.33 -53.5,-23.49 -75.82,-23.49 -15.73,0 -30.02,2.47 -41.9,6.52 -13.04,5.16 -35.16,18.2 -45.81,27.42 4.12,-24.92 19.64,-62.72 34.13,-83.81 14.34,-20.8 43.13,-46.98 65.46,-58.86 32.69,-18.2 74.59,-26.15 120.39,-26.15 133.46,0 198.86,107.27 198.86,327.06 0,121.77 -45.76,238.12 -85.05,315.41 -43.33,86.27 -100.76,168.85 -151.86,214.57 -136.14,124.33 -264.3,183.19 -265.53,183.19 0,0 -19.59,11.68 -14.51,31.25 4.07,13.14 15.74,15.74 23.7,15.74 1.23,0 5.16,-1.17 6.52,-1.17 1.26,0 150.5,-61.55 269.46,-154.54 66.83,-48.28 126.94,-100.55 179.28,-157.01 46.98,-50.91 87.62,-105.87 120.39,-160.87 57.42,-98.09 90.11,-200.09 90.11,-287.8 0,-108.53 -28.64,-198.89 -82.34,-262.84 -61.55,-73.43 -154.35,-111.19 -275.99,-111.19zm410.67 165.93c0,36.83 28.78,65.44 62.92,65.44 33.94,0 62.78,-28.61 62.78,-65.44 0,-36.53 -28.83,-66.64 -62.78,-66.64 -34.13,0 -62.92,30.11 -62.92,66.64zm0 323.17c0,36.6 28.78,66.84 62.92,66.84 33.94,0 62.78,-30.24 62.78,-66.84 0,-36.53 -28.83,-66.65 -62.78,-66.65 -34.13,0 -62.92,30.11 -62.92,66.65z"/>
   <path class="fil0" d="M9537.36 5894.82c-7.76,-50.87 -39.23,-99.32 -105.84,-99.32 -65.44,0 -103.44,40.46 -110.02,48.44l5.35 -420.08c0,-10.45 -7.76,-18.2 -18.4,-18.2l-15.54 0c-10.64,0 -18.4,7.76 -18.4,18.2l6.52 786.37c0,10.45 7.76,18.2 18.43,18.2 2.43,0 7.75,-1.23 10.41,-2.43 5.06,-2.73 90.11,-44.61 160.87,-124.3 49.64,-56.43 69.31,-120.38 69.31,-174.17 0,-11.68 -1.24,-22.03 -2.69,-32.71zm-90.11 51.13c0,19.63 -5.35,79.72 -38.06,129.59 -22.25,33.94 -66.61,69.31 -91.53,88.9l3.83 -255.12c2.66,-11.81 22.32,-49.67 74.65,-49.67 47.18,0 51.1,44.39 51.1,72l0 14.3z"/>
   <path class="fil0" d="M9210.31 5240.74c-7.76,-50.88 -39.23,-99.38 -105.87,-99.38 -65.37,0 -103.43,40.52 -109.95,48.5l5.29 -420.11c0,-10.45 -7.77,-18.17 -18.4,-18.17l-15.53 0c-10.65,0 -18.42,7.72 -18.42,18.17l6.6 786.4c0,10.38 7.78,18.2 18.34,18.2 2.47,0 7.82,-1.23 10.45,-2.47 5.14,-2.69 90.18,-44.58 160.84,-124.33 49.68,-56.39 69.31,-120.34 69.31,-174.11 0,-11.68 -1.23,-22.13 -2.66,-32.7zm-90.14 51.1c0,19.57 -5.29,79.69 -37.98,129.62 -22.32,33.94 -66.69,69.21 -91.64,88.87l3.93 -255.12c2.68,-11.84 22.26,-49.64 74.59,-49.64 47.27,0 51.09,44.39 51.09,71.93l0 14.34z"/>
   <path class="fil0" d="M8883.29 5731.29c-7.77,-50.9 -39.23,-99.32 -105.92,-99.32 -65.37,0 -103.45,40.46 -109.96,48.41l5.36 -420.05c0,-10.38 -7.76,-18.17 -18.42,-18.17l-15.53 0c-10.63,0 -18.4,7.79 -18.4,18.17l6.54 786.37c0,10.45 7.75,18.2 18.39,18.2 2.47,0 7.77,-1.24 10.45,-2.47 5.08,-2.63 90.11,-44.58 160.87,-124.27 49.64,-56.46 69.29,-120.38 69.29,-174.17 0,-11.61 -1.23,-22.07 -2.67,-32.71zm-90.18 51.1c0,19.66 -5.3,79.75 -37.98,129.62 -22.26,33.94 -66.63,69.31 -91.56,88.87l3.84 -255.09c2.69,-11.84 22.32,-49.67 74.6,-49.67 47.25,0 51.1,44.39 51.1,71.96l0 14.31z"/>
   <path class="fil0" d="M8556.2 5077.21c-7.76,-50.91 -39.22,-99.32 -105.83,-99.32 -65.46,0 -103.45,40.46 -109.98,48.41l5.27 -420.08c0,-10.42 -7.74,-18.2 -18.39,-18.2l-15.53 0c-10.65,0 -18.41,7.79 -18.41,18.2l6.52 786.39c0,10.45 7.76,18.2 18.41,18.2 2.49,0 7.76,-1.23 10.45,-2.46 5.08,-2.7 90.11,-44.61 160.85,-124.27 49.66,-56.46 69.3,-120.41 69.3,-174.21 0,-11.65 -1.23,-22.03 -2.67,-32.67zm-90.12 51.1c0,19.63 -5.3,79.72 -38.05,129.62 -22.26,33.9 -66.63,69.27 -91.56,88.87l3.91 -255.09c2.61,-11.84 22.24,-49.68 74.59,-49.68 47.19,0 51.1,44.39 51.1,71.97l0 14.31z"/>
   <path class="fil0" d="M8229.18 5567.76c-7.75,-50.91 -39.28,-99.35 -105.9,-99.35 -65.39,0 -103.44,40.46 -109.96,48.44l5.3 -419.98c0,-10.45 -7.79,-18.2 -18.34,-18.2l-15.6 0c-10.57,0 -18.34,7.76 -18.34,18.2l6.53 786.3c0,10.42 7.77,18.2 18.4,18.2 2.41,0 7.77,-1.27 10.38,-2.5 5.14,-2.6 90.18,-44.48 160.92,-124.24 49.67,-56.39 69.24,-120.41 69.24,-174.14 0,-11.68 -1.18,-22.1 -2.63,-32.74zm-90.16 51.1c0,19.63 -5.3,79.72 -38,129.59 -22.3,33.94 -66.63,69.34 -91.62,88.96l3.92 -255.09c2.67,-11.91 22.25,-49.74 74.59,-49.74 47.27,0 51.12,44.36 51.12,72l0 14.28z"/>
   <path class="fil0" d="M7902.12 4913.68c-7.76,-50.9 -39.24,-99.35 -105.86,-99.35 -65.45,0 -103.43,40.46 -110.02,48.44l5.35 -420.08c0,-10.38 -7.76,-18.14 -18.41,-18.14l-15.5 0c-10.66,0 -18.42,7.76 -18.42,18.14l6.52 786.36c0,10.45 7.76,18.2 18.4,18.2 2.47,0 7.76,-1.23 10.43,-2.47 5.08,-2.63 90.12,-44.58 160.88,-124.27 49.66,-56.45 69.29,-120.38 69.29,-174.17 0,-11.61 -1.23,-22.03 -2.67,-32.67zm-90.13 51.07c0,19.66 -5.36,79.75 -38.05,129.63 -22.25,33.94 -66.62,69.3 -91.56,88.87l3.85 -255.09c2.67,-11.81 22.32,-49.64 74.66,-49.64 47.18,0 51.09,44.35 51.09,71.96l0 14.28z"/>
   <path class="fil0" d="M7575.02 5404.3c-7.76,-50.91 -39.2,-99.38 -105.83,-99.38 -65.4,0 -103.44,40.43 -109.97,48.47l5.3 -420.08c0,-10.45 -7.77,-18.2 -18.4,-18.2l-15.53 0c-10.65,0 -18.42,7.75 -18.42,18.2l6.59 786.39c0,10.35 7.77,18.11 18.34,18.11 2.48,0 7.83,-1.17 10.44,-2.4 5.16,-2.66 90.19,-44.58 160.86,-124.3 49.65,-56.39 69.31,-120.44 69.31,-174.14 0,-11.68 -1.25,-22.1 -2.7,-32.67zm-90.12 51.1c0,19.56 -5.27,79.65 -37.97,129.52 -22.32,33.94 -66.7,69.31 -91.64,88.93l3.92 -255.09c2.67,-11.87 22.26,-49.64 74.6,-49.64 47.26,0 51.09,44.29 51.09,71.9l0 14.37z"/>
  </g>
  <g>
   <g>
    <polygon class="fil0" points="4546.64,8469.31 -0,8469.31 -0,8433.31 4546.64,8433.31 "/>
   </g>
   <g>
    <polygon class="fil0" points="4546.64,8796.4 -0,8796.4 -0,8760.4 4546.64,8760.4 "/>
   </g>
   <g>
    <polygon class="fil0" points="4546.64,9123.43 -0,9123.43 -0,9087.42 4546.64,9087.42 "/>
   </g>
   <g>
    <polygon class="fil0" points="4546.64,9450.52 -0,9450.52 -0,9414.51 4546.64,9414.51 "/>
   </g>
   <g>
    <polygon class="fil0" points="4546.64,9777.51 -0,9777.51 -0,9741.5 4546.64,9741.5 "/>
   </g>
   <path class="fil0" d="M372.83 8491.77l-94.23 0c-9.2,0 -16.97,7.98 -16.97,16.97l0 1190.64c0,9.22 7.77,16.97 16.97,16.97l94.23 0c9.22,0 16.96,-7.76 16.96,-16.97l0 -1190.64c0,-8.99 -7.74,-16.97 -16.96,-16.97zm470.99 665.99l-19.66 0c-30.01,0 -52.33,2.66 -103.23,33.91 0,0 -28.78,-57.4 -71.93,-87.47 43.14,-30.24 71.93,-87.64 71.93,-87.64 50.9,31.25 73.22,33.91 103.23,33.91l19.66 0c159.62,0 238.12,-147.82 238.12,-289.03 0,-183.19 -134.69,-286.6 -293.13,-286.6 -143.91,0 -204.01,71.96 -204.01,71.96 -23.5,28.78 -34.13,60.09 -34.13,88.87 0,23.56 6.53,45.82 19.65,65.48 18.4,26.15 54.94,40.65 89.07,40.65 23.56,0 45.82,-6.52 61.55,-19.66 22.12,-19.63 36.6,-48.41 36.6,-79.88 0,-18.2 -5.34,-36.6 -14.48,-53.57 -20.87,-38.06 -60.1,-43.12 -80.97,-43.12 -7.98,0 -14.5,1.23 -14.5,1.23 30.02,-20.89 70.69,-32.71 111.21,-32.71 36.54,0 71.89,9.22 96.83,27.35 45.82,34.13 62.79,106.1 62.79,200.35 0,100.75 -2.69,247.11 -117.74,247.11 -115.09,0 -141.28,-137.35 -141.28,-137.35 0,0 0,-18.2 -18.34,-18.2 -18.2,0 -19.64,18.2 -19.64,18.2 0,0 -10.45,66.81 -45.81,148.02 -20.81,48.21 -52.35,70.47 -74.6,79.65l0 -570.5c0,-8.99 -6.53,-16.97 -15.72,-16.97 -9.01,0 -16.97,7.98 -16.97,16.97l0 1190.64c0,9.22 7.96,16.97 16.97,16.97 9.19,0 15.72,-7.76 15.72,-16.97l0 -570.47c22.25,9.22 53.79,31.51 74.6,79.95 35.36,80.98 45.81,149.06 45.81,149.06 0,0 1.45,16.94 19.64,16.94 18.34,0 18.34,-16.94 18.34,-16.94 0,0 26.19,-138.64 141.28,-138.64 115.06,0 117.74,146.59 117.74,247.37 0,94.03 -16.97,165.93 -62.79,200.06 -24.95,18.2 -60.29,27.41 -96.83,27.41 -40.53,0 -81.2,-11.68 -111.21,-32.7 0,0 6.51,1.43 14.5,1.43 20.87,0 60.1,-5.32 80.97,-43.31 9.14,-16.97 14.48,-35.17 14.48,-53.57 0,-31.47 -14.48,-60.09 -36.6,-79.75 -15.73,-13.08 -37.99,-19.57 -61.55,-19.57 -34.13,0 -70.67,14.28 -89.07,40.43 -13.12,19.66 -19.65,41.92 -19.65,65.41 0,28.84 10.64,60.09 34.13,88.93 0,0 60.1,71.9 204.01,71.9 158.44,0 293.13,-103.15 293.13,-286.34 0,-141.43 -78.49,-289.22 -238.12,-289.22z"/>
   <path class="fil0" d="M3675.97 9130.34c7.98,-1.43 14.5,-10.58 14.5,-18.43l0 -77.26c0,-10.35 -7.98,-18.1 -18.4,-18.1l-2.63 0 -43.12 9.18 0 -195.07 -36.6 0 0 202.82 -116.51 23.49 0 -184.36 -36.6 0 0 192.31 -51.1 10.45c-7.79,1.27 -14.28,10.48 -14.28,18.2l0 78.45 0 -2.4c0,10.38 7.76,18.2 18.33,18.2l3.89 0 43.15 -9.22 0 215.83 -51.1 10.64c-7.79,1.24 -14.28,10.45 -14.28,18.2l0 75.83c0,10.65 7.76,18.4 18.33,18.4l3.89 0 43.15 -9.21 0 195 36.6 0 0 -202.76 116.51 -23.49 0 184.36 36.6 0 0 -192.31 49.64 -9.22c7.98,-1.23 14.5,-10.41 14.5,-18.2l0 -77.25c0,-10.45 -7.98,-18.2 -18.4,-18.2l-2.63 0 -43.12 8.99 0 -215.89 49.64 -8.99zm-202.76 257.59l0 -217.07 116.51 -23.56 0 215.87 -116.51 24.76z"/>
   <path class="fil0" d="M3348.88 8639.79c7.98,-1.43 14.5,-10.64 14.5,-18.4l0 -77.29c0,-10.42 -7.95,-18.2 -18.33,-18.2l-2.69 0 -43.12 9.22 0 -195 -36.6 0 0 202.75 -116.5 23.49 0 -184.32 -36.6 0 0 192.37 -51.1 10.38c-7.77,1.23 -14.29,10.42 -14.29,18.2l0 78.49 0 -2.47c0,10.45 7.77,18.2 18.4,18.2l3.86 0 43.13 -9.22 0 215.87 -51.1 10.68c-7.77,1.17 -14.29,10.38 -14.29,18.1l0 75.93c0,10.58 7.77,18.33 18.4,18.33l3.86 0 43.13 -9.12 0 195.01 36.6 0 0 -202.82 116.5 -23.53 0 184.42 36.6 0 0 -192.4 49.64 -9.18c7.98,-1.24 14.5,-10.45 14.5,-18.2l0 -77.29c0,-10.35 -7.95,-18.14 -18.33,-18.14l-2.69 0 -43.12 8.95 0 -215.83 49.64 -8.99zm-202.75 257.59l0 -217.13 116.5 -23.49 0 215.87 -116.5 24.76z"/>
   <path class="fil0" d="M3021.9 9293.87c7.95,-1.43 14.48,-10.64 14.48,-18.4l0 -77.25c0,-10.38 -7.97,-18.2 -18.42,-18.2l-2.67 0 -43.14 9.22 0 -195.04 -36.54 0 0 202.76 -116.57 23.56 0 -184.39 -36.53 0 0 192.37 -51.09 10.45c-7.76,1.17 -14.35,10.38 -14.35,18.14l0 78.49 0 -2.47c0,10.45 7.76,18.2 18.4,18.2l3.9 0 43.13 -9.18 0 215.87 -51.09 10.64c-7.76,1.23 -14.35,10.45 -14.35,18.2l0 75.83c0,10.64 7.76,18.43 18.4,18.43l3.9 0 43.13 -9.22 0 195 36.53 0 0 -202.76 116.57 -23.56 0 184.39 36.54 0 0 -192.37 49.75 -9.22c7.95,-1.17 14.48,-10.38 14.48,-18.14l0 -77.26c0,-10.45 -7.97,-18.2 -18.42,-18.2l-2.67 0 -43.14 8.99 0 -215.87 49.75 -9.02zm-202.86 257.59l0 -217.1 116.57 -23.52 0 215.89 -116.57 24.72z"/>
   <path class="fil0" d="M2694.8 8803.35c7.97,-1.46 14.5,-10.68 14.5,-18.43l0 -77.26c0,-10.45 -7.97,-18.2 -18.42,-18.2l-2.6 0 -43.14 9.18 0 -194.97 -36.6 0 0 202.76 -116.49 23.49 0 -184.36 -36.6 0 0 192.31 -51.1 10.45c-7.77,1.23 -14.29,10.41 -14.29,18.2l0 78.52 0 -2.5c0,10.45 7.76,18.2 18.41,18.2l3.84 0 43.14 -9.19 0 215.87 -51.1 10.58c-7.77,1.24 -14.29,10.45 -14.29,18.2l0 75.83c0,10.65 7.76,18.4 18.41,18.4l3.84 0 43.14 -9.18 0 195 36.6 0 0 -202.79 116.49 -23.46 0 184.36 36.6 0 0 -192.34 49.66 -9.18c7.97,-1.27 14.5,-10.48 14.5,-18.2l0 -77.29c0,-10.45 -7.97,-18.2 -18.42,-18.2l-2.6 0 -43.14 8.99 0 -215.8 49.66 -8.99zm-202.75 257.49l0 -217.07 116.49 -23.49 0 215.83 -116.49 24.73z"/>
   <path class="fil0" d="M2367.72 8312.7c7.98,-1.43 14.57,-10.55 14.57,-18.4l0 -77.26c0,-10.38 -7.98,-18.14 -18.4,-18.14l-2.7 0 -43.13 9.19 0 -195.07 -36.6 0 0 202.82 -116.49 23.52 0 -184.36 -36.61 0 0 192.31 -51.09 10.45c-7.76,1.23 -14.3,10.45 -14.3,18.2l0 78.42 0 -2.4c0,10.38 7.77,18.2 18.41,18.2l3.93 0 43.05 -9.22 0 215.84 -51.09 10.64c-7.76,1.23 -14.3,10.45 -14.3,18.2l0 75.83c0,10.64 7.77,18.43 18.41,18.43l3.93 0 43.05 -9.21 0 194.97 36.61 0 0 -202.72 116.49 -23.49 0 184.32 36.6 0 0 -192.31 49.66 -9.21c7.98,-1.24 14.57,-10.42 14.57,-18.2l0 -77.26c0,-10.45 -7.98,-18.2 -18.4,-18.2l-2.7 0 -43.13 8.99 0 -215.86 49.66 -9.02zm-202.75 257.59l0 -217.03 116.49 -23.56 0 215.87 -116.49 24.72z"/>
   <path class="fil0" d="M2040.72 8966.78c7.96,-1.36 14.48,-10.54 14.48,-18.33l0 -77.25c0,-10.45 -7.96,-18.2 -18.41,-18.2l-2.6 0 -43.13 9.22 0 -195.04 -36.6 0 0 202.79 -116.5 23.49 0 -184.36 -36.6 0 0 192.34 -51.12 10.41c-7.76,1.24 -14.28,10.45 -14.28,18.2l0 78.52 0 -2.47c0,10.45 7.76,18.2 18.34,18.2l3.9 0 43.16 -9.22 0 215.8 -51.12 10.64c-7.76,1.27 -14.28,10.45 -14.28,18.24l0 75.79c0,10.68 7.76,18.43 18.34,18.43l3.9 0 43.16 -9.22 0 195 36.6 0 0 -202.76 116.5 -23.49 0 184.36 36.6 0 0 -192.34 49.66 -9.19c7.96,-1.23 14.48,-10.45 14.48,-18.2l0 -77.29c0,-10.45 -7.96,-18.2 -18.41,-18.2l-2.6 0 -43.13 8.99 0 -215.87 49.66 -9.02zm-202.77 257.59l0 -217.04 116.5 -23.59 0 215.89 -116.5 24.73z"/>
   <path class="fil0" d="M1713.64 8476.26c7.96,-1.43 14.48,-10.64 14.48,-18.4l0 -77.29c0,-10.38 -7.97,-18.2 -18.33,-18.2l-2.69 0 -43.13 9.22 0 -195 -36.61 0 0 202.76 -116.49 23.56 0 -184.42 -36.6 0 0 192.37 -51.1 10.45c-7.77,1.17 -14.3,10.38 -14.3,18.14l0 78.52 0 -2.5c0,10.45 7.77,18.23 18.42,18.23l3.86 0 43.13 -9.22 0 215.9 -51.1 10.61c-7.77,1.27 -14.3,10.45 -14.3,18.2l0 75.86c0,10.61 7.77,18.4 18.42,18.4l3.86 0 43.13 -9.22 0 195 36.6 0 0 -202.76 116.49 -23.56 0 184.42 36.61 0 0 -192.4 49.66 -9.22c7.96,-1.14 14.48,-10.35 14.48,-18.1l0 -77.29c0,-10.42 -7.97,-18.2 -18.33,-18.2l-2.69 0 -43.13 9.02 0 -215.9 49.66 -8.99zm-202.76 257.56l0 -217.1 116.49 -23.49 0 215.86 -116.49 24.73z"/>
  </g>
  <g>
   <g>
    <polygon class="fil0" points="10401.51,8469.31 5854.87,8469.31 5854.87,8433.31 10401.51,8433.31 "/>
   </g>
   <g>
    <polygon class="fil0" points="10401.51,8796.4 5854.87,8796.4 5854.87,8760.39 10401.51,8760.39 "/>
   </g>
   <g>
    <polygon class="fil0" points="10401.51,9123.46 5854.87,9123.46 5854.87,9087.45 10401.51,9087.45 "/>
   </g>
   <g>
    <polygon class="fil0" points="10401.51,9450.48 5854.87,9450.48 5854.87,9414.48 10401.51,9414.48 "/>
   </g>
   <g>
    <polygon class="fil0" points="10401.51,9777.57 5854.87,9777.57 5854.87,9741.57 10401.51,9741.57 "/>
   </g>
   <path class="fil0" d="M6227.69 8491.83l-94.23 0c-9.2,0 -16.97,7.98 -16.97,16.97l0 1190.64c0,9.22 7.77,17 16.97,17l94.23 0c9.22,0 16.96,-7.79 16.96,-17l0 -1190.64c0,-8.99 -7.74,-16.97 -16.96,-16.97zm470.99 665.92l-19.66 0c-30.01,0 -52.33,2.66 -103.23,33.91 0,0 -28.78,-57.4 -71.93,-87.41 43.14,-30.3 71.93,-87.73 71.93,-87.73 50.9,31.28 73.22,33.94 103.23,33.94l19.66 0c159.62,0 238.12,-147.79 238.12,-289.03 0,-183.16 -134.69,-286.56 -293.13,-286.56 -143.91,0 -204.01,71.93 -204.01,71.93 -23.5,28.85 -34.13,60.09 -34.13,88.93 0,23.49 6.53,45.75 19.65,65.38 18.4,26.19 54.94,40.66 89.07,40.66 23.56,0 45.82,-6.52 61.55,-19.56 22.12,-19.63 36.6,-48.51 36.6,-79.95 0,-18.2 -5.34,-36.6 -14.48,-53.57 -20.87,-37.99 -60.1,-43.15 -80.97,-43.15 -7.98,0 -14.5,1.26 -14.5,1.26 30.02,-20.83 70.69,-32.7 111.21,-32.7 36.54,0 71.89,9.21 96.83,27.41 45.82,34.14 62.79,106.04 62.79,200.26 0,100.78 -2.69,247.14 -117.74,247.14 -115.09,0 -141.28,-137.34 -141.28,-137.34 0,0 0,-18.17 -18.34,-18.17 -18.2,0 -19.64,18.17 -19.64,18.17 0,0 -10.45,66.87 -45.81,148.02 -20.81,48.21 -52.35,70.5 -74.6,79.72l0 -570.5c0,-8.99 -6.53,-16.97 -15.72,-16.97 -9.01,0 -16.97,7.98 -16.97,16.97l0 1190.64c0,9.22 7.96,17 16.97,17 9.19,0 15.72,-7.79 15.72,-17l0 -570.47c22.25,9.19 53.79,31.44 74.6,79.88 35.36,80.96 45.81,149.06 45.81,149.06 0,0 1.45,16.94 19.64,16.94 18.34,0 18.34,-16.94 18.34,-16.94 0,0 26.19,-138.61 141.28,-138.61 115.06,0 117.74,146.56 117.74,247.31 0,94.03 -16.97,166.03 -62.79,200.16 -24.95,18.2 -60.29,27.35 -96.83,27.35 -40.53,0 -81.2,-11.65 -111.21,-32.71 0,0 6.51,1.43 14.5,1.43 20.87,0 60.1,-5.29 80.97,-43.34 9.14,-16.94 14.48,-35.17 14.48,-53.51 0,-31.51 -14.48,-60.06 -36.6,-79.72 -15.73,-13.14 -37.99,-19.66 -61.55,-19.66 -34.13,0 -70.67,14.37 -89.07,40.46 -13.12,19.66 -19.65,41.98 -19.65,65.47 0,28.75 10.64,60.09 34.13,88.87 0,0 60.1,72 204.01,72 158.44,0 293.13,-103.24 293.13,-286.37 0,-141.5 -78.49,-289.29 -238.12,-289.29z"/>
   <path class="fil0" d="M9488.95 9656.13c-7.76,-50.91 -39.29,-99.32 -105.9,-99.32 -65.38,0 -103.44,40.46 -109.96,48.41l5.26 -420.08c0,-10.42 -7.76,-18.2 -18.33,-18.2l-15.58 0c-10.58,0 -18.33,7.79 -18.33,18.2l6.49 786.39c0,10.42 7.79,18.2 18.43,18.2 2.4,0 7.76,-1.23 10.38,-2.5 5.16,-2.66 90.17,-44.55 160.9,-124.23 49.68,-56.46 69.24,-120.41 69.24,-174.17 0,-11.68 -1.17,-22.07 -2.6,-32.71zm-90.2 51.1c0,19.63 -5.29,79.75 -37.96,129.59 -22.32,33.97 -66.65,69.31 -91.63,88.9l3.92 -255.09c2.66,-11.81 22.22,-49.68 74.6,-49.68 47.24,0 51.07,44.39 51.07,71.97l0 14.31z"/>
   <path class="fil0" d="M9161.86 9002.05c-7.76,-50.91 -39.23,-99.39 -105.84,-99.39 -65.46,0 -103.43,40.5 -110.02,48.48l5.36 -420.08c0,-10.45 -7.78,-18.2 -18.42,-18.2l-15.53 0c-10.63,0 -18.4,7.76 -18.4,18.2l6.51 786.4c0,10.35 7.77,18.2 18.42,18.2 2.47,0 7.77,-1.23 10.45,-2.5 5.08,-2.66 90.11,-44.58 160.86,-124.3 49.64,-56.39 69.3,-120.34 69.3,-174.14 0,-11.65 -1.23,-22.1 -2.69,-32.67zm-90.11 51.1c0,19.57 -5.35,79.66 -38.05,129.59 -22.24,33.94 -66.63,69.24 -91.56,88.87l3.86 -255.09c2.66,-11.88 22.32,-49.64 74.65,-49.64 47.2,0 51.1,44.39 51.1,71.9l0 14.37z"/>
   <path class="fil0" d="M8834.79 9492.6c-7.77,-50.9 -39.22,-99.35 -105.85,-99.35 -65.37,0 -103.42,40.46 -109.96,48.44l5.29 -420.08c0,-10.35 -7.75,-18.14 -18.4,-18.14l-15.52 0c-10.65,0 -18.4,7.79 -18.4,18.14l6.59 786.36c0,10.45 7.76,18.2 18.34,18.2 2.46,0 7.83,-1.23 10.43,-2.47 5.15,-2.59 90.18,-44.54 160.86,-124.27 49.66,-56.45 69.31,-120.37 69.31,-174.17 0,-11.58 -1.23,-22.06 -2.68,-32.67zm-90.11 51.1c0,19.63 -5.3,79.72 -37.99,129.59 -22.33,33.94 -66.69,69.3 -91.62,88.9l3.9 -255.12c2.69,-11.81 22.25,-49.64 74.6,-49.64 47.25,0 51.1,44.35 51.1,71.96l0 14.31z"/>
   <path class="fil0" d="M8507.77 8838.49c-7.76,-50.87 -39.28,-99.32 -105.9,-99.32 -65.39,0 -103.44,40.46 -109.96,48.44l5.36 -420.11c0,-10.42 -7.77,-18.2 -18.41,-18.2l-15.53 0c-10.66,0 -18.41,7.79 -18.41,18.2l6.52 786.4c0,10.45 7.77,18.2 18.4,18.2 2.49,0 7.76,-1.24 10.45,-2.5 5.08,-2.66 90.11,-44.55 160.86,-124.24 49.66,-56.46 69.32,-120.41 69.32,-174.17 0,-11.68 -1.25,-22.06 -2.7,-32.71zm-90.18 51.1c0,19.66 -5.28,79.75 -37.99,129.62 -22.24,33.94 -66.63,69.31 -91.56,88.87l3.85 -255.09c2.67,-11.81 22.32,-49.67 74.59,-49.67 47.27,0 51.1,44.39 51.1,72l0 14.28z"/>
   <path class="fil0" d="M8180.7 9329.04c-7.77,-50.91 -39.23,-99.32 -105.84,-99.32 -65.46,0 -103.45,40.46 -109.98,48.41l5.3 -419.98c0,-10.45 -7.76,-18.23 -18.41,-18.23l-15.53 0c-10.64,0 -18.41,7.79 -18.41,18.23l6.54 786.3c0,10.45 7.76,18.2 18.39,18.2 2.48,0 7.77,-1.23 10.44,-2.46 5.08,-2.63 90.12,-44.52 160.87,-124.24 49.66,-56.39 69.3,-120.44 69.3,-174.14 0,-11.68 -1.23,-22.13 -2.68,-32.77zm-90.12 51.1c0,19.66 -5.36,79.75 -38.05,129.62 -22.26,33.94 -66.62,69.31 -91.56,88.93l3.9 -255.09c2.63,-11.91 22.27,-49.74 74.59,-49.74 47.2,0 51.11,44.39 51.11,71.99l0 14.28z"/>
   <path class="fil0" d="M7853.69 8674.96c-7.76,-50.91 -39.29,-99.32 -105.91,-99.32 -65.4,0 -103.45,40.46 -109.97,48.41l5.28 -420.08c0,-10.35 -7.76,-18.14 -18.34,-18.14l-15.59 0c-10.58,0 -18.34,7.79 -18.34,18.14l6.52 786.4c0,10.45 7.76,18.17 18.42,18.17 2.38,0 7.76,-1.24 10.37,-2.44 5.16,-2.63 90.18,-44.58 160.92,-124.27 49.66,-56.46 69.23,-120.41 69.23,-174.2 0,-11.58 -1.15,-22.03 -2.6,-32.67zm-90.19 51.1c0,19.63 -5.29,79.72 -37.99,129.62 -22.32,33.91 -66.62,69.28 -91.63,88.87l3.92 -255.09c2.68,-11.84 22.24,-49.67 74.6,-49.67 47.24,0 51.09,44.39 51.09,71.97l0 14.3z"/>
   <path class="fil0" d="M7526.6 9165.58c-7.76,-50.9 -39.21,-99.38 -105.84,-99.38 -65.46,0 -103.45,40.43 -110.04,48.48l5.36 -420.05c0,-10.45 -7.77,-18.2 -18.4,-18.2l-15.53 0c-10.65,0 -18.42,7.75 -18.42,18.2l6.53 786.37c0,10.35 7.77,18.14 18.4,18.14 2.49,0 7.78,-1.17 10.46,-2.4 5.08,-2.69 90.11,-44.58 160.85,-124.33 49.67,-56.39 69.31,-120.41 69.31,-174.11 0,-11.71 -1.26,-22.13 -2.69,-32.71zm-90.13 51.1c0,19.6 -5.34,79.69 -38.05,129.53 -22.24,33.94 -66.62,69.3 -91.56,88.96l3.85 -255.09c2.67,-11.91 22.33,-49.67 74.66,-49.67 47.19,0 51.09,44.32 51.09,71.93l0 14.34z"/>
  </g>
  <g>
   <g>
    <polygon class="fil0" points="4546.64,12393.97 -0,12393.97 -0,12357.96 4546.64,12357.96 "/>
   </g>
   <g>
    <polygon class="fil0" points="4546.64,12720.96 -0,12720.96 -0,12684.95 4546.64,12684.95 "/>
   </g>
   <g>
    <polygon class="fil0" points="4546.64,13048.08 -0,13048.08 -0,13012.08 4546.64,13012.08 "/>
   </g>
   <g>
    <polygon class="fil0" points="4546.64,13375.14 -0,13375.14 -0,13339.13 4546.64,13339.13 "/>
   </g>
   <g>
    <polygon class="fil0" points="4546.64,13702.16 -0,13702.16 -0,13666.16 4546.64,13666.16 "/>
   </g>
   <path class="fil0" d="M372.83 12089.33l-94.23 0c-9.2,0 -16.97,8.05 -16.97,16.97l0 1190.74c0,9.22 7.77,16.94 16.97,16.94l94.23 0c9.22,0 16.96,-7.72 16.96,-16.94l0 -1190.74c0,-8.92 -7.74,-16.97 -16.96,-16.97zm470.99 665.99l-19.66 0c-30.01,0 -52.33,2.66 -103.23,33.94 0,0 -28.78,-57.43 -71.93,-87.44 43.14,-30.3 71.93,-87.7 71.93,-87.7 50.9,31.25 73.22,33.9 103.23,33.9l19.66 0c159.62,0 238.12,-147.79 238.12,-289.03 0,-183.19 -134.69,-286.63 -293.13,-286.63 -143.91,0 -204.01,72 -204.01,72 -23.5,28.84 -34.13,60.09 -34.13,88.93 0,23.49 6.53,45.75 19.65,65.41 18.4,26.19 54.94,40.66 89.07,40.66 23.56,0 45.82,-6.52 61.55,-19.63 22.12,-19.6 36.6,-48.44 36.6,-79.88 0,-18.24 -5.34,-36.63 -14.48,-53.6 -20.87,-37.96 -60.1,-43.12 -80.97,-43.12 -7.98,0 -14.5,1.24 -14.5,1.24 30.02,-20.89 70.69,-32.67 111.21,-32.67 36.54,0 71.89,9.18 96.83,27.38 45.82,34.13 62.79,106.03 62.79,200.29 0,100.74 -2.69,247.11 -117.74,247.11 -115.09,0 -141.28,-137.35 -141.28,-137.35 0,0 0,-18.2 -18.34,-18.2 -18.2,0 -19.64,18.2 -19.64,18.2 0,0 -10.45,66.84 -45.81,148.02 -20.81,48.22 -52.35,70.54 -74.6,79.65l0 -570.5c0,-8.92 -6.53,-16.97 -15.72,-16.97 -9.01,0 -16.97,8.05 -16.97,16.97l0 1190.74c0,9.22 7.96,16.94 16.97,16.94 9.19,0 15.72,-7.72 15.72,-16.94l0 -570.5c22.25,9.18 53.79,31.44 74.6,79.88 35.36,80.98 45.81,149.06 45.81,149.06 0,0 1.45,16.94 19.64,16.94 18.34,0 18.34,-16.94 18.34,-16.94 0,0 26.19,-138.64 141.28,-138.64 115.06,0 117.74,146.59 117.74,247.34 0,94.06 -16.97,166.03 -62.79,200.16 -24.95,18.13 -60.29,27.35 -96.83,27.35 -40.53,0 -81.2,-11.61 -111.21,-32.71 0,0 6.51,1.46 14.5,1.46 20.87,0 60.1,-5.29 80.97,-43.35 9.14,-16.97 14.48,-35.17 14.48,-53.57 0,-31.47 -14.48,-60.09 -36.6,-79.69 -15.73,-13.11 -37.99,-19.66 -61.55,-19.66 -34.13,0 -70.67,14.31 -89.07,40.46 -13.12,19.63 -19.65,41.92 -19.65,65.47 0,28.78 10.64,60.09 34.13,88.87 0,0 60.1,71.97 204.01,71.97 158.44,0 293.13,-103.21 293.13,-286.4 0,-141.43 -78.49,-289.22 -238.12,-289.22z"/>
   <path class="fil0" d="M3675.97 12727.91c7.98,-1.36 14.5,-10.58 14.5,-18.33l0 -77.25c0,-10.45 -7.98,-18.2 -18.4,-18.2l-2.63 0 -43.12 9.18 0 -195 -36.6 0 0 202.79 -116.51 23.49 0 -184.36 -36.6 0 0 192.31 -51.1 10.42c-7.79,1.27 -14.28,10.45 -14.28,18.23l0 78.49 0 -2.47c0,10.45 7.76,18.2 18.33,18.2l3.89 0 43.15 -9.18 0 215.8 -51.1 10.64c-7.79,1.23 -14.28,10.45 -14.28,18.2l0 75.83c0,10.64 7.76,18.4 18.33,18.4l3.89 0 43.15 -9.18 0 194.97 36.6 0 0 -202.75 116.51 -23.49 0 184.35 36.6 0 0 -192.3 49.64 -9.19c7.98,-1.26 14.5,-10.45 14.5,-18.23l0 -77.26c0,-10.45 -7.98,-18.2 -18.4,-18.2l-2.63 0 -43.12 8.99 0 -215.9 49.64 -8.99zm-202.76 257.59l0 -217.06 116.51 -23.56 0 215.89 -116.51 24.72z"/>
   <path class="fil0" d="M3348.88 12237.36c7.98,-1.43 14.5,-10.61 14.5,-18.4l0 -77.26c0,-10.38 -7.95,-18.23 -18.33,-18.23l-2.69 0 -43.12 9.21 0 -195 -36.6 0 0 202.76 -116.5 23.56 0 -184.39 -36.6 0 0 192.37 -51.1 10.45c-7.77,1.17 -14.29,10.38 -14.29,18.14l0 78.48 0 -2.46c0,10.45 7.77,18.2 18.4,18.2l3.86 0 43.13 -9.22 0 215.87 -51.1 10.67c-7.77,1.24 -14.29,10.45 -14.29,18.2l0 75.83c0,10.65 7.77,18.4 18.4,18.4l3.86 0 43.13 -9.18 0 194.97 36.6 0 0 -202.76 116.5 -23.56 0 184.42 36.6 0 0 -192.37 49.64 -9.22c7.98,-1.17 14.5,-10.38 14.5,-18.14l0 -77.29c0,-10.41 -7.95,-18.2 -18.33,-18.2l-2.69 0 -43.12 9.02 0 -215.87 49.64 -9.02zm-202.75 257.55l0 -217.1 116.5 -23.49 0 215.89 -116.5 24.69z"/>
   <path class="fil0" d="M3021.9 12891.44c7.95,-1.43 14.48,-10.55 14.48,-18.4l0 -77.26c0,-10.38 -7.97,-18.13 -18.42,-18.13l-2.67 0 -43.14 9.18 0 -195.07 -36.54 0 0 202.85 -116.57 23.49 0 -184.36 -36.53 0 0 192.31 -51.09 10.45c-7.76,1.23 -14.35,10.45 -14.35,18.2l0 78.42 0 -2.37c0,10.35 7.76,18.2 18.4,18.2l3.9 0 43.13 -9.22 0 215.8 -51.09 10.64c-7.76,1.27 -14.35,10.45 -14.35,18.2l0 75.83c0,10.64 7.76,18.43 18.4,18.43l3.9 0 43.13 -9.21 0 195 36.53 0 0 -202.76 116.57 -23.49 0 184.32 36.54 0 0 -192.31 49.75 -9.21c7.95,-1.24 14.48,-10.42 14.48,-18.2l0 -77.26c0,-10.45 -7.97,-18.2 -18.42,-18.2l-2.67 0 -43.14 8.99 0 -215.86 49.75 -9.02zm-202.86 257.59l0 -217.03 116.57 -23.59 0 215.87 -116.57 24.76z"/>
   <path class="fil0" d="M2694.8 12400.92c7.97,-1.46 14.5,-10.68 14.5,-18.43l0 -77.25c0,-10.45 -7.97,-18.2 -18.42,-18.2l-2.6 0 -43.14 9.22 0 -195.01 -36.6 0 0 202.76 -116.49 23.49 0 -184.36 -36.6 0 0 192.37 -51.1 10.38c-7.77,1.24 -14.29,10.45 -14.29,18.2l0 78.52 0 -2.5c0,10.45 7.76,18.2 18.41,18.2l3.84 0 43.14 -9.18 0 215.87 -51.1 10.68c-7.77,1.13 -14.29,10.35 -14.29,18.1l0 75.89c0,10.58 7.76,18.33 18.41,18.33l3.84 0 43.14 -9.12 0 195 36.6 0 0 -202.82 116.49 -23.49 0 184.42 36.6 0 0 -192.4 49.66 -9.22c7.97,-1.23 14.5,-10.45 14.5,-18.17l0 -77.29c0,-10.38 -7.97,-18.13 -18.42,-18.13l-2.6 0 -43.14 8.92 0 -215.8 49.66 -8.99zm-202.75 257.56l0 -217.1 116.49 -23.49 0 215.87 -116.49 24.73z"/>
   <path class="fil0" d="M2367.72 13055c7.98,-1.46 14.57,-10.64 14.57,-18.4l0 -77.25c0,-10.38 -7.98,-18.24 -18.4,-18.24l-2.7 0 -43.13 9.22 0 -195 -36.6 0 0 202.76 -116.49 23.56 0 -184.42 -36.61 0 0 192.37 -51.09 10.48c-7.76,1.14 -14.3,10.35 -14.3,18.11l0 78.52 0 -2.47c0,10.42 7.77,18.2 18.41,18.2l3.93 0 43.05 -9.21 0 215.86 -51.09 10.68c-7.76,1.2 -14.3,10.42 -14.3,18.17l0 75.86c0,10.64 7.77,18.4 18.41,18.4l3.93 0 43.05 -9.22 0 195 36.61 0 0 -202.76 116.49 -23.56 0 184.42 36.6 0 0 -192.37 49.66 -9.22c7.98,-1.17 14.57,-10.38 14.57,-18.14l0 -77.29c0,-10.42 -7.98,-18.2 -18.4,-18.2l-2.7 0 -43.13 9.02 0 -215.9 49.66 -8.99zm-202.75 257.56l0 -217.1 116.49 -23.49 0 215.87 -116.49 24.72z"/>
   <path class="fil0" d="M2040.72 12564.45c7.96,-1.46 14.48,-10.65 14.48,-18.4l0 -77.29c0,-10.45 -7.96,-18.2 -18.41,-18.2l-2.6 0 -43.13 9.21 0 -195 -36.6 0 0 202.76 -116.5 23.49 0 -184.36 -36.6 0 0 192.34 -51.12 10.41c-7.76,1.23 -14.28,10.45 -14.28,18.2l0 78.52 0 -2.46c0,10.45 7.76,18.2 18.34,18.2l3.9 0 43.16 -9.22 0 215.89 -51.12 10.58c-7.76,1.24 -14.28,10.42 -14.28,18.2l0 75.8c0,10.68 7.76,18.43 18.34,18.43l3.9 0 43.16 -9.21 0 195 36.6 0 0 -202.76 116.5 -23.49 0 184.36 36.6 0 0 -192.34 49.66 -9.18c7.96,-1.23 14.48,-10.45 14.48,-18.2l0 -77.29c0,-10.45 -7.96,-18.2 -18.41,-18.2l-2.6 0 -43.13 9.02 0 -215.83 49.66 -8.99zm-202.77 257.49l0 -217.03 116.5 -23.52 0 215.83 -116.5 24.72z"/>
   <path class="fil0" d="M1713.64 13218.56c7.96,-1.46 14.48,-10.67 14.48,-18.43l0 -77.29c0,-10.42 -7.97,-18.2 -18.33,-18.2l-2.69 0 -43.13 9.22 0 -195 -36.61 0 0 202.76 -116.49 23.49 0 -184.33 -36.6 0 0 192.37 -51.1 10.38c-7.77,1.23 -14.3,10.45 -14.3,18.2l0 78.49 0 -2.47c0,10.45 7.77,18.2 18.42,18.2l3.86 0 43.13 -9.18 0 215.87 -51.1 10.64c-7.77,1.17 -14.3,10.38 -14.3,18.14l0 75.89c0,10.58 7.77,18.33 18.42,18.33l3.86 0 43.13 -9.12 0 195 36.6 0 0 -202.86 116.49 -23.46 0 184.42 36.61 0 0 -192.44 49.66 -9.18c7.96,-1.24 14.48,-10.45 14.48,-18.2l0 -77.29c0,-10.35 -7.97,-18.11 -18.33,-18.11l-2.69 0 -43.13 8.92 0 -215.8 49.66 -8.99zm-202.76 257.53l0 -217.1 116.49 -23.46 0 215.87 -116.49 24.69z"/>
  </g>
  <g>
   <g>
    <polygon class="fil0" points="10401.51,12393.97 5854.87,12393.97 5854.87,12357.96 10401.51,12357.96 "/>
   </g>
   <g>
    <polygon class="fil0" points="10401.51,12721.03 5854.87,12721.03 5854.87,12685.02 10401.51,12685.02 "/>
   </g>
   <g>
    <polygon class="fil0" points="10401.51,13048.05 5854.87,13048.05 5854.87,13012.05 10401.51,13012.05 "/>
   </g>
   <g>
    <polygon class="fil0" points="10401.51,13375.14 5854.87,13375.14 5854.87,13339.14 10401.51,13339.14 "/>
   </g>
   <g>
    <polygon class="fil0" points="10401.51,13702.23 5854.87,13702.23 5854.87,13666.22 10401.51,13666.22 "/>
   </g>
   <path class="fil0" d="M6227.69 12089.4l-94.23 0c-9.2,0 -16.97,7.98 -16.97,16.97l0 1190.68c0,9.18 7.77,16.97 16.97,16.97l94.23 0c9.22,0 16.96,-7.79 16.96,-16.97l0 -1190.68c0,-8.99 -7.74,-16.97 -16.96,-16.97zm470.99 665.99l-19.66 0c-30.01,0 -52.33,2.6 -103.23,33.94 0,0 -28.78,-57.49 -71.93,-87.5 43.14,-30.3 71.93,-87.73 71.93,-87.73 50.9,31.34 73.22,33.94 103.23,33.94l19.66 0c159.62,0 238.12,-147.73 238.12,-289.03 0,-183.09 -134.69,-286.57 -293.13,-286.57 -143.91,0 -204.01,71.93 -204.01,71.93 -23.5,28.84 -34.13,60.09 -34.13,88.93 0,23.49 6.53,45.82 19.65,65.38 18.4,26.18 54.94,40.69 89.07,40.69 23.56,0 45.82,-6.52 61.55,-19.6 22.12,-19.63 36.6,-48.47 36.6,-79.91 0,-18.23 -5.34,-36.63 -14.48,-53.6 -20.87,-37.96 -60.1,-43.05 -80.97,-43.05 -7.98,0 -14.5,1.17 -14.5,1.17 30.02,-20.83 70.69,-32.71 111.21,-32.71 36.54,0 71.89,9.22 96.83,27.42 45.82,34.13 62.79,106.13 62.79,200.29 0,100.81 -2.69,247.11 -117.74,247.11 -115.09,0 -141.28,-137.28 -141.28,-137.28 0,0 0,-18.2 -18.34,-18.2 -18.2,0 -19.64,18.2 -19.64,18.2 0,0 -10.45,66.84 -45.81,147.96 -20.81,48.28 -52.35,70.54 -74.6,79.72l0 -570.5c0,-8.99 -6.53,-16.97 -15.72,-16.97 -9.01,0 -16.97,7.98 -16.97,16.97l0 1190.68c0,9.18 7.96,16.97 16.97,16.97 9.19,0 15.72,-7.79 15.72,-16.97l0 -570.5c22.25,9.22 53.79,31.44 74.6,79.95 35.36,80.89 45.81,148.99 45.81,148.99 0,0 1.45,16.97 19.64,16.97 18.34,0 18.34,-16.97 18.34,-16.97 0,0 26.19,-138.61 141.28,-138.61 115.06,0 117.74,146.56 117.74,247.31 0,94.03 -16.97,166.03 -62.79,200.16 -24.95,18.2 -60.29,27.42 -96.83,27.42 -40.53,0 -81.2,-11.68 -111.21,-32.71 0,0 6.51,1.4 14.5,1.4 20.87,0 60.1,-5.32 80.97,-43.35 9.14,-16.97 14.48,-35.11 14.48,-53.51 0,-31.54 -14.48,-60.09 -36.6,-79.75 -15.73,-13.08 -37.99,-19.66 -61.55,-19.66 -34.13,0 -70.67,14.37 -89.07,40.56 -13.12,19.56 -19.65,41.89 -19.65,65.38 0,28.81 10.64,60.09 34.13,88.93 0,0 60.1,71.93 204.01,71.93 158.44,0 293.13,-103.24 293.13,-286.37 0,-141.49 -78.49,-289.22 -238.12,-289.22z"/>
   <path class="fil0" d="M9488.95 13253.7c-7.76,-50.91 -39.29,-99.32 -105.9,-99.32 -65.38,0 -103.44,40.46 -109.96,48.41l5.26 -420.05c0,-10.38 -7.76,-18.17 -18.33,-18.17l-15.58 0c-10.58,0 -18.33,7.79 -18.33,18.17l6.49 786.36c0,10.45 7.79,18.2 18.43,18.2 2.4,0 7.76,-1.23 10.38,-2.47 5.16,-2.63 90.17,-44.58 160.9,-124.27 49.68,-56.45 69.24,-120.41 69.24,-174.17 0,-11.61 -1.17,-22.06 -2.6,-32.7zm-90.2 51.1c0,19.63 -5.29,79.75 -37.96,129.59 -22.32,33.97 -66.65,69.31 -91.63,88.9l3.92 -255.09c2.66,-11.81 22.22,-49.68 74.6,-49.68 47.24,0 51.07,44.39 51.07,71.97l0 14.3z"/>
   <path class="fil0" d="M9161.86 12599.61c-7.76,-50.9 -39.23,-99.32 -105.84,-99.32 -65.46,0 -103.43,40.43 -110.02,48.41l5.36 -420.08c0,-10.45 -7.78,-18.2 -18.42,-18.2l-15.53 0c-10.63,0 -18.4,7.76 -18.4,18.2l6.51 786.4c0,10.45 7.77,18.17 18.42,18.17 2.47,0 7.77,-1.2 10.45,-2.47 5.08,-2.66 90.11,-44.58 160.86,-124.23 49.64,-56.49 69.3,-120.41 69.3,-174.2 0,-11.65 -1.23,-22.04 -2.69,-32.68zm-90.11 51.1c0,19.63 -5.35,79.72 -38.05,129.59 -22.24,33.94 -66.63,69.3 -91.56,88.9l3.86 -255.12c2.66,-11.81 22.32,-49.64 74.65,-49.64 47.2,0 51.1,44.39 51.1,71.96l0 14.31z"/>
   <path class="fil0" d="M8834.79 13090.17c-7.77,-50.91 -39.22,-99.35 -105.85,-99.35 -65.37,0 -103.42,40.46 -109.96,48.44l5.29 -420.01c0,-10.42 -7.75,-18.2 -18.4,-18.2l-15.52 0c-10.65,0 -18.4,7.79 -18.4,18.2l6.59 786.3c0,10.45 7.76,18.23 18.34,18.23 2.46,0 7.83,-1.27 10.43,-2.5 5.15,-2.6 90.18,-44.48 160.86,-124.23 49.66,-56.39 69.31,-120.41 69.31,-174.14 0,-11.68 -1.23,-22.13 -2.68,-32.74zm-90.11 51.07c0,19.66 -5.3,79.75 -37.99,129.62 -22.33,33.94 -66.69,69.31 -91.62,88.97l3.9 -255.09c2.69,-11.91 22.25,-49.74 74.6,-49.74 47.25,0 51.1,44.36 51.1,71.97l0 14.28z"/>
   <path class="fil0" d="M8507.77 12436.05c-7.76,-50.87 -39.28,-99.32 -105.9,-99.32 -65.39,0 -103.44,40.46 -109.96,48.44l5.36 -420.08c0,-10.38 -7.77,-18.14 -18.41,-18.14l-15.53 0c-10.66,0 -18.41,7.76 -18.41,18.14l6.52 786.37c0,10.45 7.77,18.2 18.4,18.2 2.49,0 7.76,-1.23 10.45,-2.46 5.08,-2.63 90.11,-44.58 160.86,-124.27 49.66,-56.46 69.32,-120.38 69.32,-174.17 0,-11.62 -1.25,-22.07 -2.7,-32.71zm-90.18 51.1c0,19.66 -5.28,79.75 -37.99,129.62 -22.24,33.94 -66.63,69.31 -91.56,88.87l3.85 -255.09c2.67,-11.81 22.32,-49.64 74.59,-49.64 47.27,0 51.1,44.36 51.1,71.97l0 14.28z"/>
   <path class="fil0" d="M8180.7 12926.67c-7.77,-50.87 -39.23,-99.35 -105.84,-99.35 -65.46,0 -103.45,40.43 -109.98,48.48l5.3 -420.08c0,-10.45 -7.76,-18.2 -18.41,-18.2l-15.53 0c-10.64,0 -18.41,7.76 -18.41,18.2l6.54 786.4c0,10.35 7.76,18.1 18.39,18.1 2.48,0 7.77,-1.17 10.44,-2.4 5.08,-2.69 90.12,-44.58 160.87,-124.3 49.66,-56.39 69.3,-120.44 69.3,-174.14 0,-11.68 -1.23,-22.1 -2.68,-32.7zm-90.12 51.1c0,19.6 -5.36,79.69 -38.05,129.56 -22.26,33.9 -66.62,69.3 -91.56,88.93l3.9 -255.09c2.63,-11.91 22.27,-49.68 74.59,-49.68 47.2,0 51.11,44.32 51.11,71.93l0 14.34z"/>
   <path class="fil0" d="M7853.69 12272.53c-7.76,-50.9 -39.29,-99.32 -105.91,-99.32 -65.4,0 -103.45,40.46 -109.97,48.41l5.28 -420.02c0,-10.42 -7.76,-18.17 -18.34,-18.17l-15.59 0c-10.58,0 -18.34,7.75 -18.34,18.17l6.52 786.3c0,10.45 7.76,18.24 18.42,18.24 2.38,0 7.76,-1.27 10.37,-2.47 5.16,-2.63 90.18,-44.51 160.92,-124.27 49.66,-56.39 69.23,-120.41 69.23,-174.14 0,-11.65 -1.15,-22.1 -2.6,-32.74zm-90.19 51.1c0,19.63 -5.29,79.75 -37.99,129.62 -22.32,33.91 -66.62,69.31 -91.63,88.93l3.92 -255.09c2.68,-11.87 22.24,-49.74 74.6,-49.74 47.24,0 51.09,44.39 51.09,72l0 14.28z"/>
   <path class="fil0" d="M7526.6 12763.14c-7.76,-50.91 -39.21,-99.38 -105.84,-99.38 -65.46,0 -103.45,40.52 -110.04,48.47l5.36 -420.05c0,-10.45 -7.77,-18.2 -18.4,-18.2l-15.53 0c-10.65,0 -18.42,7.76 -18.42,18.2l6.53 786.37c0,10.38 7.77,18.2 18.4,18.2 2.49,0 7.78,-1.23 10.46,-2.46 5.08,-2.7 90.11,-44.58 160.85,-124.33 49.67,-56.39 69.31,-120.35 69.31,-174.11 0,-11.68 -1.26,-22.13 -2.69,-32.71zm-90.13 51.1c0,19.56 -5.34,79.68 -38.05,129.62 -22.24,33.9 -66.62,69.21 -91.56,88.87l3.85 -255.13c2.67,-11.84 22.33,-49.64 74.66,-49.64 47.19,0 51.09,44.39 51.09,71.93l0 14.34z"/>
  </g>
 </g>
</svg>
