<?xml version="1.0" encoding="UTF-8"?>
<svg xmlns="http://www.w3.org/2000/svg" width="1400" height="2200" viewBox="0 0 1400 2200">
  <defs>
    <style type="text/css"><![CDATA[
      @font-face {
        font-family: 'Bravura';
        font-style: normal;
        font-weight: 400;
        font-display: swap;
        src: url('https://cdn.jsdelivr.net/npm/@fontsource/bravura@5.2.5/files/bravura-latin-400-normal.woff2') format('woff2');
      }
    ]]></style>
  </defs>
  <rect width="100%" height="100%" fill="#fafafa"/>
  <text x="700" y="34" text-anchor="middle" font-family="Arial, sans-serif" font-size="24" font-weight="700" fill="#111">
    Key signatures by key (separate staves, treble + bass)
  </text>
  <text x="700" y="56" text-anchor="middle" font-family="Arial, sans-serif" font-size="13" fill="#444">
    Uses the same placement logic as public/reference/key-signature-6-standard.svg
  </text>

  <text x="40" y="96" font-family="Arial, sans-serif" font-size="18" font-weight="700" fill="#111">Sharp keys</text>

    <text x="40" y="146" font-family="Arial, sans-serif" font-size="15" font-weight="700" fill="#111">C</text>
    <text x="92" y="146" font-family="Arial, sans-serif" font-size="13" fill="#333">0</text>
    <text x="126" y="146" font-family="Arial, sans-serif" font-size="12" fill="#444">-</text>

    <line x1="250" y1="120" x2="790" y2="120" stroke="#111" stroke-width="1"/><line x1="250" y1="140" x2="790" y2="140" stroke="#111" stroke-width="1"/><line x1="250" y1="160" x2="790" y2="160" stroke="#111" stroke-width="1"/><line x1="250" y1="180" x2="790" y2="180" stroke="#111" stroke-width="1"/><line x1="250" y1="200" x2="790" y2="200" stroke="#111" stroke-width="1"/>
    <text x="260" y="162" font-family="Arial, sans-serif" font-size="12" fill="#444">treble</text>
    

    <line x1="840" y1="120" x2="1380" y2="120" stroke="#111" stroke-width="1"/><line x1="840" y1="140" x2="1380" y2="140" stroke="#111" stroke-width="1"/><line x1="840" y1="160" x2="1380" y2="160" stroke="#111" stroke-width="1"/><line x1="840" y1="180" x2="1380" y2="180" stroke="#111" stroke-width="1"/><line x1="840" y1="200" x2="1380" y2="200" stroke="#111" stroke-width="1"/>
    <text x="850" y="162" font-family="Arial, sans-serif" font-size="12" fill="#444">bass</text>
    
  
    <text x="40" y="262" font-family="Arial, sans-serif" font-size="15" font-weight="700" fill="#111">G</text>
    <text x="92" y="262" font-family="Arial, sans-serif" font-size="13" fill="#333">1</text>
    <text x="126" y="262" font-family="Arial, sans-serif" font-size="12" fill="#444">F#</text>

    <line x1="250" y1="236" x2="790" y2="236" stroke="#111" stroke-width="1"/><line x1="250" y1="256" x2="790" y2="256" stroke="#111" stroke-width="1"/><line x1="250" y1="276" x2="790" y2="276" stroke="#111" stroke-width="1"/><line x1="250" y1="296" x2="790" y2="296" stroke="#111" stroke-width="1"/><line x1="250" y1="316" x2="790" y2="316" stroke="#111" stroke-width="1"/>
    <text x="260" y="278" font-family="Arial, sans-serif" font-size="12" fill="#444">treble</text>
    <text x="440" y="230" text-anchor="middle" dominant-baseline="middle" font-family="Bravura, serif" font-size="52" fill="#111">&#xE262;</text>

    <line x1="840" y1="236" x2="1380" y2="236" stroke="#111" stroke-width="1"/><line x1="840" y1="256" x2="1380" y2="256" stroke="#111" stroke-width="1"/><line x1="840" y1="276" x2="1380" y2="276" stroke="#111" stroke-width="1"/><line x1="840" y1="296" x2="1380" y2="296" stroke="#111" stroke-width="1"/><line x1="840" y1="316" x2="1380" y2="316" stroke="#111" stroke-width="1"/>
    <text x="850" y="278" font-family="Arial, sans-serif" font-size="12" fill="#444">bass</text>
    <text x="1030" y="250" text-anchor="middle" dominant-baseline="middle" font-family="Bravura, serif" font-size="52" fill="#111">&#xE262;</text>
  
    <text x="40" y="378" font-family="Arial, sans-serif" font-size="15" font-weight="700" fill="#111">D</text>
    <text x="92" y="378" font-family="Arial, sans-serif" font-size="13" fill="#333">2</text>
    <text x="126" y="378" font-family="Arial, sans-serif" font-size="12" fill="#444">F#, C#</text>

    <line x1="250" y1="352" x2="790" y2="352" stroke="#111" stroke-width="1"/><line x1="250" y1="372" x2="790" y2="372" stroke="#111" stroke-width="1"/><line x1="250" y1="392" x2="790" y2="392" stroke="#111" stroke-width="1"/><line x1="250" y1="412" x2="790" y2="412" stroke="#111" stroke-width="1"/><line x1="250" y1="432" x2="790" y2="432" stroke="#111" stroke-width="1"/>
    <text x="260" y="394" font-family="Arial, sans-serif" font-size="12" fill="#444">treble</text>
    <text x="440" y="346" text-anchor="middle" dominant-baseline="middle" font-family="Bravura, serif" font-size="52" fill="#111">&#xE262;</text><text x="474" y="376" text-anchor="middle" dominant-baseline="middle" font-family="Bravura, serif" font-size="52" fill="#111">&#xE262;</text>

    <line x1="840" y1="352" x2="1380" y2="352" stroke="#111" stroke-width="1"/><line x1="840" y1="372" x2="1380" y2="372" stroke="#111" stroke-width="1"/><line x1="840" y1="392" x2="1380" y2="392" stroke="#111" stroke-width="1"/><line x1="840" y1="412" x2="1380" y2="412" stroke="#111" stroke-width="1"/><line x1="840" y1="432" x2="1380" y2="432" stroke="#111" stroke-width="1"/>
    <text x="850" y="394" font-family="Arial, sans-serif" font-size="12" fill="#444">bass</text>
    <text x="1030" y="366" text-anchor="middle" dominant-baseline="middle" font-family="Bravura, serif" font-size="52" fill="#111">&#xE262;</text><text x="1064" y="396" text-anchor="middle" dominant-baseline="middle" font-family="Bravura, serif" font-size="52" fill="#111">&#xE262;</text>
  
    <text x="40" y="494" font-family="Arial, sans-serif" font-size="15" font-weight="700" fill="#111">A</text>
    <text x="92" y="494" font-family="Arial, sans-serif" font-size="13" fill="#333">3</text>
    <text x="126" y="494" font-family="Arial, sans-serif" font-size="12" fill="#444">F#, C#, G#</text>

    <line x1="250" y1="468" x2="790" y2="468" stroke="#111" stroke-width="1"/><line x1="250" y1="488" x2="790" y2="488" stroke="#111" stroke-width="1"/><line x1="250" y1="508" x2="790" y2="508" stroke="#111" stroke-width="1"/><line x1="250" y1="528" x2="790" y2="528" stroke="#111" stroke-width="1"/><line x1="250" y1="548" x2="790" y2="548" stroke="#111" stroke-width="1"/>
    <text x="260" y="510" font-family="Arial, sans-serif" font-size="12" fill="#444">treble</text>
    <text x="440" y="462" text-anchor="middle" dominant-baseline="middle" font-family="Bravura, serif" font-size="52" fill="#111">&#xE262;</text><text x="474" y="492" text-anchor="middle" dominant-baseline="middle" font-family="Bravura, serif" font-size="52" fill="#111">&#xE262;</text><text x="508" y="454" text-anchor="middle" dominant-baseline="middle" font-family="Bravura, serif" font-size="52" fill="#111">&#xE262;</text>

    <line x1="840" y1="468" x2="1380" y2="468" stroke="#111" stroke-width="1"/><line x1="840" y1="488" x2="1380" y2="488" stroke="#111" stroke-width="1"/><line x1="840" y1="508" x2="1380" y2="508" stroke="#111" stroke-width="1"/><line x1="840" y1="528" x2="1380" y2="528" stroke="#111" stroke-width="1"/><line x1="840" y1="548" x2="1380" y2="548" stroke="#111" stroke-width="1"/>
    <text x="850" y="510" font-family="Arial, sans-serif" font-size="12" fill="#444">bass</text>
    <text x="1030" y="482" text-anchor="middle" dominant-baseline="middle" font-family="Bravura, serif" font-size="52" fill="#111">&#xE262;</text><text x="1064" y="512" text-anchor="middle" dominant-baseline="middle" font-family="Bravura, serif" font-size="52" fill="#111">&#xE262;</text><text x="1098" y="471" text-anchor="middle" dominant-baseline="middle" font-family="Bravura, serif" font-size="52" fill="#111">&#xE262;</text>
  
    <text x="40" y="610" font-family="Arial, sans-serif" font-size="15" font-weight="700" fill="#111">E</text>
    <text x="92" y="610" font-family="Arial, sans-serif" font-size="13" fill="#333">4</text>
    <text x="126" y="610" font-family="Arial, sans-serif" font-size="12" fill="#444">F#, C#, G#, D#</text>

    <line x1="250" y1="584" x2="790" y2="584" stroke="#111" stroke-width="1"/><line x1="250" y1="604" x2="790" y2="604" stroke="#111" stroke-width="1"/><line x1="250" y1="624" x2="790" y2="624" stroke="#111" stroke-width="1"/><line x1="250" y1="644" x2="790" y2="644" stroke="#111" stroke-width="1"/><line x1="250" y1="664" x2="790" y2="664" stroke="#111" stroke-width="1"/>
    <text x="260" y="626" font-family="Arial, sans-serif" font-size="12" fill="#444">treble</text>
    <text x="440" y="578" text-anchor="middle" dominant-baseline="middle" font-family="Bravura, serif" font-size="52" fill="#111">&#xE262;</text><text x="474" y="608" text-anchor="middle" dominant-baseline="middle" font-family="Bravura, serif" font-size="52" fill="#111">&#xE262;</text><text x="508" y="570" text-anchor="middle" dominant-baseline="middle" font-family="Bravura, serif" font-size="52" fill="#111">&#xE262;</text><text x="542" y="598" text-anchor="middle" dominant-baseline="middle" font-family="Bravura, serif" font-size="52" fill="#111">&#xE262;</text>

    <line x1="840" y1="584" x2="1380" y2="584" stroke="#111" stroke-width="1"/><line x1="840" y1="604" x2="1380" y2="604" stroke="#111" stroke-width="1"/><line x1="840" y1="624" x2="1380" y2="624" stroke="#111" stroke-width="1"/><line x1="840" y1="644" x2="1380" y2="644" stroke="#111" stroke-width="1"/><line x1="840" y1="664" x2="1380" y2="664" stroke="#111" stroke-width="1"/>
    <text x="850" y="626" font-family="Arial, sans-serif" font-size="12" fill="#444">bass</text>
    <text x="1030" y="598" text-anchor="middle" dominant-baseline="middle" font-family="Bravura, serif" font-size="52" fill="#111">&#xE262;</text><text x="1064" y="628" text-anchor="middle" dominant-baseline="middle" font-family="Bravura, serif" font-size="52" fill="#111">&#xE262;</text><text x="1098" y="587" text-anchor="middle" dominant-baseline="middle" font-family="Bravura, serif" font-size="52" fill="#111">&#xE262;</text><text x="1132" y="618" text-anchor="middle" dominant-baseline="middle" font-family="Bravura, serif" font-size="52" fill="#111">&#xE262;</text>
  
    <text x="40" y="726" font-family="Arial, sans-serif" font-size="15" font-weight="700" fill="#111">B</text>
    <text x="92" y="726" font-family="Arial, sans-serif" font-size="13" fill="#333">5</text>
    <text x="126" y="726" font-family="Arial, sans-serif" font-size="12" fill="#444">F#, C#, G#, D#, A#</text>

    <line x1="250" y1="700" x2="790" y2="700" stroke="#111" stroke-width="1"/><line x1="250" y1="720" x2="790" y2="720" stroke="#111" stroke-width="1"/><line x1="250" y1="740" x2="790" y2="740" stroke="#111" stroke-width="1"/><line x1="250" y1="760" x2="790" y2="760" stroke="#111" stroke-width="1"/><line x1="250" y1="780" x2="790" y2="780" stroke="#111" stroke-width="1"/>
    <text x="260" y="742" font-family="Arial, sans-serif" font-size="12" fill="#444">treble</text>
    <text x="440" y="694" text-anchor="middle" dominant-baseline="middle" font-family="Bravura, serif" font-size="52" fill="#111">&#xE262;</text><text x="474" y="724" text-anchor="middle" dominant-baseline="middle" font-family="Bravura, serif" font-size="52" fill="#111">&#xE262;</text><text x="508" y="686" text-anchor="middle" dominant-baseline="middle" font-family="Bravura, serif" font-size="52" fill="#111">&#xE262;</text><text x="542" y="714" text-anchor="middle" dominant-baseline="middle" font-family="Bravura, serif" font-size="52" fill="#111">&#xE262;</text><text x="576" y="744" text-anchor="middle" dominant-baseline="middle" font-family="Bravura, serif" font-size="52" fill="#111">&#xE262;</text>

    <line x1="840" y1="700" x2="1380" y2="700" stroke="#111" stroke-width="1"/><line x1="840" y1="720" x2="1380" y2="720" stroke="#111" stroke-width="1"/><line x1="840" y1="740" x2="1380" y2="740" stroke="#111" stroke-width="1"/><line x1="840" y1="760" x2="1380" y2="760" stroke="#111" stroke-width="1"/><line x1="840" y1="780" x2="1380" y2="780" stroke="#111" stroke-width="1"/>
    <text x="850" y="742" font-family="Arial, sans-serif" font-size="12" fill="#444">bass</text>
    <text x="1030" y="714" text-anchor="middle" dominant-baseline="middle" font-family="Bravura, serif" font-size="52" fill="#111">&#xE262;</text><text x="1064" y="744" text-anchor="middle" dominant-baseline="middle" font-family="Bravura, serif" font-size="52" fill="#111">&#xE262;</text><text x="1098" y="703" text-anchor="middle" dominant-baseline="middle" font-family="Bravura, serif" font-size="52" fill="#111">&#xE262;</text><text x="1132" y="734" text-anchor="middle" dominant-baseline="middle" font-family="Bravura, serif" font-size="52" fill="#111">&#xE262;</text><text x="1166" y="764" text-anchor="middle" dominant-baseline="middle" font-family="Bravura, serif" font-size="52" fill="#111">&#xE262;</text>
  
    <text x="40" y="842" font-family="Arial, sans-serif" font-size="15" font-weight="700" fill="#111">F#</text>
    <text x="92" y="842" font-family="Arial, sans-serif" font-size="13" fill="#333">6</text>
    <text x="126" y="842" font-family="Arial, sans-serif" font-size="12" fill="#444">F#, C#, G#, D#, A#, E#</text>

    <line x1="250" y1="816" x2="790" y2="816" stroke="#111" stroke-width="1"/><line x1="250" y1="836" x2="790" y2="836" stroke="#111" stroke-width="1"/><line x1="250" y1="856" x2="790" y2="856" stroke="#111" stroke-width="1"/><line x1="250" y1="876" x2="790" y2="876" stroke="#111" stroke-width="1"/><line x1="250" y1="896" x2="790" y2="896" stroke="#111" stroke-width="1"/>
    <text x="260" y="858" font-family="Arial, sans-serif" font-size="12" fill="#444">treble</text>
    <text x="440" y="810" text-anchor="middle" dominant-baseline="middle" font-family="Bravura, serif" font-size="52" fill="#111">&#xE262;</text><text x="474" y="840" text-anchor="middle" dominant-baseline="middle" font-family="Bravura, serif" font-size="52" fill="#111">&#xE262;</text><text x="508" y="802" text-anchor="middle" dominant-baseline="middle" font-family="Bravura, serif" font-size="52" fill="#111">&#xE262;</text><text x="542" y="830" text-anchor="middle" dominant-baseline="middle" font-family="Bravura, serif" font-size="52" fill="#111">&#xE262;</text><text x="576" y="860" text-anchor="middle" dominant-baseline="middle" font-family="Bravura, serif" font-size="52" fill="#111">&#xE262;</text><text x="610" y="820" text-anchor="middle" dominant-baseline="middle" font-family="Bravura, serif" font-size="52" fill="#111">&#xE262;</text>

    <line x1="840" y1="816" x2="1380" y2="816" stroke="#111" stroke-width="1"/><line x1="840" y1="836" x2="1380" y2="836" stroke="#111" stroke-width="1"/><line x1="840" y1="856" x2="1380" y2="856" stroke="#111" stroke-width="1"/><line x1="840" y1="876" x2="1380" y2="876" stroke="#111" stroke-width="1"/><line x1="840" y1="896" x2="1380" y2="896" stroke="#111" stroke-width="1"/>
    <text x="850" y="858" font-family="Arial, sans-serif" font-size="12" fill="#444">bass</text>
    <text x="1030" y="830" text-anchor="middle" dominant-baseline="middle" font-family="Bravura, serif" font-size="52" fill="#111">&#xE262;</text><text x="1064" y="860" text-anchor="middle" dominant-baseline="middle" font-family="Bravura, serif" font-size="52" fill="#111">&#xE262;</text><text x="1098" y="819" text-anchor="middle" dominant-baseline="middle" font-family="Bravura, serif" font-size="52" fill="#111">&#xE262;</text><text x="1132" y="850" text-anchor="middle" dominant-baseline="middle" font-family="Bravura, serif" font-size="52" fill="#111">&#xE262;</text><text x="1166" y="880" text-anchor="middle" dominant-baseline="middle" font-family="Bravura, serif" font-size="52" fill="#111">&#xE262;</text><text x="1200" y="840" text-anchor="middle" dominant-baseline="middle" font-family="Bravura, serif" font-size="52" fill="#111">&#xE262;</text>
  
    <text x="40" y="958" font-family="Arial, sans-serif" font-size="15" font-weight="700" fill="#111">C#</text>
    <text x="92" y="958" font-family="Arial, sans-serif" font-size="13" fill="#333">7</text>
    <text x="126" y="958" font-family="Arial, sans-serif" font-size="12" fill="#444">F#, C#, G#, D#, A#, E#, B#</text>

    <line x1="250" y1="932" x2="790" y2="932" stroke="#111" stroke-width="1"/><line x1="250" y1="952" x2="790" y2="952" stroke="#111" stroke-width="1"/><line x1="250" y1="972" x2="790" y2="972" stroke="#111" stroke-width="1"/><line x1="250" y1="992" x2="790" y2="992" stroke="#111" stroke-width="1"/><line x1="250" y1="1012" x2="790" y2="1012" stroke="#111" stroke-width="1"/>
    <text x="260" y="974" font-family="Arial, sans-serif" font-size="12" fill="#444">treble</text>
    <text x="440" y="926" text-anchor="middle" dominant-baseline="middle" font-family="Bravura, serif" font-size="52" fill="#111">&#xE262;</text><text x="474" y="956" text-anchor="middle" dominant-baseline="middle" font-family="Bravura, serif" font-size="52" fill="#111">&#xE262;</text><text x="508" y="918" text-anchor="middle" dominant-baseline="middle" font-family="Bravura, serif" font-size="52" fill="#111">&#xE262;</text><text x="542" y="946" text-anchor="middle" dominant-baseline="middle" font-family="Bravura, serif" font-size="52" fill="#111">&#xE262;</text><text x="576" y="976" text-anchor="middle" dominant-baseline="middle" font-family="Bravura, serif" font-size="52" fill="#111">&#xE262;</text><text x="610" y="936" text-anchor="middle" dominant-baseline="middle" font-family="Bravura, serif" font-size="52" fill="#111">&#xE262;</text><text x="644" y="966" text-anchor="middle" dominant-baseline="middle" font-family="Bravura, serif" font-size="52" fill="#111">&#xE262;</text>

    <line x1="840" y1="932" x2="1380" y2="932" stroke="#111" stroke-width="1"/><line x1="840" y1="952" x2="1380" y2="952" stroke="#111" stroke-width="1"/><line x1="840" y1="972" x2="1380" y2="972" stroke="#111" stroke-width="1"/><line x1="840" y1="992" x2="1380" y2="992" stroke="#111" stroke-width="1"/><line x1="840" y1="1012" x2="1380" y2="1012" stroke="#111" stroke-width="1"/>
    <text x="850" y="974" font-family="Arial, sans-serif" font-size="12" fill="#444">bass</text>
    <text x="1030" y="946" text-anchor="middle" dominant-baseline="middle" font-family="Bravura, serif" font-size="52" fill="#111">&#xE262;</text><text x="1064" y="976" text-anchor="middle" dominant-baseline="middle" font-family="Bravura, serif" font-size="52" fill="#111">&#xE262;</text><text x="1098" y="935" text-anchor="middle" dominant-baseline="middle" font-family="Bravura, serif" font-size="52" fill="#111">&#xE262;</text><text x="1132" y="966" text-anchor="middle" dominant-baseline="middle" font-family="Bravura, serif" font-size="52" fill="#111">&#xE262;</text><text x="1166" y="996" text-anchor="middle" dominant-baseline="middle" font-family="Bravura, serif" font-size="52" fill="#111">&#xE262;</text><text x="1200" y="956" text-anchor="middle" dominant-baseline="middle" font-family="Bravura, serif" font-size="52" fill="#111">&#xE262;</text><text x="1234" y="986" text-anchor="middle" dominant-baseline="middle" font-family="Bravura, serif" font-size="52" fill="#111">&#xE262;</text>
  <line x1="40" y1="1030" x2="1360" y2="1030" stroke="#d1d5db"/><text x="40" y="1064" font-family="Arial, sans-serif" font-size="18" font-weight="700" fill="#111">Flat keys</text>
    <text x="40" y="1114" font-family="Arial, sans-serif" font-size="15" font-weight="700" fill="#111">C</text>
    <text x="92" y="1114" font-family="Arial, sans-serif" font-size="13" fill="#333">0</text>
    <text x="126" y="1114" font-family="Arial, sans-serif" font-size="12" fill="#444">-</text>

    <line x1="250" y1="1088" x2="790" y2="1088" stroke="#111" stroke-width="1"/><line x1="250" y1="1108" x2="790" y2="1108" stroke="#111" stroke-width="1"/><line x1="250" y1="1128" x2="790" y2="1128" stroke="#111" stroke-width="1"/><line x1="250" y1="1148" x2="790" y2="1148" stroke="#111" stroke-width="1"/><line x1="250" y1="1168" x2="790" y2="1168" stroke="#111" stroke-width="1"/>
    <text x="260" y="1130" font-family="Arial, sans-serif" font-size="12" fill="#444">treble</text>
    

    <line x1="840" y1="1088" x2="1380" y2="1088" stroke="#111" stroke-width="1"/><line x1="840" y1="1108" x2="1380" y2="1108" stroke="#111" stroke-width="1"/><line x1="840" y1="1128" x2="1380" y2="1128" stroke="#111" stroke-width="1"/><line x1="840" y1="1148" x2="1380" y2="1148" stroke="#111" stroke-width="1"/><line x1="840" y1="1168" x2="1380" y2="1168" stroke="#111" stroke-width="1"/>
    <text x="850" y="1130" font-family="Arial, sans-serif" font-size="12" fill="#444">bass</text>
    
  
    <text x="40" y="1230" font-family="Arial, sans-serif" font-size="15" font-weight="700" fill="#111">F</text>
    <text x="92" y="1230" font-family="Arial, sans-serif" font-size="13" fill="#333">1</text>
    <text x="126" y="1230" font-family="Arial, sans-serif" font-size="12" fill="#444">Bb</text>

    <line x1="250" y1="1204" x2="790" y2="1204" stroke="#111" stroke-width="1"/><line x1="250" y1="1224" x2="790" y2="1224" stroke="#111" stroke-width="1"/><line x1="250" y1="1244" x2="790" y2="1244" stroke="#111" stroke-width="1"/><line x1="250" y1="1264" x2="790" y2="1264" stroke="#111" stroke-width="1"/><line x1="250" y1="1284" x2="790" y2="1284" stroke="#111" stroke-width="1"/>
    <text x="260" y="1246" font-family="Arial, sans-serif" font-size="12" fill="#444">treble</text>
    <text x="440" y="1244" text-anchor="middle" dominant-baseline="middle" font-family="Times New Roman, serif" font-size="30" fill="#111">&#9837;</text>

    <line x1="840" y1="1204" x2="1380" y2="1204" stroke="#111" stroke-width="1"/><line x1="840" y1="1224" x2="1380" y2="1224" stroke="#111" stroke-width="1"/><line x1="840" y1="1244" x2="1380" y2="1244" stroke="#111" stroke-width="1"/><line x1="840" y1="1264" x2="1380" y2="1264" stroke="#111" stroke-width="1"/><line x1="840" y1="1284" x2="1380" y2="1284" stroke="#111" stroke-width="1"/>
    <text x="850" y="1246" font-family="Arial, sans-serif" font-size="12" fill="#444">bass</text>
    <text x="1030" y="1264" text-anchor="middle" dominant-baseline="middle" font-family="Times New Roman, serif" font-size="30" fill="#111">&#9837;</text>
  
    <text x="40" y="1346" font-family="Arial, sans-serif" font-size="15" font-weight="700" fill="#111">Bb</text>
    <text x="92" y="1346" font-family="Arial, sans-serif" font-size="13" fill="#333">2</text>
    <text x="126" y="1346" font-family="Arial, sans-serif" font-size="12" fill="#444">Bb, Eb</text>

    <line x1="250" y1="1320" x2="790" y2="1320" stroke="#111" stroke-width="1"/><line x1="250" y1="1340" x2="790" y2="1340" stroke="#111" stroke-width="1"/><line x1="250" y1="1360" x2="790" y2="1360" stroke="#111" stroke-width="1"/><line x1="250" y1="1380" x2="790" y2="1380" stroke="#111" stroke-width="1"/><line x1="250" y1="1400" x2="790" y2="1400" stroke="#111" stroke-width="1"/>
    <text x="260" y="1362" font-family="Arial, sans-serif" font-size="12" fill="#444">treble</text>
    <text x="440" y="1360" text-anchor="middle" dominant-baseline="middle" font-family="Times New Roman, serif" font-size="30" fill="#111">&#9837;</text><text x="474" y="1330" text-anchor="middle" dominant-baseline="middle" font-family="Times New Roman, serif" font-size="30" fill="#111">&#9837;</text>

    <line x1="840" y1="1320" x2="1380" y2="1320" stroke="#111" stroke-width="1"/><line x1="840" y1="1340" x2="1380" y2="1340" stroke="#111" stroke-width="1"/><line x1="840" y1="1360" x2="1380" y2="1360" stroke="#111" stroke-width="1"/><line x1="840" y1="1380" x2="1380" y2="1380" stroke="#111" stroke-width="1"/><line x1="840" y1="1400" x2="1380" y2="1400" stroke="#111" stroke-width="1"/>
    <text x="850" y="1362" font-family="Arial, sans-serif" font-size="12" fill="#444">bass</text>
    <text x="1030" y="1380" text-anchor="middle" dominant-baseline="middle" font-family="Times New Roman, serif" font-size="30" fill="#111">&#9837;</text><text x="1064" y="1350" text-anchor="middle" dominant-baseline="middle" font-family="Times New Roman, serif" font-size="30" fill="#111">&#9837;</text>
  
    <text x="40" y="1462" font-family="Arial, sans-serif" font-size="15" font-weight="700" fill="#111">Eb</text>
    <text x="92" y="1462" font-family="Arial, sans-serif" font-size="13" fill="#333">3</text>
    <text x="126" y="1462" font-family="Arial, sans-serif" font-size="12" fill="#444">Bb, Eb, Ab</text>

    <line x1="250" y1="1436" x2="790" y2="1436" stroke="#111" stroke-width="1"/><line x1="250" y1="1456" x2="790" y2="1456" stroke="#111" stroke-width="1"/><line x1="250" y1="1476" x2="790" y2="1476" stroke="#111" stroke-width="1"/><line x1="250" y1="1496" x2="790" y2="1496" stroke="#111" stroke-width="1"/><line x1="250" y1="1516" x2="790" y2="1516" stroke="#111" stroke-width="1"/>
    <text x="260" y="1478" font-family="Arial, sans-serif" font-size="12" fill="#444">treble</text>
    <text x="440" y="1476" text-anchor="middle" dominant-baseline="middle" font-family="Times New Roman, serif" font-size="30" fill="#111">&#9837;</text><text x="474" y="1446" text-anchor="middle" dominant-baseline="middle" font-family="Times New Roman, serif" font-size="30" fill="#111">&#9837;</text><text x="508" y="1486" text-anchor="middle" dominant-baseline="middle" font-family="Times New Roman, serif" font-size="30" fill="#111">&#9837;</text>

    <line x1="840" y1="1436" x2="1380" y2="1436" stroke="#111" stroke-width="1"/><line x1="840" y1="1456" x2="1380" y2="1456" stroke="#111" stroke-width="1"/><line x1="840" y1="1476" x2="1380" y2="1476" stroke="#111" stroke-width="1"/><line x1="840" y1="1496" x2="1380" y2="1496" stroke="#111" stroke-width="1"/><line x1="840" y1="1516" x2="1380" y2="1516" stroke="#111" stroke-width="1"/>
    <text x="850" y="1478" font-family="Arial, sans-serif" font-size="12" fill="#444">bass</text>
    <text x="1030" y="1496" text-anchor="middle" dominant-baseline="middle" font-family="Times New Roman, serif" font-size="30" fill="#111">&#9837;</text><text x="1064" y="1466" text-anchor="middle" dominant-baseline="middle" font-family="Times New Roman, serif" font-size="30" fill="#111">&#9837;</text><text x="1098" y="1506" text-anchor="middle" dominant-baseline="middle" font-family="Times New Roman, serif" font-size="30" fill="#111">&#9837;</text>
  
    <text x="40" y="1578" font-family="Arial, sans-serif" font-size="15" font-weight="700" fill="#111">Ab</text>
    <text x="92" y="1578" font-family="Arial, sans-serif" font-size="13" fill="#333">4</text>
    <text x="126" y="1578" font-family="Arial, sans-serif" font-size="12" fill="#444">Bb, Eb, Ab, Db</text>

    <line x1="250" y1="1552" x2="790" y2="1552" stroke="#111" stroke-width="1"/><line x1="250" y1="1572" x2="790" y2="1572" stroke="#111" stroke-width="1"/><line x1="250" y1="1592" x2="790" y2="1592" stroke="#111" stroke-width="1"/><line x1="250" y1="1612" x2="790" y2="1612" stroke="#111" stroke-width="1"/><line x1="250" y1="1632" x2="790" y2="1632" stroke="#111" stroke-width="1"/>
    <text x="260" y="1594" font-family="Arial, sans-serif" font-size="12" fill="#444">treble</text>
    <text x="440" y="1592" text-anchor="middle" dominant-baseline="middle" font-family="Times New Roman, serif" font-size="30" fill="#111">&#9837;</text><text x="474" y="1562" text-anchor="middle" dominant-baseline="middle" font-family="Times New Roman, serif" font-size="30" fill="#111">&#9837;</text><text x="508" y="1602" text-anchor="middle" dominant-baseline="middle" font-family="Times New Roman, serif" font-size="30" fill="#111">&#9837;</text><text x="542" y="1572" text-anchor="middle" dominant-baseline="middle" font-family="Times New Roman, serif" font-size="30" fill="#111">&#9837;</text>

    <line x1="840" y1="1552" x2="1380" y2="1552" stroke="#111" stroke-width="1"/><line x1="840" y1="1572" x2="1380" y2="1572" stroke="#111" stroke-width="1"/><line x1="840" y1="1592" x2="1380" y2="1592" stroke="#111" stroke-width="1"/><line x1="840" y1="1612" x2="1380" y2="1612" stroke="#111" stroke-width="1"/><line x1="840" y1="1632" x2="1380" y2="1632" stroke="#111" stroke-width="1"/>
    <text x="850" y="1594" font-family="Arial, sans-serif" font-size="12" fill="#444">bass</text>
    <text x="1030" y="1612" text-anchor="middle" dominant-baseline="middle" font-family="Times New Roman, serif" font-size="30" fill="#111">&#9837;</text><text x="1064" y="1582" text-anchor="middle" dominant-baseline="middle" font-family="Times New Roman, serif" font-size="30" fill="#111">&#9837;</text><text x="1098" y="1622" text-anchor="middle" dominant-baseline="middle" font-family="Times New Roman, serif" font-size="30" fill="#111">&#9837;</text><text x="1132" y="1592" text-anchor="middle" dominant-baseline="middle" font-family="Times New Roman, serif" font-size="30" fill="#111">&#9837;</text>
  
    <text x="40" y="1694" font-family="Arial, sans-serif" font-size="15" font-weight="700" fill="#111">Db</text>
    <text x="92" y="1694" font-family="Arial, sans-serif" font-size="13" fill="#333">5</text>
    <text x="126" y="1694" font-family="Arial, sans-serif" font-size="12" fill="#444">Bb, Eb, Ab, Db, Gb</text>

    <line x1="250" y1="1668" x2="790" y2="1668" stroke="#111" stroke-width="1"/><line x1="250" y1="1688" x2="790" y2="1688" stroke="#111" stroke-width="1"/><line x1="250" y1="1708" x2="790" y2="1708" stroke="#111" stroke-width="1"/><line x1="250" y1="1728" x2="790" y2="1728" stroke="#111" stroke-width="1"/><line x1="250" y1="1748" x2="790" y2="1748" stroke="#111" stroke-width="1"/>
    <text x="260" y="1710" font-family="Arial, sans-serif" font-size="12" fill="#444">treble</text>
    <text x="440" y="1708" text-anchor="middle" dominant-baseline="middle" font-family="Times New Roman, serif" font-size="30" fill="#111">&#9837;</text><text x="474" y="1678" text-anchor="middle" dominant-baseline="middle" font-family="Times New Roman, serif" font-size="30" fill="#111">&#9837;</text><text x="508" y="1718" text-anchor="middle" dominant-baseline="middle" font-family="Times New Roman, serif" font-size="30" fill="#111">&#9837;</text><text x="542" y="1688" text-anchor="middle" dominant-baseline="middle" font-family="Times New Roman, serif" font-size="30" fill="#111">&#9837;</text><text x="576" y="1728" text-anchor="middle" dominant-baseline="middle" font-family="Times New Roman, serif" font-size="30" fill="#111">&#9837;</text>

    <line x1="840" y1="1668" x2="1380" y2="1668" stroke="#111" stroke-width="1"/><line x1="840" y1="1688" x2="1380" y2="1688" stroke="#111" stroke-width="1"/><line x1="840" y1="1708" x2="1380" y2="1708" stroke="#111" stroke-width="1"/><line x1="840" y1="1728" x2="1380" y2="1728" stroke="#111" stroke-width="1"/><line x1="840" y1="1748" x2="1380" y2="1748" stroke="#111" stroke-width="1"/>
    <text x="850" y="1710" font-family="Arial, sans-serif" font-size="12" fill="#444">bass</text>
    <text x="1030" y="1728" text-anchor="middle" dominant-baseline="middle" font-family="Times New Roman, serif" font-size="30" fill="#111">&#9837;</text><text x="1064" y="1698" text-anchor="middle" dominant-baseline="middle" font-family="Times New Roman, serif" font-size="30" fill="#111">&#9837;</text><text x="1098" y="1738" text-anchor="middle" dominant-baseline="middle" font-family="Times New Roman, serif" font-size="30" fill="#111">&#9837;</text><text x="1132" y="1708" text-anchor="middle" dominant-baseline="middle" font-family="Times New Roman, serif" font-size="30" fill="#111">&#9837;</text><text x="1166" y="1748" text-anchor="middle" dominant-baseline="middle" font-family="Times New Roman, serif" font-size="30" fill="#111">&#9837;</text>
  
    <text x="40" y="1810" font-family="Arial, sans-serif" font-size="15" font-weight="700" fill="#111">Gb</text>
    <text x="92" y="1810" font-family="Arial, sans-serif" font-size="13" fill="#333">6</text>
    <text x="126" y="1810" font-family="Arial, sans-serif" font-size="12" fill="#444">Bb, Eb, Ab, Db, Gb, Cb</text>

    <line x1="250" y1="1784" x2="790" y2="1784" stroke="#111" stroke-width="1"/><line x1="250" y1="1804" x2="790" y2="1804" stroke="#111" stroke-width="1"/><line x1="250" y1="1824" x2="790" y2="1824" stroke="#111" stroke-width="1"/><line x1="250" y1="1844" x2="790" y2="1844" stroke="#111" stroke-width="1"/><line x1="250" y1="1864" x2="790" y2="1864" stroke="#111" stroke-width="1"/>
    <text x="260" y="1826" font-family="Arial, sans-serif" font-size="12" fill="#444">treble</text>
    <text x="440" y="1824" text-anchor="middle" dominant-baseline="middle" font-family="Times New Roman, serif" font-size="30" fill="#111">&#9837;</text><text x="474" y="1794" text-anchor="middle" dominant-baseline="middle" font-family="Times New Roman, serif" font-size="30" fill="#111">&#9837;</text><text x="508" y="1834" text-anchor="middle" dominant-baseline="middle" font-family="Times New Roman, serif" font-size="30" fill="#111">&#9837;</text><text x="542" y="1804" text-anchor="middle" dominant-baseline="middle" font-family="Times New Roman, serif" font-size="30" fill="#111">&#9837;</text><text x="576" y="1844" text-anchor="middle" dominant-baseline="middle" font-family="Times New Roman, serif" font-size="30" fill="#111">&#9837;</text><text x="610" y="1814" text-anchor="middle" dominant-baseline="middle" font-family="Times New Roman, serif" font-size="30" fill="#111">&#9837;</text>

    <line x1="840" y1="1784" x2="1380" y2="1784" stroke="#111" stroke-width="1"/><line x1="840" y1="1804" x2="1380" y2="1804" stroke="#111" stroke-width="1"/><line x1="840" y1="1824" x2="1380" y2="1824" stroke="#111" stroke-width="1"/><line x1="840" y1="1844" x2="1380" y2="1844" stroke="#111" stroke-width="1"/><line x1="840" y1="1864" x2="1380" y2="1864" stroke="#111" stroke-width="1"/>
    <text x="850" y="1826" font-family="Arial, sans-serif" font-size="12" fill="#444">bass</text>
    <text x="1030" y="1844" text-anchor="middle" dominant-baseline="middle" font-family="Times New Roman, serif" font-size="30" fill="#111">&#9837;</text><text x="1064" y="1814" text-anchor="middle" dominant-baseline="middle" font-family="Times New Roman, serif" font-size="30" fill="#111">&#9837;</text><text x="1098" y="1854" text-anchor="middle" dominant-baseline="middle" font-family="Times New Roman, serif" font-size="30" fill="#111">&#9837;</text><text x="1132" y="1824" text-anchor="middle" dominant-baseline="middle" font-family="Times New Roman, serif" font-size="30" fill="#111">&#9837;</text><text x="1166" y="1864" text-anchor="middle" dominant-baseline="middle" font-family="Times New Roman, serif" font-size="30" fill="#111">&#9837;</text><text x="1200" y="1834" text-anchor="middle" dominant-baseline="middle" font-family="Times New Roman, serif" font-size="30" fill="#111">&#9837;</text>
  
    <text x="40" y="1926" font-family="Arial, sans-serif" font-size="15" font-weight="700" fill="#111">Cb</text>
    <text x="92" y="1926" font-family="Arial, sans-serif" font-size="13" fill="#333">7</text>
    <text x="126" y="1926" font-family="Arial, sans-serif" font-size="12" fill="#444">Bb, Eb, Ab, Db, Gb, Cb, Fb</text>

    <line x1="250" y1="1900" x2="790" y2="1900" stroke="#111" stroke-width="1"/><line x1="250" y1="1920" x2="790" y2="1920" stroke="#111" stroke-width="1"/><line x1="250" y1="1940" x2="790" y2="1940" stroke="#111" stroke-width="1"/><line x1="250" y1="1960" x2="790" y2="1960" stroke="#111" stroke-width="1"/><line x1="250" y1="1980" x2="790" y2="1980" stroke="#111" stroke-width="1"/>
    <text x="260" y="1942" font-family="Arial, sans-serif" font-size="12" fill="#444">treble</text>
    <text x="440" y="1940" text-anchor="middle" dominant-baseline="middle" font-family="Times New Roman, serif" font-size="30" fill="#111">&#9837;</text><text x="474" y="1910" text-anchor="middle" dominant-baseline="middle" font-family="Times New Roman, serif" font-size="30" fill="#111">&#9837;</text><text x="508" y="1950" text-anchor="middle" dominant-baseline="middle" font-family="Times New Roman, serif" font-size="30" fill="#111">&#9837;</text><text x="542" y="1920" text-anchor="middle" dominant-baseline="middle" font-family="Times New Roman, serif" font-size="30" fill="#111">&#9837;</text><text x="576" y="1960" text-anchor="middle" dominant-baseline="middle" font-family="Times New Roman, serif" font-size="30" fill="#111">&#9837;</text><text x="610" y="1930" text-anchor="middle" dominant-baseline="middle" font-family="Times New Roman, serif" font-size="30" fill="#111">&#9837;</text><text x="644" y="1970" text-anchor="middle" dominant-baseline="middle" font-family="Times New Roman, serif" font-size="30" fill="#111">&#9837;</text>

    <line x1="840" y1="1900" x2="1380" y2="1900" stroke="#111" stroke-width="1"/><line x1="840" y1="1920" x2="1380" y2="1920" stroke="#111" stroke-width="1"/><line x1="840" y1="1940" x2="1380" y2="1940" stroke="#111" stroke-width="1"/><line x1="840" y1="1960" x2="1380" y2="1960" stroke="#111" stroke-width="1"/><line x1="840" y1="1980" x2="1380" y2="1980" stroke="#111" stroke-width="1"/>
    <text x="850" y="1942" font-family="Arial, sans-serif" font-size="12" fill="#444">bass</text>
    <text x="1030" y="1960" text-anchor="middle" dominant-baseline="middle" font-family="Times New Roman, serif" font-size="30" fill="#111">&#9837;</text><text x="1064" y="1930" text-anchor="middle" dominant-baseline="middle" font-family="Times New Roman, serif" font-size="30" fill="#111">&#9837;</text><text x="1098" y="1970" text-anchor="middle" dominant-baseline="middle" font-family="Times New Roman, serif" font-size="30" fill="#111">&#9837;</text><text x="1132" y="1940" text-anchor="middle" dominant-baseline="middle" font-family="Times New Roman, serif" font-size="30" fill="#111">&#9837;</text><text x="1166" y="1980" text-anchor="middle" dominant-baseline="middle" font-family="Times New Roman, serif" font-size="30" fill="#111">&#9837;</text><text x="1200" y="1950" text-anchor="middle" dominant-baseline="middle" font-family="Times New Roman, serif" font-size="30" fill="#111">&#9837;</text><text x="1234" y="1990" text-anchor="middle" dominant-baseline="middle" font-family="Times New Roman, serif" font-size="30" fill="#111">&#9837;</text>
  
</svg>