<?xml version="1.0" encoding="UTF-8"?>
<svg xmlns="http://www.w3.org/2000/svg" width="112" height="90" viewBox="0 0 112 90">
  <rect x="0" y="0" width="100%" height="100%" fill="#fff"/>
  <g fill="#111">
    <path d="M 47.00 14.00 L 47.00 20.00 L 56.00 31.00 L 56.00 37.00 L 52.00 39.00 L 53.00 50.00 L 68.00 62.00 L 84.00 67.00 L 90.00 70.00 L 93.00 74.00 L 95.00 74.00 L 104.00 57.00 L 104.00 52.00 L 99.00 53.00 L 92.00 46.00 L 81.00 29.00 L 72.00 29.00 L 59.00 21.00 L 51.00 14.00 Z"/>
    <path d="M 54.00 21.00 L 57.00 22.00 L 61.00 27.00 L 63.00 26.00 L 75.00 33.00 L 74.00 36.00 L 76.00 34.00 L 77.00 35.00 L 79.00 35.00 L 81.00 33.00 L 91.00 49.00 L 99.00 56.00 L 97.00 63.00 L 93.00 69.00 L 80.00 63.00 L 73.00 62.00 L 71.00 59.00 L 68.00 59.00 L 54.00 47.00 L 57.00 41.00 L 60.00 45.00 L 67.00 48.00 L 68.00 47.00 L 67.00 44.00 L 69.00 40.00 L 66.00 35.00 L 63.00 34.00 L 54.00 25.00 L 53.00 23.00 Z"/>
    <path d="M 50.00 19.00 L 52.00 18.00 L 54.00 21.00 L 52.00 22.00 Z"/>
    <path d="M 95.00 57.00 L 92.00 59.00 L 92.00 62.00 L 95.00 59.00 Z"/>
    <path d="M 58.00 35.00 L 59.00 34.00 L 62.00 36.00 L 59.00 37.00 Z"/>
    <path d="M 60.00 41.00 L 62.00 40.00 L 64.00 42.00 L 62.00 43.00 Z"/>
  </g>
</svg>
