<?xml version="1.0" encoding="UTF-8"?>
<svg xmlns="http://www.w3.org/2000/svg" width="120" height="90" viewBox="0 0 120 90">
  <rect x="0" y="0" width="100%" height="100%" fill="#fff"/>
  <g fill="#111">
    <path d="M 72.00 53.00 L 82.00 40.00 L 87.00 39.00 L 89.00 36.00 L 102.00 42.00 L 114.00 45.00 L 113.00 58.00 L 108.00 60.00 L 107.00 57.00 L 106.00 57.00 L 101.00 63.00 L 97.00 62.00 L 95.00 64.00 L 82.00 64.00 L 81.00 65.00 L 79.00 60.00 L 76.00 61.00 L 75.00 60.00 L 76.00 58.00 L 88.00 56.00 L 90.00 54.00 L 88.00 54.00 L 86.00 51.00 L 86.00 45.00 L 85.00 45.00 L 85.00 50.00 L 84.00 51.00 L 82.00 48.00 L 80.00 48.00 L 81.00 51.00 L 80.00 53.00 L 73.00 55.00 Z"/>
    <path d="M 70.00 53.00 L 71.00 55.00 L 70.00 60.00 L 71.00 64.00 L 78.00 67.00 L 81.00 66.00 L 98.00 66.00 L 109.00 61.00 L 112.00 61.00 L 113.00 63.00 L 116.00 63.00 L 117.00 62.00 L 117.00 50.00 L 119.00 41.00 L 109.00 42.00 L 95.00 37.00 L 90.00 34.00 L 84.00 34.00 L 81.00 39.00 L 74.00 46.00 Z"/>
  </g>
</svg>
