<?xml version="1.0" encoding="UTF-8"?>
<svg xmlns="http://www.w3.org/2000/svg" width="108" height="90" viewBox="0 0 108 90">
  <rect x="0" y="0" width="100%" height="100%" fill="#fff"/>
  <g fill="#111">
    <path d="M 45.00 53.00 L 45.00 64.00 L 49.00 68.00 L 56.00 65.00 L 58.00 63.00 L 59.00 59.00 L 66.00 51.00 L 69.00 53.00 L 70.00 55.00 L 59.00 66.00 L 57.00 70.00 L 57.00 73.00 L 60.00 76.00 L 64.00 75.00 L 74.00 66.00 L 81.00 63.00 L 88.00 62.00 L 96.00 57.00 L 99.00 59.00 L 99.00 61.00 L 102.00 62.00 L 104.00 60.00 L 103.00 33.00 L 99.00 33.00 L 98.00 36.00 L 83.00 35.00 L 77.00 33.00 L 68.00 33.00 L 66.00 35.00 L 64.00 35.00 L 51.00 42.00 Z"/>
    <path d="M 99.00 40.00 L 99.00 47.00 L 97.00 55.00 L 93.00 57.00 L 92.00 53.00 L 91.00 53.00 L 90.00 58.00 L 88.00 60.00 L 75.00 63.00 L 70.00 67.00 L 65.00 63.00 L 72.00 56.00 L 71.00 48.00 L 66.00 46.00 L 65.00 49.00 L 60.00 45.00 L 60.00 47.00 L 58.00 49.00 L 53.00 50.00 L 54.00 52.00 L 50.00 55.00 L 51.00 57.00 L 50.00 61.00 L 48.00 63.00 L 46.00 60.00 L 47.00 53.00 L 50.00 46.00 L 55.00 42.00 L 65.00 37.00 L 72.00 37.00 L 74.00 35.00 L 83.00 37.00 L 97.00 38.00 Z"/>
    <path d="M 59.00 71.00 L 63.00 70.00 L 64.00 72.00 L 61.00 74.00 Z"/>
    <path d="M 61.00 67.00 L 63.00 65.00 L 65.00 67.00 L 64.00 68.00 Z"/>
    <path d="M 52.00 62.00 L 53.00 64.00 L 51.00 66.00 L 50.00 64.00 Z"/>
    <path d="M 53.00 59.00 L 54.00 60.00 L 53.00 63.00 L 52.00 62.00 Z"/>
  </g>
</svg>
