<?xml version="1.0" encoding="UTF-8"?>
<svg xmlns="http://www.w3.org/2000/svg" width="980" height="260" viewBox="0 0 980 260" style="color:#111">
  <title>Käemärgid Eesti astmetele (RTL peegelpilt)</title>
  <desc>
    Eesti astmenimed: JO, LE, MI, NA, SO, RA, DI.
    Käemärgid: uTheory Kodály/Curwen (teacher). Kuvatud peegelpildis (RTL) renderdamisel.
    Litsents: uTheory CC BY-NC-ND 4.0 (failid jäetud muutmata; siin on näidiskuva).
  </desc>

  <defs>
    <style>
      .label { font-family: ui-sans-serif, system-ui, -apple-system, Segoe UI, Roboto, Arial, sans-serif; font-size: 16px; font-weight: 800; fill: #111; }
      .hint { font-family: ui-sans-serif, system-ui, -apple-system, Segoe UI, Roboto, Arial, sans-serif; font-size: 12px; font-weight: 600; fill: #444; }
      .box { fill: #fff; stroke: #d9d9d9; stroke-width: 1.5; }
    </style>

    <!-- uTheory teacher glyph paths (original coordinate spaces) -->
    <symbol id="uth-do" viewBox="-10 0 621 1024">
      <path fill="currentColor" d="M17 560q0 2 3 98q2 70 4 72q1 1 8 0l10 -3q14 -4 19 -4q1 0 1 -3v-18q0 -2 16 0t31 8l26 13q24 10 38 16l37 13l43 13q13 5 25 6q11 1 15 2h8h9q14 -2 29 0l33 5q29 4 40 7l20 6l27 8q6 3 20 8l22 7q8 0 20 -2l6 -1q1 0 8 -5q5 -4 14 -15q8 -10 10 -17t1 -19q-1 -17 -14 -28q-6 -5 -5 -5l9 -6q8 -5 12 -7q11 -9 18 -30q6 -18 6 -23q1 -12 1 -23l-2 -19q0 -1 -5 -27q-3 -18 -11 -33q-8 -16 -13 -24l-12 -21q-10 -18 -14 -26l-7 -15q-7 -14 -12 -31q-11 -34 -19 -41q-19 -16 -36 -18q-24 -3 -35 1q-17 6 -28 12q-17 9 -29 12q-14 4 -21 5l-12 2q-13 2 -22 4q-11 1 -19 5q-6 3 -35 9q-24 5 -43 6l-48 5q-60 7 -70 9q-9 2 -22 2l-16 -1l3 -20q-1 -1 -16 -1q-15 -1 -20 2z"/>
    </symbol>

    <symbol id="uth-re" viewBox="-10 0 914 1024">
      <path fill="currentColor" d="M856.544 257.974q-3.76855 0.735352 -12.2832 3.08594q-17.96 4.65332 -33.6465 10.3604q-15.6855 5.70605 -37.6094 14.8135l-59.1182 24.877l-19.9189 6.41504l-17.1299 6.5625q-12.3809 4.94434 -13.3096 4.89648q-2.74316 -1.0752 -16.0059 2.8916
q-13.2617 3.9668 -26.5713 8.86523l-27.6035 10.6748l-10.2305 -0.535156q-11.1582 -0.584961 -17.7168 0.00292969l-20.6055 1.7207q-11.2578 1.27344 -18.3301 2.76758q-7.07031 1.49316 -11.8174 3.11133q-31.3711 11.4082 -45.2676 27.4658
q-3.96289 4.45508 -9.34473 9.30176q-5.38281 4.84766 -14.1436 11.8467q-17.5186 14.0039 -29.3115 25.5068l-3.91504 3.52148q-0.976562 0.884766 -3.30273 0.763672q-2.32422 -0.123047 -9.86426 1.34766l-15.9521 1.96289q-16.0039 2.89062 -32.5713 7.61621
q-16.5664 4.72656 -24.2246 8.52246q-7.65918 3.79492 -18.3271 11.6279l-14.4844 9.49512l-15.4639 10.3809l-28.7773 15.2773q-15.2676 6.66211 -31.5898 15.5967q-16.3193 8.93652 -31.7344 18.3857q-16.3945 10.3311 -29.7539 16.1582l-13.4561 7.68555
l-29.6592 14.2988l-31.6611 16.9902l-8.70996 6.07129q-6.70605 3.37793 -8.56543 3.28125l0.241211 -22.3672q0.140625 -20.5088 -0.59375 -24.2754q-2.74219 -1.07812 -21.7812 -2.54004q-19.0391 -1.46387 -22.9062 1.12891q-2.10156 4.55371 -1.85645 17.6201
l-0.676758 30.7373q-2.62793 67.9336 -2.2168 157.941q0.414062 90.0078 2.62109 119.032q3.42676 5.77344 21.1934 4.83984q17.7676 -0.935547 19.7725 -3.62695l1.06641 -38.1768q0.981445 -0.881836 26.5781 -0.00488281q25.5967 0.875 71.1162 4.19336
q26.9688 1.41309 34.8965 1.3623q7.93164 -0.0507812 18.3047 -2.30469q18.9395 -5.53516 37.1445 -14.8379l21.1426 -11.9453q5.62793 -0.640625 11.8672 -4.04395q6.2373 -3.40137 11.0361 -5.94922l11.5977 -7.78223l23.3418 -18.3604q5.82422 -4.35742 8.75879 -7
l5.96973 -7.14746q5.87012 -5.28809 15.8545 -17.8164l4.98926 -6.26758q11.1074 -16.2041 13.2119 -20.7559q7.19043 -12.6777 10.4199 -20.9014q1.22168 -5.53125 4.30273 -10.9639l5.28516 -11.8447l3.27539 -9.15527q1.17383 -4.60059 3.22949 -8.22266
l3.03125 -4.50391q4.06445 -6.31152 17.1787 -16.3496q13.1152 -10.0371 29.5068 -20.3682q43.3115 -25.7051 56.8623 -52.9707q2.00488 -2.68945 2.51758 -3.59668q0.514648 -0.904297 3.79297 -1.2002q3.28027 -0.294922 10.9141 -3.625l29.4639 -10.5771l2.69238 2.00391
q3.62109 2.05664 4.89258 4.4541q1.27344 2.39844 2.69531 10.8652q4.40918 22.6113 -5.81641 39.7939l-6.06543 9.00391q-3.08203 5.43555 -4.99219 6.26855l-11.8906 13.3652q-9.78613 8.81152 -18.4482 13.9512l-10.5205 5.04297q-10.668 7.83496 -31.5166 14.2031
l-12.332 4.01465q-5.72559 2.49609 -13.2393 3.50195q-7.5127 1.00586 -9.42285 1.83887q-11.5967 7.7832 -23.9785 12.7295q-12.3809 4.94629 -23.4395 11.3613q-11.0625 6.41113 -10.6943 8.29883q0.366211 1.88184 6.14355 -1.54492q2.88867 -1.71289 11.9639 -5.90039
q9.08008 -4.18652 17.6426 -7.46875q8.56543 -3.27832 15.7578 -7.09961q7.19629 -3.81934 10.1309 -6.46191q2.9375 -2.64355 4.79688 -2.5459q5.5791 0.292969 15.0254 -2.00977l9.49414 -3.23438q17.0303 -4.7002 27.5283 -9.27832q10.4971 -4.5791 25.9619 -14.96
q9.6875 -6.95215 18.5918 -16.7412l10.9629 -13.4141q3.03027 -4.50391 5.60156 -9.03125q2.56738 -4.53027 7.01855 -18.2812q2.93262 -20.3633 -2.01465 -32.7441q-1.42188 -8.46777 -5.53223 -10.0811q-4.11133 -1.61621 0.634766 -3.23145
q12.4316 -5.87598 22.1211 -12.8281l13.5059 -8.61621q12.4297 -5.875 26.917 -15.375l17.3721 -11.2109q12.6729 -10.5254 17.8096 -19.5811q5.04004 -7.19629 19.1338 -18.1143q14.0947 -10.9189 18.8418 -12.5352q44.5879 3.27148 61.5674 -18.2207l5.96875 -7.14453
q4.94043 -5.33691 7.48535 -9.40137q2.54395 -4.06152 3.7666 -9.59277q1.36914 -8.31934 3.37598 -11.0117q2.00391 -2.69336 8.66016 -5.1416l32.5938 -16.9424l29.8008 -17.0879q4.79785 -2.54492 8.71191 -6.07129l9.73828 -7.88184q18.4971 -14.8828 20.8896 -42.7305
q1.51367 -11.1113 -4.0918 -19.7979q-5.60645 -8.68652 -15.7393 -11.082l-3.57129 -2.9873l1.61523 4.75q2.05957 14.0967 -14.2383 22.5654q-4.69727 0.685547 -26.1113 0.0302734q-21.4121 -0.655273 -32.5215 -2.17188q-7.44043 -0.388672 -2.40039 1.27441
q5.04297 1.66309 19.8965 2.9082q14.8564 1.24414 21.3643 1.58496l12.1396 -0.295898q9.34766 -0.442383 16.1729 -6.14648q6.82812 -5.70215 7.31445 -15.0049q-0.6875 -4.69629 4.65039 0.246094q10.8672 6.16406 10.1348 20.1133q-0.389648 7.4375 -2.71191 16.1758
q-2.32324 8.7373 -6.43262 15.9824q-3.03418 4.50488 -13.7988 14.1973q-10.7656 9.69336 -17.5176 13.999l-59.5107 32.3174l-5.72461 2.49707l-4.16211 -9.54199q-3.33008 -7.63477 -10.5752 -11.7432q-4.55176 -2.10449 -17.499 -4.18066
q-12.9443 -2.08008 -28.8047 -1.97754l-43.8506 0.499023q-9.30078 -0.487305 -25.1094 -1.31543t-21.3408 -2.05078l-12.04 -1.56445q-9.2998 -0.486328 -10.2041 -0.998047q-0.905273 -0.515625 3.84277 -2.13086l76.0518 -27.7197l14.1914 -3.91895
q8.51465 -2.35059 14.2412 -4.84961l66.7061 -27.2744q13.3584 -5.8291 28.5547 -11.0928q15.1973 -5.26367 27.4795 -8.35156l15.124 -3.86914q4.69727 -0.685547 8.46582 -1.42188q11.1602 0.585938 8.05078 -2.37402q-3.1084 -2.96191 -12.4082 -3.44922z

M746.435 312.815l0.855469 1.44434q0.858398 1.44141 1.22559 3.32617q0.365234 1.88574 1.39453 0.0722656q1.02637 -1.81055 -0.712891 -4.23145q-1.7373 -2.42188 -2.7627 -0.611328zM733.27 314.922q-0.0498047 0.930664 1.2959 1.93262q1.3457 1.00488 2.15527 3.37793
q0.807617 2.37402 0.929688 0.0478516q0.121094 -2.32324 -1.6416 -4.28125q-1.7627 -1.95605 -2.73926 -1.07715zM590.215 357.78q13.9492 0.730469 33.3799 3.61523q19.4336 2.88281 32.4521 3.56445l42.8242 1.31055h17.7188q0.928711 0.0488281 4.96777 3.05664
q4.03809 3.00977 12.752 5.79688q8.71289 2.78906 11.4521 3.86328l8.37207 0.439453q6.50781 0.34082 12.1377 -0.297852q8.56348 -3.2832 -0.833008 -1.9082q-3.76953 0.735352 -9.34863 0.442383l-7.43848 -0.390625q-3.7207 -0.194336 -10.1318 -2.39551
q-6.41211 -2.2002 -9.1543 -3.27637l-9.05664 -5.13672q2.8877 -1.71387 19.5781 0.09375q16.6904 1.80664 22.1953 3.49219q5.50879 1.68848 9.71973 10.3037q4.21289 8.60938 2.40332 16.4434q-1.80957 7.83008 -3.37598 11.0127q-1.56543 3.17969 -7.4375 8.46875
q-5.13672 9.05469 -10.4961 13.4365q-5.35742 4.38281 -11.9658 5.90234q-10.5205 5.04102 -17.1035 6.09473q-6.58398 1.05469 -16.7627 -0.411133l-24.1787 -1.26855q-12.0898 -0.629883 -22.2686 -2.09863q-10.1836 -1.46582 -8.66602 -3.71777
q1.5166 -2.25293 1.63867 -4.57617q0.124023 -2.32422 -1.27148 -2.39648q-1.39551 -0.0742188 -3.35254 1.6875q-1.95703 1.7627 -2.47168 2.66992q-0.514648 0.90332 -5.89551 5.75195q-5.38379 4.84473 -10.1787 7.39062q-8.61621 4.21289 -19.0381 7.39648
q-13.3125 4.89551 -18.4512 5.09277t-10.7676 0.834961q-13.9971 0.198242 -13.8535 -2.59082q0.149414 -2.79102 -1.66406 -3.81738q-1.80957 -1.02637 -2.88574 1.71387l-2.20117 6.41309q-2.15332 5.48242 -6.72754 12.7031q-4.57324 7.2168 -9.61328 14.415
l-33.8613 41.1191q-16.6846 15.9102 -14.042 18.8477q4.60059 1.17188 15.5625 -12.2422l16.9785 -21.4873l22.8496 -26.7793q9.93457 -11.5996 13.2598 -21.6836l1.07422 -2.74023l8.37012 0.4375q13.9502 0.731445 22.416 -0.69043q8.46777 -1.41992 14.1455 -2.98828
l14.29 -5.77832q10.4746 -4.11328 14.3877 -7.63867l6.80078 -5.23926l41.6533 5.91504l-4.89355 4.40527q-13.5059 8.61719 -33.3721 31.8193q-4.99121 6.26562 -12.2832 11.9463q-7.29102 5.67871 -15.9033 9.89062l-60.585 35.0547q-17.1777 7.49219 -23.832 9.94141
q-3.81836 1.66504 -12.2861 3.08691l-10.4248 3.18457q0.0488281 -0.930664 2.10352 -4.55371l4.99121 -6.26465q5.9707 -7.14844 13.8232 -14.6611q7.85449 -7.51367 14.6074 -11.8242l9.6416 -6.02246q3.91309 -3.52539 6.80176 -5.23828l14.291 -5.77832
q5.72656 -2.49805 19.6992 -11.0889q13.9697 -8.59375 27.5244 -18.1416q8.75879 -7.00098 3.22852 -8.22266q-3.7666 0.735352 -21.1895 12.8779q-17.4209 12.1416 -22.2656 15.6182q-13.3115 4.89648 -20.5068 8.71387q-7.19336 3.81934 -11.0596 6.41504
l-8.70996 6.07129q-12.5303 7.73438 -22.4375 18.873q-9.90723 11.1357 -15.1416 22.0537l-5.13965 9.05469l-5.13672 9.05664q-4.05957 6.3125 -13.4053 15.6152q-9.3457 9.30078 -19.9658 16.2041l-7.78027 6.12012l-18.3037 11.1631q-8.66113 5.14062 -19.3291 12.9736
q-2.93457 2.64258 -7.87793 7.97949l-8.95508 10.7227l-3.0332 4.50195q-2.00391 2.69336 -3.08301 5.43262l-6.35938 14.5879l-10.5654 23.6904q-4.25586 10.0332 -12.9658 24.9629q-8.70801 14.9316 -15.6084 22.0293l-6.99414 8.95996q-5.87305 5.28516 -12.7471 11.9199
q-6.87695 6.63281 -10.791 10.1592l-17.4697 13.0723l-17.4199 12.1387q-4.84668 3.47656 -15.3193 7.59082q-10.4707 4.11328 -15.2676 6.65918l-15.3193 7.59082q-12.4795 6.80469 -22.9023 9.98828q-15.1719 4.80078 -26.8457 5.12109
q-11.6699 0.320312 -51.6592 -1.77539q-36.2676 -1.90039 -57.7061 -2.09082l-23.2959 -0.291016l-0.157227 -50.3613q-0.451172 -44.7832 0.37793 -60.5908l4.42676 -120.061l57.3564 -26.832q49.7695 -24.4336 66.0664 -32.9062q23.0977 -13.71 37.0205 -21.3711
q13.9238 -7.66504 31.1494 -16.0869q17.2236 -8.42285 31.1719 -16.5498q13.9473 -8.125 26.5723 -17.7207l10.6699 -7.83594q3.81543 -1.66602 8.6123 -4.20996q10.4727 -4.11426 25.1299 -8.00879q14.6582 -3.89453 27.8232 -6.00098l12.1865 -1.22656
q6.6543 -2.44922 0.783203 2.83789q-5.96777 7.14648 -13.1113 18.8965q-2.98535 3.57324 -4.47852 5.3584q-1.49121 1.78711 -4.37793 3.50098q-15.4658 10.3799 -25.2764 19.6553q-9.8125 9.2793 -5.20996 10.4521l20.502 -17.5762q7.78125 -6.11914 14.5352 -10.4258
l7.7334 -5.19141q9.63965 -6.02246 5.96777 -7.14648q-0.929688 -0.0498047 -3.81641 1.66406l-3.81738 1.66309l7.97559 -9.83594q7.92773 -8.90918 12.8691 -14.248l24.418 -21.0996l31.2197 -26.3389q4.84473 -3.47656 8.8584 -8.86035
q24.7109 -26.6787 72.5244 -31.6328l18.748 -1.81543z

M536.186 374.53l0.882812 0.981445q3.66895 1.12207 4.91797 3.98633t1.37012 0.539062q0.12207 -2.32715 -2.5459 -4.79688q-2.66797 -2.47168 -4.625 -0.709961zM517.197 380.997q-3.76953 0.733398 1.81055 1.02539
q5.58105 0.294922 7.24609 4.11035q1.66504 3.81738 1.86133 0.0966797q-2.40137 -7.58301 -10.918 -5.23242z

M53.1396 712.89q-1.55762 47.4736 -1.64062 102.485l-0.329102 59.6621l-27.166 2.30762l-2.41895 -96.1748l0.537109 -223.77l37.1982 1.94824z

M438.308 640.759q-0.977539 0.878906 -1.26953 6.45801q-0.146484 2.79102 0.0507812 7.93066q0.196289 5.1377 2.7666 9.46875q2.57227 4.33203 3.54883 3.4502q0.980469 -0.880859 -0.733398 -3.76855
q-1.56641 -5.67676 -2.64746 -11.7939q-1.07715 -6.11914 -0.0498047 -7.92871q1.02734 -1.81055 0.194336 -3.71875q-0.833008 -1.91016 -1.86035 -0.0976562z"/>
    </symbol>

    <symbol id="uth-mi" viewBox="-10 0 1099 1024">
      <path fill="currentColor" d="M46.7988 412.977q-6.03027 1.44238 -13.582 2.99316q-7.55371 1.5498 -11.5469 2.85059l-0.770508 76.6699q0.697266 68.3975 1.17285 89.8174q1.20898 17.2822 5.87207 54.7539l8.30859 75.0156q2.29883 18.2266 3.52832 21.207q1.22852 2.97656 4.28027 2.7627
l13.2129 -0.923828q12.2725 0.164062 16.4092 0.895508q4.13672 0.734375 5.0127 -1.37109q0.873047 -2.10449 0.12793 -12.7793q-0.74707 -10.6738 -1.17285 -16.7734l-1.30078 -3.99609l36.2207 6.66211q11.3242 1.25098 21.918 6.63867l25.3916 12.5273l12.7676 7.28027
q8.63281 6.54785 17.5557 10.0098q8.92676 3.46191 29.6846 8.13965l41.6592 11.3906l23.3809 -1.63574q52.8633 -3.69629 89.9805 -13.4443q37.1152 -9.74512 61.3926 -27.7891q4.87109 -3.4043 60.1953 -1.14258q6.1709 0.587891 16.4775 1.91113
q40.2852 6.37598 73.6924 1.99609q33.4043 -4.37598 65.0117 -19.8691q5.88574 -3.47656 11.5947 -9.49219q5.70898 -6.0166 7.42188 -10.7344q1.71484 -4.71777 0.12793 -12.7783q-1.58594 -8.06348 -6.29102 -16.9277q-1.15918 -1.96191 0.875 -2.10449l18.3701 -0.262695
q15.3184 -0.0507812 44.7646 -2.61914q29.4453 -2.57031 48.6895 -4.93652q17.2119 -2.22559 43.6445 -4.0752l32.6016 -1.25781q3.99512 -1.30078 5.48438 -1.91504q1.49121 -0.616211 7.7666 1.5q6.27539 2.11523 11.3955 2.26758q5.11914 0.152344 13.1094 -2.4502
q13.9492 -5.06152 20.7803 -9.62598l3.85254 -3.33203l6.24121 1.60547q6.24219 1.60645 13.499 3.14355l15.4629 1.98242q41.374 7.32227 63.751 -1.39355q22.376 -8.71484 32.4102 -18.6104t14.041 -18.3486q4.00684 -8.4541 5.11426 -21.8115
q1.11035 -13.3584 -0.62793 -16.3008q-1.73828 -2.94336 -6.125 -7.23242q-4.38477 -4.29199 -9.68262 -6.98535l-10.4512 -3.35645q-6.24121 -1.60645 -11.3936 -2.26758l-12.3418 -1.17969q-17.5664 -2.85742 -45.2988 -5.00488q-21.5615 -1.55762 -48.4209 -5.80762
q-12.3418 -1.18066 -12.1289 1.86914q7.40234 3.56934 56.8369 9.30566l58.8008 8.14746q17.5674 2.8584 23.9482 6.49902q6.38477 3.63965 6.52734 5.67188q3.33496 3.85352 3.76074 9.95215q0.426758 6.09961 -1.44043 15.9346q-1.86621 9.83594 -12.2656 21.8008
q-10.4014 11.9639 -32.2686 20.6455q-26.9492 9.0332 -68.3955 0.694336l-17.4951 -1.83984q-12.4121 -2.19727 -10.4502 -3.35547l4.37109 -10.5225q0.875 -2.10352 1.93652 -8.81738q1.0625 -6.71582 0.920898 -8.74902q-0.143555 -2.03418 -2.71777 -2.36328
q-2.57715 -0.329102 -1.99902 0.651367q0.581055 0.981445 -1.90137 9.32422l-3.35645 10.4521q-0.875 2.10352 -2.69238 5.29883l-0.803711 3.11914q-0.874023 2.10254 -5.70898 6.0166q-4.83398 3.91309 -9.77539 6.30176q-10.8262 5.86621 -20.4727 -0.611328
l-12.5547 -4.22949q-20.0273 -8.81445 -28.4795 -12.8203q-8.4541 -4.00684 -15.9248 -8.5918q-12.7686 -7.2793 -17.4023 -15.1299l-3.33398 -3.85059l3.0498 -0.213867q3.99512 -1.30176 4.83398 -3.91309q0.838867 -2.61328 -3.37012 -4.3623l-18.3701 0.263672
q-21.4902 -0.540039 -39.0908 -3.9082q-17.6045 -3.36523 -28.1963 -8.75293l-3.19141 -1.82129l-1.58594 -8.06055q-0.996094 -14.2334 -2.4834 -13.6172q-1.49023 0.613281 -2.29492 3.73535l-0.730469 4.1377q-2.26855 11.3955 -4.16016 13.5703l-10.542 9.93164
q-6.76074 5.58203 -19.2549 9.51953q-12.4941 3.93945 -25.5674 6.89551l-36.3125 6.625q-23.2402 3.66895 -25.1328 5.84473q-0.801758 3.11914 3.26465 2.83398l24.3975 -1.70508q34.4951 -3.43457 59.4834 -11.3105q24.9873 -7.87598 34.4424 -18.752l3.78027 -4.35156
l5.29785 2.69336q16.9766 9.02832 33.0537 12.501q16.0752 3.47363 33.3604 2.2666l9.14844 -0.640625l0.212891 3.0498q0.711914 10.167 17.7568 20.2109l11.8252 8.36621q5.36621 3.71191 18.0273 9.4668q12.6621 5.75488 17.8848 7.43262
q-0.945312 1.08691 -29.4092 3.07812l-39.6475 2.77246q-39.4326 5.82129 -76.5752 7.90723q-37.1396 2.08887 -64.2578 1.43262q-27.1172 -0.65918 -27.9561 1.9541q-0.838867 2.61133 6.20508 1.0957l22.5781 1.48633q8.13379 -0.568359 10.3096 1.32227
q2.1748 1.89258 4.77637 9.88281q5.06152 13.9482 0.546875 22.4355t-22.3145 16.8828q-51.2998 26.0635 -127.665 15.0576q-11.3232 -1.25 -17.4941 -1.84082l-38.915 -1.36523q-14.2334 0.994141 -9.29102 -1.39258q10.8242 -5.86621 28.8975 -25.0068
q18.0703 -19.1416 20.6943 -25.4541l6.09961 -0.424805q11.2539 0.233398 42.2598 -1.93457t42.1172 -3.96875q14.1621 -2.01074 22.1514 -4.61133q7.99121 -2.60449 19.6924 -10.5732q11.7021 -7.96777 13.416 -12.6846t6.51172 -9.13867
q8.72168 -6.74023 24.9512 -8.38574q16.2305 -1.64648 23.4189 -1.125l60.1904 -1.14453q8.13281 -0.569336 8.57227 -1.62207q0.436523 -1.05176 -15.9717 -1.94824l-28.6064 -0.0439453q-23.5947 -1.41309 -39.8594 -0.275391q-12.2002 0.853516 -18.2295 2.2959
l-17.9414 6.36426q-7.56543 8.69824 -8.00293 9.75195q-0.4375 1.05176 -4.18262 5.91211q-3.74805 4.8584 -15.5195 11.8115q-11.7725 6.95215 -30.9453 10.335l-18.2998 1.2793q-16.1943 2.15527 -36.5977 2.55957l-38.7021 1.68555l-17.0176 19.5781
q-33.3066 35.0186 -66.4043 51.124q-33.0938 16.1045 -82.623 23.6562q-30.2148 6.19824 -50.1084 6.56738q-19.8955 0.370117 -33.5381 -4.80566l-24.9658 -6.42676q-19.7412 -4.74902 -28.7031 -8.71973q-8.96191 -3.96973 -22.8887 -13.2109
q-18.1348 -10.9922 -32.8291 -16.6035q-14.6924 -5.61523 -34.2939 -8.3291l-18.6543 -3.80273q-5.15332 -0.662109 -5.59277 0.390625q-0.435547 1.05176 -1.73828 -2.94336l-4.87305 -40.5225q-1.72852 -10.0947 -2.42871 -27.4121q-0.700195 -17.3184 -2.05078 -36.6328
l-2.31152 -106.082l1.01074 -43.998q0.327148 -24.5391 -3.00781 -28.3936z

M58.4785 419.312q-0.589844 6.1709 -0.769531 54.7051q-0.18457 48.5391 0.294922 69.958l1.44824 49.957q1.68457 38.7002 3.83887 54.8955l5.02051 42.5537q4.30566 32.3906 4.80469 39.5059
q0.141602 2.03418 -6.02832 1.44434l-9.22168 -0.37793l-13.2861 -0.0917969q0.0712891 1.0166 -1.47949 -6.53809q-1.55078 -7.55176 -2.90039 -26.8682l-1.4209 -20.3301l-6.32031 -46.5508q-3.00781 -28.3945 -4.42871 -48.7275q-1.99023 -28.4639 -1.1709 -89.8145
l0.318359 -68.4678l15.0342 -4.11621q14.0928 -3.02832 16.2666 -1.13672z

M62.8574 452.715q-3.0498 0.214844 -2.83594 3.26562q0.142578 2.03223 2.1748 1.88965l21.5615 1.55664q3.12305 0.803711 33.8311 1.7207l122.987 5.70215q48.1357 1.74316 70.9277 6.27832
q15.5342 3 25.7363 2.79785q10.2012 -0.203125 24.5029 -0.181641q35.7939 0.561523 54.0225 -1.73535l42.6982 -2.98535l15.1748 -2.08203l26.5049 -0.833008q7.11523 -0.49707 14.2334 -0.995117q15.3896 0.966797 27.9453 5.19629l25.1064 8.45996l-4.93848 2.38867
q-11.8447 5.9375 -25.9346 8.96484q-13.0742 2.95898 -19.5752 4.94434q-6.50098 1.9873 -14.8926 6.15039q-8.39258 4.16113 -8.21387 6.70312q0.177734 2.54004 5.11816 0.154297q4.93945 -2.38965 13.4385 -5.02734q8.49805 -2.63574 19.0684 -4.90918
q10.5664 -2.27051 17.5381 -4.80176q13.0049 -3.97461 15.9834 -5.2041q1.96289 -1.15918 23.9727 -7.80469l31.0146 -9.32031q35.0127 -10.6211 61.5156 -11.4531q26.5039 -0.831055 42.4629 8.26758l9.57422 5.45996l18.9404 7.87012q15.7451 6.0498 32.8643 17.1113
q14.9443 9.1709 18.207 12.0059q6.52637 5.67676 38.5166 24.8906q19.1533 10.9209 26.6221 15.5039q7.47266 4.58789 11.3135 8.4043q3.84277 3.81641 17.9121 15.0918q18.4902 16.0742 22.7002 17.8223q2.10352 0.876953 3.04883 -0.212891l0.873047 -2.10547
q0.947266 -1.08594 -9.8916 -10.0322q-10.8438 -8.94629 -15.123 -11.7129l-16.3145 -14.1807q-3.26367 -2.83789 -9.68359 -6.9873q-6.41797 -4.14648 -11.7861 -7.8584l-35.1113 -20.0186q-12.7676 -7.28223 -13.8574 -8.22656l-3.2627 -2.83594l12.2002 -0.853516
q14.2314 -0.994141 25.6289 1.27344q11.3945 2.26855 32.3652 9.99609q8.41895 3.49707 19.3418 6.30957q10.9229 2.81055 13.0273 3.68359l10.2373 0.306641q7.18652 0.519531 7.11621 -0.498047q-0.0712891 -1.01562 -8.96191 -3.96973
q-8.89062 -2.95312 -18.2529 -5.36426l-18.8672 -6.85254q-26.1953 -9.40527 -39.626 -11.5293q-15.5322 -3.00098 -32.6016 1.25684l-6.02832 1.44336l-2.1748 -1.89062l-23.3613 -12.6689q-10.6631 -6.40625 -27.5693 -14.418l-24.3047 -11.5801
q-10.5938 -5.38965 -17.8506 -6.9248q-14.5889 -4.08691 -40.9492 -1.22266q-6.10059 0.425781 -54.3252 11.9707l-42.2012 10.1025l-3.19141 -1.82031q-3.19238 -1.82031 -10.5225 -4.37207l-13.5703 -4.1582q-24.0215 -7.51562 -41.3037 -6.30762l-63.0293 4.40918
q-16.2666 1.13672 -37.6133 2.62793q-21.3496 1.49512 -41.752 1.89941q-17.3545 0.192383 -25.5566 -0.255859q-8.20508 -0.447266 -24.7539 -3.37598q-21.6338 -2.57324 -40.2158 -5.36035q-4.06738 0.283203 -32.8154 -1.79199l-38.9863 -2.38281l-111.593 -3.43262z

M701.336 467.321q0.0722656 1.01465 -2.55078 7.3291q-3.42773 9.43359 -0.555664 6.67871t4.51465 -8.48926q1.64258 -5.73145 0.0458984 -6.64258q-1.59668 -0.910156 -1.4541 1.12402zM718.834 469.162q-0.946289 1.08594 -1.67969 5.22461l-1.60547 6.24121
q-0.734375 4.1377 0.648438 1.99805t2.62402 -6.31348q1.23926 -4.17188 1.0625 -6.71191q-0.177734 -2.54297 -1.0498 -0.438477zM875.004 569.592q1.08691 0.946289 5.72266 8.79199l6.87988 10.7598q4.42383 4.79688 14.0342 10.7646q9.61133 5.96777 11.6807 6.33496
q2.06836 0.367188 -1.19531 -2.47168l-7.47168 -4.58398q-10.8047 -8.4375 -15.2969 -14.2559q-7.96875 -11.7002 -12.0234 -18.5654q-4.05762 -6.86914 -4.56641 -6.83496q-0.507812 0.0361328 0.864258 5.0498zM488.583 624.195q0.0712891 1.01562 1.30176 3.99512
l1.44238 6.02832q-0.873047 2.10547 0.614258 1.49121q1.48926 -0.616211 0.0820312 -6.13672q-1.40918 -5.52148 -2.45801 -5.95703q-1.05371 -0.4375 -0.982422 0.579102zM522.685 688.212q-2.41016 9.36328 -2.38379 17.0234q0.0234375 7.66016 2.12793 8.53418
l0.59082 -6.1709q-0.425781 -6.09863 0.967773 -15.3896l1.46289 -8.27539q-0.0712891 -1.01758 -0.579102 -0.981445q-0.507812 0.0351562 -2.18652 5.25977zM508.736 693.273q0.142578 2.03418 -1.60645 6.24219q-3.49707 8.41699 -1.53516 7.25781
q1.96289 -1.1582 3.60352 -6.89062q1.64355 -5.73438 1.06348 -6.71484q-0.579102 -0.980469 -1.52539 0.105469z"/>
    </symbol>

    <symbol id="uth-fa" viewBox="-10 0 668 1024">
      <path fill="currentColor" d="M126.022 324.316q-1.74902 0.373047 -5.13672 10.2295l-43.5137 113.426q-8.78516 27.4541 -16.9863 59.8105q-8.19922 32.3564 -12.208 77.9863q-2.92676 33.5195 -3.58203 51.9346q-0.655273 18.416 0.383789 31.9023q0.557617 2.62305 1.30176 6.12012
l0.929688 4.37207q1.05957 0.6875 7.7373 2.01074l21.7812 3.59473q9.67285 2.51367 8.37207 -3.60742l3.85547 -29.1484q0.875 -0.186523 10.5469 2.32812q9.67285 2.5127 17.7822 6.27051l10.9189 4.07617q10.0439 4.2627 19.584 10.459q9.54297 6.19727 21.5771 15.5186
l51.8711 41.9756l19.1377 16.9492l17.5205 13.6387q8.85254 7.25781 20.1436 13.082q17.8359 10.8301 32.2314 26.9609q3.7373 4.68848 9.94043 10.2227q6.20215 5.53613 11.6885 9.85156l4.42773 3.62988l5.61621 0.632812l5.80566 1.50879l24.3281 11.2773
q8.79688 2.69922 17.9023 8.98828q9.10449 6.28906 29.6182 21.1191q9.91309 7.94434 25.5273 23.3594q15.6133 15.415 26.4561 27.7314l17.2568 21.0049q2.12109 1.37598 8.38574 26.5469q2.22852 10.4912 3.22363 13.0215q0.994141 2.5293 3.43262 1.09766
l10.5469 2.32812l7.55176 1.13477q1.93359 0.503906 7.17969 -0.610352l5.24707 -1.11621q14.4902 -4.90723 19.124 -13.2041q7.07129 -9.72656 6.37012 -38.8213q-0.667969 -11.7363 -2.9248 -24.5078q-2.25781 -12.7705 -7.48242 -24.4531l-7.02832 -15.8682
q-6.4707 -13.2461 -11.1377 -22.3057q-8.77734 -15.498 -15.6309 -24.0938q-6.85352 -8.59473 -21.5635 -21.917q-9.41016 -9.87793 -13.8369 -13.5078q-4.42773 -3.62695 -11.8477 -8.44629q-7.42188 -4.82031 -11.3184 -8.10449q-3.89551 -3.28418 -9.75488 -9.34863
q-8.16309 -8.31641 -15.1104 -17.3496q-6.94629 -9.03223 -6.34961 -10.5303q0.59375 -1.49609 4.46387 -0.491211l7.04883 3.07031q3.87012 1.00586 9.67285 2.51367l33.3896 6.61035l9.30078 0.763672q30.8955 3.48438 52.1582 0.336914
q21.2637 -3.14941 43.5684 -14.2891l10.623 -5.91211q0.688477 -1.05957 5.19141 -5.67188q4.50195 -4.6123 7.75879 -10.7871q4.07715 -10.9189 3.88965 -11.7939l2.01074 -7.7373q0.501953 -1.93359 -0.426758 -6.30566l-0.426758 -6.30664
q-0.797852 -8.05566 -4.74902 -15.8975q-3.95117 -7.83984 -8.28418 -11.0303q-4.33398 -3.19141 -1.89648 -4.62402q8.50195 -7.28906 12.8955 -21.0166q4.3916 -13.7285 4.22754 -27.4014q-1.2793 -18.917 -12.2529 -27.5498l-3.18066 -2.06738l4 -2.67676
q5.37598 -4.79883 11.4141 -12.9355q6.03906 -8.13672 8.60645 -13.252q3.83496 -16.3496 -4.58691 -38.7754q-8.42188 -22.4268 -24.0615 -40.1201l-2.30664 -2.25195l1.50781 -5.80273q0.818359 -4.74414 1.2666 -11.2363l-0.853516 -12.6123
q-1.67188 -7.86719 -3.38281 -11.6172q-1.71094 -3.74902 -5.44727 -8.43555l-5.35645 -8.00098q-11.2695 -18.6221 -16.625 -26.623q-5.35645 -7.99902 -12.0879 -13.8779q-4.42676 -3.62793 -12.3779 -8.79297q-7.95117 -5.16309 -15.1865 -9.1084l-17.2803 -8.20703
l-30.0771 -8.22754q-9.67188 -2.5127 -16.126 -7.08105q-6.4541 -4.56738 -9.88672 -5.66602q-3.43164 -1.09766 -9.39258 -1.20215t-20.668 1.65137q-14.7041 1.75488 -40.748 8.2041l-31.1045 8.44043q-22.5459 5.70508 -35.29 10.2412l-90.3154 26.5088
q-13.8037 3.84766 -22.7334 4.83203q-8.92871 0.982422 -22.6006 1.14844l-16.4814 -0.151367q-11.9248 -0.208008 -12.9844 -0.896484q0.316406 -2.80957 4.7373 -14.2568q4.41992 -11.4502 5.05273 -17.0674q0.318359 -2.80859 -0.0537109 -4.55664
q-0.37207 -1.74902 -4.05469 -1.87891l-17.4111 -4.52539l-5.30078 -3.44238q-4.24121 -2.75293 -6.67773 -1.32129z

M149.532 340.337q1.74805 -0.371094 1.93457 0.501953q0.185547 0.875 -1.69336 4.92969q-2.19727 6.86426 -7.09277 22.5273l-12.6211 43.8037
l-1.87891 4.05371q-1.87891 4.05371 -16.2969 58.751q-14.4189 54.6943 -26.3936 123.036q-1.08105 12.1094 -2.74023 34.3936l-3.95312 50.1865l-28.7783 -2.10742l-0.556641 -2.62402q-3.02832 -18.5449 1.09961 -61.458q4.12988 -42.9141 10.9912 -77.2695
q6.8623 -34.3574 18.3477 -70.6104q11.4834 -36.252 25.7764 -72.1885l14.293 -35.9355q8.33887 -20.9629 9.5293 -23.9561l5.98926 2.38184z

M150.287 373.988q1.06152 0.688477 4.74512 0.819336l11.2344 1.26758q16.666 1.02637 31.0273 -0.199219
q14.3604 -1.22461 29.9131 -5.44434l29.3555 -8.06641l42.0986 -12.6045q10.3057 -3.10449 41.4092 -11.543q31.1055 -8.43848 65.8916 -16.748q25.3555 -5.3877 34.5635 -5.06152t15.7539 5.33301q16.7773 10.1416 44.7354 16.9922q5.80176 1.50781 10.2949 3.29395
q4.49121 1.78711 15.9668 8.4873q15.3447 7.70312 24.8496 18.0195q9.50391 10.3164 23.8203 34.6885q2.67871 4 5.35645 7.99902q12.8311 17.3779 7.6748 40.4053q0.37207 1.74902 -1.32129 6.67773q-1.69531 4.92969 -11.3887 15.2139q-5.37695 4.79883 -17.125 11.8643
q-11.749 7.06641 -21.8682 11.0459q-7.49707 3.4209 -19.459 7.33398t-21.5801 5.95898q-6.11914 1.29883 -9.61621 2.04395l-15.4219 0.535156q-8.24023 -0.0761719 -17.3838 -2.24316q-9.1416 -2.1709 -16.1914 -5.24023l-13.2256 -6.3291
q-5.98828 -2.38086 -6.17285 -3.25488q-0.186523 -0.875 4.55566 -0.0566406q4.74414 0.820312 4.53125 -2.33203q-0.212891 -3.1543 -3.38281 -11.6172q-3.1709 -8.46582 -7.4668 -15.7764q-2.8623 -4.875 -6.41504 -8.68848t-9.03906 -8.13184
q-1.05957 -0.686523 1.43164 2.4375l4.98438 6.25098q14.3945 16.1309 17.7393 31.8691q1.61719 3.31152 -3.99902 2.67773q-13.1699 -1.76953 -18.1914 -3.90039q-5.02344 -2.13086 -9.19824 -6.72754q-4.1748 -4.59473 -6.16406 -9.65527
q-1.98926 -5.05957 -0.482422 -10.8633q2.19629 -6.86328 6.41992 -12.7881q4.22461 -5.92383 4.91309 -6.9834l6.75488 -6.91797q5.00391 -6.54688 10.9385 -8.72168q7.49805 -3.42285 15.208 -3.69043t11.5791 0.737305q8.98438 3.57324 12.165 5.63965l11.1582 9.50684
q4.55859 -0.0546875 -0.770508 -5.77539q-5.32812 -5.7207 4.73828 -14.2578q3.8125 -3.55176 10.4355 -6.78711l8.55762 -2.7334q-1.24707 -1.56348 -5.27344 -1.16309q-4.02637 0.398438 -8.71582 4.13672q-0.874023 0.186523 -1.05957 -0.6875l7.96582 -22.7119
l4.76367 -11.9785l10.2725 -20.46q2.38379 -5.98828 0.632812 -5.61719l-13.7129 25.7607q-6.1416 14.0986 -9.02734 22.0225l-4.02051 15.4756q-0.6875 1.06055 -1.5625 1.24609q-6.25195 4.98438 -9.32227 12.0342q-0.50293 1.93359 -2.71582 0.119141
q-2.21387 -1.81348 -7.3291 -4.38184q-5.11426 -2.56836 -13.3555 -2.64355q-8.24023 -0.0761719 -16.1084 1.5957q-7.87012 1.67285 -13.2471 6.47168q-3.99902 2.67676 -7.375 6.13672q-3.37793 3.45996 -9.75977 12.127q-3.44238 5.30078 -6.5127 12.3496
q-3.07129 7.04883 -0.180664 14.2031q2.8916 7.15234 6.90918 13.1523q4.0166 5.99902 7.54102 7.53613q3.52344 1.53516 1.33789 1.99902q-2.18555 0.464844 -7.4043 3.8584q-5.21777 3.39453 -10.25 7.66211q-5.0332 4.26758 -9.48145 13.4375
q-4.44629 9.16992 -5.14648 16.6299q-0.699219 7.45898 3.15918 14.8623q3.85938 7.4043 10.0615 12.9404q6.20312 5.53418 12.3789 8.79102l7.41895 4.82031l-2.25 2.30566l-5.56348 3.92383q-2.25098 2.30664 -5.19043 5.67285l-4.31641 5.48633
q-5.50879 8.48145 -4.31055 20.5645q1.19824 12.0811 9.3623 20.3984l7.60645 5.69336l26.1318 15.4629q4.24121 2.75391 2.30566 2.25098l-5.43164 0.242188q-0.185547 -0.875 -8.74219 1.85742q-2.4375 1.43066 -3.46973 3.02148t-1.5625 1.24707
q-0.530273 -0.345703 -3.39453 -5.21875q-6.78711 -10.4375 -11.3066 -14.5029t-0.966797 -0.25q5.85742 6.06348 -0.186523 -0.875l-7.28906 -8.50293l-5.85938 -6.06543q-3.36621 -2.93945 -3.80371 -2.84766q-0.436523 0.09375 3.3291 7.06152
q3.76465 6.9668 11.4268 17.2178q4.79785 5.37695 11.7715 16.6885q3.23633 6.62207 4.16504 10.9941l2.78711 13.1143q2.36133 6.81055 5.81055 16.585q3.44824 9.77637 6.49805 15.5244l2.1748 5.93457q1.06055 0.689453 1.43262 2.43652q1.29883 6.12109 6.74902 14.5576
q5.44727 8.4375 13.7998 17.6289q6.04297 6.93945 9.93945 10.2227q3.89648 3.28516 11.7539 8.01074q7.85938 4.72754 12.2852 8.35547q4.42773 3.62793 10.2852 9.69238l9.22461 9.00586q11.5312 11.2559 22.5869 26.7256q11.0557 15.4688 17.7129 29.5898
l5.22363 11.6826q13.6855 29.9893 14.2559 62.7656q0.295898 9.98926 -0.180664 14.2041q-0.474609 4.21094 -1.47949 8.08203q-3.20215 10.7314 -14.792 16.3926q-11.5908 5.66309 -24.9453 3.01855l-7.73926 -2.00977q-0.874023 0.185547 1.37793 -2.12109l4 -2.67773
q2.4375 -1.43262 1.72168 -2.65039q-0.716797 -1.21875 -2.52051 -5.4043l-4.85254 -9.93555q-2.1748 -5.93262 -5.03809 -10.8076q-2.86426 -4.87402 -5.1709 -7.12598l-2.12012 -1.37695q-1.93457 -0.501953 -5.67285 -5.19043l-13.5195 -16.3164
q-11.9033 -13.0059 -27.4238 -27.9834q-15.5195 -14.9775 -25.4326 -22.9219l-10.9727 -8.63379q-9.72754 -7.07031 -18.6465 -12.4854q-8.91797 -5.41504 -13.8477 -7.10938l-26.0771 -10.9053q-4.92969 -1.69336 -9.23535 -2.60645q-4.30664 -0.912109 -13.0674 -7.73047
q-8.75879 -6.82031 -17.2949 -16.8848q-12.0889 -13.8809 -34.3516 -28.3389q-9.35742 -5.32129 -16.0898 -11.2002l-12.0332 -9.32324q-7.79297 -6.56641 -13.4648 -11.7588q-5.6709 -5.19043 -32.0449 -26.084l-39.6533 -31.7803q-14.5244 -12.4482 -41.4775 -23.168
q-10.918 -4.07715 -17.7832 -6.27344q-6.8623 -2.19629 -13.1689 -1.76855l-2.80859 -0.317383l4.25 -40.1982q2.53418 -22.4707 11.2852 -67.2803q8.75195 -44.8096 25.5791 -103.217l17.9648 -65.958z

M431.22 337.12q-0.6875 1.05957 0.0546875 4.55762
q1.48633 6.99512 0.591797 19.9785q-0.0761719 8.24121 -1.21289 15.793q-1.13672 7.55078 -3.96582 20.0322l-2.83105 12.4814q-0.316406 2.80957 0.90332 2.09277q1.21777 -0.71582 4.2334 -12.3223l3.65039 -17.2246q2.83008 -12.4805 2.91699 -27.1221
q0.0859375 -14.6387 -2.40527 -17.7637q-1.24707 -1.56445 -1.93555 -0.50293z

M565.041 429.3q0.186523 0.874023 1.43262 2.4375l1.24609 1.5625l1.98926 5.05957q0.240234 5.43262 1.80371 4.1875q1.56152 -1.24805 -0.613281 -7.18164
q-2.17578 -5.93457 -4.98438 -6.25098zM469.589 466.038q-1.00488 3.86816 -0.552734 12.4541q0.454102 8.58496 3.13281 12.584q3.92383 5.56348 1.8418 0.0654297q-2.08203 -5.49609 -2.51074 -11.8027l-0.424805 -6.30664q0.130859 -3.68262 0.633789 -5.61719
q0.130859 -3.68359 -2.12012 -1.37695zM595.078 463.124q1.42969 2.43652 4.29395 7.31152q11.5859 15.8145 16.8936 34.333q5.30664 18.5205 2.47656 31.001q-2.19629 6.86328 -8.57812 15.5303q-6.38281 8.66699 -12.8193 12.7773q-7.12598 5.16797 -15.8418 9.30566
t-16.585 5.81055q-7.86816 1.67285 -14.6123 2.19238q-6.74219 0.519531 -19.541 0.49707l-44.8857 -0.510742l-29.2793 -0.171875l-21.4102 -1.84668l-20.0322 -3.96582l-12.2969 -1.95605q-1.93359 -0.501953 3.31055 -1.61816q22.7324 -4.83203 -0.624023 -37.334
l-4.79785 -5.375q-3.73926 -4.69043 -6.91895 -6.75391l-5.48633 -4.31836q-4.05469 -1.87891 -4.49219 -1.78711q-0.4375 0.0927734 2.92871 3.03223l7.60645 5.69531q3.55371 3.81348 5.86035 6.06445l2.49121 3.12598q8.03418 12 11.083 17.748t1.35547 10.6777
q-2.19629 6.86328 -13.749 8.40527q-1.74805 0.37207 -6.8623 -2.19531q-5.11621 -2.56836 -8.48242 -5.50879q-0.874023 0.185547 -6.20215 -5.53516t-7.92969 -17.9609q-1.30176 -6.12109 2.11426 -13.7012q3.41504 -7.58008 10.3271 -15.9014
q6.91211 -8.32324 19.0879 -9.08398q12.1748 -0.759766 17.9775 0.748047l16.4062 8.39258q5.98828 2.38184 16.3496 3.83496q10.3604 1.45312 17.7256 1.71484l9.11621 -0.108398q9.80273 -1.16992 27.9785 -5.94727q18.1748 -4.77832 30.7314 -10.1885
q19.1797 -8.64551 32.7422 -17.9258q13.5645 -9.2793 19.0713 -17.7598q1.87988 -4.05566 3.49902 -0.744141zM461.668 536.258q-0.129883 3.68359 0.204102 9.55371q0.333008 5.86816 1.57812 7.43066q1.24707 1.56348 0.448242 -6.49121l-0.667969 -11.7383
q-0.185547 -0.875977 -1.5625 1.24512zM324.826 571.742q0.875 -0.186523 -2.62207 0.556641l-15.3662 5.09375q-15.3672 5.09473 -24.6777 10.7295q-9.31152 5.63379 -17.4424 14.6738l-5.00488 6.54688q-2.75391 4.23926 -2.91309 5.64453
q-0.15918 1.40332 3.4707 -3.02246q7.75879 -10.7881 19.8506 -18.3838q12.0938 -7.5957 32.7061 -13.8057q11.1797 -3.29004 14.3984 -5.34473q3.21973 -2.05469 1.19141 -2.99414q-2.02832 -0.94043 -3.59082 0.305664zM595.55 516.938
q0.185547 0.874023 0.743164 3.49805q2.67773 4 2.22949 10.4922q-0.260742 7.36621 2.12109 1.37598q0.632812 -5.61621 -1.54297 -11.5518q-2.17383 -5.93359 -3.55078 -3.81445zM257.111 597.102q-19.8691 9.70703 -31.8418 20.0176q-11.9717 10.3125 -21.4248 26.0293
q-9.13672 12.9082 -8.76367 14.6572q0.371094 1.74805 2.68848 -2.39941q2.31641 -4.14844 6.88379 -10.6025q4.56934 -6.45312 8.19629 -10.8799q9.50781 -11.1592 19.415 -18.291q9.90625 -7.13281 27.1514 -16.2803l7.31152 -4.2959q0.875977 -0.185547 0.94043 -2.02637
q0.0654297 -1.8418 -10.5566 4.07129zM418.02 580.261q3.86914 1.00684 5.71094 1.07129q1.8418 0.0654297 12.2031 1.51953q15.9775 2.08594 30.71 2.61035l12.7979 0.0195312q19.29 0.469727 40.8594 0.911133t31.8086 -0.822266q10.2402 -1.26172 20.1094 -4.27246
q9.86914 -3.0127 20.4922 -8.92676l5.74805 -3.04785l2.30664 2.25098q10.4707 10.5684 10.0674 28.0156q-0.405273 17.4502 -11.2344 35.2852q-4.63379 8.29492 -30.6221 19.3027q-14.3057 5.78223 -36.9727 8.77344q-22.667 2.99023 -41.9561 2.52051l-30.3398 -0.861328
l-16.8525 -1.90039q-4.55762 0.0556641 -10.2021 -2.85742q-5.64551 -2.91309 -11.8203 -6.16992l-8.48145 -5.50684q-3.36816 -2.93945 -3.11523 -3.90723q0.25 -0.967773 2.87305 -1.52539q6.99609 -1.48535 8.31836 -8.16406q-0.666992 -11.7383 -8.50391 -29.2627
q-7.83887 -17.5234 -12.0234 -15.7197q-1.56445 1.24512 3.0498 5.74805l3.36621 2.94043l3.79297 9.24414q7.21289 16.7441 7.7334 23.4863q0.518555 6.74414 -3.48145 9.42188q-1.5625 1.24609 -4.18555 1.80371l-3.49707 0.743164q-2.80957 -0.316406 -8.20215 -4.19629
q-5.39355 -3.87988 -7.88574 -7.00488l-2.49219 -3.12598q-2.67871 -4 -4.69531 -11.3389t-0.322266 -12.2686q1.69336 -4.92773 5.91699 -10.8525q4.22266 -5.92383 10.6611 -10.0332l3.81445 -3.55273q2.43652 -1.43066 4.37109 -0.928711zM464.908 615.986
q-2.75391 4.24121 -2.48633 11.9512t3.13281 12.5859q2.86328 4.87305 1.21777 -0.716797q-1.64648 -5.58984 -1.91211 -13.3008q-0.269531 -7.71094 1.20117 -9.39355q1.46973 -1.68359 0.50293 -1.93555q-0.96875 -0.25 -1.65625 0.80957zM594.451 614.952
q0.743164 3.49707 0.425781 6.30566q-1.69336 4.92969 -0.0390625 4.12109q1.65723 -0.80957 2.22559 -4.58496q0.568359 -3.77734 -0.863281 -6.21289l-0.558594 -2.62305q-1.43164 -2.43848 -1.19043 2.99414zM419.008 662.296q1.74805 -0.37207 6.49219 0.447266
l13.541 3.51855q5.61816 0.633789 21.4102 1.8457l27.7168 1.41992q24.0332 1.28711 48.3555 -2.51172q24.3232 -3.79883 40.377 -9.95312q6.99512 -1.4873 12.7441 -4.53516q1.5625 -1.24707 4.99414 -0.148438q3.43262 1.09863 5.73828 3.34961
q13.8916 18.0645 8.3623 39.3447q0.371094 1.74902 -2.07617 9.57812q-2.44824 7.83203 -13.8887 18.4883q-5.56348 3.92383 -18.3066 8.46094q-12.7422 4.53516 -31.6348 8.09375q-18.8906 3.55859 -36.4316 2.71777q-17.541 -0.839844 -31.7705 -3.29883
q-25.8379 -5.47363 -35.6943 -8.8623l-11.9785 -4.76367q-2.80957 -0.316406 -2.99707 -1.19043l-8.88574 -24.6123l-8.94141 -29.1689l1.37793 -2.12109q3.25586 -6.1748 11.4961 -6.09863zM436.845 673.126q1.06055 0.688477 1.96289 2.78125
q0.899414 2.09277 3.23438 6.62207q2.33301 4.53027 2.38867 9.08789q1.8584 8.74316 -1.39746 14.918q-3.20312 10.7334 -12.1318 11.7168q-5.24609 1.11523 -4.18457 1.80371q1.05957 0.688477 3.68262 0.130859q2.62207 -0.557617 5.24512 -1.11621
q7.49805 -3.41992 10.2617 -14.0586q2.76562 -10.6406 -1.58594 -22.5088l-3.42188 -7.49805q-1.43066 -2.43652 -2.30566 -2.25098zM482.694 695.363q-1.87988 4.05566 -1.89062 10.4541q-0.0107422 6.39941 1.79297 10.585q4.79785 5.37695 3.31152 -1.61816
q-1.61719 -3.31152 -2.29492 -8.64941q-0.678711 -5.33984 0.326172 -9.20801q1.00586 -3.86914 -1.24512 -1.56348zM595.646 685.062q0.185547 0.875 -0.130859 3.68262l0.240234 5.43262q0.0546875 4.55664 1.61816 3.3125q1.5625 -1.24805 -0.110352 -9.11523
q-1.11426 -5.24707 -1.61719 -3.3125zM372.761 767.163q-7.62793 7.10449 -25.3389 14.0684q-17.709 6.96191 -28.5742 7.44336q-3.86816 -1.00488 -3.24414 -0.223633q0.62207 0.78125 1.49512 0.595703q10.1768 0.579102 24.7607 -3.8916
q14.5859 -4.47168 25.0225 -11.2598q7.31152 -4.29492 7.81348 -6.22949q0.50293 -1.93359 -1.93457 -0.50293zM495.424 849.836q-4.13086 6.36133 -11.415 12.9346q-7.2832 6.5752 -10.1582 8.09961t0.807617 1.65625q5.06152 -1.98926 14.1592 -10.7773t9.23047 -12.4707
q-0.373047 -1.74902 -2.62402 0.557617zM500.871 952.854q1.61914 3.3125 3.42285 7.49707l1.80371 4.18652l5.54004 8.87305q0.1875 0.875 -2.93945 3.36621q-3.125 2.49316 -4 2.67871q-0.874023 0.186523 -2.7334 -8.55762q-2.60059 -12.2393 -6.02344 -19.7373
q-0.370117 -1.74902 0.318359 -2.80957q0.688477 -1.05957 2.12109 1.37695z"/>
    </symbol>

    <symbol id="uth-sol" viewBox="-10 0 1052 1024">
      <path fill="currentColor" d="M493.919 310.64q-2.16016 1.08105 -74.5732 1.08105h-71.335l-7.56445 1.08008q-7.56543 2.16016 -15.1318 4.86328q-7.56445 2.70117 -10.8096 4.86328l-6.4834 4.32227q-11.8896 6.48633 -24.8584 16.2139l-70.251 51.8779q-7.56738 5.40527 -11.8877 8.64453
l-10.8096 9.72949l-12.9697 8.64453q-12.9688 9.72656 -28.1016 24.3193q-15.1299 14.5908 -21.6152 18.374q-6.48535 3.78125 -25.9385 7.02441l-19.4541 4.32324l-1.08105 -27.0205v-28.6406q0 -8.10742 -1.62109 -11.8896q-1.62109 -3.7832 -2.70215 -4.32129
q-1.08203 -0.542969 -6.48633 1.62109l-38.9082 12.9688q-7.56445 3.24121 -6.48438 4.32324q-1.08008 4.32324 -1.08008 31.3418l2.16113 119.97q1.08105 48.6357 3.24316 78.8984q2.16016 30.2637 9.72754 75.6572l5.40234 39.9893q5.4043 36.7461 10.2686 61.0645
q4.8623 24.3164 8.10645 25.3975l3.24316 -2.16113q3.24023 -2.16016 12.9678 -5.94434q9.72656 -3.78223 15.1309 -4.86426q9.72754 -2.16016 9.72754 -4.32227l-2.16113 -33.5068q0 -2.15918 2.16113 -2.7002q2.16211 -0.539062 11.8906 -0.539062
q18.3721 0 34.0439 1.08008t32.9639 5.40332l56.2002 11.8896l25.9404 4.32324l42.1504 6.48535q19.4551 2.16016 30.2637 3.24023l25.9385 1.08301q28.1016 2.16016 58.3633 1.0791l62.6865 -1.0791q5.4043 -1.08301 10.8066 -2.16309l32.4258 -5.40527h36.7461
q27.0205 -1.08008 36.208 -0.538086q9.18555 0.538086 27.5586 3.7832q12.9707 1.08105 28.6416 0.539062q15.6729 -0.539062 37.2871 -2.70117l41.0713 -5.40527q8.64648 0 15.1309 -1.08105l11.8896 -3.24121q17.292 -4.32324 30.2627 -9.72852
q12.9697 -5.40332 19.4551 -9.72656q11.8867 -7.56543 15.1289 -18.9131t3.24219 -12.4287l10.8096 1.08105l59.4434 4.32227q6.48438 0 14.0508 1.08008q38.9082 7.56738 59.4434 -20.5332l3.24219 -5.40527q2.16211 -3.24219 3.78223 -9.18652
q1.62207 -5.94434 2.16211 -11.3496q0.541016 -5.40234 -0.540039 -7.56543q-2.16211 -10.8076 -14.0518 -18.3721q-7.56543 -5.40527 -14.0498 -8.10645q-6.48438 -2.70312 -17.293 -5.4043q-10.8066 -2.70117 -27.5596 -4.8623q-16.752 -2.16211 -44.8525 -5.4043
q-5.40527 0 -11.8906 -1.62109q-6.4834 -1.62207 -11.8867 -3.7832l-4.32324 -1.08301l17.291 2.16309q24.8604 4.32422 59.9844 8.64551q35.1279 4.32227 51.8789 5.94531q16.7529 1.62109 24.8584 -2.16113q8.10645 -3.78418 19.9951 -17.835
q5.4043 -6.4834 8.10645 -14.0498q2.7002 -7.56543 1.08008 -14.0508q-1.62207 -6.48438 -7.56445 -12.4277q-5.94531 -5.94531 -23.2383 -16.7529q-9.72656 -5.4043 -23.2373 -11.8877q-13.5107 -6.48438 -17.833 -7.56641v-0.540039v-0.542969
q5.4043 1.08301 11.8916 -6.48242q6.48242 -7.56543 8.64258 -16.2119q0 -5.40527 -4.32227 -15.1328q-4.32031 -9.72559 -12.9697 -20.5332q-4.32227 -6.48438 -12.4297 -11.3496q-8.10449 -4.8623 -24.3164 -10.2676l-20.5361 -7.56543
q-7.56543 -4.32227 -16.752 -7.56543q-9.1875 -3.24219 -14.5918 -3.78223q-5.40234 -0.541016 -12.9678 -3.78418q-7.56543 -3.24219 -18.915 -9.18555q-11.3486 -5.94531 -25.3975 -11.3477q-14.0508 -5.40527 -21.6162 -7.56641l-29.1846 -7.56543
q-7.56348 -2.16211 -15.6699 -3.7832q-8.10449 -1.62012 -17.835 -3.78223l-44.3105 -11.8896q-17.293 -4.32227 -29.1807 -6.48438l-23.7793 -3.24219q-10.8076 -1.08203 -22.6963 -3.24121l-3.24316 -1.08203l9.72754 -2.16211q7.56641 -3.24121 11.8887 -5.40332
l35.668 -16.2119q4.32227 -1.08105 12.4297 -9.72754q8.10547 -8.64648 13.5098 -21.0752q5.40234 -12.4297 4.8623 -24.3174q-0.539062 -11.8896 -1.62207 -12.9717q-2.16016 -5.40137 -3.24023 -6.48438l-3.24316 -2.16211q-1.08105 -1.0791 -4.32422 -1.0791
l-67.0068 5.40332q-3.24512 0 -12.9707 -2.16211q-14.0518 -3.24121 -51.8779 -7.02539q-37.8291 -3.78223 -47.5566 -2.7002z

M394.484 316.042q7.56738 1.08203 17.2939 1.08203h16.2119h18.374l68.0889 2.16113l47.5576 4.32422q10.8076 1.08105 19.9961 2.7002
q9.18457 1.62207 12.4277 2.70312q3.24023 1.08105 4.32129 2.16016l1.08105 1.08301l1.08105 6.48535q0 7.56348 3.78223 12.4277q3.78418 4.86328 12.9707 9.18652q9.1875 4.32227 21.6162 4.32227t19.9941 -4.32227l8.64551 -5.40332q3.24414 -2.16113 7.02539 -5.94336
q3.7832 -3.78613 3.7832 -4.86426q0 -1.08105 0.542969 -0.541016q0.538086 0.541016 0.538086 4.8623l-1.08105 7.56641q-1.08008 3.24219 -2.16113 5.40625l-3.24316 5.40234q-5.4043 12.9688 -17.292 21.0742q-11.8877 8.10742 -32.4248 13.5098l-21.6143 7.56836
q-9.72852 5.40332 -16.2129 5.94336q-6.48535 0.540039 -19.4541 -2.7041q-25.9395 -6.48242 -49.7148 -14.5889q-23.7793 -8.10547 -50.8008 -19.9941q-51.877 -22.6973 -103.755 -22.6973q-9.72754 1.08008 -12.9697 1.62109q-3.24316 0.541016 -3.24316 1.62109
q-2.16113 4.32324 5.40625 4.32324q23.7773 -3.24316 55.6592 2.16016q31.8848 5.40332 58.9023 17.2949q27.0215 11.8877 35.667 15.1289l9.72754 3.24512q9.72754 5.40332 23.2363 9.18555q13.5117 3.7832 27.5625 7.02441l10.8076 3.24414l48.6357 8.64551
q11.8896 2.16211 29.1807 5.40527l10.8086 2.15918l57.2812 15.1289l19.4561 4.3252q8.64551 2.16211 19.4531 4.86523q10.8086 2.70117 16.2129 3.78125q18.374 3.24414 49.7158 19.4561q16.2129 8.64551 23.2363 11.3467q7.02539 2.7041 12.4297 3.78418
q5.40527 1.08008 14.0498 3.78223q8.64746 2.70117 16.2139 5.94531l21.6152 8.64648q19.4551 6.48438 27.0195 11.8877q7.56543 5.40234 15.1318 17.2939q3.24121 4.32324 4.86328 8.10449q1.62402 3.78418 2.70117 8.10547l1.08105 4.32324l-3.23926 6.48438
q-3.24316 5.40527 -5.40625 7.56738q-2.16211 2.16113 -5.4043 4.32227q-3.24121 2.16211 -6.4834 2.16211l-3.24414 1.08105q-2.16113 0 -13.5098 -2.70312q-11.3477 -2.70117 -20.5352 -4.32324q-9.18652 -1.62012 -21.0762 -2.70117q-8.64453 0 -21.6133 -2.70215
q-12.9727 -2.70312 -27.0234 -7.02539l-37.8271 -8.64551l-38.9082 -7.56738q-21.6162 -3.24219 -44.3125 -5.40234q-22.6963 -2.16211 -48.0938 -6.4873q-25.4004 -4.32129 -38.3691 -8.64355l-19.4561 -7.56641l-10.8066 -4.32422q-5.4043 -2.16016 -5.94531 0
q-0.540039 2.16309 7.02441 5.40625q7.56836 3.24121 24.8604 10.8066q15.1299 5.40527 41.6094 9.72852q26.4805 4.32324 52.4189 6.48242l17.2949 2.16309l17.291 3.24316l63.7656 11.8867l56.2021 15.1318l37.8291 4.32324q6.4834 1.0791 16.2119 3.24414
l16.2129 4.32227q14.0508 3.24219 35.665 14.5908q21.6162 11.3477 31.3447 22.1553q7.56445 7.56641 4.32129 18.9141q-3.24316 11.3496 -16.2119 22.1572q-5.4043 4.32227 -11.3477 5.94238q-5.94434 1.62207 -17.832 0.542969q-17.2949 -1.08203 -55.6631 -5.94629
q-38.3691 -4.8623 -58.9043 -8.10547l-19.4531 -3.24121q-16.2119 -1.08105 -31.8838 -3.7832q-15.6719 -2.70312 -32.9639 -7.02539q-12.9688 -3.24316 -25.9395 -4.32422l-23.7783 -3.24023q-31.3428 -4.32422 -62.1455 -3.78516q-30.8018 0.541016 -54.5791 5.94531
l-18.375 4.32422q-11.8887 2.16016 -11.8887 3.78125t11.8887 -0.539062l18.375 -3.24219q51.8779 -9.72852 119.969 0l25.9385 3.24219l63.7686 12.9678q4.32129 1.08203 18.3711 6.48633q14.0508 5.40332 24.3193 7.56445q10.2676 2.16211 34.0459 4.32227
l21.6152 2.16309q14.0488 2.16113 26.4785 5.4043q12.4307 3.24316 18.916 6.48535q6.48242 3.24219 11.3467 7.02441q4.86426 3.78418 5.94434 4.32227q1.08105 0.541992 4.8623 6.48633q3.78418 5.94336 -2.16113 22.1562q-5.94238 16.21 -18.9141 23.2354
q-12.9697 7.02637 -23.7773 8.10742h-7.56445l-19.4551 -3.24121l-63.7656 -4.32324l-39.9912 -6.48633l-36.748 -5.4043q-23.7744 -2.16113 -34.0439 -3.78125q-10.2695 -1.62207 -24.3184 -5.94531q-18.373 -4.32324 -30.8008 -5.94434
q-12.4297 -1.62207 -29.7227 -1.62207q-12.9688 0 -20.5352 1.08105l-32.4238 3.24316q-31.3428 3.24219 -36.748 7.56543q-1.08008 2.16211 1.08203 2.16211l9.72559 -2.16211q5.40527 -1.08203 11.8887 -2.16113l28.1006 -3.24219q30.2627 -3.24316 51.3389 -2.16211
q21.0752 1.08105 44.8545 7.56543q16.2119 4.32227 30.8008 6.48633q14.5908 2.15918 45.9355 5.40234l11.8887 2.16309q1.08105 0 0 2.16016q-4.3252 6.48438 -3.24219 17.293q1.08008 10.8076 6.4834 15.1328q5.4043 4.32129 1.08008 0q-4.32129 -4.3252 -4.8623 -13.5117
q-0.540039 -9.18652 1.62207 -15.6709l1.08008 -2.16113q0 -1.08203 1.08008 -1.62109q1.08008 -0.540039 0.541016 -1.08301l-0.541016 -0.538086l30.2637 5.40332v2.16211q1.0791 1.0791 0 3.24121l-3.24219 6.48633q-5.40527 11.8867 -16.2139 19.4531
q-4.32324 3.24316 -9.72754 5.40332q-5.40234 2.16211 -20.5332 6.48535l-11.8887 3.24121q-7.56641 3.24316 -12.4297 4.3252q-4.86426 1.08008 -11.3486 1.08008q-15.1328 0 -29.1816 2.16309q-36.7461 5.40137 -55.6621 5.94336q-18.9131 0.538086 -47.0137 -3.78418
q-19.4551 -2.15918 -54.5811 -1.62012q-35.125 0.539062 -54.5801 3.7832q-14.0488 2.15918 -34.585 3.24219l-20.5352 1.0791q-9.72852 1.08301 -31.8838 0.541992q-22.1562 -0.541992 -37.2861 -1.62109l-29.1836 -2.16309q-15.1309 -1.0791 -37.2871 -2.70117
q-22.1582 -1.62207 -43.7725 -4.86328l-19.4551 -3.24316l-81.0586 -17.292l-10.8096 -1.08105q-18.373 -1.0791 -29.7197 -1.0791h-19.9961l-2.16113 1.0791l-8.64746 -58.3633q-7.56445 -56.2021 -10.8066 -118.889q-3.24316 -62.6855 -1.08105 -123.21v-16.2129
q1.08105 -3.24121 3.24219 -2.16016l37.8281 -6.48535q4.32227 -1.08105 7.56641 -2.70312q3.24121 -1.61914 10.2656 -7.56445q7.02734 -5.94531 13.5098 -11.8887q6.48535 -5.94531 14.5908 -12.9707q8.1084 -7.02344 14.5918 -10.2666l14.0518 -10.8076l20.5342 -16.2129
l45.3926 -32.4229l25.9395 -21.6182q7.56445 -5.40137 17.293 -11.3467q9.72656 -5.94434 15.6709 -9.18555q5.94531 -3.24219 14.0508 -5.40527q8.10645 -2.16113 15.6738 -3.24316h16.209h27.0195z

M675.494 324.69q0 1.0791 2.16113 5.40332l2.16113 6.48535
q0 2.16211 -3.78125 7.02441q-3.7832 4.8623 -10.2686 10.2656q-10.8076 7.56934 -18.373 9.18945q-7.56641 1.61914 -14.0498 -0.541016q-28.1006 -3.24316 -31.3438 -23.7764q-1.08203 -6.48535 0.539062 -7.02734q1.62207 -0.541016 9.18555 -1.62012l48.6377 -5.40332
q11.8896 -3.24219 15.1318 0z

M77.8125 418.719q-1.08105 3.24121 -2.16309 17.292l-2.16016 24.8594l-3.24414 50.7979q-1.08008 15.1309 -1.08008 49.7168t1.08008 52.959q2.16211 38.9082 4.86621 69.7109q2.70117 30.8057 7.02441 58.9033l7.56348 52.9609
q2.16309 15.1289 3.24316 35.666q1.08105 1.0791 -6.4834 3.24219q-9.72754 4.32324 -17.2939 9.72461l-3.24023 1.08301l-4.32422 -28.1006l-11.8896 -96.1924q-6.48535 -42.1514 -9.18652 -71.8721q-2.70117 -29.7236 -3.7832 -83.7627
q-2.15918 -57.2812 -4.32324 -92.9492l-4.32129 -45.3926h6.48535q7.56348 -1.08105 18.9141 -3.7832q11.3457 -2.70215 19.9932 -4.86328q5.40332 -2.16211 4.32324 0z

M738.181 491.132q-2.16309 6.48633 -1.08301 19.4541q1.08301 12.9707 3.24414 13.5117
q2.16113 0.539062 0 -7.02539q-1.08105 -5.4043 -1.08105 -14.0518q0 -8.64453 0.540039 -11.8887q0.541016 -3.24316 -1.62012 0zM751.149 503.021q-2.16211 6.48535 -1.08105 12.9707q1.08105 6.48438 2.16211 7.56543q1.08105 1.08008 0 -3.24414v-8.64453v-8.64746
q1.08105 -6.48438 -1.08105 0zM863.552 530.04q-4.32324 4.32227 -7.02246 14.0518q-2.70508 9.72559 -1.08301 10.8076q1.62207 1.08105 1.62207 -2.16309q1.08105 -7.56445 3.24219 -14.0498q2.16016 -6.4834 4.86426 -8.10547q2.7002 -1.62109 1.08008 -2.16113
q-1.62109 -0.539062 -2.70312 1.62012zM874.361 534.362q-4.32227 7.56836 -3.24414 9.72949q1.08105 2.16211 2.16113 -1.08105q1.08301 -3.24219 3.24414 -8.64844q0 -2.15918 -2.16113 0zM925.158 538.687q-10.8076 4.32422 -16.2119 12.9697
q-5.40332 8.64746 -2.16211 19.4551q1.08105 4.3252 4.32324 8.10547q3.24316 3.7832 3.24316 1.62207l-1.08105 -4.32324l-3.24219 -5.4043q-1.08105 -1.08203 -1.62109 -4.8623q-0.541016 -3.78516 0.540039 -7.02734q3.24023 -10.8066 11.8877 -16.2109t19.4541 -3.24219
q5.4043 1.07812 4.3252 -1.08203l-12.9717 -2.16113q-2.16016 1.08105 -6.4834 2.16113zM759.797 595.971q-1.08203 4.32227 -1.62305 10.2656q-0.540039 5.94629 0.541016 9.72852q1.08203 3.78125 1.08203 -7.02539q0 -7.56738 1.08105 -10.8086
q1.08008 -6.48438 -1.08105 -2.16016zM771.685 599.213q-2.16211 4.32324 -2.16211 16.21q0 11.8906 2.70117 13.5107q2.70312 1.62109 1.62305 -3.78027q-1.08008 -2.16406 -1.08008 -7.56836l1.08008 -16.2129q0 -3.24121 -2.16211 -2.15918zM959.746 640.281
q-9.73047 18.375 11.8867 33.5059q4.32324 4.32422 3.24219 2.16016l-7.56445 -7.56543q-14.0518 -12.9678 -7.56445 -23.7744q2.1582 -4.32617 12.9668 -14.0527q5.40625 -5.40137 9.72754 -8.10547q4.32422 -2.70312 3.24219 -3.24219
q-1.08105 -0.541016 -7.02441 3.24219q-5.94531 3.78223 -9.18652 7.02539zM904.621 621.908q-2.15918 3.24512 -5.40137 11.8887q-3.24316 8.64648 -2.16211 10.8105q1.08008 2.15918 2.16211 -3.24414l3.24219 -8.64648l3.24121 -8.64746
q3.24316 -6.48438 -1.08203 -2.16113zM914.351 626.231q-3.24316 6.48535 -4.32324 11.3486q-1.08105 4.86328 0 4.86328q1.08008 0 4.32324 -8.64648l3.24219 -10.8076q1.08008 -2.16113 -0.540039 -1.08105q-1.62305 1.08105 -2.70215 4.32324zM734.938 683.516
q-4.32227 7.56348 -6.48438 20.5342q-2.16309 12.9697 -0.540039 13.5098q1.62012 0.539062 1.62012 -3.7832q1.08203 -8.64648 3.24219 -16.751q2.16211 -8.10742 4.32227 -13.5098q2.16309 -5.4043 -2.16016 0zM741.424 699.726q-1.08203 4.32422 -2.16309 9.1875
q-1.08008 4.86328 0.540039 5.40332q1.62305 0.543945 2.16113 -7.02637q0.541016 -7.56445 1.62207 -7.56445t0.540039 -1.62012q-0.540039 -1.62207 -2.7002 1.62012zM922.996 711.616q-16.2119 18.373 -5.40332 34.583q5.40332 6.48535 18.9131 12.9707
q13.5098 6.4834 11.3486 5.40527l-19.4531 -7.56836q-9.72852 -4.32227 -14.0508 -10.8076q-4.32324 -9.72656 -2.16406 -20.5342q2.16406 -10.8047 10.2705 -15.1299q8.10547 -4.32422 19.9941 -5.40527l14.0488 -1.08008zM883.006 713.776
q-3.24121 3.24316 -4.86328 11.8887q-1.62012 8.64844 0.541992 7.56641q1.08008 1.08203 2.16016 -6.48535l1.08105 -7.56641q1.08008 -3.24121 2.70312 -4.86328q1.62012 -1.62012 0.540039 -1.62012q-1.08105 0 -2.16309 1.08008zM670.089 771.059
q0 6.4834 -4.32227 18.374q-4.32324 9.72656 -1.08203 7.02539q3.24219 -2.70312 5.94629 -14.5898q2.7002 -11.8906 1.08008 -12.9697q-1.62207 -1.08105 -1.62207 2.16016zM751.149 772.14v4.32227l-1.08105 7.56543q-1.08105 11.8916 2.16211 6.48535
q1.08105 -3.24023 1.08105 -10.8076q0 -7.56543 -2.16211 -7.56543z"/>
    </symbol>

    <symbol id="uth-la" viewBox="-10 0 868 1024">
      <path fill="currentColor" d="M68.1357 299.515q-16.2852 5.43652 -25.4795 13.5615q-4.7373 12.1826 -8.05273 87.4883q-3.31445 75.3066 -0.601562 122.509q8.26074 88.2393 20.2422 136.83q11.9834 48.5908 18.1475 51.4258q8.02441 2.54004 17.6846 3.39062q9.66211 0.851562 15.873 -2.03809
q11.0049 -2.69434 13.1309 -7.31836q2.12402 -4.62402 -0.571289 -15.6279l-9.36523 -47.1006l5.72266 0.0458984q12.2295 -0.984375 31.0127 0.328125q18.7842 1.31152 29.7422 4.33789q4.94141 1.12402 11.792 5.27832q6.84863 4.15527 12.8203 11.7822l17.4727 20.0957
q3.37695 3.27637 5.67676 5.76953l14.4365 12.9561q11.0586 9.67871 28.2832 22.1924l29.0654 21.1172q22.6074 16.4258 33.8604 21.3105l26.3701 10.1152l17.0762 11.584q13.9941 10.167 23.8301 18.1367l15.0723 10.9492q3.37598 3.27539 10.2754 10.7559l12.7256 14.1787
l22.3672 26.9424l12.4297 12.3213l23.5908 28.6514q5.8252 6.7002 13.3135 17.8975l7.63672 12.127q9.93652 14.6211 19.3311 19.8018q2.15332 1.56445 6.70312 3.22461q4.5498 1.66113 11.2021 1.56055q9.29395 -1.47168 13.5713 -4.53125
q4.2793 -3.05957 8.04297 -9.37207q9.0918 -14.7754 9.52344 -30.0859q0.432617 -15.3115 -6.76953 -42.75l-4.65625 -17.3604q-1.8125 -5.42969 -3.33105 -9l-3.47656 -9.92773q-3.33105 -9 -7.14941 -15.0635q-3.81836 -6.0625 -8.41797 -11.0508
q-3.37695 -3.27441 -7.04883 -8.41016q-1.51758 -3.57031 -4.74707 -5.91602l-7.83008 -7.33301q-11.0596 -9.68066 -21.4111 -20.9014q-10.3496 -11.2217 -14.3154 -18.2139q-6.41211 -10.415 -9.05762 -18.0938t-4.11719 -16.9727l-1.61914 -10.2217l1.02148 -11.5938
q1.27148 -4.01172 5.96289 -10.4707l23.4629 -32.2949q5.62305 -6.60645 13.3467 -14.9746q7.72656 -8.36719 10.7803 -13.1387q3.05566 -4.77051 3.91113 -5.38379q0.856445 -0.610352 5.01465 1.58789q14.335 6.30371 29.8662 8.13086t29.4707 -0.380859l7.43359 -1.17773
l10.6191 6.89258q16.4414 13.5898 23.292 17.7441q6.84961 4.15527 13.1855 5.05664q6.33496 0.902344 15.3096 0.432617q8.97656 -0.46875 17.1934 -2.72266q0.929688 -0.146484 1.0752 0.782227q0.101562 6.65234 4.48633 19.2939q4.38379 12.6436 11.3857 26.7754
q4.1123 7.92285 7.70898 12.5938q3.59863 4.66895 6.38574 4.22754q2.78711 -0.442383 -3.61621 7.24121q-3.91016 5.38184 -6.50098 10.0791q-2.59082 4.69629 -5.91211 13.7969l-4.59082 13.1123q-2.6875 7.09277 -2.07129 16.999q0.616211 9.9043 3.79883 17.9736
q1.37109 2.64258 1.66602 4.5l-0.829102 6.79883q-0.0927734 11.4463 4.46191 22.1572t11.6484 13.3955q12.1826 4.73926 20.3994 2.48633l5.42773 -1.8125q2.78906 -0.442383 13.25 -12.5781q3.12891 -4.30566 4.57324 -1.2002q1.44531 3.10547 8.48828 2.46582
q7.04297 -0.638672 12.1543 -1.44824t5.89355 -1.88574l1.71094 -1.22363q1.71191 -1.22461 3.88379 -11.5713q2.17188 -10.3457 1.70215 -19.3213q-0.46875 -8.97754 0.801758 -12.9883t5.32715 -8.46387q5.76953 -5.67773 8.87012 -16.1719
q3.10254 -10.4932 6.85645 -34.9043l5.66016 -30.4258q5.51172 -31.3584 5.77441 -44.7363q0.263672 -13.3789 -4.64062 -38.3232l-3.78027 -29.8857q-1.47266 -9.29297 -1.86719 -17.8037l-0.249023 -7.58105l-1.76562 -11.1523q-2.06055 -13.0117 -3.65332 -17.0459
q-1.59082 -4.03418 -4.96777 -7.31055q-3.37793 -3.27441 -6.06738 -5.23047q-2.69141 -1.95508 -7.92676 -4.93652l-55.2891 -30.3008q-4.15918 -2.19922 -6.01758 -1.90527l-14.9707 -4.29688q-4.01074 -1.27051 -11.1055 -3.95703l-54.4502 -19.002l-17.418 -7.71973
q-13.2588 -5.52148 -28.1816 -15.542l-15.8535 -9.87207l-5.67676 -5.77051q-11.3545 -11.5391 -23.3906 -15.3477q-12.0342 -3.81055 -31.5498 -0.719727l-43.1904 3.9834q-16.2393 -0.286133 -29.7646 -1.47754q-13.5264 -1.19238 -40.7236 -4.50586l-57.332 -7.11426
q-10.6641 -1.16797 -16.5342 -2.14355l-30.5752 -6.58887q-20.8418 -5.27344 -45.0303 -7.63477q-24.1895 -2.36035 -49.7227 -1.17383l-77.8223 1.84668l-37.9092 1.24121l-10.8115 -2.09766l-0.165039 -37.1279q0.71875 -31.5508 -0.165039 -37.125z"/>
    </symbol>

    <symbol id="uth-ti" viewBox="-10 0 860 1024">
      <path fill="currentColor" d="M784.626 105.765q-2.65527 0.884766 -6.19629 4.42773q-12.3955 10.624 -21.6904 16.8193q-9.2959 6.19824 -26.1152 14.165l-23.9033 10.624q-2.65625 0.884766 -5.3125 2.65527t-3.54102 3.09863q-0.885742 1.32812 -5.31152 4.86914l-34.5264 26.5596
q-9.73828 7.08203 -21.6904 16.377q-11.9512 9.29688 -19.9189 16.3789l-13.2793 10.623l-23.9033 16.8213l-17.7061 10.623q-4.42578 2.65625 -11.5088 6.19629l-15.0488 6.19727q-7.96777 3.54102 -25.6729 12.8369q-17.7061 9.29492 -23.9043 11.9521l-10.6221 7.08105
l-6.19824 5.31348l-10.624 7.08105l-18.5908 -0.884766q-15.9355 0 -27.001 0.884766q-11.0664 0.884766 -24.3457 2.65625l-39.8379 0.884766q-3.54199 0 -4.42676 0.884766q-10.623 6.19824 -24.3457 20.3623q-13.7217 14.165 -18.1484 24.7891l-11.5088 26.5586
q-3.54004 10.623 -6.19727 15.9346q-2.65527 5.31152 -6.63867 10.624q-3.98438 5.31152 -8.41113 12.3926l-7.9668 13.2803l-57.5439 89.415q-6.19824 10.623 -22.1328 29.6582q-15.9346 19.0332 -30.9854 28.7715l-52.2324 28.3291q-10.624 4.42676 -21.2471 7.96777
l-11.5088 4.42578l-2.65625 -17.7061l-0.884766 -18.5908q0 -12.3936 -3.54102 -15.9346l-30.9844 -0.886719q-6.19824 -0.884766 -7.08301 8.85352q-4.42773 57.543 5.75391 156.255q10.1816 98.71 26.1162 158.024q3.54102 10.623 4.86816 13.7217
q1.3291 3.09961 2.21387 3.09961l4.42676 -1.77148l4.42676 -1.76953q1.76953 -1.77148 17.2627 -6.6416q15.4922 -4.86914 26.1172 -7.52344q1.76953 -0.885742 -0.885742 -10.1826q-2.65723 -9.29492 -2.65723 -12.835q0 -0.885742 7.08398 -2.65625l15.9346 -2.65625
q7.96777 -0.884766 25.2305 -2.21289t38.5107 -2.21289q61.9697 -1.77148 90.2998 -15.0498l11.5088 -4.42676l29.2148 -14.165l14.1641 -6.19727q15.9355 -6.19629 23.0176 -12.3945q2.65625 -1.76953 4.42578 -2.65527q29.2168 -4.42676 49.5771 -13.2793
q12.3945 -5.31152 20.8037 -10.1807q8.41113 -4.86914 15.4951 -10.1807l23.9014 -17.707l22.1328 -19.4756q13.2783 -10.623 20.3623 -19.0342q7.08105 -8.41113 17.7051 -23.46l9.73828 -13.2793l20.3623 -0.884766q6.19629 0 13.7217 -3.09863
q7.52441 -3.09961 8.41016 -4.86914l16.8203 -11.5098q30.9854 -21.248 56.6582 -57.543q4.42676 -6.19727 7.08203 -8.85352l14.166 -11.5088q6.19727 -5.31152 22.1318 -30.0996l11.5078 -16.8203q2.65625 -3.54199 5.75488 -10.1807q3.09863 -6.6416 3.9834 -11.0664
l2.65723 -8.85352q5.31152 -21.2471 -7.96777 -32.7559q-15.0498 -13.2793 -33.6416 -12.3936q-3.54102 0.884766 -8.85352 -6.19824q-2.65527 -4.42676 -9.73828 -12.3936l-3.54004 -3.54004l1.77051 -3.54199q1.76953 -6.19727 2.65527 -13.2793
q0.884766 -7.08301 0.884766 -12.3945q0 -3.54199 -2.65527 -11.5088q-2.65527 -7.96777 -3.54004 -10.624q-3.54199 -6.19531 -15.0508 -14.1631q-7.08203 -5.3125 -11.5088 -7.52637q-4.42676 -2.21191 -15.0498 -7.52539l-7.96777 -3.54004l55.7725 -51.3467
l12.3955 -10.624q8.85254 -7.96777 16.8193 -15.4922q7.96875 -7.52539 10.625 -11.9521l6.19531 -9.7373l3.54199 -7.08301l12.3945 -9.73926q16.8203 -11.5078 31.4277 -26.1152q14.6074 -14.6064 32.3135 -36.7393q8.85254 -10.625 12.3936 -16.3779
q3.54199 -5.75391 6.19629 -14.165q2.65625 -8.41016 2.65625 -13.7207q0 -5.3125 -2.65625 -10.626q-7.08105 -14.1631 -15.0488 -19.918q-7.96875 -5.75488 -15.9355 -2.21387z"/>
    </symbol>
  </defs>

  <rect x="0" y="0" width="980" height="260" fill="#fff"/>
  <text class="hint" x="20" y="20">Käemärgid (uTheory teacher) Eesti astmetele · peegelpilt (RTL) · valge taust</text>

  <!-- Layout -->
  <!-- cellW=130, topY=40, glyphBoxH=160, scale=0.157 (1024px -> ~160px) -->
  <g transform="translate(20,40)">
    <!-- Boxes -->
    <rect class="box" x="0"   y="0" width="130" height="200"/>
    <rect class="box" x="140" y="0" width="130" height="200"/>
    <rect class="box" x="280" y="0" width="130" height="200"/>
    <rect class="box" x="420" y="0" width="130" height="200"/>
    <rect class="box" x="560" y="0" width="130" height="200"/>
    <rect class="box" x="700" y="0" width="130" height="200"/>
    <rect class="box" x="840" y="0" width="130" height="200"/>

    <!-- Labels -->
    <text class="label" x="65"  y="190" text-anchor="middle">JO</text>
    <text class="label" x="205" y="190" text-anchor="middle">LE</text>
    <text class="label" x="345" y="190" text-anchor="middle">MI</text>
    <text class="label" x="485" y="190" text-anchor="middle">NA</text>
    <text class="label" x="625" y="190" text-anchor="middle">SO</text>
    <text class="label" x="765" y="190" text-anchor="middle">RA</text>
    <text class="label" x="905" y="190" text-anchor="middle">DI</text>

    <!-- Glyphs (RTL mirrored in their own viewBox spaces) -->
    <!-- MirrorX = viewBoxWidth - 20 -->
    <g transform="translate(12,26) scale(0.157)">
      <g transform="translate(601 0) scale(-1 1)"><use href="#uth-do"/></g>
    </g>
    <g transform="translate(152,26) scale(0.157)">
      <g transform="translate(894 0) scale(-1 1)"><use href="#uth-re"/></g>
    </g>
    <g transform="translate(292,26) scale(0.157)">
      <g transform="translate(1079 0) scale(-1 1)"><use href="#uth-mi"/></g>
    </g>
    <g transform="translate(432,26) scale(0.157)">
      <g transform="translate(648 0) scale(-1 1)"><use href="#uth-fa"/></g>
    </g>
    <g transform="translate(572,26) scale(0.157)">
      <g transform="translate(1032 0) scale(-1 1)"><use href="#uth-sol"/></g>
    </g>
    <g transform="translate(712,26) scale(0.157)">
      <g transform="translate(848 0) scale(-1 1)"><use href="#uth-la"/></g>
    </g>
    <g transform="translate(852,26) scale(0.157)">
      <g transform="translate(840 0) scale(-1 1)"><use href="#uth-ti"/></g>
    </g>
  </g>
</svg>

